<svg xmlns="http://www.w3.org/2000/svg" xmlns:xlink="http://www.w3.org/1999/xlink" xmlns:s="https://github.com/nturley/netlistsvg" width="526" height="465.5">
  <style>svg {
    stroke:#000;
    fill:none;
  }
  text {
    fill:#000;
    stroke:none;
    font-size:10px;
    font-weight: bold;
    font-family: "Courier New", monospace;
  }
  .nodelabel {
    text-anchor: middle;
  }
  .inputPortLabel {
    text-anchor: end;
  }
  .splitjoinBody {
    fill:#000;
  }</style>
  <g s:type="generic" transform="translate(299,242.5)" s:width="30" s:height="40" id="cell_gen_flag_bits[0].u_bit">
    <text x="15" y="-4" class="nodelabel cell_gen_flag_bits[0].u_bit" s:attribute="ref">flag_reg_bit</text>
    <rect width="30" height="80" s:generic="body" class="cell_gen_flag_bits[0].u_bit"/>
    <g transform="translate(0,10)" s:x="0" s:y="10" s:pid="in0" id="port_gen_flag_bits[0].u_bit~i_clk">
      <text x="-3" y="-4" class="inputPortLabel cell_gen_flag_bits[0].u_bit">i_clk</text>
    </g>
    <g transform="translate(0,30)" s:x="0" s:y="10" s:pid="in0" id="port_gen_flag_bits[0].u_bit~i_d">
      <text x="-3" y="-4" class="inputPortLabel cell_gen_flag_bits[0].u_bit">i_d</text>
    </g>
    <g transform="translate(0,50)" s:x="0" s:y="10" s:pid="in0" id="port_gen_flag_bits[0].u_bit~i_rst_n">
      <text x="-3" y="-4" class="inputPortLabel cell_gen_flag_bits[0].u_bit">i_rst_n</text>
    </g>
    <g transform="translate(0,70)" s:x="0" s:y="10" s:pid="in0" id="port_gen_flag_bits[0].u_bit~i_wen">
      <text x="-3" y="-4" class="inputPortLabel cell_gen_flag_bits[0].u_bit">i_wen</text>
    </g>
    <g transform="translate(30,10)" s:x="30" s:y="10" s:pid="out0" id="port_gen_flag_bits[0].u_bit~o_q">
      <text x="5" y="-4" style="fill:#000; stroke:none" class="cell_gen_flag_bits[0].u_bit">o_q</text>
    </g>
  </g>
  <g s:type="generic" transform="translate(299,22)" s:width="30" s:height="40" id="cell_gen_flag_bits[1].u_bit">
    <text x="15" y="-4" class="nodelabel cell_gen_flag_bits[1].u_bit" s:attribute="ref">flag_reg_bit</text>
    <rect width="30" height="80" s:generic="body" class="cell_gen_flag_bits[1].u_bit"/>
    <g transform="translate(0,10)" s:x="0" s:y="10" s:pid="in0" id="port_gen_flag_bits[1].u_bit~i_clk">
      <text x="-3" y="-4" class="inputPortLabel cell_gen_flag_bits[1].u_bit">i_clk</text>
    </g>
    <g transform="translate(0,30)" s:x="0" s:y="10" s:pid="in0" id="port_gen_flag_bits[1].u_bit~i_d">
      <text x="-3" y="-4" class="inputPortLabel cell_gen_flag_bits[1].u_bit">i_d</text>
    </g>
    <g transform="translate(0,50)" s:x="0" s:y="10" s:pid="in0" id="port_gen_flag_bits[1].u_bit~i_rst_n">
      <text x="-3" y="-4" class="inputPortLabel cell_gen_flag_bits[1].u_bit">i_rst_n</text>
    </g>
    <g transform="translate(0,70)" s:x="0" s:y="10" s:pid="in0" id="port_gen_flag_bits[1].u_bit~i_wen">
      <text x="-3" y="-4" class="inputPortLabel cell_gen_flag_bits[1].u_bit">i_wen</text>
    </g>
    <g transform="translate(30,10)" s:x="30" s:y="10" s:pid="out0" id="port_gen_flag_bits[1].u_bit~o_q">
      <text x="5" y="-4" style="fill:#000; stroke:none" class="cell_gen_flag_bits[1].u_bit">o_q</text>
    </g>
  </g>
  <g s:type="generic" transform="translate(299,370.5)" s:width="30" s:height="40" id="cell_gen_flag_bits[2].u_bit">
    <text x="15" y="-4" class="nodelabel cell_gen_flag_bits[2].u_bit" s:attribute="ref">flag_reg_bit</text>
    <rect width="30" height="80" s:generic="body" class="cell_gen_flag_bits[2].u_bit"/>
    <g transform="translate(0,10)" s:x="0" s:y="10" s:pid="in0" id="port_gen_flag_bits[2].u_bit~i_clk">
      <text x="-3" y="-4" class="inputPortLabel cell_gen_flag_bits[2].u_bit">i_clk</text>
    </g>
    <g transform="translate(0,30)" s:x="0" s:y="10" s:pid="in0" id="port_gen_flag_bits[2].u_bit~i_d">
      <text x="-3" y="-4" class="inputPortLabel cell_gen_flag_bits[2].u_bit">i_d</text>
    </g>
    <g transform="translate(0,50)" s:x="0" s:y="10" s:pid="in0" id="port_gen_flag_bits[2].u_bit~i_rst_n">
      <text x="-3" y="-4" class="inputPortLabel cell_gen_flag_bits[2].u_bit">i_rst_n</text>
    </g>
    <g transform="translate(0,70)" s:x="0" s:y="10" s:pid="in0" id="port_gen_flag_bits[2].u_bit~i_wen">
      <text x="-3" y="-4" class="inputPortLabel cell_gen_flag_bits[2].u_bit">i_wen</text>
    </g>
    <g transform="translate(30,10)" s:x="30" s:y="10" s:pid="out0" id="port_gen_flag_bits[2].u_bit~o_q">
      <text x="5" y="-4" style="fill:#000; stroke:none" class="cell_gen_flag_bits[2].u_bit">o_q</text>
    </g>
  </g>
  <g s:type="generic" transform="translate(144,302.5)" s:width="30" s:height="40" id="cell_u_ctrl">
    <text x="15" y="-4" class="nodelabel cell_u_ctrl" s:attribute="ref">flag_reg_ctrl</text>
    <rect width="30" height="20" s:generic="body" class="cell_u_ctrl"/>
    <g transform="translate(0,10)" s:x="0" s:y="10" s:pid="in0" id="port_u_ctrl~i_opcode">
      <text x="-3" y="-4" class="inputPortLabel cell_u_ctrl">i_opcode</text>
    </g>
    <g transform="translate(30,10)" s:x="30" s:y="10" s:pid="out0" id="port_u_ctrl~o_wen">
      <text x="5" y="-4" style="fill:#000; stroke:none" class="cell_u_ctrl">o_wen</text>
    </g>
  </g>
  <g s:type="inputExt" transform="translate(144,107.5)" s:width="30" s:height="20" id="cell_i_clk">
    <text x="15" y="-4" class="nodelabel cell_i_clk" s:attribute="ref">i_clk</text>
    <s:alias val="$_inputExt_"/>
    <path d="M0,0 L0,20 L15,20 L30,10 L15,0 Z" class="cell_i_clk"/>
    <g s:x="28" s:y="10" s:pid="Y"/>
  </g>
  <g s:type="inputExt" transform="translate(144,237.5)" s:width="30" s:height="20" id="cell_i_rst_n">
    <text x="15" y="-4" class="nodelabel cell_i_rst_n" s:attribute="ref">i_rst_n</text>
    <s:alias val="$_inputExt_"/>
    <path d="M0,0 L0,20 L15,20 L30,10 L15,0 Z" class="cell_i_rst_n"/>
    <g s:x="28" s:y="10" s:pid="Y"/>
  </g>
  <g s:type="inputExt" transform="translate(12,303)" s:width="30" s:height="20" id="cell_i_opcode">
    <text x="15" y="-4" class="nodelabel cell_i_opcode" s:attribute="ref">i_opcode</text>
    <s:alias val="$_inputExt_"/>
    <path d="M0,0 L0,20 L15,20 L30,10 L15,0 Z" class="cell_i_opcode"/>
    <g s:x="28" s:y="10" s:pid="Y"/>
  </g>
  <g s:type="inputExt" transform="translate(144,172.5)" s:width="30" s:height="20" id="cell_i_alu_z">
    <text x="15" y="-4" class="nodelabel cell_i_alu_z" s:attribute="ref">i_alu_z</text>
    <s:alias val="$_inputExt_"/>
    <path d="M0,0 L0,20 L15,20 L30,10 L15,0 Z" class="cell_i_alu_z"/>
    <g s:x="28" s:y="10" s:pid="Y"/>
  </g>
  <g s:type="inputExt" transform="translate(144,42.5)" s:width="30" s:height="20" id="cell_i_alu_n">
    <text x="15" y="-4" class="nodelabel cell_i_alu_n" s:attribute="ref">i_alu_n</text>
    <s:alias val="$_inputExt_"/>
    <path d="M0,0 L0,20 L15,20 L30,10 L15,0 Z" class="cell_i_alu_n"/>
    <g s:x="28" s:y="10" s:pid="Y"/>
  </g>
  <g s:type="inputExt" transform="translate(144,391)" s:width="30" s:height="20" id="cell_i_alu_v">
    <text x="15" y="-4" class="nodelabel cell_i_alu_v" s:attribute="ref">i_alu_v</text>
    <s:alias val="$_inputExt_"/>
    <path d="M0,0 L0,20 L15,20 L30,10 L15,0 Z" class="cell_i_alu_v"/>
    <g s:x="28" s:y="10" s:pid="Y"/>
  </g>
  <g s:type="outputExt" transform="translate(466,243)" s:width="30" s:height="20" id="cell_o_flag_z">
    <text x="15" y="-4" class="nodelabel cell_o_flag_z" s:attribute="ref">o_flag_z</text>
    <s:alias val="$_outputExt_"/>
    <path d="M30,0 L30,20 L15,20 L0,10 L15,0 Z" class="cell_o_flag_z"/>
    <g s:x="0" s:y="10" s:pid="A"/>
  </g>
  <g s:type="outputExt" transform="translate(466,22.5)" s:width="30" s:height="20" id="cell_o_flag_n">
    <text x="15" y="-4" class="nodelabel cell_o_flag_n" s:attribute="ref">o_flag_n</text>
    <s:alias val="$_outputExt_"/>
    <path d="M30,0 L30,20 L15,20 L0,10 L15,0 Z" class="cell_o_flag_n"/>
    <g s:x="0" s:y="10" s:pid="A"/>
  </g>
  <g s:type="outputExt" transform="translate(466,371)" s:width="30" s:height="20" id="cell_o_flag_v">
    <text x="15" y="-4" class="nodelabel cell_o_flag_v" s:attribute="ref">o_flag_v</text>
    <s:alias val="$_outputExt_"/>
    <path d="M30,0 L30,20 L15,20 L0,10 L15,0 Z" class="cell_o_flag_v"/>
    <g s:x="0" s:y="10" s:pid="A"/>
  </g>
  <line x1="172" x2="246" y1="117.5" y2="117.5" class="net_2"/>
  <line x1="246" x2="246" y1="117.5" y2="253" class="net_2"/>
  <circle cx="246" cy="117.5" r="2" style="fill:#000" class="net_2"/>
  <circle cx="246" cy="253" r="2" style="fill:#000" class="net_2"/>
  <line x1="246" x2="299" y1="253" y2="253" class="net_2"/>
  <line x1="172" x2="246" y1="117.5" y2="117.5" class="net_2"/>
  <line x1="246" x2="246" y1="117.5" y2="32.5" class="net_2"/>
  <line x1="246" x2="299" y1="32.5" y2="32.5" class="net_2"/>
  <line x1="172" x2="246" y1="117.5" y2="117.5" class="net_2"/>
  <line x1="246" x2="246" y1="117.5" y2="381" class="net_2"/>
  <line x1="246" x2="299" y1="381" y2="381" class="net_2"/>
  <line x1="172" x2="226" y1="182.5" y2="182.5" class="net_8"/>
  <line x1="226" x2="226" y1="182.5" y2="273" class="net_8"/>
  <line x1="226" x2="299" y1="273" y2="273" class="net_8"/>
  <line x1="172" x2="216" y1="247.5" y2="247.5" class="net_3"/>
  <line x1="216" x2="216" y1="247.5" y2="293" class="net_3"/>
  <circle cx="216" cy="247.5" r="2" style="fill:#000" class="net_3"/>
  <circle cx="216" cy="293" r="2" style="fill:#000" class="net_3"/>
  <line x1="216" x2="299" y1="293" y2="293" class="net_3"/>
  <line x1="172" x2="216" y1="247.5" y2="247.5" class="net_3"/>
  <line x1="216" x2="216" y1="247.5" y2="72.5" class="net_3"/>
  <line x1="216" x2="299" y1="72.5" y2="72.5" class="net_3"/>
  <line x1="172" x2="216" y1="247.5" y2="247.5" class="net_3"/>
  <line x1="216" x2="216" y1="247.5" y2="421" class="net_3"/>
  <line x1="216" x2="299" y1="421" y2="421" class="net_3"/>
  <line x1="175" x2="299" y1="313" y2="313" class="net_14"/>
  <line x1="175" x2="236" y1="313" y2="313" class="net_14"/>
  <line x1="236" x2="236" y1="313" y2="92.5" class="net_14"/>
  <circle cx="236" cy="313" r="2" style="fill:#000" class="net_14"/>
  <line x1="236" x2="299" y1="92.5" y2="92.5" class="net_14"/>
  <line x1="175" x2="236" y1="313" y2="313" class="net_14"/>
  <line x1="236" x2="236" y1="313" y2="441" class="net_14"/>
  <line x1="236" x2="299" y1="441" y2="441" class="net_14"/>
  <line x1="172" x2="299" y1="52.5" y2="52.5" class="net_9"/>
  <line x1="172" x2="299" y1="401" y2="401" class="net_10"/>
  <line x1="40" x2="144" y1="313" y2="313" class="net_4,5,6,7"/>
  <line x1="330" x2="466" y1="253" y2="253" class="net_11"/>
  <line x1="330" x2="466" y1="32.5" y2="32.5" class="net_12"/>
  <line x1="330" x2="466" y1="381" y2="381" class="net_13"/>
</svg>
