<svg xmlns="http://www.w3.org/2000/svg" xmlns:xlink="http://www.w3.org/1999/xlink" xmlns:s="https://github.com/nturley/netlistsvg" width="529" height="485">
  <style>svg {
    stroke:#000;
    fill:none;
  }
  text {
    fill:#000;
    stroke:none;
    font-size:10px;
    font-weight: bold;
    font-family: "Courier New", monospace;
  }
  .nodelabel {
    text-anchor: middle;
  }
  .inputPortLabel {
    text-anchor: end;
  }
  .splitjoinBody {
    fill:#000;
  }</style>
  <g s:type="generic" transform="translate(304.8,22)" s:width="30" s:height="40" id="cell_u_branch_cond">
    <text x="15" y="-4" class="nodelabel cell_u_branch_cond" s:attribute="ref">control_unit_branch_cond</text>
    <rect width="30" height="80" s:generic="body" class="cell_u_branch_cond"/>
    <g transform="translate(0,10)" s:x="0" s:y="10" s:pid="in0" id="port_u_branch_cond~i_flag_n">
      <text x="-3" y="-4" class="inputPortLabel cell_u_branch_cond">i_flag_n</text>
    </g>
    <g transform="translate(0,30)" s:x="0" s:y="10" s:pid="in0" id="port_u_branch_cond~i_flag_v">
      <text x="-3" y="-4" class="inputPortLabel cell_u_branch_cond">i_flag_v</text>
    </g>
    <g transform="translate(0,50)" s:x="0" s:y="10" s:pid="in0" id="port_u_branch_cond~i_flag_z">
      <text x="-3" y="-4" class="inputPortLabel cell_u_branch_cond">i_flag_z</text>
    </g>
    <g transform="translate(0,70)" s:x="0" s:y="10" s:pid="in0" id="port_u_branch_cond~i_inst">
      <text x="-3" y="-4" class="inputPortLabel cell_u_branch_cond">i_inst</text>
    </g>
    <g transform="translate(30,10)" s:x="30" s:y="10" s:pid="out0" id="port_u_branch_cond~o_pc_sel">
      <text x="5" y="-4" style="fill:#000; stroke:none" class="cell_u_branch_cond">o_pc_sel</text>
    </g>
  </g>
  <g s:type="generic" transform="translate(144,217.5)" s:width="30" s:height="40" id="cell_u_decoder">
    <text x="15" y="-4" class="nodelabel cell_u_decoder" s:attribute="ref">control_unit_decoder_4to16</text>
    <rect width="30" height="20" s:generic="body" class="cell_u_decoder"/>
    <g transform="translate(0,10)" s:x="0" s:y="10" s:pid="in0" id="port_u_decoder~i_opcode">
      <text x="-3" y="-4" class="inputPortLabel cell_u_decoder">i_opcode</text>
    </g>
    <g transform="translate(30,10)" s:x="30" s:y="10" s:pid="out0" id="port_u_decoder~o_inst">
      <text x="5" y="-4" style="fill:#000; stroke:none" class="cell_u_decoder">o_inst</text>
    </g>
  </g>
  <g s:type="generic" transform="translate(289,217.5)" s:width="30" s:height="40" id="cell_u_signal_map">
    <text x="15" y="-4" class="nodelabel cell_u_signal_map" s:attribute="ref">control_unit_signal_map</text>
    <rect width="30" height="120" s:generic="body" class="cell_u_signal_map"/>
    <g transform="translate(0,10)" s:x="0" s:y="10" s:pid="in0" id="port_u_signal_map~i_inst">
      <text x="-3" y="-4" class="inputPortLabel cell_u_signal_map">i_inst</text>
    </g>
    <g transform="translate(30,10)" s:x="30" s:y="10" s:pid="out0" id="port_u_signal_map~o_alu_op">
      <text x="5" y="-4" style="fill:#000; stroke:none" class="cell_u_signal_map">o_alu_op</text>
    </g>
    <g transform="translate(30,30)" s:x="30" s:y="10" s:pid="out0" id="port_u_signal_map~o_alu_src">
      <text x="5" y="-4" style="fill:#000; stroke:none" class="cell_u_signal_map">o_alu_src</text>
    </g>
    <g transform="translate(30,50)" s:x="30" s:y="10" s:pid="out0" id="port_u_signal_map~o_imm_type">
      <text x="5" y="-4" style="fill:#000; stroke:none" class="cell_u_signal_map">o_imm_type</text>
    </g>
    <g transform="translate(30,70)" s:x="30" s:y="10" s:pid="out0" id="port_u_signal_map~o_mem_write">
      <text x="5" y="-4" style="fill:#000; stroke:none" class="cell_u_signal_map">o_mem_write</text>
    </g>
    <g transform="translate(30,90)" s:x="30" s:y="10" s:pid="out0" id="port_u_signal_map~o_reg_res_sel">
      <text x="5" y="-4" style="fill:#000; stroke:none" class="cell_u_signal_map">o_reg_res_sel</text>
    </g>
    <g transform="translate(30,110)" s:x="30" s:y="10" s:pid="out0" id="port_u_signal_map~o_reg_write">
      <text x="5" y="-4" style="fill:#000; stroke:none" class="cell_u_signal_map">o_reg_write</text>
    </g>
  </g>
  <g s:type="inputExt" transform="translate(12,218)" s:width="30" s:height="20" id="cell_i_opcode">
    <text x="15" y="-4" class="nodelabel cell_i_opcode" s:attribute="ref">i_opcode</text>
    <s:alias val="$_inputExt_"/>
    <path d="M0,0 L0,20 L15,20 L30,10 L15,0 Z" class="cell_i_opcode"/>
    <g s:x="28" s:y="10" s:pid="Y"/>
  </g>
  <g s:type="inputExt" transform="translate(144,152.5)" s:width="30" s:height="20" id="cell_i_flag_z">
    <text x="15" y="-4" class="nodelabel cell_i_flag_z" s:attribute="ref">i_flag_z</text>
    <s:alias val="$_inputExt_"/>
    <path d="M0,0 L0,20 L15,20 L30,10 L15,0 Z" class="cell_i_flag_z"/>
    <g s:x="28" s:y="10" s:pid="Y"/>
  </g>
  <g s:type="inputExt" transform="translate(144,22.5)" s:width="30" s:height="20" id="cell_i_flag_n">
    <text x="15" y="-4" class="nodelabel cell_i_flag_n" s:attribute="ref">i_flag_n</text>
    <s:alias val="$_inputExt_"/>
    <path d="M0,0 L0,20 L15,20 L30,10 L15,0 Z" class="cell_i_flag_n"/>
    <g s:x="28" s:y="10" s:pid="Y"/>
  </g>
  <g s:type="inputExt" transform="translate(144,87.5)" s:width="30" s:height="20" id="cell_i_flag_v">
    <text x="15" y="-4" class="nodelabel cell_i_flag_v" s:attribute="ref">i_flag_v</text>
    <s:alias val="$_inputExt_"/>
    <path d="M0,0 L0,20 L15,20 L30,10 L15,0 Z" class="cell_i_flag_v"/>
    <g s:x="28" s:y="10" s:pid="Y"/>
  </g>
  <g s:type="outputExt" transform="translate(439,453)" s:width="30" s:height="20" id="cell_o_reg_write">
    <text x="15" y="-4" class="nodelabel cell_o_reg_write" s:attribute="ref">o_reg_write</text>
    <s:alias val="$_outputExt_"/>
    <path d="M30,0 L30,20 L15,20 L0,10 L15,0 Z" class="cell_o_reg_write"/>
    <g s:x="0" s:y="10" s:pid="A"/>
  </g>
  <g s:type="outputExt" transform="translate(439,323)" s:width="30" s:height="20" id="cell_o_mem_write">
    <text x="15" y="-4" class="nodelabel cell_o_mem_write" s:attribute="ref">o_mem_write</text>
    <s:alias val="$_outputExt_"/>
    <path d="M30,0 L30,20 L15,20 L0,10 L15,0 Z" class="cell_o_mem_write"/>
    <g s:x="0" s:y="10" s:pid="A"/>
  </g>
  <g s:type="outputExt" transform="translate(439,193)" s:width="30" s:height="20" id="cell_o_alu_src">
    <text x="15" y="-4" class="nodelabel cell_o_alu_src" s:attribute="ref">o_alu_src</text>
    <s:alias val="$_outputExt_"/>
    <path d="M30,0 L30,20 L15,20 L0,10 L15,0 Z" class="cell_o_alu_src"/>
    <g s:x="0" s:y="10" s:pid="A"/>
  </g>
  <g s:type="outputExt" transform="translate(439,388)" s:width="30" s:height="20" id="cell_o_reg_res_sel">
    <text x="15" y="-4" class="nodelabel cell_o_reg_res_sel" s:attribute="ref">o_reg_res_sel</text>
    <s:alias val="$_outputExt_"/>
    <path d="M30,0 L30,20 L15,20 L0,10 L15,0 Z" class="cell_o_reg_res_sel"/>
    <g s:x="0" s:y="10" s:pid="A"/>
  </g>
  <g s:type="outputExt" transform="translate(439,128)" s:width="30" s:height="20" id="cell_o_alu_op">
    <text x="15" y="-4" class="nodelabel cell_o_alu_op" s:attribute="ref">o_alu_op</text>
    <s:alias val="$_outputExt_"/>
    <path d="M30,0 L30,20 L15,20 L0,10 L15,0 Z" class="cell_o_alu_op"/>
    <g s:x="0" s:y="10" s:pid="A"/>
  </g>
  <g s:type="outputExt" transform="translate(439,258)" s:width="30" s:height="20" id="cell_o_imm_type">
    <text x="15" y="-4" class="nodelabel cell_o_imm_type" s:attribute="ref">o_imm_type</text>
    <s:alias val="$_outputExt_"/>
    <path d="M30,0 L30,20 L15,20 L0,10 L15,0 Z" class="cell_o_imm_type"/>
    <g s:x="0" s:y="10" s:pid="A"/>
  </g>
  <g s:type="outputExt" transform="translate(439,22.5)" s:width="30" s:height="20" id="cell_o_pc_sel">
    <text x="15" y="-4" class="nodelabel cell_o_pc_sel" s:attribute="ref">o_pc_sel</text>
    <s:alias val="$_outputExt_"/>
    <path d="M30,0 L30,20 L15,20 L0,10 L15,0 Z" class="cell_o_pc_sel"/>
    <g s:x="0" s:y="10" s:pid="A"/>
  </g>
  <line x1="172" x2="304.8" y1="32.5" y2="32.5" class="net_7"/>
  <line x1="172" x2="222" y1="97.5" y2="97.5" class="net_8"/>
  <line x1="222" x2="222" y1="97.5" y2="52.5" class="net_8"/>
  <line x1="222" x2="304.8" y1="52.5" y2="52.5" class="net_8"/>
  <line x1="172" x2="232" y1="162.5" y2="162.5" class="net_6"/>
  <line x1="232" x2="232" y1="162.5" y2="72.5" class="net_6"/>
  <line x1="232" x2="304.8" y1="72.5" y2="72.5" class="net_6"/>
  <line x1="175" x2="242" y1="228" y2="228" class="net_23,24,25,26,27,28,29,30,31,32,33,34,35,36,37,38"/>
  <line x1="242" x2="242" y1="228" y2="92.5" class="net_23,24,25,26,27,28,29,30,31,32,33,34,35,36,37,38"/>
  <circle cx="242" cy="228" r="2" style="fill:#000" class="net_23,24,25,26,27,28,29,30,31,32,33,34,35,36,37,38"/>
  <line x1="242" x2="304.8" y1="92.5" y2="92.5" class="net_23,24,25,26,27,28,29,30,31,32,33,34,35,36,37,38"/>
  <line x1="175" x2="289" y1="228" y2="228" class="net_23,24,25,26,27,28,29,30,31,32,33,34,35,36,37,38"/>
  <line x1="40" x2="144" y1="228" y2="228" class="net_2,3,4,5"/>
  <line x1="320" x2="409" y1="328" y2="328" class="net_9"/>
  <line x1="409" x2="409" y1="328" y2="463" class="net_9"/>
  <line x1="409" x2="439" y1="463" y2="463" class="net_9"/>
  <line x1="320" x2="429" y1="288" y2="288" class="net_10"/>
  <line x1="429" x2="429" y1="288" y2="333" class="net_10"/>
  <line x1="429" x2="439" y1="333" y2="333" class="net_10"/>
  <line x1="320" x2="419" y1="248" y2="248" class="net_11"/>
  <line x1="419" x2="419" y1="248" y2="203" class="net_11"/>
  <line x1="419" x2="439" y1="203" y2="203" class="net_11"/>
  <line x1="320" x2="419" y1="308" y2="308" class="net_12,13"/>
  <line x1="419" x2="419" y1="308" y2="398" class="net_12,13"/>
  <line x1="419" x2="439" y1="398" y2="398" class="net_12,13"/>
  <line x1="320" x2="409" y1="228" y2="228" class="net_14,15,16,17"/>
  <line x1="409" x2="409" y1="228" y2="138" class="net_14,15,16,17"/>
  <line x1="409" x2="439" y1="138" y2="138" class="net_14,15,16,17"/>
  <line x1="320" x2="439" y1="268" y2="268" class="net_18,19,20"/>
  <line x1="335.8" x2="439" y1="32.5" y2="32.5" class="net_21,22"/>
</svg>
