<svg xmlns="http://www.w3.org/2000/svg" xmlns:xlink="http://www.w3.org/1999/xlink" xmlns:s="https://github.com/nturley/netlistsvg" width="544" height="196.5">
  <style>svg {
    stroke:#000;
    fill:none;
  }
  text {
    fill:#000;
    stroke:none;
    font-size:10px;
    font-weight: bold;
    font-family: "Courier New", monospace;
  }
  .nodelabel {
    text-anchor: middle;
  }
  .inputPortLabel {
    text-anchor: end;
  }
  .splitjoinBody {
    fill:#000;
  }</style>
  <g s:type="generic" transform="translate(233,22)" s:width="30" s:height="40" id="cell_u_mux_stage1">
    <text x="15" y="-4" class="nodelabel cell_u_mux_stage1" s:attribute="ref">writeback_mux_2to1_16bit</text>
    <rect width="30" height="60" s:generic="body" class="cell_u_mux_stage1"/>
    <g transform="translate(0,10)" s:x="0" s:y="10" s:pid="in0" id="port_u_mux_stage1~i_d0">
      <text x="-3" y="-4" class="inputPortLabel cell_u_mux_stage1">i_d0</text>
    </g>
    <g transform="translate(0,30)" s:x="0" s:y="10" s:pid="in0" id="port_u_mux_stage1~i_d1">
      <text x="-3" y="-4" class="inputPortLabel cell_u_mux_stage1">i_d1</text>
    </g>
    <g transform="translate(0,50)" s:x="0" s:y="10" s:pid="in0" id="port_u_mux_stage1~i_sel">
      <text x="-3" y="-4" class="inputPortLabel cell_u_mux_stage1">i_sel</text>
    </g>
    <g transform="translate(30,10)" s:x="30" s:y="10" s:pid="out0" id="port_u_mux_stage1~o_data">
      <text x="5" y="-4" style="fill:#000; stroke:none" class="cell_u_mux_stage1">o_data</text>
    </g>
  </g>
  <g s:type="generic" transform="translate(371,22)" s:width="30" s:height="40" id="cell_u_mux_stage2">
    <text x="15" y="-4" class="nodelabel cell_u_mux_stage2" s:attribute="ref">writeback_mux_2to1_16bit</text>
    <rect width="30" height="60" s:generic="body" class="cell_u_mux_stage2"/>
    <g transform="translate(0,10)" s:x="0" s:y="10" s:pid="in0" id="port_u_mux_stage2~i_d0">
      <text x="-3" y="-4" class="inputPortLabel cell_u_mux_stage2">i_d0</text>
    </g>
    <g transform="translate(0,30)" s:x="0" s:y="10" s:pid="in0" id="port_u_mux_stage2~i_d1">
      <text x="-3" y="-4" class="inputPortLabel cell_u_mux_stage2">i_d1</text>
    </g>
    <g transform="translate(0,50)" s:x="0" s:y="10" s:pid="in0" id="port_u_mux_stage2~i_sel">
      <text x="-3" y="-4" class="inputPortLabel cell_u_mux_stage2">i_sel</text>
    </g>
    <g transform="translate(30,10)" s:x="30" s:y="10" s:pid="out0" id="port_u_mux_stage2~o_data">
      <text x="5" y="-4" style="fill:#000; stroke:none" class="cell_u_mux_stage2">o_data</text>
    </g>
  </g>
  <g s:type="inputExt" transform="translate(95,22.5)" s:width="30" s:height="20" id="cell_i_alu_result">
    <text x="15" y="-4" class="nodelabel cell_i_alu_result" s:attribute="ref">i_alu_result</text>
    <s:alias val="$_inputExt_"/>
    <path d="M0,0 L0,20 L15,20 L30,10 L15,0 Z" class="cell_i_alu_result"/>
    <g s:x="28" s:y="10" s:pid="Y"/>
  </g>
  <g s:type="inputExt" transform="translate(95,87.5)" s:width="30" s:height="20" id="cell_i_mem_data">
    <text x="15" y="-4" class="nodelabel cell_i_mem_data" s:attribute="ref">i_mem_data</text>
    <s:alias val="$_inputExt_"/>
    <path d="M0,0 L0,20 L15,20 L30,10 L15,0 Z" class="cell_i_mem_data"/>
    <g s:x="28" s:y="10" s:pid="Y"/>
  </g>
  <g s:type="inputExt" transform="translate(233,130)" s:width="30" s:height="20" id="cell_i_pc_plus_2">
    <text x="15" y="-4" class="nodelabel cell_i_pc_plus_2" s:attribute="ref">i_pc_plus_2</text>
    <s:alias val="$_inputExt_"/>
    <path d="M0,0 L0,20 L15,20 L30,10 L15,0 Z" class="cell_i_pc_plus_2"/>
    <g s:x="28" s:y="10" s:pid="Y"/>
  </g>
  <g s:type="inputExt" transform="translate(12,155)" s:width="30" s:height="20" id="cell_i_wb_sel">
    <text x="15" y="-4" class="nodelabel cell_i_wb_sel" s:attribute="ref">i_wb_sel</text>
    <s:alias val="$_inputExt_"/>
    <path d="M0,0 L0,20 L15,20 L30,10 L15,0 Z" class="cell_i_wb_sel"/>
    <g s:x="28" s:y="10" s:pid="Y"/>
  </g>
  <g s:type="outputExt" transform="translate(478,22.5)" s:width="30" s:height="20" id="cell_o_wb_data">
    <text x="15" y="-4" class="nodelabel cell_o_wb_data" s:attribute="ref">o_wb_data</text>
    <s:alias val="$_outputExt_"/>
    <path d="M30,0 L30,20 L15,20 L0,10 L15,0 Z" class="cell_o_wb_data"/>
    <g s:x="0" s:y="10" s:pid="A"/>
  </g>
  <g s:type="split" transform="translate(125.66666666666667,144.5)" s:width="5" s:height="40" id="cell_$split$,50,51,">
    <rect width="5" height="40" class="splitjoinBody" s:generic="body"/>
    <s:alias val="$_split_"/>
    <g s:x="0" s:y="20" s:pid="in"/>
    <g transform="translate(4,10)" s:x="4" s:y="10" s:pid="out0">
      <text x="5" y="-4">0</text>
    </g>
    <g transform="translate(4,30)" s:x="4" s:y="10" s:pid="out0">
      <text x="5" y="-4">1</text>
    </g>
  </g>
  <line x1="123" x2="233" y1="32.5" y2="32.5" class="net_2,3,4,5,6,7,8,9,10,11,12,13,14,15,16,17"/>
  <line x1="123" x2="177" y1="97.5" y2="97.5" class="net_18,19,20,21,22,23,24,25,26,27,28,29,30,31,32,33"/>
  <line x1="177" x2="177" y1="97.5" y2="52.5" class="net_18,19,20,21,22,23,24,25,26,27,28,29,30,31,32,33"/>
  <line x1="177" x2="233" y1="52.5" y2="52.5" class="net_18,19,20,21,22,23,24,25,26,27,28,29,30,31,32,33"/>
  <line x1="130.66666666666669" x2="187" y1="155" y2="155" class="net_50"/>
  <line x1="187" x2="187" y1="155" y2="72.5" class="net_50"/>
  <line x1="187" x2="233" y1="72.5" y2="72.5" class="net_50"/>
  <line x1="264" x2="371" y1="32.5" y2="32.5" class="net_68,69,70,71,72,73,74,75,76,77,78,79,80,81,82,83"/>
  <line x1="261" x2="315" y1="140" y2="140" class="net_34,35,36,37,38,39,40,41,42,43,44,45,46,47,48,49"/>
  <line x1="315" x2="315" y1="140" y2="52.5" class="net_34,35,36,37,38,39,40,41,42,43,44,45,46,47,48,49"/>
  <line x1="315" x2="371" y1="52.5" y2="52.5" class="net_34,35,36,37,38,39,40,41,42,43,44,45,46,47,48,49"/>
  <line x1="130.66666666666669" x2="325" y1="175" y2="175" class="net_51"/>
  <line x1="325" x2="325" y1="175" y2="72.5" class="net_51"/>
  <line x1="325" x2="371" y1="72.5" y2="72.5" class="net_51"/>
  <line x1="402" x2="478" y1="32.5" y2="32.5" class="net_52,53,54,55,56,57,58,59,60,61,62,63,64,65,66,67"/>
  <line x1="40" x2="125.66666666666667" y1="165" y2="165" class="net_50,51"/>
</svg>
