<svg xmlns="http://www.w3.org/2000/svg" xmlns:xlink="http://www.w3.org/1999/xlink" xmlns:s="https://github.com/nturley/netlistsvg" width="4530" height="1563.5">
  <style>svg {
    stroke:#000;
    fill:none;
  }
  text {
    fill:#000;
    stroke:none;
    font-size:10px;
    font-weight: bold;
    font-family: "Courier New", monospace;
  }
  .nodelabel {
    text-anchor: middle;
  }
  .inputPortLabel {
    text-anchor: end;
  }
  .splitjoinBody {
    fill:#000;
  }</style>
  <g s:type="generic" transform="translate(398,41.5)" s:width="30" s:height="40" id="cell_gen_adder_16bit[0].genblk1.u_fa">
    <text x="15" y="-4" class="nodelabel cell_gen_adder_16bit[0].genblk1.u_fa" s:attribute="ref">program_counter_full_adder</text>
    <rect width="30" height="60" s:generic="body" class="cell_gen_adder_16bit[0].genblk1.u_fa"/>
    <g transform="translate(0,10)" s:x="0" s:y="10" s:pid="in0" id="port_gen_adder_16bit[0].genblk1.u_fa~i_a">
      <text x="-3" y="-4" class="inputPortLabel cell_gen_adder_16bit[0].genblk1.u_fa">i_a</text>
    </g>
    <g transform="translate(0,30)" s:x="0" s:y="10" s:pid="in0" id="port_gen_adder_16bit[0].genblk1.u_fa~i_b">
      <text x="-3" y="-4" class="inputPortLabel cell_gen_adder_16bit[0].genblk1.u_fa">i_b</text>
    </g>
    <g transform="translate(0,50)" s:x="0" s:y="10" s:pid="in0" id="port_gen_adder_16bit[0].genblk1.u_fa~i_cin">
      <text x="-3" y="-4" class="inputPortLabel cell_gen_adder_16bit[0].genblk1.u_fa">i_cin</text>
    </g>
    <g transform="translate(30,10)" s:x="30" s:y="10" s:pid="out0" id="port_gen_adder_16bit[0].genblk1.u_fa~o_cout">
      <text x="5" y="-4" style="fill:#000; stroke:none" class="cell_gen_adder_16bit[0].genblk1.u_fa">o_cout</text>
    </g>
    <g transform="translate(30,30)" s:x="30" s:y="10" s:pid="out0" id="port_gen_adder_16bit[0].genblk1.u_fa~o_sum">
      <text x="5" y="-4" style="fill:#000; stroke:none" class="cell_gen_adder_16bit[0].genblk1.u_fa">o_sum</text>
    </g>
  </g>
  <g s:type="generic" transform="translate(2918,1279)" s:width="30" s:height="40" id="cell_gen_adder_16bit[10].genblk1.u_fa">
    <text x="15" y="-4" class="nodelabel cell_gen_adder_16bit[10].genblk1.u_fa" s:attribute="ref">program_counter_full_adder</text>
    <rect width="30" height="60" s:generic="body" class="cell_gen_adder_16bit[10].genblk1.u_fa"/>
    <g transform="translate(0,10)" s:x="0" s:y="10" s:pid="in0" id="port_gen_adder_16bit[10].genblk1.u_fa~i_a">
      <text x="-3" y="-4" class="inputPortLabel cell_gen_adder_16bit[10].genblk1.u_fa">i_a</text>
    </g>
    <g transform="translate(0,30)" s:x="0" s:y="10" s:pid="in0" id="port_gen_adder_16bit[10].genblk1.u_fa~i_b">
      <text x="-3" y="-4" class="inputPortLabel cell_gen_adder_16bit[10].genblk1.u_fa">i_b</text>
    </g>
    <g transform="translate(0,50)" s:x="0" s:y="10" s:pid="in0" id="port_gen_adder_16bit[10].genblk1.u_fa~i_cin">
      <text x="-3" y="-4" class="inputPortLabel cell_gen_adder_16bit[10].genblk1.u_fa">i_cin</text>
    </g>
    <g transform="translate(30,10)" s:x="30" s:y="10" s:pid="out0" id="port_gen_adder_16bit[10].genblk1.u_fa~o_cout">
      <text x="5" y="-4" style="fill:#000; stroke:none" class="cell_gen_adder_16bit[10].genblk1.u_fa">o_cout</text>
    </g>
    <g transform="translate(30,30)" s:x="30" s:y="10" s:pid="out0" id="port_gen_adder_16bit[10].genblk1.u_fa~o_sum">
      <text x="5" y="-4" style="fill:#000; stroke:none" class="cell_gen_adder_16bit[10].genblk1.u_fa">o_sum</text>
    </g>
  </g>
  <g s:type="generic" transform="translate(3176,1341.5)" s:width="30" s:height="40" id="cell_gen_adder_16bit[11].genblk1.u_fa">
    <text x="15" y="-4" class="nodelabel cell_gen_adder_16bit[11].genblk1.u_fa" s:attribute="ref">program_counter_full_adder</text>
    <rect width="30" height="60" s:generic="body" class="cell_gen_adder_16bit[11].genblk1.u_fa"/>
    <g transform="translate(0,10)" s:x="0" s:y="10" s:pid="in0" id="port_gen_adder_16bit[11].genblk1.u_fa~i_a">
      <text x="-3" y="-4" class="inputPortLabel cell_gen_adder_16bit[11].genblk1.u_fa">i_a</text>
    </g>
    <g transform="translate(0,30)" s:x="0" s:y="10" s:pid="in0" id="port_gen_adder_16bit[11].genblk1.u_fa~i_b">
      <text x="-3" y="-4" class="inputPortLabel cell_gen_adder_16bit[11].genblk1.u_fa">i_b</text>
    </g>
    <g transform="translate(0,50)" s:x="0" s:y="10" s:pid="in0" id="port_gen_adder_16bit[11].genblk1.u_fa~i_cin">
      <text x="-3" y="-4" class="inputPortLabel cell_gen_adder_16bit[11].genblk1.u_fa">i_cin</text>
    </g>
    <g transform="translate(30,10)" s:x="30" s:y="10" s:pid="out0" id="port_gen_adder_16bit[11].genblk1.u_fa~o_cout">
      <text x="5" y="-4" style="fill:#000; stroke:none" class="cell_gen_adder_16bit[11].genblk1.u_fa">o_cout</text>
    </g>
    <g transform="translate(30,30)" s:x="30" s:y="10" s:pid="out0" id="port_gen_adder_16bit[11].genblk1.u_fa~o_sum">
      <text x="5" y="-4" style="fill:#000; stroke:none" class="cell_gen_adder_16bit[11].genblk1.u_fa">o_sum</text>
    </g>
  </g>
  <g s:type="generic" transform="translate(3434,1404)" s:width="30" s:height="40" id="cell_gen_adder_16bit[12].genblk1.u_fa">
    <text x="15" y="-4" class="nodelabel cell_gen_adder_16bit[12].genblk1.u_fa" s:attribute="ref">program_counter_full_adder</text>
    <rect width="30" height="60" s:generic="body" class="cell_gen_adder_16bit[12].genblk1.u_fa"/>
    <g transform="translate(0,10)" s:x="0" s:y="10" s:pid="in0" id="port_gen_adder_16bit[12].genblk1.u_fa~i_a">
      <text x="-3" y="-4" class="inputPortLabel cell_gen_adder_16bit[12].genblk1.u_fa">i_a</text>
    </g>
    <g transform="translate(0,30)" s:x="0" s:y="10" s:pid="in0" id="port_gen_adder_16bit[12].genblk1.u_fa~i_b">
      <text x="-3" y="-4" class="inputPortLabel cell_gen_adder_16bit[12].genblk1.u_fa">i_b</text>
    </g>
    <g transform="translate(0,50)" s:x="0" s:y="10" s:pid="in0" id="port_gen_adder_16bit[12].genblk1.u_fa~i_cin">
      <text x="-3" y="-4" class="inputPortLabel cell_gen_adder_16bit[12].genblk1.u_fa">i_cin</text>
    </g>
    <g transform="translate(30,10)" s:x="30" s:y="10" s:pid="out0" id="port_gen_adder_16bit[12].genblk1.u_fa~o_cout">
      <text x="5" y="-4" style="fill:#000; stroke:none" class="cell_gen_adder_16bit[12].genblk1.u_fa">o_cout</text>
    </g>
    <g transform="translate(30,30)" s:x="30" s:y="10" s:pid="out0" id="port_gen_adder_16bit[12].genblk1.u_fa~o_sum">
      <text x="5" y="-4" style="fill:#000; stroke:none" class="cell_gen_adder_16bit[12].genblk1.u_fa">o_sum</text>
    </g>
  </g>
  <g s:type="generic" transform="translate(3692,1466.5)" s:width="30" s:height="40" id="cell_gen_adder_16bit[13].genblk1.u_fa">
    <text x="15" y="-4" class="nodelabel cell_gen_adder_16bit[13].genblk1.u_fa" s:attribute="ref">program_counter_full_adder</text>
    <rect width="30" height="60" s:generic="body" class="cell_gen_adder_16bit[13].genblk1.u_fa"/>
    <g transform="translate(0,10)" s:x="0" s:y="10" s:pid="in0" id="port_gen_adder_16bit[13].genblk1.u_fa~i_a">
      <text x="-3" y="-4" class="inputPortLabel cell_gen_adder_16bit[13].genblk1.u_fa">i_a</text>
    </g>
    <g transform="translate(0,30)" s:x="0" s:y="10" s:pid="in0" id="port_gen_adder_16bit[13].genblk1.u_fa~i_b">
      <text x="-3" y="-4" class="inputPortLabel cell_gen_adder_16bit[13].genblk1.u_fa">i_b</text>
    </g>
    <g transform="translate(0,50)" s:x="0" s:y="10" s:pid="in0" id="port_gen_adder_16bit[13].genblk1.u_fa~i_cin">
      <text x="-3" y="-4" class="inputPortLabel cell_gen_adder_16bit[13].genblk1.u_fa">i_cin</text>
    </g>
    <g transform="translate(30,10)" s:x="30" s:y="10" s:pid="out0" id="port_gen_adder_16bit[13].genblk1.u_fa~o_cout">
      <text x="5" y="-4" style="fill:#000; stroke:none" class="cell_gen_adder_16bit[13].genblk1.u_fa">o_cout</text>
    </g>
    <g transform="translate(30,30)" s:x="30" s:y="10" s:pid="out0" id="port_gen_adder_16bit[13].genblk1.u_fa~o_sum">
      <text x="5" y="-4" style="fill:#000; stroke:none" class="cell_gen_adder_16bit[13].genblk1.u_fa">o_sum</text>
    </g>
  </g>
  <g s:type="generic" transform="translate(3950,1426.5)" s:width="30" s:height="40" id="cell_gen_adder_16bit[14].genblk1.u_fa">
    <text x="15" y="-4" class="nodelabel cell_gen_adder_16bit[14].genblk1.u_fa" s:attribute="ref">program_counter_full_adder</text>
    <rect width="30" height="60" s:generic="body" class="cell_gen_adder_16bit[14].genblk1.u_fa"/>
    <g transform="translate(0,10)" s:x="0" s:y="10" s:pid="in0" id="port_gen_adder_16bit[14].genblk1.u_fa~i_a">
      <text x="-3" y="-4" class="inputPortLabel cell_gen_adder_16bit[14].genblk1.u_fa">i_a</text>
    </g>
    <g transform="translate(0,30)" s:x="0" s:y="10" s:pid="in0" id="port_gen_adder_16bit[14].genblk1.u_fa~i_b">
      <text x="-3" y="-4" class="inputPortLabel cell_gen_adder_16bit[14].genblk1.u_fa">i_b</text>
    </g>
    <g transform="translate(0,50)" s:x="0" s:y="10" s:pid="in0" id="port_gen_adder_16bit[14].genblk1.u_fa~i_cin">
      <text x="-3" y="-4" class="inputPortLabel cell_gen_adder_16bit[14].genblk1.u_fa">i_cin</text>
    </g>
    <g transform="translate(30,10)" s:x="30" s:y="10" s:pid="out0" id="port_gen_adder_16bit[14].genblk1.u_fa~o_cout">
      <text x="5" y="-4" style="fill:#000; stroke:none" class="cell_gen_adder_16bit[14].genblk1.u_fa">o_cout</text>
    </g>
    <g transform="translate(30,30)" s:x="30" s:y="10" s:pid="out0" id="port_gen_adder_16bit[14].genblk1.u_fa~o_sum">
      <text x="5" y="-4" style="fill:#000; stroke:none" class="cell_gen_adder_16bit[14].genblk1.u_fa">o_sum</text>
    </g>
  </g>
  <g s:type="generic" transform="translate(4208,1478)" s:width="30" s:height="40" id="cell_gen_adder_16bit[15].genblk1.u_fa">
    <text x="15" y="-4" class="nodelabel cell_gen_adder_16bit[15].genblk1.u_fa" s:attribute="ref">program_counter_full_adder</text>
    <rect width="30" height="60" s:generic="body" class="cell_gen_adder_16bit[15].genblk1.u_fa"/>
    <g transform="translate(0,10)" s:x="0" s:y="10" s:pid="in0" id="port_gen_adder_16bit[15].genblk1.u_fa~i_a">
      <text x="-3" y="-4" class="inputPortLabel cell_gen_adder_16bit[15].genblk1.u_fa">i_a</text>
    </g>
    <g transform="translate(0,30)" s:x="0" s:y="10" s:pid="in0" id="port_gen_adder_16bit[15].genblk1.u_fa~i_b">
      <text x="-3" y="-4" class="inputPortLabel cell_gen_adder_16bit[15].genblk1.u_fa">i_b</text>
    </g>
    <g transform="translate(0,50)" s:x="0" s:y="10" s:pid="in0" id="port_gen_adder_16bit[15].genblk1.u_fa~i_cin">
      <text x="-3" y="-4" class="inputPortLabel cell_gen_adder_16bit[15].genblk1.u_fa">i_cin</text>
    </g>
    <g transform="translate(30,10)" s:x="30" s:y="10" s:pid="out0" id="port_gen_adder_16bit[15].genblk1.u_fa~o_cout">
      <text x="5" y="-4" style="fill:#000; stroke:none" class="cell_gen_adder_16bit[15].genblk1.u_fa">o_cout</text>
    </g>
    <g transform="translate(30,30)" s:x="30" s:y="10" s:pid="out0" id="port_gen_adder_16bit[15].genblk1.u_fa~o_sum">
      <text x="5" y="-4" style="fill:#000; stroke:none" class="cell_gen_adder_16bit[15].genblk1.u_fa">o_sum</text>
    </g>
  </g>
  <g s:type="generic" transform="translate(650,408.5)" s:width="30" s:height="40" id="cell_gen_adder_16bit[1].genblk1.u_fa">
    <text x="15" y="-4" class="nodelabel cell_gen_adder_16bit[1].genblk1.u_fa" s:attribute="ref">program_counter_full_adder</text>
    <rect width="30" height="60" s:generic="body" class="cell_gen_adder_16bit[1].genblk1.u_fa"/>
    <g transform="translate(0,10)" s:x="0" s:y="10" s:pid="in0" id="port_gen_adder_16bit[1].genblk1.u_fa~i_a">
      <text x="-3" y="-4" class="inputPortLabel cell_gen_adder_16bit[1].genblk1.u_fa">i_a</text>
    </g>
    <g transform="translate(0,30)" s:x="0" s:y="10" s:pid="in0" id="port_gen_adder_16bit[1].genblk1.u_fa~i_b">
      <text x="-3" y="-4" class="inputPortLabel cell_gen_adder_16bit[1].genblk1.u_fa">i_b</text>
    </g>
    <g transform="translate(0,50)" s:x="0" s:y="10" s:pid="in0" id="port_gen_adder_16bit[1].genblk1.u_fa~i_cin">
      <text x="-3" y="-4" class="inputPortLabel cell_gen_adder_16bit[1].genblk1.u_fa">i_cin</text>
    </g>
    <g transform="translate(30,10)" s:x="30" s:y="10" s:pid="out0" id="port_gen_adder_16bit[1].genblk1.u_fa~o_cout">
      <text x="5" y="-4" style="fill:#000; stroke:none" class="cell_gen_adder_16bit[1].genblk1.u_fa">o_cout</text>
    </g>
    <g transform="translate(30,30)" s:x="30" s:y="10" s:pid="out0" id="port_gen_adder_16bit[1].genblk1.u_fa~o_sum">
      <text x="5" y="-4" style="fill:#000; stroke:none" class="cell_gen_adder_16bit[1].genblk1.u_fa">o_sum</text>
    </g>
  </g>
  <g s:type="generic" transform="translate(902,779)" s:width="30" s:height="40" id="cell_gen_adder_16bit[2].genblk1.u_fa">
    <text x="15" y="-4" class="nodelabel cell_gen_adder_16bit[2].genblk1.u_fa" s:attribute="ref">program_counter_full_adder</text>
    <rect width="30" height="60" s:generic="body" class="cell_gen_adder_16bit[2].genblk1.u_fa"/>
    <g transform="translate(0,10)" s:x="0" s:y="10" s:pid="in0" id="port_gen_adder_16bit[2].genblk1.u_fa~i_a">
      <text x="-3" y="-4" class="inputPortLabel cell_gen_adder_16bit[2].genblk1.u_fa">i_a</text>
    </g>
    <g transform="translate(0,30)" s:x="0" s:y="10" s:pid="in0" id="port_gen_adder_16bit[2].genblk1.u_fa~i_b">
      <text x="-3" y="-4" class="inputPortLabel cell_gen_adder_16bit[2].genblk1.u_fa">i_b</text>
    </g>
    <g transform="translate(0,50)" s:x="0" s:y="10" s:pid="in0" id="port_gen_adder_16bit[2].genblk1.u_fa~i_cin">
      <text x="-3" y="-4" class="inputPortLabel cell_gen_adder_16bit[2].genblk1.u_fa">i_cin</text>
    </g>
    <g transform="translate(30,10)" s:x="30" s:y="10" s:pid="out0" id="port_gen_adder_16bit[2].genblk1.u_fa~o_cout">
      <text x="5" y="-4" style="fill:#000; stroke:none" class="cell_gen_adder_16bit[2].genblk1.u_fa">o_cout</text>
    </g>
    <g transform="translate(30,30)" s:x="30" s:y="10" s:pid="out0" id="port_gen_adder_16bit[2].genblk1.u_fa~o_sum">
      <text x="5" y="-4" style="fill:#000; stroke:none" class="cell_gen_adder_16bit[2].genblk1.u_fa">o_sum</text>
    </g>
  </g>
  <g s:type="generic" transform="translate(1154,841.5)" s:width="30" s:height="40" id="cell_gen_adder_16bit[3].genblk1.u_fa">
    <text x="15" y="-4" class="nodelabel cell_gen_adder_16bit[3].genblk1.u_fa" s:attribute="ref">program_counter_full_adder</text>
    <rect width="30" height="60" s:generic="body" class="cell_gen_adder_16bit[3].genblk1.u_fa"/>
    <g transform="translate(0,10)" s:x="0" s:y="10" s:pid="in0" id="port_gen_adder_16bit[3].genblk1.u_fa~i_a">
      <text x="-3" y="-4" class="inputPortLabel cell_gen_adder_16bit[3].genblk1.u_fa">i_a</text>
    </g>
    <g transform="translate(0,30)" s:x="0" s:y="10" s:pid="in0" id="port_gen_adder_16bit[3].genblk1.u_fa~i_b">
      <text x="-3" y="-4" class="inputPortLabel cell_gen_adder_16bit[3].genblk1.u_fa">i_b</text>
    </g>
    <g transform="translate(0,50)" s:x="0" s:y="10" s:pid="in0" id="port_gen_adder_16bit[3].genblk1.u_fa~i_cin">
      <text x="-3" y="-4" class="inputPortLabel cell_gen_adder_16bit[3].genblk1.u_fa">i_cin</text>
    </g>
    <g transform="translate(30,10)" s:x="30" s:y="10" s:pid="out0" id="port_gen_adder_16bit[3].genblk1.u_fa~o_cout">
      <text x="5" y="-4" style="fill:#000; stroke:none" class="cell_gen_adder_16bit[3].genblk1.u_fa">o_cout</text>
    </g>
    <g transform="translate(30,30)" s:x="30" s:y="10" s:pid="out0" id="port_gen_adder_16bit[3].genblk1.u_fa~o_sum">
      <text x="5" y="-4" style="fill:#000; stroke:none" class="cell_gen_adder_16bit[3].genblk1.u_fa">o_sum</text>
    </g>
  </g>
  <g s:type="generic" transform="translate(1406,904)" s:width="30" s:height="40" id="cell_gen_adder_16bit[4].genblk1.u_fa">
    <text x="15" y="-4" class="nodelabel cell_gen_adder_16bit[4].genblk1.u_fa" s:attribute="ref">program_counter_full_adder</text>
    <rect width="30" height="60" s:generic="body" class="cell_gen_adder_16bit[4].genblk1.u_fa"/>
    <g transform="translate(0,10)" s:x="0" s:y="10" s:pid="in0" id="port_gen_adder_16bit[4].genblk1.u_fa~i_a">
      <text x="-3" y="-4" class="inputPortLabel cell_gen_adder_16bit[4].genblk1.u_fa">i_a</text>
    </g>
    <g transform="translate(0,30)" s:x="0" s:y="10" s:pid="in0" id="port_gen_adder_16bit[4].genblk1.u_fa~i_b">
      <text x="-3" y="-4" class="inputPortLabel cell_gen_adder_16bit[4].genblk1.u_fa">i_b</text>
    </g>
    <g transform="translate(0,50)" s:x="0" s:y="10" s:pid="in0" id="port_gen_adder_16bit[4].genblk1.u_fa~i_cin">
      <text x="-3" y="-4" class="inputPortLabel cell_gen_adder_16bit[4].genblk1.u_fa">i_cin</text>
    </g>
    <g transform="translate(30,10)" s:x="30" s:y="10" s:pid="out0" id="port_gen_adder_16bit[4].genblk1.u_fa~o_cout">
      <text x="5" y="-4" style="fill:#000; stroke:none" class="cell_gen_adder_16bit[4].genblk1.u_fa">o_cout</text>
    </g>
    <g transform="translate(30,30)" s:x="30" s:y="10" s:pid="out0" id="port_gen_adder_16bit[4].genblk1.u_fa~o_sum">
      <text x="5" y="-4" style="fill:#000; stroke:none" class="cell_gen_adder_16bit[4].genblk1.u_fa">o_sum</text>
    </g>
  </g>
  <g s:type="generic" transform="translate(1658,966.5)" s:width="30" s:height="40" id="cell_gen_adder_16bit[5].genblk1.u_fa">
    <text x="15" y="-4" class="nodelabel cell_gen_adder_16bit[5].genblk1.u_fa" s:attribute="ref">program_counter_full_adder</text>
    <rect width="30" height="60" s:generic="body" class="cell_gen_adder_16bit[5].genblk1.u_fa"/>
    <g transform="translate(0,10)" s:x="0" s:y="10" s:pid="in0" id="port_gen_adder_16bit[5].genblk1.u_fa~i_a">
      <text x="-3" y="-4" class="inputPortLabel cell_gen_adder_16bit[5].genblk1.u_fa">i_a</text>
    </g>
    <g transform="translate(0,30)" s:x="0" s:y="10" s:pid="in0" id="port_gen_adder_16bit[5].genblk1.u_fa~i_b">
      <text x="-3" y="-4" class="inputPortLabel cell_gen_adder_16bit[5].genblk1.u_fa">i_b</text>
    </g>
    <g transform="translate(0,50)" s:x="0" s:y="10" s:pid="in0" id="port_gen_adder_16bit[5].genblk1.u_fa~i_cin">
      <text x="-3" y="-4" class="inputPortLabel cell_gen_adder_16bit[5].genblk1.u_fa">i_cin</text>
    </g>
    <g transform="translate(30,10)" s:x="30" s:y="10" s:pid="out0" id="port_gen_adder_16bit[5].genblk1.u_fa~o_cout">
      <text x="5" y="-4" style="fill:#000; stroke:none" class="cell_gen_adder_16bit[5].genblk1.u_fa">o_cout</text>
    </g>
    <g transform="translate(30,30)" s:x="30" s:y="10" s:pid="out0" id="port_gen_adder_16bit[5].genblk1.u_fa~o_sum">
      <text x="5" y="-4" style="fill:#000; stroke:none" class="cell_gen_adder_16bit[5].genblk1.u_fa">o_sum</text>
    </g>
  </g>
  <g s:type="generic" transform="translate(1910,1029)" s:width="30" s:height="40" id="cell_gen_adder_16bit[6].genblk1.u_fa">
    <text x="15" y="-4" class="nodelabel cell_gen_adder_16bit[6].genblk1.u_fa" s:attribute="ref">program_counter_full_adder</text>
    <rect width="30" height="60" s:generic="body" class="cell_gen_adder_16bit[6].genblk1.u_fa"/>
    <g transform="translate(0,10)" s:x="0" s:y="10" s:pid="in0" id="port_gen_adder_16bit[6].genblk1.u_fa~i_a">
      <text x="-3" y="-4" class="inputPortLabel cell_gen_adder_16bit[6].genblk1.u_fa">i_a</text>
    </g>
    <g transform="translate(0,30)" s:x="0" s:y="10" s:pid="in0" id="port_gen_adder_16bit[6].genblk1.u_fa~i_b">
      <text x="-3" y="-4" class="inputPortLabel cell_gen_adder_16bit[6].genblk1.u_fa">i_b</text>
    </g>
    <g transform="translate(0,50)" s:x="0" s:y="10" s:pid="in0" id="port_gen_adder_16bit[6].genblk1.u_fa~i_cin">
      <text x="-3" y="-4" class="inputPortLabel cell_gen_adder_16bit[6].genblk1.u_fa">i_cin</text>
    </g>
    <g transform="translate(30,10)" s:x="30" s:y="10" s:pid="out0" id="port_gen_adder_16bit[6].genblk1.u_fa~o_cout">
      <text x="5" y="-4" style="fill:#000; stroke:none" class="cell_gen_adder_16bit[6].genblk1.u_fa">o_cout</text>
    </g>
    <g transform="translate(30,30)" s:x="30" s:y="10" s:pid="out0" id="port_gen_adder_16bit[6].genblk1.u_fa~o_sum">
      <text x="5" y="-4" style="fill:#000; stroke:none" class="cell_gen_adder_16bit[6].genblk1.u_fa">o_sum</text>
    </g>
  </g>
  <g s:type="generic" transform="translate(2162,1091.5)" s:width="30" s:height="40" id="cell_gen_adder_16bit[7].genblk1.u_fa">
    <text x="15" y="-4" class="nodelabel cell_gen_adder_16bit[7].genblk1.u_fa" s:attribute="ref">program_counter_full_adder</text>
    <rect width="30" height="60" s:generic="body" class="cell_gen_adder_16bit[7].genblk1.u_fa"/>
    <g transform="translate(0,10)" s:x="0" s:y="10" s:pid="in0" id="port_gen_adder_16bit[7].genblk1.u_fa~i_a">
      <text x="-3" y="-4" class="inputPortLabel cell_gen_adder_16bit[7].genblk1.u_fa">i_a</text>
    </g>
    <g transform="translate(0,30)" s:x="0" s:y="10" s:pid="in0" id="port_gen_adder_16bit[7].genblk1.u_fa~i_b">
      <text x="-3" y="-4" class="inputPortLabel cell_gen_adder_16bit[7].genblk1.u_fa">i_b</text>
    </g>
    <g transform="translate(0,50)" s:x="0" s:y="10" s:pid="in0" id="port_gen_adder_16bit[7].genblk1.u_fa~i_cin">
      <text x="-3" y="-4" class="inputPortLabel cell_gen_adder_16bit[7].genblk1.u_fa">i_cin</text>
    </g>
    <g transform="translate(30,10)" s:x="30" s:y="10" s:pid="out0" id="port_gen_adder_16bit[7].genblk1.u_fa~o_cout">
      <text x="5" y="-4" style="fill:#000; stroke:none" class="cell_gen_adder_16bit[7].genblk1.u_fa">o_cout</text>
    </g>
    <g transform="translate(30,30)" s:x="30" s:y="10" s:pid="out0" id="port_gen_adder_16bit[7].genblk1.u_fa~o_sum">
      <text x="5" y="-4" style="fill:#000; stroke:none" class="cell_gen_adder_16bit[7].genblk1.u_fa">o_sum</text>
    </g>
  </g>
  <g s:type="generic" transform="translate(2414,1154)" s:width="30" s:height="40" id="cell_gen_adder_16bit[8].genblk1.u_fa">
    <text x="15" y="-4" class="nodelabel cell_gen_adder_16bit[8].genblk1.u_fa" s:attribute="ref">program_counter_full_adder</text>
    <rect width="30" height="60" s:generic="body" class="cell_gen_adder_16bit[8].genblk1.u_fa"/>
    <g transform="translate(0,10)" s:x="0" s:y="10" s:pid="in0" id="port_gen_adder_16bit[8].genblk1.u_fa~i_a">
      <text x="-3" y="-4" class="inputPortLabel cell_gen_adder_16bit[8].genblk1.u_fa">i_a</text>
    </g>
    <g transform="translate(0,30)" s:x="0" s:y="10" s:pid="in0" id="port_gen_adder_16bit[8].genblk1.u_fa~i_b">
      <text x="-3" y="-4" class="inputPortLabel cell_gen_adder_16bit[8].genblk1.u_fa">i_b</text>
    </g>
    <g transform="translate(0,50)" s:x="0" s:y="10" s:pid="in0" id="port_gen_adder_16bit[8].genblk1.u_fa~i_cin">
      <text x="-3" y="-4" class="inputPortLabel cell_gen_adder_16bit[8].genblk1.u_fa">i_cin</text>
    </g>
    <g transform="translate(30,10)" s:x="30" s:y="10" s:pid="out0" id="port_gen_adder_16bit[8].genblk1.u_fa~o_cout">
      <text x="5" y="-4" style="fill:#000; stroke:none" class="cell_gen_adder_16bit[8].genblk1.u_fa">o_cout</text>
    </g>
    <g transform="translate(30,30)" s:x="30" s:y="10" s:pid="out0" id="port_gen_adder_16bit[8].genblk1.u_fa~o_sum">
      <text x="5" y="-4" style="fill:#000; stroke:none" class="cell_gen_adder_16bit[8].genblk1.u_fa">o_sum</text>
    </g>
  </g>
  <g s:type="generic" transform="translate(2666,1216.5)" s:width="30" s:height="40" id="cell_gen_adder_16bit[9].genblk1.u_fa">
    <text x="15" y="-4" class="nodelabel cell_gen_adder_16bit[9].genblk1.u_fa" s:attribute="ref">program_counter_full_adder</text>
    <rect width="30" height="60" s:generic="body" class="cell_gen_adder_16bit[9].genblk1.u_fa"/>
    <g transform="translate(0,10)" s:x="0" s:y="10" s:pid="in0" id="port_gen_adder_16bit[9].genblk1.u_fa~i_a">
      <text x="-3" y="-4" class="inputPortLabel cell_gen_adder_16bit[9].genblk1.u_fa">i_a</text>
    </g>
    <g transform="translate(0,30)" s:x="0" s:y="10" s:pid="in0" id="port_gen_adder_16bit[9].genblk1.u_fa~i_b">
      <text x="-3" y="-4" class="inputPortLabel cell_gen_adder_16bit[9].genblk1.u_fa">i_b</text>
    </g>
    <g transform="translate(0,50)" s:x="0" s:y="10" s:pid="in0" id="port_gen_adder_16bit[9].genblk1.u_fa~i_cin">
      <text x="-3" y="-4" class="inputPortLabel cell_gen_adder_16bit[9].genblk1.u_fa">i_cin</text>
    </g>
    <g transform="translate(30,10)" s:x="30" s:y="10" s:pid="out0" id="port_gen_adder_16bit[9].genblk1.u_fa~o_cout">
      <text x="5" y="-4" style="fill:#000; stroke:none" class="cell_gen_adder_16bit[9].genblk1.u_fa">o_cout</text>
    </g>
    <g transform="translate(30,30)" s:x="30" s:y="10" s:pid="out0" id="port_gen_adder_16bit[9].genblk1.u_fa~o_sum">
      <text x="5" y="-4" style="fill:#000; stroke:none" class="cell_gen_adder_16bit[9].genblk1.u_fa">o_sum</text>
    </g>
  </g>
  <g s:type="inputExt" transform="translate(12,62)" s:width="30" s:height="20" id="cell_i_a">
    <text x="15" y="-4" class="nodelabel cell_i_a" s:attribute="ref">i_a</text>
    <s:alias val="$_inputExt_"/>
    <path d="M0,0 L0,20 L15,20 L30,10 L15,0 Z" class="cell_i_a"/>
    <g s:x="28" s:y="10" s:pid="Y"/>
  </g>
  <g s:type="inputExt" transform="translate(12,596)" s:width="30" s:height="20" id="cell_i_b">
    <text x="15" y="-4" class="nodelabel cell_i_b" s:attribute="ref">i_b</text>
    <s:alias val="$_inputExt_"/>
    <path d="M0,0 L0,20 L15,20 L30,10 L15,0 Z" class="cell_i_b"/>
    <g s:x="28" s:y="10" s:pid="Y"/>
  </g>
  <g s:type="outputExt" transform="translate(4488,105.5)" s:width="30" s:height="20" id="cell_o_sum">
    <text x="15" y="-4" class="nodelabel cell_o_sum" s:attribute="ref">o_sum</text>
    <s:alias val="$_outputExt_"/>
    <path d="M30,0 L30,20 L15,20 L0,10 L15,0 Z" class="cell_o_sum"/>
    <g s:x="0" s:y="10" s:pid="A"/>
  </g>
  <g s:type="constant" transform="translate(77,22)" s:width="30" s:height="20" id="cell_0">
    <text x="15" y="-4" class="nodelabel cell_0" s:attribute="ref">0</text>
    <s:alias val="$_constant_"/>
    <rect width="30" height="20" class="cell_0"/>
    <g s:x="30" s:y="10" s:pid="Y"/>
  </g>
  <g s:type="join" transform="translate(4447,95)" s:width="4" s:height="40" id="cell_$join$,34,35,36,37,38,39,40,41,42,43,44,45,46,47,48,49,">
    <rect width="5" height="320" class="splitjoinBody" s:generic="body"/>
    <s:alias val="$_join_"/>
    <g s:x="5" s:y="20" s:pid="out"/>
    <g transform="translate(0,10)" s:x="0" s:y="10" s:pid="in0">
      <text x="-3" y="-4" class="inputPortLabel">0</text>
    </g>
    <g transform="translate(0,30)" s:x="0" s:y="10" s:pid="in0">
      <text x="-3" y="-4" class="inputPortLabel">1</text>
    </g>
    <g transform="translate(0,50)" s:x="0" s:y="10" s:pid="in0">
      <text x="-3" y="-4" class="inputPortLabel">2</text>
    </g>
    <g transform="translate(0,70)" s:x="0" s:y="10" s:pid="in0">
      <text x="-3" y="-4" class="inputPortLabel">3</text>
    </g>
    <g transform="translate(0,90)" s:x="0" s:y="10" s:pid="in0">
      <text x="-3" y="-4" class="inputPortLabel">4</text>
    </g>
    <g transform="translate(0,110)" s:x="0" s:y="10" s:pid="in0">
      <text x="-3" y="-4" class="inputPortLabel">5</text>
    </g>
    <g transform="translate(0,130)" s:x="0" s:y="10" s:pid="in0">
      <text x="-3" y="-4" class="inputPortLabel">6</text>
    </g>
    <g transform="translate(0,150)" s:x="0" s:y="10" s:pid="in0">
      <text x="-3" y="-4" class="inputPortLabel">7</text>
    </g>
    <g transform="translate(0,170)" s:x="0" s:y="10" s:pid="in0">
      <text x="-3" y="-4" class="inputPortLabel">8</text>
    </g>
    <g transform="translate(0,190)" s:x="0" s:y="10" s:pid="in0">
      <text x="-3" y="-4" class="inputPortLabel">9</text>
    </g>
    <g transform="translate(0,210)" s:x="0" s:y="10" s:pid="in0">
      <text x="-3" y="-4" class="inputPortLabel">10</text>
    </g>
    <g transform="translate(0,230)" s:x="0" s:y="10" s:pid="in0">
      <text x="-3" y="-4" class="inputPortLabel">11</text>
    </g>
    <g transform="translate(0,250)" s:x="0" s:y="10" s:pid="in0">
      <text x="-3" y="-4" class="inputPortLabel">12</text>
    </g>
    <g transform="translate(0,270)" s:x="0" s:y="10" s:pid="in0">
      <text x="-3" y="-4" class="inputPortLabel">13</text>
    </g>
    <g transform="translate(0,290)" s:x="0" s:y="10" s:pid="in0">
      <text x="-3" y="-4" class="inputPortLabel">14</text>
    </g>
    <g transform="translate(0,310)" s:x="0" s:y="10" s:pid="in0">
      <text x="-3" y="-4" class="inputPortLabel">15</text>
    </g>
  </g>
  <g s:type="split" transform="translate(95,246)" s:width="5" s:height="40" id="cell_$split$,2,3,4,5,6,7,8,9,10,11,12,13,14,15,16,17,">
    <rect width="5" height="320" class="splitjoinBody" s:generic="body"/>
    <s:alias val="$_split_"/>
    <g s:x="0" s:y="20" s:pid="in"/>
    <g transform="translate(4,10)" s:x="4" s:y="10" s:pid="out0">
      <text x="5" y="-4">0</text>
    </g>
    <g transform="translate(4,30)" s:x="4" s:y="10" s:pid="out0">
      <text x="5" y="-4">10</text>
    </g>
    <g transform="translate(4,50)" s:x="4" s:y="10" s:pid="out0">
      <text x="5" y="-4">11</text>
    </g>
    <g transform="translate(4,70)" s:x="4" s:y="10" s:pid="out0">
      <text x="5" y="-4">12</text>
    </g>
    <g transform="translate(4,90)" s:x="4" s:y="10" s:pid="out0">
      <text x="5" y="-4">13</text>
    </g>
    <g transform="translate(4,110)" s:x="4" s:y="10" s:pid="out0">
      <text x="5" y="-4">14</text>
    </g>
    <g transform="translate(4,130)" s:x="4" s:y="10" s:pid="out0">
      <text x="5" y="-4">15</text>
    </g>
    <g transform="translate(4,150)" s:x="4" s:y="10" s:pid="out0">
      <text x="5" y="-4">1</text>
    </g>
    <g transform="translate(4,170)" s:x="4" s:y="10" s:pid="out0">
      <text x="5" y="-4">2</text>
    </g>
    <g transform="translate(4,190)" s:x="4" s:y="10" s:pid="out0">
      <text x="5" y="-4">3</text>
    </g>
    <g transform="translate(4,210)" s:x="4" s:y="10" s:pid="out0">
      <text x="5" y="-4">4</text>
    </g>
    <g transform="translate(4,230)" s:x="4" s:y="10" s:pid="out0">
      <text x="5" y="-4">5</text>
    </g>
    <g transform="translate(4,250)" s:x="4" s:y="10" s:pid="out0">
      <text x="5" y="-4">6</text>
    </g>
    <g transform="translate(4,270)" s:x="4" s:y="10" s:pid="out0">
      <text x="5" y="-4">7</text>
    </g>
    <g transform="translate(4,290)" s:x="4" s:y="10" s:pid="out0">
      <text x="5" y="-4">8</text>
    </g>
    <g transform="translate(4,310)" s:x="4" s:y="10" s:pid="out0">
      <text x="5" y="-4">9</text>
    </g>
  </g>
  <g s:type="split" transform="translate(95,628)" s:width="5" s:height="40" id="cell_$split$,18,19,20,21,22,23,24,25,26,27,28,29,30,31,32,33,">
    <rect width="5" height="320" class="splitjoinBody" s:generic="body"/>
    <s:alias val="$_split_"/>
    <g s:x="0" s:y="20" s:pid="in"/>
    <g transform="translate(4,10)" s:x="4" s:y="10" s:pid="out0">
      <text x="5" y="-4">0</text>
    </g>
    <g transform="translate(4,30)" s:x="4" s:y="10" s:pid="out0">
      <text x="5" y="-4">10</text>
    </g>
    <g transform="translate(4,50)" s:x="4" s:y="10" s:pid="out0">
      <text x="5" y="-4">11</text>
    </g>
    <g transform="translate(4,70)" s:x="4" s:y="10" s:pid="out0">
      <text x="5" y="-4">12</text>
    </g>
    <g transform="translate(4,90)" s:x="4" s:y="10" s:pid="out0">
      <text x="5" y="-4">13</text>
    </g>
    <g transform="translate(4,110)" s:x="4" s:y="10" s:pid="out0">
      <text x="5" y="-4">14</text>
    </g>
    <g transform="translate(4,130)" s:x="4" s:y="10" s:pid="out0">
      <text x="5" y="-4">15</text>
    </g>
    <g transform="translate(4,150)" s:x="4" s:y="10" s:pid="out0">
      <text x="5" y="-4">1</text>
    </g>
    <g transform="translate(4,170)" s:x="4" s:y="10" s:pid="out0">
      <text x="5" y="-4">2</text>
    </g>
    <g transform="translate(4,190)" s:x="4" s:y="10" s:pid="out0">
      <text x="5" y="-4">3</text>
    </g>
    <g transform="translate(4,210)" s:x="4" s:y="10" s:pid="out0">
      <text x="5" y="-4">4</text>
    </g>
    <g transform="translate(4,230)" s:x="4" s:y="10" s:pid="out0">
      <text x="5" y="-4">5</text>
    </g>
    <g transform="translate(4,250)" s:x="4" s:y="10" s:pid="out0">
      <text x="5" y="-4">6</text>
    </g>
    <g transform="translate(4,270)" s:x="4" s:y="10" s:pid="out0">
      <text x="5" y="-4">7</text>
    </g>
    <g transform="translate(4,290)" s:x="4" s:y="10" s:pid="out0">
      <text x="5" y="-4">8</text>
    </g>
    <g transform="translate(4,310)" s:x="4" s:y="10" s:pid="out0">
      <text x="5" y="-4">9</text>
    </g>
  </g>
  <line x1="99.5" x2="99.5" y1="256" y2="52" class="net_2"/>
  <line x1="99.5" x2="398" y1="52" y2="52" class="net_2"/>
  <line x1="99.5" x2="99.5" y1="638" y2="596" class="net_18"/>
  <line x1="99.5" x2="347" y1="596" y2="596" class="net_18"/>
  <line x1="347" x2="347" y1="596" y2="72" class="net_18"/>
  <line x1="347" x2="398" y1="72" y2="72" class="net_18"/>
  <line x1="107" x2="357" y1="32" y2="32" class="net_66"/>
  <line x1="357" x2="357" y1="32" y2="92" class="net_66"/>
  <line x1="357" x2="398" y1="92" y2="92" class="net_66"/>
  <line x1="99.5" x2="99.5" y1="276" y2="62" class="net_12"/>
  <line x1="99.5" x2="337" y1="62" y2="62" class="net_12"/>
  <line x1="337" x2="337" y1="62" y2="1289.5" class="net_12"/>
  <line x1="337" x2="2918" y1="1289.5" y2="1289.5" class="net_12"/>
  <line x1="99.5" x2="99.5" y1="658" y2="616" class="net_28"/>
  <line x1="99.5" x2="177" y1="616" y2="616" class="net_28"/>
  <line x1="177" x2="177" y1="616" y2="1300.5" class="net_28"/>
  <line x1="177" x2="2862" y1="1300.5" y2="1300.5" class="net_28"/>
  <line x1="2862" x2="2862" y1="1300.5" y2="1309.5" class="net_28"/>
  <line x1="2862" x2="2918" y1="1309.5" y2="1309.5" class="net_28"/>
  <line x1="2697" x2="2872" y1="1227" y2="1227" class="net_51"/>
  <line x1="2872" x2="2872" y1="1227" y2="1329.5" class="net_51"/>
  <line x1="2872" x2="2918" y1="1329.5" y2="1329.5" class="net_51"/>
  <line x1="100" x2="317" y1="296.5" y2="296.5" class="net_13"/>
  <line x1="317" x2="317" y1="296.5" y2="1352" class="net_13"/>
  <line x1="317" x2="3176" y1="1352" y2="1352" class="net_13"/>
  <line x1="100" x2="167" y1="678.5" y2="678.5" class="net_29"/>
  <line x1="167" x2="167" y1="678.5" y2="1363" class="net_29"/>
  <line x1="167" x2="3120" y1="1363" y2="1363" class="net_29"/>
  <line x1="3120" x2="3120" y1="1363" y2="1372" class="net_29"/>
  <line x1="3120" x2="3176" y1="1372" y2="1372" class="net_29"/>
  <line x1="2949" x2="3130" y1="1289.5" y2="1289.5" class="net_52"/>
  <line x1="3130" x2="3130" y1="1289.5" y2="1392" class="net_52"/>
  <line x1="3130" x2="3176" y1="1392" y2="1392" class="net_52"/>
  <line x1="100" x2="297" y1="316.5" y2="316.5" class="net_14"/>
  <line x1="297" x2="297" y1="316.5" y2="1414.5" class="net_14"/>
  <line x1="297" x2="3434" y1="1414.5" y2="1414.5" class="net_14"/>
  <line x1="100" x2="157" y1="698.5" y2="698.5" class="net_30"/>
  <line x1="157" x2="157" y1="698.5" y2="1425.5" class="net_30"/>
  <line x1="157" x2="3378" y1="1425.5" y2="1425.5" class="net_30"/>
  <line x1="3378" x2="3378" y1="1425.5" y2="1434.5" class="net_30"/>
  <line x1="3378" x2="3434" y1="1434.5" y2="1434.5" class="net_30"/>
  <line x1="3207" x2="3388" y1="1352" y2="1352" class="net_53"/>
  <line x1="3388" x2="3388" y1="1352" y2="1454.5" class="net_53"/>
  <line x1="3388" x2="3434" y1="1454.5" y2="1454.5" class="net_53"/>
  <line x1="100" x2="267" y1="336.5" y2="336.5" class="net_15"/>
  <line x1="267" x2="267" y1="336.5" y2="1477" class="net_15"/>
  <line x1="267" x2="3692" y1="1477" y2="1477" class="net_15"/>
  <line x1="100" x2="147" y1="718.5" y2="718.5" class="net_31"/>
  <line x1="147" x2="147" y1="718.5" y2="1488" class="net_31"/>
  <line x1="147" x2="3636" y1="1488" y2="1488" class="net_31"/>
  <line x1="3636" x2="3636" y1="1488" y2="1497" class="net_31"/>
  <line x1="3636" x2="3692" y1="1497" y2="1497" class="net_31"/>
  <line x1="3465" x2="3646" y1="1414.5" y2="1414.5" class="net_54"/>
  <line x1="3646" x2="3646" y1="1414.5" y2="1517" class="net_54"/>
  <line x1="3646" x2="3692" y1="1517" y2="1517" class="net_54"/>
  <line x1="100" x2="357" y1="356.5" y2="356.5" class="net_16"/>
  <line x1="357" x2="357" y1="356.5" y2="387.5" class="net_16"/>
  <line x1="357" x2="3904" y1="387.5" y2="387.5" class="net_16"/>
  <line x1="3904" x2="3904" y1="387.5" y2="1437" class="net_16"/>
  <line x1="3904" x2="3950" y1="1437" y2="1437" class="net_16"/>
  <line x1="100" x2="137" y1="738.5" y2="738.5" class="net_32"/>
  <line x1="137" x2="137" y1="738.5" y2="1539.5" class="net_32"/>
  <line x1="137" x2="3904" y1="1539.5" y2="1539.5" class="net_32"/>
  <line x1="3904" x2="3904" y1="1539.5" y2="1457" class="net_32"/>
  <line x1="3904" x2="3950" y1="1457" y2="1457" class="net_32"/>
  <line x1="3723" x2="3950" y1="1477" y2="1477" class="net_55"/>
  <line x1="100" x2="4162" y1="376.5" y2="376.5" class="net_17"/>
  <line x1="4162" x2="4162" y1="376.5" y2="1488.5" class="net_17"/>
  <line x1="4162" x2="4208" y1="1488.5" y2="1488.5" class="net_17"/>
  <line x1="100" x2="117" y1="758.5" y2="758.5" class="net_33"/>
  <line x1="117" x2="117" y1="758.5" y2="1550.5" class="net_33"/>
  <line x1="117" x2="4162" y1="1550.5" y2="1550.5" class="net_33"/>
  <line x1="4162" x2="4162" y1="1550.5" y2="1508.5" class="net_33"/>
  <line x1="4162" x2="4208" y1="1508.5" y2="1508.5" class="net_33"/>
  <line x1="3981" x2="4152" y1="1437" y2="1437" class="net_56"/>
  <line x1="4152" x2="4152" y1="1437" y2="1528.5" class="net_56"/>
  <line x1="4152" x2="4208" y1="1528.5" y2="1528.5" class="net_56"/>
  <line x1="100" x2="357" y1="396.5" y2="396.5" class="net_3"/>
  <line x1="357" x2="357" y1="396.5" y2="419" class="net_3"/>
  <line x1="357" x2="650" y1="419" y2="419" class="net_3"/>
  <line x1="100" x2="594" y1="778.5" y2="778.5" class="net_19"/>
  <line x1="594" x2="594" y1="778.5" y2="439" class="net_19"/>
  <line x1="594" x2="650" y1="439" y2="439" class="net_19"/>
  <line x1="429" x2="604" y1="52" y2="52" class="net_50"/>
  <line x1="604" x2="604" y1="52" y2="459" class="net_50"/>
  <line x1="604" x2="650" y1="459" y2="459" class="net_50"/>
  <line x1="100" x2="327" y1="416.5" y2="416.5" class="net_4"/>
  <line x1="327" x2="327" y1="416.5" y2="789.5" class="net_4"/>
  <line x1="327" x2="902" y1="789.5" y2="789.5" class="net_4"/>
  <line x1="100" x2="347" y1="798.5" y2="798.5" class="net_20"/>
  <line x1="347" x2="347" y1="798.5" y2="800.5" class="net_20"/>
  <line x1="347" x2="846" y1="800.5" y2="800.5" class="net_20"/>
  <line x1="846" x2="846" y1="800.5" y2="809.5" class="net_20"/>
  <line x1="846" x2="902" y1="809.5" y2="809.5" class="net_20"/>
  <line x1="681" x2="856" y1="419" y2="419" class="net_58"/>
  <line x1="856" x2="856" y1="419" y2="829.5" class="net_58"/>
  <line x1="856" x2="902" y1="829.5" y2="829.5" class="net_58"/>
  <line x1="100" x2="307" y1="436.5" y2="436.5" class="net_5"/>
  <line x1="307" x2="307" y1="436.5" y2="852" class="net_5"/>
  <line x1="307" x2="1154" y1="852" y2="852" class="net_5"/>
  <line x1="100" x2="277" y1="818.5" y2="818.5" class="net_21"/>
  <line x1="277" x2="277" y1="818.5" y2="863" class="net_21"/>
  <line x1="277" x2="1098" y1="863" y2="863" class="net_21"/>
  <line x1="1098" x2="1098" y1="863" y2="872" class="net_21"/>
  <line x1="1098" x2="1154" y1="872" y2="872" class="net_21"/>
  <line x1="933" x2="1108" y1="789.5" y2="789.5" class="net_59"/>
  <line x1="1108" x2="1108" y1="789.5" y2="892" class="net_59"/>
  <line x1="1108" x2="1154" y1="892" y2="892" class="net_59"/>
  <line x1="100" x2="287" y1="456.5" y2="456.5" class="net_6"/>
  <line x1="287" x2="287" y1="456.5" y2="914.5" class="net_6"/>
  <line x1="287" x2="1406" y1="914.5" y2="914.5" class="net_6"/>
  <line x1="100" x2="247" y1="838.5" y2="838.5" class="net_22"/>
  <line x1="247" x2="247" y1="838.5" y2="925.5" class="net_22"/>
  <line x1="247" x2="1350" y1="925.5" y2="925.5" class="net_22"/>
  <line x1="1350" x2="1350" y1="925.5" y2="934.5" class="net_22"/>
  <line x1="1350" x2="1406" y1="934.5" y2="934.5" class="net_22"/>
  <line x1="1185" x2="1360" y1="852" y2="852" class="net_60"/>
  <line x1="1360" x2="1360" y1="852" y2="954.5" class="net_60"/>
  <line x1="1360" x2="1406" y1="954.5" y2="954.5" class="net_60"/>
  <line x1="100" x2="257" y1="476.5" y2="476.5" class="net_7"/>
  <line x1="257" x2="257" y1="476.5" y2="977" class="net_7"/>
  <line x1="257" x2="1658" y1="977" y2="977" class="net_7"/>
  <line x1="100" x2="227" y1="858.5" y2="858.5" class="net_23"/>
  <line x1="227" x2="227" y1="858.5" y2="988" class="net_23"/>
  <line x1="227" x2="1602" y1="988" y2="988" class="net_23"/>
  <line x1="1602" x2="1602" y1="988" y2="997" class="net_23"/>
  <line x1="1602" x2="1658" y1="997" y2="997" class="net_23"/>
  <line x1="1437" x2="1612" y1="914.5" y2="914.5" class="net_61"/>
  <line x1="1612" x2="1612" y1="914.5" y2="1017" class="net_61"/>
  <line x1="1612" x2="1658" y1="1017" y2="1017" class="net_61"/>
  <line x1="100" x2="237" y1="496.5" y2="496.5" class="net_8"/>
  <line x1="237" x2="237" y1="496.5" y2="1039.5" class="net_8"/>
  <line x1="237" x2="1910" y1="1039.5" y2="1039.5" class="net_8"/>
  <line x1="100" x2="207" y1="878.5" y2="878.5" class="net_24"/>
  <line x1="207" x2="207" y1="878.5" y2="1050.5" class="net_24"/>
  <line x1="207" x2="1854" y1="1050.5" y2="1050.5" class="net_24"/>
  <line x1="1854" x2="1854" y1="1050.5" y2="1059.5" class="net_24"/>
  <line x1="1854" x2="1910" y1="1059.5" y2="1059.5" class="net_24"/>
  <line x1="1689" x2="1864" y1="977" y2="977" class="net_62"/>
  <line x1="1864" x2="1864" y1="977" y2="1079.5" class="net_62"/>
  <line x1="1864" x2="1910" y1="1079.5" y2="1079.5" class="net_62"/>
  <line x1="100" x2="217" y1="516.5" y2="516.5" class="net_9"/>
  <line x1="217" x2="217" y1="516.5" y2="1102" class="net_9"/>
  <line x1="217" x2="2162" y1="1102" y2="1102" class="net_9"/>
  <line x1="100" x2="127" y1="898.5" y2="898.5" class="net_25"/>
  <line x1="127" x2="127" y1="898.5" y2="1113" class="net_25"/>
  <line x1="127" x2="2106" y1="1113" y2="1113" class="net_25"/>
  <line x1="2106" x2="2106" y1="1113" y2="1122" class="net_25"/>
  <line x1="2106" x2="2162" y1="1122" y2="1122" class="net_25"/>
  <line x1="1941" x2="2116" y1="1039.5" y2="1039.5" class="net_63"/>
  <line x1="2116" x2="2116" y1="1039.5" y2="1142" class="net_63"/>
  <line x1="2116" x2="2162" y1="1142" y2="1142" class="net_63"/>
  <line x1="99.5" x2="99.5" y1="537" y2="576" class="net_10"/>
  <line x1="99.5" x2="197" y1="576" y2="576" class="net_10"/>
  <line x1="197" x2="197" y1="576" y2="1164.5" class="net_10"/>
  <line x1="197" x2="2414" y1="1164.5" y2="1164.5" class="net_10"/>
  <line x1="99.5" x2="99.5" y1="919" y2="1184.5" class="net_26"/>
  <line x1="99.5" x2="2414" y1="1184.5" y2="1184.5" class="net_26"/>
  <line x1="2193" x2="2368" y1="1102" y2="1102" class="net_64"/>
  <line x1="2368" x2="2368" y1="1102" y2="1204.5" class="net_64"/>
  <line x1="2368" x2="2414" y1="1204.5" y2="1204.5" class="net_64"/>
  <line x1="99.5" x2="99.5" y1="557" y2="586" class="net_11"/>
  <line x1="99.5" x2="187" y1="586" y2="586" class="net_11"/>
  <line x1="187" x2="187" y1="586" y2="1227" class="net_11"/>
  <line x1="187" x2="2666" y1="1227" y2="1227" class="net_11"/>
  <line x1="99.5" x2="99.5" y1="939" y2="1247" class="net_27"/>
  <line x1="99.5" x2="2666" y1="1247" y2="1247" class="net_27"/>
  <line x1="2445" x2="2620" y1="1164.5" y2="1164.5" class="net_65"/>
  <line x1="2620" x2="2620" y1="1164.5" y2="1267" class="net_65"/>
  <line x1="2620" x2="2666" y1="1267" y2="1267" class="net_65"/>
  <line x1="4453" x2="4488" y1="115.5" y2="115.5" class="net_34,35,36,37,38,39,40,41,42,43,44,45,46,47,48,49"/>
  <line x1="429" x2="4447.5" y1="72" y2="72" class="net_34"/>
  <line x1="4447.5" x2="4447.5" y1="72" y2="105" class="net_34"/>
  <line x1="681" x2="846" y1="439" y2="439" class="net_35"/>
  <line x1="846" x2="846" y1="439" y2="83" class="net_35"/>
  <line x1="846" x2="4447.5" y1="83" y2="83" class="net_35"/>
  <line x1="4447.5" x2="4447.5" y1="83" y2="125" class="net_35"/>
  <line x1="933" x2="1098" y1="809.5" y2="809.5" class="net_36"/>
  <line x1="1098" x2="1098" y1="809.5" y2="181.5" class="net_36"/>
  <line x1="1098" x2="4410" y1="181.5" y2="181.5" class="net_36"/>
  <line x1="4410" x2="4410" y1="181.5" y2="145.5" class="net_36"/>
  <line x1="4410" x2="4447" y1="145.5" y2="145.5" class="net_36"/>
  <line x1="1185" x2="1350" y1="872" y2="872" class="net_37"/>
  <line x1="1350" x2="1350" y1="872" y2="192.5" class="net_37"/>
  <line x1="1350" x2="4420" y1="192.5" y2="192.5" class="net_37"/>
  <line x1="4420" x2="4420" y1="192.5" y2="165.5" class="net_37"/>
  <line x1="4420" x2="4447" y1="165.5" y2="165.5" class="net_37"/>
  <line x1="1437" x2="1602" y1="934.5" y2="934.5" class="net_38"/>
  <line x1="1602" x2="1602" y1="934.5" y2="203.5" class="net_38"/>
  <line x1="1602" x2="4430" y1="203.5" y2="203.5" class="net_38"/>
  <line x1="4430" x2="4430" y1="203.5" y2="185.5" class="net_38"/>
  <line x1="4430" x2="4447" y1="185.5" y2="185.5" class="net_38"/>
  <line x1="1689" x2="1854" y1="997" y2="997" class="net_39"/>
  <line x1="1854" x2="1854" y1="997" y2="214.5" class="net_39"/>
  <line x1="1854" x2="4410" y1="214.5" y2="214.5" class="net_39"/>
  <line x1="4410" x2="4410" y1="214.5" y2="205.5" class="net_39"/>
  <line x1="4410" x2="4447" y1="205.5" y2="205.5" class="net_39"/>
  <line x1="1941" x2="2106" y1="1059.5" y2="1059.5" class="net_40"/>
  <line x1="2106" x2="2106" y1="1059.5" y2="225.5" class="net_40"/>
  <line x1="2106" x2="4447" y1="225.5" y2="225.5" class="net_40"/>
  <line x1="2193" x2="2358" y1="1122" y2="1122" class="net_41"/>
  <line x1="2358" x2="2358" y1="1122" y2="245.5" class="net_41"/>
  <line x1="2358" x2="4447" y1="245.5" y2="245.5" class="net_41"/>
  <line x1="2445" x2="2610" y1="1184.5" y2="1184.5" class="net_42"/>
  <line x1="2610" x2="2610" y1="1184.5" y2="265.5" class="net_42"/>
  <line x1="2610" x2="4447" y1="265.5" y2="265.5" class="net_42"/>
  <line x1="2697" x2="2862" y1="1247" y2="1247" class="net_43"/>
  <line x1="2862" x2="2862" y1="1247" y2="285.5" class="net_43"/>
  <line x1="2862" x2="4447" y1="285.5" y2="285.5" class="net_43"/>
  <line x1="2949" x2="3120" y1="1309.5" y2="1309.5" class="net_44"/>
  <line x1="3120" x2="3120" y1="1309.5" y2="305.5" class="net_44"/>
  <line x1="3120" x2="4447" y1="305.5" y2="305.5" class="net_44"/>
  <line x1="3207" x2="3378" y1="1372" y2="1372" class="net_45"/>
  <line x1="3378" x2="3378" y1="1372" y2="325.5" class="net_45"/>
  <line x1="3378" x2="4447" y1="325.5" y2="325.5" class="net_45"/>
  <line x1="3465" x2="3636" y1="1434.5" y2="1434.5" class="net_46"/>
  <line x1="3636" x2="3636" y1="1434.5" y2="345.5" class="net_46"/>
  <line x1="3636" x2="4447" y1="345.5" y2="345.5" class="net_46"/>
  <line x1="3723" x2="3894" y1="1497" y2="1497" class="net_47"/>
  <line x1="3894" x2="3894" y1="1497" y2="365.5" class="net_47"/>
  <line x1="3894" x2="4447" y1="365.5" y2="365.5" class="net_47"/>
  <line x1="3981" x2="4447.5" y1="1457" y2="1457" class="net_48"/>
  <line x1="4447.5" x2="4447.5" y1="1457" y2="386" class="net_48"/>
  <line x1="4239" x2="4447.5" y1="1508.5" y2="1508.5" class="net_49"/>
  <line x1="4447.5" x2="4447.5" y1="1508.5" y2="406" class="net_49"/>
  <line x1="40" x2="95.5" y1="72" y2="72" class="net_2,3,4,5,6,7,8,9,10,11,12,13,14,15,16,17"/>
  <line x1="95.5" x2="95.5" y1="72" y2="266" class="net_2,3,4,5,6,7,8,9,10,11,12,13,14,15,16,17"/>
  <line x1="40" x2="95.5" y1="606" y2="606" class="net_18,19,20,21,22,23,24,25,26,27,28,29,30,31,32,33"/>
  <line x1="95.5" x2="95.5" y1="606" y2="648" class="net_18,19,20,21,22,23,24,25,26,27,28,29,30,31,32,33"/>
</svg>
