<svg xmlns="http://www.w3.org/2000/svg" xmlns:xlink="http://www.w3.org/1999/xlink" xmlns:s="https://github.com/nturley/netlistsvg" width="856" height="1144">
  <style>svg {
    stroke:#000;
    fill:none;
  }
  text {
    fill:#000;
    stroke:none;
    font-size:10px;
    font-weight: bold;
    font-family: "Courier New", monospace;
  }
  .nodelabel {
    text-anchor: middle;
  }
  .inputPortLabel {
    text-anchor: end;
  }
  .splitjoinBody {
    fill:#000;
  }</style>
  <g s:type="generic" transform="translate(178,66.5)" s:width="30" s:height="40" id="cell_gen_stg1[0].u_mux1">
    <text x="15" y="-4" class="nodelabel cell_gen_stg1[0].u_mux1" s:attribute="ref">register_file_mux_2to1_16bit</text>
    <rect width="30" height="60" s:generic="body" class="cell_gen_stg1[0].u_mux1"/>
    <g transform="translate(0,10)" s:x="0" s:y="10" s:pid="in0" id="port_gen_stg1[0].u_mux1~i_d0">
      <text x="-3" y="-4" class="inputPortLabel cell_gen_stg1[0].u_mux1">i_d0</text>
    </g>
    <g transform="translate(0,30)" s:x="0" s:y="10" s:pid="in0" id="port_gen_stg1[0].u_mux1~i_d1">
      <text x="-3" y="-4" class="inputPortLabel cell_gen_stg1[0].u_mux1">i_d1</text>
    </g>
    <g transform="translate(0,50)" s:x="0" s:y="10" s:pid="in0" id="port_gen_stg1[0].u_mux1~i_sel">
      <text x="-3" y="-4" class="inputPortLabel cell_gen_stg1[0].u_mux1">i_sel</text>
    </g>
    <g transform="translate(30,10)" s:x="30" s:y="10" s:pid="out0" id="port_gen_stg1[0].u_mux1~o_data">
      <text x="5" y="-4" style="fill:#000; stroke:none" class="cell_gen_stg1[0].u_mux1">o_data</text>
    </g>
  </g>
  <g s:type="generic" transform="translate(178,196.5)" s:width="30" s:height="40" id="cell_gen_stg1[1].u_mux1">
    <text x="15" y="-4" class="nodelabel cell_gen_stg1[1].u_mux1" s:attribute="ref">register_file_mux_2to1_16bit</text>
    <rect width="30" height="60" s:generic="body" class="cell_gen_stg1[1].u_mux1"/>
    <g transform="translate(0,10)" s:x="0" s:y="10" s:pid="in0" id="port_gen_stg1[1].u_mux1~i_d0">
      <text x="-3" y="-4" class="inputPortLabel cell_gen_stg1[1].u_mux1">i_d0</text>
    </g>
    <g transform="translate(0,30)" s:x="0" s:y="10" s:pid="in0" id="port_gen_stg1[1].u_mux1~i_d1">
      <text x="-3" y="-4" class="inputPortLabel cell_gen_stg1[1].u_mux1">i_d1</text>
    </g>
    <g transform="translate(0,50)" s:x="0" s:y="10" s:pid="in0" id="port_gen_stg1[1].u_mux1~i_sel">
      <text x="-3" y="-4" class="inputPortLabel cell_gen_stg1[1].u_mux1">i_sel</text>
    </g>
    <g transform="translate(30,10)" s:x="30" s:y="10" s:pid="out0" id="port_gen_stg1[1].u_mux1~o_data">
      <text x="5" y="-4" style="fill:#000; stroke:none" class="cell_gen_stg1[1].u_mux1">o_data</text>
    </g>
  </g>
  <g s:type="generic" transform="translate(178,326.5)" s:width="30" s:height="40" id="cell_gen_stg1[2].u_mux1">
    <text x="15" y="-4" class="nodelabel cell_gen_stg1[2].u_mux1" s:attribute="ref">register_file_mux_2to1_16bit</text>
    <rect width="30" height="60" s:generic="body" class="cell_gen_stg1[2].u_mux1"/>
    <g transform="translate(0,10)" s:x="0" s:y="10" s:pid="in0" id="port_gen_stg1[2].u_mux1~i_d0">
      <text x="-3" y="-4" class="inputPortLabel cell_gen_stg1[2].u_mux1">i_d0</text>
    </g>
    <g transform="translate(0,30)" s:x="0" s:y="10" s:pid="in0" id="port_gen_stg1[2].u_mux1~i_d1">
      <text x="-3" y="-4" class="inputPortLabel cell_gen_stg1[2].u_mux1">i_d1</text>
    </g>
    <g transform="translate(0,50)" s:x="0" s:y="10" s:pid="in0" id="port_gen_stg1[2].u_mux1~i_sel">
      <text x="-3" y="-4" class="inputPortLabel cell_gen_stg1[2].u_mux1">i_sel</text>
    </g>
    <g transform="translate(30,10)" s:x="30" s:y="10" s:pid="out0" id="port_gen_stg1[2].u_mux1~o_data">
      <text x="5" y="-4" style="fill:#000; stroke:none" class="cell_gen_stg1[2].u_mux1">o_data</text>
    </g>
  </g>
  <g s:type="generic" transform="translate(178,456.5)" s:width="30" s:height="40" id="cell_gen_stg1[3].u_mux1">
    <text x="15" y="-4" class="nodelabel cell_gen_stg1[3].u_mux1" s:attribute="ref">register_file_mux_2to1_16bit</text>
    <rect width="30" height="60" s:generic="body" class="cell_gen_stg1[3].u_mux1"/>
    <g transform="translate(0,10)" s:x="0" s:y="10" s:pid="in0" id="port_gen_stg1[3].u_mux1~i_d0">
      <text x="-3" y="-4" class="inputPortLabel cell_gen_stg1[3].u_mux1">i_d0</text>
    </g>
    <g transform="translate(0,30)" s:x="0" s:y="10" s:pid="in0" id="port_gen_stg1[3].u_mux1~i_d1">
      <text x="-3" y="-4" class="inputPortLabel cell_gen_stg1[3].u_mux1">i_d1</text>
    </g>
    <g transform="translate(0,50)" s:x="0" s:y="10" s:pid="in0" id="port_gen_stg1[3].u_mux1~i_sel">
      <text x="-3" y="-4" class="inputPortLabel cell_gen_stg1[3].u_mux1">i_sel</text>
    </g>
    <g transform="translate(30,10)" s:x="30" s:y="10" s:pid="out0" id="port_gen_stg1[3].u_mux1~o_data">
      <text x="5" y="-4" style="fill:#000; stroke:none" class="cell_gen_stg1[3].u_mux1">o_data</text>
    </g>
  </g>
  <g s:type="generic" transform="translate(178,586.5)" s:width="30" s:height="40" id="cell_gen_stg1[4].u_mux1">
    <text x="15" y="-4" class="nodelabel cell_gen_stg1[4].u_mux1" s:attribute="ref">register_file_mux_2to1_16bit</text>
    <rect width="30" height="60" s:generic="body" class="cell_gen_stg1[4].u_mux1"/>
    <g transform="translate(0,10)" s:x="0" s:y="10" s:pid="in0" id="port_gen_stg1[4].u_mux1~i_d0">
      <text x="-3" y="-4" class="inputPortLabel cell_gen_stg1[4].u_mux1">i_d0</text>
    </g>
    <g transform="translate(0,30)" s:x="0" s:y="10" s:pid="in0" id="port_gen_stg1[4].u_mux1~i_d1">
      <text x="-3" y="-4" class="inputPortLabel cell_gen_stg1[4].u_mux1">i_d1</text>
    </g>
    <g transform="translate(0,50)" s:x="0" s:y="10" s:pid="in0" id="port_gen_stg1[4].u_mux1~i_sel">
      <text x="-3" y="-4" class="inputPortLabel cell_gen_stg1[4].u_mux1">i_sel</text>
    </g>
    <g transform="translate(30,10)" s:x="30" s:y="10" s:pid="out0" id="port_gen_stg1[4].u_mux1~o_data">
      <text x="5" y="-4" style="fill:#000; stroke:none" class="cell_gen_stg1[4].u_mux1">o_data</text>
    </g>
  </g>
  <g s:type="generic" transform="translate(178,786.5)" s:width="30" s:height="40" id="cell_gen_stg1[5].u_mux1">
    <text x="15" y="-4" class="nodelabel cell_gen_stg1[5].u_mux1" s:attribute="ref">register_file_mux_2to1_16bit</text>
    <rect width="30" height="60" s:generic="body" class="cell_gen_stg1[5].u_mux1"/>
    <g transform="translate(0,10)" s:x="0" s:y="10" s:pid="in0" id="port_gen_stg1[5].u_mux1~i_d0">
      <text x="-3" y="-4" class="inputPortLabel cell_gen_stg1[5].u_mux1">i_d0</text>
    </g>
    <g transform="translate(0,30)" s:x="0" s:y="10" s:pid="in0" id="port_gen_stg1[5].u_mux1~i_d1">
      <text x="-3" y="-4" class="inputPortLabel cell_gen_stg1[5].u_mux1">i_d1</text>
    </g>
    <g transform="translate(0,50)" s:x="0" s:y="10" s:pid="in0" id="port_gen_stg1[5].u_mux1~i_sel">
      <text x="-3" y="-4" class="inputPortLabel cell_gen_stg1[5].u_mux1">i_sel</text>
    </g>
    <g transform="translate(30,10)" s:x="30" s:y="10" s:pid="out0" id="port_gen_stg1[5].u_mux1~o_data">
      <text x="5" y="-4" style="fill:#000; stroke:none" class="cell_gen_stg1[5].u_mux1">o_data</text>
    </g>
  </g>
  <g s:type="generic" transform="translate(178,916.5)" s:width="30" s:height="40" id="cell_gen_stg1[6].u_mux1">
    <text x="15" y="-4" class="nodelabel cell_gen_stg1[6].u_mux1" s:attribute="ref">register_file_mux_2to1_16bit</text>
    <rect width="30" height="60" s:generic="body" class="cell_gen_stg1[6].u_mux1"/>
    <g transform="translate(0,10)" s:x="0" s:y="10" s:pid="in0" id="port_gen_stg1[6].u_mux1~i_d0">
      <text x="-3" y="-4" class="inputPortLabel cell_gen_stg1[6].u_mux1">i_d0</text>
    </g>
    <g transform="translate(0,30)" s:x="0" s:y="10" s:pid="in0" id="port_gen_stg1[6].u_mux1~i_d1">
      <text x="-3" y="-4" class="inputPortLabel cell_gen_stg1[6].u_mux1">i_d1</text>
    </g>
    <g transform="translate(0,50)" s:x="0" s:y="10" s:pid="in0" id="port_gen_stg1[6].u_mux1~i_sel">
      <text x="-3" y="-4" class="inputPortLabel cell_gen_stg1[6].u_mux1">i_sel</text>
    </g>
    <g transform="translate(30,10)" s:x="30" s:y="10" s:pid="out0" id="port_gen_stg1[6].u_mux1~o_data">
      <text x="5" y="-4" style="fill:#000; stroke:none" class="cell_gen_stg1[6].u_mux1">o_data</text>
    </g>
  </g>
  <g s:type="generic" transform="translate(178,1046.5)" s:width="30" s:height="40" id="cell_gen_stg1[7].u_mux1">
    <text x="15" y="-4" class="nodelabel cell_gen_stg1[7].u_mux1" s:attribute="ref">register_file_mux_2to1_16bit</text>
    <rect width="30" height="60" s:generic="body" class="cell_gen_stg1[7].u_mux1"/>
    <g transform="translate(0,10)" s:x="0" s:y="10" s:pid="in0" id="port_gen_stg1[7].u_mux1~i_d0">
      <text x="-3" y="-4" class="inputPortLabel cell_gen_stg1[7].u_mux1">i_d0</text>
    </g>
    <g transform="translate(0,30)" s:x="0" s:y="10" s:pid="in0" id="port_gen_stg1[7].u_mux1~i_d1">
      <text x="-3" y="-4" class="inputPortLabel cell_gen_stg1[7].u_mux1">i_d1</text>
    </g>
    <g transform="translate(0,50)" s:x="0" s:y="10" s:pid="in0" id="port_gen_stg1[7].u_mux1~i_sel">
      <text x="-3" y="-4" class="inputPortLabel cell_gen_stg1[7].u_mux1">i_sel</text>
    </g>
    <g transform="translate(30,10)" s:x="30" s:y="10" s:pid="out0" id="port_gen_stg1[7].u_mux1~o_data">
      <text x="5" y="-4" style="fill:#000; stroke:none" class="cell_gen_stg1[7].u_mux1">o_data</text>
    </g>
  </g>
  <g s:type="generic" transform="translate(357,176.5)" s:width="30" s:height="40" id="cell_gen_stg2[0].u_mux2">
    <text x="15" y="-4" class="nodelabel cell_gen_stg2[0].u_mux2" s:attribute="ref">register_file_mux_2to1_16bit</text>
    <rect width="30" height="60" s:generic="body" class="cell_gen_stg2[0].u_mux2"/>
    <g transform="translate(0,10)" s:x="0" s:y="10" s:pid="in0" id="port_gen_stg2[0].u_mux2~i_d0">
      <text x="-3" y="-4" class="inputPortLabel cell_gen_stg2[0].u_mux2">i_d0</text>
    </g>
    <g transform="translate(0,30)" s:x="0" s:y="10" s:pid="in0" id="port_gen_stg2[0].u_mux2~i_d1">
      <text x="-3" y="-4" class="inputPortLabel cell_gen_stg2[0].u_mux2">i_d1</text>
    </g>
    <g transform="translate(0,50)" s:x="0" s:y="10" s:pid="in0" id="port_gen_stg2[0].u_mux2~i_sel">
      <text x="-3" y="-4" class="inputPortLabel cell_gen_stg2[0].u_mux2">i_sel</text>
    </g>
    <g transform="translate(30,10)" s:x="30" s:y="10" s:pid="out0" id="port_gen_stg2[0].u_mux2~o_data">
      <text x="5" y="-4" style="fill:#000; stroke:none" class="cell_gen_stg2[0].u_mux2">o_data</text>
    </g>
  </g>
  <g s:type="generic" transform="translate(357,436.5)" s:width="30" s:height="40" id="cell_gen_stg2[1].u_mux2">
    <text x="15" y="-4" class="nodelabel cell_gen_stg2[1].u_mux2" s:attribute="ref">register_file_mux_2to1_16bit</text>
    <rect width="30" height="60" s:generic="body" class="cell_gen_stg2[1].u_mux2"/>
    <g transform="translate(0,10)" s:x="0" s:y="10" s:pid="in0" id="port_gen_stg2[1].u_mux2~i_d0">
      <text x="-3" y="-4" class="inputPortLabel cell_gen_stg2[1].u_mux2">i_d0</text>
    </g>
    <g transform="translate(0,30)" s:x="0" s:y="10" s:pid="in0" id="port_gen_stg2[1].u_mux2~i_d1">
      <text x="-3" y="-4" class="inputPortLabel cell_gen_stg2[1].u_mux2">i_d1</text>
    </g>
    <g transform="translate(0,50)" s:x="0" s:y="10" s:pid="in0" id="port_gen_stg2[1].u_mux2~i_sel">
      <text x="-3" y="-4" class="inputPortLabel cell_gen_stg2[1].u_mux2">i_sel</text>
    </g>
    <g transform="translate(30,10)" s:x="30" s:y="10" s:pid="out0" id="port_gen_stg2[1].u_mux2~o_data">
      <text x="5" y="-4" style="fill:#000; stroke:none" class="cell_gen_stg2[1].u_mux2">o_data</text>
    </g>
  </g>
  <g s:type="generic" transform="translate(357,642)" s:width="30" s:height="40" id="cell_gen_stg2[2].u_mux2">
    <text x="15" y="-4" class="nodelabel cell_gen_stg2[2].u_mux2" s:attribute="ref">register_file_mux_2to1_16bit</text>
    <rect width="30" height="60" s:generic="body" class="cell_gen_stg2[2].u_mux2"/>
    <g transform="translate(0,10)" s:x="0" s:y="10" s:pid="in0" id="port_gen_stg2[2].u_mux2~i_d0">
      <text x="-3" y="-4" class="inputPortLabel cell_gen_stg2[2].u_mux2">i_d0</text>
    </g>
    <g transform="translate(0,30)" s:x="0" s:y="10" s:pid="in0" id="port_gen_stg2[2].u_mux2~i_d1">
      <text x="-3" y="-4" class="inputPortLabel cell_gen_stg2[2].u_mux2">i_d1</text>
    </g>
    <g transform="translate(0,50)" s:x="0" s:y="10" s:pid="in0" id="port_gen_stg2[2].u_mux2~i_sel">
      <text x="-3" y="-4" class="inputPortLabel cell_gen_stg2[2].u_mux2">i_sel</text>
    </g>
    <g transform="translate(30,10)" s:x="30" s:y="10" s:pid="out0" id="port_gen_stg2[2].u_mux2~o_data">
      <text x="5" y="-4" style="fill:#000; stroke:none" class="cell_gen_stg2[2].u_mux2">o_data</text>
    </g>
  </g>
  <g s:type="generic" transform="translate(357,916.5)" s:width="30" s:height="40" id="cell_gen_stg2[3].u_mux2">
    <text x="15" y="-4" class="nodelabel cell_gen_stg2[3].u_mux2" s:attribute="ref">register_file_mux_2to1_16bit</text>
    <rect width="30" height="60" s:generic="body" class="cell_gen_stg2[3].u_mux2"/>
    <g transform="translate(0,10)" s:x="0" s:y="10" s:pid="in0" id="port_gen_stg2[3].u_mux2~i_d0">
      <text x="-3" y="-4" class="inputPortLabel cell_gen_stg2[3].u_mux2">i_d0</text>
    </g>
    <g transform="translate(0,30)" s:x="0" s:y="10" s:pid="in0" id="port_gen_stg2[3].u_mux2~i_d1">
      <text x="-3" y="-4" class="inputPortLabel cell_gen_stg2[3].u_mux2">i_d1</text>
    </g>
    <g transform="translate(0,50)" s:x="0" s:y="10" s:pid="in0" id="port_gen_stg2[3].u_mux2~i_sel">
      <text x="-3" y="-4" class="inputPortLabel cell_gen_stg2[3].u_mux2">i_sel</text>
    </g>
    <g transform="translate(30,10)" s:x="30" s:y="10" s:pid="out0" id="port_gen_stg2[3].u_mux2~o_data">
      <text x="5" y="-4" style="fill:#000; stroke:none" class="cell_gen_stg2[3].u_mux2">o_data</text>
    </g>
  </g>
  <g s:type="generic" transform="translate(531,416.5)" s:width="30" s:height="40" id="cell_gen_stg3[0].u_mux3">
    <text x="15" y="-4" class="nodelabel cell_gen_stg3[0].u_mux3" s:attribute="ref">register_file_mux_2to1_16bit</text>
    <rect width="30" height="60" s:generic="body" class="cell_gen_stg3[0].u_mux3"/>
    <g transform="translate(0,10)" s:x="0" s:y="10" s:pid="in0" id="port_gen_stg3[0].u_mux3~i_d0">
      <text x="-3" y="-4" class="inputPortLabel cell_gen_stg3[0].u_mux3">i_d0</text>
    </g>
    <g transform="translate(0,30)" s:x="0" s:y="10" s:pid="in0" id="port_gen_stg3[0].u_mux3~i_d1">
      <text x="-3" y="-4" class="inputPortLabel cell_gen_stg3[0].u_mux3">i_d1</text>
    </g>
    <g transform="translate(0,50)" s:x="0" s:y="10" s:pid="in0" id="port_gen_stg3[0].u_mux3~i_sel">
      <text x="-3" y="-4" class="inputPortLabel cell_gen_stg3[0].u_mux3">i_sel</text>
    </g>
    <g transform="translate(30,10)" s:x="30" s:y="10" s:pid="out0" id="port_gen_stg3[0].u_mux3~o_data">
      <text x="5" y="-4" style="fill:#000; stroke:none" class="cell_gen_stg3[0].u_mux3">o_data</text>
    </g>
  </g>
  <g s:type="generic" transform="translate(531,664.5)" s:width="30" s:height="40" id="cell_gen_stg3[1].u_mux3">
    <text x="15" y="-4" class="nodelabel cell_gen_stg3[1].u_mux3" s:attribute="ref">register_file_mux_2to1_16bit</text>
    <rect width="30" height="60" s:generic="body" class="cell_gen_stg3[1].u_mux3"/>
    <g transform="translate(0,10)" s:x="0" s:y="10" s:pid="in0" id="port_gen_stg3[1].u_mux3~i_d0">
      <text x="-3" y="-4" class="inputPortLabel cell_gen_stg3[1].u_mux3">i_d0</text>
    </g>
    <g transform="translate(0,30)" s:x="0" s:y="10" s:pid="in0" id="port_gen_stg3[1].u_mux3~i_d1">
      <text x="-3" y="-4" class="inputPortLabel cell_gen_stg3[1].u_mux3">i_d1</text>
    </g>
    <g transform="translate(0,50)" s:x="0" s:y="10" s:pid="in0" id="port_gen_stg3[1].u_mux3~i_sel">
      <text x="-3" y="-4" class="inputPortLabel cell_gen_stg3[1].u_mux3">i_sel</text>
    </g>
    <g transform="translate(30,10)" s:x="30" s:y="10" s:pid="out0" id="port_gen_stg3[1].u_mux3~o_data">
      <text x="5" y="-4" style="fill:#000; stroke:none" class="cell_gen_stg3[1].u_mux3">o_data</text>
    </g>
  </g>
  <g s:type="generic" transform="translate(705,644.5)" s:width="30" s:height="40" id="cell_u_mux_final">
    <text x="15" y="-4" class="nodelabel cell_u_mux_final" s:attribute="ref">register_file_mux_2to1_16bit</text>
    <rect width="30" height="60" s:generic="body" class="cell_u_mux_final"/>
    <g transform="translate(0,10)" s:x="0" s:y="10" s:pid="in0" id="port_u_mux_final~i_d0">
      <text x="-3" y="-4" class="inputPortLabel cell_u_mux_final">i_d0</text>
    </g>
    <g transform="translate(0,30)" s:x="0" s:y="10" s:pid="in0" id="port_u_mux_final~i_d1">
      <text x="-3" y="-4" class="inputPortLabel cell_u_mux_final">i_d1</text>
    </g>
    <g transform="translate(0,50)" s:x="0" s:y="10" s:pid="in0" id="port_u_mux_final~i_sel">
      <text x="-3" y="-4" class="inputPortLabel cell_u_mux_final">i_sel</text>
    </g>
    <g transform="translate(30,10)" s:x="30" s:y="10" s:pid="out0" id="port_u_mux_final~o_data">
      <text x="5" y="-4" style="fill:#000; stroke:none" class="cell_u_mux_final">o_data</text>
    </g>
  </g>
  <g s:type="inputExt" transform="translate(12,672.5)" s:width="30" s:height="20" id="cell_i_sel">
    <text x="15" y="-4" class="nodelabel cell_i_sel" s:attribute="ref">i_sel</text>
    <s:alias val="$_inputExt_"/>
    <path d="M0,0 L0,20 L15,20 L30,10 L15,0 Z" class="cell_i_sel"/>
    <g s:x="28" s:y="10" s:pid="Y"/>
  </g>
  <g s:type="inputExt" transform="translate(77,22)" s:width="30" s:height="20" id="cell_i_d0">
    <text x="15" y="-4" class="nodelabel cell_i_d0" s:attribute="ref">i_d0</text>
    <s:alias val="$_inputExt_"/>
    <path d="M0,0 L0,20 L15,20 L30,10 L15,0 Z" class="cell_i_d0"/>
    <g s:x="28" s:y="10" s:pid="Y"/>
  </g>
  <g s:type="inputExt" transform="translate(77,87)" s:width="30" s:height="20" id="cell_i_d1">
    <text x="15" y="-4" class="nodelabel cell_i_d1" s:attribute="ref">i_d1</text>
    <s:alias val="$_inputExt_"/>
    <path d="M0,0 L0,20 L15,20 L30,10 L15,0 Z" class="cell_i_d1"/>
    <g s:x="28" s:y="10" s:pid="Y"/>
  </g>
  <g s:type="inputExt" transform="translate(77,152)" s:width="30" s:height="20" id="cell_i_d2">
    <text x="15" y="-4" class="nodelabel cell_i_d2" s:attribute="ref">i_d2</text>
    <s:alias val="$_inputExt_"/>
    <path d="M0,0 L0,20 L15,20 L30,10 L15,0 Z" class="cell_i_d2"/>
    <g s:x="28" s:y="10" s:pid="Y"/>
  </g>
  <g s:type="inputExt" transform="translate(77,217)" s:width="30" s:height="20" id="cell_i_d3">
    <text x="15" y="-4" class="nodelabel cell_i_d3" s:attribute="ref">i_d3</text>
    <s:alias val="$_inputExt_"/>
    <path d="M0,0 L0,20 L15,20 L30,10 L15,0 Z" class="cell_i_d3"/>
    <g s:x="28" s:y="10" s:pid="Y"/>
  </g>
  <g s:type="inputExt" transform="translate(77,282)" s:width="30" s:height="20" id="cell_i_d4">
    <text x="15" y="-4" class="nodelabel cell_i_d4" s:attribute="ref">i_d4</text>
    <s:alias val="$_inputExt_"/>
    <path d="M0,0 L0,20 L15,20 L30,10 L15,0 Z" class="cell_i_d4"/>
    <g s:x="28" s:y="10" s:pid="Y"/>
  </g>
  <g s:type="inputExt" transform="translate(77,347)" s:width="30" s:height="20" id="cell_i_d5">
    <text x="15" y="-4" class="nodelabel cell_i_d5" s:attribute="ref">i_d5</text>
    <s:alias val="$_inputExt_"/>
    <path d="M0,0 L0,20 L15,20 L30,10 L15,0 Z" class="cell_i_d5"/>
    <g s:x="28" s:y="10" s:pid="Y"/>
  </g>
  <g s:type="inputExt" transform="translate(77,412)" s:width="30" s:height="20" id="cell_i_d6">
    <text x="15" y="-4" class="nodelabel cell_i_d6" s:attribute="ref">i_d6</text>
    <s:alias val="$_inputExt_"/>
    <path d="M0,0 L0,20 L15,20 L30,10 L15,0 Z" class="cell_i_d6"/>
    <g s:x="28" s:y="10" s:pid="Y"/>
  </g>
  <g s:type="inputExt" transform="translate(77,477)" s:width="30" s:height="20" id="cell_i_d7">
    <text x="15" y="-4" class="nodelabel cell_i_d7" s:attribute="ref">i_d7</text>
    <s:alias val="$_inputExt_"/>
    <path d="M0,0 L0,20 L15,20 L30,10 L15,0 Z" class="cell_i_d7"/>
    <g s:x="28" s:y="10" s:pid="Y"/>
  </g>
  <g s:type="inputExt" transform="translate(77,542)" s:width="30" s:height="20" id="cell_i_d8">
    <text x="15" y="-4" class="nodelabel cell_i_d8" s:attribute="ref">i_d8</text>
    <s:alias val="$_inputExt_"/>
    <path d="M0,0 L0,20 L15,20 L30,10 L15,0 Z" class="cell_i_d8"/>
    <g s:x="28" s:y="10" s:pid="Y"/>
  </g>
  <g s:type="inputExt" transform="translate(77,607)" s:width="30" s:height="20" id="cell_i_d9">
    <text x="15" y="-4" class="nodelabel cell_i_d9" s:attribute="ref">i_d9</text>
    <s:alias val="$_inputExt_"/>
    <path d="M0,0 L0,20 L15,20 L30,10 L15,0 Z" class="cell_i_d9"/>
    <g s:x="28" s:y="10" s:pid="Y"/>
  </g>
  <g s:type="inputExt" transform="translate(77,787)" s:width="30" s:height="20" id="cell_i_d10">
    <text x="15" y="-4" class="nodelabel cell_i_d10" s:attribute="ref">i_d10</text>
    <s:alias val="$_inputExt_"/>
    <path d="M0,0 L0,20 L15,20 L30,10 L15,0 Z" class="cell_i_d10"/>
    <g s:x="28" s:y="10" s:pid="Y"/>
  </g>
  <g s:type="inputExt" transform="translate(77,852)" s:width="30" s:height="20" id="cell_i_d11">
    <text x="15" y="-4" class="nodelabel cell_i_d11" s:attribute="ref">i_d11</text>
    <s:alias val="$_inputExt_"/>
    <path d="M0,0 L0,20 L15,20 L30,10 L15,0 Z" class="cell_i_d11"/>
    <g s:x="28" s:y="10" s:pid="Y"/>
  </g>
  <g s:type="inputExt" transform="translate(77,917)" s:width="30" s:height="20" id="cell_i_d12">
    <text x="15" y="-4" class="nodelabel cell_i_d12" s:attribute="ref">i_d12</text>
    <s:alias val="$_inputExt_"/>
    <path d="M0,0 L0,20 L15,20 L30,10 L15,0 Z" class="cell_i_d12"/>
    <g s:x="28" s:y="10" s:pid="Y"/>
  </g>
  <g s:type="inputExt" transform="translate(77,982)" s:width="30" s:height="20" id="cell_i_d13">
    <text x="15" y="-4" class="nodelabel cell_i_d13" s:attribute="ref">i_d13</text>
    <s:alias val="$_inputExt_"/>
    <path d="M0,0 L0,20 L15,20 L30,10 L15,0 Z" class="cell_i_d13"/>
    <g s:x="28" s:y="10" s:pid="Y"/>
  </g>
  <g s:type="inputExt" transform="translate(77,1047)" s:width="30" s:height="20" id="cell_i_d14">
    <text x="15" y="-4" class="nodelabel cell_i_d14" s:attribute="ref">i_d14</text>
    <s:alias val="$_inputExt_"/>
    <path d="M0,0 L0,20 L15,20 L30,10 L15,0 Z" class="cell_i_d14"/>
    <g s:x="28" s:y="10" s:pid="Y"/>
  </g>
  <g s:type="inputExt" transform="translate(77,1112)" s:width="30" s:height="20" id="cell_i_d15">
    <text x="15" y="-4" class="nodelabel cell_i_d15" s:attribute="ref">i_d15</text>
    <s:alias val="$_inputExt_"/>
    <path d="M0,0 L0,20 L15,20 L30,10 L15,0 Z" class="cell_i_d15"/>
    <g s:x="28" s:y="10" s:pid="Y"/>
  </g>
  <g s:type="outputExt" transform="translate(808,645)" s:width="30" s:height="20" id="cell_o_data">
    <text x="15" y="-4" class="nodelabel cell_o_data" s:attribute="ref">o_data</text>
    <s:alias val="$_outputExt_"/>
    <path d="M30,0 L30,20 L15,20 L0,10 L15,0 Z" class="cell_o_data"/>
    <g s:x="0" s:y="10" s:pid="A"/>
  </g>
  <g s:type="split" transform="translate(92.8,662)" s:width="5" s:height="40" id="cell_$split$,2,3,4,5,">
    <rect width="5" height="80" class="splitjoinBody" s:generic="body"/>
    <s:alias val="$_split_"/>
    <g s:x="0" s:y="20" s:pid="in"/>
    <g transform="translate(4,10)" s:x="4" s:y="10" s:pid="out0">
      <text x="5" y="-4">0</text>
    </g>
    <g transform="translate(4,30)" s:x="4" s:y="10" s:pid="out0">
      <text x="5" y="-4">1</text>
    </g>
    <g transform="translate(4,50)" s:x="4" s:y="10" s:pid="out0">
      <text x="5" y="-4">2</text>
    </g>
    <g transform="translate(4,70)" s:x="4" s:y="10" s:pid="out0">
      <text x="5" y="-4">3</text>
    </g>
  </g>
  <line x1="105" x2="117" y1="32" y2="32" class="net_6,7,8,9,10,11,12,13,14,15,16,17,18,19,20,21"/>
  <line x1="117" x2="117" y1="32" y2="77" class="net_6,7,8,9,10,11,12,13,14,15,16,17,18,19,20,21"/>
  <line x1="117" x2="178" y1="77" y2="77" class="net_6,7,8,9,10,11,12,13,14,15,16,17,18,19,20,21"/>
  <line x1="105" x2="178" y1="97" y2="97" class="net_22,23,24,25,26,27,28,29,30,31,32,33,34,35,36,37"/>
  <line x1="97.8" x2="127" y1="672.5" y2="672.5" class="net_2"/>
  <line x1="127" x2="127" y1="672.5" y2="117" class="net_2"/>
  <circle cx="127" cy="672.5" r="2" style="fill:#000" class="net_2"/>
  <line x1="127" x2="178" y1="117" y2="117" class="net_2"/>
  <line x1="97.8" x2="127" y1="672.5" y2="672.5" class="net_2"/>
  <line x1="127" x2="127" y1="672.5" y2="247" class="net_2"/>
  <circle cx="127" cy="247" r="2" style="fill:#000" class="net_2"/>
  <line x1="127" x2="178" y1="247" y2="247" class="net_2"/>
  <line x1="97.8" x2="127" y1="672.5" y2="672.5" class="net_2"/>
  <line x1="127" x2="127" y1="672.5" y2="377" class="net_2"/>
  <circle cx="127" cy="377" r="2" style="fill:#000" class="net_2"/>
  <line x1="127" x2="178" y1="377" y2="377" class="net_2"/>
  <line x1="97.8" x2="127" y1="672.5" y2="672.5" class="net_2"/>
  <line x1="127" x2="127" y1="672.5" y2="507" class="net_2"/>
  <circle cx="127" cy="507" r="2" style="fill:#000" class="net_2"/>
  <line x1="127" x2="178" y1="507" y2="507" class="net_2"/>
  <line x1="97.8" x2="127" y1="672.5" y2="672.5" class="net_2"/>
  <line x1="127" x2="127" y1="672.5" y2="637" class="net_2"/>
  <circle cx="127" cy="637" r="2" style="fill:#000" class="net_2"/>
  <line x1="127" x2="178" y1="637" y2="637" class="net_2"/>
  <line x1="97.8" x2="127" y1="672.5" y2="672.5" class="net_2"/>
  <line x1="127" x2="127" y1="672.5" y2="837" class="net_2"/>
  <circle cx="127" cy="837" r="2" style="fill:#000" class="net_2"/>
  <line x1="127" x2="178" y1="837" y2="837" class="net_2"/>
  <line x1="97.8" x2="127" y1="672.5" y2="672.5" class="net_2"/>
  <line x1="127" x2="127" y1="672.5" y2="967" class="net_2"/>
  <circle cx="127" cy="967" r="2" style="fill:#000" class="net_2"/>
  <line x1="127" x2="178" y1="967" y2="967" class="net_2"/>
  <line x1="97.8" x2="127" y1="672.5" y2="672.5" class="net_2"/>
  <line x1="127" x2="127" y1="672.5" y2="1097" class="net_2"/>
  <line x1="127" x2="178" y1="1097" y2="1097" class="net_2"/>
  <line x1="105" x2="137" y1="162" y2="162" class="net_38,39,40,41,42,43,44,45,46,47,48,49,50,51,52,53"/>
  <line x1="137" x2="137" y1="162" y2="207" class="net_38,39,40,41,42,43,44,45,46,47,48,49,50,51,52,53"/>
  <line x1="137" x2="178" y1="207" y2="207" class="net_38,39,40,41,42,43,44,45,46,47,48,49,50,51,52,53"/>
  <line x1="105" x2="178" y1="227" y2="227" class="net_54,55,56,57,58,59,60,61,62,63,64,65,66,67,68,69"/>
  <line x1="105" x2="137" y1="292" y2="292" class="net_70,71,72,73,74,75,76,77,78,79,80,81,82,83,84,85"/>
  <line x1="137" x2="137" y1="292" y2="337" class="net_70,71,72,73,74,75,76,77,78,79,80,81,82,83,84,85"/>
  <line x1="137" x2="178" y1="337" y2="337" class="net_70,71,72,73,74,75,76,77,78,79,80,81,82,83,84,85"/>
  <line x1="105" x2="178" y1="357" y2="357" class="net_86,87,88,89,90,91,92,93,94,95,96,97,98,99,100,101"/>
  <line x1="105" x2="137" y1="422" y2="422" class="net_102,103,104,105,106,107,108,109,110,111,112,113,114,115,116,117"/>
  <line x1="137" x2="137" y1="422" y2="467" class="net_102,103,104,105,106,107,108,109,110,111,112,113,114,115,116,117"/>
  <line x1="137" x2="178" y1="467" y2="467" class="net_102,103,104,105,106,107,108,109,110,111,112,113,114,115,116,117"/>
  <line x1="105" x2="178" y1="487" y2="487" class="net_118,119,120,121,122,123,124,125,126,127,128,129,130,131,132,133"/>
  <line x1="105" x2="137" y1="552" y2="552" class="net_134,135,136,137,138,139,140,141,142,143,144,145,146,147,148,149"/>
  <line x1="137" x2="137" y1="552" y2="597" class="net_134,135,136,137,138,139,140,141,142,143,144,145,146,147,148,149"/>
  <line x1="137" x2="178" y1="597" y2="597" class="net_134,135,136,137,138,139,140,141,142,143,144,145,146,147,148,149"/>
  <line x1="105" x2="178" y1="617" y2="617" class="net_150,151,152,153,154,155,156,157,158,159,160,161,162,163,164,165"/>
  <line x1="105" x2="178" y1="797" y2="797" class="net_166,167,168,169,170,171,172,173,174,175,176,177,178,179,180,181"/>
  <line x1="105" x2="117" y1="862" y2="862" class="net_182,183,184,185,186,187,188,189,190,191,192,193,194,195,196,197"/>
  <line x1="117" x2="117" y1="862" y2="817" class="net_182,183,184,185,186,187,188,189,190,191,192,193,194,195,196,197"/>
  <line x1="117" x2="178" y1="817" y2="817" class="net_182,183,184,185,186,187,188,189,190,191,192,193,194,195,196,197"/>
  <line x1="105" x2="178" y1="927" y2="927" class="net_198,199,200,201,202,203,204,205,206,207,208,209,210,211,212,213"/>
  <line x1="105" x2="117" y1="992" y2="992" class="net_214,215,216,217,218,219,220,221,222,223,224,225,226,227,228,229"/>
  <line x1="117" x2="117" y1="992" y2="947" class="net_214,215,216,217,218,219,220,221,222,223,224,225,226,227,228,229"/>
  <line x1="117" x2="178" y1="947" y2="947" class="net_214,215,216,217,218,219,220,221,222,223,224,225,226,227,228,229"/>
  <line x1="105" x2="178" y1="1057" y2="1057" class="net_230,231,232,233,234,235,236,237,238,239,240,241,242,243,244,245"/>
  <line x1="105" x2="117" y1="1122" y2="1122" class="net_246,247,248,249,250,251,252,253,254,255,256,257,258,259,260,261"/>
  <line x1="117" x2="117" y1="1122" y2="1077" class="net_246,247,248,249,250,251,252,253,254,255,256,257,258,259,260,261"/>
  <line x1="117" x2="178" y1="1077" y2="1077" class="net_246,247,248,249,250,251,252,253,254,255,256,257,258,259,260,261"/>
  <line x1="209" x2="296" y1="77" y2="77" class="net_278,279,280,281,282,283,284,285,286,287,288,289,290,291,292,293"/>
  <line x1="296" x2="296" y1="77" y2="187" class="net_278,279,280,281,282,283,284,285,286,287,288,289,290,291,292,293"/>
  <line x1="296" x2="357" y1="187" y2="187" class="net_278,279,280,281,282,283,284,285,286,287,288,289,290,291,292,293"/>
  <line x1="209" x2="357" y1="207" y2="207" class="net_294,295,296,297,298,299,300,301,302,303,304,305,306,307,308,309"/>
  <line x1="97.8" x2="306" y1="692.5" y2="692.5" class="net_3"/>
  <line x1="306" x2="306" y1="692.5" y2="227" class="net_3"/>
  <circle cx="306" cy="692.5" r="2" style="fill:#000" class="net_3"/>
  <line x1="306" x2="357" y1="227" y2="227" class="net_3"/>
  <line x1="97.8" x2="306" y1="692.5" y2="692.5" class="net_3"/>
  <line x1="306" x2="306" y1="692.5" y2="487" class="net_3"/>
  <circle cx="306" cy="487" r="2" style="fill:#000" class="net_3"/>
  <line x1="306" x2="357" y1="487" y2="487" class="net_3"/>
  <line x1="97.8" x2="357" y1="692.5" y2="692.5" class="net_3"/>
  <line x1="97.8" x2="306" y1="692.5" y2="692.5" class="net_3"/>
  <line x1="306" x2="306" y1="692.5" y2="967" class="net_3"/>
  <line x1="306" x2="357" y1="967" y2="967" class="net_3"/>
  <line x1="209" x2="316" y1="337" y2="337" class="net_310,311,312,313,314,315,316,317,318,319,320,321,322,323,324,325"/>
  <line x1="316" x2="316" y1="337" y2="447" class="net_310,311,312,313,314,315,316,317,318,319,320,321,322,323,324,325"/>
  <line x1="316" x2="357" y1="447" y2="447" class="net_310,311,312,313,314,315,316,317,318,319,320,321,322,323,324,325"/>
  <line x1="209" x2="357" y1="467" y2="467" class="net_326,327,328,329,330,331,332,333,334,335,336,337,338,339,340,341"/>
  <line x1="209" x2="316" y1="597" y2="597" class="net_342,343,344,345,346,347,348,349,350,351,352,353,354,355,356,357"/>
  <line x1="316" x2="316" y1="597" y2="652.5" class="net_342,343,344,345,346,347,348,349,350,351,352,353,354,355,356,357"/>
  <line x1="316" x2="357" y1="652.5" y2="652.5" class="net_342,343,344,345,346,347,348,349,350,351,352,353,354,355,356,357"/>
  <line x1="209" x2="296" y1="797" y2="797" class="net_358,359,360,361,362,363,364,365,366,367,368,369,370,371,372,373"/>
  <line x1="296" x2="296" y1="797" y2="672.5" class="net_358,359,360,361,362,363,364,365,366,367,368,369,370,371,372,373"/>
  <line x1="296" x2="357" y1="672.5" y2="672.5" class="net_358,359,360,361,362,363,364,365,366,367,368,369,370,371,372,373"/>
  <line x1="209" x2="357" y1="927" y2="927" class="net_374,375,376,377,378,379,380,381,382,383,384,385,386,387,388,389"/>
  <line x1="209" x2="296" y1="1057" y2="1057" class="net_390,391,392,393,394,395,396,397,398,399,400,401,402,403,404,405"/>
  <line x1="296" x2="296" y1="1057" y2="947" class="net_390,391,392,393,394,395,396,397,398,399,400,401,402,403,404,405"/>
  <line x1="296" x2="357" y1="947" y2="947" class="net_390,391,392,393,394,395,396,397,398,399,400,401,402,403,404,405"/>
  <line x1="388" x2="475" y1="187" y2="187" class="net_406,407,408,409,410,411,412,413,414,415,416,417,418,419,420,421"/>
  <line x1="475" x2="475" y1="187" y2="427" class="net_406,407,408,409,410,411,412,413,414,415,416,417,418,419,420,421"/>
  <line x1="475" x2="531" y1="427" y2="427" class="net_406,407,408,409,410,411,412,413,414,415,416,417,418,419,420,421"/>
  <line x1="388" x2="531" y1="447" y2="447" class="net_422,423,424,425,426,427,428,429,430,431,432,433,434,435,436,437"/>
  <line x1="97.8" x2="117" y1="712.5" y2="712.5" class="net_4"/>
  <line x1="117" x2="117" y1="712.5" y2="715" class="net_4"/>
  <line x1="117" x2="475" y1="715" y2="715" class="net_4"/>
  <line x1="475" x2="475" y1="715" y2="467" class="net_4"/>
  <circle cx="475" cy="715" r="2" style="fill:#000" class="net_4"/>
  <line x1="475" x2="531" y1="467" y2="467" class="net_4"/>
  <line x1="97.8" x2="117" y1="712.5" y2="712.5" class="net_4"/>
  <line x1="117" x2="117" y1="712.5" y2="715" class="net_4"/>
  <line x1="117" x2="531" y1="715" y2="715" class="net_4"/>
  <line x1="388" x2="485" y1="652.5" y2="652.5" class="net_438,439,440,441,442,443,444,445,446,447,448,449,450,451,452,453"/>
  <line x1="485" x2="485" y1="652.5" y2="675" class="net_438,439,440,441,442,443,444,445,446,447,448,449,450,451,452,453"/>
  <line x1="485" x2="531" y1="675" y2="675" class="net_438,439,440,441,442,443,444,445,446,447,448,449,450,451,452,453"/>
  <line x1="388" x2="485" y1="927" y2="927" class="net_454,455,456,457,458,459,460,461,462,463,464,465,466,467,468,469"/>
  <line x1="485" x2="485" y1="927" y2="695" class="net_454,455,456,457,458,459,460,461,462,463,464,465,466,467,468,469"/>
  <line x1="485" x2="531" y1="695" y2="695" class="net_454,455,456,457,458,459,460,461,462,463,464,465,466,467,468,469"/>
  <line x1="562" x2="649" y1="427" y2="427" class="net_470,471,472,473,474,475,476,477,478,479,480,481,482,483,484,485"/>
  <line x1="649" x2="649" y1="427" y2="655" class="net_470,471,472,473,474,475,476,477,478,479,480,481,482,483,484,485"/>
  <line x1="649" x2="705" y1="655" y2="655" class="net_470,471,472,473,474,475,476,477,478,479,480,481,482,483,484,485"/>
  <line x1="562" x2="705" y1="675" y2="675" class="net_486,487,488,489,490,491,492,493,494,495,496,497,498,499,500,501"/>
  <line x1="97.8" x2="117" y1="732.5" y2="732.5" class="net_5"/>
  <line x1="117" x2="117" y1="732.5" y2="737.5" class="net_5"/>
  <line x1="117" x2="649" y1="737.5" y2="737.5" class="net_5"/>
  <line x1="649" x2="649" y1="737.5" y2="695" class="net_5"/>
  <line x1="649" x2="705" y1="695" y2="695" class="net_5"/>
  <line x1="736" x2="808" y1="655" y2="655" class="net_262,263,264,265,266,267,268,269,270,271,272,273,274,275,276,277"/>
  <line x1="40" x2="92.8" y1="682.5" y2="682.5" class="net_2,3,4,5"/>
</svg>
