<svg xmlns="http://www.w3.org/2000/svg" xmlns:xlink="http://www.w3.org/1999/xlink" xmlns:s="https://github.com/nturley/netlistsvg" width="658" height="420">
  <style>svg {
    stroke:#000;
    fill:none;
  }
  text {
    fill:#000;
    stroke:none;
    font-size:10px;
    font-weight: bold;
    font-family: "Courier New", monospace;
  }
  .nodelabel {
    text-anchor: middle;
  }
  .inputPortLabel {
    text-anchor: end;
  }
  .splitjoinBody {
    fill:#000;
  }</style>
  <g s:type="generic" transform="translate(144,217.5)" s:width="30" s:height="40" id="cell_u_control_unit_decoder">
    <text x="15" y="-4" class="nodelabel cell_u_control_unit_decoder" s:attribute="ref">control_unit_decoder</text>
    <rect width="30" height="20" s:generic="body" class="cell_u_control_unit_decoder"/>
    <g transform="translate(0,10)" s:x="0" s:y="10" s:pid="in0" id="port_u_control_unit_decoder~i_opcode">
      <text x="-3" y="-4" class="inputPortLabel cell_u_control_unit_decoder">i_opcode</text>
    </g>
    <g transform="translate(30,10)" s:x="30" s:y="10" s:pid="out0" id="port_u_control_unit_decoder~o_inst_onehot">
      <text x="5" y="-4" style="fill:#000; stroke:none" class="cell_u_control_unit_decoder">o_inst_onehot</text>
    </g>
  </g>
  <g s:type="generic" transform="translate(399.8333333333333,217.5)" s:width="30" s:height="40" id="cell_u_control_unit_logic">
    <text x="15" y="-4" class="nodelabel cell_u_control_unit_logic" s:attribute="ref">control_unit_logic</text>
    <rect width="30" height="100" s:generic="body" class="cell_u_control_unit_logic"/>
    <g transform="translate(0,10)" s:x="0" s:y="10" s:pid="in0" id="port_u_control_unit_logic~i_inst_onehot">
      <text x="-3" y="-4" class="inputPortLabel cell_u_control_unit_logic">i_inst_onehot</text>
    </g>
    <g transform="translate(30,10)" s:x="30" s:y="10" s:pid="out0" id="port_u_control_unit_logic~o_alu_op">
      <text x="5" y="-4" style="fill:#000; stroke:none" class="cell_u_control_unit_logic">o_alu_op</text>
    </g>
    <g transform="translate(30,30)" s:x="30" s:y="10" s:pid="out0" id="port_u_control_unit_logic~o_alu_src_sel">
      <text x="5" y="-4" style="fill:#000; stroke:none" class="cell_u_control_unit_logic">o_alu_src_sel</text>
    </g>
    <g transform="translate(30,50)" s:x="30" s:y="10" s:pid="out0" id="port_u_control_unit_logic~o_mem_we">
      <text x="5" y="-4" style="fill:#000; stroke:none" class="cell_u_control_unit_logic">o_mem_we</text>
    </g>
    <g transform="translate(30,70)" s:x="30" s:y="10" s:pid="out0" id="port_u_control_unit_logic~o_reg_we">
      <text x="5" y="-4" style="fill:#000; stroke:none" class="cell_u_control_unit_logic">o_reg_we</text>
    </g>
    <g transform="translate(30,90)" s:x="30" s:y="10" s:pid="out0" id="port_u_control_unit_logic~o_wb_sel">
      <text x="5" y="-4" style="fill:#000; stroke:none" class="cell_u_control_unit_logic">o_wb_sel</text>
    </g>
  </g>
  <g s:type="generic" transform="translate(395,22)" s:width="30" s:height="40" id="cell_u_control_unit_pc_logic">
    <text x="15" y="-4" class="nodelabel cell_u_control_unit_pc_logic" s:attribute="ref">control_unit_pc_logic</text>
    <rect width="30" height="80" s:generic="body" class="cell_u_control_unit_pc_logic"/>
    <g transform="translate(0,10)" s:x="0" s:y="10" s:pid="in0" id="port_u_control_unit_pc_logic~i_flag_n">
      <text x="-3" y="-4" class="inputPortLabel cell_u_control_unit_pc_logic">i_flag_n</text>
    </g>
    <g transform="translate(0,30)" s:x="0" s:y="10" s:pid="in0" id="port_u_control_unit_pc_logic~i_flag_v">
      <text x="-3" y="-4" class="inputPortLabel cell_u_control_unit_pc_logic">i_flag_v</text>
    </g>
    <g transform="translate(0,50)" s:x="0" s:y="10" s:pid="in0" id="port_u_control_unit_pc_logic~i_flag_z">
      <text x="-3" y="-4" class="inputPortLabel cell_u_control_unit_pc_logic">i_flag_z</text>
    </g>
    <g transform="translate(0,70)" s:x="0" s:y="10" s:pid="in0" id="port_u_control_unit_pc_logic~i_inst_onehot">
      <text x="-3" y="-4" class="inputPortLabel cell_u_control_unit_pc_logic">i_inst_onehot</text>
    </g>
    <g transform="translate(30,10)" s:x="30" s:y="10" s:pid="out0" id="port_u_control_unit_pc_logic~o_pc_sel">
      <text x="5" y="-4" style="fill:#000; stroke:none" class="cell_u_control_unit_pc_logic">o_pc_sel</text>
    </g>
  </g>
  <g s:type="inputExt" transform="translate(12,218)" s:width="30" s:height="20" id="cell_i_opcode">
    <text x="15" y="-4" class="nodelabel cell_i_opcode" s:attribute="ref">i_opcode</text>
    <s:alias val="$_inputExt_"/>
    <path d="M0,0 L0,20 L15,20 L30,10 L15,0 Z" class="cell_i_opcode"/>
    <g s:x="28" s:y="10" s:pid="Y"/>
  </g>
  <g s:type="inputExt" transform="translate(144,152.5)" s:width="30" s:height="20" id="cell_i_flag_z">
    <text x="15" y="-4" class="nodelabel cell_i_flag_z" s:attribute="ref">i_flag_z</text>
    <s:alias val="$_inputExt_"/>
    <path d="M0,0 L0,20 L15,20 L30,10 L15,0 Z" class="cell_i_flag_z"/>
    <g s:x="28" s:y="10" s:pid="Y"/>
  </g>
  <g s:type="inputExt" transform="translate(144,22.5)" s:width="30" s:height="20" id="cell_i_flag_n">
    <text x="15" y="-4" class="nodelabel cell_i_flag_n" s:attribute="ref">i_flag_n</text>
    <s:alias val="$_inputExt_"/>
    <path d="M0,0 L0,20 L15,20 L30,10 L15,0 Z" class="cell_i_flag_n"/>
    <g s:x="28" s:y="10" s:pid="Y"/>
  </g>
  <g s:type="inputExt" transform="translate(144,87.5)" s:width="30" s:height="20" id="cell_i_flag_v">
    <text x="15" y="-4" class="nodelabel cell_i_flag_v" s:attribute="ref">i_flag_v</text>
    <s:alias val="$_inputExt_"/>
    <path d="M0,0 L0,20 L15,20 L30,10 L15,0 Z" class="cell_i_flag_v"/>
    <g s:x="28" s:y="10" s:pid="Y"/>
  </g>
  <g s:type="outputExt" transform="translate(568,323)" s:width="30" s:height="20" id="cell_o_reg_we">
    <text x="15" y="-4" class="nodelabel cell_o_reg_we" s:attribute="ref">o_reg_we</text>
    <s:alias val="$_outputExt_"/>
    <path d="M30,0 L30,20 L15,20 L0,10 L15,0 Z" class="cell_o_reg_we"/>
    <g s:x="0" s:y="10" s:pid="A"/>
  </g>
  <g s:type="outputExt" transform="translate(568,258)" s:width="30" s:height="20" id="cell_o_mem_we">
    <text x="15" y="-4" class="nodelabel cell_o_mem_we" s:attribute="ref">o_mem_we</text>
    <s:alias val="$_outputExt_"/>
    <path d="M30,0 L30,20 L15,20 L0,10 L15,0 Z" class="cell_o_mem_we"/>
    <g s:x="0" s:y="10" s:pid="A"/>
  </g>
  <g s:type="outputExt" transform="translate(568,193)" s:width="30" s:height="20" id="cell_o_alu_src_sel">
    <text x="15" y="-4" class="nodelabel cell_o_alu_src_sel" s:attribute="ref">o_alu_src_sel</text>
    <s:alias val="$_outputExt_"/>
    <path d="M30,0 L30,20 L15,20 L0,10 L15,0 Z" class="cell_o_alu_src_sel"/>
    <g s:x="0" s:y="10" s:pid="A"/>
  </g>
  <g s:type="outputExt" transform="translate(568,388)" s:width="30" s:height="20" id="cell_o_wb_sel">
    <text x="15" y="-4" class="nodelabel cell_o_wb_sel" s:attribute="ref">o_wb_sel</text>
    <s:alias val="$_outputExt_"/>
    <path d="M30,0 L30,20 L15,20 L0,10 L15,0 Z" class="cell_o_wb_sel"/>
    <g s:x="0" s:y="10" s:pid="A"/>
  </g>
  <g s:type="outputExt" transform="translate(568,128)" s:width="30" s:height="20" id="cell_o_alu_op">
    <text x="15" y="-4" class="nodelabel cell_o_alu_op" s:attribute="ref">o_alu_op</text>
    <s:alias val="$_outputExt_"/>
    <path d="M30,0 L30,20 L15,20 L0,10 L15,0 Z" class="cell_o_alu_op"/>
    <g s:x="0" s:y="10" s:pid="A"/>
  </g>
  <g s:type="outputExt" transform="translate(568,22.5)" s:width="30" s:height="20" id="cell_o_pc_sel">
    <text x="15" y="-4" class="nodelabel cell_o_pc_sel" s:attribute="ref">o_pc_sel</text>
    <s:alias val="$_outputExt_"/>
    <path d="M30,0 L30,20 L15,20 L0,10 L15,0 Z" class="cell_o_pc_sel"/>
    <g s:x="0" s:y="10" s:pid="A"/>
  </g>
  <line x1="40" x2="144" y1="228" y2="228" class="net_2,3,4,5"/>
  <line x1="175" x2="399.8333333333333" y1="228" y2="228" class="net_20,21,22,23,24,25,26,27,28,29,30,31,32,33,34,35"/>
  <line x1="175" x2="306" y1="228" y2="228" class="net_20,21,22,23,24,25,26,27,28,29,30,31,32,33,34,35"/>
  <line x1="306" x2="306" y1="228" y2="92.5" class="net_20,21,22,23,24,25,26,27,28,29,30,31,32,33,34,35"/>
  <circle cx="306" cy="228" r="2" style="fill:#000" class="net_20,21,22,23,24,25,26,27,28,29,30,31,32,33,34,35"/>
  <line x1="306" x2="395" y1="92.5" y2="92.5" class="net_20,21,22,23,24,25,26,27,28,29,30,31,32,33,34,35"/>
  <line x1="172" x2="395" y1="32.5" y2="32.5" class="net_7"/>
  <line x1="172" x2="286" y1="97.5" y2="97.5" class="net_8"/>
  <line x1="286" x2="286" y1="97.5" y2="52.5" class="net_8"/>
  <line x1="286" x2="395" y1="52.5" y2="52.5" class="net_8"/>
  <line x1="172" x2="296" y1="162.5" y2="162.5" class="net_6"/>
  <line x1="296" x2="296" y1="162.5" y2="72.5" class="net_6"/>
  <line x1="296" x2="395" y1="72.5" y2="72.5" class="net_6"/>
  <line x1="430.8333333333333" x2="553" y1="288" y2="288" class="net_9"/>
  <line x1="553" x2="553" y1="288" y2="333" class="net_9"/>
  <line x1="553" x2="568" y1="333" y2="333" class="net_9"/>
  <line x1="430.8333333333333" x2="568" y1="268" y2="268" class="net_10"/>
  <line x1="430.8333333333333" x2="553" y1="248" y2="248" class="net_11"/>
  <line x1="553" x2="553" y1="248" y2="203" class="net_11"/>
  <line x1="553" x2="568" y1="203" y2="203" class="net_11"/>
  <line x1="430.8333333333333" x2="543" y1="308" y2="308" class="net_12,13"/>
  <line x1="543" x2="543" y1="308" y2="398" class="net_12,13"/>
  <line x1="543" x2="568" y1="398" y2="398" class="net_12,13"/>
  <line x1="430.8333333333333" x2="543" y1="228" y2="228" class="net_14,15,16,17"/>
  <line x1="543" x2="543" y1="228" y2="138" class="net_14,15,16,17"/>
  <line x1="543" x2="568" y1="138" y2="138" class="net_14,15,16,17"/>
  <line x1="426" x2="568" y1="32.5" y2="32.5" class="net_18,19"/>
</svg>
