<svg xmlns="http://www.w3.org/2000/svg" xmlns:xlink="http://www.w3.org/1999/xlink" xmlns:s="https://github.com/nturley/netlistsvg" width="494" height="296.5">
  <style>svg {
    stroke:#000;
    fill:none;
  }
  text {
    fill:#000;
    stroke:none;
    font-size:10px;
    font-weight: bold;
    font-family: "Courier New", monospace;
  }
  .nodelabel {
    text-anchor: middle;
  }
  .inputPortLabel {
    text-anchor: end;
  }
  .splitjoinBody {
    fill:#000;
  }</style>
  <g s:type="reduce_xor" transform="translate(177,12)" s:width="33" s:height="25" id="cell_$auto$simplemap.cc:106:simplemap_bitop$100">
    <s:alias val="$xor"/>
    <s:alias val="$reduce_xor"/>
    <s:alias val="$_XOR_"/>
    <path d="M3,0 A30 25 0 0 1 3,25 A30 25 0 0 0 33,12.5 A30 25 0 0 0 3,0" class="cell_$auto$simplemap.cc:106:simplemap_bitop$100"/>
    <path d="M0,0 A30 25 0 0 1 0,25" class="cell_$auto$simplemap.cc:106:simplemap_bitop$100"/>
    <g s:x="3" s:y="5" s:pid="A"/>
    <g s:x="3" s:y="20" s:pid="B"/>
    <g s:x="33" s:y="12.5" s:pid="Y"/>
  </g>
  <g s:type="reduce_xor" transform="translate(177,72)" s:width="33" s:height="25" id="cell_$auto$simplemap.cc:106:simplemap_bitop$97">
    <s:alias val="$xor"/>
    <s:alias val="$reduce_xor"/>
    <s:alias val="$_XOR_"/>
    <path d="M3,0 A30 25 0 0 1 3,25 A30 25 0 0 0 33,12.5 A30 25 0 0 0 3,0" class="cell_$auto$simplemap.cc:106:simplemap_bitop$97"/>
    <path d="M0,0 A30 25 0 0 1 0,25" class="cell_$auto$simplemap.cc:106:simplemap_bitop$97"/>
    <g s:x="3" s:y="5" s:pid="A"/>
    <g s:x="3" s:y="20" s:pid="B"/>
    <g s:x="33" s:y="12.5" s:pid="Y"/>
  </g>
  <g s:type="reduce_xor" transform="translate(177,132)" s:width="33" s:height="25" id="cell_$auto$simplemap.cc:106:simplemap_bitop$98">
    <s:alias val="$xor"/>
    <s:alias val="$reduce_xor"/>
    <s:alias val="$_XOR_"/>
    <path d="M3,0 A30 25 0 0 1 3,25 A30 25 0 0 0 33,12.5 A30 25 0 0 0 3,0" class="cell_$auto$simplemap.cc:106:simplemap_bitop$98"/>
    <path d="M0,0 A30 25 0 0 1 0,25" class="cell_$auto$simplemap.cc:106:simplemap_bitop$98"/>
    <g s:x="3" s:y="5" s:pid="A"/>
    <g s:x="3" s:y="20" s:pid="B"/>
    <g s:x="33" s:y="12.5" s:pid="Y"/>
  </g>
  <g s:type="reduce_xor" transform="translate(177,252)" s:width="33" s:height="25" id="cell_$auto$simplemap.cc:106:simplemap_bitop$99">
    <s:alias val="$xor"/>
    <s:alias val="$reduce_xor"/>
    <s:alias val="$_XOR_"/>
    <path d="M3,0 A30 25 0 0 1 3,25 A30 25 0 0 0 33,12.5 A30 25 0 0 0 3,0" class="cell_$auto$simplemap.cc:106:simplemap_bitop$99"/>
    <path d="M0,0 A30 25 0 0 1 0,25" class="cell_$auto$simplemap.cc:106:simplemap_bitop$99"/>
    <g s:x="3" s:y="5" s:pid="A"/>
    <g s:x="3" s:y="20" s:pid="B"/>
    <g s:x="33" s:y="12.5" s:pid="Y"/>
  </g>
  <g s:type="or" transform="translate(245,124.5)" s:width="30" s:height="25" id="cell_$auto$simplemap.cc:157:simplemap_reduce$104">
    <s:alias val="$or"/>
    <s:alias val="$logic_or"/>
    <s:alias val="$_OR_"/>
    <path d="M0,25 L0,25 L15,25 A15 12.5 0 0 0 15,0 L0,0" class="cell_$auto$simplemap.cc:157:simplemap_reduce$104"/>
    <path d="M0,0 A30 25 0 0 1 0,25" class="cell_$auto$simplemap.cc:157:simplemap_reduce$104"/>
    <g s:x="3" s:y="5" s:pid="A"/>
    <g s:x="3" s:y="20" s:pid="B"/>
    <g s:x="30" s:y="12.5" s:pid="Y"/>
  </g>
  <g s:type="or" transform="translate(245,259.5)" s:width="30" s:height="25" id="cell_$auto$simplemap.cc:157:simplemap_reduce$105">
    <s:alias val="$or"/>
    <s:alias val="$logic_or"/>
    <s:alias val="$_OR_"/>
    <path d="M0,25 L0,25 L15,25 A15 12.5 0 0 0 15,0 L0,0" class="cell_$auto$simplemap.cc:157:simplemap_reduce$105"/>
    <path d="M0,0 A30 25 0 0 1 0,25" class="cell_$auto$simplemap.cc:157:simplemap_reduce$105"/>
    <g s:x="3" s:y="5" s:pid="A"/>
    <g s:x="3" s:y="20" s:pid="B"/>
    <g s:x="30" s:y="12.5" s:pid="Y"/>
  </g>
  <g s:type="or" transform="translate(310,252)" s:width="30" s:height="25" id="cell_$auto$simplemap.cc:157:simplemap_reduce$107">
    <s:alias val="$or"/>
    <s:alias val="$logic_or"/>
    <s:alias val="$_OR_"/>
    <path d="M0,25 L0,25 L15,25 A15 12.5 0 0 0 15,0 L0,0" class="cell_$auto$simplemap.cc:157:simplemap_reduce$107"/>
    <path d="M0,0 A30 25 0 0 1 0,25" class="cell_$auto$simplemap.cc:157:simplemap_reduce$107"/>
    <g s:x="3" s:y="5" s:pid="A"/>
    <g s:x="3" s:y="20" s:pid="B"/>
    <g s:x="30" s:y="12.5" s:pid="Y"/>
  </g>
  <g s:type="not" transform="translate(375,254.5)" s:width="30" s:height="20" id="cell_$auto$simplemap.cc:227:simplemap_lognot$109">
    <s:alias val="$_NOT_"/>
    <s:alias val="$not"/>
    <s:alias val="$logic_not"/>
    <path d="M0,0 L0,20 L20,10 Z" class="cell_$auto$simplemap.cc:227:simplemap_lognot$109"/>
    <circle cx="23" cy="10" r="3" class="cell_$auto$simplemap.cc:227:simplemap_lognot$109"/>
    <g s:x="0" s:y="10" s:pid="A"/>
    <g s:x="25" s:y="10" s:pid="Y"/>
  </g>
  <g s:type="inputExt" transform="translate(12,97)" s:width="30" s:height="20" id="cell_i_opcode">
    <text x="15" y="-4" class="nodelabel cell_i_opcode" s:attribute="ref">i_opcode</text>
    <s:alias val="$_inputExt_"/>
    <path d="M0,0 L0,20 L15,20 L30,10 L15,0 Z" class="cell_i_opcode"/>
    <g s:x="28" s:y="10" s:pid="Y"/>
  </g>
  <g s:type="inputExt" transform="translate(12,212)" s:width="30" s:height="20" id="cell_i_target">
    <text x="15" y="-4" class="nodelabel cell_i_target" s:attribute="ref">i_target</text>
    <s:alias val="$_inputExt_"/>
    <path d="M0,0 L0,20 L15,20 L30,10 L15,0 Z" class="cell_i_target"/>
    <g s:x="28" s:y="10" s:pid="Y"/>
  </g>
  <g s:type="outputExt" transform="translate(440,254.5)" s:width="30" s:height="20" id="cell_o_match">
    <text x="15" y="-4" class="nodelabel cell_o_match" s:attribute="ref">o_match</text>
    <s:alias val="$_outputExt_"/>
    <path d="M30,0 L30,20 L15,20 L0,10 L15,0 Z" class="cell_o_match"/>
    <g s:x="0" s:y="10" s:pid="A"/>
  </g>
  <g s:type="split" transform="translate(95,86.5)" s:width="5" s:height="40" id="cell_$split$,2,3,4,5,">
    <rect width="5" height="80" class="splitjoinBody" s:generic="body"/>
    <s:alias val="$_split_"/>
    <g s:x="0" s:y="20" s:pid="in"/>
    <g transform="translate(4,10)" s:x="4" s:y="10" s:pid="out0">
      <text x="5" y="-4">3</text>
    </g>
    <g transform="translate(4,30)" s:x="4" s:y="10" s:pid="out0">
      <text x="5" y="-4">0</text>
    </g>
    <g transform="translate(4,50)" s:x="4" s:y="10" s:pid="out0">
      <text x="5" y="-4">1</text>
    </g>
    <g transform="translate(4,70)" s:x="4" s:y="10" s:pid="out0">
      <text x="5" y="-4">2</text>
    </g>
  </g>
  <g s:type="split" transform="translate(95,201.5)" s:width="5" s:height="40" id="cell_$split$,6,7,8,9,">
    <rect width="5" height="80" class="splitjoinBody" s:generic="body"/>
    <s:alias val="$_split_"/>
    <g s:x="0" s:y="20" s:pid="in"/>
    <g transform="translate(4,10)" s:x="4" s:y="10" s:pid="out0">
      <text x="5" y="-4">3</text>
    </g>
    <g transform="translate(4,30)" s:x="4" s:y="10" s:pid="out0">
      <text x="5" y="-4">0</text>
    </g>
    <g transform="translate(4,50)" s:x="4" s:y="10" s:pid="out0">
      <text x="5" y="-4">1</text>
    </g>
    <g transform="translate(4,70)" s:x="4" s:y="10" s:pid="out0">
      <text x="5" y="-4">2</text>
    </g>
  </g>
  <line x1="100" x2="117" y1="97" y2="97" class="net_5"/>
  <line x1="117" x2="117" y1="97" y2="17" class="net_5"/>
  <line x1="117" x2="180" y1="17" y2="17" class="net_5"/>
  <line x1="100" x2="127" y1="212" y2="212" class="net_9"/>
  <line x1="127" x2="127" y1="212" y2="32" class="net_9"/>
  <line x1="127" x2="180" y1="32" y2="32" class="net_9"/>
  <line x1="100" x2="137" y1="117" y2="117" class="net_2"/>
  <line x1="137" x2="137" y1="117" y2="77" class="net_2"/>
  <line x1="137" x2="180" y1="77" y2="77" class="net_2"/>
  <line x1="100" x2="147" y1="232" y2="232" class="net_6"/>
  <line x1="147" x2="147" y1="232" y2="92" class="net_6"/>
  <line x1="147" x2="180" y1="92" y2="92" class="net_6"/>
  <line x1="100" x2="180" y1="137" y2="137" class="net_3"/>
  <line x1="100" x2="157" y1="252" y2="252" class="net_7"/>
  <line x1="157" x2="157" y1="252" y2="152" class="net_7"/>
  <line x1="157" x2="180" y1="152" y2="152" class="net_7"/>
  <line x1="100" x2="167" y1="157" y2="157" class="net_4"/>
  <line x1="167" x2="167" y1="157" y2="257" class="net_4"/>
  <line x1="167" x2="180" y1="257" y2="257" class="net_4"/>
  <line x1="100" x2="180" y1="272" y2="272" class="net_8"/>
  <line x1="210" x2="220" y1="84.5" y2="84.5" class="net_12"/>
  <line x1="220" x2="220" y1="84.5" y2="129.5" class="net_12"/>
  <line x1="220" x2="248" y1="129.5" y2="129.5" class="net_12"/>
  <line x1="210" x2="248" y1="144.5" y2="144.5" class="net_13"/>
  <line x1="210" x2="248" y1="264.5" y2="264.5" class="net_14"/>
  <line x1="210" x2="230" y1="24.5" y2="24.5" class="net_11"/>
  <line x1="230" x2="230" y1="24.5" y2="279.5" class="net_11"/>
  <line x1="230" x2="248" y1="279.5" y2="279.5" class="net_11"/>
  <line x1="275" x2="285" y1="137" y2="137" class="net_15"/>
  <line x1="285" x2="285" y1="137" y2="257" class="net_15"/>
  <line x1="285" x2="313" y1="257" y2="257" class="net_15"/>
  <line x1="275" x2="313" y1="272" y2="272" class="net_16"/>
  <line x1="340" x2="375" y1="264.5" y2="264.5" class="net_17"/>
  <line x1="400" x2="440" y1="264.5" y2="264.5" class="net_10"/>
  <line x1="40" x2="95" y1="107" y2="107" class="net_2,3,4,5"/>
  <line x1="40" x2="95" y1="222" y2="222" class="net_6,7,8,9"/>
</svg>
