<svg xmlns="http://www.w3.org/2000/svg" xmlns:xlink="http://www.w3.org/1999/xlink" xmlns:s="https://github.com/nturley/netlistsvg" width="514" height="1419">
  <style>svg {
    stroke:#000;
    fill:none;
  }
  text {
    fill:#000;
    stroke:none;
    font-size:10px;
    font-weight: bold;
    font-family: "Courier New", monospace;
  }
  .nodelabel {
    text-anchor: middle;
  }
  .inputPortLabel {
    text-anchor: end;
  }
  .splitjoinBody {
    fill:#000;
  }</style>
  <g s:type="generic" transform="translate(150,110)" s:width="30" s:height="40" id="cell_gen_op_decode[0].u_match">
    <text x="15" y="-4" class="nodelabel cell_gen_op_decode[0].u_match" s:attribute="ref">instruction_decoder_op_match</text>
    <rect width="30" height="40" s:generic="body" class="cell_gen_op_decode[0].u_match"/>
    <g transform="translate(0,10)" s:x="0" s:y="10" s:pid="in0" id="port_gen_op_decode[0].u_match~i_opcode">
      <text x="-3" y="-4" class="inputPortLabel cell_gen_op_decode[0].u_match">i_opcode</text>
    </g>
    <g transform="translate(0,30)" s:x="0" s:y="10" s:pid="in0" id="port_gen_op_decode[0].u_match~i_target">
      <text x="-3" y="-4" class="inputPortLabel cell_gen_op_decode[0].u_match">i_target</text>
    </g>
    <g transform="translate(30,10)" s:x="30" s:y="10" s:pid="out0" id="port_gen_op_decode[0].u_match~o_match">
      <text x="5" y="-4" style="fill:#000; stroke:none" class="cell_gen_op_decode[0].u_match">o_match</text>
    </g>
  </g>
  <g s:type="generic" transform="translate(144,924)" s:width="30" s:height="40" id="cell_gen_op_decode[10].u_match">
    <text x="15" y="-4" class="nodelabel cell_gen_op_decode[10].u_match" s:attribute="ref">instruction_decoder_op_match</text>
    <rect width="30" height="40" s:generic="body" class="cell_gen_op_decode[10].u_match"/>
    <g transform="translate(0,10)" s:x="0" s:y="10" s:pid="in0" id="port_gen_op_decode[10].u_match~i_opcode">
      <text x="-3" y="-4" class="inputPortLabel cell_gen_op_decode[10].u_match">i_opcode</text>
    </g>
    <g transform="translate(0,30)" s:x="0" s:y="10" s:pid="in0" id="port_gen_op_decode[10].u_match~i_target">
      <text x="-3" y="-4" class="inputPortLabel cell_gen_op_decode[10].u_match">i_target</text>
    </g>
    <g transform="translate(30,10)" s:x="30" s:y="10" s:pid="out0" id="port_gen_op_decode[10].u_match~o_match">
      <text x="5" y="-4" style="fill:#000; stroke:none" class="cell_gen_op_decode[10].u_match">o_match</text>
    </g>
  </g>
  <g s:type="generic" transform="translate(144,1012)" s:width="30" s:height="40" id="cell_gen_op_decode[11].u_match">
    <text x="15" y="-4" class="nodelabel cell_gen_op_decode[11].u_match" s:attribute="ref">instruction_decoder_op_match</text>
    <rect width="30" height="40" s:generic="body" class="cell_gen_op_decode[11].u_match"/>
    <g transform="translate(0,10)" s:x="0" s:y="10" s:pid="in0" id="port_gen_op_decode[11].u_match~i_opcode">
      <text x="-3" y="-4" class="inputPortLabel cell_gen_op_decode[11].u_match">i_opcode</text>
    </g>
    <g transform="translate(0,30)" s:x="0" s:y="10" s:pid="in0" id="port_gen_op_decode[11].u_match~i_target">
      <text x="-3" y="-4" class="inputPortLabel cell_gen_op_decode[11].u_match">i_target</text>
    </g>
    <g transform="translate(30,10)" s:x="30" s:y="10" s:pid="out0" id="port_gen_op_decode[11].u_match~o_match">
      <text x="5" y="-4" style="fill:#000; stroke:none" class="cell_gen_op_decode[11].u_match">o_match</text>
    </g>
  </g>
  <g s:type="generic" transform="translate(144,1100)" s:width="30" s:height="40" id="cell_gen_op_decode[12].u_match">
    <text x="15" y="-4" class="nodelabel cell_gen_op_decode[12].u_match" s:attribute="ref">instruction_decoder_op_match</text>
    <rect width="30" height="40" s:generic="body" class="cell_gen_op_decode[12].u_match"/>
    <g transform="translate(0,10)" s:x="0" s:y="10" s:pid="in0" id="port_gen_op_decode[12].u_match~i_opcode">
      <text x="-3" y="-4" class="inputPortLabel cell_gen_op_decode[12].u_match">i_opcode</text>
    </g>
    <g transform="translate(0,30)" s:x="0" s:y="10" s:pid="in0" id="port_gen_op_decode[12].u_match~i_target">
      <text x="-3" y="-4" class="inputPortLabel cell_gen_op_decode[12].u_match">i_target</text>
    </g>
    <g transform="translate(30,10)" s:x="30" s:y="10" s:pid="out0" id="port_gen_op_decode[12].u_match~o_match">
      <text x="5" y="-4" style="fill:#000; stroke:none" class="cell_gen_op_decode[12].u_match">o_match</text>
    </g>
  </g>
  <g s:type="generic" transform="translate(144,1188)" s:width="30" s:height="40" id="cell_gen_op_decode[13].u_match">
    <text x="15" y="-4" class="nodelabel cell_gen_op_decode[13].u_match" s:attribute="ref">instruction_decoder_op_match</text>
    <rect width="30" height="40" s:generic="body" class="cell_gen_op_decode[13].u_match"/>
    <g transform="translate(0,10)" s:x="0" s:y="10" s:pid="in0" id="port_gen_op_decode[13].u_match~i_opcode">
      <text x="-3" y="-4" class="inputPortLabel cell_gen_op_decode[13].u_match">i_opcode</text>
    </g>
    <g transform="translate(0,30)" s:x="0" s:y="10" s:pid="in0" id="port_gen_op_decode[13].u_match~i_target">
      <text x="-3" y="-4" class="inputPortLabel cell_gen_op_decode[13].u_match">i_target</text>
    </g>
    <g transform="translate(30,10)" s:x="30" s:y="10" s:pid="out0" id="port_gen_op_decode[13].u_match~o_match">
      <text x="5" y="-4" style="fill:#000; stroke:none" class="cell_gen_op_decode[13].u_match">o_match</text>
    </g>
  </g>
  <g s:type="generic" transform="translate(144,1364)" s:width="30" s:height="40" id="cell_gen_op_decode[14].u_match">
    <text x="15" y="-4" class="nodelabel cell_gen_op_decode[14].u_match" s:attribute="ref">instruction_decoder_op_match</text>
    <rect width="30" height="40" s:generic="body" class="cell_gen_op_decode[14].u_match"/>
    <g transform="translate(0,10)" s:x="0" s:y="10" s:pid="in0" id="port_gen_op_decode[14].u_match~i_opcode">
      <text x="-3" y="-4" class="inputPortLabel cell_gen_op_decode[14].u_match">i_opcode</text>
    </g>
    <g transform="translate(0,30)" s:x="0" s:y="10" s:pid="in0" id="port_gen_op_decode[14].u_match~i_target">
      <text x="-3" y="-4" class="inputPortLabel cell_gen_op_decode[14].u_match">i_target</text>
    </g>
    <g transform="translate(30,10)" s:x="30" s:y="10" s:pid="out0" id="port_gen_op_decode[14].u_match~o_match">
      <text x="5" y="-4" style="fill:#000; stroke:none" class="cell_gen_op_decode[14].u_match">o_match</text>
    </g>
  </g>
  <g s:type="generic" transform="translate(144,1276)" s:width="30" s:height="40" id="cell_gen_op_decode[15].u_match">
    <text x="15" y="-4" class="nodelabel cell_gen_op_decode[15].u_match" s:attribute="ref">instruction_decoder_op_match</text>
    <rect width="30" height="40" s:generic="body" class="cell_gen_op_decode[15].u_match"/>
    <g transform="translate(0,10)" s:x="0" s:y="10" s:pid="in0" id="port_gen_op_decode[15].u_match~i_opcode">
      <text x="-3" y="-4" class="inputPortLabel cell_gen_op_decode[15].u_match">i_opcode</text>
    </g>
    <g transform="translate(0,30)" s:x="0" s:y="10" s:pid="in0" id="port_gen_op_decode[15].u_match~i_target">
      <text x="-3" y="-4" class="inputPortLabel cell_gen_op_decode[15].u_match">i_target</text>
    </g>
    <g transform="translate(30,10)" s:x="30" s:y="10" s:pid="out0" id="port_gen_op_decode[15].u_match~o_match">
      <text x="5" y="-4" style="fill:#000; stroke:none" class="cell_gen_op_decode[15].u_match">o_match</text>
    </g>
  </g>
  <g s:type="generic" transform="translate(150,22)" s:width="30" s:height="40" id="cell_gen_op_decode[1].u_match">
    <text x="15" y="-4" class="nodelabel cell_gen_op_decode[1].u_match" s:attribute="ref">instruction_decoder_op_match</text>
    <rect width="30" height="40" s:generic="body" class="cell_gen_op_decode[1].u_match"/>
    <g transform="translate(0,10)" s:x="0" s:y="10" s:pid="in0" id="port_gen_op_decode[1].u_match~i_opcode">
      <text x="-3" y="-4" class="inputPortLabel cell_gen_op_decode[1].u_match">i_opcode</text>
    </g>
    <g transform="translate(0,30)" s:x="0" s:y="10" s:pid="in0" id="port_gen_op_decode[1].u_match~i_target">
      <text x="-3" y="-4" class="inputPortLabel cell_gen_op_decode[1].u_match">i_target</text>
    </g>
    <g transform="translate(30,10)" s:x="30" s:y="10" s:pid="out0" id="port_gen_op_decode[1].u_match~o_match">
      <text x="5" y="-4" style="fill:#000; stroke:none" class="cell_gen_op_decode[1].u_match">o_match</text>
    </g>
  </g>
  <g s:type="generic" transform="translate(150,198)" s:width="30" s:height="40" id="cell_gen_op_decode[2].u_match">
    <text x="15" y="-4" class="nodelabel cell_gen_op_decode[2].u_match" s:attribute="ref">instruction_decoder_op_match</text>
    <rect width="30" height="40" s:generic="body" class="cell_gen_op_decode[2].u_match"/>
    <g transform="translate(0,10)" s:x="0" s:y="10" s:pid="in0" id="port_gen_op_decode[2].u_match~i_opcode">
      <text x="-3" y="-4" class="inputPortLabel cell_gen_op_decode[2].u_match">i_opcode</text>
    </g>
    <g transform="translate(0,30)" s:x="0" s:y="10" s:pid="in0" id="port_gen_op_decode[2].u_match~i_target">
      <text x="-3" y="-4" class="inputPortLabel cell_gen_op_decode[2].u_match">i_target</text>
    </g>
    <g transform="translate(30,10)" s:x="30" s:y="10" s:pid="out0" id="port_gen_op_decode[2].u_match~o_match">
      <text x="5" y="-4" style="fill:#000; stroke:none" class="cell_gen_op_decode[2].u_match">o_match</text>
    </g>
  </g>
  <g s:type="generic" transform="translate(150,286)" s:width="30" s:height="40" id="cell_gen_op_decode[3].u_match">
    <text x="15" y="-4" class="nodelabel cell_gen_op_decode[3].u_match" s:attribute="ref">instruction_decoder_op_match</text>
    <rect width="30" height="40" s:generic="body" class="cell_gen_op_decode[3].u_match"/>
    <g transform="translate(0,10)" s:x="0" s:y="10" s:pid="in0" id="port_gen_op_decode[3].u_match~i_opcode">
      <text x="-3" y="-4" class="inputPortLabel cell_gen_op_decode[3].u_match">i_opcode</text>
    </g>
    <g transform="translate(0,30)" s:x="0" s:y="10" s:pid="in0" id="port_gen_op_decode[3].u_match~i_target">
      <text x="-3" y="-4" class="inputPortLabel cell_gen_op_decode[3].u_match">i_target</text>
    </g>
    <g transform="translate(30,10)" s:x="30" s:y="10" s:pid="out0" id="port_gen_op_decode[3].u_match~o_match">
      <text x="5" y="-4" style="fill:#000; stroke:none" class="cell_gen_op_decode[3].u_match">o_match</text>
    </g>
  </g>
  <g s:type="generic" transform="translate(150,374)" s:width="30" s:height="40" id="cell_gen_op_decode[4].u_match">
    <text x="15" y="-4" class="nodelabel cell_gen_op_decode[4].u_match" s:attribute="ref">instruction_decoder_op_match</text>
    <rect width="30" height="40" s:generic="body" class="cell_gen_op_decode[4].u_match"/>
    <g transform="translate(0,10)" s:x="0" s:y="10" s:pid="in0" id="port_gen_op_decode[4].u_match~i_opcode">
      <text x="-3" y="-4" class="inputPortLabel cell_gen_op_decode[4].u_match">i_opcode</text>
    </g>
    <g transform="translate(0,30)" s:x="0" s:y="10" s:pid="in0" id="port_gen_op_decode[4].u_match~i_target">
      <text x="-3" y="-4" class="inputPortLabel cell_gen_op_decode[4].u_match">i_target</text>
    </g>
    <g transform="translate(30,10)" s:x="30" s:y="10" s:pid="out0" id="port_gen_op_decode[4].u_match~o_match">
      <text x="5" y="-4" style="fill:#000; stroke:none" class="cell_gen_op_decode[4].u_match">o_match</text>
    </g>
  </g>
  <g s:type="generic" transform="translate(150,462)" s:width="30" s:height="40" id="cell_gen_op_decode[5].u_match">
    <text x="15" y="-4" class="nodelabel cell_gen_op_decode[5].u_match" s:attribute="ref">instruction_decoder_op_match</text>
    <rect width="30" height="40" s:generic="body" class="cell_gen_op_decode[5].u_match"/>
    <g transform="translate(0,10)" s:x="0" s:y="10" s:pid="in0" id="port_gen_op_decode[5].u_match~i_opcode">
      <text x="-3" y="-4" class="inputPortLabel cell_gen_op_decode[5].u_match">i_opcode</text>
    </g>
    <g transform="translate(0,30)" s:x="0" s:y="10" s:pid="in0" id="port_gen_op_decode[5].u_match~i_target">
      <text x="-3" y="-4" class="inputPortLabel cell_gen_op_decode[5].u_match">i_target</text>
    </g>
    <g transform="translate(30,10)" s:x="30" s:y="10" s:pid="out0" id="port_gen_op_decode[5].u_match~o_match">
      <text x="5" y="-4" style="fill:#000; stroke:none" class="cell_gen_op_decode[5].u_match">o_match</text>
    </g>
  </g>
  <g s:type="generic" transform="translate(150,550)" s:width="30" s:height="40" id="cell_gen_op_decode[6].u_match">
    <text x="15" y="-4" class="nodelabel cell_gen_op_decode[6].u_match" s:attribute="ref">instruction_decoder_op_match</text>
    <rect width="30" height="40" s:generic="body" class="cell_gen_op_decode[6].u_match"/>
    <g transform="translate(0,10)" s:x="0" s:y="10" s:pid="in0" id="port_gen_op_decode[6].u_match~i_opcode">
      <text x="-3" y="-4" class="inputPortLabel cell_gen_op_decode[6].u_match">i_opcode</text>
    </g>
    <g transform="translate(0,30)" s:x="0" s:y="10" s:pid="in0" id="port_gen_op_decode[6].u_match~i_target">
      <text x="-3" y="-4" class="inputPortLabel cell_gen_op_decode[6].u_match">i_target</text>
    </g>
    <g transform="translate(30,10)" s:x="30" s:y="10" s:pid="out0" id="port_gen_op_decode[6].u_match~o_match">
      <text x="5" y="-4" style="fill:#000; stroke:none" class="cell_gen_op_decode[6].u_match">o_match</text>
    </g>
  </g>
  <g s:type="generic" transform="translate(150,638)" s:width="30" s:height="40" id="cell_gen_op_decode[7].u_match">
    <text x="15" y="-4" class="nodelabel cell_gen_op_decode[7].u_match" s:attribute="ref">instruction_decoder_op_match</text>
    <rect width="30" height="40" s:generic="body" class="cell_gen_op_decode[7].u_match"/>
    <g transform="translate(0,10)" s:x="0" s:y="10" s:pid="in0" id="port_gen_op_decode[7].u_match~i_opcode">
      <text x="-3" y="-4" class="inputPortLabel cell_gen_op_decode[7].u_match">i_opcode</text>
    </g>
    <g transform="translate(0,30)" s:x="0" s:y="10" s:pid="in0" id="port_gen_op_decode[7].u_match~i_target">
      <text x="-3" y="-4" class="inputPortLabel cell_gen_op_decode[7].u_match">i_target</text>
    </g>
    <g transform="translate(30,10)" s:x="30" s:y="10" s:pid="out0" id="port_gen_op_decode[7].u_match~o_match">
      <text x="5" y="-4" style="fill:#000; stroke:none" class="cell_gen_op_decode[7].u_match">o_match</text>
    </g>
  </g>
  <g s:type="generic" transform="translate(150,748)" s:width="30" s:height="40" id="cell_gen_op_decode[8].u_match">
    <text x="15" y="-4" class="nodelabel cell_gen_op_decode[8].u_match" s:attribute="ref">instruction_decoder_op_match</text>
    <rect width="30" height="40" s:generic="body" class="cell_gen_op_decode[8].u_match"/>
    <g transform="translate(0,10)" s:x="0" s:y="10" s:pid="in0" id="port_gen_op_decode[8].u_match~i_opcode">
      <text x="-3" y="-4" class="inputPortLabel cell_gen_op_decode[8].u_match">i_opcode</text>
    </g>
    <g transform="translate(0,30)" s:x="0" s:y="10" s:pid="in0" id="port_gen_op_decode[8].u_match~i_target">
      <text x="-3" y="-4" class="inputPortLabel cell_gen_op_decode[8].u_match">i_target</text>
    </g>
    <g transform="translate(30,10)" s:x="30" s:y="10" s:pid="out0" id="port_gen_op_decode[8].u_match~o_match">
      <text x="5" y="-4" style="fill:#000; stroke:none" class="cell_gen_op_decode[8].u_match">o_match</text>
    </g>
  </g>
  <g s:type="generic" transform="translate(150,836)" s:width="30" s:height="40" id="cell_gen_op_decode[9].u_match">
    <text x="15" y="-4" class="nodelabel cell_gen_op_decode[9].u_match" s:attribute="ref">instruction_decoder_op_match</text>
    <rect width="30" height="40" s:generic="body" class="cell_gen_op_decode[9].u_match"/>
    <g transform="translate(0,10)" s:x="0" s:y="10" s:pid="in0" id="port_gen_op_decode[9].u_match~i_opcode">
      <text x="-3" y="-4" class="inputPortLabel cell_gen_op_decode[9].u_match">i_opcode</text>
    </g>
    <g transform="translate(0,30)" s:x="0" s:y="10" s:pid="in0" id="port_gen_op_decode[9].u_match~i_target">
      <text x="-3" y="-4" class="inputPortLabel cell_gen_op_decode[9].u_match">i_target</text>
    </g>
    <g transform="translate(30,10)" s:x="30" s:y="10" s:pid="out0" id="port_gen_op_decode[9].u_match~o_match">
      <text x="5" y="-4" style="fill:#000; stroke:none" class="cell_gen_op_decode[9].u_match">o_match</text>
    </g>
  </g>
  <g s:type="inputExt" transform="translate(12,638.5)" s:width="30" s:height="20" id="cell_i_opcode">
    <text x="15" y="-4" class="nodelabel cell_i_opcode" s:attribute="ref">i_opcode</text>
    <s:alias val="$_inputExt_"/>
    <path d="M0,0 L0,20 L15,20 L30,10 L15,0 Z" class="cell_i_opcode"/>
    <g s:x="28" s:y="10" s:pid="Y"/>
  </g>
  <g s:type="outputExt" transform="translate(412,508.5)" s:width="30" s:height="20" id="cell_o_instr_signals">
    <text x="15" y="-4" class="nodelabel cell_o_instr_signals" s:attribute="ref">o_instr_signals</text>
    <s:alias val="$_outputExt_"/>
    <path d="M30,0 L30,20 L15,20 L0,10 L15,0 Z" class="cell_o_instr_signals"/>
    <g s:x="0" s:y="10" s:pid="A"/>
  </g>
  <g s:type="constant" transform="translate(12,130.5)" s:width="30" s:height="20" id="cell_0000">
    <text x="15" y="-4" class="nodelabel cell_0000" s:attribute="ref">0x0</text>
    <s:alias val="$_constant_"/>
    <rect width="30" height="20" class="cell_0000"/>
    <g s:x="30" s:y="10" s:pid="Y"/>
  </g>
  <g s:type="constant" transform="translate(12,944.5)" s:width="30" s:height="20" id="cell_1010">
    <text x="15" y="-4" class="nodelabel cell_1010" s:attribute="ref">0xa</text>
    <s:alias val="$_constant_"/>
    <rect width="30" height="20" class="cell_1010"/>
    <g s:x="30" s:y="10" s:pid="Y"/>
  </g>
  <g s:type="constant" transform="translate(12,1032.5)" s:width="30" s:height="20" id="cell_1011">
    <text x="15" y="-4" class="nodelabel cell_1011" s:attribute="ref">0xb</text>
    <s:alias val="$_constant_"/>
    <rect width="30" height="20" class="cell_1011"/>
    <g s:x="30" s:y="10" s:pid="Y"/>
  </g>
  <g s:type="constant" transform="translate(12,1120.5)" s:width="30" s:height="20" id="cell_1100">
    <text x="15" y="-4" class="nodelabel cell_1100" s:attribute="ref">0xc</text>
    <s:alias val="$_constant_"/>
    <rect width="30" height="20" class="cell_1100"/>
    <g s:x="30" s:y="10" s:pid="Y"/>
  </g>
  <g s:type="constant" transform="translate(12,1208.5)" s:width="30" s:height="20" id="cell_1101">
    <text x="15" y="-4" class="nodelabel cell_1101" s:attribute="ref">0xd</text>
    <s:alias val="$_constant_"/>
    <rect width="30" height="20" class="cell_1101"/>
    <g s:x="30" s:y="10" s:pid="Y"/>
  </g>
  <g s:type="constant" transform="translate(12,1384.5)" s:width="30" s:height="20" id="cell_1110">
    <text x="15" y="-4" class="nodelabel cell_1110" s:attribute="ref">0xe</text>
    <s:alias val="$_constant_"/>
    <rect width="30" height="20" class="cell_1110"/>
    <g s:x="30" s:y="10" s:pid="Y"/>
  </g>
  <g s:type="constant" transform="translate(12,1296.5)" s:width="30" s:height="20" id="cell_1111">
    <text x="15" y="-4" class="nodelabel cell_1111" s:attribute="ref">0xf</text>
    <s:alias val="$_constant_"/>
    <rect width="30" height="20" class="cell_1111"/>
    <g s:x="30" s:y="10" s:pid="Y"/>
  </g>
  <g s:type="constant" transform="translate(12,42.5)" s:width="30" s:height="20" id="cell_0001">
    <text x="15" y="-4" class="nodelabel cell_0001" s:attribute="ref">0x1</text>
    <s:alias val="$_constant_"/>
    <rect width="30" height="20" class="cell_0001"/>
    <g s:x="30" s:y="10" s:pid="Y"/>
  </g>
  <g s:type="constant" transform="translate(12,218.5)" s:width="30" s:height="20" id="cell_0010">
    <text x="15" y="-4" class="nodelabel cell_0010" s:attribute="ref">0x2</text>
    <s:alias val="$_constant_"/>
    <rect width="30" height="20" class="cell_0010"/>
    <g s:x="30" s:y="10" s:pid="Y"/>
  </g>
  <g s:type="constant" transform="translate(12,306.5)" s:width="30" s:height="20" id="cell_0011">
    <text x="15" y="-4" class="nodelabel cell_0011" s:attribute="ref">0x3</text>
    <s:alias val="$_constant_"/>
    <rect width="30" height="20" class="cell_0011"/>
    <g s:x="30" s:y="10" s:pid="Y"/>
  </g>
  <g s:type="constant" transform="translate(12,394.5)" s:width="30" s:height="20" id="cell_0100">
    <text x="15" y="-4" class="nodelabel cell_0100" s:attribute="ref">0x4</text>
    <s:alias val="$_constant_"/>
    <rect width="30" height="20" class="cell_0100"/>
    <g s:x="30" s:y="10" s:pid="Y"/>
  </g>
  <g s:type="constant" transform="translate(12,482.5)" s:width="30" s:height="20" id="cell_0101">
    <text x="15" y="-4" class="nodelabel cell_0101" s:attribute="ref">0x5</text>
    <s:alias val="$_constant_"/>
    <rect width="30" height="20" class="cell_0101"/>
    <g s:x="30" s:y="10" s:pid="Y"/>
  </g>
  <g s:type="constant" transform="translate(12,570.5)" s:width="30" s:height="20" id="cell_0110">
    <text x="15" y="-4" class="nodelabel cell_0110" s:attribute="ref">0x6</text>
    <s:alias val="$_constant_"/>
    <rect width="30" height="20" class="cell_0110"/>
    <g s:x="30" s:y="10" s:pid="Y"/>
  </g>
  <g s:type="constant" transform="translate(12,703.5)" s:width="30" s:height="20" id="cell_0111">
    <text x="15" y="-4" class="nodelabel cell_0111" s:attribute="ref">0x7</text>
    <s:alias val="$_constant_"/>
    <rect width="30" height="20" class="cell_0111"/>
    <g s:x="30" s:y="10" s:pid="Y"/>
  </g>
  <g s:type="constant" transform="translate(12,768.5)" s:width="30" s:height="20" id="cell_1000">
    <text x="15" y="-4" class="nodelabel cell_1000" s:attribute="ref">0x8</text>
    <s:alias val="$_constant_"/>
    <rect width="30" height="20" class="cell_1000"/>
    <g s:x="30" s:y="10" s:pid="Y"/>
  </g>
  <g s:type="constant" transform="translate(12,856.5)" s:width="30" s:height="20" id="cell_1001">
    <text x="15" y="-4" class="nodelabel cell_1001" s:attribute="ref">0x9</text>
    <s:alias val="$_constant_"/>
    <rect width="30" height="20" class="cell_1001"/>
    <g s:x="30" s:y="10" s:pid="Y"/>
  </g>
  <g s:type="join" transform="translate(371,498)" s:width="4" s:height="40" id="cell_$join$,6,7,8,9,10,11,12,13,14,15,16,17,18,19,20,21,">
    <rect width="5" height="320" class="splitjoinBody" s:generic="body"/>
    <s:alias val="$_join_"/>
    <g s:x="5" s:y="20" s:pid="out"/>
    <g transform="translate(0,10)" s:x="0" s:y="10" s:pid="in0">
      <text x="-3" y="-4" class="inputPortLabel">0</text>
    </g>
    <g transform="translate(0,30)" s:x="0" s:y="10" s:pid="in0">
      <text x="-3" y="-4" class="inputPortLabel">1</text>
    </g>
    <g transform="translate(0,50)" s:x="0" s:y="10" s:pid="in0">
      <text x="-3" y="-4" class="inputPortLabel">2</text>
    </g>
    <g transform="translate(0,70)" s:x="0" s:y="10" s:pid="in0">
      <text x="-3" y="-4" class="inputPortLabel">3</text>
    </g>
    <g transform="translate(0,90)" s:x="0" s:y="10" s:pid="in0">
      <text x="-3" y="-4" class="inputPortLabel">4</text>
    </g>
    <g transform="translate(0,110)" s:x="0" s:y="10" s:pid="in0">
      <text x="-3" y="-4" class="inputPortLabel">5</text>
    </g>
    <g transform="translate(0,130)" s:x="0" s:y="10" s:pid="in0">
      <text x="-3" y="-4" class="inputPortLabel">6</text>
    </g>
    <g transform="translate(0,150)" s:x="0" s:y="10" s:pid="in0">
      <text x="-3" y="-4" class="inputPortLabel">7</text>
    </g>
    <g transform="translate(0,170)" s:x="0" s:y="10" s:pid="in0">
      <text x="-3" y="-4" class="inputPortLabel">8</text>
    </g>
    <g transform="translate(0,190)" s:x="0" s:y="10" s:pid="in0">
      <text x="-3" y="-4" class="inputPortLabel">9</text>
    </g>
    <g transform="translate(0,210)" s:x="0" s:y="10" s:pid="in0">
      <text x="-3" y="-4" class="inputPortLabel">10</text>
    </g>
    <g transform="translate(0,230)" s:x="0" s:y="10" s:pid="in0">
      <text x="-3" y="-4" class="inputPortLabel">11</text>
    </g>
    <g transform="translate(0,250)" s:x="0" s:y="10" s:pid="in0">
      <text x="-3" y="-4" class="inputPortLabel">12</text>
    </g>
    <g transform="translate(0,270)" s:x="0" s:y="10" s:pid="in0">
      <text x="-3" y="-4" class="inputPortLabel">13</text>
    </g>
    <g transform="translate(0,290)" s:x="0" s:y="10" s:pid="in0">
      <text x="-3" y="-4" class="inputPortLabel">14</text>
    </g>
    <g transform="translate(0,310)" s:x="0" s:y="10" s:pid="in0">
      <text x="-3" y="-4" class="inputPortLabel">15</text>
    </g>
  </g>
  <line x1="40" x2="80" y1="648.5" y2="648.5" class="net_2,3,4,5"/>
  <line x1="80" x2="80" y1="648.5" y2="120.5" class="net_2,3,4,5"/>
  <circle cx="80" cy="648.5" r="2" style="fill:#000" class="net_2,3,4,5"/>
  <circle cx="80" cy="120.5" r="2" style="fill:#000" class="net_2,3,4,5"/>
  <line x1="80" x2="150" y1="120.5" y2="120.5" class="net_2,3,4,5"/>
  <line x1="40" x2="80" y1="648.5" y2="648.5" class="net_2,3,4,5"/>
  <line x1="80" x2="80" y1="648.5" y2="934.5" class="net_2,3,4,5"/>
  <circle cx="80" cy="934.5" r="2" style="fill:#000" class="net_2,3,4,5"/>
  <line x1="80" x2="144" y1="934.5" y2="934.5" class="net_2,3,4,5"/>
  <line x1="40" x2="80" y1="648.5" y2="648.5" class="net_2,3,4,5"/>
  <line x1="80" x2="80" y1="648.5" y2="1022.5" class="net_2,3,4,5"/>
  <circle cx="80" cy="1022.5" r="2" style="fill:#000" class="net_2,3,4,5"/>
  <line x1="80" x2="144" y1="1022.5" y2="1022.5" class="net_2,3,4,5"/>
  <line x1="40" x2="80" y1="648.5" y2="648.5" class="net_2,3,4,5"/>
  <line x1="80" x2="80" y1="648.5" y2="1110.5" class="net_2,3,4,5"/>
  <circle cx="80" cy="1110.5" r="2" style="fill:#000" class="net_2,3,4,5"/>
  <line x1="80" x2="144" y1="1110.5" y2="1110.5" class="net_2,3,4,5"/>
  <line x1="40" x2="80" y1="648.5" y2="648.5" class="net_2,3,4,5"/>
  <line x1="80" x2="80" y1="648.5" y2="1198.5" class="net_2,3,4,5"/>
  <circle cx="80" cy="1198.5" r="2" style="fill:#000" class="net_2,3,4,5"/>
  <line x1="80" x2="144" y1="1198.5" y2="1198.5" class="net_2,3,4,5"/>
  <line x1="40" x2="80" y1="648.5" y2="648.5" class="net_2,3,4,5"/>
  <line x1="80" x2="80" y1="648.5" y2="1374.5" class="net_2,3,4,5"/>
  <line x1="80" x2="144" y1="1374.5" y2="1374.5" class="net_2,3,4,5"/>
  <line x1="40" x2="80" y1="648.5" y2="648.5" class="net_2,3,4,5"/>
  <line x1="80" x2="80" y1="648.5" y2="1286.5" class="net_2,3,4,5"/>
  <circle cx="80" cy="1286.5" r="2" style="fill:#000" class="net_2,3,4,5"/>
  <line x1="80" x2="144" y1="1286.5" y2="1286.5" class="net_2,3,4,5"/>
  <line x1="40" x2="80" y1="648.5" y2="648.5" class="net_2,3,4,5"/>
  <line x1="80" x2="80" y1="648.5" y2="32.5" class="net_2,3,4,5"/>
  <line x1="80" x2="150" y1="32.5" y2="32.5" class="net_2,3,4,5"/>
  <line x1="40" x2="80" y1="648.5" y2="648.5" class="net_2,3,4,5"/>
  <line x1="80" x2="80" y1="648.5" y2="208.5" class="net_2,3,4,5"/>
  <circle cx="80" cy="208.5" r="2" style="fill:#000" class="net_2,3,4,5"/>
  <line x1="80" x2="150" y1="208.5" y2="208.5" class="net_2,3,4,5"/>
  <line x1="40" x2="80" y1="648.5" y2="648.5" class="net_2,3,4,5"/>
  <line x1="80" x2="80" y1="648.5" y2="296.5" class="net_2,3,4,5"/>
  <circle cx="80" cy="296.5" r="2" style="fill:#000" class="net_2,3,4,5"/>
  <line x1="80" x2="150" y1="296.5" y2="296.5" class="net_2,3,4,5"/>
  <line x1="40" x2="80" y1="648.5" y2="648.5" class="net_2,3,4,5"/>
  <line x1="80" x2="80" y1="648.5" y2="384.5" class="net_2,3,4,5"/>
  <circle cx="80" cy="384.5" r="2" style="fill:#000" class="net_2,3,4,5"/>
  <line x1="80" x2="150" y1="384.5" y2="384.5" class="net_2,3,4,5"/>
  <line x1="40" x2="80" y1="648.5" y2="648.5" class="net_2,3,4,5"/>
  <line x1="80" x2="80" y1="648.5" y2="472.5" class="net_2,3,4,5"/>
  <circle cx="80" cy="472.5" r="2" style="fill:#000" class="net_2,3,4,5"/>
  <line x1="80" x2="150" y1="472.5" y2="472.5" class="net_2,3,4,5"/>
  <line x1="40" x2="80" y1="648.5" y2="648.5" class="net_2,3,4,5"/>
  <line x1="80" x2="80" y1="648.5" y2="560.5" class="net_2,3,4,5"/>
  <circle cx="80" cy="560.5" r="2" style="fill:#000" class="net_2,3,4,5"/>
  <line x1="80" x2="150" y1="560.5" y2="560.5" class="net_2,3,4,5"/>
  <line x1="40" x2="150" y1="648.5" y2="648.5" class="net_2,3,4,5"/>
  <line x1="40" x2="80" y1="648.5" y2="648.5" class="net_2,3,4,5"/>
  <line x1="80" x2="80" y1="648.5" y2="758.5" class="net_2,3,4,5"/>
  <circle cx="80" cy="758.5" r="2" style="fill:#000" class="net_2,3,4,5"/>
  <line x1="80" x2="150" y1="758.5" y2="758.5" class="net_2,3,4,5"/>
  <line x1="40" x2="80" y1="648.5" y2="648.5" class="net_2,3,4,5"/>
  <line x1="80" x2="80" y1="648.5" y2="846.5" class="net_2,3,4,5"/>
  <circle cx="80" cy="846.5" r="2" style="fill:#000" class="net_2,3,4,5"/>
  <line x1="80" x2="150" y1="846.5" y2="846.5" class="net_2,3,4,5"/>
  <line x1="42" x2="150" y1="140.5" y2="140.5" class="net_22,23,24,25"/>
  <line x1="42" x2="144" y1="954.5" y2="954.5" class="net_26,27,28,29"/>
  <line x1="42" x2="144" y1="1042.5" y2="1042.5" class="net_30,31,32,33"/>
  <line x1="42" x2="144" y1="1130.5" y2="1130.5" class="net_34,35,36,37"/>
  <line x1="42" x2="144" y1="1218.5" y2="1218.5" class="net_38,39,40,41"/>
  <line x1="42" x2="144" y1="1394.5" y2="1394.5" class="net_42,43,44,45"/>
  <line x1="42" x2="144" y1="1306.5" y2="1306.5" class="net_46,47,48,49"/>
  <line x1="42" x2="150" y1="52.5" y2="52.5" class="net_50,51,52,53"/>
  <line x1="42" x2="150" y1="228.5" y2="228.5" class="net_54,55,56,57"/>
  <line x1="42" x2="150" y1="316.5" y2="316.5" class="net_58,59,60,61"/>
  <line x1="42" x2="150" y1="404.5" y2="404.5" class="net_62,63,64,65"/>
  <line x1="42" x2="150" y1="492.5" y2="492.5" class="net_66,67,68,69"/>
  <line x1="42" x2="150" y1="580.5" y2="580.5" class="net_70,71,72,73"/>
  <line x1="42" x2="70" y1="713.5" y2="713.5" class="net_74,75,76,77"/>
  <line x1="70" x2="70" y1="713.5" y2="668.5" class="net_74,75,76,77"/>
  <line x1="70" x2="150" y1="668.5" y2="668.5" class="net_74,75,76,77"/>
  <line x1="42" x2="150" y1="778.5" y2="778.5" class="net_78,79,80,81"/>
  <line x1="42" x2="150" y1="866.5" y2="866.5" class="net_82,83,84,85"/>
  <line x1="377" x2="412" y1="518.5" y2="518.5" class="net_6,7,8,9,10,11,12,13,14,15,16,17,18,19,20,21"/>
  <line x1="181" x2="371.5" y1="120.5" y2="120.5" class="net_6"/>
  <line x1="371.5" x2="371.5" y1="120.5" y2="508" class="net_6"/>
  <line x1="181" x2="371.5" y1="32.5" y2="32.5" class="net_7"/>
  <line x1="371.5" x2="371.5" y1="32.5" y2="528" class="net_7"/>
  <line x1="181" x2="344" y1="208.5" y2="208.5" class="net_8"/>
  <line x1="344" x2="344" y1="208.5" y2="548.5" class="net_8"/>
  <line x1="344" x2="371" y1="548.5" y2="548.5" class="net_8"/>
  <line x1="181" x2="334" y1="296.5" y2="296.5" class="net_9"/>
  <line x1="334" x2="334" y1="296.5" y2="568.5" class="net_9"/>
  <line x1="334" x2="371" y1="568.5" y2="568.5" class="net_9"/>
  <line x1="181" x2="324" y1="384.5" y2="384.5" class="net_10"/>
  <line x1="324" x2="324" y1="384.5" y2="588.5" class="net_10"/>
  <line x1="324" x2="371" y1="588.5" y2="588.5" class="net_10"/>
  <line x1="181" x2="314" y1="472.5" y2="472.5" class="net_11"/>
  <line x1="314" x2="314" y1="472.5" y2="608.5" class="net_11"/>
  <line x1="314" x2="371" y1="608.5" y2="608.5" class="net_11"/>
  <line x1="181" x2="304" y1="560.5" y2="560.5" class="net_12"/>
  <line x1="304" x2="304" y1="560.5" y2="628.5" class="net_12"/>
  <line x1="304" x2="371" y1="628.5" y2="628.5" class="net_12"/>
  <line x1="181" x2="371" y1="648.5" y2="648.5" class="net_13"/>
  <line x1="181" x2="304" y1="758.5" y2="758.5" class="net_14"/>
  <line x1="304" x2="304" y1="758.5" y2="668.5" class="net_14"/>
  <line x1="304" x2="371" y1="668.5" y2="668.5" class="net_14"/>
  <line x1="181" x2="314" y1="846.5" y2="846.5" class="net_15"/>
  <line x1="314" x2="314" y1="846.5" y2="688.5" class="net_15"/>
  <line x1="314" x2="371" y1="688.5" y2="688.5" class="net_15"/>
  <line x1="175" x2="324" y1="934.5" y2="934.5" class="net_16"/>
  <line x1="324" x2="324" y1="934.5" y2="708.5" class="net_16"/>
  <line x1="324" x2="371" y1="708.5" y2="708.5" class="net_16"/>
  <line x1="175" x2="334" y1="1022.5" y2="1022.5" class="net_17"/>
  <line x1="334" x2="334" y1="1022.5" y2="728.5" class="net_17"/>
  <line x1="334" x2="371" y1="728.5" y2="728.5" class="net_17"/>
  <line x1="175" x2="344" y1="1110.5" y2="1110.5" class="net_18"/>
  <line x1="344" x2="344" y1="1110.5" y2="748.5" class="net_18"/>
  <line x1="344" x2="371" y1="748.5" y2="748.5" class="net_18"/>
  <line x1="175" x2="354" y1="1198.5" y2="1198.5" class="net_19"/>
  <line x1="354" x2="354" y1="1198.5" y2="768.5" class="net_19"/>
  <line x1="354" x2="371" y1="768.5" y2="768.5" class="net_19"/>
  <line x1="175" x2="371.5" y1="1374.5" y2="1374.5" class="net_20"/>
  <line x1="371.5" x2="371.5" y1="1374.5" y2="789" class="net_20"/>
  <line x1="175" x2="371.5" y1="1286.5" y2="1286.5" class="net_21"/>
  <line x1="371.5" x2="371.5" y1="1286.5" y2="809" class="net_21"/>
</svg>
