<svg xmlns="http://www.w3.org/2000/svg" xmlns:xlink="http://www.w3.org/1999/xlink" xmlns:s="https://github.com/nturley/netlistsvg" width="186" height="184">
  <style>svg {
    stroke:#000;
    fill:none;
  }
  text {
    fill:#000;
    stroke:none;
    font-size:10px;
    font-weight: bold;
    font-family: "Courier New", monospace;
  }
  .nodelabel {
    text-anchor: middle;
  }
  .inputPortLabel {
    text-anchor: end;
  }
  .splitjoinBody {
    fill:#000;
  }</style>
  <g s:type="mux" transform="translate(89,22)" s:width="20" s:height="40" id="cell_$auto$simplemap.cc:298:simplemap_mux$84">
    <s:alias val="$pmux"/>
    <s:alias val="$mux"/>
    <s:alias val="$_MUX_"/>
    <path d="M0,0 L20,10 L20,30 L0,40 Z" class="cell_$auto$simplemap.cc:298:simplemap_mux$84"/>
    <g s:x="0" s:y="10" s:pid="A"/>
    <g s:x="0" s:y="30" s:pid="B"/>
    <g s:x="10" s:y="35" s:pid="S"/>
    <g s:x="20" s:y="20" s:pid="Y"/>
  </g>
  <g s:type="inputExt" transform="translate(12,152)" s:width="30" s:height="20" id="cell_i_sel">
    <text x="15" y="-4" class="nodelabel cell_i_sel" s:attribute="ref">i_sel</text>
    <s:alias val="$_inputExt_"/>
    <path d="M0,0 L0,20 L15,20 L30,10 L15,0 Z" class="cell_i_sel"/>
    <g s:x="28" s:y="10" s:pid="Y"/>
  </g>
  <g s:type="inputExt" transform="translate(12,22)" s:width="30" s:height="20" id="cell_i_data0">
    <text x="15" y="-4" class="nodelabel cell_i_data0" s:attribute="ref">i_data0</text>
    <s:alias val="$_inputExt_"/>
    <path d="M0,0 L0,20 L15,20 L30,10 L15,0 Z" class="cell_i_data0"/>
    <g s:x="28" s:y="10" s:pid="Y"/>
  </g>
  <g s:type="inputExt" transform="translate(12,87)" s:width="30" s:height="20" id="cell_i_data1">
    <text x="15" y="-4" class="nodelabel cell_i_data1" s:attribute="ref">i_data1</text>
    <s:alias val="$_inputExt_"/>
    <path d="M0,0 L0,20 L15,20 L30,10 L15,0 Z" class="cell_i_data1"/>
    <g s:x="28" s:y="10" s:pid="Y"/>
  </g>
  <g s:type="outputExt" transform="translate(144,32)" s:width="30" s:height="20" id="cell_o_q">
    <text x="15" y="-4" class="nodelabel cell_o_q" s:attribute="ref">o_q</text>
    <s:alias val="$_outputExt_"/>
    <path d="M30,0 L30,20 L15,20 L0,10 L15,0 Z" class="cell_o_q"/>
    <g s:x="0" s:y="10" s:pid="A"/>
  </g>
  <line x1="40" x2="89" y1="32" y2="32" class="net_3"/>
  <line x1="40" x2="64" y1="97" y2="97" class="net_4"/>
  <line x1="64" x2="64" y1="97" y2="52" class="net_4"/>
  <line x1="64" x2="89" y1="52" y2="52" class="net_4"/>
  <line x1="40" x2="99" y1="162" y2="162" class="net_2"/>
  <line x1="99" x2="99" y1="162" y2="57" class="net_2"/>
  <line x1="109" x2="144" y1="42" y2="42" class="net_5"/>
</svg>
