<svg xmlns="http://www.w3.org/2000/svg" xmlns:xlink="http://www.w3.org/1999/xlink" xmlns:s="https://github.com/nturley/netlistsvg" width="608" height="510">
  <style>svg {
    stroke:#000;
    fill:none;
  }
  text {
    fill:#000;
    stroke:none;
    font-size:10px;
    font-weight: bold;
    font-family: "Courier New", monospace;
  }
  .nodelabel {
    text-anchor: middle;
  }
  .inputPortLabel {
    text-anchor: end;
  }
  .splitjoinBody {
    fill:#000;
  }</style>
  <g s:type="generic" transform="translate(373.5,217.5)" s:width="30" s:height="40" id="cell_u_alu_decoder">
    <text x="15" y="-4" class="nodelabel cell_u_alu_decoder" s:attribute="ref">control_unit_alu_decoder</text>
    <rect width="30" height="20" s:generic="body" class="cell_u_alu_decoder"/>
    <g transform="translate(0,10)" s:x="0" s:y="10" s:pid="in0" id="port_u_alu_decoder~i_inst_onehot">
      <text x="-3" y="-4" class="inputPortLabel cell_u_alu_decoder">i_inst_onehot</text>
    </g>
    <g transform="translate(30,10)" s:x="30" s:y="10" s:pid="out0" id="port_u_alu_decoder~o_alu_mode">
      <text x="5" y="-4" style="fill:#000; stroke:none" class="cell_u_alu_decoder">o_alu_mode</text>
    </g>
  </g>
  <g s:type="generic" transform="translate(373.2,22)" s:width="30" s:height="40" id="cell_u_branch_decoder">
    <text x="15" y="-4" class="nodelabel cell_u_branch_decoder" s:attribute="ref">control_unit_branch_decoder</text>
    <rect width="30" height="80" s:generic="body" class="cell_u_branch_decoder"/>
    <g transform="translate(0,10)" s:x="0" s:y="10" s:pid="in0" id="port_u_branch_decoder~i_flag_n">
      <text x="-3" y="-4" class="inputPortLabel cell_u_branch_decoder">i_flag_n</text>
    </g>
    <g transform="translate(0,30)" s:x="0" s:y="10" s:pid="in0" id="port_u_branch_decoder~i_flag_v">
      <text x="-3" y="-4" class="inputPortLabel cell_u_branch_decoder">i_flag_v</text>
    </g>
    <g transform="translate(0,50)" s:x="0" s:y="10" s:pid="in0" id="port_u_branch_decoder~i_flag_z">
      <text x="-3" y="-4" class="inputPortLabel cell_u_branch_decoder">i_flag_z</text>
    </g>
    <g transform="translate(0,70)" s:x="0" s:y="10" s:pid="in0" id="port_u_branch_decoder~i_inst_onehot">
      <text x="-3" y="-4" class="inputPortLabel cell_u_branch_decoder">i_inst_onehot</text>
    </g>
    <g transform="translate(30,10)" s:x="30" s:y="10" s:pid="out0" id="port_u_branch_decoder~o_pc_sel">
      <text x="5" y="-4" style="fill:#000; stroke:none" class="cell_u_branch_decoder">o_pc_sel</text>
    </g>
  </g>
  <g s:type="generic" transform="translate(373,327.5)" s:width="30" s:height="40" id="cell_u_data_decoder">
    <text x="15" y="-4" class="nodelabel cell_u_data_decoder" s:attribute="ref">control_unit_data_decoder</text>
    <rect width="30" height="80" s:generic="body" class="cell_u_data_decoder"/>
    <g transform="translate(0,10)" s:x="0" s:y="10" s:pid="in0" id="port_u_data_decoder~i_inst_onehot">
      <text x="-3" y="-4" class="inputPortLabel cell_u_data_decoder">i_inst_onehot</text>
    </g>
    <g transform="translate(30,10)" s:x="30" s:y="10" s:pid="out0" id="port_u_data_decoder~o_alu_src_sel">
      <text x="5" y="-4" style="fill:#000; stroke:none" class="cell_u_data_decoder">o_alu_src_sel</text>
    </g>
    <g transform="translate(30,30)" s:x="30" s:y="10" s:pid="out0" id="port_u_data_decoder~o_dmem_wen">
      <text x="5" y="-4" style="fill:#000; stroke:none" class="cell_u_data_decoder">o_dmem_wen</text>
    </g>
    <g transform="translate(30,50)" s:x="30" s:y="10" s:pid="out0" id="port_u_data_decoder~o_reg_src_sel">
      <text x="5" y="-4" style="fill:#000; stroke:none" class="cell_u_data_decoder">o_reg_src_sel</text>
    </g>
    <g transform="translate(30,70)" s:x="30" s:y="10" s:pid="out0" id="port_u_data_decoder~o_reg_wen">
      <text x="5" y="-4" style="fill:#000; stroke:none" class="cell_u_data_decoder">o_reg_wen</text>
    </g>
  </g>
  <g s:type="generic" transform="translate(144,217.5)" s:width="30" s:height="40" id="cell_u_inst_decoder">
    <text x="15" y="-4" class="nodelabel cell_u_inst_decoder" s:attribute="ref">control_unit_instruction_decoder</text>
    <rect width="30" height="20" s:generic="body" class="cell_u_inst_decoder"/>
    <g transform="translate(0,10)" s:x="0" s:y="10" s:pid="in0" id="port_u_inst_decoder~i_opcode">
      <text x="-3" y="-4" class="inputPortLabel cell_u_inst_decoder">i_opcode</text>
    </g>
    <g transform="translate(30,10)" s:x="30" s:y="10" s:pid="out0" id="port_u_inst_decoder~o_inst_onehot">
      <text x="5" y="-4" style="fill:#000; stroke:none" class="cell_u_inst_decoder">o_inst_onehot</text>
    </g>
  </g>
  <g s:type="inputExt" transform="translate(12,218)" s:width="30" s:height="20" id="cell_i_opcode">
    <text x="15" y="-4" class="nodelabel cell_i_opcode" s:attribute="ref">i_opcode</text>
    <s:alias val="$_inputExt_"/>
    <path d="M0,0 L0,20 L15,20 L30,10 L15,0 Z" class="cell_i_opcode"/>
    <g s:x="28" s:y="10" s:pid="Y"/>
  </g>
  <g s:type="inputExt" transform="translate(144,152.5)" s:width="30" s:height="20" id="cell_i_flag_z">
    <text x="15" y="-4" class="nodelabel cell_i_flag_z" s:attribute="ref">i_flag_z</text>
    <s:alias val="$_inputExt_"/>
    <path d="M0,0 L0,20 L15,20 L30,10 L15,0 Z" class="cell_i_flag_z"/>
    <g s:x="28" s:y="10" s:pid="Y"/>
  </g>
  <g s:type="inputExt" transform="translate(144,22.5)" s:width="30" s:height="20" id="cell_i_flag_n">
    <text x="15" y="-4" class="nodelabel cell_i_flag_n" s:attribute="ref">i_flag_n</text>
    <s:alias val="$_inputExt_"/>
    <path d="M0,0 L0,20 L15,20 L30,10 L15,0 Z" class="cell_i_flag_n"/>
    <g s:x="28" s:y="10" s:pid="Y"/>
  </g>
  <g s:type="inputExt" transform="translate(144,87.5)" s:width="30" s:height="20" id="cell_i_flag_v">
    <text x="15" y="-4" class="nodelabel cell_i_flag_v" s:attribute="ref">i_flag_v</text>
    <s:alias val="$_inputExt_"/>
    <path d="M0,0 L0,20 L15,20 L30,10 L15,0 Z" class="cell_i_flag_v"/>
    <g s:x="28" s:y="10" s:pid="Y"/>
  </g>
  <g s:type="outputExt" transform="translate(518,218)" s:width="30" s:height="20" id="cell_o_alu_mode">
    <text x="15" y="-4" class="nodelabel cell_o_alu_mode" s:attribute="ref">o_alu_mode</text>
    <s:alias val="$_outputExt_"/>
    <path d="M30,0 L30,20 L15,20 L0,10 L15,0 Z" class="cell_o_alu_mode"/>
    <g s:x="0" s:y="10" s:pid="A"/>
  </g>
  <g s:type="outputExt" transform="translate(518,478)" s:width="30" s:height="20" id="cell_o_reg_wen">
    <text x="15" y="-4" class="nodelabel cell_o_reg_wen" s:attribute="ref">o_reg_wen</text>
    <s:alias val="$_outputExt_"/>
    <path d="M30,0 L30,20 L15,20 L0,10 L15,0 Z" class="cell_o_reg_wen"/>
    <g s:x="0" s:y="10" s:pid="A"/>
  </g>
  <g s:type="outputExt" transform="translate(518,348)" s:width="30" s:height="20" id="cell_o_dmem_wen">
    <text x="15" y="-4" class="nodelabel cell_o_dmem_wen" s:attribute="ref">o_dmem_wen</text>
    <s:alias val="$_outputExt_"/>
    <path d="M30,0 L30,20 L15,20 L0,10 L15,0 Z" class="cell_o_dmem_wen"/>
    <g s:x="0" s:y="10" s:pid="A"/>
  </g>
  <g s:type="outputExt" transform="translate(518,413)" s:width="30" s:height="20" id="cell_o_reg_src_sel">
    <text x="15" y="-4" class="nodelabel cell_o_reg_src_sel" s:attribute="ref">o_reg_src_sel</text>
    <s:alias val="$_outputExt_"/>
    <path d="M30,0 L30,20 L15,20 L0,10 L15,0 Z" class="cell_o_reg_src_sel"/>
    <g s:x="0" s:y="10" s:pid="A"/>
  </g>
  <g s:type="outputExt" transform="translate(518,283)" s:width="30" s:height="20" id="cell_o_alu_src_sel">
    <text x="15" y="-4" class="nodelabel cell_o_alu_src_sel" s:attribute="ref">o_alu_src_sel</text>
    <s:alias val="$_outputExt_"/>
    <path d="M30,0 L30,20 L15,20 L0,10 L15,0 Z" class="cell_o_alu_src_sel"/>
    <g s:x="0" s:y="10" s:pid="A"/>
  </g>
  <g s:type="outputExt" transform="translate(518,22.5)" s:width="30" s:height="20" id="cell_o_pc_sel">
    <text x="15" y="-4" class="nodelabel cell_o_pc_sel" s:attribute="ref">o_pc_sel</text>
    <s:alias val="$_outputExt_"/>
    <path d="M30,0 L30,20 L15,20 L0,10 L15,0 Z" class="cell_o_pc_sel"/>
    <g s:x="0" s:y="10" s:pid="A"/>
  </g>
  <line x1="175" x2="373.5" y1="228" y2="228" class="net_20,21,22,23,24,25,26,27,28,29,30,31,32,33,34,35"/>
  <line x1="175" x2="284" y1="228" y2="228" class="net_20,21,22,23,24,25,26,27,28,29,30,31,32,33,34,35"/>
  <line x1="284" x2="284" y1="228" y2="92.5" class="net_20,21,22,23,24,25,26,27,28,29,30,31,32,33,34,35"/>
  <circle cx="284" cy="228" r="2" style="fill:#000" class="net_20,21,22,23,24,25,26,27,28,29,30,31,32,33,34,35"/>
  <line x1="284" x2="373.2" y1="92.5" y2="92.5" class="net_20,21,22,23,24,25,26,27,28,29,30,31,32,33,34,35"/>
  <line x1="175" x2="284" y1="228" y2="228" class="net_20,21,22,23,24,25,26,27,28,29,30,31,32,33,34,35"/>
  <line x1="284" x2="284" y1="228" y2="338" class="net_20,21,22,23,24,25,26,27,28,29,30,31,32,33,34,35"/>
  <line x1="284" x2="373" y1="338" y2="338" class="net_20,21,22,23,24,25,26,27,28,29,30,31,32,33,34,35"/>
  <line x1="172" x2="373.2" y1="32.5" y2="32.5" class="net_7"/>
  <line x1="172" x2="264" y1="97.5" y2="97.5" class="net_8"/>
  <line x1="264" x2="264" y1="97.5" y2="52.5" class="net_8"/>
  <line x1="264" x2="373.2" y1="52.5" y2="52.5" class="net_8"/>
  <line x1="172" x2="274" y1="162.5" y2="162.5" class="net_6"/>
  <line x1="274" x2="274" y1="162.5" y2="72.5" class="net_6"/>
  <line x1="274" x2="373.2" y1="72.5" y2="72.5" class="net_6"/>
  <line x1="40" x2="144" y1="228" y2="228" class="net_2,3,4,5"/>
  <line x1="404.5" x2="518" y1="228" y2="228" class="net_9,10,11,12"/>
  <line x1="404" x2="493" y1="398" y2="398" class="net_13"/>
  <line x1="493" x2="493" y1="398" y2="488" class="net_13"/>
  <line x1="493" x2="518" y1="488" y2="488" class="net_13"/>
  <line x1="404" x2="518" y1="358" y2="358" class="net_14"/>
  <line x1="404" x2="503" y1="378" y2="378" class="net_15,16"/>
  <line x1="503" x2="503" y1="378" y2="423" class="net_15,16"/>
  <line x1="503" x2="518" y1="423" y2="423" class="net_15,16"/>
  <line x1="404" x2="493" y1="338" y2="338" class="net_17"/>
  <line x1="493" x2="493" y1="338" y2="293" class="net_17"/>
  <line x1="493" x2="518" y1="293" y2="293" class="net_17"/>
  <line x1="404.2" x2="518" y1="32.5" y2="32.5" class="net_18,19"/>
</svg>
