<svg xmlns="http://www.w3.org/2000/svg" xmlns:xlink="http://www.w3.org/1999/xlink" xmlns:s="https://github.com/nturley/netlistsvg" width="949" height="552.5">
  <style>svg {
    stroke:#000;
    fill:none;
  }
  text {
    fill:#000;
    stroke:none;
    font-size:10px;
    font-weight: bold;
    font-family: "Courier New", monospace;
  }
  .nodelabel {
    text-anchor: middle;
  }
  .inputPortLabel {
    text-anchor: end;
  }
  .splitjoinBody {
    fill:#000;
  }</style>
  <g s:type="reduce_xor" transform="translate(185,12)" s:width="33" s:height="25" id="cell_$auto$simplemap.cc:106:simplemap_bitop$375">
    <s:alias val="$xor"/>
    <s:alias val="$reduce_xor"/>
    <s:alias val="$_XOR_"/>
    <path d="M3,0 A30 25 0 0 1 3,25 A30 25 0 0 0 33,12.5 A30 25 0 0 0 3,0" class="cell_$auto$simplemap.cc:106:simplemap_bitop$375"/>
    <path d="M0,0 A30 25 0 0 1 0,25" class="cell_$auto$simplemap.cc:106:simplemap_bitop$375"/>
    <g s:x="3" s:y="5" s:pid="A"/>
    <g s:x="3" s:y="20" s:pid="B"/>
    <g s:x="33" s:y="12.5" s:pid="Y"/>
  </g>
  <g s:type="reduce_xor" transform="translate(185,77)" s:width="33" s:height="25" id="cell_$auto$simplemap.cc:106:simplemap_bitop$376">
    <s:alias val="$xor"/>
    <s:alias val="$reduce_xor"/>
    <s:alias val="$_XOR_"/>
    <path d="M3,0 A30 25 0 0 1 3,25 A30 25 0 0 0 33,12.5 A30 25 0 0 0 3,0" class="cell_$auto$simplemap.cc:106:simplemap_bitop$376"/>
    <path d="M0,0 A30 25 0 0 1 0,25" class="cell_$auto$simplemap.cc:106:simplemap_bitop$376"/>
    <g s:x="3" s:y="5" s:pid="A"/>
    <g s:x="3" s:y="20" s:pid="B"/>
    <g s:x="33" s:y="12.5" s:pid="Y"/>
  </g>
  <g s:type="reduce_xor" transform="translate(185,187.5)" s:width="33" s:height="25" id="cell_$auto$simplemap.cc:106:simplemap_bitop$377">
    <s:alias val="$xor"/>
    <s:alias val="$reduce_xor"/>
    <s:alias val="$_XOR_"/>
    <path d="M3,0 A30 25 0 0 1 3,25 A30 25 0 0 0 33,12.5 A30 25 0 0 0 3,0" class="cell_$auto$simplemap.cc:106:simplemap_bitop$377"/>
    <path d="M0,0 A30 25 0 0 1 0,25" class="cell_$auto$simplemap.cc:106:simplemap_bitop$377"/>
    <g s:x="3" s:y="5" s:pid="A"/>
    <g s:x="3" s:y="20" s:pid="B"/>
    <g s:x="33" s:y="12.5" s:pid="Y"/>
  </g>
  <g s:type="reduce_xor" transform="translate(185,247.5)" s:width="33" s:height="25" id="cell_$auto$simplemap.cc:106:simplemap_bitop$378">
    <s:alias val="$xor"/>
    <s:alias val="$reduce_xor"/>
    <s:alias val="$_XOR_"/>
    <path d="M3,0 A30 25 0 0 1 3,25 A30 25 0 0 0 33,12.5 A30 25 0 0 0 3,0" class="cell_$auto$simplemap.cc:106:simplemap_bitop$378"/>
    <path d="M0,0 A30 25 0 0 1 0,25" class="cell_$auto$simplemap.cc:106:simplemap_bitop$378"/>
    <g s:x="3" s:y="5" s:pid="A"/>
    <g s:x="3" s:y="20" s:pid="B"/>
    <g s:x="33" s:y="12.5" s:pid="Y"/>
  </g>
  <g s:type="or" transform="translate(253,19.5)" s:width="30" s:height="25" id="cell_$auto$simplemap.cc:157:simplemap_reduce$382">
    <s:alias val="$or"/>
    <s:alias val="$logic_or"/>
    <s:alias val="$_OR_"/>
    <path d="M0,25 L0,25 L15,25 A15 12.5 0 0 0 15,0 L0,0" class="cell_$auto$simplemap.cc:157:simplemap_reduce$382"/>
    <path d="M0,0 A30 25 0 0 1 0,25" class="cell_$auto$simplemap.cc:157:simplemap_reduce$382"/>
    <g s:x="3" s:y="5" s:pid="A"/>
    <g s:x="3" s:y="20" s:pid="B"/>
    <g s:x="30" s:y="12.5" s:pid="Y"/>
  </g>
  <g s:type="or" transform="translate(253,195)" s:width="30" s:height="25" id="cell_$auto$simplemap.cc:157:simplemap_reduce$383">
    <s:alias val="$or"/>
    <s:alias val="$logic_or"/>
    <s:alias val="$_OR_"/>
    <path d="M0,25 L0,25 L15,25 A15 12.5 0 0 0 15,0 L0,0" class="cell_$auto$simplemap.cc:157:simplemap_reduce$383"/>
    <path d="M0,0 A30 25 0 0 1 0,25" class="cell_$auto$simplemap.cc:157:simplemap_reduce$383"/>
    <g s:x="3" s:y="5" s:pid="A"/>
    <g s:x="3" s:y="20" s:pid="B"/>
    <g s:x="30" s:y="12.5" s:pid="Y"/>
  </g>
  <g s:type="or" transform="translate(318,27)" s:width="30" s:height="25" id="cell_$auto$simplemap.cc:157:simplemap_reduce$385">
    <s:alias val="$or"/>
    <s:alias val="$logic_or"/>
    <s:alias val="$_OR_"/>
    <path d="M0,25 L0,25 L15,25 A15 12.5 0 0 0 15,0 L0,0" class="cell_$auto$simplemap.cc:157:simplemap_reduce$385"/>
    <path d="M0,0 A30 25 0 0 1 0,25" class="cell_$auto$simplemap.cc:157:simplemap_reduce$385"/>
    <g s:x="3" s:y="5" s:pid="A"/>
    <g s:x="3" s:y="20" s:pid="B"/>
    <g s:x="30" s:y="12.5" s:pid="Y"/>
  </g>
  <g s:type="not" transform="translate(398,29.5)" s:width="30" s:height="20" id="cell_$auto$simplemap.cc:227:simplemap_lognot$387">
    <s:alias val="$_NOT_"/>
    <s:alias val="$not"/>
    <s:alias val="$logic_not"/>
    <path d="M0,0 L0,20 L20,10 Z" class="cell_$auto$simplemap.cc:227:simplemap_lognot$387"/>
    <circle cx="23" cy="10" r="3" class="cell_$auto$simplemap.cc:227:simplemap_lognot$387"/>
    <g s:x="0" s:y="10" s:pid="A"/>
    <g s:x="25" s:y="10" s:pid="Y"/>
  </g>
  <g s:type="mux" transform="translate(396.3333333333333,293.5)" s:width="20" s:height="40" id="cell_$auto$simplemap.cc:298:simplemap_mux$388">
    <s:alias val="$pmux"/>
    <s:alias val="$mux"/>
    <s:alias val="$_MUX_"/>
    <path d="M0,0 L20,10 L20,30 L0,40 Z" class="cell_$auto$simplemap.cc:298:simplemap_mux$388"/>
    <g s:x="0" s:y="10" s:pid="A"/>
    <g s:x="0" s:y="30" s:pid="B"/>
    <g s:x="10" s:y="35" s:pid="S"/>
    <g s:x="20" s:y="20" s:pid="Y"/>
  </g>
  <g s:type="mux" transform="translate(396.3333333333333,418.5)" s:width="20" s:height="40" id="cell_$auto$simplemap.cc:298:simplemap_mux$389">
    <s:alias val="$pmux"/>
    <s:alias val="$mux"/>
    <s:alias val="$_MUX_"/>
    <path d="M0,0 L20,10 L20,30 L0,40 Z" class="cell_$auto$simplemap.cc:298:simplemap_mux$389"/>
    <g s:x="0" s:y="10" s:pid="A"/>
    <g s:x="0" s:y="30" s:pid="B"/>
    <g s:x="10" s:y="35" s:pid="S"/>
    <g s:x="20" s:y="20" s:pid="Y"/>
  </g>
  <g s:type="mux" transform="translate(396.3333333333333,478.5)" s:width="20" s:height="40" id="cell_$auto$simplemap.cc:298:simplemap_mux$390">
    <s:alias val="$pmux"/>
    <s:alias val="$mux"/>
    <s:alias val="$_MUX_"/>
    <path d="M0,0 L20,10 L20,30 L0,40 Z" class="cell_$auto$simplemap.cc:298:simplemap_mux$390"/>
    <g s:x="0" s:y="10" s:pid="A"/>
    <g s:x="0" s:y="30" s:pid="B"/>
    <g s:x="10" s:y="35" s:pid="S"/>
    <g s:x="20" s:y="20" s:pid="Y"/>
  </g>
  <g s:type="generic" transform="translate(524,94)" s:width="30" s:height="40" id="cell_u_adder">
    <text x="15" y="-4" class="nodelabel cell_u_adder" s:attribute="ref">alu_adder_16bit</text>
    <rect width="30" height="60" s:generic="body" class="cell_u_adder"/>
    <g transform="translate(0,10)" s:x="0" s:y="10" s:pid="in0" id="port_u_adder~i_a">
      <text x="-3" y="-4" class="inputPortLabel cell_u_adder">i_a</text>
    </g>
    <g transform="translate(0,30)" s:x="0" s:y="10" s:pid="in0" id="port_u_adder~i_b">
      <text x="-3" y="-4" class="inputPortLabel cell_u_adder">i_b</text>
    </g>
    <g transform="translate(0,50)" s:x="0" s:y="10" s:pid="in0" id="port_u_adder~i_sub">
      <text x="-3" y="-4" class="inputPortLabel cell_u_adder">i_sub</text>
    </g>
    <g transform="translate(30,10)" s:x="30" s:y="10" s:pid="out0" id="port_u_adder~o_sum">
      <text x="5" y="-4" style="fill:#000; stroke:none" class="cell_u_adder">o_sum</text>
    </g>
    <g transform="translate(30,30)" s:x="30" s:y="10" s:pid="out0" id="port_u_adder~o_v">
      <text x="5" y="-4" style="fill:#000; stroke:none" class="cell_u_adder">o_v</text>
    </g>
  </g>
  <g s:type="generic" transform="translate(804,227)" s:width="30" s:height="40" id="cell_u_flags">
    <text x="15" y="-4" class="nodelabel cell_u_flags" s:attribute="ref">alu_flag_logic</text>
    <rect width="30" height="60" s:generic="body" class="cell_u_flags"/>
    <g transform="translate(0,10)" s:x="0" s:y="10" s:pid="in0" id="port_u_flags~i_adder_v">
      <text x="-3" y="-4" class="inputPortLabel cell_u_flags">i_adder_v</text>
    </g>
    <g transform="translate(0,30)" s:x="0" s:y="10" s:pid="in0" id="port_u_flags~i_alu_op">
      <text x="-3" y="-4" class="inputPortLabel cell_u_flags">i_alu_op</text>
    </g>
    <g transform="translate(0,50)" s:x="0" s:y="10" s:pid="in0" id="port_u_flags~i_result">
      <text x="-3" y="-4" class="inputPortLabel cell_u_flags">i_result</text>
    </g>
    <g transform="translate(30,10)" s:x="30" s:y="10" s:pid="out0" id="port_u_flags~o_n">
      <text x="5" y="-4" style="fill:#000; stroke:none" class="cell_u_flags">o_n</text>
    </g>
    <g transform="translate(30,30)" s:x="30" s:y="10" s:pid="out0" id="port_u_flags~o_v">
      <text x="5" y="-4" style="fill:#000; stroke:none" class="cell_u_flags">o_v</text>
    </g>
    <g transform="translate(30,50)" s:x="30" s:y="10" s:pid="out0" id="port_u_flags~o_z">
      <text x="5" y="-4" style="fill:#000; stroke:none" class="cell_u_flags">o_z</text>
    </g>
  </g>
  <g s:type="generic" transform="translate(524,202)" s:width="30" s:height="40" id="cell_u_logical">
    <text x="15" y="-4" class="nodelabel cell_u_logical" s:attribute="ref">alu_logical_16bit</text>
    <rect width="30" height="60" s:generic="body" class="cell_u_logical"/>
    <g transform="translate(0,10)" s:x="0" s:y="10" s:pid="in0" id="port_u_logical~i_a">
      <text x="-3" y="-4" class="inputPortLabel cell_u_logical">i_a</text>
    </g>
    <g transform="translate(0,30)" s:x="0" s:y="10" s:pid="in0" id="port_u_logical~i_b">
      <text x="-3" y="-4" class="inputPortLabel cell_u_logical">i_b</text>
    </g>
    <g transform="translate(0,50)" s:x="0" s:y="10" s:pid="in0" id="port_u_logical~i_op">
      <text x="-3" y="-4" class="inputPortLabel cell_u_logical">i_op</text>
    </g>
    <g transform="translate(30,10)" s:x="30" s:y="10" s:pid="out0" id="port_u_logical~o_res">
      <text x="5" y="-4" style="fill:#000; stroke:none" class="cell_u_logical">o_res</text>
    </g>
  </g>
  <g s:type="generic" transform="translate(652,162)" s:width="30" s:height="40" id="cell_u_mux">
    <text x="15" y="-4" class="nodelabel cell_u_mux" s:attribute="ref">alu_mux_8to1</text>
    <rect width="30" height="180" s:generic="body" class="cell_u_mux"/>
    <g transform="translate(0,10)" s:x="0" s:y="10" s:pid="in0" id="port_u_mux~i_in0">
      <text x="-3" y="-4" class="inputPortLabel cell_u_mux">i_in0</text>
    </g>
    <g transform="translate(0,30)" s:x="0" s:y="10" s:pid="in0" id="port_u_mux~i_in1">
      <text x="-3" y="-4" class="inputPortLabel cell_u_mux">i_in1</text>
    </g>
    <g transform="translate(0,50)" s:x="0" s:y="10" s:pid="in0" id="port_u_mux~i_in2">
      <text x="-3" y="-4" class="inputPortLabel cell_u_mux">i_in2</text>
    </g>
    <g transform="translate(0,70)" s:x="0" s:y="10" s:pid="in0" id="port_u_mux~i_in3">
      <text x="-3" y="-4" class="inputPortLabel cell_u_mux">i_in3</text>
    </g>
    <g transform="translate(0,90)" s:x="0" s:y="10" s:pid="in0" id="port_u_mux~i_in4">
      <text x="-3" y="-4" class="inputPortLabel cell_u_mux">i_in4</text>
    </g>
    <g transform="translate(0,110)" s:x="0" s:y="10" s:pid="in0" id="port_u_mux~i_in5">
      <text x="-3" y="-4" class="inputPortLabel cell_u_mux">i_in5</text>
    </g>
    <g transform="translate(0,130)" s:x="0" s:y="10" s:pid="in0" id="port_u_mux~i_in6">
      <text x="-3" y="-4" class="inputPortLabel cell_u_mux">i_in6</text>
    </g>
    <g transform="translate(0,150)" s:x="0" s:y="10" s:pid="in0" id="port_u_mux~i_in7">
      <text x="-3" y="-4" class="inputPortLabel cell_u_mux">i_in7</text>
    </g>
    <g transform="translate(0,170)" s:x="0" s:y="10" s:pid="in0" id="port_u_mux~i_sel">
      <text x="-3" y="-4" class="inputPortLabel cell_u_mux">i_sel</text>
    </g>
    <g transform="translate(30,10)" s:x="30" s:y="10" s:pid="out0" id="port_u_mux~o_out">
      <text x="5" y="-4" style="fill:#000; stroke:none" class="cell_u_mux">o_out</text>
    </g>
  </g>
  <g s:type="generic" transform="translate(524,310)" s:width="30" s:height="40" id="cell_u_shifter">
    <text x="15" y="-4" class="nodelabel cell_u_shifter" s:attribute="ref">alu_shifter_16bit</text>
    <rect width="30" height="60" s:generic="body" class="cell_u_shifter"/>
    <g transform="translate(0,10)" s:x="0" s:y="10" s:pid="in0" id="port_u_shifter~i_a">
      <text x="-3" y="-4" class="inputPortLabel cell_u_shifter">i_a</text>
    </g>
    <g transform="translate(0,30)" s:x="0" s:y="10" s:pid="in0" id="port_u_shifter~i_b">
      <text x="-3" y="-4" class="inputPortLabel cell_u_shifter">i_b</text>
    </g>
    <g transform="translate(0,50)" s:x="0" s:y="10" s:pid="in0" id="port_u_shifter~i_op">
      <text x="-3" y="-4" class="inputPortLabel cell_u_shifter">i_op</text>
    </g>
    <g transform="translate(30,10)" s:x="30" s:y="10" s:pid="out0" id="port_u_shifter~o_res">
      <text x="5" y="-4" style="fill:#000; stroke:none" class="cell_u_shifter">o_res</text>
    </g>
  </g>
  <g s:type="inputExt" transform="translate(383,94.5)" s:width="30" s:height="20" id="cell_i_rs1_data">
    <text x="15" y="-4" class="nodelabel cell_i_rs1_data" s:attribute="ref">i_rs1_data</text>
    <s:alias val="$_inputExt_"/>
    <path d="M0,0 L0,20 L15,20 L30,10 L15,0 Z" class="cell_i_rs1_data"/>
    <g s:x="28" s:y="10" s:pid="Y"/>
  </g>
  <g s:type="inputExt" transform="translate(383,222.5)" s:width="30" s:height="20" id="cell_i_rs2_data">
    <text x="15" y="-4" class="nodelabel cell_i_rs2_data" s:attribute="ref">i_rs2_data</text>
    <s:alias val="$_inputExt_"/>
    <path d="M0,0 L0,20 L15,20 L30,10 L15,0 Z" class="cell_i_rs2_data"/>
    <g s:x="28" s:y="10" s:pid="Y"/>
  </g>
  <g s:type="inputExt" transform="translate(12,152.5)" s:width="30" s:height="20" id="cell_i_alu_op">
    <text x="15" y="-4" class="nodelabel cell_i_alu_op" s:attribute="ref">i_alu_op</text>
    <s:alias val="$_inputExt_"/>
    <path d="M0,0 L0,20 L15,20 L30,10 L15,0 Z" class="cell_i_alu_op"/>
    <g s:x="28" s:y="10" s:pid="Y"/>
  </g>
  <g s:type="outputExt" transform="translate(889,162.5)" s:width="30" s:height="20" id="cell_o_result">
    <text x="15" y="-4" class="nodelabel cell_o_result" s:attribute="ref">o_result</text>
    <s:alias val="$_outputExt_"/>
    <path d="M30,0 L30,20 L15,20 L0,10 L15,0 Z" class="cell_o_result"/>
    <g s:x="0" s:y="10" s:pid="A"/>
  </g>
  <g s:type="outputExt" transform="translate(889,357.5)" s:width="30" s:height="20" id="cell_o_flag_z">
    <text x="15" y="-4" class="nodelabel cell_o_flag_z" s:attribute="ref">o_flag_z</text>
    <s:alias val="$_outputExt_"/>
    <path d="M30,0 L30,20 L15,20 L0,10 L15,0 Z" class="cell_o_flag_z"/>
    <g s:x="0" s:y="10" s:pid="A"/>
  </g>
  <g s:type="outputExt" transform="translate(889,227.5)" s:width="30" s:height="20" id="cell_o_flag_n">
    <text x="15" y="-4" class="nodelabel cell_o_flag_n" s:attribute="ref">o_flag_n</text>
    <s:alias val="$_outputExt_"/>
    <path d="M30,0 L30,20 L15,20 L0,10 L15,0 Z" class="cell_o_flag_n"/>
    <g s:x="0" s:y="10" s:pid="A"/>
  </g>
  <g s:type="outputExt" transform="translate(889,292.5)" s:width="30" s:height="20" id="cell_o_flag_v">
    <text x="15" y="-4" class="nodelabel cell_o_flag_v" s:attribute="ref">o_flag_v</text>
    <s:alias val="$_outputExt_"/>
    <path d="M30,0 L30,20 L15,20 L0,10 L15,0 Z" class="cell_o_flag_v"/>
    <g s:x="0" s:y="10" s:pid="A"/>
  </g>
  <g s:type="constant" transform="translate(95,22)" s:width="30" s:height="20" id="cell_1">
    <text x="15" y="-4" class="nodelabel cell_1" s:attribute="ref">1</text>
    <s:alias val="$_constant_"/>
    <rect width="30" height="20" class="cell_1"/>
    <g s:x="30" s:y="10" s:pid="Y"/>
  </g>
  <g s:type="constant" transform="translate(95,87)" s:width="30" s:height="20" id="cell_0">
    <text x="15" y="-4" class="nodelabel cell_0" s:attribute="ref">0</text>
    <s:alias val="$_constant_"/>
    <rect width="30" height="20" class="cell_0"/>
    <g s:x="30" s:y="10" s:pid="Y"/>
  </g>
  <g s:type="join" transform="translate(530.75,408)" s:width="4" s:height="40" id="cell_$join$,65,66,67,">
    <rect width="5" height="60" class="splitjoinBody" s:generic="body"/>
    <s:alias val="$_join_"/>
    <g s:x="5" s:y="20" s:pid="out"/>
    <g transform="translate(0,10)" s:x="0" s:y="10" s:pid="in0">
      <text x="-3" y="-4" class="inputPortLabel">0</text>
    </g>
    <g transform="translate(0,30)" s:x="0" s:y="10" s:pid="in0">
      <text x="-3" y="-4" class="inputPortLabel">1</text>
    </g>
    <g transform="translate(0,50)" s:x="0" s:y="10" s:pid="in0">
      <text x="-3" y="-4" class="inputPortLabel">2</text>
    </g>
  </g>
  <g s:type="split" transform="translate(110.8,142)" s:width="5" s:height="40" id="cell_$split$,34,35,36,37,">
    <rect width="5" height="100" class="splitjoinBody" s:generic="body"/>
    <s:alias val="$_split_"/>
    <g s:x="0" s:y="20" s:pid="in"/>
    <g transform="translate(4,10)" s:x="4" s:y="10" s:pid="out0">
      <text x="5" y="-4">0</text>
    </g>
    <g transform="translate(4,30)" s:x="4" s:y="10" s:pid="out0">
      <text x="5" y="-4">1</text>
    </g>
    <g transform="translate(4,50)" s:x="4" s:y="10" s:pid="out0">
      <text x="5" y="-4">2</text>
    </g>
    <g transform="translate(4,70)" s:x="4" s:y="10" s:pid="out0">
      <text x="5" y="-4">3</text>
    </g>
    <g transform="translate(4,90)" s:x="4" s:y="10" s:pid="out0">
      <text x="5" y="-4">0:2</text>
    </g>
  </g>
  <line x1="115.8" x2="165" y1="152.5" y2="152.5" class="net_34"/>
  <line x1="165" x2="165" y1="152.5" y2="17" class="net_34"/>
  <circle cx="165" cy="152.5" r="2" style="fill:#000" class="net_34"/>
  <line x1="165" x2="188" y1="17" y2="17" class="net_34"/>
  <line x1="115.8" x2="165" y1="152.5" y2="152.5" class="net_34"/>
  <line x1="165" x2="165" y1="152.5" y2="303.5" class="net_34"/>
  <circle cx="165" cy="303.5" r="2" style="fill:#000" class="net_34"/>
  <line x1="165" x2="396.3333333333333" y1="303.5" y2="303.5" class="net_34"/>
  <line x1="115.8" x2="165" y1="152.5" y2="152.5" class="net_34"/>
  <line x1="165" x2="165" y1="152.5" y2="354.5" class="net_34"/>
  <line x1="165" x2="463" y1="354.5" y2="354.5" class="net_34"/>
  <line x1="463" x2="463" y1="354.5" y2="360.5" class="net_34"/>
  <line x1="463" x2="524" y1="360.5" y2="360.5" class="net_34"/>
  <line x1="125" x2="188" y1="32" y2="32" class="net_117"/>
  <line x1="115.8" x2="155" y1="172.5" y2="172.5" class="net_35"/>
  <line x1="155" x2="155" y1="172.5" y2="82" class="net_35"/>
  <circle cx="155" cy="172.5" r="2" style="fill:#000" class="net_35"/>
  <line x1="155" x2="188" y1="82" y2="82" class="net_35"/>
  <line x1="115.8" x2="155" y1="172.5" y2="172.5" class="net_35"/>
  <line x1="155" x2="155" y1="172.5" y2="428.5" class="net_35"/>
  <line x1="155" x2="396.3333333333333" y1="428.5" y2="428.5" class="net_35"/>
  <line x1="125" x2="188" y1="97" y2="97" class="net_118"/>
  <line x1="125" x2="175" y1="97" y2="97" class="net_118"/>
  <line x1="175" x2="175" y1="97" y2="207.5" class="net_118"/>
  <circle cx="175" cy="97" r="2" style="fill:#000" class="net_118"/>
  <circle cx="175" cy="207.5" r="2" style="fill:#000" class="net_118"/>
  <line x1="175" x2="188" y1="207.5" y2="207.5" class="net_118"/>
  <line x1="125" x2="175" y1="97" y2="97" class="net_118"/>
  <line x1="175" x2="175" y1="97" y2="267.5" class="net_118"/>
  <circle cx="175" cy="267.5" r="2" style="fill:#000" class="net_118"/>
  <line x1="175" x2="188" y1="267.5" y2="267.5" class="net_118"/>
  <line x1="125" x2="175" y1="97" y2="97" class="net_118"/>
  <line x1="175" x2="175" y1="97" y2="314.5" class="net_118"/>
  <line x1="175" x2="358" y1="314.5" y2="314.5" class="net_118"/>
  <line x1="358" x2="358" y1="314.5" y2="323.5" class="net_118"/>
  <circle cx="175" cy="314.5" r="2" style="fill:#000" class="net_118"/>
  <line x1="358" x2="396.3333333333333" y1="323.5" y2="323.5" class="net_118"/>
  <line x1="125" x2="175" y1="97" y2="97" class="net_118"/>
  <line x1="175" x2="175" y1="97" y2="439.5" class="net_118"/>
  <line x1="175" x2="358" y1="439.5" y2="439.5" class="net_118"/>
  <line x1="358" x2="358" y1="439.5" y2="448.5" class="net_118"/>
  <circle cx="175" cy="439.5" r="2" style="fill:#000" class="net_118"/>
  <line x1="358" x2="396.3333333333333" y1="448.5" y2="448.5" class="net_118"/>
  <line x1="125" x2="175" y1="97" y2="97" class="net_118"/>
  <line x1="175" x2="175" y1="97" y2="499.5" class="net_118"/>
  <line x1="175" x2="358" y1="499.5" y2="499.5" class="net_118"/>
  <line x1="358" x2="358" y1="499.5" y2="508.5" class="net_118"/>
  <line x1="358" x2="396.3333333333333" y1="508.5" y2="508.5" class="net_118"/>
  <line x1="115.8" x2="188" y1="192.5" y2="192.5" class="net_36"/>
  <line x1="115.8" x2="135" y1="192.5" y2="192.5" class="net_36"/>
  <line x1="135" x2="135" y1="192.5" y2="488.5" class="net_36"/>
  <circle cx="135" cy="192.5" r="2" style="fill:#000" class="net_36"/>
  <line x1="135" x2="396.3333333333333" y1="488.5" y2="488.5" class="net_36"/>
  <line x1="115.8" x2="145" y1="212.5" y2="212.5" class="net_37"/>
  <line x1="145" x2="145" y1="212.5" y2="252.5" class="net_37"/>
  <circle cx="145" cy="252.5" r="2" style="fill:#000" class="net_37"/>
  <line x1="145" x2="188" y1="252.5" y2="252.5" class="net_37"/>
  <line x1="115.8" x2="145" y1="212.5" y2="212.5" class="net_37"/>
  <line x1="145" x2="145" y1="212.5" y2="343.5" class="net_37"/>
  <line x1="145" x2="406.3333333333333" y1="343.5" y2="343.5" class="net_37"/>
  <circle cx="145" cy="343.5" r="2" style="fill:#000" class="net_37"/>
  <line x1="406.3333333333333" x2="406.3333333333333" y1="343.5" y2="328.5" class="net_37"/>
  <line x1="115.8" x2="145" y1="212.5" y2="212.5" class="net_37"/>
  <line x1="145" x2="145" y1="212.5" y2="468.5" class="net_37"/>
  <line x1="145" x2="406.3333333333333" y1="468.5" y2="468.5" class="net_37"/>
  <circle cx="145" cy="468.5" r="2" style="fill:#000" class="net_37"/>
  <line x1="406.3333333333333" x2="406.3333333333333" y1="468.5" y2="453.5" class="net_37"/>
  <line x1="115.8" x2="145" y1="212.5" y2="212.5" class="net_37"/>
  <line x1="145" x2="145" y1="212.5" y2="528.5" class="net_37"/>
  <line x1="145" x2="406.3333333333333" y1="528.5" y2="528.5" class="net_37"/>
  <line x1="406.3333333333333" x2="406.3333333333333" y1="528.5" y2="513.5" class="net_37"/>
  <line x1="218" x2="256" y1="24.5" y2="24.5" class="net_57"/>
  <line x1="218" x2="228" y1="89.5" y2="89.5" class="net_58"/>
  <line x1="228" x2="228" y1="89.5" y2="39.5" class="net_58"/>
  <line x1="228" x2="256" y1="39.5" y2="39.5" class="net_58"/>
  <line x1="218" x2="256" y1="200" y2="200" class="net_59"/>
  <line x1="218" x2="228" y1="260" y2="260" class="net_60"/>
  <line x1="228" x2="228" y1="260" y2="215" class="net_60"/>
  <line x1="228" x2="256" y1="215" y2="215" class="net_60"/>
  <line x1="283" x2="321" y1="32" y2="32" class="net_61"/>
  <line x1="283" x2="293" y1="207.5" y2="207.5" class="net_62"/>
  <line x1="293" x2="293" y1="207.5" y2="47" class="net_62"/>
  <line x1="293" x2="321" y1="47" y2="47" class="net_62"/>
  <line x1="348" x2="398" y1="39.5" y2="39.5" class="net_63"/>
  <line x1="411" x2="524" y1="104.5" y2="104.5" class="net_2,3,4,5,6,7,8,9,10,11,12,13,14,15,16,17"/>
  <line x1="411" x2="473" y1="104.5" y2="104.5" class="net_2,3,4,5,6,7,8,9,10,11,12,13,14,15,16,17"/>
  <line x1="473" x2="473" y1="104.5" y2="212.5" class="net_2,3,4,5,6,7,8,9,10,11,12,13,14,15,16,17"/>
  <circle cx="473" cy="104.5" r="2" style="fill:#000" class="net_2,3,4,5,6,7,8,9,10,11,12,13,14,15,16,17"/>
  <circle cx="473" cy="212.5" r="2" style="fill:#000" class="net_2,3,4,5,6,7,8,9,10,11,12,13,14,15,16,17"/>
  <line x1="473" x2="524" y1="212.5" y2="212.5" class="net_2,3,4,5,6,7,8,9,10,11,12,13,14,15,16,17"/>
  <line x1="411" x2="473" y1="104.5" y2="104.5" class="net_2,3,4,5,6,7,8,9,10,11,12,13,14,15,16,17"/>
  <line x1="473" x2="473" y1="104.5" y2="320.5" class="net_2,3,4,5,6,7,8,9,10,11,12,13,14,15,16,17"/>
  <line x1="473" x2="524" y1="320.5" y2="320.5" class="net_2,3,4,5,6,7,8,9,10,11,12,13,14,15,16,17"/>
  <line x1="411" x2="463" y1="232.5" y2="232.5" class="net_18,19,20,21,22,23,24,25,26,27,28,29,30,31,32,33"/>
  <line x1="463" x2="463" y1="232.5" y2="124.5" class="net_18,19,20,21,22,23,24,25,26,27,28,29,30,31,32,33"/>
  <circle cx="463" cy="232.5" r="2" style="fill:#000" class="net_18,19,20,21,22,23,24,25,26,27,28,29,30,31,32,33"/>
  <line x1="463" x2="524" y1="124.5" y2="124.5" class="net_18,19,20,21,22,23,24,25,26,27,28,29,30,31,32,33"/>
  <line x1="411" x2="524" y1="232.5" y2="232.5" class="net_18,19,20,21,22,23,24,25,26,27,28,29,30,31,32,33"/>
  <line x1="411" x2="463" y1="232.5" y2="232.5" class="net_18,19,20,21,22,23,24,25,26,27,28,29,30,31,32,33"/>
  <line x1="463" x2="463" y1="232.5" y2="340.5" class="net_18,19,20,21,22,23,24,25,26,27,28,29,30,31,32,33"/>
  <line x1="463" x2="524" y1="340.5" y2="340.5" class="net_18,19,20,21,22,23,24,25,26,27,28,29,30,31,32,33"/>
  <line x1="423" x2="483" y1="39.5" y2="39.5" class="net_64"/>
  <line x1="483" x2="483" y1="39.5" y2="144.5" class="net_64"/>
  <line x1="483" x2="524" y1="144.5" y2="144.5" class="net_64"/>
  <line x1="555" x2="734" y1="124.5" y2="124.5" class="net_84"/>
  <line x1="734" x2="734" y1="124.5" y2="237.5" class="net_84"/>
  <line x1="734" x2="804" y1="237.5" y2="237.5" class="net_84"/>
  <line x1="40" x2="70" y1="162.5" y2="162.5" class="net_34,35,36,37"/>
  <line x1="70" x2="70" y1="162.5" y2="539.5" class="net_34,35,36,37"/>
  <line x1="70" x2="734" y1="539.5" y2="539.5" class="net_34,35,36,37"/>
  <line x1="734" x2="734" y1="539.5" y2="257.5" class="net_34,35,36,37"/>
  <circle cx="70" cy="162.5" r="2" style="fill:#000" class="net_34,35,36,37"/>
  <line x1="734" x2="804" y1="257.5" y2="257.5" class="net_34,35,36,37"/>
  <line x1="40" x2="110.8" y1="162.5" y2="162.5" class="net_34,35,36,37"/>
  <line x1="683" x2="724" y1="172.5" y2="172.5" class="net_38,39,40,41,42,43,44,45,46,47,48,49,50,51,52,53"/>
  <line x1="724" x2="724" y1="172.5" y2="277.5" class="net_38,39,40,41,42,43,44,45,46,47,48,49,50,51,52,53"/>
  <circle cx="724" cy="172.5" r="2" style="fill:#000" class="net_38,39,40,41,42,43,44,45,46,47,48,49,50,51,52,53"/>
  <line x1="724" x2="804" y1="277.5" y2="277.5" class="net_38,39,40,41,42,43,44,45,46,47,48,49,50,51,52,53"/>
  <line x1="683" x2="889" y1="172.5" y2="172.5" class="net_38,39,40,41,42,43,44,45,46,47,48,49,50,51,52,53"/>
  <line x1="115.3" x2="115.3" y1="233" y2="282.5" class="net_34,35,36"/>
  <line x1="115.3" x2="483" y1="282.5" y2="282.5" class="net_34,35,36"/>
  <line x1="483" x2="483" y1="282.5" y2="252.5" class="net_34,35,36"/>
  <line x1="483" x2="524" y1="252.5" y2="252.5" class="net_34,35,36"/>
  <line x1="555" x2="596" y1="104.5" y2="104.5" class="net_68,69,70,71,72,73,74,75,76,77,78,79,80,81,82,83"/>
  <line x1="596" x2="596" y1="104.5" y2="172.5" class="net_68,69,70,71,72,73,74,75,76,77,78,79,80,81,82,83"/>
  <circle cx="596" cy="172.5" r="2" style="fill:#000" class="net_68,69,70,71,72,73,74,75,76,77,78,79,80,81,82,83"/>
  <line x1="596" x2="652" y1="172.5" y2="172.5" class="net_68,69,70,71,72,73,74,75,76,77,78,79,80,81,82,83"/>
  <line x1="555" x2="596" y1="104.5" y2="104.5" class="net_68,69,70,71,72,73,74,75,76,77,78,79,80,81,82,83"/>
  <line x1="596" x2="596" y1="104.5" y2="192.5" class="net_68,69,70,71,72,73,74,75,76,77,78,79,80,81,82,83"/>
  <line x1="596" x2="652" y1="192.5" y2="192.5" class="net_68,69,70,71,72,73,74,75,76,77,78,79,80,81,82,83"/>
  <line x1="555" x2="652" y1="212.5" y2="212.5" class="net_85,86,87,88,89,90,91,92,93,94,95,96,97,98,99,100"/>
  <line x1="555" x2="596" y1="212.5" y2="212.5" class="net_85,86,87,88,89,90,91,92,93,94,95,96,97,98,99,100"/>
  <line x1="596" x2="596" y1="212.5" y2="232.5" class="net_85,86,87,88,89,90,91,92,93,94,95,96,97,98,99,100"/>
  <circle cx="596" cy="212.5" r="2" style="fill:#000" class="net_85,86,87,88,89,90,91,92,93,94,95,96,97,98,99,100"/>
  <circle cx="596" cy="232.5" r="2" style="fill:#000" class="net_85,86,87,88,89,90,91,92,93,94,95,96,97,98,99,100"/>
  <line x1="596" x2="652" y1="232.5" y2="232.5" class="net_85,86,87,88,89,90,91,92,93,94,95,96,97,98,99,100"/>
  <line x1="555" x2="596" y1="212.5" y2="212.5" class="net_85,86,87,88,89,90,91,92,93,94,95,96,97,98,99,100"/>
  <line x1="596" x2="596" y1="212.5" y2="252.5" class="net_85,86,87,88,89,90,91,92,93,94,95,96,97,98,99,100"/>
  <circle cx="596" cy="252.5" r="2" style="fill:#000" class="net_85,86,87,88,89,90,91,92,93,94,95,96,97,98,99,100"/>
  <line x1="596" x2="652" y1="252.5" y2="252.5" class="net_85,86,87,88,89,90,91,92,93,94,95,96,97,98,99,100"/>
  <line x1="555" x2="596" y1="212.5" y2="212.5" class="net_85,86,87,88,89,90,91,92,93,94,95,96,97,98,99,100"/>
  <line x1="596" x2="596" y1="212.5" y2="272.5" class="net_85,86,87,88,89,90,91,92,93,94,95,96,97,98,99,100"/>
  <line x1="596" x2="652" y1="272.5" y2="272.5" class="net_85,86,87,88,89,90,91,92,93,94,95,96,97,98,99,100"/>
  <line x1="555" x2="596" y1="320.5" y2="320.5" class="net_101,102,103,104,105,106,107,108,109,110,111,112,113,114,115,116"/>
  <line x1="596" x2="596" y1="320.5" y2="292.5" class="net_101,102,103,104,105,106,107,108,109,110,111,112,113,114,115,116"/>
  <line x1="596" x2="652" y1="292.5" y2="292.5" class="net_101,102,103,104,105,106,107,108,109,110,111,112,113,114,115,116"/>
  <line x1="555" x2="596" y1="320.5" y2="320.5" class="net_101,102,103,104,105,106,107,108,109,110,111,112,113,114,115,116"/>
  <line x1="596" x2="596" y1="320.5" y2="312.5" class="net_101,102,103,104,105,106,107,108,109,110,111,112,113,114,115,116"/>
  <circle cx="596" cy="312.5" r="2" style="fill:#000" class="net_101,102,103,104,105,106,107,108,109,110,111,112,113,114,115,116"/>
  <line x1="596" x2="652" y1="312.5" y2="312.5" class="net_101,102,103,104,105,106,107,108,109,110,111,112,113,114,115,116"/>
  <line x1="536.75" x2="596" y1="428.5" y2="428.5" class="net_65,66,67"/>
  <line x1="596" x2="596" y1="428.5" y2="332.5" class="net_65,66,67"/>
  <line x1="596" x2="652" y1="332.5" y2="332.5" class="net_65,66,67"/>
  <line x1="835" x2="864" y1="277.5" y2="277.5" class="net_54"/>
  <line x1="864" x2="864" y1="277.5" y2="367.5" class="net_54"/>
  <line x1="864" x2="889" y1="367.5" y2="367.5" class="net_54"/>
  <line x1="835" x2="889" y1="237.5" y2="237.5" class="net_55"/>
  <line x1="835" x2="874" y1="257.5" y2="257.5" class="net_56"/>
  <line x1="874" x2="874" y1="257.5" y2="302.5" class="net_56"/>
  <line x1="874" x2="889" y1="302.5" y2="302.5" class="net_56"/>
  <line x1="416.3333333333333" x2="453" y1="313.5" y2="313.5" class="net_65"/>
  <line x1="453" x2="453" y1="313.5" y2="418.5" class="net_65"/>
  <line x1="453" x2="530.75" y1="418.5" y2="418.5" class="net_65"/>
  <line x1="416.3333333333333" x2="530.75" y1="438.5" y2="438.5" class="net_66"/>
  <line x1="416.3333333333333" x2="453" y1="498.5" y2="498.5" class="net_67"/>
  <line x1="453" x2="453" y1="498.5" y2="458.5" class="net_67"/>
  <line x1="453" x2="530.75" y1="458.5" y2="458.5" class="net_67"/>
</svg>
