<svg xmlns="http://www.w3.org/2000/svg" xmlns:xlink="http://www.w3.org/1999/xlink" xmlns:s="https://github.com/nturley/netlistsvg" width="749" height="703">
  <style>svg {
    stroke:#000;
    fill:none;
  }
  text {
    fill:#000;
    stroke:none;
    font-size:10px;
    font-weight: bold;
    font-family: "Courier New", monospace;
  }
  .nodelabel {
    text-anchor: middle;
  }
  .inputPortLabel {
    text-anchor: end;
  }
  .splitjoinBody {
    fill:#000;
  }</style>
  <g s:type="and" transform="translate(587,340.5)" s:width="30" s:height="25" id="cell_$auto$simplemap.cc:106:simplemap_bitop$155">
    <s:alias val="$and"/>
    <s:alias val="$logic_and"/>
    <s:alias val="$_AND_"/>
    <path d="M0,0 L0,25 L15,25 A15 12.5 0 0 0 15,0 Z" class="cell_$auto$simplemap.cc:106:simplemap_bitop$155"/>
    <g s:x="0" s:y="5" s:pid="A"/>
    <g s:x="0" s:y="20" s:pid="B"/>
    <g s:x="30" s:y="12.5" s:pid="Y"/>
  </g>
  <g s:type="or" transform="translate(522,82)" s:width="30" s:height="25" id="cell_$auto$simplemap.cc:106:simplemap_bitop$156">
    <s:alias val="$or"/>
    <s:alias val="$logic_or"/>
    <s:alias val="$_OR_"/>
    <path d="M0,25 L0,25 L15,25 A15 12.5 0 0 0 15,0 L0,0" class="cell_$auto$simplemap.cc:106:simplemap_bitop$156"/>
    <path d="M0,0 A30 25 0 0 1 0,25" class="cell_$auto$simplemap.cc:106:simplemap_bitop$156"/>
    <g s:x="3" s:y="5" s:pid="A"/>
    <g s:x="3" s:y="20" s:pid="B"/>
    <g s:x="30" s:y="12.5" s:pid="Y"/>
  </g>
  <g s:type="reduce_xor" transform="translate(439,170.5)" s:width="33" s:height="25" id="cell_$auto$simplemap.cc:106:simplemap_bitop$157">
    <s:alias val="$xor"/>
    <s:alias val="$reduce_xor"/>
    <s:alias val="$_XOR_"/>
    <path d="M3,0 A30 25 0 0 1 3,25 A30 25 0 0 0 33,12.5 A30 25 0 0 0 3,0" class="cell_$auto$simplemap.cc:106:simplemap_bitop$157"/>
    <path d="M0,0 A30 25 0 0 1 0,25" class="cell_$auto$simplemap.cc:106:simplemap_bitop$157"/>
    <g s:x="3" s:y="5" s:pid="A"/>
    <g s:x="3" s:y="20" s:pid="B"/>
    <g s:x="33" s:y="12.5" s:pid="Y"/>
  </g>
  <g s:type="reduce_xor" transform="translate(371,576)" s:width="33" s:height="25" id="cell_$auto$simplemap.cc:106:simplemap_bitop$161">
    <s:alias val="$xor"/>
    <s:alias val="$reduce_xor"/>
    <s:alias val="$_XOR_"/>
    <path d="M3,0 A30 25 0 0 1 3,25 A30 25 0 0 0 33,12.5 A30 25 0 0 0 3,0" class="cell_$auto$simplemap.cc:106:simplemap_bitop$161"/>
    <path d="M0,0 A30 25 0 0 1 0,25" class="cell_$auto$simplemap.cc:106:simplemap_bitop$161"/>
    <g s:x="3" s:y="5" s:pid="A"/>
    <g s:x="3" s:y="20" s:pid="B"/>
    <g s:x="33" s:y="12.5" s:pid="Y"/>
  </g>
  <g s:type="reduce_xor" transform="translate(371,636)" s:width="33" s:height="25" id="cell_$auto$simplemap.cc:106:simplemap_bitop$162">
    <s:alias val="$xor"/>
    <s:alias val="$reduce_xor"/>
    <s:alias val="$_XOR_"/>
    <path d="M3,0 A30 25 0 0 1 3,25 A30 25 0 0 0 33,12.5 A30 25 0 0 0 3,0" class="cell_$auto$simplemap.cc:106:simplemap_bitop$162"/>
    <path d="M0,0 A30 25 0 0 1 0,25" class="cell_$auto$simplemap.cc:106:simplemap_bitop$162"/>
    <g s:x="3" s:y="5" s:pid="A"/>
    <g s:x="3" s:y="20" s:pid="B"/>
    <g s:x="33" s:y="12.5" s:pid="Y"/>
  </g>
  <g s:type="reduce_xor" transform="translate(439,666)" s:width="33" s:height="25" id="cell_$auto$simplemap.cc:106:simplemap_bitop$163">
    <s:alias val="$xor"/>
    <s:alias val="$reduce_xor"/>
    <s:alias val="$_XOR_"/>
    <path d="M3,0 A30 25 0 0 1 3,25 A30 25 0 0 0 33,12.5 A30 25 0 0 0 3,0" class="cell_$auto$simplemap.cc:106:simplemap_bitop$163"/>
    <path d="M0,0 A30 25 0 0 1 0,25" class="cell_$auto$simplemap.cc:106:simplemap_bitop$163"/>
    <g s:x="3" s:y="5" s:pid="A"/>
    <g s:x="3" s:y="20" s:pid="B"/>
    <g s:x="33" s:y="12.5" s:pid="Y"/>
  </g>
  <g s:type="reduce_xor" transform="translate(303,426)" s:width="33" s:height="25" id="cell_$auto$simplemap.cc:106:simplemap_bitop$174">
    <s:alias val="$xor"/>
    <s:alias val="$reduce_xor"/>
    <s:alias val="$_XOR_"/>
    <path d="M3,0 A30 25 0 0 1 3,25 A30 25 0 0 0 33,12.5 A30 25 0 0 0 3,0" class="cell_$auto$simplemap.cc:106:simplemap_bitop$174"/>
    <path d="M0,0 A30 25 0 0 1 0,25" class="cell_$auto$simplemap.cc:106:simplemap_bitop$174"/>
    <g s:x="3" s:y="5" s:pid="A"/>
    <g s:x="3" s:y="20" s:pid="B"/>
    <g s:x="33" s:y="12.5" s:pid="Y"/>
  </g>
  <g s:type="reduce_xor" transform="translate(303,486)" s:width="33" s:height="25" id="cell_$auto$simplemap.cc:106:simplemap_bitop$175">
    <s:alias val="$xor"/>
    <s:alias val="$reduce_xor"/>
    <s:alias val="$_XOR_"/>
    <path d="M3,0 A30 25 0 0 1 3,25 A30 25 0 0 0 33,12.5 A30 25 0 0 0 3,0" class="cell_$auto$simplemap.cc:106:simplemap_bitop$175"/>
    <path d="M0,0 A30 25 0 0 1 0,25" class="cell_$auto$simplemap.cc:106:simplemap_bitop$175"/>
    <g s:x="3" s:y="5" s:pid="A"/>
    <g s:x="3" s:y="20" s:pid="B"/>
    <g s:x="33" s:y="12.5" s:pid="Y"/>
  </g>
  <g s:type="reduce_xor" transform="translate(371,516)" s:width="33" s:height="25" id="cell_$auto$simplemap.cc:106:simplemap_bitop$176">
    <s:alias val="$xor"/>
    <s:alias val="$reduce_xor"/>
    <s:alias val="$_XOR_"/>
    <path d="M3,0 A30 25 0 0 1 3,25 A30 25 0 0 0 33,12.5 A30 25 0 0 0 3,0" class="cell_$auto$simplemap.cc:106:simplemap_bitop$176"/>
    <path d="M0,0 A30 25 0 0 1 0,25" class="cell_$auto$simplemap.cc:106:simplemap_bitop$176"/>
    <g s:x="3" s:y="5" s:pid="A"/>
    <g s:x="3" s:y="20" s:pid="B"/>
    <g s:x="33" s:y="12.5" s:pid="Y"/>
  </g>
  <g s:type="reduce_xor" transform="translate(235,230.5)" s:width="33" s:height="25" id="cell_$auto$simplemap.cc:106:simplemap_bitop$187">
    <s:alias val="$xor"/>
    <s:alias val="$reduce_xor"/>
    <s:alias val="$_XOR_"/>
    <path d="M3,0 A30 25 0 0 1 3,25 A30 25 0 0 0 33,12.5 A30 25 0 0 0 3,0" class="cell_$auto$simplemap.cc:106:simplemap_bitop$187"/>
    <path d="M0,0 A30 25 0 0 1 0,25" class="cell_$auto$simplemap.cc:106:simplemap_bitop$187"/>
    <g s:x="3" s:y="5" s:pid="A"/>
    <g s:x="3" s:y="20" s:pid="B"/>
    <g s:x="33" s:y="12.5" s:pid="Y"/>
  </g>
  <g s:type="reduce_xor" transform="translate(235,290.5)" s:width="33" s:height="25" id="cell_$auto$simplemap.cc:106:simplemap_bitop$188">
    <s:alias val="$xor"/>
    <s:alias val="$reduce_xor"/>
    <s:alias val="$_XOR_"/>
    <path d="M3,0 A30 25 0 0 1 3,25 A30 25 0 0 0 33,12.5 A30 25 0 0 0 3,0" class="cell_$auto$simplemap.cc:106:simplemap_bitop$188"/>
    <path d="M0,0 A30 25 0 0 1 0,25" class="cell_$auto$simplemap.cc:106:simplemap_bitop$188"/>
    <g s:x="3" s:y="5" s:pid="A"/>
    <g s:x="3" s:y="20" s:pid="B"/>
    <g s:x="33" s:y="12.5" s:pid="Y"/>
  </g>
  <g s:type="reduce_xor" transform="translate(303,320.5)" s:width="33" s:height="25" id="cell_$auto$simplemap.cc:106:simplemap_bitop$189">
    <s:alias val="$xor"/>
    <s:alias val="$reduce_xor"/>
    <s:alias val="$_XOR_"/>
    <path d="M3,0 A30 25 0 0 1 3,25 A30 25 0 0 0 33,12.5 A30 25 0 0 0 3,0" class="cell_$auto$simplemap.cc:106:simplemap_bitop$189"/>
    <path d="M0,0 A30 25 0 0 1 0,25" class="cell_$auto$simplemap.cc:106:simplemap_bitop$189"/>
    <g s:x="3" s:y="5" s:pid="A"/>
    <g s:x="3" s:y="20" s:pid="B"/>
    <g s:x="33" s:y="12.5" s:pid="Y"/>
  </g>
  <g s:type="reduce_xor" transform="translate(167,80.5)" s:width="33" s:height="25" id="cell_$auto$simplemap.cc:106:simplemap_bitop$200">
    <s:alias val="$xor"/>
    <s:alias val="$reduce_xor"/>
    <s:alias val="$_XOR_"/>
    <path d="M3,0 A30 25 0 0 1 3,25 A30 25 0 0 0 33,12.5 A30 25 0 0 0 3,0" class="cell_$auto$simplemap.cc:106:simplemap_bitop$200"/>
    <path d="M0,0 A30 25 0 0 1 0,25" class="cell_$auto$simplemap.cc:106:simplemap_bitop$200"/>
    <g s:x="3" s:y="5" s:pid="A"/>
    <g s:x="3" s:y="20" s:pid="B"/>
    <g s:x="33" s:y="12.5" s:pid="Y"/>
  </g>
  <g s:type="reduce_xor" transform="translate(167,140.5)" s:width="33" s:height="25" id="cell_$auto$simplemap.cc:106:simplemap_bitop$201">
    <s:alias val="$xor"/>
    <s:alias val="$reduce_xor"/>
    <s:alias val="$_XOR_"/>
    <path d="M3,0 A30 25 0 0 1 3,25 A30 25 0 0 0 33,12.5 A30 25 0 0 0 3,0" class="cell_$auto$simplemap.cc:106:simplemap_bitop$201"/>
    <path d="M0,0 A30 25 0 0 1 0,25" class="cell_$auto$simplemap.cc:106:simplemap_bitop$201"/>
    <g s:x="3" s:y="5" s:pid="A"/>
    <g s:x="3" s:y="20" s:pid="B"/>
    <g s:x="33" s:y="12.5" s:pid="Y"/>
  </g>
  <g s:type="reduce_xor" transform="translate(235,170.5)" s:width="33" s:height="25" id="cell_$auto$simplemap.cc:106:simplemap_bitop$202">
    <s:alias val="$xor"/>
    <s:alias val="$reduce_xor"/>
    <s:alias val="$_XOR_"/>
    <path d="M3,0 A30 25 0 0 1 3,25 A30 25 0 0 0 33,12.5 A30 25 0 0 0 3,0" class="cell_$auto$simplemap.cc:106:simplemap_bitop$202"/>
    <path d="M0,0 A30 25 0 0 1 0,25" class="cell_$auto$simplemap.cc:106:simplemap_bitop$202"/>
    <g s:x="3" s:y="5" s:pid="A"/>
    <g s:x="3" s:y="20" s:pid="B"/>
    <g s:x="33" s:y="12.5" s:pid="Y"/>
  </g>
  <g s:type="or" transform="translate(440,583.5)" s:width="30" s:height="25" id="cell_$auto$simplemap.cc:157:simplemap_reduce$167">
    <s:alias val="$or"/>
    <s:alias val="$logic_or"/>
    <s:alias val="$_OR_"/>
    <path d="M0,25 L0,25 L15,25 A15 12.5 0 0 0 15,0 L0,0" class="cell_$auto$simplemap.cc:157:simplemap_reduce$167"/>
    <path d="M0,0 A30 25 0 0 1 0,25" class="cell_$auto$simplemap.cc:157:simplemap_reduce$167"/>
    <g s:x="3" s:y="5" s:pid="A"/>
    <g s:x="3" s:y="20" s:pid="B"/>
    <g s:x="30" s:y="12.5" s:pid="Y"/>
  </g>
  <g s:type="or" transform="translate(522,591)" s:width="30" s:height="25" id="cell_$auto$simplemap.cc:157:simplemap_reduce$169">
    <s:alias val="$or"/>
    <s:alias val="$logic_or"/>
    <s:alias val="$_OR_"/>
    <path d="M0,25 L0,25 L15,25 A15 12.5 0 0 0 15,0 L0,0" class="cell_$auto$simplemap.cc:157:simplemap_reduce$169"/>
    <path d="M0,0 A30 25 0 0 1 0,25" class="cell_$auto$simplemap.cc:157:simplemap_reduce$169"/>
    <g s:x="3" s:y="5" s:pid="A"/>
    <g s:x="3" s:y="20" s:pid="B"/>
    <g s:x="30" s:y="12.5" s:pid="Y"/>
  </g>
  <g s:type="or" transform="translate(372,433.5)" s:width="30" s:height="25" id="cell_$auto$simplemap.cc:157:simplemap_reduce$180">
    <s:alias val="$or"/>
    <s:alias val="$logic_or"/>
    <s:alias val="$_OR_"/>
    <path d="M0,25 L0,25 L15,25 A15 12.5 0 0 0 15,0 L0,0" class="cell_$auto$simplemap.cc:157:simplemap_reduce$180"/>
    <path d="M0,0 A30 25 0 0 1 0,25" class="cell_$auto$simplemap.cc:157:simplemap_reduce$180"/>
    <g s:x="3" s:y="5" s:pid="A"/>
    <g s:x="3" s:y="20" s:pid="B"/>
    <g s:x="30" s:y="12.5" s:pid="Y"/>
  </g>
  <g s:type="or" transform="translate(440,441)" s:width="30" s:height="25" id="cell_$auto$simplemap.cc:157:simplemap_reduce$182">
    <s:alias val="$or"/>
    <s:alias val="$logic_or"/>
    <s:alias val="$_OR_"/>
    <path d="M0,25 L0,25 L15,25 A15 12.5 0 0 0 15,0 L0,0" class="cell_$auto$simplemap.cc:157:simplemap_reduce$182"/>
    <path d="M0,0 A30 25 0 0 1 0,25" class="cell_$auto$simplemap.cc:157:simplemap_reduce$182"/>
    <g s:x="3" s:y="5" s:pid="A"/>
    <g s:x="3" s:y="20" s:pid="B"/>
    <g s:x="30" s:y="12.5" s:pid="Y"/>
  </g>
  <g s:type="or" transform="translate(304,238)" s:width="30" s:height="25" id="cell_$auto$simplemap.cc:157:simplemap_reduce$193">
    <s:alias val="$or"/>
    <s:alias val="$logic_or"/>
    <s:alias val="$_OR_"/>
    <path d="M0,25 L0,25 L15,25 A15 12.5 0 0 0 15,0 L0,0" class="cell_$auto$simplemap.cc:157:simplemap_reduce$193"/>
    <path d="M0,0 A30 25 0 0 1 0,25" class="cell_$auto$simplemap.cc:157:simplemap_reduce$193"/>
    <g s:x="3" s:y="5" s:pid="A"/>
    <g s:x="3" s:y="20" s:pid="B"/>
    <g s:x="30" s:y="12.5" s:pid="Y"/>
  </g>
  <g s:type="or" transform="translate(372,245.5)" s:width="30" s:height="25" id="cell_$auto$simplemap.cc:157:simplemap_reduce$195">
    <s:alias val="$or"/>
    <s:alias val="$logic_or"/>
    <s:alias val="$_OR_"/>
    <path d="M0,25 L0,25 L15,25 A15 12.5 0 0 0 15,0 L0,0" class="cell_$auto$simplemap.cc:157:simplemap_reduce$195"/>
    <path d="M0,0 A30 25 0 0 1 0,25" class="cell_$auto$simplemap.cc:157:simplemap_reduce$195"/>
    <g s:x="3" s:y="5" s:pid="A"/>
    <g s:x="3" s:y="20" s:pid="B"/>
    <g s:x="30" s:y="12.5" s:pid="Y"/>
  </g>
  <g s:type="or" transform="translate(236,88)" s:width="30" s:height="25" id="cell_$auto$simplemap.cc:157:simplemap_reduce$206">
    <s:alias val="$or"/>
    <s:alias val="$logic_or"/>
    <s:alias val="$_OR_"/>
    <path d="M0,25 L0,25 L15,25 A15 12.5 0 0 0 15,0 L0,0" class="cell_$auto$simplemap.cc:157:simplemap_reduce$206"/>
    <path d="M0,0 A30 25 0 0 1 0,25" class="cell_$auto$simplemap.cc:157:simplemap_reduce$206"/>
    <g s:x="3" s:y="5" s:pid="A"/>
    <g s:x="3" s:y="20" s:pid="B"/>
    <g s:x="30" s:y="12.5" s:pid="Y"/>
  </g>
  <g s:type="or" transform="translate(304,95.5)" s:width="30" s:height="25" id="cell_$auto$simplemap.cc:157:simplemap_reduce$208">
    <s:alias val="$or"/>
    <s:alias val="$logic_or"/>
    <s:alias val="$_OR_"/>
    <path d="M0,25 L0,25 L15,25 A15 12.5 0 0 0 15,0 L0,0" class="cell_$auto$simplemap.cc:157:simplemap_reduce$208"/>
    <path d="M0,0 A30 25 0 0 1 0,25" class="cell_$auto$simplemap.cc:157:simplemap_reduce$208"/>
    <g s:x="3" s:y="5" s:pid="A"/>
    <g s:x="3" s:y="20" s:pid="B"/>
    <g s:x="30" s:y="12.5" s:pid="Y"/>
  </g>
  <g s:type="not" transform="translate(587,593.5)" s:width="30" s:height="20" id="cell_$auto$simplemap.cc:227:simplemap_lognot$171">
    <s:alias val="$_NOT_"/>
    <s:alias val="$not"/>
    <s:alias val="$logic_not"/>
    <path d="M0,0 L0,20 L20,10 Z" class="cell_$auto$simplemap.cc:227:simplemap_lognot$171"/>
    <circle cx="23" cy="10" r="3" class="cell_$auto$simplemap.cc:227:simplemap_lognot$171"/>
    <g s:x="0" s:y="10" s:pid="A"/>
    <g s:x="25" s:y="10" s:pid="Y"/>
  </g>
  <g s:type="not" transform="translate(522,142)" s:width="30" s:height="20" id="cell_$auto$simplemap.cc:227:simplemap_lognot$184">
    <s:alias val="$_NOT_"/>
    <s:alias val="$not"/>
    <s:alias val="$logic_not"/>
    <path d="M0,0 L0,20 L20,10 Z" class="cell_$auto$simplemap.cc:227:simplemap_lognot$184"/>
    <circle cx="23" cy="10" r="3" class="cell_$auto$simplemap.cc:227:simplemap_lognot$184"/>
    <g s:x="0" s:y="10" s:pid="A"/>
    <g s:x="25" s:y="10" s:pid="Y"/>
  </g>
  <g s:type="not" transform="translate(440.5,248)" s:width="30" s:height="20" id="cell_$auto$simplemap.cc:227:simplemap_lognot$197">
    <s:alias val="$_NOT_"/>
    <s:alias val="$not"/>
    <s:alias val="$logic_not"/>
    <path d="M0,0 L0,20 L20,10 Z" class="cell_$auto$simplemap.cc:227:simplemap_lognot$197"/>
    <circle cx="23" cy="10" r="3" class="cell_$auto$simplemap.cc:227:simplemap_lognot$197"/>
    <g s:x="0" s:y="10" s:pid="A"/>
    <g s:x="25" s:y="10" s:pid="Y"/>
  </g>
  <g s:type="not" transform="translate(372.5,98)" s:width="30" s:height="20" id="cell_$auto$simplemap.cc:227:simplemap_lognot$210">
    <s:alias val="$_NOT_"/>
    <s:alias val="$not"/>
    <s:alias val="$logic_not"/>
    <path d="M0,0 L0,20 L20,10 Z" class="cell_$auto$simplemap.cc:227:simplemap_lognot$210"/>
    <circle cx="23" cy="10" r="3" class="cell_$auto$simplemap.cc:227:simplemap_lognot$210"/>
    <g s:x="0" s:y="10" s:pid="A"/>
    <g s:x="25" s:y="10" s:pid="Y"/>
  </g>
  <g s:type="mux" transform="translate(443.3333333333333,12)" s:width="20" s:height="40" id="cell_$auto$simplemap.cc:298:simplemap_mux$211">
    <s:alias val="$pmux"/>
    <s:alias val="$mux"/>
    <s:alias val="$_MUX_"/>
    <path d="M0,0 L20,10 L20,30 L0,40 Z" class="cell_$auto$simplemap.cc:298:simplemap_mux$211"/>
    <g s:x="0" s:y="10" s:pid="A"/>
    <g s:x="0" s:y="30" s:pid="B"/>
    <g s:x="10" s:y="35" s:pid="S"/>
    <g s:x="20" s:y="20" s:pid="Y"/>
  </g>
  <g s:type="mux" transform="translate(525.3333333333334,22)" s:width="20" s:height="40" id="cell_$auto$simplemap.cc:298:simplemap_mux$212">
    <s:alias val="$pmux"/>
    <s:alias val="$mux"/>
    <s:alias val="$_MUX_"/>
    <path d="M0,0 L20,10 L20,30 L0,40 Z" class="cell_$auto$simplemap.cc:298:simplemap_mux$212"/>
    <g s:x="0" s:y="10" s:pid="A"/>
    <g s:x="0" s:y="30" s:pid="B"/>
    <g s:x="10" s:y="35" s:pid="S"/>
    <g s:x="20" s:y="20" s:pid="Y"/>
  </g>
  <g s:type="mux" transform="translate(590.3333333333334,32)" s:width="20" s:height="40" id="cell_$auto$simplemap.cc:298:simplemap_mux$213">
    <s:alias val="$pmux"/>
    <s:alias val="$mux"/>
    <s:alias val="$_MUX_"/>
    <path d="M0,0 L20,10 L20,30 L0,40 Z" class="cell_$auto$simplemap.cc:298:simplemap_mux$213"/>
    <g s:x="0" s:y="10" s:pid="A"/>
    <g s:x="0" s:y="30" s:pid="B"/>
    <g s:x="10" s:y="35" s:pid="S"/>
    <g s:x="20" s:y="20" s:pid="Y"/>
  </g>
  <g s:type="mux" transform="translate(652,42)" s:width="20" s:height="40" id="cell_$auto$simplemap.cc:298:simplemap_mux$214">
    <s:alias val="$pmux"/>
    <s:alias val="$mux"/>
    <s:alias val="$_MUX_"/>
    <path d="M0,0 L20,10 L20,30 L0,40 Z" class="cell_$auto$simplemap.cc:298:simplemap_mux$214"/>
    <g s:x="0" s:y="10" s:pid="A"/>
    <g s:x="0" s:y="30" s:pid="B"/>
    <g s:x="10" s:y="35" s:pid="S"/>
    <g s:x="20" s:y="20" s:pid="Y"/>
  </g>
  <g s:type="not" transform="translate(372.5,33)" s:width="30" s:height="20" id="cell_$auto$simplemap.cc:46:simplemap_not$158">
    <s:alias val="$_NOT_"/>
    <s:alias val="$not"/>
    <s:alias val="$logic_not"/>
    <path d="M0,0 L0,20 L20,10 Z" class="cell_$auto$simplemap.cc:46:simplemap_not$158"/>
    <circle cx="23" cy="10" r="3" class="cell_$auto$simplemap.cc:46:simplemap_not$158"/>
    <g s:x="0" s:y="10" s:pid="A"/>
    <g s:x="25" s:y="10" s:pid="Y"/>
  </g>
  <g s:type="inputExt" transform="translate(306,165.5)" s:width="30" s:height="20" id="cell_i_a">
    <text x="15" y="-4" class="nodelabel cell_i_a" s:attribute="ref">i_a</text>
    <s:alias val="$_inputExt_"/>
    <path d="M0,0 L0,20 L15,20 L30,10 L15,0 Z" class="cell_i_a"/>
    <g s:x="28" s:y="10" s:pid="Y"/>
  </g>
  <g s:type="inputExt" transform="translate(374,315.5)" s:width="30" s:height="20" id="cell_i_b">
    <text x="15" y="-4" class="nodelabel cell_i_b" s:attribute="ref">i_b</text>
    <s:alias val="$_inputExt_"/>
    <path d="M0,0 L0,20 L15,20 L30,10 L15,0 Z" class="cell_i_b"/>
    <g s:x="28" s:y="10" s:pid="Y"/>
  </g>
  <g s:type="inputExt" transform="translate(12,431)" s:width="30" s:height="20" id="cell_i_op">
    <text x="15" y="-4" class="nodelabel cell_i_op" s:attribute="ref">i_op</text>
    <s:alias val="$_inputExt_"/>
    <path d="M0,0 L0,20 L15,20 L30,10 L15,0 Z" class="cell_i_op"/>
    <g s:x="28" s:y="10" s:pid="Y"/>
  </g>
  <g s:type="outputExt" transform="translate(707,52)" s:width="30" s:height="20" id="cell_o_res">
    <text x="15" y="-4" class="nodelabel cell_o_res" s:attribute="ref">o_res</text>
    <s:alias val="$_outputExt_"/>
    <path d="M30,0 L30,20 L15,20 L0,10 L15,0 Z" class="cell_o_res"/>
    <g s:x="0" s:y="10" s:pid="A"/>
  </g>
  <g s:type="constant" transform="translate(77,300.5)" s:width="30" s:height="20" id="cell_0">
    <text x="15" y="-4" class="nodelabel cell_0" s:attribute="ref">0</text>
    <s:alias val="$_constant_"/>
    <rect width="30" height="20" class="cell_0"/>
    <g s:x="30" s:y="10" s:pid="Y"/>
  </g>
  <g s:type="constant" transform="translate(77,365.5)" s:width="30" s:height="20" id="cell_1">
    <text x="15" y="-4" class="nodelabel cell_1" s:attribute="ref">1</text>
    <s:alias val="$_constant_"/>
    <rect width="30" height="20" class="cell_1"/>
    <g s:x="30" s:y="10" s:pid="Y"/>
  </g>
  <g s:type="split" transform="translate(92.25,420.5)" s:width="5" s:height="40" id="cell_$split$,4,5,6,">
    <rect width="5" height="60" class="splitjoinBody" s:generic="body"/>
    <s:alias val="$_split_"/>
    <g s:x="0" s:y="20" s:pid="in"/>
    <g transform="translate(4,10)" s:x="4" s:y="10" s:pid="out0">
      <text x="5" y="-4">0</text>
    </g>
    <g transform="translate(4,30)" s:x="4" s:y="10" s:pid="out0">
      <text x="5" y="-4">1</text>
    </g>
    <g transform="translate(4,50)" s:x="4" s:y="10" s:pid="out0">
      <text x="5" y="-4">2</text>
    </g>
  </g>
  <line x1="334" x2="356" y1="175.5" y2="175.5" class="net_2"/>
  <line x1="356" x2="356" y1="175.5" y2="345.5" class="net_2"/>
  <circle cx="356" cy="175.5" r="2" style="fill:#000" class="net_2"/>
  <line x1="356" x2="587" y1="345.5" y2="345.5" class="net_2"/>
  <line x1="334" x2="356" y1="175.5" y2="175.5" class="net_2"/>
  <line x1="356" x2="356" y1="175.5" y2="87" class="net_2"/>
  <circle cx="356" cy="87" r="2" style="fill:#000" class="net_2"/>
  <line x1="356" x2="525" y1="87" y2="87" class="net_2"/>
  <line x1="334" x2="442" y1="175.5" y2="175.5" class="net_2"/>
  <line x1="334" x2="356" y1="175.5" y2="175.5" class="net_2"/>
  <line x1="356" x2="356" y1="175.5" y2="43" class="net_2"/>
  <line x1="356" x2="372.5" y1="43" y2="43" class="net_2"/>
  <line x1="402" x2="414" y1="325.5" y2="325.5" class="net_3"/>
  <line x1="414" x2="414" y1="325.5" y2="360.5" class="net_3"/>
  <circle cx="414" cy="325.5" r="2" style="fill:#000" class="net_3"/>
  <line x1="414" x2="587" y1="360.5" y2="360.5" class="net_3"/>
  <line x1="402" x2="502" y1="325.5" y2="325.5" class="net_3"/>
  <line x1="502" x2="502" y1="325.5" y2="102" class="net_3"/>
  <line x1="502" x2="525" y1="102" y2="102" class="net_3"/>
  <line x1="402" x2="414" y1="325.5" y2="325.5" class="net_3"/>
  <line x1="414" x2="414" y1="325.5" y2="190.5" class="net_3"/>
  <line x1="414" x2="442" y1="190.5" y2="190.5" class="net_3"/>
  <line x1="97.25" x2="117" y1="431" y2="431" class="net_4"/>
  <line x1="117" x2="117" y1="431" y2="581" class="net_4"/>
  <circle cx="117" cy="431" r="2" style="fill:#000" class="net_4"/>
  <line x1="117" x2="374" y1="581" y2="581" class="net_4"/>
  <line x1="97.25" x2="306" y1="431" y2="431" class="net_4"/>
  <line x1="97.25" x2="117" y1="431" y2="431" class="net_4"/>
  <line x1="117" x2="117" y1="431" y2="235.5" class="net_4"/>
  <circle cx="117" cy="235.5" r="2" style="fill:#000" class="net_4"/>
  <line x1="117" x2="238" y1="235.5" y2="235.5" class="net_4"/>
  <line x1="97.25" x2="117" y1="431" y2="431" class="net_4"/>
  <line x1="117" x2="117" y1="431" y2="85.5" class="net_4"/>
  <line x1="117" x2="170" y1="85.5" y2="85.5" class="net_4"/>
  <line x1="107" x2="147" y1="310.5" y2="310.5" class="net_39"/>
  <line x1="147" x2="147" y1="310.5" y2="596" class="net_39"/>
  <circle cx="147" cy="310.5" r="2" style="fill:#000" class="net_39"/>
  <circle cx="147" cy="596" r="2" style="fill:#000" class="net_39"/>
  <line x1="147" x2="374" y1="596" y2="596" class="net_39"/>
  <line x1="107" x2="147" y1="310.5" y2="310.5" class="net_39"/>
  <line x1="147" x2="147" y1="310.5" y2="686" class="net_39"/>
  <line x1="147" x2="442" y1="686" y2="686" class="net_39"/>
  <line x1="107" x2="147" y1="310.5" y2="310.5" class="net_39"/>
  <line x1="147" x2="147" y1="310.5" y2="536" class="net_39"/>
  <circle cx="147" cy="536" r="2" style="fill:#000" class="net_39"/>
  <line x1="147" x2="374" y1="536" y2="536" class="net_39"/>
  <line x1="107" x2="147" y1="310.5" y2="310.5" class="net_39"/>
  <line x1="147" x2="147" y1="310.5" y2="250.5" class="net_39"/>
  <circle cx="147" cy="250.5" r="2" style="fill:#000" class="net_39"/>
  <line x1="147" x2="238" y1="250.5" y2="250.5" class="net_39"/>
  <line x1="107" x2="238" y1="310.5" y2="310.5" class="net_39"/>
  <line x1="107" x2="147" y1="310.5" y2="310.5" class="net_39"/>
  <line x1="147" x2="147" y1="310.5" y2="160.5" class="net_39"/>
  <circle cx="147" cy="160.5" r="2" style="fill:#000" class="net_39"/>
  <line x1="147" x2="170" y1="160.5" y2="160.5" class="net_39"/>
  <line x1="107" x2="147" y1="310.5" y2="310.5" class="net_39"/>
  <line x1="147" x2="147" y1="310.5" y2="22" class="net_39"/>
  <line x1="147" x2="443.3333333333333" y1="22" y2="22" class="net_39"/>
  <line x1="97.25" x2="127" y1="451" y2="451" class="net_5"/>
  <line x1="127" x2="127" y1="451" y2="641" class="net_5"/>
  <circle cx="127" cy="451" r="2" style="fill:#000" class="net_5"/>
  <line x1="127" x2="374" y1="641" y2="641" class="net_5"/>
  <line x1="97.25" x2="127" y1="451" y2="451" class="net_5"/>
  <line x1="127" x2="127" y1="451" y2="491" class="net_5"/>
  <circle cx="127" cy="491" r="2" style="fill:#000" class="net_5"/>
  <line x1="127" x2="306" y1="491" y2="491" class="net_5"/>
  <line x1="97.25" x2="127" y1="451" y2="451" class="net_5"/>
  <line x1="127" x2="127" y1="451" y2="295.5" class="net_5"/>
  <circle cx="127" cy="295.5" r="2" style="fill:#000" class="net_5"/>
  <line x1="127" x2="238" y1="295.5" y2="295.5" class="net_5"/>
  <line x1="97.25" x2="127" y1="451" y2="451" class="net_5"/>
  <line x1="127" x2="127" y1="451" y2="145.5" class="net_5"/>
  <line x1="127" x2="170" y1="145.5" y2="145.5" class="net_5"/>
  <line x1="107" x2="157" y1="375.5" y2="375.5" class="net_40"/>
  <line x1="157" x2="157" y1="375.5" y2="656" class="net_40"/>
  <circle cx="157" cy="375.5" r="2" style="fill:#000" class="net_40"/>
  <line x1="157" x2="374" y1="656" y2="656" class="net_40"/>
  <line x1="107" x2="157" y1="375.5" y2="375.5" class="net_40"/>
  <line x1="157" x2="157" y1="375.5" y2="446" class="net_40"/>
  <circle cx="157" cy="446" r="2" style="fill:#000" class="net_40"/>
  <line x1="157" x2="306" y1="446" y2="446" class="net_40"/>
  <line x1="107" x2="157" y1="375.5" y2="375.5" class="net_40"/>
  <line x1="157" x2="157" y1="375.5" y2="506" class="net_40"/>
  <circle cx="157" cy="506" r="2" style="fill:#000" class="net_40"/>
  <line x1="157" x2="306" y1="506" y2="506" class="net_40"/>
  <line x1="107" x2="278" y1="375.5" y2="375.5" class="net_40"/>
  <line x1="278" x2="278" y1="375.5" y2="340.5" class="net_40"/>
  <line x1="278" x2="306" y1="340.5" y2="340.5" class="net_40"/>
  <line x1="107" x2="157" y1="375.5" y2="375.5" class="net_40"/>
  <line x1="157" x2="157" y1="375.5" y2="100.5" class="net_40"/>
  <line x1="157" x2="170" y1="100.5" y2="100.5" class="net_40"/>
  <line x1="107" x2="157" y1="375.5" y2="375.5" class="net_40"/>
  <line x1="157" x2="157" y1="375.5" y2="190.5" class="net_40"/>
  <circle cx="157" cy="190.5" r="2" style="fill:#000" class="net_40"/>
  <line x1="157" x2="238" y1="190.5" y2="190.5" class="net_40"/>
  <line x1="97.25" x2="137" y1="471" y2="471" class="net_6"/>
  <line x1="137" x2="137" y1="471" y2="671" class="net_6"/>
  <circle cx="137" cy="471" r="2" style="fill:#000" class="net_6"/>
  <line x1="137" x2="442" y1="671" y2="671" class="net_6"/>
  <line x1="97.25" x2="137" y1="471" y2="471" class="net_6"/>
  <line x1="137" x2="137" y1="471" y2="521" class="net_6"/>
  <circle cx="137" cy="521" r="2" style="fill:#000" class="net_6"/>
  <line x1="137" x2="374" y1="521" y2="521" class="net_6"/>
  <line x1="97.25" x2="137" y1="471" y2="471" class="net_6"/>
  <line x1="137" x2="137" y1="471" y2="325.5" class="net_6"/>
  <circle cx="137" cy="325.5" r="2" style="fill:#000" class="net_6"/>
  <line x1="137" x2="306" y1="325.5" y2="325.5" class="net_6"/>
  <line x1="97.25" x2="137" y1="471" y2="471" class="net_6"/>
  <line x1="137" x2="137" y1="471" y2="175.5" class="net_6"/>
  <line x1="137" x2="238" y1="175.5" y2="175.5" class="net_6"/>
  <line x1="404" x2="443" y1="588.5" y2="588.5" class="net_11"/>
  <line x1="404" x2="414" y1="648.5" y2="648.5" class="net_12"/>
  <line x1="414" x2="414" y1="648.5" y2="603.5" class="net_12"/>
  <line x1="414" x2="443" y1="603.5" y2="603.5" class="net_12"/>
  <line x1="470" x2="525" y1="596" y2="596" class="net_23"/>
  <line x1="472" x2="482" y1="678.5" y2="678.5" class="net_13"/>
  <line x1="482" x2="482" y1="678.5" y2="611" class="net_13"/>
  <line x1="482" x2="525" y1="611" y2="611" class="net_13"/>
  <line x1="336" x2="375" y1="438.5" y2="438.5" class="net_14"/>
  <line x1="336" x2="346" y1="498.5" y2="498.5" class="net_15"/>
  <line x1="346" x2="346" y1="498.5" y2="453.5" class="net_15"/>
  <line x1="346" x2="375" y1="453.5" y2="453.5" class="net_15"/>
  <line x1="402" x2="443" y1="446" y2="446" class="net_25"/>
  <line x1="404" x2="414" y1="528.5" y2="528.5" class="net_16"/>
  <line x1="414" x2="414" y1="528.5" y2="461" class="net_16"/>
  <line x1="414" x2="443" y1="461" y2="461" class="net_16"/>
  <line x1="268" x2="307" y1="243" y2="243" class="net_17"/>
  <line x1="268" x2="278" y1="303" y2="303" class="net_18"/>
  <line x1="278" x2="278" y1="303" y2="258" class="net_18"/>
  <line x1="278" x2="307" y1="258" y2="258" class="net_18"/>
  <line x1="334" x2="375" y1="250.5" y2="250.5" class="net_27"/>
  <line x1="336" x2="346" y1="333" y2="333" class="net_19"/>
  <line x1="346" x2="346" y1="333" y2="265.5" class="net_19"/>
  <line x1="346" x2="375" y1="265.5" y2="265.5" class="net_19"/>
  <line x1="200" x2="239" y1="93" y2="93" class="net_20"/>
  <line x1="200" x2="210" y1="153" y2="153" class="net_21"/>
  <line x1="210" x2="210" y1="153" y2="108" class="net_21"/>
  <line x1="210" x2="239" y1="108" y2="108" class="net_21"/>
  <line x1="266" x2="307" y1="100.5" y2="100.5" class="net_29"/>
  <line x1="268" x2="278" y1="183" y2="183" class="net_22"/>
  <line x1="278" x2="278" y1="183" y2="115.5" class="net_22"/>
  <line x1="278" x2="307" y1="115.5" y2="115.5" class="net_22"/>
  <line x1="552" x2="587" y1="603.5" y2="603.5" class="net_24"/>
  <line x1="470" x2="512" y1="453.5" y2="453.5" class="net_26"/>
  <line x1="512" x2="512" y1="453.5" y2="152" class="net_26"/>
  <line x1="512" x2="522" y1="152" y2="152" class="net_26"/>
  <line x1="402" x2="440.5" y1="258" y2="258" class="net_28"/>
  <line x1="334" x2="372.5" y1="108" y2="108" class="net_30"/>
  <line x1="397.5" x2="414" y1="43" y2="43" class="net_35"/>
  <line x1="414" x2="414" y1="43" y2="42" class="net_35"/>
  <line x1="414" x2="443.3333333333333" y1="42" y2="42" class="net_35"/>
  <line x1="397.5" x2="453.3333333333333" y1="108" y2="108" class="net_34"/>
  <line x1="453.3333333333333" x2="453.3333333333333" y1="108" y2="47" class="net_34"/>
  <line x1="463.3333333333333" x2="525.3333333333334" y1="32" y2="32" class="net_36"/>
  <line x1="472" x2="482" y1="183" y2="183" class="net_10"/>
  <line x1="482" x2="482" y1="183" y2="52" class="net_10"/>
  <line x1="482" x2="525.3333333333334" y1="52" y2="52" class="net_10"/>
  <line x1="465.5" x2="492" y1="258" y2="258" class="net_33"/>
  <line x1="492" x2="492" y1="258" y2="72" class="net_33"/>
  <line x1="492" x2="535.3333333333334" y1="72" y2="72" class="net_33"/>
  <line x1="535.3333333333334" x2="535.3333333333334" y1="72" y2="57" class="net_33"/>
  <line x1="545.3333333333334" x2="590.3333333333334" y1="42" y2="42" class="net_37"/>
  <line x1="552" x2="562" y1="94.5" y2="94.5" class="net_9"/>
  <line x1="562" x2="562" y1="94.5" y2="62" class="net_9"/>
  <line x1="562" x2="590.3333333333334" y1="62" y2="62" class="net_9"/>
  <line x1="547" x2="600.3333333333334" y1="152" y2="152" class="net_32"/>
  <line x1="600.3333333333334" x2="600.3333333333334" y1="152" y2="67" class="net_32"/>
  <line x1="610.3333333333334" x2="652" y1="52" y2="52" class="net_38"/>
  <line x1="617" x2="627" y1="353" y2="353" class="net_8"/>
  <line x1="627" x2="627" y1="353" y2="72" class="net_8"/>
  <line x1="627" x2="652" y1="72" y2="72" class="net_8"/>
  <line x1="612" x2="662" y1="603.5" y2="603.5" class="net_31"/>
  <line x1="662" x2="662" y1="603.5" y2="77" class="net_31"/>
  <line x1="672" x2="707" y1="62" y2="62" class="net_7"/>
  <line x1="40" x2="92.25" y1="441" y2="441" class="net_4,5,6"/>
</svg>
