<svg xmlns="http://www.w3.org/2000/svg" xmlns:xlink="http://www.w3.org/1999/xlink" xmlns:s="https://github.com/nturley/netlistsvg" width="376" height="380">
  <style>svg {
    stroke:#000;
    fill:none;
  }
  text {
    fill:#000;
    stroke:none;
    font-size:10px;
    font-weight: bold;
    font-family: "Courier New", monospace;
  }
  .nodelabel {
    text-anchor: middle;
  }
  .inputPortLabel {
    text-anchor: end;
  }
  .splitjoinBody {
    fill:#000;
  }</style>
  <g s:type="generic" transform="translate(143,130)" s:width="30" s:height="40" id="cell_gen_flags[0].u_flag_bit">
    <text x="15" y="-4" class="nodelabel cell_gen_flags[0].u_flag_bit" s:attribute="ref">flag_reg_bit</text>
    <rect width="30" height="60" s:generic="body" class="cell_gen_flags[0].u_flag_bit"/>
    <g transform="translate(0,10)" s:x="0" s:y="10" s:pid="in0" id="port_gen_flags[0].u_flag_bit~i_clk">
      <text x="-3" y="-4" class="inputPortLabel cell_gen_flags[0].u_flag_bit">i_clk</text>
    </g>
    <g transform="translate(0,30)" s:x="0" s:y="10" s:pid="in0" id="port_gen_flags[0].u_flag_bit~i_d">
      <text x="-3" y="-4" class="inputPortLabel cell_gen_flags[0].u_flag_bit">i_d</text>
    </g>
    <g transform="translate(0,50)" s:x="0" s:y="10" s:pid="in0" id="port_gen_flags[0].u_flag_bit~i_rst_n">
      <text x="-3" y="-4" class="inputPortLabel cell_gen_flags[0].u_flag_bit">i_rst_n</text>
    </g>
    <g transform="translate(30,10)" s:x="30" s:y="10" s:pid="out0" id="port_gen_flags[0].u_flag_bit~o_q">
      <text x="5" y="-4" style="fill:#000; stroke:none" class="cell_gen_flags[0].u_flag_bit">o_q</text>
    </g>
  </g>
  <g s:type="generic" transform="translate(143,305)" s:width="30" s:height="40" id="cell_gen_flags[1].u_flag_bit">
    <text x="15" y="-4" class="nodelabel cell_gen_flags[1].u_flag_bit" s:attribute="ref">flag_reg_bit</text>
    <rect width="30" height="60" s:generic="body" class="cell_gen_flags[1].u_flag_bit"/>
    <g transform="translate(0,10)" s:x="0" s:y="10" s:pid="in0" id="port_gen_flags[1].u_flag_bit~i_clk">
      <text x="-3" y="-4" class="inputPortLabel cell_gen_flags[1].u_flag_bit">i_clk</text>
    </g>
    <g transform="translate(0,30)" s:x="0" s:y="10" s:pid="in0" id="port_gen_flags[1].u_flag_bit~i_d">
      <text x="-3" y="-4" class="inputPortLabel cell_gen_flags[1].u_flag_bit">i_d</text>
    </g>
    <g transform="translate(0,50)" s:x="0" s:y="10" s:pid="in0" id="port_gen_flags[1].u_flag_bit~i_rst_n">
      <text x="-3" y="-4" class="inputPortLabel cell_gen_flags[1].u_flag_bit">i_rst_n</text>
    </g>
    <g transform="translate(30,10)" s:x="30" s:y="10" s:pid="out0" id="port_gen_flags[1].u_flag_bit~o_q">
      <text x="5" y="-4" style="fill:#000; stroke:none" class="cell_gen_flags[1].u_flag_bit">o_q</text>
    </g>
  </g>
  <g s:type="generic" transform="translate(143,22)" s:width="30" s:height="40" id="cell_gen_flags[2].u_flag_bit">
    <text x="15" y="-4" class="nodelabel cell_gen_flags[2].u_flag_bit" s:attribute="ref">flag_reg_bit</text>
    <rect width="30" height="60" s:generic="body" class="cell_gen_flags[2].u_flag_bit"/>
    <g transform="translate(0,10)" s:x="0" s:y="10" s:pid="in0" id="port_gen_flags[2].u_flag_bit~i_clk">
      <text x="-3" y="-4" class="inputPortLabel cell_gen_flags[2].u_flag_bit">i_clk</text>
    </g>
    <g transform="translate(0,30)" s:x="0" s:y="10" s:pid="in0" id="port_gen_flags[2].u_flag_bit~i_d">
      <text x="-3" y="-4" class="inputPortLabel cell_gen_flags[2].u_flag_bit">i_d</text>
    </g>
    <g transform="translate(0,50)" s:x="0" s:y="10" s:pid="in0" id="port_gen_flags[2].u_flag_bit~i_rst_n">
      <text x="-3" y="-4" class="inputPortLabel cell_gen_flags[2].u_flag_bit">i_rst_n</text>
    </g>
    <g transform="translate(30,10)" s:x="30" s:y="10" s:pid="out0" id="port_gen_flags[2].u_flag_bit~o_q">
      <text x="5" y="-4" style="fill:#000; stroke:none" class="cell_gen_flags[2].u_flag_bit">o_q</text>
    </g>
  </g>
  <g s:type="inputExt" transform="translate(12,130.5)" s:width="30" s:height="20" id="cell_i_clk">
    <text x="15" y="-4" class="nodelabel cell_i_clk" s:attribute="ref">i_clk</text>
    <s:alias val="$_inputExt_"/>
    <path d="M0,0 L0,20 L15,20 L30,10 L15,0 Z" class="cell_i_clk"/>
    <g s:x="28" s:y="10" s:pid="Y"/>
  </g>
  <g s:type="inputExt" transform="translate(12,260.5)" s:width="30" s:height="20" id="cell_i_rst_n">
    <text x="15" y="-4" class="nodelabel cell_i_rst_n" s:attribute="ref">i_rst_n</text>
    <s:alias val="$_inputExt_"/>
    <path d="M0,0 L0,20 L15,20 L30,10 L15,0 Z" class="cell_i_rst_n"/>
    <g s:x="28" s:y="10" s:pid="Y"/>
  </g>
  <g s:type="inputExt" transform="translate(12,42.5)" s:width="30" s:height="20" id="cell_i_flag_z">
    <text x="15" y="-4" class="nodelabel cell_i_flag_z" s:attribute="ref">i_flag_z</text>
    <s:alias val="$_inputExt_"/>
    <path d="M0,0 L0,20 L15,20 L30,10 L15,0 Z" class="cell_i_flag_z"/>
    <g s:x="28" s:y="10" s:pid="Y"/>
  </g>
  <g s:type="inputExt" transform="translate(12,325.5)" s:width="30" s:height="20" id="cell_i_flag_n">
    <text x="15" y="-4" class="nodelabel cell_i_flag_n" s:attribute="ref">i_flag_n</text>
    <s:alias val="$_inputExt_"/>
    <path d="M0,0 L0,20 L15,20 L30,10 L15,0 Z" class="cell_i_flag_n"/>
    <g s:x="28" s:y="10" s:pid="Y"/>
  </g>
  <g s:type="inputExt" transform="translate(12,195.5)" s:width="30" s:height="20" id="cell_i_flag_v">
    <text x="15" y="-4" class="nodelabel cell_i_flag_v" s:attribute="ref">i_flag_v</text>
    <s:alias val="$_inputExt_"/>
    <path d="M0,0 L0,20 L15,20 L30,10 L15,0 Z" class="cell_i_flag_v"/>
    <g s:x="28" s:y="10" s:pid="Y"/>
  </g>
  <g s:type="outputExt" transform="translate(316,22.5)" s:width="30" s:height="20" id="cell_o_flag_z">
    <text x="15" y="-4" class="nodelabel cell_o_flag_z" s:attribute="ref">o_flag_z</text>
    <s:alias val="$_outputExt_"/>
    <path d="M30,0 L30,20 L15,20 L0,10 L15,0 Z" class="cell_o_flag_z"/>
    <g s:x="0" s:y="10" s:pid="A"/>
  </g>
  <g s:type="outputExt" transform="translate(316,305.5)" s:width="30" s:height="20" id="cell_o_flag_n">
    <text x="15" y="-4" class="nodelabel cell_o_flag_n" s:attribute="ref">o_flag_n</text>
    <s:alias val="$_outputExt_"/>
    <path d="M30,0 L30,20 L15,20 L0,10 L15,0 Z" class="cell_o_flag_n"/>
    <g s:x="0" s:y="10" s:pid="A"/>
  </g>
  <g s:type="outputExt" transform="translate(316,130.5)" s:width="30" s:height="20" id="cell_o_flag_v">
    <text x="15" y="-4" class="nodelabel cell_o_flag_v" s:attribute="ref">o_flag_v</text>
    <s:alias val="$_outputExt_"/>
    <path d="M30,0 L30,20 L15,20 L0,10 L15,0 Z" class="cell_o_flag_v"/>
    <g s:x="0" s:y="10" s:pid="A"/>
  </g>
  <line x1="40" x2="143" y1="140.5" y2="140.5" class="net_2"/>
  <line x1="40" x2="90" y1="140.5" y2="140.5" class="net_2"/>
  <line x1="90" x2="90" y1="140.5" y2="315.5" class="net_2"/>
  <circle cx="90" cy="140.5" r="2" style="fill:#000" class="net_2"/>
  <line x1="90" x2="143" y1="315.5" y2="315.5" class="net_2"/>
  <line x1="40" x2="90" y1="140.5" y2="140.5" class="net_2"/>
  <line x1="90" x2="90" y1="140.5" y2="32.5" class="net_2"/>
  <line x1="90" x2="143" y1="32.5" y2="32.5" class="net_2"/>
  <line x1="40" x2="70" y1="205.5" y2="205.5" class="net_6"/>
  <line x1="70" x2="70" y1="205.5" y2="160.5" class="net_6"/>
  <line x1="70" x2="143" y1="160.5" y2="160.5" class="net_6"/>
  <line x1="40" x2="80" y1="270.5" y2="270.5" class="net_3"/>
  <line x1="80" x2="80" y1="270.5" y2="180.5" class="net_3"/>
  <circle cx="80" cy="270.5" r="2" style="fill:#000" class="net_3"/>
  <circle cx="80" cy="180.5" r="2" style="fill:#000" class="net_3"/>
  <line x1="80" x2="143" y1="180.5" y2="180.5" class="net_3"/>
  <line x1="40" x2="80" y1="270.5" y2="270.5" class="net_3"/>
  <line x1="80" x2="80" y1="270.5" y2="355.5" class="net_3"/>
  <line x1="80" x2="143" y1="355.5" y2="355.5" class="net_3"/>
  <line x1="40" x2="80" y1="270.5" y2="270.5" class="net_3"/>
  <line x1="80" x2="80" y1="270.5" y2="72.5" class="net_3"/>
  <line x1="80" x2="143" y1="72.5" y2="72.5" class="net_3"/>
  <line x1="40" x2="143" y1="335.5" y2="335.5" class="net_5"/>
  <line x1="40" x2="143" y1="52.5" y2="52.5" class="net_4"/>
  <line x1="174" x2="316" y1="32.5" y2="32.5" class="net_7"/>
  <line x1="174" x2="316" y1="315.5" y2="315.5" class="net_8"/>
  <line x1="174" x2="316" y1="140.5" y2="140.5" class="net_9"/>
</svg>
