<svg xmlns="http://www.w3.org/2000/svg" xmlns:xlink="http://www.w3.org/1999/xlink" xmlns:s="https://github.com/nturley/netlistsvg" width="437" height="326">
  <style>svg {
    stroke:#000;
    fill:none;
  }
  text {
    fill:#000;
    stroke:none;
    font-size:10px;
    font-weight: bold;
    font-family: "Courier New", monospace;
  }
  .nodelabel {
    text-anchor: middle;
  }
  .inputPortLabel {
    text-anchor: end;
  }
  .splitjoinBody {
    fill:#000;
  }</style>
  <g s:type="generic" transform="translate(190,226)" s:width="30" s:height="40" id="cell_u_ext12">
    <text x="15" y="-4" class="nodelabel cell_u_ext12" s:attribute="ref">imm_generator_ext_12to16</text>
    <rect width="30" height="20" s:generic="body" class="cell_u_ext12"/>
    <g transform="translate(0,10)" s:x="0" s:y="10" s:pid="in0" id="port_u_ext12~i_imm">
      <text x="-3" y="-4" class="inputPortLabel cell_u_ext12">i_imm</text>
    </g>
    <g transform="translate(30,10)" s:x="30" s:y="10" s:pid="out0" id="port_u_ext12~o_q">
      <text x="5" y="-4" style="fill:#000; stroke:none" class="cell_u_ext12">o_q</text>
    </g>
  </g>
  <g s:type="generic" transform="translate(190,22)" s:width="30" s:height="40" id="cell_u_ext4a">
    <text x="15" y="-4" class="nodelabel cell_u_ext4a" s:attribute="ref">imm_generator_ext_4to16</text>
    <rect width="30" height="20" s:generic="body" class="cell_u_ext4a"/>
    <g transform="translate(0,10)" s:x="0" s:y="10" s:pid="in0" id="port_u_ext4a~i_imm">
      <text x="-3" y="-4" class="inputPortLabel cell_u_ext4a">i_imm</text>
    </g>
    <g transform="translate(30,10)" s:x="30" s:y="10" s:pid="out0" id="port_u_ext4a~o_q">
      <text x="5" y="-4" style="fill:#000; stroke:none" class="cell_u_ext4a">o_q</text>
    </g>
  </g>
  <g s:type="generic" transform="translate(190,90)" s:width="30" s:height="40" id="cell_u_ext4b">
    <text x="15" y="-4" class="nodelabel cell_u_ext4b" s:attribute="ref">imm_generator_ext_4to16</text>
    <rect width="30" height="20" s:generic="body" class="cell_u_ext4b"/>
    <g transform="translate(0,10)" s:x="0" s:y="10" s:pid="in0" id="port_u_ext4b~i_imm">
      <text x="-3" y="-4" class="inputPortLabel cell_u_ext4b">i_imm</text>
    </g>
    <g transform="translate(30,10)" s:x="30" s:y="10" s:pid="out0" id="port_u_ext4b~o_q">
      <text x="5" y="-4" style="fill:#000; stroke:none" class="cell_u_ext4b">o_q</text>
    </g>
  </g>
  <g s:type="generic" transform="translate(190,158)" s:width="30" s:height="40" id="cell_u_ext8">
    <text x="15" y="-4" class="nodelabel cell_u_ext8" s:attribute="ref">imm_generator_ext_8to16</text>
    <rect width="30" height="20" s:generic="body" class="cell_u_ext8"/>
    <g transform="translate(0,10)" s:x="0" s:y="10" s:pid="in0" id="port_u_ext8~i_imm">
      <text x="-3" y="-4" class="inputPortLabel cell_u_ext8">i_imm</text>
    </g>
    <g transform="translate(30,10)" s:x="30" s:y="10" s:pid="out0" id="port_u_ext8~o_q">
      <text x="5" y="-4" style="fill:#000; stroke:none" class="cell_u_ext8">o_q</text>
    </g>
  </g>
  <g s:type="generic" transform="translate(306,118)" s:width="30" s:height="40" id="cell_u_imm_mux">
    <text x="15" y="-4" class="nodelabel cell_u_imm_mux" s:attribute="ref">imm_generator_mux_4to1</text>
    <rect width="30" height="100" s:generic="body" class="cell_u_imm_mux"/>
    <g transform="translate(0,10)" s:x="0" s:y="10" s:pid="in0" id="port_u_imm_mux~i_d0">
      <text x="-3" y="-4" class="inputPortLabel cell_u_imm_mux">i_d0</text>
    </g>
    <g transform="translate(0,30)" s:x="0" s:y="10" s:pid="in0" id="port_u_imm_mux~i_d1">
      <text x="-3" y="-4" class="inputPortLabel cell_u_imm_mux">i_d1</text>
    </g>
    <g transform="translate(0,50)" s:x="0" s:y="10" s:pid="in0" id="port_u_imm_mux~i_d2">
      <text x="-3" y="-4" class="inputPortLabel cell_u_imm_mux">i_d2</text>
    </g>
    <g transform="translate(0,70)" s:x="0" s:y="10" s:pid="in0" id="port_u_imm_mux~i_d3">
      <text x="-3" y="-4" class="inputPortLabel cell_u_imm_mux">i_d3</text>
    </g>
    <g transform="translate(0,90)" s:x="0" s:y="10" s:pid="in0" id="port_u_imm_mux~i_sel">
      <text x="-3" y="-4" class="inputPortLabel cell_u_imm_mux">i_sel</text>
    </g>
    <g transform="translate(30,10)" s:x="30" s:y="10" s:pid="out0" id="port_u_imm_mux~o_q">
      <text x="5" y="-4" style="fill:#000; stroke:none" class="cell_u_imm_mux">o_q</text>
    </g>
  </g>
  <g s:type="inputExt" transform="translate(12,236.5)" s:width="30" s:height="20" id="cell_i_instr">
    <text x="15" y="-4" class="nodelabel cell_i_instr" s:attribute="ref">i_instr</text>
    <s:alias val="$_inputExt_"/>
    <path d="M0,0 L0,20 L15,20 L30,10 L15,0 Z" class="cell_i_instr"/>
    <g s:x="28" s:y="10" s:pid="Y"/>
  </g>
  <g s:type="inputExt" transform="translate(162,294)" s:width="30" s:height="20" id="cell_i_imm_src_sel">
    <text x="15" y="-4" class="nodelabel cell_i_imm_src_sel" s:attribute="ref">i_imm_src_sel</text>
    <s:alias val="$_inputExt_"/>
    <path d="M0,0 L0,20 L15,20 L30,10 L15,0 Z" class="cell_i_imm_src_sel"/>
    <g s:x="28" s:y="10" s:pid="Y"/>
  </g>
  <g s:type="outputExt" transform="translate(395,118.5)" s:width="30" s:height="20" id="cell_o_imm">
    <text x="15" y="-4" class="nodelabel cell_o_imm" s:attribute="ref">o_imm</text>
    <s:alias val="$_outputExt_"/>
    <path d="M30,0 L30,20 L15,20 L0,10 L15,0 Z" class="cell_o_imm"/>
    <g s:x="0" s:y="10" s:pid="A"/>
  </g>
  <g s:type="split" transform="translate(89,226)" s:width="5" s:height="40" id="cell_$split$,2,3,4,5,6,7,8,9,10,11,12,13,14,15,16,17,">
    <rect width="5" height="80" class="splitjoinBody" s:generic="body"/>
    <s:alias val="$_split_"/>
    <g s:x="0" s:y="20" s:pid="in"/>
    <g transform="translate(4,10)" s:x="4" s:y="10" s:pid="out0">
      <text x="5" y="-4">4:15</text>
    </g>
    <g transform="translate(4,30)" s:x="4" s:y="10" s:pid="out0">
      <text x="5" y="-4">4:7</text>
    </g>
    <g transform="translate(4,50)" s:x="4" s:y="10" s:pid="out0">
      <text x="5" y="-4">12:15</text>
    </g>
    <g transform="translate(4,70)" s:x="4" s:y="10" s:pid="out0">
      <text x="5" y="-4">4:11</text>
    </g>
  </g>
  <line x1="94" x2="190" y1="236.5" y2="236.5" class="net_6,7,8,9,10,11,12,13,14,15,16,17"/>
  <line x1="94" x2="129" y1="256.5" y2="256.5" class="net_6,7,8,9"/>
  <line x1="129" x2="129" y1="256.5" y2="32.5" class="net_6,7,8,9"/>
  <line x1="129" x2="190" y1="32.5" y2="32.5" class="net_6,7,8,9"/>
  <line x1="94" x2="139" y1="276.5" y2="276.5" class="net_14,15,16,17"/>
  <line x1="139" x2="139" y1="276.5" y2="100.5" class="net_14,15,16,17"/>
  <line x1="139" x2="190" y1="100.5" y2="100.5" class="net_14,15,16,17"/>
  <line x1="94" x2="149" y1="296.5" y2="296.5" class="net_6,7,8,9,10,11,12,13"/>
  <line x1="149" x2="149" y1="296.5" y2="168.5" class="net_6,7,8,9,10,11,12,13"/>
  <line x1="149" x2="190" y1="168.5" y2="168.5" class="net_6,7,8,9,10,11,12,13"/>
  <line x1="221" x2="260" y1="32.5" y2="32.5" class="net_52,53,54,55,56,57,58,59,60,61,62,63,64,65,66,67"/>
  <line x1="260" x2="260" y1="32.5" y2="128.5" class="net_52,53,54,55,56,57,58,59,60,61,62,63,64,65,66,67"/>
  <line x1="260" x2="306" y1="128.5" y2="128.5" class="net_52,53,54,55,56,57,58,59,60,61,62,63,64,65,66,67"/>
  <line x1="221" x2="250" y1="100.5" y2="100.5" class="net_68,69,70,71,72,73,74,75,76,77,78,79,80,81,82,83"/>
  <line x1="250" x2="250" y1="100.5" y2="148.5" class="net_68,69,70,71,72,73,74,75,76,77,78,79,80,81,82,83"/>
  <line x1="250" x2="306" y1="148.5" y2="148.5" class="net_68,69,70,71,72,73,74,75,76,77,78,79,80,81,82,83"/>
  <line x1="221" x2="306" y1="168.5" y2="168.5" class="net_84,85,86,87,88,89,90,91,92,93,94,95,96,97,98,99"/>
  <line x1="221" x2="250" y1="236.5" y2="236.5" class="net_36,37,38,39,40,41,42,43,44,45,46,47,48,49,50,51"/>
  <line x1="250" x2="250" y1="236.5" y2="188.5" class="net_36,37,38,39,40,41,42,43,44,45,46,47,48,49,50,51"/>
  <line x1="250" x2="306" y1="188.5" y2="188.5" class="net_36,37,38,39,40,41,42,43,44,45,46,47,48,49,50,51"/>
  <line x1="190" x2="260" y1="304" y2="304" class="net_18,19"/>
  <line x1="260" x2="260" y1="304" y2="208.5" class="net_18,19"/>
  <line x1="260" x2="306" y1="208.5" y2="208.5" class="net_18,19"/>
  <line x1="337" x2="395" y1="128.5" y2="128.5" class="net_20,21,22,23,24,25,26,27,28,29,30,31,32,33,34,35"/>
  <line x1="40" x2="89" y1="246.5" y2="246.5" class="net_2,3,4,5,6,7,8,9,10,11,12,13,14,15,16,17"/>
</svg>
