<svg xmlns="http://www.w3.org/2000/svg" xmlns:xlink="http://www.w3.org/1999/xlink" xmlns:s="https://github.com/nturley/netlistsvg" width="681" height="1165">
  <style>svg {
    stroke:#000;
    fill:none;
  }
  text {
    fill:#000;
    stroke:none;
    font-size:10px;
    font-weight: bold;
    font-family: "Courier New", monospace;
  }
  .nodelabel {
    text-anchor: middle;
  }
  .inputPortLabel {
    text-anchor: end;
  }
  .splitjoinBody {
    fill:#000;
  }</style>
  <g s:type="reduce_xor" transform="translate(263,132)" s:width="33" s:height="25" id="cell_$auto$simplemap.cc:106:simplemap_bitop$100">
    <s:alias val="$xor"/>
    <s:alias val="$reduce_xor"/>
    <s:alias val="$_XOR_"/>
    <path d="M3,0 A30 25 0 0 1 3,25 A30 25 0 0 0 33,12.5 A30 25 0 0 0 3,0" class="cell_$auto$simplemap.cc:106:simplemap_bitop$100"/>
    <path d="M0,0 A30 25 0 0 1 0,25" class="cell_$auto$simplemap.cc:106:simplemap_bitop$100"/>
    <g s:x="3" s:y="5" s:pid="A"/>
    <g s:x="3" s:y="20" s:pid="B"/>
    <g s:x="33" s:y="12.5" s:pid="Y"/>
  </g>
  <g s:type="reduce_xor" transform="translate(263,192)" s:width="33" s:height="25" id="cell_$auto$simplemap.cc:106:simplemap_bitop$101">
    <s:alias val="$xor"/>
    <s:alias val="$reduce_xor"/>
    <s:alias val="$_XOR_"/>
    <path d="M3,0 A30 25 0 0 1 3,25 A30 25 0 0 0 33,12.5 A30 25 0 0 0 3,0" class="cell_$auto$simplemap.cc:106:simplemap_bitop$101"/>
    <path d="M0,0 A30 25 0 0 1 0,25" class="cell_$auto$simplemap.cc:106:simplemap_bitop$101"/>
    <g s:x="3" s:y="5" s:pid="A"/>
    <g s:x="3" s:y="20" s:pid="B"/>
    <g s:x="33" s:y="12.5" s:pid="Y"/>
  </g>
  <g s:type="reduce_xor" transform="translate(195,708)" s:width="33" s:height="25" id="cell_$auto$simplemap.cc:106:simplemap_bitop$113">
    <s:alias val="$xor"/>
    <s:alias val="$reduce_xor"/>
    <s:alias val="$_XOR_"/>
    <path d="M3,0 A30 25 0 0 1 3,25 A30 25 0 0 0 33,12.5 A30 25 0 0 0 3,0" class="cell_$auto$simplemap.cc:106:simplemap_bitop$113"/>
    <path d="M0,0 A30 25 0 0 1 0,25" class="cell_$auto$simplemap.cc:106:simplemap_bitop$113"/>
    <g s:x="3" s:y="5" s:pid="A"/>
    <g s:x="3" s:y="20" s:pid="B"/>
    <g s:x="33" s:y="12.5" s:pid="Y"/>
  </g>
  <g s:type="reduce_xor" transform="translate(195,768)" s:width="33" s:height="25" id="cell_$auto$simplemap.cc:106:simplemap_bitop$114">
    <s:alias val="$xor"/>
    <s:alias val="$reduce_xor"/>
    <s:alias val="$_XOR_"/>
    <path d="M3,0 A30 25 0 0 1 3,25 A30 25 0 0 0 33,12.5 A30 25 0 0 0 3,0" class="cell_$auto$simplemap.cc:106:simplemap_bitop$114"/>
    <path d="M0,0 A30 25 0 0 1 0,25" class="cell_$auto$simplemap.cc:106:simplemap_bitop$114"/>
    <g s:x="3" s:y="5" s:pid="A"/>
    <g s:x="3" s:y="20" s:pid="B"/>
    <g s:x="33" s:y="12.5" s:pid="Y"/>
  </g>
  <g s:type="reduce_xor" transform="translate(195,828)" s:width="33" s:height="25" id="cell_$auto$simplemap.cc:106:simplemap_bitop$115">
    <s:alias val="$xor"/>
    <s:alias val="$reduce_xor"/>
    <s:alias val="$_XOR_"/>
    <path d="M3,0 A30 25 0 0 1 3,25 A30 25 0 0 0 33,12.5 A30 25 0 0 0 3,0" class="cell_$auto$simplemap.cc:106:simplemap_bitop$115"/>
    <path d="M0,0 A30 25 0 0 1 0,25" class="cell_$auto$simplemap.cc:106:simplemap_bitop$115"/>
    <g s:x="3" s:y="5" s:pid="A"/>
    <g s:x="3" s:y="20" s:pid="B"/>
    <g s:x="33" s:y="12.5" s:pid="Y"/>
  </g>
  <g s:type="reduce_xor" transform="translate(195,888)" s:width="33" s:height="25" id="cell_$auto$simplemap.cc:106:simplemap_bitop$116">
    <s:alias val="$xor"/>
    <s:alias val="$reduce_xor"/>
    <s:alias val="$_XOR_"/>
    <path d="M3,0 A30 25 0 0 1 3,25 A30 25 0 0 0 33,12.5 A30 25 0 0 0 3,0" class="cell_$auto$simplemap.cc:106:simplemap_bitop$116"/>
    <path d="M0,0 A30 25 0 0 1 0,25" class="cell_$auto$simplemap.cc:106:simplemap_bitop$116"/>
    <g s:x="3" s:y="5" s:pid="A"/>
    <g s:x="3" s:y="20" s:pid="B"/>
    <g s:x="33" s:y="12.5" s:pid="Y"/>
  </g>
  <g s:type="reduce_xor" transform="translate(195,948)" s:width="33" s:height="25" id="cell_$auto$simplemap.cc:106:simplemap_bitop$128">
    <s:alias val="$xor"/>
    <s:alias val="$reduce_xor"/>
    <s:alias val="$_XOR_"/>
    <path d="M3,0 A30 25 0 0 1 3,25 A30 25 0 0 0 33,12.5 A30 25 0 0 0 3,0" class="cell_$auto$simplemap.cc:106:simplemap_bitop$128"/>
    <path d="M0,0 A30 25 0 0 1 0,25" class="cell_$auto$simplemap.cc:106:simplemap_bitop$128"/>
    <g s:x="3" s:y="5" s:pid="A"/>
    <g s:x="3" s:y="20" s:pid="B"/>
    <g s:x="33" s:y="12.5" s:pid="Y"/>
  </g>
  <g s:type="reduce_xor" transform="translate(195,1008)" s:width="33" s:height="25" id="cell_$auto$simplemap.cc:106:simplemap_bitop$129">
    <s:alias val="$xor"/>
    <s:alias val="$reduce_xor"/>
    <s:alias val="$_XOR_"/>
    <path d="M3,0 A30 25 0 0 1 3,25 A30 25 0 0 0 33,12.5 A30 25 0 0 0 3,0" class="cell_$auto$simplemap.cc:106:simplemap_bitop$129"/>
    <path d="M0,0 A30 25 0 0 1 0,25" class="cell_$auto$simplemap.cc:106:simplemap_bitop$129"/>
    <g s:x="3" s:y="5" s:pid="A"/>
    <g s:x="3" s:y="20" s:pid="B"/>
    <g s:x="33" s:y="12.5" s:pid="Y"/>
  </g>
  <g s:type="reduce_xor" transform="translate(195,1068)" s:width="33" s:height="25" id="cell_$auto$simplemap.cc:106:simplemap_bitop$130">
    <s:alias val="$xor"/>
    <s:alias val="$reduce_xor"/>
    <s:alias val="$_XOR_"/>
    <path d="M3,0 A30 25 0 0 1 3,25 A30 25 0 0 0 33,12.5 A30 25 0 0 0 3,0" class="cell_$auto$simplemap.cc:106:simplemap_bitop$130"/>
    <path d="M0,0 A30 25 0 0 1 0,25" class="cell_$auto$simplemap.cc:106:simplemap_bitop$130"/>
    <g s:x="3" s:y="5" s:pid="A"/>
    <g s:x="3" s:y="20" s:pid="B"/>
    <g s:x="33" s:y="12.5" s:pid="Y"/>
  </g>
  <g s:type="reduce_xor" transform="translate(195,1128)" s:width="33" s:height="25" id="cell_$auto$simplemap.cc:106:simplemap_bitop$131">
    <s:alias val="$xor"/>
    <s:alias val="$reduce_xor"/>
    <s:alias val="$_XOR_"/>
    <path d="M3,0 A30 25 0 0 1 3,25 A30 25 0 0 0 33,12.5 A30 25 0 0 0 3,0" class="cell_$auto$simplemap.cc:106:simplemap_bitop$131"/>
    <path d="M0,0 A30 25 0 0 1 0,25" class="cell_$auto$simplemap.cc:106:simplemap_bitop$131"/>
    <g s:x="3" s:y="5" s:pid="A"/>
    <g s:x="3" s:y="20" s:pid="B"/>
    <g s:x="33" s:y="12.5" s:pid="Y"/>
  </g>
  <g s:type="or" transform="translate(461,1105.5)" s:width="30" s:height="25" id="cell_$auto$simplemap.cc:106:simplemap_bitop$141">
    <s:alias val="$or"/>
    <s:alias val="$logic_or"/>
    <s:alias val="$_OR_"/>
    <path d="M0,25 L0,25 L15,25 A15 12.5 0 0 0 15,0 L0,0" class="cell_$auto$simplemap.cc:106:simplemap_bitop$141"/>
    <path d="M0,0 A30 25 0 0 1 0,25" class="cell_$auto$simplemap.cc:106:simplemap_bitop$141"/>
    <g s:x="3" s:y="5" s:pid="A"/>
    <g s:x="3" s:y="20" s:pid="B"/>
    <g s:x="30" s:y="12.5" s:pid="Y"/>
  </g>
  <g s:type="reduce_xor" transform="translate(195,223)" s:width="33" s:height="25" id="cell_$auto$simplemap.cc:106:simplemap_bitop$144">
    <s:alias val="$xor"/>
    <s:alias val="$reduce_xor"/>
    <s:alias val="$_XOR_"/>
    <path d="M3,0 A30 25 0 0 1 3,25 A30 25 0 0 0 33,12.5 A30 25 0 0 0 3,0" class="cell_$auto$simplemap.cc:106:simplemap_bitop$144"/>
    <path d="M0,0 A30 25 0 0 1 0,25" class="cell_$auto$simplemap.cc:106:simplemap_bitop$144"/>
    <g s:x="3" s:y="5" s:pid="A"/>
    <g s:x="3" s:y="20" s:pid="B"/>
    <g s:x="33" s:y="12.5" s:pid="Y"/>
  </g>
  <g s:type="reduce_xor" transform="translate(195,283)" s:width="33" s:height="25" id="cell_$auto$simplemap.cc:106:simplemap_bitop$145">
    <s:alias val="$xor"/>
    <s:alias val="$reduce_xor"/>
    <s:alias val="$_XOR_"/>
    <path d="M3,0 A30 25 0 0 1 3,25 A30 25 0 0 0 33,12.5 A30 25 0 0 0 3,0" class="cell_$auto$simplemap.cc:106:simplemap_bitop$145"/>
    <path d="M0,0 A30 25 0 0 1 0,25" class="cell_$auto$simplemap.cc:106:simplemap_bitop$145"/>
    <g s:x="3" s:y="5" s:pid="A"/>
    <g s:x="3" s:y="20" s:pid="B"/>
    <g s:x="33" s:y="12.5" s:pid="Y"/>
  </g>
  <g s:type="reduce_xor" transform="translate(195,343)" s:width="33" s:height="25" id="cell_$auto$simplemap.cc:106:simplemap_bitop$146">
    <s:alias val="$xor"/>
    <s:alias val="$reduce_xor"/>
    <s:alias val="$_XOR_"/>
    <path d="M3,0 A30 25 0 0 1 3,25 A30 25 0 0 0 33,12.5 A30 25 0 0 0 3,0" class="cell_$auto$simplemap.cc:106:simplemap_bitop$146"/>
    <path d="M0,0 A30 25 0 0 1 0,25" class="cell_$auto$simplemap.cc:106:simplemap_bitop$146"/>
    <g s:x="3" s:y="5" s:pid="A"/>
    <g s:x="3" s:y="20" s:pid="B"/>
    <g s:x="33" s:y="12.5" s:pid="Y"/>
  </g>
  <g s:type="reduce_xor" transform="translate(195,403)" s:width="33" s:height="25" id="cell_$auto$simplemap.cc:106:simplemap_bitop$147">
    <s:alias val="$xor"/>
    <s:alias val="$reduce_xor"/>
    <s:alias val="$_XOR_"/>
    <path d="M3,0 A30 25 0 0 1 3,25 A30 25 0 0 0 33,12.5 A30 25 0 0 0 3,0" class="cell_$auto$simplemap.cc:106:simplemap_bitop$147"/>
    <path d="M0,0 A30 25 0 0 1 0,25" class="cell_$auto$simplemap.cc:106:simplemap_bitop$147"/>
    <g s:x="3" s:y="5" s:pid="A"/>
    <g s:x="3" s:y="20" s:pid="B"/>
    <g s:x="33" s:y="12.5" s:pid="Y"/>
  </g>
  <g s:type="reduce_xor" transform="translate(195,463)" s:width="33" s:height="25" id="cell_$auto$simplemap.cc:106:simplemap_bitop$159">
    <s:alias val="$xor"/>
    <s:alias val="$reduce_xor"/>
    <s:alias val="$_XOR_"/>
    <path d="M3,0 A30 25 0 0 1 3,25 A30 25 0 0 0 33,12.5 A30 25 0 0 0 3,0" class="cell_$auto$simplemap.cc:106:simplemap_bitop$159"/>
    <path d="M0,0 A30 25 0 0 1 0,25" class="cell_$auto$simplemap.cc:106:simplemap_bitop$159"/>
    <g s:x="3" s:y="5" s:pid="A"/>
    <g s:x="3" s:y="20" s:pid="B"/>
    <g s:x="33" s:y="12.5" s:pid="Y"/>
  </g>
  <g s:type="reduce_xor" transform="translate(195,523)" s:width="33" s:height="25" id="cell_$auto$simplemap.cc:106:simplemap_bitop$160">
    <s:alias val="$xor"/>
    <s:alias val="$reduce_xor"/>
    <s:alias val="$_XOR_"/>
    <path d="M3,0 A30 25 0 0 1 3,25 A30 25 0 0 0 33,12.5 A30 25 0 0 0 3,0" class="cell_$auto$simplemap.cc:106:simplemap_bitop$160"/>
    <path d="M0,0 A30 25 0 0 1 0,25" class="cell_$auto$simplemap.cc:106:simplemap_bitop$160"/>
    <g s:x="3" s:y="5" s:pid="A"/>
    <g s:x="3" s:y="20" s:pid="B"/>
    <g s:x="33" s:y="12.5" s:pid="Y"/>
  </g>
  <g s:type="reduce_xor" transform="translate(195,588)" s:width="33" s:height="25" id="cell_$auto$simplemap.cc:106:simplemap_bitop$161">
    <s:alias val="$xor"/>
    <s:alias val="$reduce_xor"/>
    <s:alias val="$_XOR_"/>
    <path d="M3,0 A30 25 0 0 1 3,25 A30 25 0 0 0 33,12.5 A30 25 0 0 0 3,0" class="cell_$auto$simplemap.cc:106:simplemap_bitop$161"/>
    <path d="M0,0 A30 25 0 0 1 0,25" class="cell_$auto$simplemap.cc:106:simplemap_bitop$161"/>
    <g s:x="3" s:y="5" s:pid="A"/>
    <g s:x="3" s:y="20" s:pid="B"/>
    <g s:x="33" s:y="12.5" s:pid="Y"/>
  </g>
  <g s:type="reduce_xor" transform="translate(195,648)" s:width="33" s:height="25" id="cell_$auto$simplemap.cc:106:simplemap_bitop$162">
    <s:alias val="$xor"/>
    <s:alias val="$reduce_xor"/>
    <s:alias val="$_XOR_"/>
    <path d="M3,0 A30 25 0 0 1 3,25 A30 25 0 0 0 33,12.5 A30 25 0 0 0 3,0" class="cell_$auto$simplemap.cc:106:simplemap_bitop$162"/>
    <path d="M0,0 A30 25 0 0 1 0,25" class="cell_$auto$simplemap.cc:106:simplemap_bitop$162"/>
    <g s:x="3" s:y="5" s:pid="A"/>
    <g s:x="3" s:y="20" s:pid="B"/>
    <g s:x="33" s:y="12.5" s:pid="Y"/>
  </g>
  <g s:type="or" transform="translate(461,625.5)" s:width="30" s:height="25" id="cell_$auto$simplemap.cc:106:simplemap_bitop$172">
    <s:alias val="$or"/>
    <s:alias val="$logic_or"/>
    <s:alias val="$_OR_"/>
    <path d="M0,25 L0,25 L15,25 A15 12.5 0 0 0 15,0 L0,0" class="cell_$auto$simplemap.cc:106:simplemap_bitop$172"/>
    <path d="M0,0 A30 25 0 0 1 0,25" class="cell_$auto$simplemap.cc:106:simplemap_bitop$172"/>
    <g s:x="3" s:y="5" s:pid="A"/>
    <g s:x="3" s:y="20" s:pid="B"/>
    <g s:x="30" s:y="12.5" s:pid="Y"/>
  </g>
  <g s:type="or" transform="translate(526,618)" s:width="30" s:height="25" id="cell_$auto$simplemap.cc:106:simplemap_bitop$173">
    <s:alias val="$or"/>
    <s:alias val="$logic_or"/>
    <s:alias val="$_OR_"/>
    <path d="M0,25 L0,25 L15,25 A15 12.5 0 0 0 15,0 L0,0" class="cell_$auto$simplemap.cc:106:simplemap_bitop$173"/>
    <path d="M0,0 A30 25 0 0 1 0,25" class="cell_$auto$simplemap.cc:106:simplemap_bitop$173"/>
    <g s:x="3" s:y="5" s:pid="A"/>
    <g s:x="3" s:y="20" s:pid="B"/>
    <g s:x="30" s:y="12.5" s:pid="Y"/>
  </g>
  <g s:type="or" transform="translate(526,1113)" s:width="30" s:height="25" id="cell_$auto$simplemap.cc:106:simplemap_bitop$174">
    <s:alias val="$or"/>
    <s:alias val="$logic_or"/>
    <s:alias val="$_OR_"/>
    <path d="M0,25 L0,25 L15,25 A15 12.5 0 0 0 15,0 L0,0" class="cell_$auto$simplemap.cc:106:simplemap_bitop$174"/>
    <path d="M0,0 A30 25 0 0 1 0,25" class="cell_$auto$simplemap.cc:106:simplemap_bitop$174"/>
    <g s:x="3" s:y="5" s:pid="A"/>
    <g s:x="3" s:y="20" s:pid="B"/>
    <g s:x="30" s:y="12.5" s:pid="Y"/>
  </g>
  <g s:type="reduce_xor" transform="translate(263,12)" s:width="33" s:height="25" id="cell_$auto$simplemap.cc:106:simplemap_bitop$98">
    <s:alias val="$xor"/>
    <s:alias val="$reduce_xor"/>
    <s:alias val="$_XOR_"/>
    <path d="M3,0 A30 25 0 0 1 3,25 A30 25 0 0 0 33,12.5 A30 25 0 0 0 3,0" class="cell_$auto$simplemap.cc:106:simplemap_bitop$98"/>
    <path d="M0,0 A30 25 0 0 1 0,25" class="cell_$auto$simplemap.cc:106:simplemap_bitop$98"/>
    <g s:x="3" s:y="5" s:pid="A"/>
    <g s:x="3" s:y="20" s:pid="B"/>
    <g s:x="33" s:y="12.5" s:pid="Y"/>
  </g>
  <g s:type="reduce_xor" transform="translate(263,72)" s:width="33" s:height="25" id="cell_$auto$simplemap.cc:106:simplemap_bitop$99">
    <s:alias val="$xor"/>
    <s:alias val="$reduce_xor"/>
    <s:alias val="$_XOR_"/>
    <path d="M3,0 A30 25 0 0 1 3,25 A30 25 0 0 0 33,12.5 A30 25 0 0 0 3,0" class="cell_$auto$simplemap.cc:106:simplemap_bitop$99"/>
    <path d="M0,0 A30 25 0 0 1 0,25" class="cell_$auto$simplemap.cc:106:simplemap_bitop$99"/>
    <g s:x="3" s:y="5" s:pid="A"/>
    <g s:x="3" s:y="20" s:pid="B"/>
    <g s:x="33" s:y="12.5" s:pid="Y"/>
  </g>
  <g s:type="or" transform="translate(331,64.5)" s:width="30" s:height="25" id="cell_$auto$simplemap.cc:157:simplemap_reduce$105">
    <s:alias val="$or"/>
    <s:alias val="$logic_or"/>
    <s:alias val="$_OR_"/>
    <path d="M0,25 L0,25 L15,25 A15 12.5 0 0 0 15,0 L0,0" class="cell_$auto$simplemap.cc:157:simplemap_reduce$105"/>
    <path d="M0,0 A30 25 0 0 1 0,25" class="cell_$auto$simplemap.cc:157:simplemap_reduce$105"/>
    <g s:x="3" s:y="5" s:pid="A"/>
    <g s:x="3" s:y="20" s:pid="B"/>
    <g s:x="30" s:y="12.5" s:pid="Y"/>
  </g>
  <g s:type="or" transform="translate(331,184.5)" s:width="30" s:height="25" id="cell_$auto$simplemap.cc:157:simplemap_reduce$106">
    <s:alias val="$or"/>
    <s:alias val="$logic_or"/>
    <s:alias val="$_OR_"/>
    <path d="M0,25 L0,25 L15,25 A15 12.5 0 0 0 15,0 L0,0" class="cell_$auto$simplemap.cc:157:simplemap_reduce$106"/>
    <path d="M0,0 A30 25 0 0 1 0,25" class="cell_$auto$simplemap.cc:157:simplemap_reduce$106"/>
    <g s:x="3" s:y="5" s:pid="A"/>
    <g s:x="3" s:y="20" s:pid="B"/>
    <g s:x="30" s:y="12.5" s:pid="Y"/>
  </g>
  <g s:type="or" transform="translate(396,177)" s:width="30" s:height="25" id="cell_$auto$simplemap.cc:157:simplemap_reduce$108">
    <s:alias val="$or"/>
    <s:alias val="$logic_or"/>
    <s:alias val="$_OR_"/>
    <path d="M0,25 L0,25 L15,25 A15 12.5 0 0 0 15,0 L0,0" class="cell_$auto$simplemap.cc:157:simplemap_reduce$108"/>
    <path d="M0,0 A30 25 0 0 1 0,25" class="cell_$auto$simplemap.cc:157:simplemap_reduce$108"/>
    <g s:x="3" s:y="5" s:pid="A"/>
    <g s:x="3" s:y="20" s:pid="B"/>
    <g s:x="30" s:y="12.5" s:pid="Y"/>
  </g>
  <g s:type="or" transform="translate(264,760.5)" s:width="30" s:height="25" id="cell_$auto$simplemap.cc:157:simplemap_reduce$120">
    <s:alias val="$or"/>
    <s:alias val="$logic_or"/>
    <s:alias val="$_OR_"/>
    <path d="M0,25 L0,25 L15,25 A15 12.5 0 0 0 15,0 L0,0" class="cell_$auto$simplemap.cc:157:simplemap_reduce$120"/>
    <path d="M0,0 A30 25 0 0 1 0,25" class="cell_$auto$simplemap.cc:157:simplemap_reduce$120"/>
    <g s:x="3" s:y="5" s:pid="A"/>
    <g s:x="3" s:y="20" s:pid="B"/>
    <g s:x="30" s:y="12.5" s:pid="Y"/>
  </g>
  <g s:type="or" transform="translate(264,880.5)" s:width="30" s:height="25" id="cell_$auto$simplemap.cc:157:simplemap_reduce$121">
    <s:alias val="$or"/>
    <s:alias val="$logic_or"/>
    <s:alias val="$_OR_"/>
    <path d="M0,25 L0,25 L15,25 A15 12.5 0 0 0 15,0 L0,0" class="cell_$auto$simplemap.cc:157:simplemap_reduce$121"/>
    <path d="M0,0 A30 25 0 0 1 0,25" class="cell_$auto$simplemap.cc:157:simplemap_reduce$121"/>
    <g s:x="3" s:y="5" s:pid="A"/>
    <g s:x="3" s:y="20" s:pid="B"/>
    <g s:x="30" s:y="12.5" s:pid="Y"/>
  </g>
  <g s:type="or" transform="translate(331,873)" s:width="30" s:height="25" id="cell_$auto$simplemap.cc:157:simplemap_reduce$123">
    <s:alias val="$or"/>
    <s:alias val="$logic_or"/>
    <s:alias val="$_OR_"/>
    <path d="M0,25 L0,25 L15,25 A15 12.5 0 0 0 15,0 L0,0" class="cell_$auto$simplemap.cc:157:simplemap_reduce$123"/>
    <path d="M0,0 A30 25 0 0 1 0,25" class="cell_$auto$simplemap.cc:157:simplemap_reduce$123"/>
    <g s:x="3" s:y="5" s:pid="A"/>
    <g s:x="3" s:y="20" s:pid="B"/>
    <g s:x="30" s:y="12.5" s:pid="Y"/>
  </g>
  <g s:type="or" transform="translate(264,1000.5)" s:width="30" s:height="25" id="cell_$auto$simplemap.cc:157:simplemap_reduce$135">
    <s:alias val="$or"/>
    <s:alias val="$logic_or"/>
    <s:alias val="$_OR_"/>
    <path d="M0,25 L0,25 L15,25 A15 12.5 0 0 0 15,0 L0,0" class="cell_$auto$simplemap.cc:157:simplemap_reduce$135"/>
    <path d="M0,0 A30 25 0 0 1 0,25" class="cell_$auto$simplemap.cc:157:simplemap_reduce$135"/>
    <g s:x="3" s:y="5" s:pid="A"/>
    <g s:x="3" s:y="20" s:pid="B"/>
    <g s:x="30" s:y="12.5" s:pid="Y"/>
  </g>
  <g s:type="or" transform="translate(264,1120.5)" s:width="30" s:height="25" id="cell_$auto$simplemap.cc:157:simplemap_reduce$136">
    <s:alias val="$or"/>
    <s:alias val="$logic_or"/>
    <s:alias val="$_OR_"/>
    <path d="M0,25 L0,25 L15,25 A15 12.5 0 0 0 15,0 L0,0" class="cell_$auto$simplemap.cc:157:simplemap_reduce$136"/>
    <path d="M0,0 A30 25 0 0 1 0,25" class="cell_$auto$simplemap.cc:157:simplemap_reduce$136"/>
    <g s:x="3" s:y="5" s:pid="A"/>
    <g s:x="3" s:y="20" s:pid="B"/>
    <g s:x="30" s:y="12.5" s:pid="Y"/>
  </g>
  <g s:type="or" transform="translate(331,1113)" s:width="30" s:height="25" id="cell_$auto$simplemap.cc:157:simplemap_reduce$138">
    <s:alias val="$or"/>
    <s:alias val="$logic_or"/>
    <s:alias val="$_OR_"/>
    <path d="M0,25 L0,25 L15,25 A15 12.5 0 0 0 15,0 L0,0" class="cell_$auto$simplemap.cc:157:simplemap_reduce$138"/>
    <path d="M0,0 A30 25 0 0 1 0,25" class="cell_$auto$simplemap.cc:157:simplemap_reduce$138"/>
    <g s:x="3" s:y="5" s:pid="A"/>
    <g s:x="3" s:y="20" s:pid="B"/>
    <g s:x="30" s:y="12.5" s:pid="Y"/>
  </g>
  <g s:type="or" transform="translate(264,275.5)" s:width="30" s:height="25" id="cell_$auto$simplemap.cc:157:simplemap_reduce$151">
    <s:alias val="$or"/>
    <s:alias val="$logic_or"/>
    <s:alias val="$_OR_"/>
    <path d="M0,25 L0,25 L15,25 A15 12.5 0 0 0 15,0 L0,0" class="cell_$auto$simplemap.cc:157:simplemap_reduce$151"/>
    <path d="M0,0 A30 25 0 0 1 0,25" class="cell_$auto$simplemap.cc:157:simplemap_reduce$151"/>
    <g s:x="3" s:y="5" s:pid="A"/>
    <g s:x="3" s:y="20" s:pid="B"/>
    <g s:x="30" s:y="12.5" s:pid="Y"/>
  </g>
  <g s:type="or" transform="translate(264,395.5)" s:width="30" s:height="25" id="cell_$auto$simplemap.cc:157:simplemap_reduce$152">
    <s:alias val="$or"/>
    <s:alias val="$logic_or"/>
    <s:alias val="$_OR_"/>
    <path d="M0,25 L0,25 L15,25 A15 12.5 0 0 0 15,0 L0,0" class="cell_$auto$simplemap.cc:157:simplemap_reduce$152"/>
    <path d="M0,0 A30 25 0 0 1 0,25" class="cell_$auto$simplemap.cc:157:simplemap_reduce$152"/>
    <g s:x="3" s:y="5" s:pid="A"/>
    <g s:x="3" s:y="20" s:pid="B"/>
    <g s:x="30" s:y="12.5" s:pid="Y"/>
  </g>
  <g s:type="or" transform="translate(331,388)" s:width="30" s:height="25" id="cell_$auto$simplemap.cc:157:simplemap_reduce$154">
    <s:alias val="$or"/>
    <s:alias val="$logic_or"/>
    <s:alias val="$_OR_"/>
    <path d="M0,25 L0,25 L15,25 A15 12.5 0 0 0 15,0 L0,0" class="cell_$auto$simplemap.cc:157:simplemap_reduce$154"/>
    <path d="M0,0 A30 25 0 0 1 0,25" class="cell_$auto$simplemap.cc:157:simplemap_reduce$154"/>
    <g s:x="3" s:y="5" s:pid="A"/>
    <g s:x="3" s:y="20" s:pid="B"/>
    <g s:x="30" s:y="12.5" s:pid="Y"/>
  </g>
  <g s:type="or" transform="translate(264,515.5)" s:width="30" s:height="25" id="cell_$auto$simplemap.cc:157:simplemap_reduce$166">
    <s:alias val="$or"/>
    <s:alias val="$logic_or"/>
    <s:alias val="$_OR_"/>
    <path d="M0,25 L0,25 L15,25 A15 12.5 0 0 0 15,0 L0,0" class="cell_$auto$simplemap.cc:157:simplemap_reduce$166"/>
    <path d="M0,0 A30 25 0 0 1 0,25" class="cell_$auto$simplemap.cc:157:simplemap_reduce$166"/>
    <g s:x="3" s:y="5" s:pid="A"/>
    <g s:x="3" s:y="20" s:pid="B"/>
    <g s:x="30" s:y="12.5" s:pid="Y"/>
  </g>
  <g s:type="or" transform="translate(264,640.5)" s:width="30" s:height="25" id="cell_$auto$simplemap.cc:157:simplemap_reduce$167">
    <s:alias val="$or"/>
    <s:alias val="$logic_or"/>
    <s:alias val="$_OR_"/>
    <path d="M0,25 L0,25 L15,25 A15 12.5 0 0 0 15,0 L0,0" class="cell_$auto$simplemap.cc:157:simplemap_reduce$167"/>
    <path d="M0,0 A30 25 0 0 1 0,25" class="cell_$auto$simplemap.cc:157:simplemap_reduce$167"/>
    <g s:x="3" s:y="5" s:pid="A"/>
    <g s:x="3" s:y="20" s:pid="B"/>
    <g s:x="30" s:y="12.5" s:pid="Y"/>
  </g>
  <g s:type="or" transform="translate(331,633)" s:width="30" s:height="25" id="cell_$auto$simplemap.cc:157:simplemap_reduce$169">
    <s:alias val="$or"/>
    <s:alias val="$logic_or"/>
    <s:alias val="$_OR_"/>
    <path d="M0,25 L0,25 L15,25 A15 12.5 0 0 0 15,0 L0,0" class="cell_$auto$simplemap.cc:157:simplemap_reduce$169"/>
    <path d="M0,0 A30 25 0 0 1 0,25" class="cell_$auto$simplemap.cc:157:simplemap_reduce$169"/>
    <g s:x="3" s:y="5" s:pid="A"/>
    <g s:x="3" s:y="20" s:pid="B"/>
    <g s:x="30" s:y="12.5" s:pid="Y"/>
  </g>
  <g s:type="not" transform="translate(461,179.5)" s:width="30" s:height="20" id="cell_$auto$simplemap.cc:227:simplemap_lognot$110">
    <s:alias val="$_NOT_"/>
    <s:alias val="$not"/>
    <s:alias val="$logic_not"/>
    <path d="M0,0 L0,20 L20,10 Z" class="cell_$auto$simplemap.cc:227:simplemap_lognot$110"/>
    <circle cx="23" cy="10" r="3" class="cell_$auto$simplemap.cc:227:simplemap_lognot$110"/>
    <g s:x="0" s:y="10" s:pid="A"/>
    <g s:x="25" s:y="10" s:pid="Y"/>
  </g>
  <g s:type="not" transform="translate(396,875.5)" s:width="30" s:height="20" id="cell_$auto$simplemap.cc:227:simplemap_lognot$125">
    <s:alias val="$_NOT_"/>
    <s:alias val="$not"/>
    <s:alias val="$logic_not"/>
    <path d="M0,0 L0,20 L20,10 Z" class="cell_$auto$simplemap.cc:227:simplemap_lognot$125"/>
    <circle cx="23" cy="10" r="3" class="cell_$auto$simplemap.cc:227:simplemap_lognot$125"/>
    <g s:x="0" s:y="10" s:pid="A"/>
    <g s:x="25" s:y="10" s:pid="Y"/>
  </g>
  <g s:type="not" transform="translate(396,1115.5)" s:width="30" s:height="20" id="cell_$auto$simplemap.cc:227:simplemap_lognot$140">
    <s:alias val="$_NOT_"/>
    <s:alias val="$not"/>
    <s:alias val="$logic_not"/>
    <path d="M0,0 L0,20 L20,10 Z" class="cell_$auto$simplemap.cc:227:simplemap_lognot$140"/>
    <circle cx="23" cy="10" r="3" class="cell_$auto$simplemap.cc:227:simplemap_lognot$140"/>
    <g s:x="0" s:y="10" s:pid="A"/>
    <g s:x="25" s:y="10" s:pid="Y"/>
  </g>
  <g s:type="not" transform="translate(396,390.5)" s:width="30" s:height="20" id="cell_$auto$simplemap.cc:227:simplemap_lognot$156">
    <s:alias val="$_NOT_"/>
    <s:alias val="$not"/>
    <s:alias val="$logic_not"/>
    <path d="M0,0 L0,20 L20,10 Z" class="cell_$auto$simplemap.cc:227:simplemap_lognot$156"/>
    <circle cx="23" cy="10" r="3" class="cell_$auto$simplemap.cc:227:simplemap_lognot$156"/>
    <g s:x="0" s:y="10" s:pid="A"/>
    <g s:x="25" s:y="10" s:pid="Y"/>
  </g>
  <g s:type="not" transform="translate(396,635.5)" s:width="30" s:height="20" id="cell_$auto$simplemap.cc:227:simplemap_lognot$171">
    <s:alias val="$_NOT_"/>
    <s:alias val="$not"/>
    <s:alias val="$logic_not"/>
    <path d="M0,0 L0,20 L20,10 Z" class="cell_$auto$simplemap.cc:227:simplemap_lognot$171"/>
    <circle cx="23" cy="10" r="3" class="cell_$auto$simplemap.cc:227:simplemap_lognot$171"/>
    <g s:x="0" s:y="10" s:pid="A"/>
    <g s:x="25" s:y="10" s:pid="Y"/>
  </g>
  <g s:type="inputExt" transform="translate(12,137)" s:width="30" s:height="20" id="cell_i_opcode">
    <text x="15" y="-4" class="nodelabel cell_i_opcode" s:attribute="ref">i_opcode</text>
    <s:alias val="$_inputExt_"/>
    <path d="M0,0 L0,20 L15,20 L30,10 L15,0 Z" class="cell_i_opcode"/>
    <g s:x="28" s:y="10" s:pid="Y"/>
  </g>
  <g s:type="outputExt" transform="translate(639,1105.5)" s:width="30" s:height="20" id="cell_o_sel">
    <text x="15" y="-4" class="nodelabel cell_o_sel" s:attribute="ref">o_sel</text>
    <s:alias val="$_outputExt_"/>
    <path d="M30,0 L30,20 L15,20 L0,10 L15,0 Z" class="cell_o_sel"/>
    <g s:x="0" s:y="10" s:pid="A"/>
  </g>
  <g s:type="constant" transform="translate(95,533)" s:width="30" s:height="20" id="cell_0">
    <text x="15" y="-4" class="nodelabel cell_0" s:attribute="ref">0</text>
    <s:alias val="$_constant_"/>
    <rect width="30" height="20" class="cell_0"/>
    <g s:x="30" s:y="10" s:pid="Y"/>
  </g>
  <g s:type="constant" transform="translate(95,598)" s:width="30" s:height="20" id="cell_1">
    <text x="15" y="-4" class="nodelabel cell_1" s:attribute="ref">1</text>
    <s:alias val="$_constant_"/>
    <rect width="30" height="20" class="cell_1"/>
    <g s:x="30" s:y="10" s:pid="Y"/>
  </g>
  <g s:type="join" transform="translate(598,1095)" s:width="4" s:height="40" id="cell_$join$,6,7,">
    <rect width="5" height="40" class="splitjoinBody" s:generic="body"/>
    <s:alias val="$_join_"/>
    <g s:x="5" s:y="20" s:pid="out"/>
    <g transform="translate(0,10)" s:x="0" s:y="10" s:pid="in0">
      <text x="-3" y="-4" class="inputPortLabel">0</text>
    </g>
    <g transform="translate(0,30)" s:x="0" s:y="10" s:pid="in0">
      <text x="-3" y="-4" class="inputPortLabel">1</text>
    </g>
  </g>
  <g s:type="split" transform="translate(110.8,126.5)" s:width="5" s:height="40" id="cell_$split$,2,3,4,5,">
    <rect width="5" height="80" class="splitjoinBody" s:generic="body"/>
    <s:alias val="$_split_"/>
    <g s:x="0" s:y="20" s:pid="in"/>
    <g transform="translate(4,10)" s:x="4" s:y="10" s:pid="out0">
      <text x="5" y="-4">2</text>
    </g>
    <g transform="translate(4,30)" s:x="4" s:y="10" s:pid="out0">
      <text x="5" y="-4">3</text>
    </g>
    <g transform="translate(4,50)" s:x="4" s:y="10" s:pid="out0">
      <text x="5" y="-4">0</text>
    </g>
    <g transform="translate(4,70)" s:x="4" s:y="10" s:pid="out0">
      <text x="5" y="-4">1</text>
    </g>
  </g>
  <line x1="115.8" x2="266" y1="137" y2="137" class="net_4"/>
  <line x1="115.8" x2="165" y1="137" y2="137" class="net_4"/>
  <line x1="165" x2="165" y1="137" y2="833" class="net_4"/>
  <circle cx="165" cy="137" r="2" style="fill:#000" class="net_4"/>
  <circle cx="165" cy="833" r="2" style="fill:#000" class="net_4"/>
  <line x1="165" x2="198" y1="833" y2="833" class="net_4"/>
  <line x1="115.8" x2="165" y1="137" y2="137" class="net_4"/>
  <line x1="165" x2="165" y1="137" y2="1073" class="net_4"/>
  <line x1="165" x2="198" y1="1073" y2="1073" class="net_4"/>
  <line x1="115.8" x2="165" y1="137" y2="137" class="net_4"/>
  <line x1="165" x2="165" y1="137" y2="348" class="net_4"/>
  <circle cx="165" cy="348" r="2" style="fill:#000" class="net_4"/>
  <line x1="165" x2="198" y1="348" y2="348" class="net_4"/>
  <line x1="115.8" x2="165" y1="137" y2="137" class="net_4"/>
  <line x1="165" x2="165" y1="137" y2="593" class="net_4"/>
  <circle cx="165" cy="593" r="2" style="fill:#000" class="net_4"/>
  <line x1="165" x2="198" y1="593" y2="593" class="net_4"/>
  <line x1="125" x2="175" y1="543" y2="543" class="net_50"/>
  <line x1="175" x2="175" y1="543" y2="152" class="net_50"/>
  <circle cx="175" cy="543" r="2" style="fill:#000" class="net_50"/>
  <line x1="175" x2="266" y1="152" y2="152" class="net_50"/>
  <line x1="125" x2="175" y1="543" y2="543" class="net_50"/>
  <line x1="175" x2="175" y1="543" y2="788" class="net_50"/>
  <circle cx="175" cy="788" r="2" style="fill:#000" class="net_50"/>
  <line x1="175" x2="198" y1="788" y2="788" class="net_50"/>
  <line x1="125" x2="175" y1="543" y2="543" class="net_50"/>
  <line x1="175" x2="175" y1="543" y2="848" class="net_50"/>
  <circle cx="175" cy="848" r="2" style="fill:#000" class="net_50"/>
  <line x1="175" x2="198" y1="848" y2="848" class="net_50"/>
  <line x1="125" x2="175" y1="543" y2="543" class="net_50"/>
  <line x1="175" x2="175" y1="543" y2="968" class="net_50"/>
  <line x1="175" x2="198" y1="968" y2="968" class="net_50"/>
  <line x1="125" x2="175" y1="543" y2="543" class="net_50"/>
  <line x1="175" x2="175" y1="543" y2="243" class="net_50"/>
  <circle cx="175" cy="243" r="2" style="fill:#000" class="net_50"/>
  <line x1="175" x2="198" y1="243" y2="243" class="net_50"/>
  <line x1="125" x2="175" y1="543" y2="543" class="net_50"/>
  <line x1="175" x2="175" y1="543" y2="303" class="net_50"/>
  <circle cx="175" cy="303" r="2" style="fill:#000" class="net_50"/>
  <line x1="175" x2="198" y1="303" y2="303" class="net_50"/>
  <line x1="125" x2="198" y1="543" y2="543" class="net_50"/>
  <line x1="115.8" x2="155" y1="157" y2="157" class="net_5"/>
  <line x1="155" x2="155" y1="157" y2="197" class="net_5"/>
  <circle cx="155" cy="197" r="2" style="fill:#000" class="net_5"/>
  <line x1="155" x2="266" y1="197" y2="197" class="net_5"/>
  <line x1="115.8" x2="155" y1="157" y2="157" class="net_5"/>
  <line x1="155" x2="155" y1="157" y2="893" class="net_5"/>
  <circle cx="155" cy="893" r="2" style="fill:#000" class="net_5"/>
  <line x1="155" x2="198" y1="893" y2="893" class="net_5"/>
  <line x1="115.8" x2="155" y1="157" y2="157" class="net_5"/>
  <line x1="155" x2="155" y1="157" y2="1133" class="net_5"/>
  <line x1="155" x2="198" y1="1133" y2="1133" class="net_5"/>
  <line x1="115.8" x2="155" y1="157" y2="157" class="net_5"/>
  <line x1="155" x2="155" y1="157" y2="408" class="net_5"/>
  <circle cx="155" cy="408" r="2" style="fill:#000" class="net_5"/>
  <line x1="155" x2="198" y1="408" y2="408" class="net_5"/>
  <line x1="115.8" x2="155" y1="157" y2="157" class="net_5"/>
  <line x1="155" x2="155" y1="157" y2="653" class="net_5"/>
  <circle cx="155" cy="653" r="2" style="fill:#000" class="net_5"/>
  <line x1="155" x2="198" y1="653" y2="653" class="net_5"/>
  <line x1="125" x2="185" y1="608" y2="608" class="net_51"/>
  <line x1="185" x2="185" y1="608" y2="212" class="net_51"/>
  <circle cx="185" cy="608" r="2" style="fill:#000" class="net_51"/>
  <circle cx="185" cy="212" r="2" style="fill:#000" class="net_51"/>
  <line x1="185" x2="266" y1="212" y2="212" class="net_51"/>
  <line x1="125" x2="185" y1="608" y2="608" class="net_51"/>
  <line x1="185" x2="185" y1="608" y2="728" class="net_51"/>
  <circle cx="185" cy="728" r="2" style="fill:#000" class="net_51"/>
  <line x1="185" x2="198" y1="728" y2="728" class="net_51"/>
  <line x1="125" x2="185" y1="608" y2="608" class="net_51"/>
  <line x1="185" x2="185" y1="608" y2="908" class="net_51"/>
  <circle cx="185" cy="908" r="2" style="fill:#000" class="net_51"/>
  <line x1="185" x2="198" y1="908" y2="908" class="net_51"/>
  <line x1="125" x2="185" y1="608" y2="608" class="net_51"/>
  <line x1="185" x2="185" y1="608" y2="1028" class="net_51"/>
  <circle cx="185" cy="1028" r="2" style="fill:#000" class="net_51"/>
  <line x1="185" x2="198" y1="1028" y2="1028" class="net_51"/>
  <line x1="125" x2="185" y1="608" y2="608" class="net_51"/>
  <line x1="185" x2="185" y1="608" y2="1088" class="net_51"/>
  <circle cx="185" cy="1088" r="2" style="fill:#000" class="net_51"/>
  <line x1="185" x2="198" y1="1088" y2="1088" class="net_51"/>
  <line x1="125" x2="185" y1="608" y2="608" class="net_51"/>
  <line x1="185" x2="185" y1="608" y2="1148" class="net_51"/>
  <line x1="185" x2="198" y1="1148" y2="1148" class="net_51"/>
  <line x1="125" x2="185" y1="608" y2="608" class="net_51"/>
  <line x1="185" x2="185" y1="608" y2="363" class="net_51"/>
  <circle cx="185" cy="363" r="2" style="fill:#000" class="net_51"/>
  <line x1="185" x2="198" y1="363" y2="363" class="net_51"/>
  <line x1="125" x2="185" y1="608" y2="608" class="net_51"/>
  <line x1="185" x2="185" y1="608" y2="423" class="net_51"/>
  <circle cx="185" cy="423" r="2" style="fill:#000" class="net_51"/>
  <line x1="185" x2="198" y1="423" y2="423" class="net_51"/>
  <line x1="125" x2="185" y1="608" y2="608" class="net_51"/>
  <line x1="185" x2="185" y1="608" y2="483" class="net_51"/>
  <circle cx="185" cy="483" r="2" style="fill:#000" class="net_51"/>
  <line x1="185" x2="198" y1="483" y2="483" class="net_51"/>
  <line x1="125" x2="198" y1="608" y2="608" class="net_51"/>
  <line x1="125" x2="185" y1="608" y2="608" class="net_51"/>
  <line x1="185" x2="185" y1="608" y2="668" class="net_51"/>
  <circle cx="185" cy="668" r="2" style="fill:#000" class="net_51"/>
  <line x1="185" x2="198" y1="668" y2="668" class="net_51"/>
  <line x1="125" x2="185" y1="608" y2="608" class="net_51"/>
  <line x1="185" x2="185" y1="608" y2="32" class="net_51"/>
  <line x1="185" x2="266" y1="32" y2="32" class="net_51"/>
  <line x1="125" x2="185" y1="608" y2="608" class="net_51"/>
  <line x1="185" x2="185" y1="608" y2="92" class="net_51"/>
  <circle cx="185" cy="92" r="2" style="fill:#000" class="net_51"/>
  <line x1="185" x2="266" y1="92" y2="92" class="net_51"/>
  <line x1="115.8" x2="135" y1="177" y2="177" class="net_2"/>
  <line x1="135" x2="135" y1="177" y2="713" class="net_2"/>
  <circle cx="135" cy="177" r="2" style="fill:#000" class="net_2"/>
  <circle cx="135" cy="713" r="2" style="fill:#000" class="net_2"/>
  <line x1="135" x2="198" y1="713" y2="713" class="net_2"/>
  <line x1="115.8" x2="135" y1="177" y2="177" class="net_2"/>
  <line x1="135" x2="135" y1="177" y2="953" class="net_2"/>
  <line x1="135" x2="198" y1="953" y2="953" class="net_2"/>
  <line x1="115.8" x2="135" y1="177" y2="177" class="net_2"/>
  <line x1="135" x2="135" y1="177" y2="228" class="net_2"/>
  <circle cx="135" cy="228" r="2" style="fill:#000" class="net_2"/>
  <line x1="135" x2="198" y1="228" y2="228" class="net_2"/>
  <line x1="115.8" x2="135" y1="177" y2="177" class="net_2"/>
  <line x1="135" x2="135" y1="177" y2="468" class="net_2"/>
  <circle cx="135" cy="468" r="2" style="fill:#000" class="net_2"/>
  <line x1="135" x2="198" y1="468" y2="468" class="net_2"/>
  <line x1="115.8" x2="135" y1="177" y2="177" class="net_2"/>
  <line x1="135" x2="135" y1="177" y2="17" class="net_2"/>
  <line x1="135" x2="266" y1="17" y2="17" class="net_2"/>
  <line x1="115.8" x2="145" y1="197" y2="197" class="net_3"/>
  <line x1="145" x2="145" y1="197" y2="773" class="net_3"/>
  <circle cx="145" cy="197" r="2" style="fill:#000" class="net_3"/>
  <circle cx="145" cy="773" r="2" style="fill:#000" class="net_3"/>
  <line x1="145" x2="198" y1="773" y2="773" class="net_3"/>
  <line x1="115.8" x2="145" y1="197" y2="197" class="net_3"/>
  <line x1="145" x2="145" y1="197" y2="1013" class="net_3"/>
  <line x1="145" x2="198" y1="1013" y2="1013" class="net_3"/>
  <line x1="115.8" x2="145" y1="197" y2="197" class="net_3"/>
  <line x1="145" x2="145" y1="197" y2="288" class="net_3"/>
  <circle cx="145" cy="288" r="2" style="fill:#000" class="net_3"/>
  <line x1="145" x2="198" y1="288" y2="288" class="net_3"/>
  <line x1="115.8" x2="145" y1="197" y2="197" class="net_3"/>
  <line x1="145" x2="145" y1="197" y2="528" class="net_3"/>
  <circle cx="145" cy="528" r="2" style="fill:#000" class="net_3"/>
  <line x1="145" x2="198" y1="528" y2="528" class="net_3"/>
  <line x1="115.8" x2="145" y1="197" y2="197" class="net_3"/>
  <line x1="145" x2="145" y1="197" y2="77" class="net_3"/>
  <line x1="145" x2="266" y1="77" y2="77" class="net_3"/>
  <line x1="421" x2="436" y1="885.5" y2="885.5" class="net_18"/>
  <line x1="436" x2="436" y1="885.5" y2="1110.5" class="net_18"/>
  <line x1="436" x2="464" y1="1110.5" y2="1110.5" class="net_18"/>
  <line x1="421" x2="464" y1="1125.5" y2="1125.5" class="net_19"/>
  <line x1="421" x2="436" y1="400.5" y2="400.5" class="net_29"/>
  <line x1="436" x2="436" y1="400.5" y2="630.5" class="net_29"/>
  <line x1="436" x2="464" y1="630.5" y2="630.5" class="net_29"/>
  <line x1="421" x2="464" y1="645.5" y2="645.5" class="net_30"/>
  <line x1="486" x2="501" y1="189.5" y2="189.5" class="net_32"/>
  <line x1="501" x2="501" y1="189.5" y2="623" class="net_32"/>
  <line x1="501" x2="529" y1="623" y2="623" class="net_32"/>
  <line x1="491" x2="529" y1="638" y2="638" class="net_31"/>
  <line x1="491" x2="501" y1="638" y2="638" class="net_31"/>
  <line x1="501" x2="501" y1="638" y2="1133" class="net_31"/>
  <circle cx="501" cy="638" r="2" style="fill:#000" class="net_31"/>
  <line x1="501" x2="529" y1="1133" y2="1133" class="net_31"/>
  <line x1="491" x2="529" y1="1118" y2="1118" class="net_20"/>
  <line x1="296" x2="306" y1="24.5" y2="24.5" class="net_33"/>
  <line x1="306" x2="306" y1="24.5" y2="69.5" class="net_33"/>
  <line x1="306" x2="334" y1="69.5" y2="69.5" class="net_33"/>
  <line x1="296" x2="334" y1="84.5" y2="84.5" class="net_34"/>
  <line x1="296" x2="306" y1="144.5" y2="144.5" class="net_8"/>
  <line x1="306" x2="306" y1="144.5" y2="189.5" class="net_8"/>
  <line x1="306" x2="334" y1="189.5" y2="189.5" class="net_8"/>
  <line x1="296" x2="334" y1="204.5" y2="204.5" class="net_9"/>
  <line x1="361" x2="371" y1="77" y2="77" class="net_35"/>
  <line x1="371" x2="371" y1="77" y2="182" class="net_35"/>
  <line x1="371" x2="399" y1="182" y2="182" class="net_35"/>
  <line x1="361" x2="399" y1="197" y2="197" class="net_36"/>
  <line x1="228" x2="238" y1="720.5" y2="720.5" class="net_10"/>
  <line x1="238" x2="238" y1="720.5" y2="765.5" class="net_10"/>
  <line x1="238" x2="267" y1="765.5" y2="765.5" class="net_10"/>
  <line x1="228" x2="267" y1="780.5" y2="780.5" class="net_11"/>
  <line x1="228" x2="238" y1="840.5" y2="840.5" class="net_12"/>
  <line x1="238" x2="238" y1="840.5" y2="885.5" class="net_12"/>
  <line x1="238" x2="267" y1="885.5" y2="885.5" class="net_12"/>
  <line x1="228" x2="267" y1="900.5" y2="900.5" class="net_13"/>
  <line x1="294" x2="306" y1="773" y2="773" class="net_38"/>
  <line x1="306" x2="306" y1="773" y2="878" class="net_38"/>
  <line x1="306" x2="334" y1="878" y2="878" class="net_38"/>
  <line x1="294" x2="334" y1="893" y2="893" class="net_39"/>
  <line x1="228" x2="238" y1="960.5" y2="960.5" class="net_14"/>
  <line x1="238" x2="238" y1="960.5" y2="1005.5" class="net_14"/>
  <line x1="238" x2="267" y1="1005.5" y2="1005.5" class="net_14"/>
  <line x1="228" x2="267" y1="1020.5" y2="1020.5" class="net_15"/>
  <line x1="228" x2="238" y1="1080.5" y2="1080.5" class="net_16"/>
  <line x1="238" x2="238" y1="1080.5" y2="1125.5" class="net_16"/>
  <line x1="238" x2="267" y1="1125.5" y2="1125.5" class="net_16"/>
  <line x1="228" x2="267" y1="1140.5" y2="1140.5" class="net_17"/>
  <line x1="294" x2="306" y1="1013" y2="1013" class="net_41"/>
  <line x1="306" x2="306" y1="1013" y2="1118" class="net_41"/>
  <line x1="306" x2="334" y1="1118" y2="1118" class="net_41"/>
  <line x1="294" x2="334" y1="1133" y2="1133" class="net_42"/>
  <line x1="228" x2="238" y1="235.5" y2="235.5" class="net_21"/>
  <line x1="238" x2="238" y1="235.5" y2="280.5" class="net_21"/>
  <line x1="238" x2="267" y1="280.5" y2="280.5" class="net_21"/>
  <line x1="228" x2="267" y1="295.5" y2="295.5" class="net_22"/>
  <line x1="228" x2="238" y1="355.5" y2="355.5" class="net_23"/>
  <line x1="238" x2="238" y1="355.5" y2="400.5" class="net_23"/>
  <line x1="238" x2="267" y1="400.5" y2="400.5" class="net_23"/>
  <line x1="228" x2="267" y1="415.5" y2="415.5" class="net_24"/>
  <line x1="294" x2="306" y1="288" y2="288" class="net_44"/>
  <line x1="306" x2="306" y1="288" y2="393" class="net_44"/>
  <line x1="306" x2="334" y1="393" y2="393" class="net_44"/>
  <line x1="294" x2="334" y1="408" y2="408" class="net_45"/>
  <line x1="228" x2="238" y1="475.5" y2="475.5" class="net_25"/>
  <line x1="238" x2="238" y1="475.5" y2="520.5" class="net_25"/>
  <line x1="238" x2="267" y1="520.5" y2="520.5" class="net_25"/>
  <line x1="228" x2="267" y1="535.5" y2="535.5" class="net_26"/>
  <line x1="228" x2="238" y1="600.5" y2="600.5" class="net_27"/>
  <line x1="238" x2="238" y1="600.5" y2="645.5" class="net_27"/>
  <line x1="238" x2="267" y1="645.5" y2="645.5" class="net_27"/>
  <line x1="228" x2="267" y1="660.5" y2="660.5" class="net_28"/>
  <line x1="294" x2="306" y1="528" y2="528" class="net_47"/>
  <line x1="306" x2="306" y1="528" y2="638" class="net_47"/>
  <line x1="306" x2="334" y1="638" y2="638" class="net_47"/>
  <line x1="294" x2="334" y1="653" y2="653" class="net_48"/>
  <line x1="426" x2="461" y1="189.5" y2="189.5" class="net_37"/>
  <line x1="361" x2="396" y1="885.5" y2="885.5" class="net_40"/>
  <line x1="361" x2="396" y1="1125.5" y2="1125.5" class="net_43"/>
  <line x1="361" x2="396" y1="400.5" y2="400.5" class="net_46"/>
  <line x1="361" x2="396" y1="645.5" y2="645.5" class="net_49"/>
  <line x1="604" x2="639" y1="1115.5" y2="1115.5" class="net_6,7"/>
  <line x1="556" x2="566" y1="630.5" y2="630.5" class="net_6"/>
  <line x1="566" x2="566" y1="630.5" y2="1105.5" class="net_6"/>
  <line x1="566" x2="598" y1="1105.5" y2="1105.5" class="net_6"/>
  <line x1="556" x2="598" y1="1125.5" y2="1125.5" class="net_7"/>
  <line x1="40" x2="110.8" y1="147" y2="147" class="net_2,3,4,5"/>
</svg>
