<svg xmlns="http://www.w3.org/2000/svg" xmlns:xlink="http://www.w3.org/1999/xlink" xmlns:s="https://github.com/nturley/netlistsvg" width="550" height="855">
  <style>svg {
    stroke:#000;
    fill:none;
  }
  text {
    fill:#000;
    stroke:none;
    font-size:10px;
    font-weight: bold;
    font-family: "Courier New", monospace;
  }
  .nodelabel {
    text-anchor: middle;
  }
  .inputPortLabel {
    text-anchor: end;
  }
  .splitjoinBody {
    fill:#000;
  }</style>
  <g s:type="or" transform="translate(165,12)" s:width="30" s:height="25" id="cell_$auto$simplemap.cc:198:logic_reduce$145">
    <s:alias val="$or"/>
    <s:alias val="$logic_or"/>
    <s:alias val="$_OR_"/>
    <path d="M0,25 L0,25 L15,25 A15 12.5 0 0 0 15,0 L0,0" class="cell_$auto$simplemap.cc:198:logic_reduce$145"/>
    <path d="M0,0 A30 25 0 0 1 0,25" class="cell_$auto$simplemap.cc:198:logic_reduce$145"/>
    <g s:x="3" s:y="5" s:pid="A"/>
    <g s:x="3" s:y="20" s:pid="B"/>
    <g s:x="30" s:y="12.5" s:pid="Y"/>
  </g>
  <g s:type="or" transform="translate(165,72)" s:width="30" s:height="25" id="cell_$auto$simplemap.cc:198:logic_reduce$146">
    <s:alias val="$or"/>
    <s:alias val="$logic_or"/>
    <s:alias val="$_OR_"/>
    <path d="M0,25 L0,25 L15,25 A15 12.5 0 0 0 15,0 L0,0" class="cell_$auto$simplemap.cc:198:logic_reduce$146"/>
    <path d="M0,0 A30 25 0 0 1 0,25" class="cell_$auto$simplemap.cc:198:logic_reduce$146"/>
    <g s:x="3" s:y="5" s:pid="A"/>
    <g s:x="3" s:y="20" s:pid="B"/>
    <g s:x="30" s:y="12.5" s:pid="Y"/>
  </g>
  <g s:type="or" transform="translate(165,132)" s:width="30" s:height="25" id="cell_$auto$simplemap.cc:198:logic_reduce$147">
    <s:alias val="$or"/>
    <s:alias val="$logic_or"/>
    <s:alias val="$_OR_"/>
    <path d="M0,25 L0,25 L15,25 A15 12.5 0 0 0 15,0 L0,0" class="cell_$auto$simplemap.cc:198:logic_reduce$147"/>
    <path d="M0,0 A30 25 0 0 1 0,25" class="cell_$auto$simplemap.cc:198:logic_reduce$147"/>
    <g s:x="3" s:y="5" s:pid="A"/>
    <g s:x="3" s:y="20" s:pid="B"/>
    <g s:x="30" s:y="12.5" s:pid="Y"/>
  </g>
  <g s:type="or" transform="translate(165,192)" s:width="30" s:height="25" id="cell_$auto$simplemap.cc:198:logic_reduce$148">
    <s:alias val="$or"/>
    <s:alias val="$logic_or"/>
    <s:alias val="$_OR_"/>
    <path d="M0,25 L0,25 L15,25 A15 12.5 0 0 0 15,0 L0,0" class="cell_$auto$simplemap.cc:198:logic_reduce$148"/>
    <path d="M0,0 A30 25 0 0 1 0,25" class="cell_$auto$simplemap.cc:198:logic_reduce$148"/>
    <g s:x="3" s:y="5" s:pid="A"/>
    <g s:x="3" s:y="20" s:pid="B"/>
    <g s:x="30" s:y="12.5" s:pid="Y"/>
  </g>
  <g s:type="or" transform="translate(165,252)" s:width="30" s:height="25" id="cell_$auto$simplemap.cc:198:logic_reduce$149">
    <s:alias val="$or"/>
    <s:alias val="$logic_or"/>
    <s:alias val="$_OR_"/>
    <path d="M0,25 L0,25 L15,25 A15 12.5 0 0 0 15,0 L0,0" class="cell_$auto$simplemap.cc:198:logic_reduce$149"/>
    <path d="M0,0 A30 25 0 0 1 0,25" class="cell_$auto$simplemap.cc:198:logic_reduce$149"/>
    <g s:x="3" s:y="5" s:pid="A"/>
    <g s:x="3" s:y="20" s:pid="B"/>
    <g s:x="30" s:y="12.5" s:pid="Y"/>
  </g>
  <g s:type="or" transform="translate(165,312)" s:width="30" s:height="25" id="cell_$auto$simplemap.cc:198:logic_reduce$150">
    <s:alias val="$or"/>
    <s:alias val="$logic_or"/>
    <s:alias val="$_OR_"/>
    <path d="M0,25 L0,25 L15,25 A15 12.5 0 0 0 15,0 L0,0" class="cell_$auto$simplemap.cc:198:logic_reduce$150"/>
    <path d="M0,0 A30 25 0 0 1 0,25" class="cell_$auto$simplemap.cc:198:logic_reduce$150"/>
    <g s:x="3" s:y="5" s:pid="A"/>
    <g s:x="3" s:y="20" s:pid="B"/>
    <g s:x="30" s:y="12.5" s:pid="Y"/>
  </g>
  <g s:type="or" transform="translate(165,372)" s:width="30" s:height="25" id="cell_$auto$simplemap.cc:198:logic_reduce$151">
    <s:alias val="$or"/>
    <s:alias val="$logic_or"/>
    <s:alias val="$_OR_"/>
    <path d="M0,25 L0,25 L15,25 A15 12.5 0 0 0 15,0 L0,0" class="cell_$auto$simplemap.cc:198:logic_reduce$151"/>
    <path d="M0,0 A30 25 0 0 1 0,25" class="cell_$auto$simplemap.cc:198:logic_reduce$151"/>
    <g s:x="3" s:y="5" s:pid="A"/>
    <g s:x="3" s:y="20" s:pid="B"/>
    <g s:x="30" s:y="12.5" s:pid="Y"/>
  </g>
  <g s:type="or" transform="translate(165,432)" s:width="30" s:height="25" id="cell_$auto$simplemap.cc:198:logic_reduce$152">
    <s:alias val="$or"/>
    <s:alias val="$logic_or"/>
    <s:alias val="$_OR_"/>
    <path d="M0,25 L0,25 L15,25 A15 12.5 0 0 0 15,0 L0,0" class="cell_$auto$simplemap.cc:198:logic_reduce$152"/>
    <path d="M0,0 A30 25 0 0 1 0,25" class="cell_$auto$simplemap.cc:198:logic_reduce$152"/>
    <g s:x="3" s:y="5" s:pid="A"/>
    <g s:x="3" s:y="20" s:pid="B"/>
    <g s:x="30" s:y="12.5" s:pid="Y"/>
  </g>
  <g s:type="or" transform="translate(230,19.5)" s:width="30" s:height="25" id="cell_$auto$simplemap.cc:198:logic_reduce$154">
    <s:alias val="$or"/>
    <s:alias val="$logic_or"/>
    <s:alias val="$_OR_"/>
    <path d="M0,25 L0,25 L15,25 A15 12.5 0 0 0 15,0 L0,0" class="cell_$auto$simplemap.cc:198:logic_reduce$154"/>
    <path d="M0,0 A30 25 0 0 1 0,25" class="cell_$auto$simplemap.cc:198:logic_reduce$154"/>
    <g s:x="3" s:y="5" s:pid="A"/>
    <g s:x="3" s:y="20" s:pid="B"/>
    <g s:x="30" s:y="12.5" s:pid="Y"/>
  </g>
  <g s:type="or" transform="translate(230,139.5)" s:width="30" s:height="25" id="cell_$auto$simplemap.cc:198:logic_reduce$155">
    <s:alias val="$or"/>
    <s:alias val="$logic_or"/>
    <s:alias val="$_OR_"/>
    <path d="M0,25 L0,25 L15,25 A15 12.5 0 0 0 15,0 L0,0" class="cell_$auto$simplemap.cc:198:logic_reduce$155"/>
    <path d="M0,0 A30 25 0 0 1 0,25" class="cell_$auto$simplemap.cc:198:logic_reduce$155"/>
    <g s:x="3" s:y="5" s:pid="A"/>
    <g s:x="3" s:y="20" s:pid="B"/>
    <g s:x="30" s:y="12.5" s:pid="Y"/>
  </g>
  <g s:type="or" transform="translate(230,259.5)" s:width="30" s:height="25" id="cell_$auto$simplemap.cc:198:logic_reduce$156">
    <s:alias val="$or"/>
    <s:alias val="$logic_or"/>
    <s:alias val="$_OR_"/>
    <path d="M0,25 L0,25 L15,25 A15 12.5 0 0 0 15,0 L0,0" class="cell_$auto$simplemap.cc:198:logic_reduce$156"/>
    <path d="M0,0 A30 25 0 0 1 0,25" class="cell_$auto$simplemap.cc:198:logic_reduce$156"/>
    <g s:x="3" s:y="5" s:pid="A"/>
    <g s:x="3" s:y="20" s:pid="B"/>
    <g s:x="30" s:y="12.5" s:pid="Y"/>
  </g>
  <g s:type="or" transform="translate(230,379.5)" s:width="30" s:height="25" id="cell_$auto$simplemap.cc:198:logic_reduce$157">
    <s:alias val="$or"/>
    <s:alias val="$logic_or"/>
    <s:alias val="$_OR_"/>
    <path d="M0,25 L0,25 L15,25 A15 12.5 0 0 0 15,0 L0,0" class="cell_$auto$simplemap.cc:198:logic_reduce$157"/>
    <path d="M0,0 A30 25 0 0 1 0,25" class="cell_$auto$simplemap.cc:198:logic_reduce$157"/>
    <g s:x="3" s:y="5" s:pid="A"/>
    <g s:x="3" s:y="20" s:pid="B"/>
    <g s:x="30" s:y="12.5" s:pid="Y"/>
  </g>
  <g s:type="or" transform="translate(295,27)" s:width="30" s:height="25" id="cell_$auto$simplemap.cc:198:logic_reduce$159">
    <s:alias val="$or"/>
    <s:alias val="$logic_or"/>
    <s:alias val="$_OR_"/>
    <path d="M0,25 L0,25 L15,25 A15 12.5 0 0 0 15,0 L0,0" class="cell_$auto$simplemap.cc:198:logic_reduce$159"/>
    <path d="M0,0 A30 25 0 0 1 0,25" class="cell_$auto$simplemap.cc:198:logic_reduce$159"/>
    <g s:x="3" s:y="5" s:pid="A"/>
    <g s:x="3" s:y="20" s:pid="B"/>
    <g s:x="30" s:y="12.5" s:pid="Y"/>
  </g>
  <g s:type="or" transform="translate(295,267)" s:width="30" s:height="25" id="cell_$auto$simplemap.cc:198:logic_reduce$160">
    <s:alias val="$or"/>
    <s:alias val="$logic_or"/>
    <s:alias val="$_OR_"/>
    <path d="M0,25 L0,25 L15,25 A15 12.5 0 0 0 15,0 L0,0" class="cell_$auto$simplemap.cc:198:logic_reduce$160"/>
    <path d="M0,0 A30 25 0 0 1 0,25" class="cell_$auto$simplemap.cc:198:logic_reduce$160"/>
    <g s:x="3" s:y="5" s:pid="A"/>
    <g s:x="3" s:y="20" s:pid="B"/>
    <g s:x="30" s:y="12.5" s:pid="Y"/>
  </g>
  <g s:type="or" transform="translate(366,34.5)" s:width="30" s:height="25" id="cell_$auto$simplemap.cc:198:logic_reduce$162">
    <s:alias val="$or"/>
    <s:alias val="$logic_or"/>
    <s:alias val="$_OR_"/>
    <path d="M0,25 L0,25 L15,25 A15 12.5 0 0 0 15,0 L0,0" class="cell_$auto$simplemap.cc:198:logic_reduce$162"/>
    <path d="M0,0 A30 25 0 0 1 0,25" class="cell_$auto$simplemap.cc:198:logic_reduce$162"/>
    <g s:x="3" s:y="5" s:pid="A"/>
    <g s:x="3" s:y="20" s:pid="B"/>
    <g s:x="30" s:y="12.5" s:pid="Y"/>
  </g>
  <g s:type="not" transform="translate(443,37)" s:width="30" s:height="20" id="cell_$auto$simplemap.cc:227:simplemap_lognot$163">
    <s:alias val="$_NOT_"/>
    <s:alias val="$not"/>
    <s:alias val="$logic_not"/>
    <path d="M0,0 L0,20 L20,10 Z" class="cell_$auto$simplemap.cc:227:simplemap_lognot$163"/>
    <circle cx="23" cy="10" r="3" class="cell_$auto$simplemap.cc:227:simplemap_lognot$163"/>
    <g s:x="0" s:y="10" s:pid="A"/>
    <g s:x="25" s:y="10" s:pid="Y"/>
  </g>
  <g s:type="and" transform="translate(230,462)" s:width="30" s:height="25" id="cell_$auto$simplemap.cc:256:simplemap_logbin$164">
    <s:alias val="$and"/>
    <s:alias val="$logic_and"/>
    <s:alias val="$_AND_"/>
    <path d="M0,0 L0,25 L15,25 A15 12.5 0 0 0 15,0 Z" class="cell_$auto$simplemap.cc:256:simplemap_logbin$164"/>
    <g s:x="0" s:y="5" s:pid="A"/>
    <g s:x="0" s:y="20" s:pid="B"/>
    <g s:x="30" s:y="12.5" s:pid="Y"/>
  </g>
  <g s:type="and" transform="translate(295,469.5)" s:width="30" s:height="25" id="cell_$auto$simplemap.cc:256:simplemap_logbin$166">
    <s:alias val="$and"/>
    <s:alias val="$logic_and"/>
    <s:alias val="$_AND_"/>
    <path d="M0,0 L0,25 L15,25 A15 12.5 0 0 0 15,0 Z" class="cell_$auto$simplemap.cc:256:simplemap_logbin$166"/>
    <g s:x="0" s:y="5" s:pid="A"/>
    <g s:x="0" s:y="20" s:pid="B"/>
    <g s:x="30" s:y="12.5" s:pid="Y"/>
  </g>
  <g s:type="and" transform="translate(230,577)" s:width="30" s:height="25" id="cell_$auto$simplemap.cc:256:simplemap_logbin$169">
    <s:alias val="$and"/>
    <s:alias val="$logic_and"/>
    <s:alias val="$_AND_"/>
    <path d="M0,0 L0,25 L15,25 A15 12.5 0 0 0 15,0 Z" class="cell_$auto$simplemap.cc:256:simplemap_logbin$169"/>
    <g s:x="0" s:y="5" s:pid="A"/>
    <g s:x="0" s:y="20" s:pid="B"/>
    <g s:x="30" s:y="12.5" s:pid="Y"/>
  </g>
  <g s:type="and" transform="translate(295,584.5)" s:width="30" s:height="25" id="cell_$auto$simplemap.cc:256:simplemap_logbin$170">
    <s:alias val="$and"/>
    <s:alias val="$logic_and"/>
    <s:alias val="$_AND_"/>
    <path d="M0,0 L0,25 L15,25 A15 12.5 0 0 0 15,0 Z" class="cell_$auto$simplemap.cc:256:simplemap_logbin$170"/>
    <g s:x="0" s:y="5" s:pid="A"/>
    <g s:x="0" s:y="20" s:pid="B"/>
    <g s:x="30" s:y="12.5" s:pid="Y"/>
  </g>
  <g s:type="or" transform="translate(366,477)" s:width="30" s:height="25" id="cell_$auto$simplemap.cc:256:simplemap_logbin$171">
    <s:alias val="$or"/>
    <s:alias val="$logic_or"/>
    <s:alias val="$_OR_"/>
    <path d="M0,25 L0,25 L15,25 A15 12.5 0 0 0 15,0 L0,0" class="cell_$auto$simplemap.cc:256:simplemap_logbin$171"/>
    <path d="M0,0 A30 25 0 0 1 0,25" class="cell_$auto$simplemap.cc:256:simplemap_logbin$171"/>
    <g s:x="3" s:y="5" s:pid="A"/>
    <g s:x="3" s:y="20" s:pid="B"/>
    <g s:x="30" s:y="12.5" s:pid="Y"/>
  </g>
  <g s:type="and" transform="translate(230,673)" s:width="30" s:height="25" id="cell_$auto$simplemap.cc:256:simplemap_logbin$173">
    <s:alias val="$and"/>
    <s:alias val="$logic_and"/>
    <s:alias val="$_AND_"/>
    <path d="M0,0 L0,25 L15,25 A15 12.5 0 0 0 15,0 Z" class="cell_$auto$simplemap.cc:256:simplemap_logbin$173"/>
    <g s:x="0" s:y="5" s:pid="A"/>
    <g s:x="0" s:y="20" s:pid="B"/>
    <g s:x="30" s:y="12.5" s:pid="Y"/>
  </g>
  <g s:type="and" transform="translate(295,680.5)" s:width="30" s:height="25" id="cell_$auto$simplemap.cc:256:simplemap_logbin$174">
    <s:alias val="$and"/>
    <s:alias val="$logic_and"/>
    <s:alias val="$_AND_"/>
    <path d="M0,0 L0,25 L15,25 A15 12.5 0 0 0 15,0 Z" class="cell_$auto$simplemap.cc:256:simplemap_logbin$174"/>
    <g s:x="0" s:y="5" s:pid="A"/>
    <g s:x="0" s:y="20" s:pid="B"/>
    <g s:x="30" s:y="12.5" s:pid="Y"/>
  </g>
  <g s:type="and" transform="translate(230,743)" s:width="30" s:height="25" id="cell_$auto$simplemap.cc:256:simplemap_logbin$176">
    <s:alias val="$and"/>
    <s:alias val="$logic_and"/>
    <s:alias val="$_AND_"/>
    <path d="M0,0 L0,25 L15,25 A15 12.5 0 0 0 15,0 Z" class="cell_$auto$simplemap.cc:256:simplemap_logbin$176"/>
    <g s:x="0" s:y="5" s:pid="A"/>
    <g s:x="0" s:y="20" s:pid="B"/>
    <g s:x="30" s:y="12.5" s:pid="Y"/>
  </g>
  <g s:type="and" transform="translate(295,750.5)" s:width="30" s:height="25" id="cell_$auto$simplemap.cc:256:simplemap_logbin$178">
    <s:alias val="$and"/>
    <s:alias val="$logic_and"/>
    <s:alias val="$_AND_"/>
    <path d="M0,0 L0,25 L15,25 A15 12.5 0 0 0 15,0 Z" class="cell_$auto$simplemap.cc:256:simplemap_logbin$178"/>
    <g s:x="0" s:y="5" s:pid="A"/>
    <g s:x="0" s:y="20" s:pid="B"/>
    <g s:x="30" s:y="12.5" s:pid="Y"/>
  </g>
  <g s:type="or" transform="translate(366,688)" s:width="30" s:height="25" id="cell_$auto$simplemap.cc:256:simplemap_logbin$179">
    <s:alias val="$or"/>
    <s:alias val="$logic_or"/>
    <s:alias val="$_OR_"/>
    <path d="M0,25 L0,25 L15,25 A15 12.5 0 0 0 15,0 L0,0" class="cell_$auto$simplemap.cc:256:simplemap_logbin$179"/>
    <path d="M0,0 A30 25 0 0 1 0,25" class="cell_$auto$simplemap.cc:256:simplemap_logbin$179"/>
    <g s:x="3" s:y="5" s:pid="A"/>
    <g s:x="3" s:y="20" s:pid="B"/>
    <g s:x="30" s:y="12.5" s:pid="Y"/>
  </g>
  <g s:type="mux" transform="translate(446.3333333333333,479.5)" s:width="20" s:height="40" id="cell_$auto$simplemap.cc:298:simplemap_mux$180">
    <s:alias val="$pmux"/>
    <s:alias val="$mux"/>
    <s:alias val="$_MUX_"/>
    <path d="M0,0 L20,10 L20,30 L0,40 Z" class="cell_$auto$simplemap.cc:298:simplemap_mux$180"/>
    <g s:x="0" s:y="10" s:pid="A"/>
    <g s:x="0" s:y="30" s:pid="B"/>
    <g s:x="10" s:y="35" s:pid="S"/>
    <g s:x="20" s:y="20" s:pid="Y"/>
  </g>
  <g s:type="not" transform="translate(230,522)" s:width="30" s:height="20" id="cell_$auto$simplemap.cc:46:simplemap_not$165">
    <s:alias val="$_NOT_"/>
    <s:alias val="$not"/>
    <s:alias val="$logic_not"/>
    <path d="M0,0 L0,20 L20,10 Z" class="cell_$auto$simplemap.cc:46:simplemap_not$165"/>
    <circle cx="23" cy="10" r="3" class="cell_$auto$simplemap.cc:46:simplemap_not$165"/>
    <g s:x="0" s:y="10" s:pid="A"/>
    <g s:x="25" s:y="10" s:pid="Y"/>
  </g>
  <g s:type="not" transform="translate(165,572)" s:width="30" s:height="20" id="cell_$auto$simplemap.cc:46:simplemap_not$167">
    <s:alias val="$_NOT_"/>
    <s:alias val="$not"/>
    <s:alias val="$logic_not"/>
    <path d="M0,0 L0,20 L20,10 Z" class="cell_$auto$simplemap.cc:46:simplemap_not$167"/>
    <circle cx="23" cy="10" r="3" class="cell_$auto$simplemap.cc:46:simplemap_not$167"/>
    <g s:x="0" s:y="10" s:pid="A"/>
    <g s:x="25" s:y="10" s:pid="Y"/>
  </g>
  <g s:type="not" transform="translate(165,627)" s:width="30" s:height="20" id="cell_$auto$simplemap.cc:46:simplemap_not$168">
    <s:alias val="$_NOT_"/>
    <s:alias val="$not"/>
    <s:alias val="$logic_not"/>
    <path d="M0,0 L0,20 L20,10 Z" class="cell_$auto$simplemap.cc:46:simplemap_not$168"/>
    <circle cx="23" cy="10" r="3" class="cell_$auto$simplemap.cc:46:simplemap_not$168"/>
    <g s:x="0" s:y="10" s:pid="A"/>
    <g s:x="25" s:y="10" s:pid="Y"/>
  </g>
  <g s:type="not" transform="translate(165,668)" s:width="30" s:height="20" id="cell_$auto$simplemap.cc:46:simplemap_not$172">
    <s:alias val="$_NOT_"/>
    <s:alias val="$not"/>
    <s:alias val="$logic_not"/>
    <path d="M0,0 L0,20 L20,10 Z" class="cell_$auto$simplemap.cc:46:simplemap_not$172"/>
    <circle cx="23" cy="10" r="3" class="cell_$auto$simplemap.cc:46:simplemap_not$172"/>
    <g s:x="0" s:y="10" s:pid="A"/>
    <g s:x="25" s:y="10" s:pid="Y"/>
  </g>
  <g s:type="not" transform="translate(165,759)" s:width="30" s:height="20" id="cell_$auto$simplemap.cc:46:simplemap_not$175">
    <s:alias val="$_NOT_"/>
    <s:alias val="$not"/>
    <s:alias val="$logic_not"/>
    <path d="M0,0 L0,20 L20,10 Z" class="cell_$auto$simplemap.cc:46:simplemap_not$175"/>
    <circle cx="23" cy="10" r="3" class="cell_$auto$simplemap.cc:46:simplemap_not$175"/>
    <g s:x="0" s:y="10" s:pid="A"/>
    <g s:x="25" s:y="10" s:pid="Y"/>
  </g>
  <g s:type="not" transform="translate(230,803)" s:width="30" s:height="20" id="cell_$auto$simplemap.cc:46:simplemap_not$177">
    <s:alias val="$_NOT_"/>
    <s:alias val="$not"/>
    <s:alias val="$logic_not"/>
    <path d="M0,0 L0,20 L20,10 Z" class="cell_$auto$simplemap.cc:46:simplemap_not$177"/>
    <circle cx="23" cy="10" r="3" class="cell_$auto$simplemap.cc:46:simplemap_not$177"/>
    <g s:x="0" s:y="10" s:pid="A"/>
    <g s:x="25" s:y="10" s:pid="Y"/>
  </g>
  <g s:type="inputExt" transform="translate(12,32)" s:width="30" s:height="20" id="cell_i_rd">
    <text x="15" y="-4" class="nodelabel cell_i_rd" s:attribute="ref">i_rd</text>
    <s:alias val="$_inputExt_"/>
    <path d="M0,0 L0,20 L15,20 L30,10 L15,0 Z" class="cell_i_rd"/>
    <g s:x="28" s:y="10" s:pid="Y"/>
  </g>
  <g s:type="inputExt" transform="translate(12,690.5)" s:width="30" s:height="20" id="cell_i_rs1">
    <text x="15" y="-4" class="nodelabel cell_i_rs1" s:attribute="ref">i_rs1</text>
    <s:alias val="$_inputExt_"/>
    <path d="M0,0 L0,20 L15,20 L30,10 L15,0 Z" class="cell_i_rs1"/>
    <g s:x="28" s:y="10" s:pid="Y"/>
  </g>
  <g s:type="inputExt" transform="translate(12,755.5)" s:width="30" s:height="20" id="cell_i_rs2">
    <text x="15" y="-4" class="nodelabel cell_i_rs2" s:attribute="ref">i_rs2</text>
    <s:alias val="$_inputExt_"/>
    <path d="M0,0 L0,20 L15,20 L30,10 L15,0 Z" class="cell_i_rs2"/>
    <g s:x="28" s:y="10" s:pid="Y"/>
  </g>
  <g s:type="inputExt" transform="translate(360,758)" s:width="30" s:height="20" id="cell_i_is_sub">
    <text x="15" y="-4" class="nodelabel cell_i_is_sub" s:attribute="ref">i_is_sub</text>
    <s:alias val="$_inputExt_"/>
    <path d="M0,0 L0,20 L15,20 L30,10 L15,0 Z" class="cell_i_is_sub"/>
    <g s:x="28" s:y="10" s:pid="Y"/>
  </g>
  <g s:type="outputExt" transform="translate(508,37)" s:width="30" s:height="20" id="cell_o_f_z">
    <text x="15" y="-4" class="nodelabel cell_o_f_z" s:attribute="ref">o_f_z</text>
    <s:alias val="$_outputExt_"/>
    <path d="M30,0 L30,20 L15,20 L0,10 L15,0 Z" class="cell_o_f_z"/>
    <g s:x="0" s:y="10" s:pid="A"/>
  </g>
  <g s:type="outputExt" transform="translate(508,823)" s:width="30" s:height="20" id="cell_o_f_n">
    <text x="15" y="-4" class="nodelabel cell_o_f_n" s:attribute="ref">o_f_n</text>
    <s:alias val="$_outputExt_"/>
    <path d="M30,0 L30,20 L15,20 L0,10 L15,0 Z" class="cell_o_f_n"/>
    <g s:x="0" s:y="10" s:pid="A"/>
  </g>
  <g s:type="outputExt" transform="translate(508,489.5)" s:width="30" s:height="20" id="cell_o_f_v">
    <text x="15" y="-4" class="nodelabel cell_o_f_v" s:attribute="ref">o_f_v</text>
    <s:alias val="$_outputExt_"/>
    <path d="M30,0 L30,20 L15,20 L0,10 L15,0 Z" class="cell_o_f_v"/>
    <g s:x="0" s:y="10" s:pid="A"/>
  </g>
  <g s:type="split" transform="translate(77,61.5)" s:width="5" s:height="40" id="cell_$split$,2,3,4,5,6,7,8,9,10,11,12,13,14,15,16,17,">
    <rect width="5" height="320" class="splitjoinBody" s:generic="body"/>
    <s:alias val="$_split_"/>
    <g s:x="0" s:y="20" s:pid="in"/>
    <g transform="translate(4,10)" s:x="4" s:y="10" s:pid="out0">
      <text x="5" y="-4">0</text>
    </g>
    <g transform="translate(4,30)" s:x="4" s:y="10" s:pid="out0">
      <text x="5" y="-4">1</text>
    </g>
    <g transform="translate(4,50)" s:x="4" s:y="10" s:pid="out0">
      <text x="5" y="-4">2</text>
    </g>
    <g transform="translate(4,70)" s:x="4" s:y="10" s:pid="out0">
      <text x="5" y="-4">3</text>
    </g>
    <g transform="translate(4,90)" s:x="4" s:y="10" s:pid="out0">
      <text x="5" y="-4">4</text>
    </g>
    <g transform="translate(4,110)" s:x="4" s:y="10" s:pid="out0">
      <text x="5" y="-4">5</text>
    </g>
    <g transform="translate(4,130)" s:x="4" s:y="10" s:pid="out0">
      <text x="5" y="-4">6</text>
    </g>
    <g transform="translate(4,150)" s:x="4" s:y="10" s:pid="out0">
      <text x="5" y="-4">7</text>
    </g>
    <g transform="translate(4,170)" s:x="4" s:y="10" s:pid="out0">
      <text x="5" y="-4">8</text>
    </g>
    <g transform="translate(4,190)" s:x="4" s:y="10" s:pid="out0">
      <text x="5" y="-4">9</text>
    </g>
    <g transform="translate(4,210)" s:x="4" s:y="10" s:pid="out0">
      <text x="5" y="-4">10</text>
    </g>
    <g transform="translate(4,230)" s:x="4" s:y="10" s:pid="out0">
      <text x="5" y="-4">11</text>
    </g>
    <g transform="translate(4,250)" s:x="4" s:y="10" s:pid="out0">
      <text x="5" y="-4">12</text>
    </g>
    <g transform="translate(4,270)" s:x="4" s:y="10" s:pid="out0">
      <text x="5" y="-4">13</text>
    </g>
    <g transform="translate(4,290)" s:x="4" s:y="10" s:pid="out0">
      <text x="5" y="-4">14</text>
    </g>
    <g transform="translate(4,310)" s:x="4" s:y="10" s:pid="out0">
      <text x="5" y="-4">15</text>
    </g>
  </g>
  <g s:type="split" transform="translate(77,667.5)" s:width="5" s:height="40" id="cell_$split$,18,19,20,21,22,23,24,25,26,27,28,29,30,31,32,33,">
    <rect width="5" height="20" class="splitjoinBody" s:generic="body"/>
    <s:alias val="$_split_"/>
    <g s:x="0" s:y="20" s:pid="in"/>
    <g transform="translate(4,10)" s:x="4" s:y="10" s:pid="out0">
      <text x="5" y="-4">15</text>
    </g>
  </g>
  <g s:type="split" transform="translate(77,710.5)" s:width="5" s:height="40" id="cell_$split$,34,35,36,37,38,39,40,41,42,43,44,45,46,47,48,49,">
    <rect width="5" height="20" class="splitjoinBody" s:generic="body"/>
    <s:alias val="$_split_"/>
    <g s:x="0" s:y="20" s:pid="in"/>
    <g transform="translate(4,10)" s:x="4" s:y="10" s:pid="out0">
      <text x="5" y="-4">15</text>
    </g>
  </g>
  <line x1="81.5" x2="81.5" y1="71.5" y2="17" class="net_2"/>
  <line x1="81.5" x2="168" y1="17" y2="17" class="net_2"/>
  <line x1="81.5" x2="81.5" y1="91.5" y2="32" class="net_3"/>
  <line x1="81.5" x2="168" y1="32" y2="32" class="net_3"/>
  <line x1="82" x2="105" y1="112" y2="112" class="net_4"/>
  <line x1="105" x2="105" y1="112" y2="77" class="net_4"/>
  <line x1="105" x2="168" y1="77" y2="77" class="net_4"/>
  <line x1="82" x2="115" y1="132" y2="132" class="net_5"/>
  <line x1="115" x2="115" y1="132" y2="92" class="net_5"/>
  <line x1="115" x2="168" y1="92" y2="92" class="net_5"/>
  <line x1="82" x2="105" y1="152" y2="152" class="net_6"/>
  <line x1="105" x2="105" y1="152" y2="137" class="net_6"/>
  <line x1="105" x2="168" y1="137" y2="137" class="net_6"/>
  <line x1="82" x2="115" y1="172" y2="172" class="net_7"/>
  <line x1="115" x2="115" y1="172" y2="152" class="net_7"/>
  <line x1="115" x2="168" y1="152" y2="152" class="net_7"/>
  <line x1="82" x2="105" y1="192" y2="192" class="net_8"/>
  <line x1="105" x2="105" y1="192" y2="197" class="net_8"/>
  <line x1="105" x2="168" y1="197" y2="197" class="net_8"/>
  <line x1="82" x2="168" y1="212" y2="212" class="net_9"/>
  <line x1="82" x2="155" y1="232" y2="232" class="net_10"/>
  <line x1="155" x2="155" y1="232" y2="257" class="net_10"/>
  <line x1="155" x2="168" y1="257" y2="257" class="net_10"/>
  <line x1="82" x2="145" y1="252" y2="252" class="net_11"/>
  <line x1="145" x2="145" y1="252" y2="272" class="net_11"/>
  <line x1="145" x2="168" y1="272" y2="272" class="net_11"/>
  <line x1="82" x2="135" y1="272" y2="272" class="net_12"/>
  <line x1="135" x2="135" y1="272" y2="317" class="net_12"/>
  <line x1="135" x2="168" y1="317" y2="317" class="net_12"/>
  <line x1="82" x2="125" y1="292" y2="292" class="net_13"/>
  <line x1="125" x2="125" y1="292" y2="332" class="net_13"/>
  <line x1="125" x2="168" y1="332" y2="332" class="net_13"/>
  <line x1="82" x2="115" y1="312" y2="312" class="net_14"/>
  <line x1="115" x2="115" y1="312" y2="377" class="net_14"/>
  <line x1="115" x2="168" y1="377" y2="377" class="net_14"/>
  <line x1="82" x2="105" y1="332" y2="332" class="net_15"/>
  <line x1="105" x2="105" y1="332" y2="392" class="net_15"/>
  <line x1="105" x2="168" y1="392" y2="392" class="net_15"/>
  <line x1="81.5" x2="81.5" y1="352.5" y2="437" class="net_16"/>
  <line x1="81.5" x2="168" y1="437" y2="437" class="net_16"/>
  <line x1="81.5" x2="81.5" y1="372.5" y2="657" class="net_17"/>
  <line x1="81.5" x2="105" y1="657" y2="657" class="net_17"/>
  <line x1="105" x2="105" y1="657" y2="452" class="net_17"/>
  <circle cx="105" cy="657" r="2" style="fill:#000" class="net_17"/>
  <line x1="105" x2="168" y1="452" y2="452" class="net_17"/>
  <line x1="81.5" x2="81.5" y1="372.5" y2="657" class="net_17"/>
  <line x1="81.5" x2="270" y1="657" y2="657" class="net_17"/>
  <line x1="270" x2="270" y1="657" y2="604.5" class="net_17"/>
  <line x1="270" x2="295" y1="604.5" y2="604.5" class="net_17"/>
  <line x1="81.5" x2="81.5" y1="372.5" y2="657" class="net_17"/>
  <line x1="81.5" x2="105" y1="657" y2="657" class="net_17"/>
  <line x1="105" x2="105" y1="657" y2="732" class="net_17"/>
  <line x1="105" x2="270" y1="732" y2="732" class="net_17"/>
  <line x1="270" x2="270" y1="732" y2="700.5" class="net_17"/>
  <circle cx="105" cy="732" r="2" style="fill:#000" class="net_17"/>
  <line x1="270" x2="295" y1="700.5" y2="700.5" class="net_17"/>
  <line x1="81.5" x2="81.5" y1="372.5" y2="657" class="net_17"/>
  <line x1="81.5" x2="105" y1="657" y2="657" class="net_17"/>
  <line x1="105" x2="105" y1="657" y2="532" class="net_17"/>
  <circle cx="105" cy="532" r="2" style="fill:#000" class="net_17"/>
  <line x1="105" x2="230" y1="532" y2="532" class="net_17"/>
  <line x1="81.5" x2="81.5" y1="372.5" y2="657" class="net_17"/>
  <line x1="81.5" x2="105" y1="657" y2="657" class="net_17"/>
  <line x1="105" x2="105" y1="657" y2="813" class="net_17"/>
  <line x1="105" x2="230" y1="813" y2="813" class="net_17"/>
  <line x1="81.5" x2="81.5" y1="372.5" y2="657" class="net_17"/>
  <line x1="81.5" x2="105" y1="657" y2="657" class="net_17"/>
  <line x1="105" x2="105" y1="657" y2="813" class="net_17"/>
  <line x1="105" x2="205" y1="813" y2="813" class="net_17"/>
  <line x1="205" x2="205" y1="813" y2="833" class="net_17"/>
  <circle cx="205" cy="813" r="2" style="fill:#000" class="net_17"/>
  <line x1="205" x2="508" y1="833" y2="833" class="net_17"/>
  <line x1="195" x2="233" y1="24.5" y2="24.5" class="net_53"/>
  <line x1="195" x2="205" y1="84.5" y2="84.5" class="net_54"/>
  <line x1="205" x2="205" y1="84.5" y2="39.5" class="net_54"/>
  <line x1="205" x2="233" y1="39.5" y2="39.5" class="net_54"/>
  <line x1="195" x2="233" y1="144.5" y2="144.5" class="net_55"/>
  <line x1="195" x2="205" y1="204.5" y2="204.5" class="net_56"/>
  <line x1="205" x2="205" y1="204.5" y2="159.5" class="net_56"/>
  <line x1="205" x2="233" y1="159.5" y2="159.5" class="net_56"/>
  <line x1="195" x2="233" y1="264.5" y2="264.5" class="net_57"/>
  <line x1="195" x2="205" y1="324.5" y2="324.5" class="net_58"/>
  <line x1="205" x2="205" y1="324.5" y2="279.5" class="net_58"/>
  <line x1="205" x2="233" y1="279.5" y2="279.5" class="net_58"/>
  <line x1="195" x2="233" y1="384.5" y2="384.5" class="net_59"/>
  <line x1="195" x2="205" y1="444.5" y2="444.5" class="net_60"/>
  <line x1="205" x2="205" y1="444.5" y2="399.5" class="net_60"/>
  <line x1="205" x2="233" y1="399.5" y2="399.5" class="net_60"/>
  <line x1="260" x2="298" y1="32" y2="32" class="net_61"/>
  <line x1="260" x2="270" y1="152" y2="152" class="net_62"/>
  <line x1="270" x2="270" y1="152" y2="47" class="net_62"/>
  <line x1="270" x2="298" y1="47" y2="47" class="net_62"/>
  <line x1="260" x2="298" y1="272" y2="272" class="net_63"/>
  <line x1="260" x2="270" y1="392" y2="392" class="net_64"/>
  <line x1="270" x2="270" y1="392" y2="287" class="net_64"/>
  <line x1="270" x2="298" y1="287" y2="287" class="net_64"/>
  <line x1="325" x2="369" y1="39.5" y2="39.5" class="net_65"/>
  <line x1="325" x2="335" y1="279.5" y2="279.5" class="net_66"/>
  <line x1="335" x2="335" y1="279.5" y2="54.5" class="net_66"/>
  <line x1="335" x2="369" y1="54.5" y2="54.5" class="net_66"/>
  <line x1="396" x2="443" y1="47" y2="47" class="net_67"/>
  <line x1="82" x2="125" y1="678" y2="678" class="net_33"/>
  <line x1="125" x2="125" y1="678" y2="467" class="net_33"/>
  <circle cx="125" cy="678" r="2" style="fill:#000" class="net_33"/>
  <line x1="125" x2="230" y1="467" y2="467" class="net_33"/>
  <line x1="82" x2="125" y1="678" y2="678" class="net_33"/>
  <line x1="125" x2="125" y1="678" y2="748" class="net_33"/>
  <line x1="125" x2="230" y1="748" y2="748" class="net_33"/>
  <line x1="82" x2="125" y1="678" y2="678" class="net_33"/>
  <line x1="125" x2="125" y1="678" y2="582" class="net_33"/>
  <circle cx="125" cy="582" r="2" style="fill:#000" class="net_33"/>
  <line x1="125" x2="165" y1="582" y2="582" class="net_33"/>
  <line x1="82" x2="165" y1="678" y2="678" class="net_33"/>
  <line x1="82" x2="115" y1="721" y2="721" class="net_49"/>
  <line x1="115" x2="115" y1="721" y2="482" class="net_49"/>
  <circle cx="115" cy="721" r="2" style="fill:#000" class="net_49"/>
  <line x1="115" x2="230" y1="482" y2="482" class="net_49"/>
  <line x1="82" x2="205" y1="721" y2="721" class="net_49"/>
  <line x1="205" x2="205" y1="721" y2="693" class="net_49"/>
  <line x1="205" x2="230" y1="693" y2="693" class="net_49"/>
  <line x1="82" x2="115" y1="721" y2="721" class="net_49"/>
  <line x1="115" x2="115" y1="721" y2="637" class="net_49"/>
  <circle cx="115" cy="637" r="2" style="fill:#000" class="net_49"/>
  <line x1="115" x2="165" y1="637" y2="637" class="net_49"/>
  <line x1="82" x2="115" y1="721" y2="721" class="net_49"/>
  <line x1="115" x2="115" y1="721" y2="769" class="net_49"/>
  <line x1="115" x2="165" y1="769" y2="769" class="net_49"/>
  <line x1="260" x2="295" y1="474.5" y2="474.5" class="net_68"/>
  <line x1="255" x2="270" y1="532" y2="532" class="net_69"/>
  <line x1="270" x2="270" y1="532" y2="489.5" class="net_69"/>
  <line x1="270" x2="295" y1="489.5" y2="489.5" class="net_69"/>
  <line x1="190" x2="230" y1="582" y2="582" class="net_71"/>
  <line x1="190" x2="205" y1="637" y2="637" class="net_72"/>
  <line x1="205" x2="205" y1="637" y2="597" class="net_72"/>
  <line x1="205" x2="230" y1="597" y2="597" class="net_72"/>
  <line x1="260" x2="295" y1="589.5" y2="589.5" class="net_73"/>
  <line x1="325" x2="369" y1="482" y2="482" class="net_70"/>
  <line x1="325" x2="335" y1="597" y2="597" class="net_74"/>
  <line x1="335" x2="335" y1="597" y2="497" class="net_74"/>
  <line x1="335" x2="369" y1="497" y2="497" class="net_74"/>
  <line x1="190" x2="230" y1="678" y2="678" class="net_76"/>
  <line x1="260" x2="295" y1="685.5" y2="685.5" class="net_77"/>
  <line x1="190" x2="205" y1="769" y2="769" class="net_79"/>
  <line x1="205" x2="205" y1="769" y2="763" class="net_79"/>
  <line x1="205" x2="230" y1="763" y2="763" class="net_79"/>
  <line x1="260" x2="295" y1="755.5" y2="755.5" class="net_80"/>
  <line x1="255" x2="270" y1="813" y2="813" class="net_81"/>
  <line x1="270" x2="270" y1="813" y2="770.5" class="net_81"/>
  <line x1="270" x2="295" y1="770.5" y2="770.5" class="net_81"/>
  <line x1="325" x2="369" y1="693" y2="693" class="net_78"/>
  <line x1="325" x2="335" y1="763" y2="763" class="net_82"/>
  <line x1="335" x2="335" y1="763" y2="708" class="net_82"/>
  <line x1="335" x2="369" y1="708" y2="708" class="net_82"/>
  <line x1="396" x2="446.3333333333333" y1="489.5" y2="489.5" class="net_75"/>
  <line x1="396" x2="418" y1="700.5" y2="700.5" class="net_83"/>
  <line x1="418" x2="418" y1="700.5" y2="509.5" class="net_83"/>
  <line x1="418" x2="446.3333333333333" y1="509.5" y2="509.5" class="net_83"/>
  <line x1="388" x2="456.3333333333333" y1="768" y2="768" class="net_50"/>
  <line x1="456.3333333333333" x2="456.3333333333333" y1="768" y2="514.5" class="net_50"/>
  <line x1="468" x2="508" y1="47" y2="47" class="net_51"/>
  <line x1="466.3333333333333" x2="508" y1="499.5" y2="499.5" class="net_52"/>
  <line x1="40" x2="77.5" y1="42" y2="42" class="net_2,3,4,5,6,7,8,9,10,11,12,13,14,15,16,17"/>
  <line x1="77.5" x2="77.5" y1="42" y2="81.5" class="net_2,3,4,5,6,7,8,9,10,11,12,13,14,15,16,17"/>
  <line x1="40" x2="77.5" y1="700.5" y2="700.5" class="net_18,19,20,21,22,23,24,25,26,27,28,29,30,31,32,33"/>
  <line x1="77.5" x2="77.5" y1="700.5" y2="688.5" class="net_18,19,20,21,22,23,24,25,26,27,28,29,30,31,32,33"/>
  <line x1="40" x2="77.5" y1="765.5" y2="765.5" class="net_34,35,36,37,38,39,40,41,42,43,44,45,46,47,48,49"/>
  <line x1="77.5" x2="77.5" y1="765.5" y2="731.5" class="net_34,35,36,37,38,39,40,41,42,43,44,45,46,47,48,49"/>
</svg>
