<svg xmlns="http://www.w3.org/2000/svg" xmlns:xlink="http://www.w3.org/1999/xlink" xmlns:s="https://github.com/nturley/netlistsvg" width="749" height="1043.5">
  <style>svg {
    stroke:#000;
    fill:none;
  }
  text {
    fill:#000;
    stroke:none;
    font-size:10px;
    font-weight: bold;
    font-family: "Courier New", monospace;
  }
  .nodelabel {
    text-anchor: middle;
  }
  .inputPortLabel {
    text-anchor: end;
  }
  .splitjoinBody {
    fill:#000;
  }</style>
  <g s:type="and" transform="translate(587,774)" s:width="30" s:height="25" id="cell_$auto$simplemap.cc:106:simplemap_bitop$151">
    <s:alias val="$and"/>
    <s:alias val="$logic_and"/>
    <s:alias val="$_AND_"/>
    <path d="M0,0 L0,25 L15,25 A15 12.5 0 0 0 15,0 Z" class="cell_$auto$simplemap.cc:106:simplemap_bitop$151"/>
    <g s:x="0" s:y="5" s:pid="A"/>
    <g s:x="0" s:y="20" s:pid="B"/>
    <g s:x="30" s:y="12.5" s:pid="Y"/>
  </g>
  <g s:type="or" transform="translate(522,82)" s:width="30" s:height="25" id="cell_$auto$simplemap.cc:106:simplemap_bitop$152">
    <s:alias val="$or"/>
    <s:alias val="$logic_or"/>
    <s:alias val="$_OR_"/>
    <path d="M0,25 L0,25 L15,25 A15 12.5 0 0 0 15,0 L0,0" class="cell_$auto$simplemap.cc:106:simplemap_bitop$152"/>
    <path d="M0,0 A30 25 0 0 1 0,25" class="cell_$auto$simplemap.cc:106:simplemap_bitop$152"/>
    <g s:x="3" s:y="5" s:pid="A"/>
    <g s:x="3" s:y="20" s:pid="B"/>
    <g s:x="30" s:y="12.5" s:pid="Y"/>
  </g>
  <g s:type="reduce_xor" transform="translate(449,170.5)" s:width="33" s:height="25" id="cell_$auto$simplemap.cc:106:simplemap_bitop$153">
    <s:alias val="$xor"/>
    <s:alias val="$reduce_xor"/>
    <s:alias val="$_XOR_"/>
    <path d="M3,0 A30 25 0 0 1 3,25 A30 25 0 0 0 33,12.5 A30 25 0 0 0 3,0" class="cell_$auto$simplemap.cc:106:simplemap_bitop$153"/>
    <path d="M0,0 A30 25 0 0 1 0,25" class="cell_$auto$simplemap.cc:106:simplemap_bitop$153"/>
    <g s:x="3" s:y="5" s:pid="A"/>
    <g s:x="3" s:y="20" s:pid="B"/>
    <g s:x="33" s:y="12.5" s:pid="Y"/>
  </g>
  <g s:type="reduce_xor" transform="translate(381,826.5)" s:width="33" s:height="25" id="cell_$auto$simplemap.cc:106:simplemap_bitop$157">
    <s:alias val="$xor"/>
    <s:alias val="$reduce_xor"/>
    <s:alias val="$_XOR_"/>
    <path d="M3,0 A30 25 0 0 1 3,25 A30 25 0 0 0 33,12.5 A30 25 0 0 0 3,0" class="cell_$auto$simplemap.cc:106:simplemap_bitop$157"/>
    <path d="M0,0 A30 25 0 0 1 0,25" class="cell_$auto$simplemap.cc:106:simplemap_bitop$157"/>
    <g s:x="3" s:y="5" s:pid="A"/>
    <g s:x="3" s:y="20" s:pid="B"/>
    <g s:x="33" s:y="12.5" s:pid="Y"/>
  </g>
  <g s:type="reduce_xor" transform="translate(381,886.5)" s:width="33" s:height="25" id="cell_$auto$simplemap.cc:106:simplemap_bitop$158">
    <s:alias val="$xor"/>
    <s:alias val="$reduce_xor"/>
    <s:alias val="$_XOR_"/>
    <path d="M3,0 A30 25 0 0 1 3,25 A30 25 0 0 0 33,12.5 A30 25 0 0 0 3,0" class="cell_$auto$simplemap.cc:106:simplemap_bitop$158"/>
    <path d="M0,0 A30 25 0 0 1 0,25" class="cell_$auto$simplemap.cc:106:simplemap_bitop$158"/>
    <g s:x="3" s:y="5" s:pid="A"/>
    <g s:x="3" s:y="20" s:pid="B"/>
    <g s:x="33" s:y="12.5" s:pid="Y"/>
  </g>
  <g s:type="reduce_xor" transform="translate(381,946.5)" s:width="33" s:height="25" id="cell_$auto$simplemap.cc:106:simplemap_bitop$159">
    <s:alias val="$xor"/>
    <s:alias val="$reduce_xor"/>
    <s:alias val="$_XOR_"/>
    <path d="M3,0 A30 25 0 0 1 3,25 A30 25 0 0 0 33,12.5 A30 25 0 0 0 3,0" class="cell_$auto$simplemap.cc:106:simplemap_bitop$159"/>
    <path d="M0,0 A30 25 0 0 1 0,25" class="cell_$auto$simplemap.cc:106:simplemap_bitop$159"/>
    <g s:x="3" s:y="5" s:pid="A"/>
    <g s:x="3" s:y="20" s:pid="B"/>
    <g s:x="33" s:y="12.5" s:pid="Y"/>
  </g>
  <g s:type="reduce_xor" transform="translate(381,1006.5)" s:width="33" s:height="25" id="cell_$auto$simplemap.cc:106:simplemap_bitop$160">
    <s:alias val="$xor"/>
    <s:alias val="$reduce_xor"/>
    <s:alias val="$_XOR_"/>
    <path d="M3,0 A30 25 0 0 1 3,25 A30 25 0 0 0 33,12.5 A30 25 0 0 0 3,0" class="cell_$auto$simplemap.cc:106:simplemap_bitop$160"/>
    <path d="M0,0 A30 25 0 0 1 0,25" class="cell_$auto$simplemap.cc:106:simplemap_bitop$160"/>
    <g s:x="3" s:y="5" s:pid="A"/>
    <g s:x="3" s:y="20" s:pid="B"/>
    <g s:x="33" s:y="12.5" s:pid="Y"/>
  </g>
  <g s:type="reduce_xor" transform="translate(313,616.5)" s:width="33" s:height="25" id="cell_$auto$simplemap.cc:106:simplemap_bitop$172">
    <s:alias val="$xor"/>
    <s:alias val="$reduce_xor"/>
    <s:alias val="$_XOR_"/>
    <path d="M3,0 A30 25 0 0 1 3,25 A30 25 0 0 0 33,12.5 A30 25 0 0 0 3,0" class="cell_$auto$simplemap.cc:106:simplemap_bitop$172"/>
    <path d="M0,0 A30 25 0 0 1 0,25" class="cell_$auto$simplemap.cc:106:simplemap_bitop$172"/>
    <g s:x="3" s:y="5" s:pid="A"/>
    <g s:x="3" s:y="20" s:pid="B"/>
    <g s:x="33" s:y="12.5" s:pid="Y"/>
  </g>
  <g s:type="reduce_xor" transform="translate(313,676.5)" s:width="33" s:height="25" id="cell_$auto$simplemap.cc:106:simplemap_bitop$173">
    <s:alias val="$xor"/>
    <s:alias val="$reduce_xor"/>
    <s:alias val="$_XOR_"/>
    <path d="M3,0 A30 25 0 0 1 3,25 A30 25 0 0 0 33,12.5 A30 25 0 0 0 3,0" class="cell_$auto$simplemap.cc:106:simplemap_bitop$173"/>
    <path d="M0,0 A30 25 0 0 1 0,25" class="cell_$auto$simplemap.cc:106:simplemap_bitop$173"/>
    <g s:x="3" s:y="5" s:pid="A"/>
    <g s:x="3" s:y="20" s:pid="B"/>
    <g s:x="33" s:y="12.5" s:pid="Y"/>
  </g>
  <g s:type="reduce_xor" transform="translate(313,736.5)" s:width="33" s:height="25" id="cell_$auto$simplemap.cc:106:simplemap_bitop$174">
    <s:alias val="$xor"/>
    <s:alias val="$reduce_xor"/>
    <s:alias val="$_XOR_"/>
    <path d="M3,0 A30 25 0 0 1 3,25 A30 25 0 0 0 33,12.5 A30 25 0 0 0 3,0" class="cell_$auto$simplemap.cc:106:simplemap_bitop$174"/>
    <path d="M0,0 A30 25 0 0 1 0,25" class="cell_$auto$simplemap.cc:106:simplemap_bitop$174"/>
    <g s:x="3" s:y="5" s:pid="A"/>
    <g s:x="3" s:y="20" s:pid="B"/>
    <g s:x="33" s:y="12.5" s:pid="Y"/>
  </g>
  <g s:type="reduce_xor" transform="translate(313,796.5)" s:width="33" s:height="25" id="cell_$auto$simplemap.cc:106:simplemap_bitop$175">
    <s:alias val="$xor"/>
    <s:alias val="$reduce_xor"/>
    <s:alias val="$_XOR_"/>
    <path d="M3,0 A30 25 0 0 1 3,25 A30 25 0 0 0 33,12.5 A30 25 0 0 0 3,0" class="cell_$auto$simplemap.cc:106:simplemap_bitop$175"/>
    <path d="M0,0 A30 25 0 0 1 0,25" class="cell_$auto$simplemap.cc:106:simplemap_bitop$175"/>
    <g s:x="3" s:y="5" s:pid="A"/>
    <g s:x="3" s:y="20" s:pid="B"/>
    <g s:x="33" s:y="12.5" s:pid="Y"/>
  </g>
  <g s:type="reduce_xor" transform="translate(245,290.5)" s:width="33" s:height="25" id="cell_$auto$simplemap.cc:106:simplemap_bitop$187">
    <s:alias val="$xor"/>
    <s:alias val="$reduce_xor"/>
    <s:alias val="$_XOR_"/>
    <path d="M3,0 A30 25 0 0 1 3,25 A30 25 0 0 0 33,12.5 A30 25 0 0 0 3,0" class="cell_$auto$simplemap.cc:106:simplemap_bitop$187"/>
    <path d="M0,0 A30 25 0 0 1 0,25" class="cell_$auto$simplemap.cc:106:simplemap_bitop$187"/>
    <g s:x="3" s:y="5" s:pid="A"/>
    <g s:x="3" s:y="20" s:pid="B"/>
    <g s:x="33" s:y="12.5" s:pid="Y"/>
  </g>
  <g s:type="reduce_xor" transform="translate(245,350.5)" s:width="33" s:height="25" id="cell_$auto$simplemap.cc:106:simplemap_bitop$188">
    <s:alias val="$xor"/>
    <s:alias val="$reduce_xor"/>
    <s:alias val="$_XOR_"/>
    <path d="M3,0 A30 25 0 0 1 3,25 A30 25 0 0 0 33,12.5 A30 25 0 0 0 3,0" class="cell_$auto$simplemap.cc:106:simplemap_bitop$188"/>
    <path d="M0,0 A30 25 0 0 1 0,25" class="cell_$auto$simplemap.cc:106:simplemap_bitop$188"/>
    <g s:x="3" s:y="5" s:pid="A"/>
    <g s:x="3" s:y="20" s:pid="B"/>
    <g s:x="33" s:y="12.5" s:pid="Y"/>
  </g>
  <g s:type="reduce_xor" transform="translate(245,410.5)" s:width="33" s:height="25" id="cell_$auto$simplemap.cc:106:simplemap_bitop$189">
    <s:alias val="$xor"/>
    <s:alias val="$reduce_xor"/>
    <s:alias val="$_XOR_"/>
    <path d="M3,0 A30 25 0 0 1 3,25 A30 25 0 0 0 33,12.5 A30 25 0 0 0 3,0" class="cell_$auto$simplemap.cc:106:simplemap_bitop$189"/>
    <path d="M0,0 A30 25 0 0 1 0,25" class="cell_$auto$simplemap.cc:106:simplemap_bitop$189"/>
    <g s:x="3" s:y="5" s:pid="A"/>
    <g s:x="3" s:y="20" s:pid="B"/>
    <g s:x="33" s:y="12.5" s:pid="Y"/>
  </g>
  <g s:type="reduce_xor" transform="translate(245,541)" s:width="33" s:height="25" id="cell_$auto$simplemap.cc:106:simplemap_bitop$190">
    <s:alias val="$xor"/>
    <s:alias val="$reduce_xor"/>
    <s:alias val="$_XOR_"/>
    <path d="M3,0 A30 25 0 0 1 3,25 A30 25 0 0 0 33,12.5 A30 25 0 0 0 3,0" class="cell_$auto$simplemap.cc:106:simplemap_bitop$190"/>
    <path d="M0,0 A30 25 0 0 1 0,25" class="cell_$auto$simplemap.cc:106:simplemap_bitop$190"/>
    <g s:x="3" s:y="5" s:pid="A"/>
    <g s:x="3" s:y="20" s:pid="B"/>
    <g s:x="33" s:y="12.5" s:pid="Y"/>
  </g>
  <g s:type="reduce_xor" transform="translate(177,80.5)" s:width="33" s:height="25" id="cell_$auto$simplemap.cc:106:simplemap_bitop$202">
    <s:alias val="$xor"/>
    <s:alias val="$reduce_xor"/>
    <s:alias val="$_XOR_"/>
    <path d="M3,0 A30 25 0 0 1 3,25 A30 25 0 0 0 33,12.5 A30 25 0 0 0 3,0" class="cell_$auto$simplemap.cc:106:simplemap_bitop$202"/>
    <path d="M0,0 A30 25 0 0 1 0,25" class="cell_$auto$simplemap.cc:106:simplemap_bitop$202"/>
    <g s:x="3" s:y="5" s:pid="A"/>
    <g s:x="3" s:y="20" s:pid="B"/>
    <g s:x="33" s:y="12.5" s:pid="Y"/>
  </g>
  <g s:type="reduce_xor" transform="translate(177,140.5)" s:width="33" s:height="25" id="cell_$auto$simplemap.cc:106:simplemap_bitop$203">
    <s:alias val="$xor"/>
    <s:alias val="$reduce_xor"/>
    <s:alias val="$_XOR_"/>
    <path d="M3,0 A30 25 0 0 1 3,25 A30 25 0 0 0 33,12.5 A30 25 0 0 0 3,0" class="cell_$auto$simplemap.cc:106:simplemap_bitop$203"/>
    <path d="M0,0 A30 25 0 0 1 0,25" class="cell_$auto$simplemap.cc:106:simplemap_bitop$203"/>
    <g s:x="3" s:y="5" s:pid="A"/>
    <g s:x="3" s:y="20" s:pid="B"/>
    <g s:x="33" s:y="12.5" s:pid="Y"/>
  </g>
  <g s:type="reduce_xor" transform="translate(177,200.5)" s:width="33" s:height="25" id="cell_$auto$simplemap.cc:106:simplemap_bitop$204">
    <s:alias val="$xor"/>
    <s:alias val="$reduce_xor"/>
    <s:alias val="$_XOR_"/>
    <path d="M3,0 A30 25 0 0 1 3,25 A30 25 0 0 0 33,12.5 A30 25 0 0 0 3,0" class="cell_$auto$simplemap.cc:106:simplemap_bitop$204"/>
    <path d="M0,0 A30 25 0 0 1 0,25" class="cell_$auto$simplemap.cc:106:simplemap_bitop$204"/>
    <g s:x="3" s:y="5" s:pid="A"/>
    <g s:x="3" s:y="20" s:pid="B"/>
    <g s:x="33" s:y="12.5" s:pid="Y"/>
  </g>
  <g s:type="reduce_xor" transform="translate(177,260.5)" s:width="33" s:height="25" id="cell_$auto$simplemap.cc:106:simplemap_bitop$205">
    <s:alias val="$xor"/>
    <s:alias val="$reduce_xor"/>
    <s:alias val="$_XOR_"/>
    <path d="M3,0 A30 25 0 0 1 3,25 A30 25 0 0 0 33,12.5 A30 25 0 0 0 3,0" class="cell_$auto$simplemap.cc:106:simplemap_bitop$205"/>
    <path d="M0,0 A30 25 0 0 1 0,25" class="cell_$auto$simplemap.cc:106:simplemap_bitop$205"/>
    <g s:x="3" s:y="5" s:pid="A"/>
    <g s:x="3" s:y="20" s:pid="B"/>
    <g s:x="33" s:y="12.5" s:pid="Y"/>
  </g>
  <g s:type="or" transform="translate(450,834)" s:width="30" s:height="25" id="cell_$auto$simplemap.cc:157:simplemap_reduce$164">
    <s:alias val="$or"/>
    <s:alias val="$logic_or"/>
    <s:alias val="$_OR_"/>
    <path d="M0,25 L0,25 L15,25 A15 12.5 0 0 0 15,0 L0,0" class="cell_$auto$simplemap.cc:157:simplemap_reduce$164"/>
    <path d="M0,0 A30 25 0 0 1 0,25" class="cell_$auto$simplemap.cc:157:simplemap_reduce$164"/>
    <g s:x="3" s:y="5" s:pid="A"/>
    <g s:x="3" s:y="20" s:pid="B"/>
    <g s:x="30" s:y="12.5" s:pid="Y"/>
  </g>
  <g s:type="or" transform="translate(450,954)" s:width="30" s:height="25" id="cell_$auto$simplemap.cc:157:simplemap_reduce$165">
    <s:alias val="$or"/>
    <s:alias val="$logic_or"/>
    <s:alias val="$_OR_"/>
    <path d="M0,25 L0,25 L15,25 A15 12.5 0 0 0 15,0 L0,0" class="cell_$auto$simplemap.cc:157:simplemap_reduce$165"/>
    <path d="M0,0 A30 25 0 0 1 0,25" class="cell_$auto$simplemap.cc:157:simplemap_reduce$165"/>
    <g s:x="3" s:y="5" s:pid="A"/>
    <g s:x="3" s:y="20" s:pid="B"/>
    <g s:x="30" s:y="12.5" s:pid="Y"/>
  </g>
  <g s:type="or" transform="translate(522,841.5)" s:width="30" s:height="25" id="cell_$auto$simplemap.cc:157:simplemap_reduce$167">
    <s:alias val="$or"/>
    <s:alias val="$logic_or"/>
    <s:alias val="$_OR_"/>
    <path d="M0,25 L0,25 L15,25 A15 12.5 0 0 0 15,0 L0,0" class="cell_$auto$simplemap.cc:157:simplemap_reduce$167"/>
    <path d="M0,0 A30 25 0 0 1 0,25" class="cell_$auto$simplemap.cc:157:simplemap_reduce$167"/>
    <g s:x="3" s:y="5" s:pid="A"/>
    <g s:x="3" s:y="20" s:pid="B"/>
    <g s:x="30" s:y="12.5" s:pid="Y"/>
  </g>
  <g s:type="or" transform="translate(382,624)" s:width="30" s:height="25" id="cell_$auto$simplemap.cc:157:simplemap_reduce$179">
    <s:alias val="$or"/>
    <s:alias val="$logic_or"/>
    <s:alias val="$_OR_"/>
    <path d="M0,25 L0,25 L15,25 A15 12.5 0 0 0 15,0 L0,0" class="cell_$auto$simplemap.cc:157:simplemap_reduce$179"/>
    <path d="M0,0 A30 25 0 0 1 0,25" class="cell_$auto$simplemap.cc:157:simplemap_reduce$179"/>
    <g s:x="3" s:y="5" s:pid="A"/>
    <g s:x="3" s:y="20" s:pid="B"/>
    <g s:x="30" s:y="12.5" s:pid="Y"/>
  </g>
  <g s:type="or" transform="translate(382,744)" s:width="30" s:height="25" id="cell_$auto$simplemap.cc:157:simplemap_reduce$180">
    <s:alias val="$or"/>
    <s:alias val="$logic_or"/>
    <s:alias val="$_OR_"/>
    <path d="M0,25 L0,25 L15,25 A15 12.5 0 0 0 15,0 L0,0" class="cell_$auto$simplemap.cc:157:simplemap_reduce$180"/>
    <path d="M0,0 A30 25 0 0 1 0,25" class="cell_$auto$simplemap.cc:157:simplemap_reduce$180"/>
    <g s:x="3" s:y="5" s:pid="A"/>
    <g s:x="3" s:y="20" s:pid="B"/>
    <g s:x="30" s:y="12.5" s:pid="Y"/>
  </g>
  <g s:type="or" transform="translate(450,631.5)" s:width="30" s:height="25" id="cell_$auto$simplemap.cc:157:simplemap_reduce$182">
    <s:alias val="$or"/>
    <s:alias val="$logic_or"/>
    <s:alias val="$_OR_"/>
    <path d="M0,25 L0,25 L15,25 A15 12.5 0 0 0 15,0 L0,0" class="cell_$auto$simplemap.cc:157:simplemap_reduce$182"/>
    <path d="M0,0 A30 25 0 0 1 0,25" class="cell_$auto$simplemap.cc:157:simplemap_reduce$182"/>
    <g s:x="3" s:y="5" s:pid="A"/>
    <g s:x="3" s:y="20" s:pid="B"/>
    <g s:x="30" s:y="12.5" s:pid="Y"/>
  </g>
  <g s:type="or" transform="translate(314,298)" s:width="30" s:height="25" id="cell_$auto$simplemap.cc:157:simplemap_reduce$194">
    <s:alias val="$or"/>
    <s:alias val="$logic_or"/>
    <s:alias val="$_OR_"/>
    <path d="M0,25 L0,25 L15,25 A15 12.5 0 0 0 15,0 L0,0" class="cell_$auto$simplemap.cc:157:simplemap_reduce$194"/>
    <path d="M0,0 A30 25 0 0 1 0,25" class="cell_$auto$simplemap.cc:157:simplemap_reduce$194"/>
    <g s:x="3" s:y="5" s:pid="A"/>
    <g s:x="3" s:y="20" s:pid="B"/>
    <g s:x="30" s:y="12.5" s:pid="Y"/>
  </g>
  <g s:type="or" transform="translate(314,418)" s:width="30" s:height="25" id="cell_$auto$simplemap.cc:157:simplemap_reduce$195">
    <s:alias val="$or"/>
    <s:alias val="$logic_or"/>
    <s:alias val="$_OR_"/>
    <path d="M0,25 L0,25 L15,25 A15 12.5 0 0 0 15,0 L0,0" class="cell_$auto$simplemap.cc:157:simplemap_reduce$195"/>
    <path d="M0,0 A30 25 0 0 1 0,25" class="cell_$auto$simplemap.cc:157:simplemap_reduce$195"/>
    <g s:x="3" s:y="5" s:pid="A"/>
    <g s:x="3" s:y="20" s:pid="B"/>
    <g s:x="30" s:y="12.5" s:pid="Y"/>
  </g>
  <g s:type="or" transform="translate(382,305.5)" s:width="30" s:height="25" id="cell_$auto$simplemap.cc:157:simplemap_reduce$197">
    <s:alias val="$or"/>
    <s:alias val="$logic_or"/>
    <s:alias val="$_OR_"/>
    <path d="M0,25 L0,25 L15,25 A15 12.5 0 0 0 15,0 L0,0" class="cell_$auto$simplemap.cc:157:simplemap_reduce$197"/>
    <path d="M0,0 A30 25 0 0 1 0,25" class="cell_$auto$simplemap.cc:157:simplemap_reduce$197"/>
    <g s:x="3" s:y="5" s:pid="A"/>
    <g s:x="3" s:y="20" s:pid="B"/>
    <g s:x="30" s:y="12.5" s:pid="Y"/>
  </g>
  <g s:type="or" transform="translate(246,88)" s:width="30" s:height="25" id="cell_$auto$simplemap.cc:157:simplemap_reduce$209">
    <s:alias val="$or"/>
    <s:alias val="$logic_or"/>
    <s:alias val="$_OR_"/>
    <path d="M0,25 L0,25 L15,25 A15 12.5 0 0 0 15,0 L0,0" class="cell_$auto$simplemap.cc:157:simplemap_reduce$209"/>
    <path d="M0,0 A30 25 0 0 1 0,25" class="cell_$auto$simplemap.cc:157:simplemap_reduce$209"/>
    <g s:x="3" s:y="5" s:pid="A"/>
    <g s:x="3" s:y="20" s:pid="B"/>
    <g s:x="30" s:y="12.5" s:pid="Y"/>
  </g>
  <g s:type="or" transform="translate(246,208)" s:width="30" s:height="25" id="cell_$auto$simplemap.cc:157:simplemap_reduce$210">
    <s:alias val="$or"/>
    <s:alias val="$logic_or"/>
    <s:alias val="$_OR_"/>
    <path d="M0,25 L0,25 L15,25 A15 12.5 0 0 0 15,0 L0,0" class="cell_$auto$simplemap.cc:157:simplemap_reduce$210"/>
    <path d="M0,0 A30 25 0 0 1 0,25" class="cell_$auto$simplemap.cc:157:simplemap_reduce$210"/>
    <g s:x="3" s:y="5" s:pid="A"/>
    <g s:x="3" s:y="20" s:pid="B"/>
    <g s:x="30" s:y="12.5" s:pid="Y"/>
  </g>
  <g s:type="or" transform="translate(314,95.5)" s:width="30" s:height="25" id="cell_$auto$simplemap.cc:157:simplemap_reduce$212">
    <s:alias val="$or"/>
    <s:alias val="$logic_or"/>
    <s:alias val="$_OR_"/>
    <path d="M0,25 L0,25 L15,25 A15 12.5 0 0 0 15,0 L0,0" class="cell_$auto$simplemap.cc:157:simplemap_reduce$212"/>
    <path d="M0,0 A30 25 0 0 1 0,25" class="cell_$auto$simplemap.cc:157:simplemap_reduce$212"/>
    <g s:x="3" s:y="5" s:pid="A"/>
    <g s:x="3" s:y="20" s:pid="B"/>
    <g s:x="30" s:y="12.5" s:pid="Y"/>
  </g>
  <g s:type="not" transform="translate(587,844)" s:width="30" s:height="20" id="cell_$auto$simplemap.cc:227:simplemap_lognot$169">
    <s:alias val="$_NOT_"/>
    <s:alias val="$not"/>
    <s:alias val="$logic_not"/>
    <path d="M0,0 L0,20 L20,10 Z" class="cell_$auto$simplemap.cc:227:simplemap_lognot$169"/>
    <circle cx="23" cy="10" r="3" class="cell_$auto$simplemap.cc:227:simplemap_lognot$169"/>
    <g s:x="0" s:y="10" s:pid="A"/>
    <g s:x="25" s:y="10" s:pid="Y"/>
  </g>
  <g s:type="not" transform="translate(522,634)" s:width="30" s:height="20" id="cell_$auto$simplemap.cc:227:simplemap_lognot$184">
    <s:alias val="$_NOT_"/>
    <s:alias val="$not"/>
    <s:alias val="$logic_not"/>
    <path d="M0,0 L0,20 L20,10 Z" class="cell_$auto$simplemap.cc:227:simplemap_lognot$184"/>
    <circle cx="23" cy="10" r="3" class="cell_$auto$simplemap.cc:227:simplemap_lognot$184"/>
    <g s:x="0" s:y="10" s:pid="A"/>
    <g s:x="25" s:y="10" s:pid="Y"/>
  </g>
  <g s:type="not" transform="translate(450.5,308)" s:width="30" s:height="20" id="cell_$auto$simplemap.cc:227:simplemap_lognot$199">
    <s:alias val="$_NOT_"/>
    <s:alias val="$not"/>
    <s:alias val="$logic_not"/>
    <path d="M0,0 L0,20 L20,10 Z" class="cell_$auto$simplemap.cc:227:simplemap_lognot$199"/>
    <circle cx="23" cy="10" r="3" class="cell_$auto$simplemap.cc:227:simplemap_lognot$199"/>
    <g s:x="0" s:y="10" s:pid="A"/>
    <g s:x="25" s:y="10" s:pid="Y"/>
  </g>
  <g s:type="not" transform="translate(382.5,98)" s:width="30" s:height="20" id="cell_$auto$simplemap.cc:227:simplemap_lognot$214">
    <s:alias val="$_NOT_"/>
    <s:alias val="$not"/>
    <s:alias val="$logic_not"/>
    <path d="M0,0 L0,20 L20,10 Z" class="cell_$auto$simplemap.cc:227:simplemap_lognot$214"/>
    <circle cx="23" cy="10" r="3" class="cell_$auto$simplemap.cc:227:simplemap_lognot$214"/>
    <g s:x="0" s:y="10" s:pid="A"/>
    <g s:x="25" s:y="10" s:pid="Y"/>
  </g>
  <g s:type="mux" transform="translate(453.3333333333333,12)" s:width="20" s:height="40" id="cell_$auto$simplemap.cc:298:simplemap_mux$215">
    <s:alias val="$pmux"/>
    <s:alias val="$mux"/>
    <s:alias val="$_MUX_"/>
    <path d="M0,0 L20,10 L20,30 L0,40 Z" class="cell_$auto$simplemap.cc:298:simplemap_mux$215"/>
    <g s:x="0" s:y="10" s:pid="A"/>
    <g s:x="0" s:y="30" s:pid="B"/>
    <g s:x="10" s:y="35" s:pid="S"/>
    <g s:x="20" s:y="20" s:pid="Y"/>
  </g>
  <g s:type="mux" transform="translate(525.3333333333334,22)" s:width="20" s:height="40" id="cell_$auto$simplemap.cc:298:simplemap_mux$216">
    <s:alias val="$pmux"/>
    <s:alias val="$mux"/>
    <s:alias val="$_MUX_"/>
    <path d="M0,0 L20,10 L20,30 L0,40 Z" class="cell_$auto$simplemap.cc:298:simplemap_mux$216"/>
    <g s:x="0" s:y="10" s:pid="A"/>
    <g s:x="0" s:y="30" s:pid="B"/>
    <g s:x="10" s:y="35" s:pid="S"/>
    <g s:x="20" s:y="20" s:pid="Y"/>
  </g>
  <g s:type="mux" transform="translate(590.3333333333334,32)" s:width="20" s:height="40" id="cell_$auto$simplemap.cc:298:simplemap_mux$217">
    <s:alias val="$pmux"/>
    <s:alias val="$mux"/>
    <s:alias val="$_MUX_"/>
    <path d="M0,0 L20,10 L20,30 L0,40 Z" class="cell_$auto$simplemap.cc:298:simplemap_mux$217"/>
    <g s:x="0" s:y="10" s:pid="A"/>
    <g s:x="0" s:y="30" s:pid="B"/>
    <g s:x="10" s:y="35" s:pid="S"/>
    <g s:x="20" s:y="20" s:pid="Y"/>
  </g>
  <g s:type="mux" transform="translate(652,42)" s:width="20" s:height="40" id="cell_$auto$simplemap.cc:298:simplemap_mux$218">
    <s:alias val="$pmux"/>
    <s:alias val="$mux"/>
    <s:alias val="$_MUX_"/>
    <path d="M0,0 L20,10 L20,30 L0,40 Z" class="cell_$auto$simplemap.cc:298:simplemap_mux$218"/>
    <g s:x="0" s:y="10" s:pid="A"/>
    <g s:x="0" s:y="30" s:pid="B"/>
    <g s:x="10" s:y="35" s:pid="S"/>
    <g s:x="20" s:y="20" s:pid="Y"/>
  </g>
  <g s:type="not" transform="translate(382.5,33)" s:width="30" s:height="20" id="cell_$auto$simplemap.cc:46:simplemap_not$154">
    <s:alias val="$_NOT_"/>
    <s:alias val="$not"/>
    <s:alias val="$logic_not"/>
    <path d="M0,0 L0,20 L20,10 Z" class="cell_$auto$simplemap.cc:46:simplemap_not$154"/>
    <circle cx="23" cy="10" r="3" class="cell_$auto$simplemap.cc:46:simplemap_not$154"/>
    <g s:x="0" s:y="10" s:pid="A"/>
    <g s:x="25" s:y="10" s:pid="Y"/>
  </g>
  <g s:type="inputExt" transform="translate(12,486)" s:width="30" s:height="20" id="cell_i_op">
    <text x="15" y="-4" class="nodelabel cell_i_op" s:attribute="ref">i_op</text>
    <s:alias val="$_inputExt_"/>
    <path d="M0,0 L0,20 L15,20 L30,10 L15,0 Z" class="cell_i_op"/>
    <g s:x="28" s:y="10" s:pid="Y"/>
  </g>
  <g s:type="inputExt" transform="translate(316,165.5)" s:width="30" s:height="20" id="cell_i_a">
    <text x="15" y="-4" class="nodelabel cell_i_a" s:attribute="ref">i_a</text>
    <s:alias val="$_inputExt_"/>
    <path d="M0,0 L0,20 L15,20 L30,10 L15,0 Z" class="cell_i_a"/>
    <g s:x="28" s:y="10" s:pid="Y"/>
  </g>
  <g s:type="inputExt" transform="translate(384,375.5)" s:width="30" s:height="20" id="cell_i_b">
    <text x="15" y="-4" class="nodelabel cell_i_b" s:attribute="ref">i_b</text>
    <s:alias val="$_inputExt_"/>
    <path d="M0,0 L0,20 L15,20 L30,10 L15,0 Z" class="cell_i_b"/>
    <g s:x="28" s:y="10" s:pid="Y"/>
  </g>
  <g s:type="outputExt" transform="translate(707,52)" s:width="30" s:height="20" id="cell_o_out">
    <text x="15" y="-4" class="nodelabel cell_o_out" s:attribute="ref">o_out</text>
    <s:alias val="$_outputExt_"/>
    <path d="M30,0 L30,20 L15,20 L0,10 L15,0 Z" class="cell_o_out"/>
    <g s:x="0" s:y="10" s:pid="A"/>
  </g>
  <g s:type="constant" transform="translate(77,600.5)" s:width="30" s:height="20" id="cell_0">
    <text x="15" y="-4" class="nodelabel cell_0" s:attribute="ref">0</text>
    <s:alias val="$_constant_"/>
    <rect width="30" height="20" class="cell_0"/>
    <g s:x="30" s:y="10" s:pid="Y"/>
  </g>
  <g s:type="constant" transform="translate(77,420.5)" s:width="30" s:height="20" id="cell_1">
    <text x="15" y="-4" class="nodelabel cell_1" s:attribute="ref">1</text>
    <s:alias val="$_constant_"/>
    <rect width="30" height="20" class="cell_1"/>
    <g s:x="30" s:y="10" s:pid="Y"/>
  </g>
  <g s:type="split" transform="translate(92.8,475.5)" s:width="5" s:height="40" id="cell_$split$,2,3,4,5,">
    <rect width="5" height="80" class="splitjoinBody" s:generic="body"/>
    <s:alias val="$_split_"/>
    <g s:x="0" s:y="20" s:pid="in"/>
    <g transform="translate(4,10)" s:x="4" s:y="10" s:pid="out0">
      <text x="5" y="-4">0</text>
    </g>
    <g transform="translate(4,30)" s:x="4" s:y="10" s:pid="out0">
      <text x="5" y="-4">1</text>
    </g>
    <g transform="translate(4,50)" s:x="4" s:y="10" s:pid="out0">
      <text x="5" y="-4">2</text>
    </g>
    <g transform="translate(4,70)" s:x="4" s:y="10" s:pid="out0">
      <text x="5" y="-4">3</text>
    </g>
  </g>
  <line x1="344" x2="366" y1="175.5" y2="175.5" class="net_6"/>
  <line x1="366" x2="366" y1="175.5" y2="779" class="net_6"/>
  <circle cx="366" cy="175.5" r="2" style="fill:#000" class="net_6"/>
  <line x1="366" x2="587" y1="779" y2="779" class="net_6"/>
  <line x1="344" x2="366" y1="175.5" y2="175.5" class="net_6"/>
  <line x1="366" x2="366" y1="175.5" y2="87" class="net_6"/>
  <circle cx="366" cy="87" r="2" style="fill:#000" class="net_6"/>
  <line x1="366" x2="525" y1="87" y2="87" class="net_6"/>
  <line x1="344" x2="452" y1="175.5" y2="175.5" class="net_6"/>
  <line x1="344" x2="366" y1="175.5" y2="175.5" class="net_6"/>
  <line x1="366" x2="366" y1="175.5" y2="43" class="net_6"/>
  <line x1="366" x2="382.5" y1="43" y2="43" class="net_6"/>
  <line x1="412" x2="434" y1="385.5" y2="385.5" class="net_7"/>
  <line x1="434" x2="434" y1="385.5" y2="794" class="net_7"/>
  <circle cx="434" cy="385.5" r="2" style="fill:#000" class="net_7"/>
  <line x1="434" x2="587" y1="794" y2="794" class="net_7"/>
  <line x1="412" x2="512" y1="385.5" y2="385.5" class="net_7"/>
  <line x1="512" x2="512" y1="385.5" y2="102" class="net_7"/>
  <line x1="512" x2="525" y1="102" y2="102" class="net_7"/>
  <line x1="412" x2="434" y1="385.5" y2="385.5" class="net_7"/>
  <line x1="434" x2="434" y1="385.5" y2="190.5" class="net_7"/>
  <line x1="434" x2="452" y1="190.5" y2="190.5" class="net_7"/>
  <line x1="97.8" x2="117" y1="486" y2="486" class="net_2"/>
  <line x1="117" x2="117" y1="486" y2="831.5" class="net_2"/>
  <circle cx="117" cy="486" r="2" style="fill:#000" class="net_2"/>
  <line x1="117" x2="384" y1="831.5" y2="831.5" class="net_2"/>
  <line x1="97.8" x2="117" y1="486" y2="486" class="net_2"/>
  <line x1="117" x2="117" y1="486" y2="621.5" class="net_2"/>
  <circle cx="117" cy="621.5" r="2" style="fill:#000" class="net_2"/>
  <line x1="117" x2="316" y1="621.5" y2="621.5" class="net_2"/>
  <line x1="97.8" x2="117" y1="486" y2="486" class="net_2"/>
  <line x1="117" x2="117" y1="486" y2="295.5" class="net_2"/>
  <circle cx="117" cy="295.5" r="2" style="fill:#000" class="net_2"/>
  <line x1="117" x2="248" y1="295.5" y2="295.5" class="net_2"/>
  <line x1="97.8" x2="117" y1="486" y2="486" class="net_2"/>
  <line x1="117" x2="117" y1="486" y2="85.5" class="net_2"/>
  <line x1="117" x2="180" y1="85.5" y2="85.5" class="net_2"/>
  <line x1="107" x2="167" y1="610.5" y2="610.5" class="net_48"/>
  <line x1="167" x2="167" y1="610.5" y2="846.5" class="net_48"/>
  <circle cx="167" cy="610.5" r="2" style="fill:#000" class="net_48"/>
  <circle cx="167" cy="846.5" r="2" style="fill:#000" class="net_48"/>
  <line x1="167" x2="384" y1="846.5" y2="846.5" class="net_48"/>
  <line x1="107" x2="167" y1="610.5" y2="610.5" class="net_48"/>
  <line x1="167" x2="167" y1="610.5" y2="966.5" class="net_48"/>
  <circle cx="167" cy="966.5" r="2" style="fill:#000" class="net_48"/>
  <line x1="167" x2="384" y1="966.5" y2="966.5" class="net_48"/>
  <line x1="107" x2="167" y1="610.5" y2="610.5" class="net_48"/>
  <line x1="167" x2="167" y1="610.5" y2="1026.5" class="net_48"/>
  <line x1="167" x2="384" y1="1026.5" y2="1026.5" class="net_48"/>
  <line x1="107" x2="167" y1="610.5" y2="610.5" class="net_48"/>
  <line x1="167" x2="167" y1="610.5" y2="756.5" class="net_48"/>
  <circle cx="167" cy="756.5" r="2" style="fill:#000" class="net_48"/>
  <line x1="167" x2="316" y1="756.5" y2="756.5" class="net_48"/>
  <line x1="107" x2="167" y1="610.5" y2="610.5" class="net_48"/>
  <line x1="167" x2="167" y1="610.5" y2="816.5" class="net_48"/>
  <circle cx="167" cy="816.5" r="2" style="fill:#000" class="net_48"/>
  <line x1="167" x2="316" y1="816.5" y2="816.5" class="net_48"/>
  <line x1="107" x2="167" y1="610.5" y2="610.5" class="net_48"/>
  <line x1="167" x2="167" y1="610.5" y2="310.5" class="net_48"/>
  <circle cx="167" cy="310.5" r="2" style="fill:#000" class="net_48"/>
  <line x1="167" x2="248" y1="310.5" y2="310.5" class="net_48"/>
  <line x1="107" x2="167" y1="610.5" y2="610.5" class="net_48"/>
  <line x1="167" x2="167" y1="610.5" y2="370.5" class="net_48"/>
  <circle cx="167" cy="370.5" r="2" style="fill:#000" class="net_48"/>
  <line x1="167" x2="248" y1="370.5" y2="370.5" class="net_48"/>
  <line x1="107" x2="220" y1="610.5" y2="610.5" class="net_48"/>
  <line x1="220" x2="220" y1="610.5" y2="561" class="net_48"/>
  <line x1="220" x2="248" y1="561" y2="561" class="net_48"/>
  <line x1="107" x2="167" y1="610.5" y2="610.5" class="net_48"/>
  <line x1="167" x2="167" y1="610.5" y2="160.5" class="net_48"/>
  <circle cx="167" cy="160.5" r="2" style="fill:#000" class="net_48"/>
  <line x1="167" x2="180" y1="160.5" y2="160.5" class="net_48"/>
  <line x1="107" x2="167" y1="610.5" y2="610.5" class="net_48"/>
  <line x1="167" x2="167" y1="610.5" y2="280.5" class="net_48"/>
  <circle cx="167" cy="280.5" r="2" style="fill:#000" class="net_48"/>
  <line x1="167" x2="180" y1="280.5" y2="280.5" class="net_48"/>
  <line x1="107" x2="167" y1="610.5" y2="610.5" class="net_48"/>
  <line x1="167" x2="167" y1="610.5" y2="22" class="net_48"/>
  <line x1="167" x2="453.3333333333333" y1="22" y2="22" class="net_48"/>
  <line x1="97.8" x2="127" y1="506" y2="506" class="net_3"/>
  <line x1="127" x2="127" y1="506" y2="891.5" class="net_3"/>
  <circle cx="127" cy="506" r="2" style="fill:#000" class="net_3"/>
  <line x1="127" x2="384" y1="891.5" y2="891.5" class="net_3"/>
  <line x1="97.8" x2="127" y1="506" y2="506" class="net_3"/>
  <line x1="127" x2="127" y1="506" y2="681.5" class="net_3"/>
  <circle cx="127" cy="681.5" r="2" style="fill:#000" class="net_3"/>
  <line x1="127" x2="316" y1="681.5" y2="681.5" class="net_3"/>
  <line x1="97.8" x2="127" y1="506" y2="506" class="net_3"/>
  <line x1="127" x2="127" y1="506" y2="355.5" class="net_3"/>
  <circle cx="127" cy="355.5" r="2" style="fill:#000" class="net_3"/>
  <line x1="127" x2="248" y1="355.5" y2="355.5" class="net_3"/>
  <line x1="97.8" x2="127" y1="506" y2="506" class="net_3"/>
  <line x1="127" x2="127" y1="506" y2="145.5" class="net_3"/>
  <line x1="127" x2="180" y1="145.5" y2="145.5" class="net_3"/>
  <line x1="107" x2="157" y1="430.5" y2="430.5" class="net_49"/>
  <line x1="157" x2="157" y1="430.5" y2="906.5" class="net_49"/>
  <circle cx="157" cy="430.5" r="2" style="fill:#000" class="net_49"/>
  <line x1="157" x2="384" y1="906.5" y2="906.5" class="net_49"/>
  <line x1="107" x2="157" y1="430.5" y2="430.5" class="net_49"/>
  <line x1="157" x2="157" y1="430.5" y2="636.5" class="net_49"/>
  <circle cx="157" cy="636.5" r="2" style="fill:#000" class="net_49"/>
  <line x1="157" x2="316" y1="636.5" y2="636.5" class="net_49"/>
  <line x1="107" x2="157" y1="430.5" y2="430.5" class="net_49"/>
  <line x1="157" x2="157" y1="430.5" y2="696.5" class="net_49"/>
  <circle cx="157" cy="696.5" r="2" style="fill:#000" class="net_49"/>
  <line x1="157" x2="316" y1="696.5" y2="696.5" class="net_49"/>
  <line x1="107" x2="248" y1="430.5" y2="430.5" class="net_49"/>
  <line x1="107" x2="157" y1="430.5" y2="430.5" class="net_49"/>
  <line x1="157" x2="157" y1="430.5" y2="100.5" class="net_49"/>
  <line x1="157" x2="180" y1="100.5" y2="100.5" class="net_49"/>
  <line x1="107" x2="157" y1="430.5" y2="430.5" class="net_49"/>
  <line x1="157" x2="157" y1="430.5" y2="220.5" class="net_49"/>
  <circle cx="157" cy="220.5" r="2" style="fill:#000" class="net_49"/>
  <line x1="157" x2="180" y1="220.5" y2="220.5" class="net_49"/>
  <line x1="97.8" x2="137" y1="526" y2="526" class="net_4"/>
  <line x1="137" x2="137" y1="526" y2="951.5" class="net_4"/>
  <circle cx="137" cy="526" r="2" style="fill:#000" class="net_4"/>
  <line x1="137" x2="384" y1="951.5" y2="951.5" class="net_4"/>
  <line x1="97.8" x2="137" y1="526" y2="526" class="net_4"/>
  <line x1="137" x2="137" y1="526" y2="741.5" class="net_4"/>
  <circle cx="137" cy="741.5" r="2" style="fill:#000" class="net_4"/>
  <line x1="137" x2="316" y1="741.5" y2="741.5" class="net_4"/>
  <line x1="97.8" x2="137" y1="526" y2="526" class="net_4"/>
  <line x1="137" x2="137" y1="526" y2="415.5" class="net_4"/>
  <circle cx="137" cy="415.5" r="2" style="fill:#000" class="net_4"/>
  <line x1="137" x2="248" y1="415.5" y2="415.5" class="net_4"/>
  <line x1="97.8" x2="137" y1="526" y2="526" class="net_4"/>
  <line x1="137" x2="137" y1="526" y2="205.5" class="net_4"/>
  <line x1="137" x2="180" y1="205.5" y2="205.5" class="net_4"/>
  <line x1="97.8" x2="147" y1="546" y2="546" class="net_5"/>
  <line x1="147" x2="147" y1="546" y2="1011.5" class="net_5"/>
  <circle cx="147" cy="546" r="2" style="fill:#000" class="net_5"/>
  <line x1="147" x2="384" y1="1011.5" y2="1011.5" class="net_5"/>
  <line x1="97.8" x2="147" y1="546" y2="546" class="net_5"/>
  <line x1="147" x2="147" y1="546" y2="801.5" class="net_5"/>
  <circle cx="147" cy="801.5" r="2" style="fill:#000" class="net_5"/>
  <line x1="147" x2="316" y1="801.5" y2="801.5" class="net_5"/>
  <line x1="97.8" x2="248" y1="546" y2="546" class="net_5"/>
  <line x1="97.8" x2="147" y1="546" y2="546" class="net_5"/>
  <line x1="147" x2="147" y1="546" y2="265.5" class="net_5"/>
  <line x1="147" x2="180" y1="265.5" y2="265.5" class="net_5"/>
  <line x1="414" x2="453" y1="839" y2="839" class="net_12"/>
  <line x1="414" x2="424" y1="899" y2="899" class="net_13"/>
  <line x1="424" x2="424" y1="899" y2="854" class="net_13"/>
  <line x1="424" x2="453" y1="854" y2="854" class="net_13"/>
  <line x1="414" x2="453" y1="959" y2="959" class="net_14"/>
  <line x1="414" x2="424" y1="1019" y2="1019" class="net_15"/>
  <line x1="424" x2="424" y1="1019" y2="974" class="net_15"/>
  <line x1="424" x2="453" y1="974" y2="974" class="net_15"/>
  <line x1="480" x2="525" y1="846.5" y2="846.5" class="net_28"/>
  <line x1="480" x2="492" y1="966.5" y2="966.5" class="net_29"/>
  <line x1="492" x2="492" y1="966.5" y2="861.5" class="net_29"/>
  <line x1="492" x2="525" y1="861.5" y2="861.5" class="net_29"/>
  <line x1="346" x2="385" y1="629" y2="629" class="net_16"/>
  <line x1="346" x2="356" y1="689" y2="689" class="net_17"/>
  <line x1="356" x2="356" y1="689" y2="644" class="net_17"/>
  <line x1="356" x2="385" y1="644" y2="644" class="net_17"/>
  <line x1="346" x2="385" y1="749" y2="749" class="net_18"/>
  <line x1="346" x2="356" y1="809" y2="809" class="net_19"/>
  <line x1="356" x2="356" y1="809" y2="764" class="net_19"/>
  <line x1="356" x2="385" y1="764" y2="764" class="net_19"/>
  <line x1="412" x2="453" y1="636.5" y2="636.5" class="net_31"/>
  <line x1="412" x2="424" y1="756.5" y2="756.5" class="net_32"/>
  <line x1="424" x2="424" y1="756.5" y2="651.5" class="net_32"/>
  <line x1="424" x2="453" y1="651.5" y2="651.5" class="net_32"/>
  <line x1="278" x2="317" y1="303" y2="303" class="net_20"/>
  <line x1="278" x2="288" y1="363" y2="363" class="net_21"/>
  <line x1="288" x2="288" y1="363" y2="318" class="net_21"/>
  <line x1="288" x2="317" y1="318" y2="318" class="net_21"/>
  <line x1="278" x2="317" y1="423" y2="423" class="net_22"/>
  <line x1="278" x2="288" y1="553.5" y2="553.5" class="net_23"/>
  <line x1="288" x2="288" y1="553.5" y2="438" class="net_23"/>
  <line x1="288" x2="317" y1="438" y2="438" class="net_23"/>
  <line x1="344" x2="385" y1="310.5" y2="310.5" class="net_34"/>
  <line x1="344" x2="356" y1="430.5" y2="430.5" class="net_35"/>
  <line x1="356" x2="356" y1="430.5" y2="325.5" class="net_35"/>
  <line x1="356" x2="385" y1="325.5" y2="325.5" class="net_35"/>
  <line x1="210" x2="249" y1="93" y2="93" class="net_24"/>
  <line x1="210" x2="220" y1="153" y2="153" class="net_25"/>
  <line x1="220" x2="220" y1="153" y2="108" class="net_25"/>
  <line x1="220" x2="249" y1="108" y2="108" class="net_25"/>
  <line x1="210" x2="249" y1="213" y2="213" class="net_26"/>
  <line x1="210" x2="220" y1="273" y2="273" class="net_27"/>
  <line x1="220" x2="220" y1="273" y2="228" class="net_27"/>
  <line x1="220" x2="249" y1="228" y2="228" class="net_27"/>
  <line x1="276" x2="317" y1="100.5" y2="100.5" class="net_37"/>
  <line x1="276" x2="288" y1="220.5" y2="220.5" class="net_38"/>
  <line x1="288" x2="288" y1="220.5" y2="115.5" class="net_38"/>
  <line x1="288" x2="317" y1="115.5" y2="115.5" class="net_38"/>
  <line x1="552" x2="587" y1="854" y2="854" class="net_30"/>
  <line x1="480" x2="522" y1="644" y2="644" class="net_33"/>
  <line x1="412" x2="450.5" y1="318" y2="318" class="net_36"/>
  <line x1="344" x2="382.5" y1="108" y2="108" class="net_39"/>
  <line x1="407.5" x2="424" y1="43" y2="43" class="net_44"/>
  <line x1="424" x2="424" y1="43" y2="42" class="net_44"/>
  <line x1="424" x2="453.3333333333333" y1="42" y2="42" class="net_44"/>
  <line x1="407.5" x2="463.3333333333333" y1="108" y2="108" class="net_43"/>
  <line x1="463.3333333333333" x2="463.3333333333333" y1="108" y2="47" class="net_43"/>
  <line x1="473.3333333333333" x2="525.3333333333334" y1="32" y2="32" class="net_45"/>
  <line x1="482" x2="492" y1="183" y2="183" class="net_11"/>
  <line x1="492" x2="492" y1="183" y2="52" class="net_11"/>
  <line x1="492" x2="525.3333333333334" y1="52" y2="52" class="net_11"/>
  <line x1="475.5" x2="502" y1="318" y2="318" class="net_42"/>
  <line x1="502" x2="502" y1="318" y2="72" class="net_42"/>
  <line x1="502" x2="535.3333333333334" y1="72" y2="72" class="net_42"/>
  <line x1="535.3333333333334" x2="535.3333333333334" y1="72" y2="57" class="net_42"/>
  <line x1="545.3333333333334" x2="590.3333333333334" y1="42" y2="42" class="net_46"/>
  <line x1="552" x2="562" y1="94.5" y2="94.5" class="net_10"/>
  <line x1="562" x2="562" y1="94.5" y2="62" class="net_10"/>
  <line x1="562" x2="590.3333333333334" y1="62" y2="62" class="net_10"/>
  <line x1="547" x2="600.3333333333334" y1="644" y2="644" class="net_41"/>
  <line x1="600.3333333333334" x2="600.3333333333334" y1="644" y2="67" class="net_41"/>
  <line x1="610.3333333333334" x2="652" y1="52" y2="52" class="net_47"/>
  <line x1="617" x2="627" y1="786.5" y2="786.5" class="net_9"/>
  <line x1="627" x2="627" y1="786.5" y2="72" class="net_9"/>
  <line x1="627" x2="652" y1="72" y2="72" class="net_9"/>
  <line x1="612" x2="662" y1="854" y2="854" class="net_40"/>
  <line x1="662" x2="662" y1="854" y2="77" class="net_40"/>
  <line x1="672" x2="707" y1="62" y2="62" class="net_8"/>
  <line x1="40" x2="92.8" y1="496" y2="496" class="net_2,3,4,5"/>
</svg>
