<svg xmlns="http://www.w3.org/2000/svg" xmlns:xlink="http://www.w3.org/1999/xlink" xmlns:s="https://github.com/nturley/netlistsvg" width="876" height="579">
  <style>svg {
    stroke:#000;
    fill:none;
  }
  text {
    fill:#000;
    stroke:none;
    font-size:10px;
    font-weight: bold;
    font-family: "Courier New", monospace;
  }
  .nodelabel {
    text-anchor: middle;
  }
  .inputPortLabel {
    text-anchor: end;
  }
  .splitjoinBody {
    fill:#000;
  }</style>
  <g s:type="reduce_xor" transform="translate(189,12)" s:width="33" s:height="25" id="cell_$auto$simplemap.cc:106:simplemap_bitop$212">
    <s:alias val="$xor"/>
    <s:alias val="$reduce_xor"/>
    <s:alias val="$_XOR_"/>
    <path d="M3,0 A30 25 0 0 1 3,25 A30 25 0 0 0 33,12.5 A30 25 0 0 0 3,0" class="cell_$auto$simplemap.cc:106:simplemap_bitop$212"/>
    <path d="M0,0 A30 25 0 0 1 0,25" class="cell_$auto$simplemap.cc:106:simplemap_bitop$212"/>
    <g s:x="3" s:y="5" s:pid="A"/>
    <g s:x="3" s:y="20" s:pid="B"/>
    <g s:x="33" s:y="12.5" s:pid="Y"/>
  </g>
  <g s:type="reduce_xor" transform="translate(189,72)" s:width="33" s:height="25" id="cell_$auto$simplemap.cc:106:simplemap_bitop$213">
    <s:alias val="$xor"/>
    <s:alias val="$reduce_xor"/>
    <s:alias val="$_XOR_"/>
    <path d="M3,0 A30 25 0 0 1 3,25 A30 25 0 0 0 33,12.5 A30 25 0 0 0 3,0" class="cell_$auto$simplemap.cc:106:simplemap_bitop$213"/>
    <path d="M0,0 A30 25 0 0 1 0,25" class="cell_$auto$simplemap.cc:106:simplemap_bitop$213"/>
    <g s:x="3" s:y="5" s:pid="A"/>
    <g s:x="3" s:y="20" s:pid="B"/>
    <g s:x="33" s:y="12.5" s:pid="Y"/>
  </g>
  <g s:type="reduce_xor" transform="translate(189,137)" s:width="33" s:height="25" id="cell_$auto$simplemap.cc:106:simplemap_bitop$214">
    <s:alias val="$xor"/>
    <s:alias val="$reduce_xor"/>
    <s:alias val="$_XOR_"/>
    <path d="M3,0 A30 25 0 0 1 3,25 A30 25 0 0 0 33,12.5 A30 25 0 0 0 3,0" class="cell_$auto$simplemap.cc:106:simplemap_bitop$214"/>
    <path d="M0,0 A30 25 0 0 1 0,25" class="cell_$auto$simplemap.cc:106:simplemap_bitop$214"/>
    <g s:x="3" s:y="5" s:pid="A"/>
    <g s:x="3" s:y="20" s:pid="B"/>
    <g s:x="33" s:y="12.5" s:pid="Y"/>
  </g>
  <g s:type="reduce_xor" transform="translate(189,197)" s:width="33" s:height="25" id="cell_$auto$simplemap.cc:106:simplemap_bitop$215">
    <s:alias val="$xor"/>
    <s:alias val="$reduce_xor"/>
    <s:alias val="$_XOR_"/>
    <path d="M3,0 A30 25 0 0 1 3,25 A30 25 0 0 0 33,12.5 A30 25 0 0 0 3,0" class="cell_$auto$simplemap.cc:106:simplemap_bitop$215"/>
    <path d="M0,0 A30 25 0 0 1 0,25" class="cell_$auto$simplemap.cc:106:simplemap_bitop$215"/>
    <g s:x="3" s:y="5" s:pid="A"/>
    <g s:x="3" s:y="20" s:pid="B"/>
    <g s:x="33" s:y="12.5" s:pid="Y"/>
  </g>
  <g s:type="or" transform="translate(257,19.5)" s:width="30" s:height="25" id="cell_$auto$simplemap.cc:157:simplemap_reduce$219">
    <s:alias val="$or"/>
    <s:alias val="$logic_or"/>
    <s:alias val="$_OR_"/>
    <path d="M0,25 L0,25 L15,25 A15 12.5 0 0 0 15,0 L0,0" class="cell_$auto$simplemap.cc:157:simplemap_reduce$219"/>
    <path d="M0,0 A30 25 0 0 1 0,25" class="cell_$auto$simplemap.cc:157:simplemap_reduce$219"/>
    <g s:x="3" s:y="5" s:pid="A"/>
    <g s:x="3" s:y="20" s:pid="B"/>
    <g s:x="30" s:y="12.5" s:pid="Y"/>
  </g>
  <g s:type="or" transform="translate(257,144.5)" s:width="30" s:height="25" id="cell_$auto$simplemap.cc:157:simplemap_reduce$220">
    <s:alias val="$or"/>
    <s:alias val="$logic_or"/>
    <s:alias val="$_OR_"/>
    <path d="M0,25 L0,25 L15,25 A15 12.5 0 0 0 15,0 L0,0" class="cell_$auto$simplemap.cc:157:simplemap_reduce$220"/>
    <path d="M0,0 A30 25 0 0 1 0,25" class="cell_$auto$simplemap.cc:157:simplemap_reduce$220"/>
    <g s:x="3" s:y="5" s:pid="A"/>
    <g s:x="3" s:y="20" s:pid="B"/>
    <g s:x="30" s:y="12.5" s:pid="Y"/>
  </g>
  <g s:type="or" transform="translate(322,27)" s:width="30" s:height="25" id="cell_$auto$simplemap.cc:157:simplemap_reduce$222">
    <s:alias val="$or"/>
    <s:alias val="$logic_or"/>
    <s:alias val="$_OR_"/>
    <path d="M0,25 L0,25 L15,25 A15 12.5 0 0 0 15,0 L0,0" class="cell_$auto$simplemap.cc:157:simplemap_reduce$222"/>
    <path d="M0,0 A30 25 0 0 1 0,25" class="cell_$auto$simplemap.cc:157:simplemap_reduce$222"/>
    <g s:x="3" s:y="5" s:pid="A"/>
    <g s:x="3" s:y="20" s:pid="B"/>
    <g s:x="30" s:y="12.5" s:pid="Y"/>
  </g>
  <g s:type="not" transform="translate(387,360.5)" s:width="30" s:height="20" id="cell_$auto$simplemap.cc:227:simplemap_lognot$224">
    <s:alias val="$_NOT_"/>
    <s:alias val="$not"/>
    <s:alias val="$logic_not"/>
    <path d="M0,0 L0,20 L20,10 Z" class="cell_$auto$simplemap.cc:227:simplemap_lognot$224"/>
    <circle cx="23" cy="10" r="3" class="cell_$auto$simplemap.cc:227:simplemap_lognot$224"/>
    <g s:x="0" s:y="10" s:pid="A"/>
    <g s:x="25" s:y="10" s:pid="Y"/>
  </g>
  <g s:type="mux" transform="translate(452,222)" s:width="20" s:height="40" id="cell_$auto$simplemap.cc:298:simplemap_mux$225">
    <s:alias val="$pmux"/>
    <s:alias val="$mux"/>
    <s:alias val="$_MUX_"/>
    <path d="M0,0 L20,10 L20,30 L0,40 Z" class="cell_$auto$simplemap.cc:298:simplemap_mux$225"/>
    <g s:x="0" s:y="10" s:pid="A"/>
    <g s:x="0" s:y="30" s:pid="B"/>
    <g s:x="10" s:y="35" s:pid="S"/>
    <g s:x="20" s:y="20" s:pid="Y"/>
  </g>
  <g s:type="mux" transform="translate(452,319.5)" s:width="20" s:height="40" id="cell_$auto$simplemap.cc:298:simplemap_mux$226">
    <s:alias val="$pmux"/>
    <s:alias val="$mux"/>
    <s:alias val="$_MUX_"/>
    <path d="M0,0 L20,10 L20,30 L0,40 Z" class="cell_$auto$simplemap.cc:298:simplemap_mux$226"/>
    <g s:x="0" s:y="10" s:pid="A"/>
    <g s:x="0" s:y="30" s:pid="B"/>
    <g s:x="10" s:y="35" s:pid="S"/>
    <g s:x="20" s:y="20" s:pid="Y"/>
  </g>
  <g s:type="mux" transform="translate(452,380.5)" s:width="20" s:height="40" id="cell_$auto$simplemap.cc:298:simplemap_mux$227">
    <s:alias val="$pmux"/>
    <s:alias val="$mux"/>
    <s:alias val="$_MUX_"/>
    <path d="M0,0 L20,10 L20,30 L0,40 Z" class="cell_$auto$simplemap.cc:298:simplemap_mux$227"/>
    <g s:x="0" s:y="10" s:pid="A"/>
    <g s:x="0" s:y="30" s:pid="B"/>
    <g s:x="10" s:y="35" s:pid="S"/>
    <g s:x="20" s:y="20" s:pid="Y"/>
  </g>
  <g s:type="mux" transform="translate(452,440.5)" s:width="20" s:height="40" id="cell_$auto$simplemap.cc:298:simplemap_mux$228">
    <s:alias val="$pmux"/>
    <s:alias val="$mux"/>
    <s:alias val="$_MUX_"/>
    <path d="M0,0 L20,10 L20,30 L0,40 Z" class="cell_$auto$simplemap.cc:298:simplemap_mux$228"/>
    <g s:x="0" s:y="10" s:pid="A"/>
    <g s:x="0" s:y="30" s:pid="B"/>
    <g s:x="10" s:y="35" s:pid="S"/>
    <g s:x="20" s:y="20" s:pid="Y"/>
  </g>
  <g s:type="generic" transform="translate(586,490)" s:width="30" s:height="40" id="cell_u_ext12">
    <text x="15" y="-4" class="nodelabel cell_u_ext12" s:attribute="ref">imm_gen_ext_12to16</text>
    <rect width="30" height="20" s:generic="body" class="cell_u_ext12"/>
    <g transform="translate(0,10)" s:x="0" s:y="10" s:pid="in0" id="port_u_ext12~i_imm">
      <text x="-3" y="-4" class="inputPortLabel cell_u_ext12">i_imm</text>
    </g>
    <g transform="translate(30,10)" s:x="30" s:y="10" s:pid="out0" id="port_u_ext12~o_imm">
      <text x="5" y="-4" style="fill:#000; stroke:none" class="cell_u_ext12">o_imm</text>
    </g>
  </g>
  <g s:type="generic" transform="translate(586,241.5)" s:width="30" s:height="40" id="cell_u_ext4">
    <text x="15" y="-4" class="nodelabel cell_u_ext4" s:attribute="ref">imm_gen_ext_4to16</text>
    <rect width="30" height="20" s:generic="body" class="cell_u_ext4"/>
    <g transform="translate(0,10)" s:x="0" s:y="10" s:pid="in0" id="port_u_ext4~i_imm">
      <text x="-3" y="-4" class="inputPortLabel cell_u_ext4">i_imm</text>
    </g>
    <g transform="translate(30,10)" s:x="30" s:y="10" s:pid="out0" id="port_u_ext4~o_imm">
      <text x="5" y="-4" style="fill:#000; stroke:none" class="cell_u_ext4">o_imm</text>
    </g>
  </g>
  <g s:type="generic" transform="translate(586,544)" s:width="30" s:height="40" id="cell_u_ext8">
    <text x="15" y="-4" class="nodelabel cell_u_ext8" s:attribute="ref">imm_gen_ext_8to16</text>
    <rect width="30" height="20" s:generic="body" class="cell_u_ext8"/>
    <g transform="translate(0,10)" s:x="0" s:y="10" s:pid="in0" id="port_u_ext8~i_imm">
      <text x="-3" y="-4" class="inputPortLabel cell_u_ext8">i_imm</text>
    </g>
    <g transform="translate(30,10)" s:x="30" s:y="10" s:pid="out0" id="port_u_ext8~o_imm">
      <text x="5" y="-4" style="fill:#000; stroke:none" class="cell_u_ext8">o_imm</text>
    </g>
  </g>
  <g s:type="generic" transform="translate(737,221.5)" s:width="30" s:height="40" id="cell_u_mux">
    <text x="15" y="-4" class="nodelabel cell_u_mux" s:attribute="ref">imm_gen_mux</text>
    <rect width="30" height="80" s:generic="body" class="cell_u_mux"/>
    <g transform="translate(0,10)" s:x="0" s:y="10" s:pid="in0" id="port_u_mux~i_imm12">
      <text x="-3" y="-4" class="inputPortLabel cell_u_mux">i_imm12</text>
    </g>
    <g transform="translate(0,30)" s:x="0" s:y="10" s:pid="in0" id="port_u_mux~i_imm4">
      <text x="-3" y="-4" class="inputPortLabel cell_u_mux">i_imm4</text>
    </g>
    <g transform="translate(0,50)" s:x="0" s:y="10" s:pid="in0" id="port_u_mux~i_imm8">
      <text x="-3" y="-4" class="inputPortLabel cell_u_mux">i_imm8</text>
    </g>
    <g transform="translate(0,70)" s:x="0" s:y="10" s:pid="in0" id="port_u_mux~i_opcode">
      <text x="-3" y="-4" class="inputPortLabel cell_u_mux">i_opcode</text>
    </g>
    <g transform="translate(30,10)" s:x="30" s:y="10" s:pid="out0" id="port_u_mux~o_imm">
      <text x="5" y="-4" style="fill:#000; stroke:none" class="cell_u_mux">o_imm</text>
    </g>
  </g>
  <g s:type="inputExt" transform="translate(12,177)" s:width="30" s:height="20" id="cell_i_instr">
    <text x="15" y="-4" class="nodelabel cell_i_instr" s:attribute="ref">i_instr</text>
    <s:alias val="$_inputExt_"/>
    <path d="M0,0 L0,20 L15,20 L30,10 L15,0 Z" class="cell_i_instr"/>
    <g s:x="28" s:y="10" s:pid="Y"/>
  </g>
  <g s:type="outputExt" transform="translate(834,222)" s:width="30" s:height="20" id="cell_o_imm">
    <text x="15" y="-4" class="nodelabel cell_o_imm" s:attribute="ref">o_imm</text>
    <s:alias val="$_outputExt_"/>
    <path d="M30,0 L30,20 L15,20 L0,10 L15,0 Z" class="cell_o_imm"/>
    <g s:x="0" s:y="10" s:pid="A"/>
  </g>
  <g s:type="constant" transform="translate(89,82)" s:width="30" s:height="20" id="cell_1">
    <text x="15" y="-4" class="nodelabel cell_1" s:attribute="ref">1</text>
    <s:alias val="$_constant_"/>
    <rect width="30" height="20" class="cell_1"/>
    <g s:x="30" s:y="10" s:pid="Y"/>
  </g>
  <g s:type="constant" transform="translate(89,147)" s:width="30" s:height="20" id="cell_0">
    <text x="15" y="-4" class="nodelabel cell_0" s:attribute="ref">0</text>
    <s:alias val="$_constant_"/>
    <rect width="30" height="20" class="cell_0"/>
    <g s:x="30" s:y="10" s:pid="Y"/>
  </g>
  <g s:type="join" transform="translate(514,231.5)" s:width="4" s:height="40" id="cell_$join$,42,43,44,45,">
    <rect width="5" height="80" class="splitjoinBody" s:generic="body"/>
    <s:alias val="$_join_"/>
    <g s:x="5" s:y="20" s:pid="out"/>
    <g transform="translate(0,10)" s:x="0" s:y="10" s:pid="in0">
      <text x="-3" y="-4" class="inputPortLabel">0</text>
    </g>
    <g transform="translate(0,30)" s:x="0" s:y="10" s:pid="in0">
      <text x="-3" y="-4" class="inputPortLabel">1</text>
    </g>
    <g transform="translate(0,50)" s:x="0" s:y="10" s:pid="in0">
      <text x="-3" y="-4" class="inputPortLabel">2</text>
    </g>
    <g transform="translate(0,70)" s:x="0" s:y="10" s:pid="in0">
      <text x="-3" y="-4" class="inputPortLabel">3</text>
    </g>
  </g>
  <g s:type="split" transform="translate(114,199)" s:width="5" s:height="40" id="cell_$split$,2,3,4,5,6,7,8,9,10,11,12,13,14,15,16,17,">
    <rect width="5" height="300" class="splitjoinBody" s:generic="body"/>
    <s:alias val="$_split_"/>
    <g s:x="0" s:y="20" s:pid="in"/>
    <g transform="translate(4,10)" s:x="4" s:y="10" s:pid="out0">
      <text x="5" y="-4">0</text>
    </g>
    <g transform="translate(4,30)" s:x="4" s:y="10" s:pid="out0">
      <text x="5" y="-4">1</text>
    </g>
    <g transform="translate(4,50)" s:x="4" s:y="10" s:pid="out0">
      <text x="5" y="-4">2</text>
    </g>
    <g transform="translate(4,70)" s:x="4" s:y="10" s:pid="out0">
      <text x="5" y="-4">3</text>
    </g>
    <g transform="translate(4,90)" s:x="4" s:y="10" s:pid="out0">
      <text x="5" y="-4">4</text>
    </g>
    <g transform="translate(4,110)" s:x="4" s:y="10" s:pid="out0">
      <text x="5" y="-4">12</text>
    </g>
    <g transform="translate(4,130)" s:x="4" s:y="10" s:pid="out0">
      <text x="5" y="-4">5</text>
    </g>
    <g transform="translate(4,150)" s:x="4" s:y="10" s:pid="out0">
      <text x="5" y="-4">13</text>
    </g>
    <g transform="translate(4,170)" s:x="4" s:y="10" s:pid="out0">
      <text x="5" y="-4">6</text>
    </g>
    <g transform="translate(4,190)" s:x="4" s:y="10" s:pid="out0">
      <text x="5" y="-4">14</text>
    </g>
    <g transform="translate(4,210)" s:x="4" s:y="10" s:pid="out0">
      <text x="5" y="-4">7</text>
    </g>
    <g transform="translate(4,230)" s:x="4" s:y="10" s:pid="out0">
      <text x="5" y="-4">15</text>
    </g>
    <g transform="translate(4,250)" s:x="4" s:y="10" s:pid="out0">
      <text x="5" y="-4">4:15</text>
    </g>
    <g transform="translate(4,270)" s:x="4" s:y="10" s:pid="out0">
      <text x="5" y="-4">4:11</text>
    </g>
    <g transform="translate(4,290)" s:x="4" s:y="10" s:pid="out0">
      <text x="5" y="-4">0:3</text>
    </g>
  </g>
  <line x1="118.5" x2="118.5" y1="209" y2="177" class="net_2"/>
  <line x1="118.5" x2="129" y1="177" y2="177" class="net_2"/>
  <line x1="129" x2="129" y1="177" y2="17" class="net_2"/>
  <line x1="129" x2="192" y1="17" y2="17" class="net_2"/>
  <line x1="119" x2="169" y1="92" y2="92" class="net_94"/>
  <line x1="169" x2="169" y1="92" y2="32" class="net_94"/>
  <circle cx="169" cy="92" r="2" style="fill:#000" class="net_94"/>
  <line x1="169" x2="192" y1="32" y2="32" class="net_94"/>
  <line x1="119" x2="192" y1="92" y2="92" class="net_94"/>
  <line x1="119" x2="169" y1="92" y2="92" class="net_94"/>
  <line x1="169" x2="169" y1="92" y2="217" class="net_94"/>
  <line x1="169" x2="192" y1="217" y2="217" class="net_94"/>
  <line x1="119" x2="139" y1="229.5" y2="229.5" class="net_3"/>
  <line x1="139" x2="139" y1="229.5" y2="77" class="net_3"/>
  <line x1="139" x2="192" y1="77" y2="77" class="net_3"/>
  <line x1="119" x2="149" y1="249.5" y2="249.5" class="net_4"/>
  <line x1="149" x2="149" y1="249.5" y2="142" class="net_4"/>
  <line x1="149" x2="192" y1="142" y2="142" class="net_4"/>
  <line x1="119" x2="192" y1="157" y2="157" class="net_96"/>
  <line x1="119" x2="159" y1="269.5" y2="269.5" class="net_5"/>
  <line x1="159" x2="159" y1="269.5" y2="202" class="net_5"/>
  <line x1="159" x2="192" y1="202" y2="202" class="net_5"/>
  <line x1="222" x2="260" y1="24.5" y2="24.5" class="net_34"/>
  <line x1="222" x2="232" y1="84.5" y2="84.5" class="net_35"/>
  <line x1="232" x2="232" y1="84.5" y2="39.5" class="net_35"/>
  <line x1="232" x2="260" y1="39.5" y2="39.5" class="net_35"/>
  <line x1="222" x2="260" y1="149.5" y2="149.5" class="net_36"/>
  <line x1="222" x2="232" y1="209.5" y2="209.5" class="net_37"/>
  <line x1="232" x2="232" y1="209.5" y2="164.5" class="net_37"/>
  <line x1="232" x2="260" y1="164.5" y2="164.5" class="net_37"/>
  <line x1="287" x2="325" y1="32" y2="32" class="net_38"/>
  <line x1="287" x2="297" y1="157" y2="157" class="net_39"/>
  <line x1="297" x2="297" y1="157" y2="47" class="net_39"/>
  <line x1="297" x2="325" y1="47" y2="47" class="net_39"/>
  <line x1="352" x2="362" y1="39.5" y2="39.5" class="net_40"/>
  <line x1="362" x2="362" y1="39.5" y2="370.5" class="net_40"/>
  <line x1="362" x2="387" y1="370.5" y2="370.5" class="net_40"/>
  <line x1="119" x2="169" y1="289.5" y2="289.5" class="net_6"/>
  <line x1="169" x2="169" y1="289.5" y2="232" class="net_6"/>
  <line x1="169" x2="452" y1="232" y2="232" class="net_6"/>
  <line x1="119" x2="179" y1="309.5" y2="309.5" class="net_14"/>
  <line x1="179" x2="179" y1="309.5" y2="252" class="net_14"/>
  <line x1="179" x2="452" y1="252" y2="252" class="net_14"/>
  <line x1="412" x2="427" y1="370.5" y2="370.5" class="net_41"/>
  <line x1="427" x2="427" y1="370.5" y2="309.5" class="net_41"/>
  <line x1="427" x2="462" y1="309.5" y2="309.5" class="net_41"/>
  <circle cx="427" cy="370.5" r="2" style="fill:#000" class="net_41"/>
  <line x1="462" x2="462" y1="309.5" y2="257" class="net_41"/>
  <line x1="412" x2="462" y1="370.5" y2="370.5" class="net_41"/>
  <line x1="462" x2="462" y1="370.5" y2="354.5" class="net_41"/>
  <line x1="412" x2="427" y1="370.5" y2="370.5" class="net_41"/>
  <line x1="427" x2="427" y1="370.5" y2="430.5" class="net_41"/>
  <line x1="427" x2="462" y1="430.5" y2="430.5" class="net_41"/>
  <circle cx="427" cy="430.5" r="2" style="fill:#000" class="net_41"/>
  <line x1="462" x2="462" y1="430.5" y2="415.5" class="net_41"/>
  <line x1="412" x2="427" y1="370.5" y2="370.5" class="net_41"/>
  <line x1="427" x2="427" y1="370.5" y2="490.5" class="net_41"/>
  <line x1="427" x2="462" y1="490.5" y2="490.5" class="net_41"/>
  <line x1="462" x2="462" y1="490.5" y2="475.5" class="net_41"/>
  <line x1="119" x2="452" y1="329.5" y2="329.5" class="net_7"/>
  <line x1="119" x2="452" y1="349.5" y2="349.5" class="net_15"/>
  <line x1="119" x2="169" y1="369.5" y2="369.5" class="net_8"/>
  <line x1="169" x2="169" y1="369.5" y2="390.5" class="net_8"/>
  <line x1="169" x2="452" y1="390.5" y2="390.5" class="net_8"/>
  <line x1="119" x2="159" y1="389.5" y2="389.5" class="net_16"/>
  <line x1="159" x2="159" y1="389.5" y2="410.5" class="net_16"/>
  <line x1="159" x2="452" y1="410.5" y2="410.5" class="net_16"/>
  <line x1="119" x2="149" y1="409.5" y2="409.5" class="net_9"/>
  <line x1="149" x2="149" y1="409.5" y2="450.5" class="net_9"/>
  <line x1="149" x2="452" y1="450.5" y2="450.5" class="net_9"/>
  <line x1="119" x2="139" y1="429.5" y2="429.5" class="net_17"/>
  <line x1="139" x2="139" y1="429.5" y2="470.5" class="net_17"/>
  <line x1="139" x2="452" y1="470.5" y2="470.5" class="net_17"/>
  <line x1="119" x2="129" y1="449.5" y2="449.5" class="net_6,7,8,9,10,11,12,13,14,15,16,17"/>
  <line x1="129" x2="129" y1="449.5" y2="500.5" class="net_6,7,8,9,10,11,12,13,14,15,16,17"/>
  <line x1="129" x2="586" y1="500.5" y2="500.5" class="net_6,7,8,9,10,11,12,13,14,15,16,17"/>
  <line x1="520" x2="586" y1="252" y2="252" class="net_42,43,44,45"/>
  <line x1="118.5" x2="118.5" y1="470" y2="554.5" class="net_6,7,8,9,10,11,12,13"/>
  <line x1="118.5" x2="586" y1="554.5" y2="554.5" class="net_6,7,8,9,10,11,12,13"/>
  <line x1="617" x2="658" y1="500.5" y2="500.5" class="net_46,47,48,49,50,51,52,53,54,55,56,57,58,59,60,61"/>
  <line x1="658" x2="658" y1="500.5" y2="232" class="net_46,47,48,49,50,51,52,53,54,55,56,57,58,59,60,61"/>
  <line x1="658" x2="737" y1="232" y2="232" class="net_46,47,48,49,50,51,52,53,54,55,56,57,58,59,60,61"/>
  <line x1="617" x2="737" y1="252" y2="252" class="net_62,63,64,65,66,67,68,69,70,71,72,73,74,75,76,77"/>
  <line x1="617" x2="668" y1="554.5" y2="554.5" class="net_78,79,80,81,82,83,84,85,86,87,88,89,90,91,92,93"/>
  <line x1="668" x2="668" y1="554.5" y2="272" class="net_78,79,80,81,82,83,84,85,86,87,88,89,90,91,92,93"/>
  <line x1="668" x2="737" y1="272" y2="272" class="net_78,79,80,81,82,83,84,85,86,87,88,89,90,91,92,93"/>
  <line x1="118.5" x2="118.5" y1="490" y2="523" class="net_2,3,4,5"/>
  <line x1="118.5" x2="678" y1="523" y2="523" class="net_2,3,4,5"/>
  <line x1="678" x2="678" y1="523" y2="292" class="net_2,3,4,5"/>
  <line x1="678" x2="737" y1="292" y2="292" class="net_2,3,4,5"/>
  <line x1="768" x2="834" y1="232" y2="232" class="net_18,19,20,21,22,23,24,25,26,27,28,29,30,31,32,33"/>
  <line x1="472" x2="514" y1="242" y2="242" class="net_42"/>
  <line x1="472" x2="482" y1="339.5" y2="339.5" class="net_43"/>
  <line x1="482" x2="482" y1="339.5" y2="262" class="net_43"/>
  <line x1="482" x2="514" y1="262" y2="262" class="net_43"/>
  <line x1="472" x2="492" y1="400.5" y2="400.5" class="net_44"/>
  <line x1="492" x2="492" y1="400.5" y2="282" class="net_44"/>
  <line x1="492" x2="514" y1="282" y2="282" class="net_44"/>
  <line x1="472" x2="514.5" y1="460.5" y2="460.5" class="net_45"/>
  <line x1="514.5" x2="514.5" y1="460.5" y2="302.5" class="net_45"/>
  <line x1="40" x2="114.5" y1="187" y2="187" class="net_2,3,4,5,6,7,8,9,10,11,12,13,14,15,16,17"/>
  <line x1="114.5" x2="114.5" y1="187" y2="219" class="net_2,3,4,5,6,7,8,9,10,11,12,13,14,15,16,17"/>
</svg>
