<svg xmlns="http://www.w3.org/2000/svg" xmlns:xlink="http://www.w3.org/1999/xlink" xmlns:s="https://github.com/nturley/netlistsvg" width="779" height="889">
  <style>svg {
    stroke:#000;
    fill:none;
  }
  text {
    fill:#000;
    stroke:none;
    font-size:10px;
    font-weight: bold;
    font-family: "Courier New", monospace;
  }
  .nodelabel {
    text-anchor: middle;
  }
  .inputPortLabel {
    text-anchor: end;
  }
  .splitjoinBody {
    fill:#000;
  }</style>
  <g s:type="reduce_xor" transform="translate(195,252)" s:width="33" s:height="25" id="cell_$auto$simplemap.cc:106:simplemap_bitop$111">
    <s:alias val="$xor"/>
    <s:alias val="$reduce_xor"/>
    <s:alias val="$_XOR_"/>
    <path d="M3,0 A30 25 0 0 1 3,25 A30 25 0 0 0 33,12.5 A30 25 0 0 0 3,0" class="cell_$auto$simplemap.cc:106:simplemap_bitop$111"/>
    <path d="M0,0 A30 25 0 0 1 0,25" class="cell_$auto$simplemap.cc:106:simplemap_bitop$111"/>
    <g s:x="3" s:y="5" s:pid="A"/>
    <g s:x="3" s:y="20" s:pid="B"/>
    <g s:x="33" s:y="12.5" s:pid="Y"/>
  </g>
  <g s:type="reduce_xor" transform="translate(195,312)" s:width="33" s:height="25" id="cell_$auto$simplemap.cc:106:simplemap_bitop$112">
    <s:alias val="$xor"/>
    <s:alias val="$reduce_xor"/>
    <s:alias val="$_XOR_"/>
    <path d="M3,0 A30 25 0 0 1 3,25 A30 25 0 0 0 33,12.5 A30 25 0 0 0 3,0" class="cell_$auto$simplemap.cc:106:simplemap_bitop$112"/>
    <path d="M0,0 A30 25 0 0 1 0,25" class="cell_$auto$simplemap.cc:106:simplemap_bitop$112"/>
    <g s:x="3" s:y="5" s:pid="A"/>
    <g s:x="3" s:y="20" s:pid="B"/>
    <g s:x="33" s:y="12.5" s:pid="Y"/>
  </g>
  <g s:type="reduce_xor" transform="translate(195,372)" s:width="33" s:height="25" id="cell_$auto$simplemap.cc:106:simplemap_bitop$113">
    <s:alias val="$xor"/>
    <s:alias val="$reduce_xor"/>
    <s:alias val="$_XOR_"/>
    <path d="M3,0 A30 25 0 0 1 3,25 A30 25 0 0 0 33,12.5 A30 25 0 0 0 3,0" class="cell_$auto$simplemap.cc:106:simplemap_bitop$113"/>
    <path d="M0,0 A30 25 0 0 1 0,25" class="cell_$auto$simplemap.cc:106:simplemap_bitop$113"/>
    <g s:x="3" s:y="5" s:pid="A"/>
    <g s:x="3" s:y="20" s:pid="B"/>
    <g s:x="33" s:y="12.5" s:pid="Y"/>
  </g>
  <g s:type="reduce_xor" transform="translate(195,432)" s:width="33" s:height="25" id="cell_$auto$simplemap.cc:106:simplemap_bitop$114">
    <s:alias val="$xor"/>
    <s:alias val="$reduce_xor"/>
    <s:alias val="$_XOR_"/>
    <path d="M3,0 A30 25 0 0 1 3,25 A30 25 0 0 0 33,12.5 A30 25 0 0 0 3,0" class="cell_$auto$simplemap.cc:106:simplemap_bitop$114"/>
    <path d="M0,0 A30 25 0 0 1 0,25" class="cell_$auto$simplemap.cc:106:simplemap_bitop$114"/>
    <g s:x="3" s:y="5" s:pid="A"/>
    <g s:x="3" s:y="20" s:pid="B"/>
    <g s:x="33" s:y="12.5" s:pid="Y"/>
  </g>
  <g s:type="reduce_xor" transform="translate(333,462)" s:width="33" s:height="25" id="cell_$auto$simplemap.cc:106:simplemap_bitop$126">
    <s:alias val="$xor"/>
    <s:alias val="$reduce_xor"/>
    <s:alias val="$_XOR_"/>
    <path d="M3,0 A30 25 0 0 1 3,25 A30 25 0 0 0 33,12.5 A30 25 0 0 0 3,0" class="cell_$auto$simplemap.cc:106:simplemap_bitop$126"/>
    <path d="M0,0 A30 25 0 0 1 0,25" class="cell_$auto$simplemap.cc:106:simplemap_bitop$126"/>
    <g s:x="3" s:y="5" s:pid="A"/>
    <g s:x="3" s:y="20" s:pid="B"/>
    <g s:x="33" s:y="12.5" s:pid="Y"/>
  </g>
  <g s:type="reduce_xor" transform="translate(333,522)" s:width="33" s:height="25" id="cell_$auto$simplemap.cc:106:simplemap_bitop$127">
    <s:alias val="$xor"/>
    <s:alias val="$reduce_xor"/>
    <s:alias val="$_XOR_"/>
    <path d="M3,0 A30 25 0 0 1 3,25 A30 25 0 0 0 33,12.5 A30 25 0 0 0 3,0" class="cell_$auto$simplemap.cc:106:simplemap_bitop$127"/>
    <path d="M0,0 A30 25 0 0 1 0,25" class="cell_$auto$simplemap.cc:106:simplemap_bitop$127"/>
    <g s:x="3" s:y="5" s:pid="A"/>
    <g s:x="3" s:y="20" s:pid="B"/>
    <g s:x="33" s:y="12.5" s:pid="Y"/>
  </g>
  <g s:type="reduce_xor" transform="translate(333,582)" s:width="33" s:height="25" id="cell_$auto$simplemap.cc:106:simplemap_bitop$128">
    <s:alias val="$xor"/>
    <s:alias val="$reduce_xor"/>
    <s:alias val="$_XOR_"/>
    <path d="M3,0 A30 25 0 0 1 3,25 A30 25 0 0 0 33,12.5 A30 25 0 0 0 3,0" class="cell_$auto$simplemap.cc:106:simplemap_bitop$128"/>
    <path d="M0,0 A30 25 0 0 1 0,25" class="cell_$auto$simplemap.cc:106:simplemap_bitop$128"/>
    <g s:x="3" s:y="5" s:pid="A"/>
    <g s:x="3" s:y="20" s:pid="B"/>
    <g s:x="33" s:y="12.5" s:pid="Y"/>
  </g>
  <g s:type="reduce_xor" transform="translate(333,642)" s:width="33" s:height="25" id="cell_$auto$simplemap.cc:106:simplemap_bitop$129">
    <s:alias val="$xor"/>
    <s:alias val="$reduce_xor"/>
    <s:alias val="$_XOR_"/>
    <path d="M3,0 A30 25 0 0 1 3,25 A30 25 0 0 0 33,12.5 A30 25 0 0 0 3,0" class="cell_$auto$simplemap.cc:106:simplemap_bitop$129"/>
    <path d="M0,0 A30 25 0 0 1 0,25" class="cell_$auto$simplemap.cc:106:simplemap_bitop$129"/>
    <g s:x="3" s:y="5" s:pid="A"/>
    <g s:x="3" s:y="20" s:pid="B"/>
    <g s:x="33" s:y="12.5" s:pid="Y"/>
  </g>
  <g s:type="reduce_xor" transform="translate(416,672)" s:width="33" s:height="25" id="cell_$auto$simplemap.cc:106:simplemap_bitop$141">
    <s:alias val="$xor"/>
    <s:alias val="$reduce_xor"/>
    <s:alias val="$_XOR_"/>
    <path d="M3,0 A30 25 0 0 1 3,25 A30 25 0 0 0 33,12.5 A30 25 0 0 0 3,0" class="cell_$auto$simplemap.cc:106:simplemap_bitop$141"/>
    <path d="M0,0 A30 25 0 0 1 0,25" class="cell_$auto$simplemap.cc:106:simplemap_bitop$141"/>
    <g s:x="3" s:y="5" s:pid="A"/>
    <g s:x="3" s:y="20" s:pid="B"/>
    <g s:x="33" s:y="12.5" s:pid="Y"/>
  </g>
  <g s:type="reduce_xor" transform="translate(416,732)" s:width="33" s:height="25" id="cell_$auto$simplemap.cc:106:simplemap_bitop$142">
    <s:alias val="$xor"/>
    <s:alias val="$reduce_xor"/>
    <s:alias val="$_XOR_"/>
    <path d="M3,0 A30 25 0 0 1 3,25 A30 25 0 0 0 33,12.5 A30 25 0 0 0 3,0" class="cell_$auto$simplemap.cc:106:simplemap_bitop$142"/>
    <path d="M0,0 A30 25 0 0 1 0,25" class="cell_$auto$simplemap.cc:106:simplemap_bitop$142"/>
    <g s:x="3" s:y="5" s:pid="A"/>
    <g s:x="3" s:y="20" s:pid="B"/>
    <g s:x="33" s:y="12.5" s:pid="Y"/>
  </g>
  <g s:type="reduce_xor" transform="translate(416,792)" s:width="33" s:height="25" id="cell_$auto$simplemap.cc:106:simplemap_bitop$143">
    <s:alias val="$xor"/>
    <s:alias val="$reduce_xor"/>
    <s:alias val="$_XOR_"/>
    <path d="M3,0 A30 25 0 0 1 3,25 A30 25 0 0 0 33,12.5 A30 25 0 0 0 3,0" class="cell_$auto$simplemap.cc:106:simplemap_bitop$143"/>
    <path d="M0,0 A30 25 0 0 1 0,25" class="cell_$auto$simplemap.cc:106:simplemap_bitop$143"/>
    <g s:x="3" s:y="5" s:pid="A"/>
    <g s:x="3" s:y="20" s:pid="B"/>
    <g s:x="33" s:y="12.5" s:pid="Y"/>
  </g>
  <g s:type="reduce_xor" transform="translate(416,852)" s:width="33" s:height="25" id="cell_$auto$simplemap.cc:106:simplemap_bitop$144">
    <s:alias val="$xor"/>
    <s:alias val="$reduce_xor"/>
    <s:alias val="$_XOR_"/>
    <path d="M3,0 A30 25 0 0 1 3,25 A30 25 0 0 0 33,12.5 A30 25 0 0 0 3,0" class="cell_$auto$simplemap.cc:106:simplemap_bitop$144"/>
    <path d="M0,0 A30 25 0 0 1 0,25" class="cell_$auto$simplemap.cc:106:simplemap_bitop$144"/>
    <g s:x="3" s:y="5" s:pid="A"/>
    <g s:x="3" s:y="20" s:pid="B"/>
    <g s:x="33" s:y="12.5" s:pid="Y"/>
  </g>
  <g s:type="reduce_xor" transform="translate(416,102)" s:width="33" s:height="25" id="cell_$auto$simplemap.cc:106:simplemap_bitop$154">
    <s:alias val="$xor"/>
    <s:alias val="$reduce_xor"/>
    <s:alias val="$_XOR_"/>
    <path d="M3,0 A30 25 0 0 1 3,25 A30 25 0 0 0 33,12.5 A30 25 0 0 0 3,0" class="cell_$auto$simplemap.cc:106:simplemap_bitop$154"/>
    <path d="M0,0 A30 25 0 0 1 0,25" class="cell_$auto$simplemap.cc:106:simplemap_bitop$154"/>
    <g s:x="3" s:y="5" s:pid="A"/>
    <g s:x="3" s:y="20" s:pid="B"/>
    <g s:x="33" s:y="12.5" s:pid="Y"/>
  </g>
  <g s:type="and" transform="translate(494,34.5)" s:width="30" s:height="25" id="cell_$auto$simplemap.cc:106:simplemap_bitop$155">
    <s:alias val="$and"/>
    <s:alias val="$logic_and"/>
    <s:alias val="$_AND_"/>
    <path d="M0,0 L0,25 L15,25 A15 12.5 0 0 0 15,0 Z" class="cell_$auto$simplemap.cc:106:simplemap_bitop$155"/>
    <g s:x="0" s:y="5" s:pid="A"/>
    <g s:x="0" s:y="20" s:pid="B"/>
    <g s:x="30" s:y="12.5" s:pid="Y"/>
  </g>
  <g s:type="and" transform="translate(494,274.5)" s:width="30" s:height="25" id="cell_$auto$simplemap.cc:106:simplemap_bitop$156">
    <s:alias val="$and"/>
    <s:alias val="$logic_and"/>
    <s:alias val="$_AND_"/>
    <path d="M0,0 L0,25 L15,25 A15 12.5 0 0 0 15,0 Z" class="cell_$auto$simplemap.cc:106:simplemap_bitop$156"/>
    <g s:x="0" s:y="5" s:pid="A"/>
    <g s:x="0" s:y="20" s:pid="B"/>
    <g s:x="30" s:y="12.5" s:pid="Y"/>
  </g>
  <g s:type="or" transform="translate(559,42)" s:width="30" s:height="25" id="cell_$auto$simplemap.cc:106:simplemap_bitop$157">
    <s:alias val="$or"/>
    <s:alias val="$logic_or"/>
    <s:alias val="$_OR_"/>
    <path d="M0,25 L0,25 L15,25 A15 12.5 0 0 0 15,0 L0,0" class="cell_$auto$simplemap.cc:106:simplemap_bitop$157"/>
    <path d="M0,0 A30 25 0 0 1 0,25" class="cell_$auto$simplemap.cc:106:simplemap_bitop$157"/>
    <g s:x="3" s:y="5" s:pid="A"/>
    <g s:x="3" s:y="20" s:pid="B"/>
    <g s:x="30" s:y="12.5" s:pid="Y"/>
  </g>
  <g s:type="or" transform="translate(624,49.5)" s:width="30" s:height="25" id="cell_$auto$simplemap.cc:106:simplemap_bitop$158">
    <s:alias val="$or"/>
    <s:alias val="$logic_or"/>
    <s:alias val="$_OR_"/>
    <path d="M0,25 L0,25 L15,25 A15 12.5 0 0 0 15,0 L0,0" class="cell_$auto$simplemap.cc:106:simplemap_bitop$158"/>
    <path d="M0,0 A30 25 0 0 1 0,25" class="cell_$auto$simplemap.cc:106:simplemap_bitop$158"/>
    <g s:x="3" s:y="5" s:pid="A"/>
    <g s:x="3" s:y="20" s:pid="B"/>
    <g s:x="30" s:y="12.5" s:pid="Y"/>
  </g>
  <g s:type="reduce_xor" transform="translate(195,12)" s:width="33" s:height="25" id="cell_$auto$simplemap.cc:106:simplemap_bitop$96">
    <s:alias val="$xor"/>
    <s:alias val="$reduce_xor"/>
    <s:alias val="$_XOR_"/>
    <path d="M3,0 A30 25 0 0 1 3,25 A30 25 0 0 0 33,12.5 A30 25 0 0 0 3,0" class="cell_$auto$simplemap.cc:106:simplemap_bitop$96"/>
    <path d="M0,0 A30 25 0 0 1 0,25" class="cell_$auto$simplemap.cc:106:simplemap_bitop$96"/>
    <g s:x="3" s:y="5" s:pid="A"/>
    <g s:x="3" s:y="20" s:pid="B"/>
    <g s:x="33" s:y="12.5" s:pid="Y"/>
  </g>
  <g s:type="reduce_xor" transform="translate(195,72)" s:width="33" s:height="25" id="cell_$auto$simplemap.cc:106:simplemap_bitop$97">
    <s:alias val="$xor"/>
    <s:alias val="$reduce_xor"/>
    <s:alias val="$_XOR_"/>
    <path d="M3,0 A30 25 0 0 1 3,25 A30 25 0 0 0 33,12.5 A30 25 0 0 0 3,0" class="cell_$auto$simplemap.cc:106:simplemap_bitop$97"/>
    <path d="M0,0 A30 25 0 0 1 0,25" class="cell_$auto$simplemap.cc:106:simplemap_bitop$97"/>
    <g s:x="3" s:y="5" s:pid="A"/>
    <g s:x="3" s:y="20" s:pid="B"/>
    <g s:x="33" s:y="12.5" s:pid="Y"/>
  </g>
  <g s:type="reduce_xor" transform="translate(195,132)" s:width="33" s:height="25" id="cell_$auto$simplemap.cc:106:simplemap_bitop$98">
    <s:alias val="$xor"/>
    <s:alias val="$reduce_xor"/>
    <s:alias val="$_XOR_"/>
    <path d="M3,0 A30 25 0 0 1 3,25 A30 25 0 0 0 33,12.5 A30 25 0 0 0 3,0" class="cell_$auto$simplemap.cc:106:simplemap_bitop$98"/>
    <path d="M0,0 A30 25 0 0 1 0,25" class="cell_$auto$simplemap.cc:106:simplemap_bitop$98"/>
    <g s:x="3" s:y="5" s:pid="A"/>
    <g s:x="3" s:y="20" s:pid="B"/>
    <g s:x="33" s:y="12.5" s:pid="Y"/>
  </g>
  <g s:type="reduce_xor" transform="translate(195,192)" s:width="33" s:height="25" id="cell_$auto$simplemap.cc:106:simplemap_bitop$99">
    <s:alias val="$xor"/>
    <s:alias val="$reduce_xor"/>
    <s:alias val="$_XOR_"/>
    <path d="M3,0 A30 25 0 0 1 3,25 A30 25 0 0 0 33,12.5 A30 25 0 0 0 3,0" class="cell_$auto$simplemap.cc:106:simplemap_bitop$99"/>
    <path d="M0,0 A30 25 0 0 1 0,25" class="cell_$auto$simplemap.cc:106:simplemap_bitop$99"/>
    <g s:x="3" s:y="5" s:pid="A"/>
    <g s:x="3" s:y="20" s:pid="B"/>
    <g s:x="33" s:y="12.5" s:pid="Y"/>
  </g>
  <g s:type="or" transform="translate(263,19.5)" s:width="30" s:height="25" id="cell_$auto$simplemap.cc:157:simplemap_reduce$103">
    <s:alias val="$or"/>
    <s:alias val="$logic_or"/>
    <s:alias val="$_OR_"/>
    <path d="M0,25 L0,25 L15,25 A15 12.5 0 0 0 15,0 L0,0" class="cell_$auto$simplemap.cc:157:simplemap_reduce$103"/>
    <path d="M0,0 A30 25 0 0 1 0,25" class="cell_$auto$simplemap.cc:157:simplemap_reduce$103"/>
    <g s:x="3" s:y="5" s:pid="A"/>
    <g s:x="3" s:y="20" s:pid="B"/>
    <g s:x="30" s:y="12.5" s:pid="Y"/>
  </g>
  <g s:type="or" transform="translate(263,139.5)" s:width="30" s:height="25" id="cell_$auto$simplemap.cc:157:simplemap_reduce$104">
    <s:alias val="$or"/>
    <s:alias val="$logic_or"/>
    <s:alias val="$_OR_"/>
    <path d="M0,25 L0,25 L15,25 A15 12.5 0 0 0 15,0 L0,0" class="cell_$auto$simplemap.cc:157:simplemap_reduce$104"/>
    <path d="M0,0 A30 25 0 0 1 0,25" class="cell_$auto$simplemap.cc:157:simplemap_reduce$104"/>
    <g s:x="3" s:y="5" s:pid="A"/>
    <g s:x="3" s:y="20" s:pid="B"/>
    <g s:x="30" s:y="12.5" s:pid="Y"/>
  </g>
  <g s:type="or" transform="translate(334,27)" s:width="30" s:height="25" id="cell_$auto$simplemap.cc:157:simplemap_reduce$106">
    <s:alias val="$or"/>
    <s:alias val="$logic_or"/>
    <s:alias val="$_OR_"/>
    <path d="M0,25 L0,25 L15,25 A15 12.5 0 0 0 15,0 L0,0" class="cell_$auto$simplemap.cc:157:simplemap_reduce$106"/>
    <path d="M0,0 A30 25 0 0 1 0,25" class="cell_$auto$simplemap.cc:157:simplemap_reduce$106"/>
    <g s:x="3" s:y="5" s:pid="A"/>
    <g s:x="3" s:y="20" s:pid="B"/>
    <g s:x="30" s:y="12.5" s:pid="Y"/>
  </g>
  <g s:type="or" transform="translate(263,259.5)" s:width="30" s:height="25" id="cell_$auto$simplemap.cc:157:simplemap_reduce$118">
    <s:alias val="$or"/>
    <s:alias val="$logic_or"/>
    <s:alias val="$_OR_"/>
    <path d="M0,25 L0,25 L15,25 A15 12.5 0 0 0 15,0 L0,0" class="cell_$auto$simplemap.cc:157:simplemap_reduce$118"/>
    <path d="M0,0 A30 25 0 0 1 0,25" class="cell_$auto$simplemap.cc:157:simplemap_reduce$118"/>
    <g s:x="3" s:y="5" s:pid="A"/>
    <g s:x="3" s:y="20" s:pid="B"/>
    <g s:x="30" s:y="12.5" s:pid="Y"/>
  </g>
  <g s:type="or" transform="translate(263,379.5)" s:width="30" s:height="25" id="cell_$auto$simplemap.cc:157:simplemap_reduce$119">
    <s:alias val="$or"/>
    <s:alias val="$logic_or"/>
    <s:alias val="$_OR_"/>
    <path d="M0,25 L0,25 L15,25 A15 12.5 0 0 0 15,0 L0,0" class="cell_$auto$simplemap.cc:157:simplemap_reduce$119"/>
    <path d="M0,0 A30 25 0 0 1 0,25" class="cell_$auto$simplemap.cc:157:simplemap_reduce$119"/>
    <g s:x="3" s:y="5" s:pid="A"/>
    <g s:x="3" s:y="20" s:pid="B"/>
    <g s:x="30" s:y="12.5" s:pid="Y"/>
  </g>
  <g s:type="or" transform="translate(334,267)" s:width="30" s:height="25" id="cell_$auto$simplemap.cc:157:simplemap_reduce$121">
    <s:alias val="$or"/>
    <s:alias val="$logic_or"/>
    <s:alias val="$_OR_"/>
    <path d="M0,25 L0,25 L15,25 A15 12.5 0 0 0 15,0 L0,0" class="cell_$auto$simplemap.cc:157:simplemap_reduce$121"/>
    <path d="M0,0 A30 25 0 0 1 0,25" class="cell_$auto$simplemap.cc:157:simplemap_reduce$121"/>
    <g s:x="3" s:y="5" s:pid="A"/>
    <g s:x="3" s:y="20" s:pid="B"/>
    <g s:x="30" s:y="12.5" s:pid="Y"/>
  </g>
  <g s:type="or" transform="translate(417,469.5)" s:width="30" s:height="25" id="cell_$auto$simplemap.cc:157:simplemap_reduce$133">
    <s:alias val="$or"/>
    <s:alias val="$logic_or"/>
    <s:alias val="$_OR_"/>
    <path d="M0,25 L0,25 L15,25 A15 12.5 0 0 0 15,0 L0,0" class="cell_$auto$simplemap.cc:157:simplemap_reduce$133"/>
    <path d="M0,0 A30 25 0 0 1 0,25" class="cell_$auto$simplemap.cc:157:simplemap_reduce$133"/>
    <g s:x="3" s:y="5" s:pid="A"/>
    <g s:x="3" s:y="20" s:pid="B"/>
    <g s:x="30" s:y="12.5" s:pid="Y"/>
  </g>
  <g s:type="or" transform="translate(417,589.5)" s:width="30" s:height="25" id="cell_$auto$simplemap.cc:157:simplemap_reduce$134">
    <s:alias val="$or"/>
    <s:alias val="$logic_or"/>
    <s:alias val="$_OR_"/>
    <path d="M0,25 L0,25 L15,25 A15 12.5 0 0 0 15,0 L0,0" class="cell_$auto$simplemap.cc:157:simplemap_reduce$134"/>
    <path d="M0,0 A30 25 0 0 1 0,25" class="cell_$auto$simplemap.cc:157:simplemap_reduce$134"/>
    <g s:x="3" s:y="5" s:pid="A"/>
    <g s:x="3" s:y="20" s:pid="B"/>
    <g s:x="30" s:y="12.5" s:pid="Y"/>
  </g>
  <g s:type="or" transform="translate(494,477)" s:width="30" s:height="25" id="cell_$auto$simplemap.cc:157:simplemap_reduce$136">
    <s:alias val="$or"/>
    <s:alias val="$logic_or"/>
    <s:alias val="$_OR_"/>
    <path d="M0,25 L0,25 L15,25 A15 12.5 0 0 0 15,0 L0,0" class="cell_$auto$simplemap.cc:157:simplemap_reduce$136"/>
    <path d="M0,0 A30 25 0 0 1 0,25" class="cell_$auto$simplemap.cc:157:simplemap_reduce$136"/>
    <g s:x="3" s:y="5" s:pid="A"/>
    <g s:x="3" s:y="20" s:pid="B"/>
    <g s:x="30" s:y="12.5" s:pid="Y"/>
  </g>
  <g s:type="or" transform="translate(494,679.5)" s:width="30" s:height="25" id="cell_$auto$simplemap.cc:157:simplemap_reduce$148">
    <s:alias val="$or"/>
    <s:alias val="$logic_or"/>
    <s:alias val="$_OR_"/>
    <path d="M0,25 L0,25 L15,25 A15 12.5 0 0 0 15,0 L0,0" class="cell_$auto$simplemap.cc:157:simplemap_reduce$148"/>
    <path d="M0,0 A30 25 0 0 1 0,25" class="cell_$auto$simplemap.cc:157:simplemap_reduce$148"/>
    <g s:x="3" s:y="5" s:pid="A"/>
    <g s:x="3" s:y="20" s:pid="B"/>
    <g s:x="30" s:y="12.5" s:pid="Y"/>
  </g>
  <g s:type="or" transform="translate(494,799.5)" s:width="30" s:height="25" id="cell_$auto$simplemap.cc:157:simplemap_reduce$149">
    <s:alias val="$or"/>
    <s:alias val="$logic_or"/>
    <s:alias val="$_OR_"/>
    <path d="M0,25 L0,25 L15,25 A15 12.5 0 0 0 15,0 L0,0" class="cell_$auto$simplemap.cc:157:simplemap_reduce$149"/>
    <path d="M0,0 A30 25 0 0 1 0,25" class="cell_$auto$simplemap.cc:157:simplemap_reduce$149"/>
    <g s:x="3" s:y="5" s:pid="A"/>
    <g s:x="3" s:y="20" s:pid="B"/>
    <g s:x="30" s:y="12.5" s:pid="Y"/>
  </g>
  <g s:type="or" transform="translate(559,687)" s:width="30" s:height="25" id="cell_$auto$simplemap.cc:157:simplemap_reduce$151">
    <s:alias val="$or"/>
    <s:alias val="$logic_or"/>
    <s:alias val="$_OR_"/>
    <path d="M0,25 L0,25 L15,25 A15 12.5 0 0 0 15,0 L0,0" class="cell_$auto$simplemap.cc:157:simplemap_reduce$151"/>
    <path d="M0,0 A30 25 0 0 1 0,25" class="cell_$auto$simplemap.cc:157:simplemap_reduce$151"/>
    <g s:x="3" s:y="5" s:pid="A"/>
    <g s:x="3" s:y="20" s:pid="B"/>
    <g s:x="30" s:y="12.5" s:pid="Y"/>
  </g>
  <g s:type="not" transform="translate(420,29.5)" s:width="30" s:height="20" id="cell_$auto$simplemap.cc:227:simplemap_lognot$108">
    <s:alias val="$_NOT_"/>
    <s:alias val="$not"/>
    <s:alias val="$logic_not"/>
    <path d="M0,0 L0,20 L20,10 Z" class="cell_$auto$simplemap.cc:227:simplemap_lognot$108"/>
    <circle cx="23" cy="10" r="3" class="cell_$auto$simplemap.cc:227:simplemap_lognot$108"/>
    <g s:x="0" s:y="10" s:pid="A"/>
    <g s:x="25" s:y="10" s:pid="Y"/>
  </g>
  <g s:type="not" transform="translate(420,269.5)" s:width="30" s:height="20" id="cell_$auto$simplemap.cc:227:simplemap_lognot$123">
    <s:alias val="$_NOT_"/>
    <s:alias val="$not"/>
    <s:alias val="$logic_not"/>
    <path d="M0,0 L0,20 L20,10 Z" class="cell_$auto$simplemap.cc:227:simplemap_lognot$123"/>
    <circle cx="23" cy="10" r="3" class="cell_$auto$simplemap.cc:227:simplemap_lognot$123"/>
    <g s:x="0" s:y="10" s:pid="A"/>
    <g s:x="25" s:y="10" s:pid="Y"/>
  </g>
  <g s:type="not" transform="translate(559,479.5)" s:width="30" s:height="20" id="cell_$auto$simplemap.cc:227:simplemap_lognot$138">
    <s:alias val="$_NOT_"/>
    <s:alias val="$not"/>
    <s:alias val="$logic_not"/>
    <path d="M0,0 L0,20 L20,10 Z" class="cell_$auto$simplemap.cc:227:simplemap_lognot$138"/>
    <circle cx="23" cy="10" r="3" class="cell_$auto$simplemap.cc:227:simplemap_lognot$138"/>
    <g s:x="0" s:y="10" s:pid="A"/>
    <g s:x="25" s:y="10" s:pid="Y"/>
  </g>
  <g s:type="not" transform="translate(624,689.5)" s:width="30" s:height="20" id="cell_$auto$simplemap.cc:227:simplemap_lognot$153">
    <s:alias val="$_NOT_"/>
    <s:alias val="$not"/>
    <s:alias val="$logic_not"/>
    <path d="M0,0 L0,20 L20,10 Z" class="cell_$auto$simplemap.cc:227:simplemap_lognot$153"/>
    <circle cx="23" cy="10" r="3" class="cell_$auto$simplemap.cc:227:simplemap_lognot$153"/>
    <g s:x="0" s:y="10" s:pid="A"/>
    <g s:x="25" s:y="10" s:pid="Y"/>
  </g>
  <g s:type="inputExt" transform="translate(12,377)" s:width="30" s:height="20" id="cell_i_opcode">
    <text x="15" y="-4" class="nodelabel cell_i_opcode" s:attribute="ref">i_opcode</text>
    <s:alias val="$_inputExt_"/>
    <path d="M0,0 L0,20 L15,20 L30,10 L15,0 Z" class="cell_i_opcode"/>
    <g s:x="28" s:y="10" s:pid="Y"/>
  </g>
  <g s:type="inputExt" transform="translate(411,334.5)" s:width="30" s:height="20" id="cell_i_flag_z">
    <text x="15" y="-4" class="nodelabel cell_i_flag_z" s:attribute="ref">i_flag_z</text>
    <s:alias val="$_inputExt_"/>
    <path d="M0,0 L0,20 L15,20 L30,10 L15,0 Z" class="cell_i_flag_z"/>
    <g s:x="28" s:y="10" s:pid="Y"/>
  </g>
  <g s:type="inputExt" transform="translate(328,97)" s:width="30" s:height="20" id="cell_i_flag_n">
    <text x="15" y="-4" class="nodelabel cell_i_flag_n" s:attribute="ref">i_flag_n</text>
    <s:alias val="$_inputExt_"/>
    <path d="M0,0 L0,20 L15,20 L30,10 L15,0 Z" class="cell_i_flag_n"/>
    <g s:x="28" s:y="10" s:pid="Y"/>
  </g>
  <g s:type="inputExt" transform="translate(328,162)" s:width="30" s:height="20" id="cell_i_flag_v">
    <text x="15" y="-4" class="nodelabel cell_i_flag_v" s:attribute="ref">i_flag_v</text>
    <s:alias val="$_inputExt_"/>
    <path d="M0,0 L0,20 L15,20 L30,10 L15,0 Z" class="cell_i_flag_v"/>
    <g s:x="28" s:y="10" s:pid="Y"/>
  </g>
  <g s:type="outputExt" transform="translate(737,62)" s:width="30" s:height="20" id="cell_o_sel">
    <text x="15" y="-4" class="nodelabel cell_o_sel" s:attribute="ref">o_sel</text>
    <s:alias val="$_outputExt_"/>
    <path d="M30,0 L30,20 L15,20 L0,10 L15,0 Z" class="cell_o_sel"/>
    <g s:x="0" s:y="10" s:pid="A"/>
  </g>
  <g s:type="constant" transform="translate(95,532)" s:width="30" s:height="20" id="cell_1">
    <text x="15" y="-4" class="nodelabel cell_1" s:attribute="ref">1</text>
    <s:alias val="$_constant_"/>
    <rect width="30" height="20" class="cell_1"/>
    <g s:x="30" s:y="10" s:pid="Y"/>
  </g>
  <g s:type="constant" transform="translate(95,82)" s:width="30" s:height="20" id="cell_0">
    <text x="15" y="-4" class="nodelabel cell_0" s:attribute="ref">0</text>
    <s:alias val="$_constant_"/>
    <rect width="30" height="20" class="cell_0"/>
    <g s:x="30" s:y="10" s:pid="Y"/>
  </g>
  <g s:type="join" transform="translate(696,51.5)" s:width="4" s:height="40" id="cell_$join$,9,10,">
    <rect width="5" height="40" class="splitjoinBody" s:generic="body"/>
    <s:alias val="$_join_"/>
    <g s:x="5" s:y="20" s:pid="out"/>
    <g transform="translate(0,10)" s:x="0" s:y="10" s:pid="in0">
      <text x="-3" y="-4" class="inputPortLabel">0</text>
    </g>
    <g transform="translate(0,30)" s:x="0" s:y="10" s:pid="in0">
      <text x="-3" y="-4" class="inputPortLabel">1</text>
    </g>
  </g>
  <g s:type="split" transform="translate(110.8,366.5)" s:width="5" s:height="40" id="cell_$split$,2,3,4,5,">
    <rect width="5" height="80" class="splitjoinBody" s:generic="body"/>
    <s:alias val="$_split_"/>
    <g s:x="0" s:y="20" s:pid="in"/>
    <g transform="translate(4,10)" s:x="4" s:y="10" s:pid="out0">
      <text x="5" y="-4">0</text>
    </g>
    <g transform="translate(4,30)" s:x="4" s:y="10" s:pid="out0">
      <text x="5" y="-4">1</text>
    </g>
    <g transform="translate(4,50)" s:x="4" s:y="10" s:pid="out0">
      <text x="5" y="-4">2</text>
    </g>
    <g transform="translate(4,70)" s:x="4" s:y="10" s:pid="out0">
      <text x="5" y="-4">3</text>
    </g>
  </g>
  <line x1="115.8" x2="135" y1="377" y2="377" class="net_2"/>
  <line x1="135" x2="135" y1="377" y2="257" class="net_2"/>
  <circle cx="135" cy="377" r="2" style="fill:#000" class="net_2"/>
  <circle cx="135" cy="257" r="2" style="fill:#000" class="net_2"/>
  <line x1="135" x2="198" y1="257" y2="257" class="net_2"/>
  <line x1="115.8" x2="135" y1="377" y2="377" class="net_2"/>
  <line x1="135" x2="135" y1="377" y2="467" class="net_2"/>
  <circle cx="135" cy="467" r="2" style="fill:#000" class="net_2"/>
  <line x1="135" x2="336" y1="467" y2="467" class="net_2"/>
  <line x1="115.8" x2="135" y1="377" y2="377" class="net_2"/>
  <line x1="135" x2="135" y1="377" y2="677" class="net_2"/>
  <line x1="135" x2="419" y1="677" y2="677" class="net_2"/>
  <line x1="115.8" x2="135" y1="377" y2="377" class="net_2"/>
  <line x1="135" x2="135" y1="377" y2="17" class="net_2"/>
  <line x1="135" x2="198" y1="17" y2="17" class="net_2"/>
  <line x1="125" x2="185" y1="542" y2="542" class="net_46"/>
  <line x1="185" x2="185" y1="542" y2="272" class="net_46"/>
  <circle cx="185" cy="542" r="2" style="fill:#000" class="net_46"/>
  <circle cx="185" cy="272" r="2" style="fill:#000" class="net_46"/>
  <line x1="185" x2="198" y1="272" y2="272" class="net_46"/>
  <line x1="125" x2="185" y1="542" y2="542" class="net_46"/>
  <line x1="185" x2="185" y1="542" y2="392" class="net_46"/>
  <circle cx="185" cy="392" r="2" style="fill:#000" class="net_46"/>
  <line x1="185" x2="198" y1="392" y2="392" class="net_46"/>
  <line x1="125" x2="185" y1="542" y2="542" class="net_46"/>
  <line x1="185" x2="185" y1="542" y2="452" class="net_46"/>
  <circle cx="185" cy="452" r="2" style="fill:#000" class="net_46"/>
  <line x1="185" x2="198" y1="452" y2="452" class="net_46"/>
  <line x1="125" x2="336" y1="542" y2="542" class="net_46"/>
  <line x1="125" x2="185" y1="542" y2="542" class="net_46"/>
  <line x1="185" x2="185" y1="542" y2="602" class="net_46"/>
  <circle cx="185" cy="602" r="2" style="fill:#000" class="net_46"/>
  <line x1="185" x2="336" y1="602" y2="602" class="net_46"/>
  <line x1="125" x2="185" y1="542" y2="542" class="net_46"/>
  <line x1="185" x2="185" y1="542" y2="662" class="net_46"/>
  <circle cx="185" cy="662" r="2" style="fill:#000" class="net_46"/>
  <line x1="185" x2="336" y1="662" y2="662" class="net_46"/>
  <line x1="125" x2="185" y1="542" y2="542" class="net_46"/>
  <line x1="185" x2="185" y1="542" y2="692" class="net_46"/>
  <circle cx="185" cy="692" r="2" style="fill:#000" class="net_46"/>
  <line x1="185" x2="419" y1="692" y2="692" class="net_46"/>
  <line x1="125" x2="185" y1="542" y2="542" class="net_46"/>
  <line x1="185" x2="185" y1="542" y2="752" class="net_46"/>
  <circle cx="185" cy="752" r="2" style="fill:#000" class="net_46"/>
  <line x1="185" x2="419" y1="752" y2="752" class="net_46"/>
  <line x1="125" x2="185" y1="542" y2="542" class="net_46"/>
  <line x1="185" x2="185" y1="542" y2="812" class="net_46"/>
  <circle cx="185" cy="812" r="2" style="fill:#000" class="net_46"/>
  <line x1="185" x2="419" y1="812" y2="812" class="net_46"/>
  <line x1="125" x2="185" y1="542" y2="542" class="net_46"/>
  <line x1="185" x2="185" y1="542" y2="872" class="net_46"/>
  <line x1="185" x2="419" y1="872" y2="872" class="net_46"/>
  <line x1="125" x2="185" y1="542" y2="542" class="net_46"/>
  <line x1="185" x2="185" y1="542" y2="152" class="net_46"/>
  <line x1="185" x2="198" y1="152" y2="152" class="net_46"/>
  <line x1="125" x2="185" y1="542" y2="542" class="net_46"/>
  <line x1="185" x2="185" y1="542" y2="212" class="net_46"/>
  <circle cx="185" cy="212" r="2" style="fill:#000" class="net_46"/>
  <line x1="185" x2="198" y1="212" y2="212" class="net_46"/>
  <line x1="115.8" x2="145" y1="397" y2="397" class="net_3"/>
  <line x1="145" x2="145" y1="397" y2="317" class="net_3"/>
  <circle cx="145" cy="397" r="2" style="fill:#000" class="net_3"/>
  <circle cx="145" cy="317" r="2" style="fill:#000" class="net_3"/>
  <line x1="145" x2="198" y1="317" y2="317" class="net_3"/>
  <line x1="115.8" x2="145" y1="397" y2="397" class="net_3"/>
  <line x1="145" x2="145" y1="397" y2="527" class="net_3"/>
  <circle cx="145" cy="527" r="2" style="fill:#000" class="net_3"/>
  <line x1="145" x2="336" y1="527" y2="527" class="net_3"/>
  <line x1="115.8" x2="145" y1="397" y2="397" class="net_3"/>
  <line x1="145" x2="145" y1="397" y2="737" class="net_3"/>
  <line x1="145" x2="419" y1="737" y2="737" class="net_3"/>
  <line x1="115.8" x2="145" y1="397" y2="397" class="net_3"/>
  <line x1="145" x2="145" y1="397" y2="77" class="net_3"/>
  <line x1="145" x2="198" y1="77" y2="77" class="net_3"/>
  <line x1="125" x2="175" y1="92" y2="92" class="net_47"/>
  <line x1="175" x2="175" y1="92" y2="332" class="net_47"/>
  <circle cx="175" cy="92" r="2" style="fill:#000" class="net_47"/>
  <circle cx="175" cy="332" r="2" style="fill:#000" class="net_47"/>
  <line x1="175" x2="198" y1="332" y2="332" class="net_47"/>
  <line x1="125" x2="175" y1="92" y2="92" class="net_47"/>
  <line x1="175" x2="175" y1="92" y2="482" class="net_47"/>
  <line x1="175" x2="336" y1="482" y2="482" class="net_47"/>
  <line x1="125" x2="175" y1="92" y2="92" class="net_47"/>
  <line x1="175" x2="175" y1="92" y2="32" class="net_47"/>
  <line x1="175" x2="198" y1="32" y2="32" class="net_47"/>
  <line x1="125" x2="198" y1="92" y2="92" class="net_47"/>
  <line x1="115.8" x2="165" y1="417" y2="417" class="net_4"/>
  <line x1="165" x2="165" y1="417" y2="377" class="net_4"/>
  <circle cx="165" cy="417" r="2" style="fill:#000" class="net_4"/>
  <circle cx="165" cy="377" r="2" style="fill:#000" class="net_4"/>
  <line x1="165" x2="198" y1="377" y2="377" class="net_4"/>
  <line x1="115.8" x2="165" y1="417" y2="417" class="net_4"/>
  <line x1="165" x2="165" y1="417" y2="587" class="net_4"/>
  <circle cx="165" cy="587" r="2" style="fill:#000" class="net_4"/>
  <line x1="165" x2="336" y1="587" y2="587" class="net_4"/>
  <line x1="115.8" x2="165" y1="417" y2="417" class="net_4"/>
  <line x1="165" x2="165" y1="417" y2="797" class="net_4"/>
  <line x1="165" x2="419" y1="797" y2="797" class="net_4"/>
  <line x1="115.8" x2="165" y1="417" y2="417" class="net_4"/>
  <line x1="165" x2="165" y1="417" y2="137" class="net_4"/>
  <line x1="165" x2="198" y1="137" y2="137" class="net_4"/>
  <line x1="115.8" x2="198" y1="437" y2="437" class="net_5"/>
  <line x1="115.8" x2="155" y1="437" y2="437" class="net_5"/>
  <line x1="155" x2="155" y1="437" y2="647" class="net_5"/>
  <circle cx="155" cy="437" r="2" style="fill:#000" class="net_5"/>
  <circle cx="155" cy="647" r="2" style="fill:#000" class="net_5"/>
  <line x1="155" x2="336" y1="647" y2="647" class="net_5"/>
  <line x1="115.8" x2="155" y1="437" y2="437" class="net_5"/>
  <line x1="155" x2="155" y1="437" y2="857" class="net_5"/>
  <line x1="155" x2="419" y1="857" y2="857" class="net_5"/>
  <line x1="115.8" x2="155" y1="437" y2="437" class="net_5"/>
  <line x1="155" x2="155" y1="437" y2="197" class="net_5"/>
  <line x1="155" x2="198" y1="197" y2="197" class="net_5"/>
  <line x1="356" x2="419" y1="107" y2="107" class="net_7"/>
  <line x1="356" x2="386" y1="172" y2="172" class="net_8"/>
  <line x1="386" x2="386" y1="172" y2="122" class="net_8"/>
  <line x1="386" x2="419" y1="122" y2="122" class="net_8"/>
  <line x1="445" x2="494" y1="39.5" y2="39.5" class="net_24"/>
  <line x1="449" x2="469" y1="114.5" y2="114.5" class="net_23"/>
  <line x1="469" x2="469" y1="114.5" y2="54.5" class="net_23"/>
  <line x1="469" x2="494" y1="54.5" y2="54.5" class="net_23"/>
  <line x1="445" x2="494" y1="279.5" y2="279.5" class="net_26"/>
  <line x1="439" x2="469" y1="344.5" y2="344.5" class="net_6"/>
  <line x1="469" x2="469" y1="344.5" y2="294.5" class="net_6"/>
  <line x1="469" x2="494" y1="294.5" y2="294.5" class="net_6"/>
  <line x1="524" x2="562" y1="47" y2="47" class="net_25"/>
  <line x1="524" x2="534" y1="287" y2="287" class="net_27"/>
  <line x1="534" x2="534" y1="287" y2="62" class="net_27"/>
  <line x1="534" x2="562" y1="62" y2="62" class="net_27"/>
  <line x1="589" x2="627" y1="54.5" y2="54.5" class="net_28"/>
  <line x1="584" x2="599" y1="489.5" y2="489.5" class="net_29"/>
  <line x1="599" x2="599" y1="489.5" y2="69.5" class="net_29"/>
  <line x1="599" x2="627" y1="69.5" y2="69.5" class="net_29"/>
  <line x1="228" x2="266" y1="24.5" y2="24.5" class="net_30"/>
  <line x1="228" x2="238" y1="84.5" y2="84.5" class="net_31"/>
  <line x1="238" x2="238" y1="84.5" y2="39.5" class="net_31"/>
  <line x1="238" x2="266" y1="39.5" y2="39.5" class="net_31"/>
  <line x1="228" x2="266" y1="144.5" y2="144.5" class="net_32"/>
  <line x1="228" x2="238" y1="204.5" y2="204.5" class="net_33"/>
  <line x1="238" x2="238" y1="204.5" y2="159.5" class="net_33"/>
  <line x1="238" x2="266" y1="159.5" y2="159.5" class="net_33"/>
  <line x1="293" x2="337" y1="32" y2="32" class="net_34"/>
  <line x1="293" x2="303" y1="152" y2="152" class="net_35"/>
  <line x1="303" x2="303" y1="152" y2="47" class="net_35"/>
  <line x1="303" x2="337" y1="47" y2="47" class="net_35"/>
  <line x1="228" x2="266" y1="264.5" y2="264.5" class="net_11"/>
  <line x1="228" x2="238" y1="324.5" y2="324.5" class="net_12"/>
  <line x1="238" x2="238" y1="324.5" y2="279.5" class="net_12"/>
  <line x1="238" x2="266" y1="279.5" y2="279.5" class="net_12"/>
  <line x1="228" x2="266" y1="384.5" y2="384.5" class="net_13"/>
  <line x1="228" x2="238" y1="444.5" y2="444.5" class="net_14"/>
  <line x1="238" x2="238" y1="444.5" y2="399.5" class="net_14"/>
  <line x1="238" x2="266" y1="399.5" y2="399.5" class="net_14"/>
  <line x1="293" x2="337" y1="272" y2="272" class="net_37"/>
  <line x1="293" x2="303" y1="392" y2="392" class="net_38"/>
  <line x1="303" x2="303" y1="392" y2="287" class="net_38"/>
  <line x1="303" x2="337" y1="287" y2="287" class="net_38"/>
  <line x1="366" x2="420" y1="474.5" y2="474.5" class="net_15"/>
  <line x1="366" x2="386" y1="534.5" y2="534.5" class="net_16"/>
  <line x1="386" x2="386" y1="534.5" y2="489.5" class="net_16"/>
  <line x1="386" x2="420" y1="489.5" y2="489.5" class="net_16"/>
  <line x1="366" x2="420" y1="594.5" y2="594.5" class="net_17"/>
  <line x1="366" x2="386" y1="654.5" y2="654.5" class="net_18"/>
  <line x1="386" x2="386" y1="654.5" y2="609.5" class="net_18"/>
  <line x1="386" x2="420" y1="609.5" y2="609.5" class="net_18"/>
  <line x1="447" x2="497" y1="482" y2="482" class="net_40"/>
  <line x1="447" x2="469" y1="602" y2="602" class="net_41"/>
  <line x1="469" x2="469" y1="602" y2="497" class="net_41"/>
  <line x1="469" x2="497" y1="497" y2="497" class="net_41"/>
  <line x1="449" x2="497" y1="684.5" y2="684.5" class="net_19"/>
  <line x1="449" x2="469" y1="744.5" y2="744.5" class="net_20"/>
  <line x1="469" x2="469" y1="744.5" y2="699.5" class="net_20"/>
  <line x1="469" x2="497" y1="699.5" y2="699.5" class="net_20"/>
  <line x1="449" x2="497" y1="804.5" y2="804.5" class="net_21"/>
  <line x1="449" x2="469" y1="864.5" y2="864.5" class="net_22"/>
  <line x1="469" x2="469" y1="864.5" y2="819.5" class="net_22"/>
  <line x1="469" x2="497" y1="819.5" y2="819.5" class="net_22"/>
  <line x1="524" x2="562" y1="692" y2="692" class="net_43"/>
  <line x1="524" x2="534" y1="812" y2="812" class="net_44"/>
  <line x1="534" x2="534" y1="812" y2="707" class="net_44"/>
  <line x1="534" x2="562" y1="707" y2="707" class="net_44"/>
  <line x1="364" x2="420" y1="39.5" y2="39.5" class="net_36"/>
  <line x1="364" x2="420" y1="279.5" y2="279.5" class="net_39"/>
  <line x1="524" x2="559" y1="489.5" y2="489.5" class="net_42"/>
  <line x1="589" x2="624" y1="699.5" y2="699.5" class="net_45"/>
  <line x1="702" x2="737" y1="72" y2="72" class="net_9,10"/>
  <line x1="654" x2="696" y1="62" y2="62" class="net_9"/>
  <line x1="649" x2="664" y1="699.5" y2="699.5" class="net_10"/>
  <line x1="664" x2="664" y1="699.5" y2="82" class="net_10"/>
  <line x1="664" x2="696" y1="82" y2="82" class="net_10"/>
  <line x1="40" x2="110.8" y1="387" y2="387" class="net_2,3,4,5"/>
</svg>
