<svg xmlns="http://www.w3.org/2000/svg" xmlns:xlink="http://www.w3.org/1999/xlink" xmlns:s="https://github.com/nturley/netlistsvg" width="3358" height="678.5">
  <style>svg {
    stroke:#000;
    fill:none;
  }
  text {
    fill:#000;
    stroke:none;
    font-size:10px;
    font-weight: bold;
    font-family: "Courier New", monospace;
  }
  .nodelabel {
    text-anchor: middle;
  }
  .inputPortLabel {
    text-anchor: end;
  }
  .splitjoinBody {
    fill:#000;
  }</style>
  <g s:type="or" transform="translate(433.66666666666663,132.5)" s:width="30" s:height="25" id="cell_$auto$simplemap.cc:106:simplemap_bitop$110">
    <s:alias val="$or"/>
    <s:alias val="$logic_or"/>
    <s:alias val="$_OR_"/>
    <path d="M0,25 L0,25 L15,25 A15 12.5 0 0 0 15,0 L0,0" class="cell_$auto$simplemap.cc:106:simplemap_bitop$110"/>
    <path d="M0,0 A30 25 0 0 1 0,25" class="cell_$auto$simplemap.cc:106:simplemap_bitop$110"/>
    <g s:x="3" s:y="5" s:pid="A"/>
    <g s:x="3" s:y="20" s:pid="B"/>
    <g s:x="30" s:y="12.5" s:pid="Y"/>
  </g>
  <g s:type="or" transform="translate(691.6666666666666,140)" s:width="30" s:height="25" id="cell_$auto$simplemap.cc:106:simplemap_bitop$111">
    <s:alias val="$or"/>
    <s:alias val="$logic_or"/>
    <s:alias val="$_OR_"/>
    <path d="M0,25 L0,25 L15,25 A15 12.5 0 0 0 15,0 L0,0" class="cell_$auto$simplemap.cc:106:simplemap_bitop$111"/>
    <path d="M0,0 A30 25 0 0 1 0,25" class="cell_$auto$simplemap.cc:106:simplemap_bitop$111"/>
    <g s:x="3" s:y="5" s:pid="A"/>
    <g s:x="3" s:y="20" s:pid="B"/>
    <g s:x="30" s:y="12.5" s:pid="Y"/>
  </g>
  <g s:type="or" transform="translate(949.6666666666666,147.5)" s:width="30" s:height="25" id="cell_$auto$simplemap.cc:106:simplemap_bitop$112">
    <s:alias val="$or"/>
    <s:alias val="$logic_or"/>
    <s:alias val="$_OR_"/>
    <path d="M0,25 L0,25 L15,25 A15 12.5 0 0 0 15,0 L0,0" class="cell_$auto$simplemap.cc:106:simplemap_bitop$112"/>
    <path d="M0,0 A30 25 0 0 1 0,25" class="cell_$auto$simplemap.cc:106:simplemap_bitop$112"/>
    <g s:x="3" s:y="5" s:pid="A"/>
    <g s:x="3" s:y="20" s:pid="B"/>
    <g s:x="30" s:y="12.5" s:pid="Y"/>
  </g>
  <g s:type="or" transform="translate(1207.6666666666667,155)" s:width="30" s:height="25" id="cell_$auto$simplemap.cc:106:simplemap_bitop$113">
    <s:alias val="$or"/>
    <s:alias val="$logic_or"/>
    <s:alias val="$_OR_"/>
    <path d="M0,25 L0,25 L15,25 A15 12.5 0 0 0 15,0 L0,0" class="cell_$auto$simplemap.cc:106:simplemap_bitop$113"/>
    <path d="M0,0 A30 25 0 0 1 0,25" class="cell_$auto$simplemap.cc:106:simplemap_bitop$113"/>
    <g s:x="3" s:y="5" s:pid="A"/>
    <g s:x="3" s:y="20" s:pid="B"/>
    <g s:x="30" s:y="12.5" s:pid="Y"/>
  </g>
  <g s:type="or" transform="translate(1465.6666666666667,162.5)" s:width="30" s:height="25" id="cell_$auto$simplemap.cc:106:simplemap_bitop$114">
    <s:alias val="$or"/>
    <s:alias val="$logic_or"/>
    <s:alias val="$_OR_"/>
    <path d="M0,25 L0,25 L15,25 A15 12.5 0 0 0 15,0 L0,0" class="cell_$auto$simplemap.cc:106:simplemap_bitop$114"/>
    <path d="M0,0 A30 25 0 0 1 0,25" class="cell_$auto$simplemap.cc:106:simplemap_bitop$114"/>
    <g s:x="3" s:y="5" s:pid="A"/>
    <g s:x="3" s:y="20" s:pid="B"/>
    <g s:x="30" s:y="12.5" s:pid="Y"/>
  </g>
  <g s:type="or" transform="translate(1723.6666666666667,170)" s:width="30" s:height="25" id="cell_$auto$simplemap.cc:106:simplemap_bitop$115">
    <s:alias val="$or"/>
    <s:alias val="$logic_or"/>
    <s:alias val="$_OR_"/>
    <path d="M0,25 L0,25 L15,25 A15 12.5 0 0 0 15,0 L0,0" class="cell_$auto$simplemap.cc:106:simplemap_bitop$115"/>
    <path d="M0,0 A30 25 0 0 1 0,25" class="cell_$auto$simplemap.cc:106:simplemap_bitop$115"/>
    <g s:x="3" s:y="5" s:pid="A"/>
    <g s:x="3" s:y="20" s:pid="B"/>
    <g s:x="30" s:y="12.5" s:pid="Y"/>
  </g>
  <g s:type="or" transform="translate(1981.6666666666667,177.5)" s:width="30" s:height="25" id="cell_$auto$simplemap.cc:106:simplemap_bitop$116">
    <s:alias val="$or"/>
    <s:alias val="$logic_or"/>
    <s:alias val="$_OR_"/>
    <path d="M0,25 L0,25 L15,25 A15 12.5 0 0 0 15,0 L0,0" class="cell_$auto$simplemap.cc:106:simplemap_bitop$116"/>
    <path d="M0,0 A30 25 0 0 1 0,25" class="cell_$auto$simplemap.cc:106:simplemap_bitop$116"/>
    <g s:x="3" s:y="5" s:pid="A"/>
    <g s:x="3" s:y="20" s:pid="B"/>
    <g s:x="30" s:y="12.5" s:pid="Y"/>
  </g>
  <g s:type="or" transform="translate(2239.6666666666665,185)" s:width="30" s:height="25" id="cell_$auto$simplemap.cc:106:simplemap_bitop$117">
    <s:alias val="$or"/>
    <s:alias val="$logic_or"/>
    <s:alias val="$_OR_"/>
    <path d="M0,25 L0,25 L15,25 A15 12.5 0 0 0 15,0 L0,0" class="cell_$auto$simplemap.cc:106:simplemap_bitop$117"/>
    <path d="M0,0 A30 25 0 0 1 0,25" class="cell_$auto$simplemap.cc:106:simplemap_bitop$117"/>
    <g s:x="3" s:y="5" s:pid="A"/>
    <g s:x="3" s:y="20" s:pid="B"/>
    <g s:x="30" s:y="12.5" s:pid="Y"/>
  </g>
  <g s:type="or" transform="translate(2499.6666666666665,192.5)" s:width="30" s:height="25" id="cell_$auto$simplemap.cc:106:simplemap_bitop$118">
    <s:alias val="$or"/>
    <s:alias val="$logic_or"/>
    <s:alias val="$_OR_"/>
    <path d="M0,25 L0,25 L15,25 A15 12.5 0 0 0 15,0 L0,0" class="cell_$auto$simplemap.cc:106:simplemap_bitop$118"/>
    <path d="M0,0 A30 25 0 0 1 0,25" class="cell_$auto$simplemap.cc:106:simplemap_bitop$118"/>
    <g s:x="3" s:y="5" s:pid="A"/>
    <g s:x="3" s:y="20" s:pid="B"/>
    <g s:x="30" s:y="12.5" s:pid="Y"/>
  </g>
  <g s:type="or" transform="translate(2763.6666666666665,200)" s:width="30" s:height="25" id="cell_$auto$simplemap.cc:106:simplemap_bitop$119">
    <s:alias val="$or"/>
    <s:alias val="$logic_or"/>
    <s:alias val="$_OR_"/>
    <path d="M0,25 L0,25 L15,25 A15 12.5 0 0 0 15,0 L0,0" class="cell_$auto$simplemap.cc:106:simplemap_bitop$119"/>
    <path d="M0,0 A30 25 0 0 1 0,25" class="cell_$auto$simplemap.cc:106:simplemap_bitop$119"/>
    <g s:x="3" s:y="5" s:pid="A"/>
    <g s:x="3" s:y="20" s:pid="B"/>
    <g s:x="30" s:y="12.5" s:pid="Y"/>
  </g>
  <g s:type="or" transform="translate(3027.6666666666665,207.5)" s:width="30" s:height="25" id="cell_$auto$simplemap.cc:106:simplemap_bitop$120">
    <s:alias val="$or"/>
    <s:alias val="$logic_or"/>
    <s:alias val="$_OR_"/>
    <path d="M0,25 L0,25 L15,25 A15 12.5 0 0 0 15,0 L0,0" class="cell_$auto$simplemap.cc:106:simplemap_bitop$120"/>
    <path d="M0,0 A30 25 0 0 1 0,25" class="cell_$auto$simplemap.cc:106:simplemap_bitop$120"/>
    <g s:x="3" s:y="5" s:pid="A"/>
    <g s:x="3" s:y="20" s:pid="B"/>
    <g s:x="30" s:y="12.5" s:pid="Y"/>
  </g>
  <g s:type="or" transform="translate(3209,215)" s:width="30" s:height="25" id="cell_$auto$simplemap.cc:106:simplemap_bitop$121">
    <s:alias val="$or"/>
    <s:alias val="$logic_or"/>
    <s:alias val="$_OR_"/>
    <path d="M0,25 L0,25 L15,25 A15 12.5 0 0 0 15,0 L0,0" class="cell_$auto$simplemap.cc:106:simplemap_bitop$121"/>
    <path d="M0,0 A30 25 0 0 1 0,25" class="cell_$auto$simplemap.cc:106:simplemap_bitop$121"/>
    <g s:x="3" s:y="5" s:pid="A"/>
    <g s:x="3" s:y="20" s:pid="B"/>
    <g s:x="30" s:y="12.5" s:pid="Y"/>
  </g>
  <g s:type="or" transform="translate(2763.6666666666665,348)" s:width="30" s:height="25" id="cell_$auto$simplemap.cc:106:simplemap_bitop$122">
    <s:alias val="$or"/>
    <s:alias val="$logic_or"/>
    <s:alias val="$_OR_"/>
    <path d="M0,25 L0,25 L15,25 A15 12.5 0 0 0 15,0 L0,0" class="cell_$auto$simplemap.cc:106:simplemap_bitop$122"/>
    <path d="M0,0 A30 25 0 0 1 0,25" class="cell_$auto$simplemap.cc:106:simplemap_bitop$122"/>
    <g s:x="3" s:y="5" s:pid="A"/>
    <g s:x="3" s:y="20" s:pid="B"/>
    <g s:x="30" s:y="12.5" s:pid="Y"/>
  </g>
  <g s:type="or" transform="translate(3027.6666666666665,355.5)" s:width="30" s:height="25" id="cell_$auto$simplemap.cc:106:simplemap_bitop$123">
    <s:alias val="$or"/>
    <s:alias val="$logic_or"/>
    <s:alias val="$_OR_"/>
    <path d="M0,25 L0,25 L15,25 A15 12.5 0 0 0 15,0 L0,0" class="cell_$auto$simplemap.cc:106:simplemap_bitop$123"/>
    <path d="M0,0 A30 25 0 0 1 0,25" class="cell_$auto$simplemap.cc:106:simplemap_bitop$123"/>
    <g s:x="3" s:y="5" s:pid="A"/>
    <g s:x="3" s:y="20" s:pid="B"/>
    <g s:x="30" s:y="12.5" s:pid="Y"/>
  </g>
  <g s:type="or" transform="translate(3209,363)" s:width="30" s:height="25" id="cell_$auto$simplemap.cc:106:simplemap_bitop$124">
    <s:alias val="$or"/>
    <s:alias val="$logic_or"/>
    <s:alias val="$_OR_"/>
    <path d="M0,25 L0,25 L15,25 A15 12.5 0 0 0 15,0 L0,0" class="cell_$auto$simplemap.cc:106:simplemap_bitop$124"/>
    <path d="M0,0 A30 25 0 0 1 0,25" class="cell_$auto$simplemap.cc:106:simplemap_bitop$124"/>
    <g s:x="3" s:y="5" s:pid="A"/>
    <g s:x="3" s:y="20" s:pid="B"/>
    <g s:x="30" s:y="12.5" s:pid="Y"/>
  </g>
  <g s:type="or" transform="translate(3209,85)" s:width="30" s:height="25" id="cell_$auto$simplemap.cc:106:simplemap_bitop$125">
    <s:alias val="$or"/>
    <s:alias val="$logic_or"/>
    <s:alias val="$_OR_"/>
    <path d="M0,25 L0,25 L15,25 A15 12.5 0 0 0 15,0 L0,0" class="cell_$auto$simplemap.cc:106:simplemap_bitop$125"/>
    <path d="M0,0 A30 25 0 0 1 0,25" class="cell_$auto$simplemap.cc:106:simplemap_bitop$125"/>
    <g s:x="3" s:y="5" s:pid="A"/>
    <g s:x="3" s:y="20" s:pid="B"/>
    <g s:x="30" s:y="12.5" s:pid="Y"/>
  </g>
  <g s:type="or" transform="translate(3209,431)" s:width="30" s:height="25" id="cell_$auto$simplemap.cc:106:simplemap_bitop$126">
    <s:alias val="$or"/>
    <s:alias val="$logic_or"/>
    <s:alias val="$_OR_"/>
    <path d="M0,25 L0,25 L15,25 A15 12.5 0 0 0 15,0 L0,0" class="cell_$auto$simplemap.cc:106:simplemap_bitop$126"/>
    <path d="M0,0 A30 25 0 0 1 0,25" class="cell_$auto$simplemap.cc:106:simplemap_bitop$126"/>
    <g s:x="3" s:y="5" s:pid="A"/>
    <g s:x="3" s:y="20" s:pid="B"/>
    <g s:x="30" s:y="12.5" s:pid="Y"/>
  </g>
  <g s:type="generic" transform="translate(144,127)" s:width="30" s:height="40" id="cell_gen_opcode_matches[0].u_match">
    <text x="15" y="-4" class="nodelabel cell_gen_opcode_matches[0].u_match" s:attribute="ref">$paramod\control_unit_opcode_match\TARGET_OPCODE=4'0000</text>
    <rect width="30" height="20" s:generic="body" class="cell_gen_opcode_matches[0].u_match"/>
    <g transform="translate(0,10)" s:x="0" s:y="10" s:pid="in0" id="port_gen_opcode_matches[0].u_match~i_opcode">
      <text x="-3" y="-4" class="inputPortLabel cell_gen_opcode_matches[0].u_match">i_opcode</text>
    </g>
    <g transform="translate(30,10)" s:x="30" s:y="10" s:pid="out0" id="port_gen_opcode_matches[0].u_match~o_match">
      <text x="5" y="-4" style="fill:#000; stroke:none" class="cell_gen_opcode_matches[0].u_match">o_match</text>
    </g>
  </g>
  <g s:type="generic" transform="translate(2466,374)" s:width="30" s:height="40" id="cell_gen_opcode_matches[10].u_match">
    <text x="15" y="-4" class="nodelabel cell_gen_opcode_matches[10].u_match" s:attribute="ref">$paramod\control_unit_opcode_match\TARGET_OPCODE=4'1010</text>
    <rect width="30" height="20" s:generic="body" class="cell_gen_opcode_matches[10].u_match"/>
    <g transform="translate(0,10)" s:x="0" s:y="10" s:pid="in0" id="port_gen_opcode_matches[10].u_match~i_opcode">
      <text x="-3" y="-4" class="inputPortLabel cell_gen_opcode_matches[10].u_match">i_opcode</text>
    </g>
    <g transform="translate(30,10)" s:x="30" s:y="10" s:pid="out0" id="port_gen_opcode_matches[10].u_match~o_match">
      <text x="5" y="-4" style="fill:#000; stroke:none" class="cell_gen_opcode_matches[10].u_match">o_match</text>
    </g>
  </g>
  <g s:type="generic" transform="translate(2730,457)" s:width="30" s:height="40" id="cell_gen_opcode_matches[11].u_match">
    <text x="15" y="-4" class="nodelabel cell_gen_opcode_matches[11].u_match" s:attribute="ref">$paramod\control_unit_opcode_match\TARGET_OPCODE=4'1011</text>
    <rect width="30" height="20" s:generic="body" class="cell_gen_opcode_matches[11].u_match"/>
    <g transform="translate(0,10)" s:x="0" s:y="10" s:pid="in0" id="port_gen_opcode_matches[11].u_match~i_opcode">
      <text x="-3" y="-4" class="inputPortLabel cell_gen_opcode_matches[11].u_match">i_opcode</text>
    </g>
    <g transform="translate(30,10)" s:x="30" s:y="10" s:pid="out0" id="port_gen_opcode_matches[11].u_match~o_match">
      <text x="5" y="-4" style="fill:#000; stroke:none" class="cell_gen_opcode_matches[11].u_match">o_match</text>
    </g>
  </g>
  <g s:type="generic" transform="translate(2994,425.5)" s:width="30" s:height="40" id="cell_gen_opcode_matches[12].u_match">
    <text x="15" y="-4" class="nodelabel cell_gen_opcode_matches[12].u_match" s:attribute="ref">$paramod\control_unit_opcode_match\TARGET_OPCODE=4'1100</text>
    <rect width="30" height="20" s:generic="body" class="cell_gen_opcode_matches[12].u_match"/>
    <g transform="translate(0,10)" s:x="0" s:y="10" s:pid="in0" id="port_gen_opcode_matches[12].u_match~i_opcode">
      <text x="-3" y="-4" class="inputPortLabel cell_gen_opcode_matches[12].u_match">i_opcode</text>
    </g>
    <g transform="translate(30,10)" s:x="30" s:y="10" s:pid="out0" id="port_gen_opcode_matches[12].u_match~o_match">
      <text x="5" y="-4" style="fill:#000; stroke:none" class="cell_gen_opcode_matches[12].u_match">o_match</text>
    </g>
  </g>
  <g s:type="generic" transform="translate(2994,493.5)" s:width="30" s:height="40" id="cell_gen_opcode_matches[13].u_match">
    <text x="15" y="-4" class="nodelabel cell_gen_opcode_matches[13].u_match" s:attribute="ref">$paramod\control_unit_opcode_match\TARGET_OPCODE=4'1101</text>
    <rect width="30" height="20" s:generic="body" class="cell_gen_opcode_matches[13].u_match"/>
    <g transform="translate(0,10)" s:x="0" s:y="10" s:pid="in0" id="port_gen_opcode_matches[13].u_match~i_opcode">
      <text x="-3" y="-4" class="inputPortLabel cell_gen_opcode_matches[13].u_match">i_opcode</text>
    </g>
    <g transform="translate(30,10)" s:x="30" s:y="10" s:pid="out0" id="port_gen_opcode_matches[13].u_match~o_match">
      <text x="5" y="-4" style="fill:#000; stroke:none" class="cell_gen_opcode_matches[13].u_match">o_match</text>
    </g>
  </g>
  <g s:type="generic" transform="translate(2730,22)" s:width="30" s:height="40" id="cell_gen_opcode_matches[14].u_match">
    <text x="15" y="-4" class="nodelabel cell_gen_opcode_matches[14].u_match" s:attribute="ref">$paramod\control_unit_opcode_match\TARGET_OPCODE=4'1110</text>
    <rect width="30" height="20" s:generic="body" class="cell_gen_opcode_matches[14].u_match"/>
    <g transform="translate(0,10)" s:x="0" s:y="10" s:pid="in0" id="port_gen_opcode_matches[14].u_match~i_opcode">
      <text x="-3" y="-4" class="inputPortLabel cell_gen_opcode_matches[14].u_match">i_opcode</text>
    </g>
    <g transform="translate(30,10)" s:x="30" s:y="10" s:pid="out0" id="port_gen_opcode_matches[14].u_match~o_match">
      <text x="5" y="-4" style="fill:#000; stroke:none" class="cell_gen_opcode_matches[14].u_match">o_match</text>
    </g>
  </g>
  <g s:type="generic" transform="translate(2994,277.5)" s:width="30" s:height="40" id="cell_gen_opcode_matches[15].u_match">
    <text x="15" y="-4" class="nodelabel cell_gen_opcode_matches[15].u_match" s:attribute="ref">$paramod\control_unit_opcode_match\TARGET_OPCODE=4'1111</text>
    <rect width="30" height="20" s:generic="body" class="cell_gen_opcode_matches[15].u_match"/>
    <g transform="translate(0,10)" s:x="0" s:y="10" s:pid="in0" id="port_gen_opcode_matches[15].u_match~i_opcode">
      <text x="-3" y="-4" class="inputPortLabel cell_gen_opcode_matches[15].u_match">i_opcode</text>
    </g>
    <g transform="translate(30,10)" s:x="30" s:y="10" s:pid="out0" id="port_gen_opcode_matches[15].u_match~o_match">
      <text x="5" y="-4" style="fill:#000; stroke:none" class="cell_gen_opcode_matches[15].u_match">o_match</text>
    </g>
  </g>
  <g s:type="generic" transform="translate(144,195)" s:width="30" s:height="40" id="cell_gen_opcode_matches[1].u_match">
    <text x="15" y="-4" class="nodelabel cell_gen_opcode_matches[1].u_match" s:attribute="ref">$paramod\control_unit_opcode_match\TARGET_OPCODE=4'0001</text>
    <rect width="30" height="20" s:generic="body" class="cell_gen_opcode_matches[1].u_match"/>
    <g transform="translate(0,10)" s:x="0" s:y="10" s:pid="in0" id="port_gen_opcode_matches[1].u_match~i_opcode">
      <text x="-3" y="-4" class="inputPortLabel cell_gen_opcode_matches[1].u_match">i_opcode</text>
    </g>
    <g transform="translate(30,10)" s:x="30" s:y="10" s:pid="out0" id="port_gen_opcode_matches[1].u_match~o_match">
      <text x="5" y="-4" style="fill:#000; stroke:none" class="cell_gen_opcode_matches[1].u_match">o_match</text>
    </g>
  </g>
  <g s:type="generic" transform="translate(402,202.5)" s:width="30" s:height="40" id="cell_gen_opcode_matches[2].u_match">
    <text x="15" y="-4" class="nodelabel cell_gen_opcode_matches[2].u_match" s:attribute="ref">$paramod\control_unit_opcode_match\TARGET_OPCODE=4'0010</text>
    <rect width="30" height="20" s:generic="body" class="cell_gen_opcode_matches[2].u_match"/>
    <g transform="translate(0,10)" s:x="0" s:y="10" s:pid="in0" id="port_gen_opcode_matches[2].u_match~i_opcode">
      <text x="-3" y="-4" class="inputPortLabel cell_gen_opcode_matches[2].u_match">i_opcode</text>
    </g>
    <g transform="translate(30,10)" s:x="30" s:y="10" s:pid="out0" id="port_gen_opcode_matches[2].u_match~o_match">
      <text x="5" y="-4" style="fill:#000; stroke:none" class="cell_gen_opcode_matches[2].u_match">o_match</text>
    </g>
  </g>
  <g s:type="generic" transform="translate(660,210)" s:width="30" s:height="40" id="cell_gen_opcode_matches[3].u_match">
    <text x="15" y="-4" class="nodelabel cell_gen_opcode_matches[3].u_match" s:attribute="ref">$paramod\control_unit_opcode_match\TARGET_OPCODE=4'0011</text>
    <rect width="30" height="20" s:generic="body" class="cell_gen_opcode_matches[3].u_match"/>
    <g transform="translate(0,10)" s:x="0" s:y="10" s:pid="in0" id="port_gen_opcode_matches[3].u_match~i_opcode">
      <text x="-3" y="-4" class="inputPortLabel cell_gen_opcode_matches[3].u_match">i_opcode</text>
    </g>
    <g transform="translate(30,10)" s:x="30" s:y="10" s:pid="out0" id="port_gen_opcode_matches[3].u_match~o_match">
      <text x="5" y="-4" style="fill:#000; stroke:none" class="cell_gen_opcode_matches[3].u_match">o_match</text>
    </g>
  </g>
  <g s:type="generic" transform="translate(918,217.5)" s:width="30" s:height="40" id="cell_gen_opcode_matches[4].u_match">
    <text x="15" y="-4" class="nodelabel cell_gen_opcode_matches[4].u_match" s:attribute="ref">$paramod\control_unit_opcode_match\TARGET_OPCODE=4'0100</text>
    <rect width="30" height="20" s:generic="body" class="cell_gen_opcode_matches[4].u_match"/>
    <g transform="translate(0,10)" s:x="0" s:y="10" s:pid="in0" id="port_gen_opcode_matches[4].u_match~i_opcode">
      <text x="-3" y="-4" class="inputPortLabel cell_gen_opcode_matches[4].u_match">i_opcode</text>
    </g>
    <g transform="translate(30,10)" s:x="30" s:y="10" s:pid="out0" id="port_gen_opcode_matches[4].u_match~o_match">
      <text x="5" y="-4" style="fill:#000; stroke:none" class="cell_gen_opcode_matches[4].u_match">o_match</text>
    </g>
  </g>
  <g s:type="generic" transform="translate(1176,225)" s:width="30" s:height="40" id="cell_gen_opcode_matches[5].u_match">
    <text x="15" y="-4" class="nodelabel cell_gen_opcode_matches[5].u_match" s:attribute="ref">$paramod\control_unit_opcode_match\TARGET_OPCODE=4'0101</text>
    <rect width="30" height="20" s:generic="body" class="cell_gen_opcode_matches[5].u_match"/>
    <g transform="translate(0,10)" s:x="0" s:y="10" s:pid="in0" id="port_gen_opcode_matches[5].u_match~i_opcode">
      <text x="-3" y="-4" class="inputPortLabel cell_gen_opcode_matches[5].u_match">i_opcode</text>
    </g>
    <g transform="translate(30,10)" s:x="30" s:y="10" s:pid="out0" id="port_gen_opcode_matches[5].u_match~o_match">
      <text x="5" y="-4" style="fill:#000; stroke:none" class="cell_gen_opcode_matches[5].u_match">o_match</text>
    </g>
  </g>
  <g s:type="generic" transform="translate(1434,232.5)" s:width="30" s:height="40" id="cell_gen_opcode_matches[6].u_match">
    <text x="15" y="-4" class="nodelabel cell_gen_opcode_matches[6].u_match" s:attribute="ref">$paramod\control_unit_opcode_match\TARGET_OPCODE=4'0110</text>
    <rect width="30" height="20" s:generic="body" class="cell_gen_opcode_matches[6].u_match"/>
    <g transform="translate(0,10)" s:x="0" s:y="10" s:pid="in0" id="port_gen_opcode_matches[6].u_match~i_opcode">
      <text x="-3" y="-4" class="inputPortLabel cell_gen_opcode_matches[6].u_match">i_opcode</text>
    </g>
    <g transform="translate(30,10)" s:x="30" s:y="10" s:pid="out0" id="port_gen_opcode_matches[6].u_match~o_match">
      <text x="5" y="-4" style="fill:#000; stroke:none" class="cell_gen_opcode_matches[6].u_match">o_match</text>
    </g>
  </g>
  <g s:type="generic" transform="translate(1692,240)" s:width="30" s:height="40" id="cell_gen_opcode_matches[7].u_match">
    <text x="15" y="-4" class="nodelabel cell_gen_opcode_matches[7].u_match" s:attribute="ref">$paramod\control_unit_opcode_match\TARGET_OPCODE=4'0111</text>
    <rect width="30" height="20" s:generic="body" class="cell_gen_opcode_matches[7].u_match"/>
    <g transform="translate(0,10)" s:x="0" s:y="10" s:pid="in0" id="port_gen_opcode_matches[7].u_match~i_opcode">
      <text x="-3" y="-4" class="inputPortLabel cell_gen_opcode_matches[7].u_match">i_opcode</text>
    </g>
    <g transform="translate(30,10)" s:x="30" s:y="10" s:pid="out0" id="port_gen_opcode_matches[7].u_match~o_match">
      <text x="5" y="-4" style="fill:#000; stroke:none" class="cell_gen_opcode_matches[7].u_match">o_match</text>
    </g>
  </g>
  <g s:type="generic" transform="translate(1950,286.5)" s:width="30" s:height="40" id="cell_gen_opcode_matches[8].u_match">
    <text x="15" y="-4" class="nodelabel cell_gen_opcode_matches[8].u_match" s:attribute="ref">$paramod\control_unit_opcode_match\TARGET_OPCODE=4'1000</text>
    <rect width="30" height="20" s:generic="body" class="cell_gen_opcode_matches[8].u_match"/>
    <g transform="translate(0,10)" s:x="0" s:y="10" s:pid="in0" id="port_gen_opcode_matches[8].u_match~i_opcode">
      <text x="-3" y="-4" class="inputPortLabel cell_gen_opcode_matches[8].u_match">i_opcode</text>
    </g>
    <g transform="translate(30,10)" s:x="30" s:y="10" s:pid="out0" id="port_gen_opcode_matches[8].u_match~o_match">
      <text x="5" y="-4" style="fill:#000; stroke:none" class="cell_gen_opcode_matches[8].u_match">o_match</text>
    </g>
  </g>
  <g s:type="generic" transform="translate(2208,255)" s:width="30" s:height="40" id="cell_gen_opcode_matches[9].u_match">
    <text x="15" y="-4" class="nodelabel cell_gen_opcode_matches[9].u_match" s:attribute="ref">$paramod\control_unit_opcode_match\TARGET_OPCODE=4'1001</text>
    <rect width="30" height="20" s:generic="body" class="cell_gen_opcode_matches[9].u_match"/>
    <g transform="translate(0,10)" s:x="0" s:y="10" s:pid="in0" id="port_gen_opcode_matches[9].u_match~i_opcode">
      <text x="-3" y="-4" class="inputPortLabel cell_gen_opcode_matches[9].u_match">i_opcode</text>
    </g>
    <g transform="translate(30,10)" s:x="30" s:y="10" s:pid="out0" id="port_gen_opcode_matches[9].u_match~o_match">
      <text x="5" y="-4" style="fill:#000; stroke:none" class="cell_gen_opcode_matches[9].u_match">o_match</text>
    </g>
  </g>
  <g s:type="inputExt" transform="translate(12,426)" s:width="30" s:height="20" id="cell_i_opcode">
    <text x="15" y="-4" class="nodelabel cell_i_opcode" s:attribute="ref">i_opcode</text>
    <s:alias val="$_inputExt_"/>
    <path d="M0,0 L0,20 L15,20 L30,10 L15,0 Z" class="cell_i_opcode"/>
    <g s:x="28" s:y="10" s:pid="Y"/>
  </g>
  <g s:type="outputExt" transform="translate(3274,217.5)" s:width="30" s:height="20" id="cell_o_reg_write">
    <text x="15" y="-4" class="nodelabel cell_o_reg_write" s:attribute="ref">o_reg_write</text>
    <s:alias val="$_outputExt_"/>
    <path d="M30,0 L30,20 L15,20 L0,10 L15,0 Z" class="cell_o_reg_write"/>
    <g s:x="0" s:y="10" s:pid="A"/>
  </g>
  <g s:type="outputExt" transform="translate(3274,646.5)" s:width="30" s:height="20" id="cell_o_mem_write">
    <text x="15" y="-4" class="nodelabel cell_o_mem_write" s:attribute="ref">o_mem_write</text>
    <s:alias val="$_outputExt_"/>
    <path d="M30,0 L30,20 L15,20 L0,10 L15,0 Z" class="cell_o_mem_write"/>
    <g s:x="0" s:y="10" s:pid="A"/>
  </g>
  <g s:type="outputExt" transform="translate(3274,365.5)" s:width="30" s:height="20" id="cell_o_alu_src">
    <text x="15" y="-4" class="nodelabel cell_o_alu_src" s:attribute="ref">o_alu_src</text>
    <s:alias val="$_outputExt_"/>
    <path d="M30,0 L30,20 L15,20 L0,10 L15,0 Z" class="cell_o_alu_src"/>
    <g s:x="0" s:y="10" s:pid="A"/>
  </g>
  <g s:type="outputExt" transform="translate(3274,516.5)" s:width="30" s:height="20" id="cell_o_mem_to_reg">
    <text x="15" y="-4" class="nodelabel cell_o_mem_to_reg" s:attribute="ref">o_mem_to_reg</text>
    <s:alias val="$_outputExt_"/>
    <path d="M30,0 L30,20 L15,20 L0,10 L15,0 Z" class="cell_o_mem_to_reg"/>
    <g s:x="0" s:y="10" s:pid="A"/>
  </g>
  <g s:type="outputExt" transform="translate(3274,87.5)" s:width="30" s:height="20" id="cell_o_reg_src_pc">
    <text x="15" y="-4" class="nodelabel cell_o_reg_src_pc" s:attribute="ref">o_reg_src_pc</text>
    <s:alias val="$_outputExt_"/>
    <path d="M30,0 L30,20 L15,20 L0,10 L15,0 Z" class="cell_o_reg_src_pc"/>
    <g s:x="0" s:y="10" s:pid="A"/>
  </g>
  <g s:type="outputExt" transform="translate(3274,300.5)" s:width="30" s:height="20" id="cell_o_imm_load">
    <text x="15" y="-4" class="nodelabel cell_o_imm_load" s:attribute="ref">o_imm_load</text>
    <s:alias val="$_outputExt_"/>
    <path d="M30,0 L30,20 L15,20 L0,10 L15,0 Z" class="cell_o_imm_load"/>
    <g s:x="0" s:y="10" s:pid="A"/>
  </g>
  <g s:type="outputExt" transform="translate(3274,581.5)" s:width="30" s:height="20" id="cell_o_alu_op">
    <text x="15" y="-4" class="nodelabel cell_o_alu_op" s:attribute="ref">o_alu_op</text>
    <s:alias val="$_outputExt_"/>
    <path d="M30,0 L30,20 L15,20 L0,10 L15,0 Z" class="cell_o_alu_op"/>
    <g s:x="0" s:y="10" s:pid="A"/>
  </g>
  <g s:type="outputExt" transform="translate(3274,433.5)" s:width="30" s:height="20" id="cell_o_branch">
    <text x="15" y="-4" class="nodelabel cell_o_branch" s:attribute="ref">o_branch</text>
    <s:alias val="$_outputExt_"/>
    <path d="M30,0 L30,20 L15,20 L0,10 L15,0 Z" class="cell_o_branch"/>
    <g s:x="0" s:y="10" s:pid="A"/>
  </g>
  <g s:type="outputExt" transform="translate(3274,22.5)" s:width="30" s:height="20" id="cell_o_jump">
    <text x="15" y="-4" class="nodelabel cell_o_jump" s:attribute="ref">o_jump</text>
    <s:alias val="$_outputExt_"/>
    <path d="M30,0 L30,20 L15,20 L0,10 L15,0 Z" class="cell_o_jump"/>
    <g s:x="0" s:y="10" s:pid="A"/>
  </g>
  <g s:type="outputExt" transform="translate(3274,152.5)" s:width="30" s:height="20" id="cell_o_jump_reg">
    <text x="15" y="-4" class="nodelabel cell_o_jump_reg" s:attribute="ref">o_jump_reg</text>
    <s:alias val="$_outputExt_"/>
    <path d="M30,0 L30,20 L15,20 L0,10 L15,0 Z" class="cell_o_jump_reg"/>
    <g s:x="0" s:y="10" s:pid="A"/>
  </g>
  <line x1="175" x2="436.66666666666663" y1="137.5" y2="137.5" class="net_15"/>
  <line x1="175" x2="328" y1="205.5" y2="205.5" class="net_16"/>
  <line x1="328" x2="328" y1="205.5" y2="152.5" class="net_16"/>
  <line x1="328" x2="436.66666666666663" y1="152.5" y2="152.5" class="net_16"/>
  <line x1="463.66666666666663" x2="694.6666666666666" y1="145" y2="145" class="net_17"/>
  <line x1="433" x2="586" y1="213" y2="213" class="net_18"/>
  <line x1="586" x2="586" y1="213" y2="160" class="net_18"/>
  <line x1="586" x2="694.6666666666666" y1="160" y2="160" class="net_18"/>
  <line x1="721.6666666666666" x2="952.6666666666666" y1="152.5" y2="152.5" class="net_19"/>
  <line x1="691" x2="844" y1="220.5" y2="220.5" class="net_20"/>
  <line x1="844" x2="844" y1="220.5" y2="167.5" class="net_20"/>
  <line x1="844" x2="952.6666666666666" y1="167.5" y2="167.5" class="net_20"/>
  <line x1="979.6666666666666" x2="1210.6666666666667" y1="160" y2="160" class="net_21"/>
  <line x1="949" x2="1102" y1="228" y2="228" class="net_22"/>
  <line x1="1102" x2="1102" y1="228" y2="175" class="net_22"/>
  <line x1="1102" x2="1210.6666666666667" y1="175" y2="175" class="net_22"/>
  <line x1="1237.6666666666667" x2="1468.6666666666667" y1="167.5" y2="167.5" class="net_23"/>
  <line x1="1207" x2="1360" y1="235.5" y2="235.5" class="net_24"/>
  <line x1="1360" x2="1360" y1="235.5" y2="182.5" class="net_24"/>
  <line x1="1360" x2="1468.6666666666667" y1="182.5" y2="182.5" class="net_24"/>
  <line x1="1495.6666666666667" x2="1726.6666666666667" y1="175" y2="175" class="net_25"/>
  <line x1="1465" x2="1618" y1="243" y2="243" class="net_26"/>
  <line x1="1618" x2="1618" y1="243" y2="190" class="net_26"/>
  <line x1="1618" x2="1726.6666666666667" y1="190" y2="190" class="net_26"/>
  <line x1="1753.6666666666667" x2="1984.6666666666667" y1="182.5" y2="182.5" class="net_27"/>
  <line x1="1723" x2="1876" y1="250.5" y2="250.5" class="net_28"/>
  <line x1="1876" x2="1876" y1="250.5" y2="197.5" class="net_28"/>
  <line x1="1876" x2="1984.6666666666667" y1="197.5" y2="197.5" class="net_28"/>
  <line x1="2011.6666666666667" x2="2242.6666666666665" y1="190" y2="190" class="net_29"/>
  <line x1="1981" x2="2134" y1="297" y2="297" class="net_30"/>
  <line x1="2134" x2="2134" y1="297" y2="205" class="net_30"/>
  <circle cx="2134" cy="297" r="2" style="fill:#000" class="net_30"/>
  <line x1="2134" x2="2242.6666666666665" y1="205" y2="205" class="net_30"/>
  <line x1="1981" x2="2134" y1="297" y2="297" class="net_30"/>
  <line x1="2134" x2="2134" y1="297" y2="353" class="net_30"/>
  <line x1="2134" x2="2766.6666666666665" y1="353" y2="353" class="net_30"/>
  <line x1="2269.6666666666665" x2="2502.6666666666665" y1="197.5" y2="197.5" class="net_31"/>
  <line x1="2239" x2="2392" y1="265.5" y2="265.5" class="net_11"/>
  <line x1="2392" x2="2392" y1="265.5" y2="212.5" class="net_11"/>
  <circle cx="2392" cy="265.5" r="2" style="fill:#000" class="net_11"/>
  <line x1="2392" x2="2502.6666666666665" y1="212.5" y2="212.5" class="net_11"/>
  <line x1="2239" x2="2392" y1="265.5" y2="265.5" class="net_11"/>
  <line x1="2392" x2="2392" y1="265.5" y2="310.5" class="net_11"/>
  <line x1="2392" x2="3274" y1="310.5" y2="310.5" class="net_11"/>
  <line x1="2529.6666666666665" x2="2766.6666666666665" y1="205" y2="205" class="net_32"/>
  <line x1="2497" x2="2666" y1="384.5" y2="384.5" class="net_9"/>
  <line x1="2666" x2="2666" y1="384.5" y2="220" class="net_9"/>
  <circle cx="2666" cy="384.5" r="2" style="fill:#000" class="net_9"/>
  <line x1="2666" x2="2766.6666666666665" y1="220" y2="220" class="net_9"/>
  <line x1="2497" x2="2666" y1="384.5" y2="384.5" class="net_9"/>
  <line x1="2666" x2="2666" y1="384.5" y2="368" class="net_9"/>
  <circle cx="2666" cy="368" r="2" style="fill:#000" class="net_9"/>
  <line x1="2666" x2="2766.6666666666665" y1="368" y2="368" class="net_9"/>
  <line x1="2497" x2="2666" y1="384.5" y2="384.5" class="net_9"/>
  <line x1="2666" x2="2666" y1="384.5" y2="526.5" class="net_9"/>
  <line x1="2666" x2="3274" y1="526.5" y2="526.5" class="net_9"/>
  <line x1="2793.6666666666665" x2="3030.6666666666665" y1="212.5" y2="212.5" class="net_33"/>
  <line x1="2761" x2="2920" y1="32.5" y2="32.5" class="net_13"/>
  <line x1="2920" x2="2920" y1="32.5" y2="227.5" class="net_13"/>
  <circle cx="2920" cy="32.5" r="2" style="fill:#000" class="net_13"/>
  <line x1="2920" x2="3030.6666666666665" y1="227.5" y2="227.5" class="net_13"/>
  <line x1="2761" x2="3184" y1="32.5" y2="32.5" class="net_13"/>
  <line x1="3184" x2="3184" y1="32.5" y2="90" class="net_13"/>
  <circle cx="3184" cy="32.5" r="2" style="fill:#000" class="net_13"/>
  <line x1="3184" x2="3212" y1="90" y2="90" class="net_13"/>
  <line x1="2761" x2="3274" y1="32.5" y2="32.5" class="net_13"/>
  <line x1="3057.6666666666665" x2="3212" y1="220" y2="220" class="net_34"/>
  <line x1="3025" x2="3184" y1="288" y2="288" class="net_14"/>
  <line x1="3184" x2="3184" y1="288" y2="235" class="net_14"/>
  <circle cx="3184" cy="288" r="2" style="fill:#000" class="net_14"/>
  <circle cx="3184" cy="235" r="2" style="fill:#000" class="net_14"/>
  <line x1="3184" x2="3212" y1="235" y2="235" class="net_14"/>
  <line x1="3025" x2="3184" y1="288" y2="288" class="net_14"/>
  <line x1="3184" x2="3184" y1="288" y2="383" class="net_14"/>
  <line x1="3184" x2="3212" y1="383" y2="383" class="net_14"/>
  <line x1="3025" x2="3184" y1="288" y2="288" class="net_14"/>
  <line x1="3184" x2="3184" y1="288" y2="105" class="net_14"/>
  <line x1="3184" x2="3212" y1="105" y2="105" class="net_14"/>
  <line x1="3025" x2="3184" y1="288" y2="288" class="net_14"/>
  <line x1="3184" x2="3184" y1="288" y2="162.5" class="net_14"/>
  <circle cx="3184" cy="162.5" r="2" style="fill:#000" class="net_14"/>
  <line x1="3184" x2="3274" y1="162.5" y2="162.5" class="net_14"/>
  <line x1="2793.6666666666665" x2="3030.6666666666665" y1="360.5" y2="360.5" class="net_35"/>
  <line x1="2761" x2="2920" y1="467.5" y2="467.5" class="net_7"/>
  <line x1="2920" x2="2920" y1="467.5" y2="375.5" class="net_7"/>
  <circle cx="2920" cy="467.5" r="2" style="fill:#000" class="net_7"/>
  <line x1="2920" x2="3030.6666666666665" y1="375.5" y2="375.5" class="net_7"/>
  <line x1="2761" x2="2920" y1="467.5" y2="467.5" class="net_7"/>
  <line x1="2920" x2="2920" y1="467.5" y2="656.5" class="net_7"/>
  <line x1="2920" x2="3274" y1="656.5" y2="656.5" class="net_7"/>
  <line x1="3057.6666666666665" x2="3212" y1="368" y2="368" class="net_36"/>
  <line x1="3025" x2="3212" y1="436" y2="436" class="net_37"/>
  <line x1="3025" x2="3184" y1="504" y2="504" class="net_38"/>
  <line x1="3184" x2="3184" y1="504" y2="451" class="net_38"/>
  <line x1="3184" x2="3212" y1="451" y2="451" class="net_38"/>
  <line x1="40" x2="70" y1="436" y2="436" class="net_2,3,4,5"/>
  <line x1="70" x2="70" y1="436" y2="137.5" class="net_2,3,4,5"/>
  <circle cx="70" cy="436" r="2" style="fill:#000" class="net_2,3,4,5"/>
  <circle cx="70" cy="137.5" r="2" style="fill:#000" class="net_2,3,4,5"/>
  <line x1="70" x2="144" y1="137.5" y2="137.5" class="net_2,3,4,5"/>
  <line x1="40" x2="2392" y1="436" y2="436" class="net_2,3,4,5"/>
  <line x1="2392" x2="2392" y1="436" y2="384.5" class="net_2,3,4,5"/>
  <circle cx="2392" cy="436" r="2" style="fill:#000" class="net_2,3,4,5"/>
  <line x1="2392" x2="2466" y1="384.5" y2="384.5" class="net_2,3,4,5"/>
  <line x1="40" x2="2656" y1="436" y2="436" class="net_2,3,4,5"/>
  <line x1="2656" x2="2656" y1="436" y2="467.5" class="net_2,3,4,5"/>
  <circle cx="2656" cy="436" r="2" style="fill:#000" class="net_2,3,4,5"/>
  <circle cx="2656" cy="467.5" r="2" style="fill:#000" class="net_2,3,4,5"/>
  <line x1="2656" x2="2730" y1="467.5" y2="467.5" class="net_2,3,4,5"/>
  <line x1="40" x2="2994" y1="436" y2="436" class="net_2,3,4,5"/>
  <line x1="40" x2="2930" y1="436" y2="436" class="net_2,3,4,5"/>
  <line x1="2930" x2="2930" y1="436" y2="504" class="net_2,3,4,5"/>
  <circle cx="2930" cy="436" r="2" style="fill:#000" class="net_2,3,4,5"/>
  <line x1="2930" x2="2994" y1="504" y2="504" class="net_2,3,4,5"/>
  <line x1="40" x2="70" y1="436" y2="436" class="net_2,3,4,5"/>
  <line x1="70" x2="70" y1="436" y2="32.5" class="net_2,3,4,5"/>
  <line x1="70" x2="2730" y1="32.5" y2="32.5" class="net_2,3,4,5"/>
  <line x1="40" x2="2144" y1="436" y2="436" class="net_2,3,4,5"/>
  <line x1="2144" x2="2144" y1="436" y2="288" class="net_2,3,4,5"/>
  <circle cx="2144" cy="436" r="2" style="fill:#000" class="net_2,3,4,5"/>
  <line x1="2144" x2="2994" y1="288" y2="288" class="net_2,3,4,5"/>
  <line x1="40" x2="70" y1="436" y2="436" class="net_2,3,4,5"/>
  <line x1="70" x2="70" y1="436" y2="205.5" class="net_2,3,4,5"/>
  <circle cx="70" cy="205.5" r="2" style="fill:#000" class="net_2,3,4,5"/>
  <line x1="70" x2="144" y1="205.5" y2="205.5" class="net_2,3,4,5"/>
  <line x1="40" x2="328" y1="436" y2="436" class="net_2,3,4,5"/>
  <line x1="328" x2="328" y1="436" y2="213" class="net_2,3,4,5"/>
  <circle cx="328" cy="436" r="2" style="fill:#000" class="net_2,3,4,5"/>
  <line x1="328" x2="402" y1="213" y2="213" class="net_2,3,4,5"/>
  <line x1="40" x2="586" y1="436" y2="436" class="net_2,3,4,5"/>
  <line x1="586" x2="586" y1="436" y2="220.5" class="net_2,3,4,5"/>
  <circle cx="586" cy="436" r="2" style="fill:#000" class="net_2,3,4,5"/>
  <line x1="586" x2="660" y1="220.5" y2="220.5" class="net_2,3,4,5"/>
  <line x1="40" x2="844" y1="436" y2="436" class="net_2,3,4,5"/>
  <line x1="844" x2="844" y1="436" y2="228" class="net_2,3,4,5"/>
  <circle cx="844" cy="436" r="2" style="fill:#000" class="net_2,3,4,5"/>
  <line x1="844" x2="918" y1="228" y2="228" class="net_2,3,4,5"/>
  <line x1="40" x2="1102" y1="436" y2="436" class="net_2,3,4,5"/>
  <line x1="1102" x2="1102" y1="436" y2="235.5" class="net_2,3,4,5"/>
  <circle cx="1102" cy="436" r="2" style="fill:#000" class="net_2,3,4,5"/>
  <line x1="1102" x2="1176" y1="235.5" y2="235.5" class="net_2,3,4,5"/>
  <line x1="40" x2="1360" y1="436" y2="436" class="net_2,3,4,5"/>
  <line x1="1360" x2="1360" y1="436" y2="243" class="net_2,3,4,5"/>
  <circle cx="1360" cy="436" r="2" style="fill:#000" class="net_2,3,4,5"/>
  <line x1="1360" x2="1434" y1="243" y2="243" class="net_2,3,4,5"/>
  <line x1="40" x2="1618" y1="436" y2="436" class="net_2,3,4,5"/>
  <line x1="1618" x2="1618" y1="436" y2="250.5" class="net_2,3,4,5"/>
  <circle cx="1618" cy="436" r="2" style="fill:#000" class="net_2,3,4,5"/>
  <line x1="1618" x2="1692" y1="250.5" y2="250.5" class="net_2,3,4,5"/>
  <line x1="40" x2="1876" y1="436" y2="436" class="net_2,3,4,5"/>
  <line x1="1876" x2="1876" y1="436" y2="297" class="net_2,3,4,5"/>
  <circle cx="1876" cy="297" r="2" style="fill:#000" class="net_2,3,4,5"/>
  <line x1="1876" x2="1950" y1="297" y2="297" class="net_2,3,4,5"/>
  <line x1="40" x2="1876" y1="436" y2="436" class="net_2,3,4,5"/>
  <line x1="1876" x2="1876" y1="436" y2="265.5" class="net_2,3,4,5"/>
  <circle cx="1876" cy="436" r="2" style="fill:#000" class="net_2,3,4,5"/>
  <line x1="1876" x2="2208" y1="265.5" y2="265.5" class="net_2,3,4,5"/>
  <line x1="40" x2="2656" y1="436" y2="436" class="net_2,3,4,5"/>
  <line x1="2656" x2="2656" y1="436" y2="591.5" class="net_2,3,4,5"/>
  <line x1="2656" x2="3274" y1="591.5" y2="591.5" class="net_2,3,4,5"/>
  <line x1="3239" x2="3274" y1="227.5" y2="227.5" class="net_6"/>
  <line x1="3239" x2="3274" y1="375.5" y2="375.5" class="net_8"/>
  <line x1="3239" x2="3274" y1="97.5" y2="97.5" class="net_10"/>
  <line x1="3239" x2="3274" y1="443.5" y2="443.5" class="net_12"/>
</svg>
