<svg xmlns="http://www.w3.org/2000/svg" xmlns:xlink="http://www.w3.org/1999/xlink" xmlns:s="https://github.com/nturley/netlistsvg" width="634" height="1077">
  <style>svg {
    stroke:#000;
    fill:none;
  }
  text {
    fill:#000;
    stroke:none;
    font-size:10px;
    font-weight: bold;
    font-family: "Courier New", monospace;
  }
  .nodelabel {
    text-anchor: middle;
  }
  .inputPortLabel {
    text-anchor: end;
  }
  .splitjoinBody {
    fill:#000;
  }</style>
  <g s:type="generic" transform="translate(250,22)" s:width="30" s:height="40" id="cell_bit_slice_buffer[0].u_buf_bit">
    <text x="15" y="-4" class="nodelabel cell_bit_slice_buffer[0].u_buf_bit" s:attribute="ref">mem_ctrl_buffer_1bit</text>
    <rect width="30" height="20" s:generic="body" class="cell_bit_slice_buffer[0].u_buf_bit"/>
    <g transform="translate(0,10)" s:x="0" s:y="10" s:pid="in0" id="port_bit_slice_buffer[0].u_buf_bit~i_in">
      <text x="-3" y="-4" class="inputPortLabel cell_bit_slice_buffer[0].u_buf_bit">i_in</text>
    </g>
    <g transform="translate(30,10)" s:x="30" s:y="10" s:pid="out0" id="port_bit_slice_buffer[0].u_buf_bit~o_out">
      <text x="5" y="-4" style="fill:#000; stroke:none" class="cell_bit_slice_buffer[0].u_buf_bit">o_out</text>
    </g>
  </g>
  <g s:type="generic" transform="translate(244,702)" s:width="30" s:height="40" id="cell_bit_slice_buffer[10].u_buf_bit">
    <text x="15" y="-4" class="nodelabel cell_bit_slice_buffer[10].u_buf_bit" s:attribute="ref">mem_ctrl_buffer_1bit</text>
    <rect width="30" height="20" s:generic="body" class="cell_bit_slice_buffer[10].u_buf_bit"/>
    <g transform="translate(0,10)" s:x="0" s:y="10" s:pid="in0" id="port_bit_slice_buffer[10].u_buf_bit~i_in">
      <text x="-3" y="-4" class="inputPortLabel cell_bit_slice_buffer[10].u_buf_bit">i_in</text>
    </g>
    <g transform="translate(30,10)" s:x="30" s:y="10" s:pid="out0" id="port_bit_slice_buffer[10].u_buf_bit~o_out">
      <text x="5" y="-4" style="fill:#000; stroke:none" class="cell_bit_slice_buffer[10].u_buf_bit">o_out</text>
    </g>
  </g>
  <g s:type="generic" transform="translate(244,770)" s:width="30" s:height="40" id="cell_bit_slice_buffer[11].u_buf_bit">
    <text x="15" y="-4" class="nodelabel cell_bit_slice_buffer[11].u_buf_bit" s:attribute="ref">mem_ctrl_buffer_1bit</text>
    <rect width="30" height="20" s:generic="body" class="cell_bit_slice_buffer[11].u_buf_bit"/>
    <g transform="translate(0,10)" s:x="0" s:y="10" s:pid="in0" id="port_bit_slice_buffer[11].u_buf_bit~i_in">
      <text x="-3" y="-4" class="inputPortLabel cell_bit_slice_buffer[11].u_buf_bit">i_in</text>
    </g>
    <g transform="translate(30,10)" s:x="30" s:y="10" s:pid="out0" id="port_bit_slice_buffer[11].u_buf_bit~o_out">
      <text x="5" y="-4" style="fill:#000; stroke:none" class="cell_bit_slice_buffer[11].u_buf_bit">o_out</text>
    </g>
  </g>
  <g s:type="generic" transform="translate(244,838)" s:width="30" s:height="40" id="cell_bit_slice_buffer[12].u_buf_bit">
    <text x="15" y="-4" class="nodelabel cell_bit_slice_buffer[12].u_buf_bit" s:attribute="ref">mem_ctrl_buffer_1bit</text>
    <rect width="30" height="20" s:generic="body" class="cell_bit_slice_buffer[12].u_buf_bit"/>
    <g transform="translate(0,10)" s:x="0" s:y="10" s:pid="in0" id="port_bit_slice_buffer[12].u_buf_bit~i_in">
      <text x="-3" y="-4" class="inputPortLabel cell_bit_slice_buffer[12].u_buf_bit">i_in</text>
    </g>
    <g transform="translate(30,10)" s:x="30" s:y="10" s:pid="out0" id="port_bit_slice_buffer[12].u_buf_bit~o_out">
      <text x="5" y="-4" style="fill:#000; stroke:none" class="cell_bit_slice_buffer[12].u_buf_bit">o_out</text>
    </g>
  </g>
  <g s:type="generic" transform="translate(244,906)" s:width="30" s:height="40" id="cell_bit_slice_buffer[13].u_buf_bit">
    <text x="15" y="-4" class="nodelabel cell_bit_slice_buffer[13].u_buf_bit" s:attribute="ref">mem_ctrl_buffer_1bit</text>
    <rect width="30" height="20" s:generic="body" class="cell_bit_slice_buffer[13].u_buf_bit"/>
    <g transform="translate(0,10)" s:x="0" s:y="10" s:pid="in0" id="port_bit_slice_buffer[13].u_buf_bit~i_in">
      <text x="-3" y="-4" class="inputPortLabel cell_bit_slice_buffer[13].u_buf_bit">i_in</text>
    </g>
    <g transform="translate(30,10)" s:x="30" s:y="10" s:pid="out0" id="port_bit_slice_buffer[13].u_buf_bit~o_out">
      <text x="5" y="-4" style="fill:#000; stroke:none" class="cell_bit_slice_buffer[13].u_buf_bit">o_out</text>
    </g>
  </g>
  <g s:type="generic" transform="translate(244,974)" s:width="30" s:height="40" id="cell_bit_slice_buffer[14].u_buf_bit">
    <text x="15" y="-4" class="nodelabel cell_bit_slice_buffer[14].u_buf_bit" s:attribute="ref">mem_ctrl_buffer_1bit</text>
    <rect width="30" height="20" s:generic="body" class="cell_bit_slice_buffer[14].u_buf_bit"/>
    <g transform="translate(0,10)" s:x="0" s:y="10" s:pid="in0" id="port_bit_slice_buffer[14].u_buf_bit~i_in">
      <text x="-3" y="-4" class="inputPortLabel cell_bit_slice_buffer[14].u_buf_bit">i_in</text>
    </g>
    <g transform="translate(30,10)" s:x="30" s:y="10" s:pid="out0" id="port_bit_slice_buffer[14].u_buf_bit~o_out">
      <text x="5" y="-4" style="fill:#000; stroke:none" class="cell_bit_slice_buffer[14].u_buf_bit">o_out</text>
    </g>
  </g>
  <g s:type="generic" transform="translate(244,1042)" s:width="30" s:height="40" id="cell_bit_slice_buffer[15].u_buf_bit">
    <text x="15" y="-4" class="nodelabel cell_bit_slice_buffer[15].u_buf_bit" s:attribute="ref">mem_ctrl_buffer_1bit</text>
    <rect width="30" height="20" s:generic="body" class="cell_bit_slice_buffer[15].u_buf_bit"/>
    <g transform="translate(0,10)" s:x="0" s:y="10" s:pid="in0" id="port_bit_slice_buffer[15].u_buf_bit~i_in">
      <text x="-3" y="-4" class="inputPortLabel cell_bit_slice_buffer[15].u_buf_bit">i_in</text>
    </g>
    <g transform="translate(30,10)" s:x="30" s:y="10" s:pid="out0" id="port_bit_slice_buffer[15].u_buf_bit~o_out">
      <text x="5" y="-4" style="fill:#000; stroke:none" class="cell_bit_slice_buffer[15].u_buf_bit">o_out</text>
    </g>
  </g>
  <g s:type="generic" transform="translate(250,90)" s:width="30" s:height="40" id="cell_bit_slice_buffer[1].u_buf_bit">
    <text x="15" y="-4" class="nodelabel cell_bit_slice_buffer[1].u_buf_bit" s:attribute="ref">mem_ctrl_buffer_1bit</text>
    <rect width="30" height="20" s:generic="body" class="cell_bit_slice_buffer[1].u_buf_bit"/>
    <g transform="translate(0,10)" s:x="0" s:y="10" s:pid="in0" id="port_bit_slice_buffer[1].u_buf_bit~i_in">
      <text x="-3" y="-4" class="inputPortLabel cell_bit_slice_buffer[1].u_buf_bit">i_in</text>
    </g>
    <g transform="translate(30,10)" s:x="30" s:y="10" s:pid="out0" id="port_bit_slice_buffer[1].u_buf_bit~o_out">
      <text x="5" y="-4" style="fill:#000; stroke:none" class="cell_bit_slice_buffer[1].u_buf_bit">o_out</text>
    </g>
  </g>
  <g s:type="generic" transform="translate(250,158)" s:width="30" s:height="40" id="cell_bit_slice_buffer[2].u_buf_bit">
    <text x="15" y="-4" class="nodelabel cell_bit_slice_buffer[2].u_buf_bit" s:attribute="ref">mem_ctrl_buffer_1bit</text>
    <rect width="30" height="20" s:generic="body" class="cell_bit_slice_buffer[2].u_buf_bit"/>
    <g transform="translate(0,10)" s:x="0" s:y="10" s:pid="in0" id="port_bit_slice_buffer[2].u_buf_bit~i_in">
      <text x="-3" y="-4" class="inputPortLabel cell_bit_slice_buffer[2].u_buf_bit">i_in</text>
    </g>
    <g transform="translate(30,10)" s:x="30" s:y="10" s:pid="out0" id="port_bit_slice_buffer[2].u_buf_bit~o_out">
      <text x="5" y="-4" style="fill:#000; stroke:none" class="cell_bit_slice_buffer[2].u_buf_bit">o_out</text>
    </g>
  </g>
  <g s:type="generic" transform="translate(250,226)" s:width="30" s:height="40" id="cell_bit_slice_buffer[3].u_buf_bit">
    <text x="15" y="-4" class="nodelabel cell_bit_slice_buffer[3].u_buf_bit" s:attribute="ref">mem_ctrl_buffer_1bit</text>
    <rect width="30" height="20" s:generic="body" class="cell_bit_slice_buffer[3].u_buf_bit"/>
    <g transform="translate(0,10)" s:x="0" s:y="10" s:pid="in0" id="port_bit_slice_buffer[3].u_buf_bit~i_in">
      <text x="-3" y="-4" class="inputPortLabel cell_bit_slice_buffer[3].u_buf_bit">i_in</text>
    </g>
    <g transform="translate(30,10)" s:x="30" s:y="10" s:pid="out0" id="port_bit_slice_buffer[3].u_buf_bit~o_out">
      <text x="5" y="-4" style="fill:#000; stroke:none" class="cell_bit_slice_buffer[3].u_buf_bit">o_out</text>
    </g>
  </g>
  <g s:type="generic" transform="translate(250,294)" s:width="30" s:height="40" id="cell_bit_slice_buffer[4].u_buf_bit">
    <text x="15" y="-4" class="nodelabel cell_bit_slice_buffer[4].u_buf_bit" s:attribute="ref">mem_ctrl_buffer_1bit</text>
    <rect width="30" height="20" s:generic="body" class="cell_bit_slice_buffer[4].u_buf_bit"/>
    <g transform="translate(0,10)" s:x="0" s:y="10" s:pid="in0" id="port_bit_slice_buffer[4].u_buf_bit~i_in">
      <text x="-3" y="-4" class="inputPortLabel cell_bit_slice_buffer[4].u_buf_bit">i_in</text>
    </g>
    <g transform="translate(30,10)" s:x="30" s:y="10" s:pid="out0" id="port_bit_slice_buffer[4].u_buf_bit~o_out">
      <text x="5" y="-4" style="fill:#000; stroke:none" class="cell_bit_slice_buffer[4].u_buf_bit">o_out</text>
    </g>
  </g>
  <g s:type="generic" transform="translate(250,362)" s:width="30" s:height="40" id="cell_bit_slice_buffer[5].u_buf_bit">
    <text x="15" y="-4" class="nodelabel cell_bit_slice_buffer[5].u_buf_bit" s:attribute="ref">mem_ctrl_buffer_1bit</text>
    <rect width="30" height="20" s:generic="body" class="cell_bit_slice_buffer[5].u_buf_bit"/>
    <g transform="translate(0,10)" s:x="0" s:y="10" s:pid="in0" id="port_bit_slice_buffer[5].u_buf_bit~i_in">
      <text x="-3" y="-4" class="inputPortLabel cell_bit_slice_buffer[5].u_buf_bit">i_in</text>
    </g>
    <g transform="translate(30,10)" s:x="30" s:y="10" s:pid="out0" id="port_bit_slice_buffer[5].u_buf_bit~o_out">
      <text x="5" y="-4" style="fill:#000; stroke:none" class="cell_bit_slice_buffer[5].u_buf_bit">o_out</text>
    </g>
  </g>
  <g s:type="generic" transform="translate(250,430)" s:width="30" s:height="40" id="cell_bit_slice_buffer[6].u_buf_bit">
    <text x="15" y="-4" class="nodelabel cell_bit_slice_buffer[6].u_buf_bit" s:attribute="ref">mem_ctrl_buffer_1bit</text>
    <rect width="30" height="20" s:generic="body" class="cell_bit_slice_buffer[6].u_buf_bit"/>
    <g transform="translate(0,10)" s:x="0" s:y="10" s:pid="in0" id="port_bit_slice_buffer[6].u_buf_bit~i_in">
      <text x="-3" y="-4" class="inputPortLabel cell_bit_slice_buffer[6].u_buf_bit">i_in</text>
    </g>
    <g transform="translate(30,10)" s:x="30" s:y="10" s:pid="out0" id="port_bit_slice_buffer[6].u_buf_bit~o_out">
      <text x="5" y="-4" style="fill:#000; stroke:none" class="cell_bit_slice_buffer[6].u_buf_bit">o_out</text>
    </g>
  </g>
  <g s:type="generic" transform="translate(250,498)" s:width="30" s:height="40" id="cell_bit_slice_buffer[7].u_buf_bit">
    <text x="15" y="-4" class="nodelabel cell_bit_slice_buffer[7].u_buf_bit" s:attribute="ref">mem_ctrl_buffer_1bit</text>
    <rect width="30" height="20" s:generic="body" class="cell_bit_slice_buffer[7].u_buf_bit"/>
    <g transform="translate(0,10)" s:x="0" s:y="10" s:pid="in0" id="port_bit_slice_buffer[7].u_buf_bit~i_in">
      <text x="-3" y="-4" class="inputPortLabel cell_bit_slice_buffer[7].u_buf_bit">i_in</text>
    </g>
    <g transform="translate(30,10)" s:x="30" s:y="10" s:pid="out0" id="port_bit_slice_buffer[7].u_buf_bit~o_out">
      <text x="5" y="-4" style="fill:#000; stroke:none" class="cell_bit_slice_buffer[7].u_buf_bit">o_out</text>
    </g>
  </g>
  <g s:type="generic" transform="translate(250,566)" s:width="30" s:height="40" id="cell_bit_slice_buffer[8].u_buf_bit">
    <text x="15" y="-4" class="nodelabel cell_bit_slice_buffer[8].u_buf_bit" s:attribute="ref">mem_ctrl_buffer_1bit</text>
    <rect width="30" height="20" s:generic="body" class="cell_bit_slice_buffer[8].u_buf_bit"/>
    <g transform="translate(0,10)" s:x="0" s:y="10" s:pid="in0" id="port_bit_slice_buffer[8].u_buf_bit~i_in">
      <text x="-3" y="-4" class="inputPortLabel cell_bit_slice_buffer[8].u_buf_bit">i_in</text>
    </g>
    <g transform="translate(30,10)" s:x="30" s:y="10" s:pid="out0" id="port_bit_slice_buffer[8].u_buf_bit~o_out">
      <text x="5" y="-4" style="fill:#000; stroke:none" class="cell_bit_slice_buffer[8].u_buf_bit">o_out</text>
    </g>
  </g>
  <g s:type="generic" transform="translate(250,634)" s:width="30" s:height="40" id="cell_bit_slice_buffer[9].u_buf_bit">
    <text x="15" y="-4" class="nodelabel cell_bit_slice_buffer[9].u_buf_bit" s:attribute="ref">mem_ctrl_buffer_1bit</text>
    <rect width="30" height="20" s:generic="body" class="cell_bit_slice_buffer[9].u_buf_bit"/>
    <g transform="translate(0,10)" s:x="0" s:y="10" s:pid="in0" id="port_bit_slice_buffer[9].u_buf_bit~i_in">
      <text x="-3" y="-4" class="inputPortLabel cell_bit_slice_buffer[9].u_buf_bit">i_in</text>
    </g>
    <g transform="translate(30,10)" s:x="30" s:y="10" s:pid="out0" id="port_bit_slice_buffer[9].u_buf_bit~o_out">
      <text x="5" y="-4" style="fill:#000; stroke:none" class="cell_bit_slice_buffer[9].u_buf_bit">o_out</text>
    </g>
  </g>
  <g s:type="inputExt" transform="translate(12,206)" s:width="30" s:height="20" id="cell_i_in">
    <text x="15" y="-4" class="nodelabel cell_i_in" s:attribute="ref">i_in</text>
    <s:alias val="$_inputExt_"/>
    <path d="M0,0 L0,20 L15,20 L30,10 L15,0 Z" class="cell_i_in"/>
    <g s:x="28" s:y="10" s:pid="Y"/>
  </g>
  <g s:type="outputExt" transform="translate(592,656.5)" s:width="30" s:height="20" id="cell_o_out">
    <text x="15" y="-4" class="nodelabel cell_o_out" s:attribute="ref">o_out</text>
    <s:alias val="$_outputExt_"/>
    <path d="M30,0 L30,20 L15,20 L0,10 L15,0 Z" class="cell_o_out"/>
    <g s:x="0" s:y="10" s:pid="A"/>
  </g>
  <g s:type="join" transform="translate(551,646)" s:width="4" s:height="40" id="cell_$join$,18,19,20,21,22,23,24,25,26,27,28,29,30,31,32,33,">
    <rect width="5" height="320" class="splitjoinBody" s:generic="body"/>
    <s:alias val="$_join_"/>
    <g s:x="5" s:y="20" s:pid="out"/>
    <g transform="translate(0,10)" s:x="0" s:y="10" s:pid="in0">
      <text x="-3" y="-4" class="inputPortLabel">0</text>
    </g>
    <g transform="translate(0,30)" s:x="0" s:y="10" s:pid="in0">
      <text x="-3" y="-4" class="inputPortLabel">1</text>
    </g>
    <g transform="translate(0,50)" s:x="0" s:y="10" s:pid="in0">
      <text x="-3" y="-4" class="inputPortLabel">2</text>
    </g>
    <g transform="translate(0,70)" s:x="0" s:y="10" s:pid="in0">
      <text x="-3" y="-4" class="inputPortLabel">3</text>
    </g>
    <g transform="translate(0,90)" s:x="0" s:y="10" s:pid="in0">
      <text x="-3" y="-4" class="inputPortLabel">4</text>
    </g>
    <g transform="translate(0,110)" s:x="0" s:y="10" s:pid="in0">
      <text x="-3" y="-4" class="inputPortLabel">5</text>
    </g>
    <g transform="translate(0,130)" s:x="0" s:y="10" s:pid="in0">
      <text x="-3" y="-4" class="inputPortLabel">6</text>
    </g>
    <g transform="translate(0,150)" s:x="0" s:y="10" s:pid="in0">
      <text x="-3" y="-4" class="inputPortLabel">7</text>
    </g>
    <g transform="translate(0,170)" s:x="0" s:y="10" s:pid="in0">
      <text x="-3" y="-4" class="inputPortLabel">8</text>
    </g>
    <g transform="translate(0,190)" s:x="0" s:y="10" s:pid="in0">
      <text x="-3" y="-4" class="inputPortLabel">9</text>
    </g>
    <g transform="translate(0,210)" s:x="0" s:y="10" s:pid="in0">
      <text x="-3" y="-4" class="inputPortLabel">10</text>
    </g>
    <g transform="translate(0,230)" s:x="0" s:y="10" s:pid="in0">
      <text x="-3" y="-4" class="inputPortLabel">11</text>
    </g>
    <g transform="translate(0,250)" s:x="0" s:y="10" s:pid="in0">
      <text x="-3" y="-4" class="inputPortLabel">12</text>
    </g>
    <g transform="translate(0,270)" s:x="0" s:y="10" s:pid="in0">
      <text x="-3" y="-4" class="inputPortLabel">13</text>
    </g>
    <g transform="translate(0,290)" s:x="0" s:y="10" s:pid="in0">
      <text x="-3" y="-4" class="inputPortLabel">14</text>
    </g>
    <g transform="translate(0,310)" s:x="0" s:y="10" s:pid="in0">
      <text x="-3" y="-4" class="inputPortLabel">15</text>
    </g>
  </g>
  <g s:type="split" transform="translate(77,238)" s:width="5" s:height="40" id="cell_$split$,2,3,4,5,6,7,8,9,10,11,12,13,14,15,16,17,">
    <rect width="5" height="320" class="splitjoinBody" s:generic="body"/>
    <s:alias val="$_split_"/>
    <g s:x="0" s:y="20" s:pid="in"/>
    <g transform="translate(4,10)" s:x="4" s:y="10" s:pid="out0">
      <text x="5" y="-4">0</text>
    </g>
    <g transform="translate(4,30)" s:x="4" s:y="10" s:pid="out0">
      <text x="5" y="-4">10</text>
    </g>
    <g transform="translate(4,50)" s:x="4" s:y="10" s:pid="out0">
      <text x="5" y="-4">11</text>
    </g>
    <g transform="translate(4,70)" s:x="4" s:y="10" s:pid="out0">
      <text x="5" y="-4">12</text>
    </g>
    <g transform="translate(4,90)" s:x="4" s:y="10" s:pid="out0">
      <text x="5" y="-4">13</text>
    </g>
    <g transform="translate(4,110)" s:x="4" s:y="10" s:pid="out0">
      <text x="5" y="-4">14</text>
    </g>
    <g transform="translate(4,130)" s:x="4" s:y="10" s:pid="out0">
      <text x="5" y="-4">15</text>
    </g>
    <g transform="translate(4,150)" s:x="4" s:y="10" s:pid="out0">
      <text x="5" y="-4">1</text>
    </g>
    <g transform="translate(4,170)" s:x="4" s:y="10" s:pid="out0">
      <text x="5" y="-4">2</text>
    </g>
    <g transform="translate(4,190)" s:x="4" s:y="10" s:pid="out0">
      <text x="5" y="-4">3</text>
    </g>
    <g transform="translate(4,210)" s:x="4" s:y="10" s:pid="out0">
      <text x="5" y="-4">4</text>
    </g>
    <g transform="translate(4,230)" s:x="4" s:y="10" s:pid="out0">
      <text x="5" y="-4">5</text>
    </g>
    <g transform="translate(4,250)" s:x="4" s:y="10" s:pid="out0">
      <text x="5" y="-4">6</text>
    </g>
    <g transform="translate(4,270)" s:x="4" s:y="10" s:pid="out0">
      <text x="5" y="-4">7</text>
    </g>
    <g transform="translate(4,290)" s:x="4" s:y="10" s:pid="out0">
      <text x="5" y="-4">8</text>
    </g>
    <g transform="translate(4,310)" s:x="4" s:y="10" s:pid="out0">
      <text x="5" y="-4">9</text>
    </g>
  </g>
  <line x1="81.5" x2="81.5" y1="248" y2="32.5" class="net_2"/>
  <line x1="81.5" x2="250" y1="32.5" y2="32.5" class="net_2"/>
  <line x1="81.5" x2="81.5" y1="268" y2="226" class="net_12"/>
  <line x1="81.5" x2="209" y1="226" y2="226" class="net_12"/>
  <line x1="209" x2="209" y1="226" y2="712.5" class="net_12"/>
  <line x1="209" x2="244" y1="712.5" y2="712.5" class="net_12"/>
  <line x1="82" x2="189" y1="288.5" y2="288.5" class="net_13"/>
  <line x1="189" x2="189" y1="288.5" y2="780.5" class="net_13"/>
  <line x1="189" x2="244" y1="780.5" y2="780.5" class="net_13"/>
  <line x1="82" x2="169" y1="308.5" y2="308.5" class="net_14"/>
  <line x1="169" x2="169" y1="308.5" y2="848.5" class="net_14"/>
  <line x1="169" x2="244" y1="848.5" y2="848.5" class="net_14"/>
  <line x1="82" x2="149" y1="328.5" y2="328.5" class="net_15"/>
  <line x1="149" x2="149" y1="328.5" y2="916.5" class="net_15"/>
  <line x1="149" x2="244" y1="916.5" y2="916.5" class="net_15"/>
  <line x1="82" x2="129" y1="348.5" y2="348.5" class="net_16"/>
  <line x1="129" x2="129" y1="348.5" y2="984.5" class="net_16"/>
  <line x1="129" x2="244" y1="984.5" y2="984.5" class="net_16"/>
  <line x1="82" x2="99" y1="368.5" y2="368.5" class="net_17"/>
  <line x1="99" x2="99" y1="368.5" y2="1052.5" class="net_17"/>
  <line x1="99" x2="244" y1="1052.5" y2="1052.5" class="net_17"/>
  <line x1="82" x2="109" y1="388.5" y2="388.5" class="net_3"/>
  <line x1="109" x2="109" y1="388.5" y2="100.5" class="net_3"/>
  <line x1="109" x2="250" y1="100.5" y2="100.5" class="net_3"/>
  <line x1="82" x2="119" y1="408.5" y2="408.5" class="net_4"/>
  <line x1="119" x2="119" y1="408.5" y2="168.5" class="net_4"/>
  <line x1="119" x2="250" y1="168.5" y2="168.5" class="net_4"/>
  <line x1="82" x2="139" y1="428.5" y2="428.5" class="net_5"/>
  <line x1="139" x2="139" y1="428.5" y2="236.5" class="net_5"/>
  <line x1="139" x2="250" y1="236.5" y2="236.5" class="net_5"/>
  <line x1="82" x2="159" y1="448.5" y2="448.5" class="net_6"/>
  <line x1="159" x2="159" y1="448.5" y2="304.5" class="net_6"/>
  <line x1="159" x2="250" y1="304.5" y2="304.5" class="net_6"/>
  <line x1="82" x2="179" y1="468.5" y2="468.5" class="net_7"/>
  <line x1="179" x2="179" y1="468.5" y2="372.5" class="net_7"/>
  <line x1="179" x2="250" y1="372.5" y2="372.5" class="net_7"/>
  <line x1="82" x2="199" y1="488.5" y2="488.5" class="net_8"/>
  <line x1="199" x2="199" y1="488.5" y2="440.5" class="net_8"/>
  <line x1="199" x2="250" y1="440.5" y2="440.5" class="net_8"/>
  <line x1="82" x2="250" y1="508.5" y2="508.5" class="net_9"/>
  <line x1="81.5" x2="81.5" y1="529" y2="576.5" class="net_10"/>
  <line x1="81.5" x2="250" y1="576.5" y2="576.5" class="net_10"/>
  <line x1="81.5" x2="81.5" y1="549" y2="644.5" class="net_11"/>
  <line x1="81.5" x2="250" y1="644.5" y2="644.5" class="net_11"/>
  <line x1="557" x2="592" y1="666.5" y2="666.5" class="net_18,19,20,21,22,23,24,25,26,27,28,29,30,31,32,33"/>
  <line x1="281" x2="551.5" y1="32.5" y2="32.5" class="net_18"/>
  <line x1="551.5" x2="551.5" y1="32.5" y2="656" class="net_18"/>
  <line x1="281" x2="551.5" y1="100.5" y2="100.5" class="net_19"/>
  <line x1="551.5" x2="551.5" y1="100.5" y2="676" class="net_19"/>
  <line x1="281" x2="534" y1="168.5" y2="168.5" class="net_20"/>
  <line x1="534" x2="534" y1="168.5" y2="696.5" class="net_20"/>
  <line x1="534" x2="551" y1="696.5" y2="696.5" class="net_20"/>
  <line x1="281" x2="524" y1="236.5" y2="236.5" class="net_21"/>
  <line x1="524" x2="524" y1="236.5" y2="716.5" class="net_21"/>
  <line x1="524" x2="551" y1="716.5" y2="716.5" class="net_21"/>
  <line x1="281" x2="514" y1="304.5" y2="304.5" class="net_22"/>
  <line x1="514" x2="514" y1="304.5" y2="736.5" class="net_22"/>
  <line x1="514" x2="551" y1="736.5" y2="736.5" class="net_22"/>
  <line x1="281" x2="504" y1="372.5" y2="372.5" class="net_23"/>
  <line x1="504" x2="504" y1="372.5" y2="756.5" class="net_23"/>
  <line x1="504" x2="551" y1="756.5" y2="756.5" class="net_23"/>
  <line x1="281" x2="494" y1="440.5" y2="440.5" class="net_24"/>
  <line x1="494" x2="494" y1="440.5" y2="776.5" class="net_24"/>
  <line x1="494" x2="551" y1="776.5" y2="776.5" class="net_24"/>
  <line x1="281" x2="484" y1="508.5" y2="508.5" class="net_25"/>
  <line x1="484" x2="484" y1="508.5" y2="796.5" class="net_25"/>
  <line x1="484" x2="551" y1="796.5" y2="796.5" class="net_25"/>
  <line x1="281" x2="474" y1="576.5" y2="576.5" class="net_26"/>
  <line x1="474" x2="474" y1="576.5" y2="816.5" class="net_26"/>
  <line x1="474" x2="551" y1="816.5" y2="816.5" class="net_26"/>
  <line x1="281" x2="464" y1="644.5" y2="644.5" class="net_27"/>
  <line x1="464" x2="464" y1="644.5" y2="836.5" class="net_27"/>
  <line x1="464" x2="551" y1="836.5" y2="836.5" class="net_27"/>
  <line x1="275" x2="454" y1="712.5" y2="712.5" class="net_28"/>
  <line x1="454" x2="454" y1="712.5" y2="856.5" class="net_28"/>
  <line x1="454" x2="551" y1="856.5" y2="856.5" class="net_28"/>
  <line x1="275" x2="444" y1="780.5" y2="780.5" class="net_29"/>
  <line x1="444" x2="444" y1="780.5" y2="876.5" class="net_29"/>
  <line x1="444" x2="551" y1="876.5" y2="876.5" class="net_29"/>
  <line x1="275" x2="434" y1="848.5" y2="848.5" class="net_30"/>
  <line x1="434" x2="434" y1="848.5" y2="896.5" class="net_30"/>
  <line x1="434" x2="551" y1="896.5" y2="896.5" class="net_30"/>
  <line x1="275" x2="551" y1="916.5" y2="916.5" class="net_31"/>
  <line x1="275" x2="551.5" y1="984.5" y2="984.5" class="net_32"/>
  <line x1="551.5" x2="551.5" y1="984.5" y2="937" class="net_32"/>
  <line x1="275" x2="551.5" y1="1052.5" y2="1052.5" class="net_33"/>
  <line x1="551.5" x2="551.5" y1="1052.5" y2="957" class="net_33"/>
  <line x1="40" x2="77.5" y1="216" y2="216" class="net_2,3,4,5,6,7,8,9,10,11,12,13,14,15,16,17"/>
  <line x1="77.5" x2="77.5" y1="216" y2="258" class="net_2,3,4,5,6,7,8,9,10,11,12,13,14,15,16,17"/>
</svg>
