<svg xmlns="http://www.w3.org/2000/svg" xmlns:xlink="http://www.w3.org/1999/xlink" xmlns:s="https://github.com/nturley/netlistsvg" width="359" height="119.5">
  <style>svg {
    stroke:#000;
    fill:none;
  }
  text {
    fill:#000;
    stroke:none;
    font-size:10px;
    font-weight: bold;
    font-family: "Courier New", monospace;
  }
  .nodelabel {
    text-anchor: middle;
  }
  .inputPortLabel {
    text-anchor: end;
  }
  .splitjoinBody {
    fill:#000;
  }</style>
  <g s:type="generic" transform="translate(144,22)" s:width="30" s:height="40" id="cell_u_decoder_logic">
    <text x="15" y="-4" class="nodelabel cell_u_decoder_logic" s:attribute="ref">control_unit_decoder_4to16</text>
    <rect width="30" height="40" s:generic="body" class="cell_u_decoder_logic"/>
    <g transform="translate(0,10)" s:x="0" s:y="10" s:pid="in0" id="port_u_decoder_logic~i_en">
      <text x="-3" y="-4" class="inputPortLabel cell_u_decoder_logic">i_en</text>
    </g>
    <g transform="translate(0,30)" s:x="0" s:y="10" s:pid="in0" id="port_u_decoder_logic~i_opcode">
      <text x="-3" y="-4" class="inputPortLabel cell_u_decoder_logic">i_opcode</text>
    </g>
    <g transform="translate(30,10)" s:x="30" s:y="10" s:pid="out0" id="port_u_decoder_logic~o_out">
      <text x="5" y="-4" style="fill:#000; stroke:none" class="cell_u_decoder_logic">o_out</text>
    </g>
  </g>
  <g s:type="inputExt" transform="translate(12,87.5)" s:width="30" s:height="20" id="cell_i_opcode">
    <text x="15" y="-4" class="nodelabel cell_i_opcode" s:attribute="ref">i_opcode</text>
    <s:alias val="$_inputExt_"/>
    <path d="M0,0 L0,20 L15,20 L30,10 L15,0 Z" class="cell_i_opcode"/>
    <g s:x="28" s:y="10" s:pid="Y"/>
  </g>
  <g s:type="outputExt" transform="translate(269,22.5)" s:width="30" s:height="20" id="cell_o_inst_onehot">
    <text x="15" y="-4" class="nodelabel cell_o_inst_onehot" s:attribute="ref">o_inst_onehot</text>
    <s:alias val="$_outputExt_"/>
    <path d="M30,0 L30,20 L15,20 L0,10 L15,0 Z" class="cell_o_inst_onehot"/>
    <g s:x="0" s:y="10" s:pid="A"/>
  </g>
  <g s:type="constant" transform="translate(12,22.5)" s:width="30" s:height="20" id="cell_1">
    <text x="15" y="-4" class="nodelabel cell_1" s:attribute="ref">1</text>
    <s:alias val="$_constant_"/>
    <rect width="30" height="20" class="cell_1"/>
    <g s:x="30" s:y="10" s:pid="Y"/>
  </g>
  <line x1="42" x2="144" y1="32.5" y2="32.5" class="net_22"/>
  <line x1="40" x2="70" y1="97.5" y2="97.5" class="net_2,3,4,5"/>
  <line x1="70" x2="70" y1="97.5" y2="52.5" class="net_2,3,4,5"/>
  <line x1="70" x2="144" y1="52.5" y2="52.5" class="net_2,3,4,5"/>
  <line x1="175" x2="269" y1="32.5" y2="32.5" class="net_6,7,8,9,10,11,12,13,14,15,16,17,18,19,20,21"/>
</svg>
