<svg xmlns="http://www.w3.org/2000/svg" xmlns:xlink="http://www.w3.org/1999/xlink" xmlns:s="https://github.com/nturley/netlistsvg" width="541" height="272">
  <style>svg {
    stroke:#000;
    fill:none;
  }
  text {
    fill:#000;
    stroke:none;
    font-size:10px;
    font-weight: bold;
    font-family: "Courier New", monospace;
  }
  .nodelabel {
    text-anchor: middle;
  }
  .inputPortLabel {
    text-anchor: end;
  }
  .splitjoinBody {
    fill:#000;
  }</style>
  <g s:type="or" transform="translate(283.3333333333333,165)" s:width="30" s:height="25" id="cell_$auto$simplemap.cc:106:simplemap_bitop$85">
    <s:alias val="$or"/>
    <s:alias val="$logic_or"/>
    <s:alias val="$_OR_"/>
    <path d="M0,25 L0,25 L15,25 A15 12.5 0 0 0 15,0 L0,0" class="cell_$auto$simplemap.cc:106:simplemap_bitop$85"/>
    <path d="M0,0 A30 25 0 0 1 0,25" class="cell_$auto$simplemap.cc:106:simplemap_bitop$85"/>
    <g s:x="3" s:y="5" s:pid="A"/>
    <g s:x="3" s:y="20" s:pid="B"/>
    <g s:x="30" s:y="12.5" s:pid="Y"/>
  </g>
  <g s:type="and" transform="translate(380,27.5)" s:width="30" s:height="25" id="cell_$auto$simplemap.cc:106:simplemap_bitop$86">
    <s:alias val="$and"/>
    <s:alias val="$logic_and"/>
    <s:alias val="$_AND_"/>
    <path d="M0,0 L0,25 L15,25 A15 12.5 0 0 0 15,0 Z" class="cell_$auto$simplemap.cc:106:simplemap_bitop$86"/>
    <g s:x="0" s:y="5" s:pid="A"/>
    <g s:x="0" s:y="20" s:pid="B"/>
    <g s:x="30" s:y="12.5" s:pid="Y"/>
  </g>
  <g s:type="generic" transform="translate(283,22)" s:width="30" s:height="40" id="cell_u_mux_cond">
    <text x="15" y="-4" class="nodelabel cell_u_mux_cond" s:attribute="ref">pc_control_mux_2to1</text>
    <rect width="30" height="60" s:generic="body" class="cell_u_mux_cond"/>
    <g transform="translate(0,10)" s:x="0" s:y="10" s:pid="in0" id="port_u_mux_cond~i_in0">
      <text x="-3" y="-4" class="inputPortLabel cell_u_mux_cond">i_in0</text>
    </g>
    <g transform="translate(0,30)" s:x="0" s:y="10" s:pid="in0" id="port_u_mux_cond~i_in1">
      <text x="-3" y="-4" class="inputPortLabel cell_u_mux_cond">i_in1</text>
    </g>
    <g transform="translate(0,50)" s:x="0" s:y="10" s:pid="in0" id="port_u_mux_cond~i_sel">
      <text x="-3" y="-4" class="inputPortLabel cell_u_mux_cond">i_sel</text>
    </g>
    <g transform="translate(30,10)" s:x="30" s:y="10" s:pid="out0" id="port_u_mux_cond~o_out">
      <text x="5" y="-4" style="fill:#000; stroke:none" class="cell_u_mux_cond">o_out</text>
    </g>
  </g>
  <g s:type="generic" transform="translate(114,22)" s:width="30" s:height="40" id="cell_u_xor">
    <text x="15" y="-4" class="nodelabel cell_u_xor" s:attribute="ref">pc_control_gate_xor</text>
    <rect width="30" height="40" s:generic="body" class="cell_u_xor"/>
    <g transform="translate(0,10)" s:x="0" s:y="10" s:pid="in0" id="port_u_xor~i_n">
      <text x="-3" y="-4" class="inputPortLabel cell_u_xor">i_n</text>
    </g>
    <g transform="translate(0,30)" s:x="0" s:y="10" s:pid="in0" id="port_u_xor~i_v">
      <text x="-3" y="-4" class="inputPortLabel cell_u_xor">i_v</text>
    </g>
    <g transform="translate(30,10)" s:x="30" s:y="10" s:pid="out0" id="port_u_xor~o_less_than">
      <text x="5" y="-4" style="fill:#000; stroke:none" class="cell_u_xor">o_less_than</text>
    </g>
  </g>
  <g s:type="inputExt" transform="translate(114,240)" s:width="30" s:height="20" id="cell_i_is_blt">
    <text x="15" y="-4" class="nodelabel cell_i_is_blt" s:attribute="ref">i_is_blt</text>
    <s:alias val="$_inputExt_"/>
    <path d="M0,0 L0,20 L15,20 L30,10 L15,0 Z" class="cell_i_is_blt"/>
    <g s:x="28" s:y="10" s:pid="Y"/>
  </g>
  <g s:type="inputExt" transform="translate(114,175)" s:width="30" s:height="20" id="cell_i_is_bz">
    <text x="15" y="-4" class="nodelabel cell_i_is_bz" s:attribute="ref">i_is_bz</text>
    <s:alias val="$_inputExt_"/>
    <path d="M0,0 L0,20 L15,20 L30,10 L15,0 Z" class="cell_i_is_bz"/>
    <g s:x="28" s:y="10" s:pid="Y"/>
  </g>
  <g s:type="inputExt" transform="translate(114,110)" s:width="30" s:height="20" id="cell_i_flag_z">
    <text x="15" y="-4" class="nodelabel cell_i_flag_z" s:attribute="ref">i_flag_z</text>
    <s:alias val="$_inputExt_"/>
    <path d="M0,0 L0,20 L15,20 L30,10 L15,0 Z" class="cell_i_flag_z"/>
    <g s:x="28" s:y="10" s:pid="Y"/>
  </g>
  <g s:type="inputExt" transform="translate(12,22.5)" s:width="30" s:height="20" id="cell_i_flag_n">
    <text x="15" y="-4" class="nodelabel cell_i_flag_n" s:attribute="ref">i_flag_n</text>
    <s:alias val="$_inputExt_"/>
    <path d="M0,0 L0,20 L15,20 L30,10 L15,0 Z" class="cell_i_flag_n"/>
    <g s:x="28" s:y="10" s:pid="Y"/>
  </g>
  <g s:type="inputExt" transform="translate(12,87.5)" s:width="30" s:height="20" id="cell_i_flag_v">
    <text x="15" y="-4" class="nodelabel cell_i_flag_v" s:attribute="ref">i_flag_v</text>
    <s:alias val="$_inputExt_"/>
    <path d="M0,0 L0,20 L15,20 L30,10 L15,0 Z" class="cell_i_flag_v"/>
    <g s:x="28" s:y="10" s:pid="Y"/>
  </g>
  <g s:type="outputExt" transform="translate(445,30)" s:width="30" s:height="20" id="cell_o_branch_taken">
    <text x="15" y="-4" class="nodelabel cell_o_branch_taken" s:attribute="ref">o_branch_taken</text>
    <s:alias val="$_outputExt_"/>
    <path d="M30,0 L30,20 L15,20 L0,10 L15,0 Z" class="cell_o_branch_taken"/>
    <g s:x="0" s:y="10" s:pid="A"/>
  </g>
  <line x1="142" x2="242" y1="250" y2="250" class="net_2"/>
  <line x1="242" x2="242" y1="250" y2="170" class="net_2"/>
  <line x1="242" x2="286.3333333333333" y1="170" y2="170" class="net_2"/>
  <line x1="142" x2="286.3333333333333" y1="185" y2="185" class="net_3"/>
  <line x1="142" x2="232" y1="185" y2="185" class="net_3"/>
  <line x1="232" x2="232" y1="185" y2="72.5" class="net_3"/>
  <circle cx="232" cy="185" r="2" style="fill:#000" class="net_3"/>
  <line x1="232" x2="283" y1="72.5" y2="72.5" class="net_3"/>
  <line x1="314" x2="380" y1="32.5" y2="32.5" class="net_9"/>
  <line x1="313.3333333333333" x2="355" y1="177.5" y2="177.5" class="net_8"/>
  <line x1="355" x2="355" y1="177.5" y2="47.5" class="net_8"/>
  <line x1="355" x2="380" y1="47.5" y2="47.5" class="net_8"/>
  <line x1="145" x2="283" y1="32.5" y2="32.5" class="net_10"/>
  <line x1="142" x2="222" y1="120" y2="120" class="net_4"/>
  <line x1="222" x2="222" y1="120" y2="52.5" class="net_4"/>
  <line x1="222" x2="283" y1="52.5" y2="52.5" class="net_4"/>
  <line x1="40" x2="114" y1="32.5" y2="32.5" class="net_5"/>
  <line x1="40" x2="70" y1="97.5" y2="97.5" class="net_6"/>
  <line x1="70" x2="70" y1="97.5" y2="52.5" class="net_6"/>
  <line x1="70" x2="114" y1="52.5" y2="52.5" class="net_6"/>
  <line x1="410" x2="445" y1="40" y2="40" class="net_7"/>
</svg>
