<svg xmlns="http://www.w3.org/2000/svg" xmlns:xlink="http://www.w3.org/1999/xlink" xmlns:s="https://github.com/nturley/netlistsvg" width="328" height="129">
  <style>svg {
    stroke:#000;
    fill:none;
  }
  text {
    fill:#000;
    stroke:none;
    font-size:10px;
    font-weight: bold;
    font-family: "Courier New", monospace;
  }
  .nodelabel {
    text-anchor: middle;
  }
  .inputPortLabel {
    text-anchor: end;
  }
  .splitjoinBody {
    fill:#000;
  }</style>
  <g s:type="or" transform="translate(139,27)" s:width="30" s:height="25" id="cell_$auto$simplemap.cc:106:simplemap_bitop$81">
    <s:alias val="$or"/>
    <s:alias val="$logic_or"/>
    <s:alias val="$_OR_"/>
    <path d="M0,25 L0,25 L15,25 A15 12.5 0 0 0 15,0 L0,0" class="cell_$auto$simplemap.cc:106:simplemap_bitop$81"/>
    <path d="M0,0 A30 25 0 0 1 0,25" class="cell_$auto$simplemap.cc:106:simplemap_bitop$81"/>
    <g s:x="3" s:y="5" s:pid="A"/>
    <g s:x="3" s:y="20" s:pid="B"/>
    <g s:x="30" s:y="12.5" s:pid="Y"/>
  </g>
  <g s:type="inputExt" transform="translate(12,22)" s:width="30" s:height="20" id="cell_i_branch_taken">
    <text x="15" y="-4" class="nodelabel cell_i_branch_taken" s:attribute="ref">i_branch_taken</text>
    <s:alias val="$_inputExt_"/>
    <path d="M0,0 L0,20 L15,20 L30,10 L15,0 Z" class="cell_i_branch_taken"/>
    <g s:x="28" s:y="10" s:pid="Y"/>
  </g>
  <g s:type="inputExt" transform="translate(12,87)" s:width="30" s:height="20" id="cell_i_is_jal">
    <text x="15" y="-4" class="nodelabel cell_i_is_jal" s:attribute="ref">i_is_jal</text>
    <s:alias val="$_inputExt_"/>
    <path d="M0,0 L0,20 L15,20 L30,10 L15,0 Z" class="cell_i_is_jal"/>
    <g s:x="28" s:y="10" s:pid="Y"/>
  </g>
  <g s:type="inputExt" transform="translate(131,97)" s:width="30" s:height="20" id="cell_i_is_jalr">
    <text x="15" y="-4" class="nodelabel cell_i_is_jalr" s:attribute="ref">i_is_jalr</text>
    <s:alias val="$_inputExt_"/>
    <path d="M0,0 L0,20 L15,20 L30,10 L15,0 Z" class="cell_i_is_jalr"/>
    <g s:x="28" s:y="10" s:pid="Y"/>
  </g>
  <g s:type="outputExt" transform="translate(268,39.5)" s:width="30" s:height="20" id="cell_o_pc_sel">
    <text x="15" y="-4" class="nodelabel cell_o_pc_sel" s:attribute="ref">o_pc_sel</text>
    <s:alias val="$_outputExt_"/>
    <path d="M30,0 L30,20 L15,20 L0,10 L15,0 Z" class="cell_o_pc_sel"/>
    <g s:x="0" s:y="10" s:pid="A"/>
  </g>
  <g s:type="join" transform="translate(227,29)" s:width="4" s:height="40" id="cell_$join$,5,4,">
    <rect width="5" height="40" class="splitjoinBody" s:generic="body"/>
    <s:alias val="$_join_"/>
    <g s:x="5" s:y="20" s:pid="out"/>
    <g transform="translate(0,10)" s:x="0" s:y="10" s:pid="in0">
      <text x="-3" y="-4" class="inputPortLabel">0</text>
    </g>
    <g transform="translate(0,30)" s:x="0" s:y="10" s:pid="in0">
      <text x="-3" y="-4" class="inputPortLabel">1</text>
    </g>
  </g>
  <line x1="40" x2="142" y1="32" y2="32" class="net_2"/>
  <line x1="40" x2="106" y1="97" y2="97" class="net_3"/>
  <line x1="106" x2="106" y1="97" y2="47" class="net_3"/>
  <line x1="106" x2="142" y1="47" y2="47" class="net_3"/>
  <line x1="233" x2="268" y1="49.5" y2="49.5" class="net_5,4"/>
  <line x1="169" x2="227" y1="39.5" y2="39.5" class="net_5"/>
  <line x1="159" x2="195" y1="107" y2="107" class="net_4"/>
  <line x1="195" x2="195" y1="107" y2="59.5" class="net_4"/>
  <line x1="195" x2="227" y1="59.5" y2="59.5" class="net_4"/>
</svg>
