<svg xmlns="http://www.w3.org/2000/svg" xmlns:xlink="http://www.w3.org/1999/xlink" xmlns:s="https://github.com/nturley/netlistsvg" width="327" height="249">
  <style>svg {
    stroke:#000;
    fill:none;
  }
  text {
    fill:#000;
    stroke:none;
    font-size:10px;
    font-weight: bold;
    font-family: "Courier New", monospace;
  }
  .nodelabel {
    text-anchor: middle;
  }
  .inputPortLabel {
    text-anchor: end;
  }
  .splitjoinBody {
    fill:#000;
  }</style>
  <g s:type="and" transform="translate(101,27)" s:width="30" s:height="25" id="cell_$auto$simplemap.cc:256:simplemap_logbin$81">
    <s:alias val="$and"/>
    <s:alias val="$logic_and"/>
    <s:alias val="$_AND_"/>
    <path d="M0,0 L0,25 L15,25 A15 12.5 0 0 0 15,0 Z" class="cell_$auto$simplemap.cc:256:simplemap_logbin$81"/>
    <g s:x="0" s:y="5" s:pid="A"/>
    <g s:x="0" s:y="20" s:pid="B"/>
    <g s:x="30" s:y="12.5" s:pid="Y"/>
  </g>
  <g s:type="and" transform="translate(101,157)" s:width="30" s:height="25" id="cell_$auto$simplemap.cc:256:simplemap_logbin$82">
    <s:alias val="$and"/>
    <s:alias val="$logic_and"/>
    <s:alias val="$_AND_"/>
    <path d="M0,0 L0,25 L15,25 A15 12.5 0 0 0 15,0 Z" class="cell_$auto$simplemap.cc:256:simplemap_logbin$82"/>
    <g s:x="0" s:y="5" s:pid="A"/>
    <g s:x="0" s:y="20" s:pid="B"/>
    <g s:x="30" s:y="12.5" s:pid="Y"/>
  </g>
  <g s:type="or" transform="translate(166,34.5)" s:width="30" s:height="25" id="cell_$auto$simplemap.cc:256:simplemap_logbin$83">
    <s:alias val="$or"/>
    <s:alias val="$logic_or"/>
    <s:alias val="$_OR_"/>
    <path d="M0,25 L0,25 L15,25 A15 12.5 0 0 0 15,0 L0,0" class="cell_$auto$simplemap.cc:256:simplemap_logbin$83"/>
    <path d="M0,0 A30 25 0 0 1 0,25" class="cell_$auto$simplemap.cc:256:simplemap_logbin$83"/>
    <g s:x="3" s:y="5" s:pid="A"/>
    <g s:x="3" s:y="20" s:pid="B"/>
    <g s:x="30" s:y="12.5" s:pid="Y"/>
  </g>
  <g s:type="inputExt" transform="translate(12,22)" s:width="30" s:height="20" id="cell_i_is_blt">
    <text x="15" y="-4" class="nodelabel cell_i_is_blt" s:attribute="ref">i_is_blt</text>
    <s:alias val="$_inputExt_"/>
    <path d="M0,0 L0,20 L15,20 L30,10 L15,0 Z" class="cell_i_is_blt"/>
    <g s:x="28" s:y="10" s:pid="Y"/>
  </g>
  <g s:type="inputExt" transform="translate(12,152)" s:width="30" s:height="20" id="cell_i_is_bz">
    <text x="15" y="-4" class="nodelabel cell_i_is_bz" s:attribute="ref">i_is_bz</text>
    <s:alias val="$_inputExt_"/>
    <path d="M0,0 L0,20 L15,20 L30,10 L15,0 Z" class="cell_i_is_bz"/>
    <g s:x="28" s:y="10" s:pid="Y"/>
  </g>
  <g s:type="inputExt" transform="translate(12,87)" s:width="30" s:height="20" id="cell_i_cond_lt">
    <text x="15" y="-4" class="nodelabel cell_i_cond_lt" s:attribute="ref">i_cond_lt</text>
    <s:alias val="$_inputExt_"/>
    <path d="M0,0 L0,20 L15,20 L30,10 L15,0 Z" class="cell_i_cond_lt"/>
    <g s:x="28" s:y="10" s:pid="Y"/>
  </g>
  <g s:type="inputExt" transform="translate(12,217)" s:width="30" s:height="20" id="cell_i_cond_z">
    <text x="15" y="-4" class="nodelabel cell_i_cond_z" s:attribute="ref">i_cond_z</text>
    <s:alias val="$_inputExt_"/>
    <path d="M0,0 L0,20 L15,20 L30,10 L15,0 Z" class="cell_i_cond_z"/>
    <g s:x="28" s:y="10" s:pid="Y"/>
  </g>
  <g s:type="outputExt" transform="translate(231,37)" s:width="30" s:height="20" id="cell_o_branch_taken">
    <text x="15" y="-4" class="nodelabel cell_o_branch_taken" s:attribute="ref">o_branch_taken</text>
    <s:alias val="$_outputExt_"/>
    <path d="M30,0 L30,20 L15,20 L0,10 L15,0 Z" class="cell_o_branch_taken"/>
    <g s:x="0" s:y="10" s:pid="A"/>
  </g>
  <line x1="40" x2="101" y1="32" y2="32" class="net_2"/>
  <line x1="40" x2="76" y1="97" y2="97" class="net_4"/>
  <line x1="76" x2="76" y1="97" y2="47" class="net_4"/>
  <line x1="76" x2="101" y1="47" y2="47" class="net_4"/>
  <line x1="40" x2="101" y1="162" y2="162" class="net_3"/>
  <line x1="40" x2="76" y1="227" y2="227" class="net_5"/>
  <line x1="76" x2="76" y1="227" y2="177" class="net_5"/>
  <line x1="76" x2="101" y1="177" y2="177" class="net_5"/>
  <line x1="131" x2="169" y1="39.5" y2="39.5" class="net_7"/>
  <line x1="131" x2="141" y1="169.5" y2="169.5" class="net_8"/>
  <line x1="141" x2="141" y1="169.5" y2="54.5" class="net_8"/>
  <line x1="141" x2="169" y1="54.5" y2="54.5" class="net_8"/>
  <line x1="196" x2="231" y1="47" y2="47" class="net_6"/>
</svg>
