<svg xmlns="http://www.w3.org/2000/svg" xmlns:xlink="http://www.w3.org/1999/xlink" xmlns:s="https://github.com/nturley/netlistsvg" width="495" height="204.5">
  <style>svg {
    stroke:#000;
    fill:none;
  }
  text {
    fill:#000;
    stroke:none;
    font-size:10px;
    font-weight: bold;
    font-family: "Courier New", monospace;
  }
  .nodelabel {
    text-anchor: middle;
  }
  .inputPortLabel {
    text-anchor: end;
  }
  .splitjoinBody {
    fill:#000;
  }</style>
  <g s:type="reduce_xor" transform="translate(110,37.5)" s:width="33" s:height="25" id="cell_$auto$simplemap.cc:106:simplemap_bitop$87">
    <s:alias val="$xor"/>
    <s:alias val="$reduce_xor"/>
    <s:alias val="$_XOR_"/>
    <path d="M3,0 A30 25 0 0 1 3,25 A30 25 0 0 0 33,12.5 A30 25 0 0 0 3,0" class="cell_$auto$simplemap.cc:106:simplemap_bitop$87"/>
    <path d="M0,0 A30 25 0 0 1 0,25" class="cell_$auto$simplemap.cc:106:simplemap_bitop$87"/>
    <g s:x="3" s:y="5" s:pid="A"/>
    <g s:x="3" s:y="20" s:pid="B"/>
    <g s:x="33" s:y="12.5" s:pid="Y"/>
  </g>
  <g s:type="and" transform="translate(334,27)" s:width="30" s:height="25" id="cell_$auto$simplemap.cc:106:simplemap_bitop$88">
    <s:alias val="$and"/>
    <s:alias val="$logic_and"/>
    <s:alias val="$_AND_"/>
    <path d="M0,0 L0,25 L15,25 A15 12.5 0 0 0 15,0 Z" class="cell_$auto$simplemap.cc:106:simplemap_bitop$88"/>
    <g s:x="0" s:y="5" s:pid="A"/>
    <g s:x="0" s:y="20" s:pid="B"/>
    <g s:x="30" s:y="12.5" s:pid="Y"/>
  </g>
  <g s:type="generic" transform="translate(239,87)" s:width="30" s:height="40" id="cell_u_mux_cond">
    <text x="15" y="-4" class="nodelabel cell_u_mux_cond" s:attribute="ref">pc_selector_mux2_1bit</text>
    <rect width="30" height="60" s:generic="body" class="cell_u_mux_cond"/>
    <g transform="translate(0,10)" s:x="0" s:y="10" s:pid="in0" id="port_u_mux_cond~i_d0">
      <text x="-3" y="-4" class="inputPortLabel cell_u_mux_cond">i_d0</text>
    </g>
    <g transform="translate(0,30)" s:x="0" s:y="10" s:pid="in0" id="port_u_mux_cond~i_d1">
      <text x="-3" y="-4" class="inputPortLabel cell_u_mux_cond">i_d1</text>
    </g>
    <g transform="translate(0,50)" s:x="0" s:y="10" s:pid="in0" id="port_u_mux_cond~i_sel">
      <text x="-3" y="-4" class="inputPortLabel cell_u_mux_cond">i_sel</text>
    </g>
    <g transform="translate(30,10)" s:x="30" s:y="10" s:pid="out0" id="port_u_mux_cond~o_q">
      <text x="5" y="-4" style="fill:#000; stroke:none" class="cell_u_mux_cond">o_q</text>
    </g>
  </g>
  <g s:type="inputExt" transform="translate(95,107.5)" s:width="30" s:height="20" id="cell_i_flag_z">
    <text x="15" y="-4" class="nodelabel cell_i_flag_z" s:attribute="ref">i_flag_z</text>
    <s:alias val="$_inputExt_"/>
    <path d="M0,0 L0,20 L15,20 L30,10 L15,0 Z" class="cell_i_flag_z"/>
    <g s:x="28" s:y="10" s:pid="Y"/>
  </g>
  <g s:type="inputExt" transform="translate(12,32.5)" s:width="30" s:height="20" id="cell_i_flag_n">
    <text x="15" y="-4" class="nodelabel cell_i_flag_n" s:attribute="ref">i_flag_n</text>
    <s:alias val="$_inputExt_"/>
    <path d="M0,0 L0,20 L15,20 L30,10 L15,0 Z" class="cell_i_flag_n"/>
    <g s:x="28" s:y="10" s:pid="Y"/>
  </g>
  <g s:type="inputExt" transform="translate(12,97.5)" s:width="30" s:height="20" id="cell_i_flag_v">
    <text x="15" y="-4" class="nodelabel cell_i_flag_v" s:attribute="ref">i_flag_v</text>
    <s:alias val="$_inputExt_"/>
    <path d="M0,0 L0,20 L15,20 L30,10 L15,0 Z" class="cell_i_flag_v"/>
    <g s:x="28" s:y="10" s:pid="Y"/>
  </g>
  <g s:type="inputExt" transform="translate(233,22)" s:width="30" s:height="20" id="cell_i_branch_en">
    <text x="15" y="-4" class="nodelabel cell_i_branch_en" s:attribute="ref">i_branch_en</text>
    <s:alias val="$_inputExt_"/>
    <path d="M0,0 L0,20 L15,20 L30,10 L15,0 Z" class="cell_i_branch_en"/>
    <g s:x="28" s:y="10" s:pid="Y"/>
  </g>
  <g s:type="inputExt" transform="translate(95,172.5)" s:width="30" s:height="20" id="cell_i_branch_type">
    <text x="15" y="-4" class="nodelabel cell_i_branch_type" s:attribute="ref">i_branch_type</text>
    <s:alias val="$_inputExt_"/>
    <path d="M0,0 L0,20 L15,20 L30,10 L15,0 Z" class="cell_i_branch_type"/>
    <g s:x="28" s:y="10" s:pid="Y"/>
  </g>
  <g s:type="outputExt" transform="translate(399,29.5)" s:width="30" s:height="20" id="cell_o_branch_taken">
    <text x="15" y="-4" class="nodelabel cell_o_branch_taken" s:attribute="ref">o_branch_taken</text>
    <s:alias val="$_outputExt_"/>
    <path d="M30,0 L30,20 L15,20 L0,10 L15,0 Z" class="cell_o_branch_taken"/>
    <g s:x="0" s:y="10" s:pid="A"/>
  </g>
  <line x1="40" x2="113" y1="42.5" y2="42.5" class="net_3"/>
  <line x1="40" x2="70" y1="107.5" y2="107.5" class="net_4"/>
  <line x1="70" x2="70" y1="107.5" y2="57.5" class="net_4"/>
  <line x1="70" x2="113" y1="57.5" y2="57.5" class="net_4"/>
  <line x1="261" x2="334" y1="32" y2="32" class="net_5"/>
  <line x1="270" x2="309" y1="97.5" y2="97.5" class="net_9"/>
  <line x1="309" x2="309" y1="97.5" y2="47" class="net_9"/>
  <line x1="309" x2="334" y1="47" y2="47" class="net_9"/>
  <line x1="143" x2="183" y1="50" y2="50" class="net_8"/>
  <line x1="183" x2="183" y1="50" y2="97.5" class="net_8"/>
  <line x1="183" x2="239" y1="97.5" y2="97.5" class="net_8"/>
  <line x1="123" x2="239" y1="117.5" y2="117.5" class="net_2"/>
  <line x1="123" x2="183" y1="182.5" y2="182.5" class="net_6"/>
  <line x1="183" x2="183" y1="182.5" y2="137.5" class="net_6"/>
  <line x1="183" x2="239" y1="137.5" y2="137.5" class="net_6"/>
  <line x1="364" x2="399" y1="39.5" y2="39.5" class="net_7"/>
</svg>
