<svg xmlns="http://www.w3.org/2000/svg" xmlns:xlink="http://www.w3.org/1999/xlink" xmlns:s="https://github.com/nturley/netlistsvg" width="576" height="1717">
  <style>svg {
    stroke:#000;
    fill:none;
  }
  text {
    fill:#000;
    stroke:none;
    font-size:10px;
    font-weight: bold;
    font-family: "Courier New", monospace;
  }
  .nodelabel {
    text-anchor: middle;
  }
  .inputPortLabel {
    text-anchor: end;
  }
  .splitjoinBody {
    fill:#000;
  }</style>
  <g s:type="generic" transform="translate(248,22)" s:width="30" s:height="40" id="cell_gen_sext_i[0].bit_data.u_bit">
    <text x="15" y="-4" class="nodelabel cell_gen_sext_i[0].bit_data.u_bit" s:attribute="ref">imm_gen_bit_ext</text>
    <rect width="30" height="60" s:generic="body" class="cell_gen_sext_i[0].bit_data.u_bit"/>
    <g transform="translate(0,10)" s:x="0" s:y="10" s:pid="in0" id="port_gen_sext_i[0].bit_data.u_bit~i_inst_bit">
      <text x="-3" y="-4" class="inputPortLabel cell_gen_sext_i[0].bit_data.u_bit">i_inst_bit</text>
    </g>
    <g transform="translate(0,30)" s:x="0" s:y="10" s:pid="in0" id="port_gen_sext_i[0].bit_data.u_bit~i_is_ext_zone">
      <text x="-3" y="-4" class="inputPortLabel cell_gen_sext_i[0].bit_data.u_bit">i_is_ext_zone</text>
    </g>
    <g transform="translate(0,50)" s:x="0" s:y="10" s:pid="in0" id="port_gen_sext_i[0].bit_data.u_bit~i_sign_bit">
      <text x="-3" y="-4" class="inputPortLabel cell_gen_sext_i[0].bit_data.u_bit">i_sign_bit</text>
    </g>
    <g transform="translate(30,10)" s:x="30" s:y="10" s:pid="out0" id="port_gen_sext_i[0].bit_data.u_bit~o_bit">
      <text x="5" y="-4" style="fill:#000; stroke:none" class="cell_gen_sext_i[0].bit_data.u_bit">o_bit</text>
    </g>
  </g>
  <g s:type="generic" transform="translate(248,1102)" s:width="30" s:height="40" id="cell_gen_sext_i[10].bit_ext.u_bit">
    <text x="15" y="-4" class="nodelabel cell_gen_sext_i[10].bit_ext.u_bit" s:attribute="ref">imm_gen_bit_ext</text>
    <rect width="30" height="60" s:generic="body" class="cell_gen_sext_i[10].bit_ext.u_bit"/>
    <g transform="translate(0,10)" s:x="0" s:y="10" s:pid="in0" id="port_gen_sext_i[10].bit_ext.u_bit~i_inst_bit">
      <text x="-3" y="-4" class="inputPortLabel cell_gen_sext_i[10].bit_ext.u_bit">i_inst_bit</text>
    </g>
    <g transform="translate(0,30)" s:x="0" s:y="10" s:pid="in0" id="port_gen_sext_i[10].bit_ext.u_bit~i_is_ext_zone">
      <text x="-3" y="-4" class="inputPortLabel cell_gen_sext_i[10].bit_ext.u_bit">i_is_ext_zone</text>
    </g>
    <g transform="translate(0,50)" s:x="0" s:y="10" s:pid="in0" id="port_gen_sext_i[10].bit_ext.u_bit~i_sign_bit">
      <text x="-3" y="-4" class="inputPortLabel cell_gen_sext_i[10].bit_ext.u_bit">i_sign_bit</text>
    </g>
    <g transform="translate(30,10)" s:x="30" s:y="10" s:pid="out0" id="port_gen_sext_i[10].bit_ext.u_bit~o_bit">
      <text x="5" y="-4" style="fill:#000; stroke:none" class="cell_gen_sext_i[10].bit_ext.u_bit">o_bit</text>
    </g>
  </g>
  <g s:type="generic" transform="translate(248,1210)" s:width="30" s:height="40" id="cell_gen_sext_i[11].bit_ext.u_bit">
    <text x="15" y="-4" class="nodelabel cell_gen_sext_i[11].bit_ext.u_bit" s:attribute="ref">imm_gen_bit_ext</text>
    <rect width="30" height="60" s:generic="body" class="cell_gen_sext_i[11].bit_ext.u_bit"/>
    <g transform="translate(0,10)" s:x="0" s:y="10" s:pid="in0" id="port_gen_sext_i[11].bit_ext.u_bit~i_inst_bit">
      <text x="-3" y="-4" class="inputPortLabel cell_gen_sext_i[11].bit_ext.u_bit">i_inst_bit</text>
    </g>
    <g transform="translate(0,30)" s:x="0" s:y="10" s:pid="in0" id="port_gen_sext_i[11].bit_ext.u_bit~i_is_ext_zone">
      <text x="-3" y="-4" class="inputPortLabel cell_gen_sext_i[11].bit_ext.u_bit">i_is_ext_zone</text>
    </g>
    <g transform="translate(0,50)" s:x="0" s:y="10" s:pid="in0" id="port_gen_sext_i[11].bit_ext.u_bit~i_sign_bit">
      <text x="-3" y="-4" class="inputPortLabel cell_gen_sext_i[11].bit_ext.u_bit">i_sign_bit</text>
    </g>
    <g transform="translate(30,10)" s:x="30" s:y="10" s:pid="out0" id="port_gen_sext_i[11].bit_ext.u_bit~o_bit">
      <text x="5" y="-4" style="fill:#000; stroke:none" class="cell_gen_sext_i[11].bit_ext.u_bit">o_bit</text>
    </g>
  </g>
  <g s:type="generic" transform="translate(248,1318)" s:width="30" s:height="40" id="cell_gen_sext_i[12].bit_ext.u_bit">
    <text x="15" y="-4" class="nodelabel cell_gen_sext_i[12].bit_ext.u_bit" s:attribute="ref">imm_gen_bit_ext</text>
    <rect width="30" height="60" s:generic="body" class="cell_gen_sext_i[12].bit_ext.u_bit"/>
    <g transform="translate(0,10)" s:x="0" s:y="10" s:pid="in0" id="port_gen_sext_i[12].bit_ext.u_bit~i_inst_bit">
      <text x="-3" y="-4" class="inputPortLabel cell_gen_sext_i[12].bit_ext.u_bit">i_inst_bit</text>
    </g>
    <g transform="translate(0,30)" s:x="0" s:y="10" s:pid="in0" id="port_gen_sext_i[12].bit_ext.u_bit~i_is_ext_zone">
      <text x="-3" y="-4" class="inputPortLabel cell_gen_sext_i[12].bit_ext.u_bit">i_is_ext_zone</text>
    </g>
    <g transform="translate(0,50)" s:x="0" s:y="10" s:pid="in0" id="port_gen_sext_i[12].bit_ext.u_bit~i_sign_bit">
      <text x="-3" y="-4" class="inputPortLabel cell_gen_sext_i[12].bit_ext.u_bit">i_sign_bit</text>
    </g>
    <g transform="translate(30,10)" s:x="30" s:y="10" s:pid="out0" id="port_gen_sext_i[12].bit_ext.u_bit~o_bit">
      <text x="5" y="-4" style="fill:#000; stroke:none" class="cell_gen_sext_i[12].bit_ext.u_bit">o_bit</text>
    </g>
  </g>
  <g s:type="generic" transform="translate(248,1426)" s:width="30" s:height="40" id="cell_gen_sext_i[13].bit_ext.u_bit">
    <text x="15" y="-4" class="nodelabel cell_gen_sext_i[13].bit_ext.u_bit" s:attribute="ref">imm_gen_bit_ext</text>
    <rect width="30" height="60" s:generic="body" class="cell_gen_sext_i[13].bit_ext.u_bit"/>
    <g transform="translate(0,10)" s:x="0" s:y="10" s:pid="in0" id="port_gen_sext_i[13].bit_ext.u_bit~i_inst_bit">
      <text x="-3" y="-4" class="inputPortLabel cell_gen_sext_i[13].bit_ext.u_bit">i_inst_bit</text>
    </g>
    <g transform="translate(0,30)" s:x="0" s:y="10" s:pid="in0" id="port_gen_sext_i[13].bit_ext.u_bit~i_is_ext_zone">
      <text x="-3" y="-4" class="inputPortLabel cell_gen_sext_i[13].bit_ext.u_bit">i_is_ext_zone</text>
    </g>
    <g transform="translate(0,50)" s:x="0" s:y="10" s:pid="in0" id="port_gen_sext_i[13].bit_ext.u_bit~i_sign_bit">
      <text x="-3" y="-4" class="inputPortLabel cell_gen_sext_i[13].bit_ext.u_bit">i_sign_bit</text>
    </g>
    <g transform="translate(30,10)" s:x="30" s:y="10" s:pid="out0" id="port_gen_sext_i[13].bit_ext.u_bit~o_bit">
      <text x="5" y="-4" style="fill:#000; stroke:none" class="cell_gen_sext_i[13].bit_ext.u_bit">o_bit</text>
    </g>
  </g>
  <g s:type="generic" transform="translate(248,1642)" s:width="30" s:height="40" id="cell_gen_sext_i[14].bit_ext.u_bit">
    <text x="15" y="-4" class="nodelabel cell_gen_sext_i[14].bit_ext.u_bit" s:attribute="ref">imm_gen_bit_ext</text>
    <rect width="30" height="60" s:generic="body" class="cell_gen_sext_i[14].bit_ext.u_bit"/>
    <g transform="translate(0,10)" s:x="0" s:y="10" s:pid="in0" id="port_gen_sext_i[14].bit_ext.u_bit~i_inst_bit">
      <text x="-3" y="-4" class="inputPortLabel cell_gen_sext_i[14].bit_ext.u_bit">i_inst_bit</text>
    </g>
    <g transform="translate(0,30)" s:x="0" s:y="10" s:pid="in0" id="port_gen_sext_i[14].bit_ext.u_bit~i_is_ext_zone">
      <text x="-3" y="-4" class="inputPortLabel cell_gen_sext_i[14].bit_ext.u_bit">i_is_ext_zone</text>
    </g>
    <g transform="translate(0,50)" s:x="0" s:y="10" s:pid="in0" id="port_gen_sext_i[14].bit_ext.u_bit~i_sign_bit">
      <text x="-3" y="-4" class="inputPortLabel cell_gen_sext_i[14].bit_ext.u_bit">i_sign_bit</text>
    </g>
    <g transform="translate(30,10)" s:x="30" s:y="10" s:pid="out0" id="port_gen_sext_i[14].bit_ext.u_bit~o_bit">
      <text x="5" y="-4" style="fill:#000; stroke:none" class="cell_gen_sext_i[14].bit_ext.u_bit">o_bit</text>
    </g>
  </g>
  <g s:type="generic" transform="translate(248,1534)" s:width="30" s:height="40" id="cell_gen_sext_i[15].bit_ext.u_bit">
    <text x="15" y="-4" class="nodelabel cell_gen_sext_i[15].bit_ext.u_bit" s:attribute="ref">imm_gen_bit_ext</text>
    <rect width="30" height="60" s:generic="body" class="cell_gen_sext_i[15].bit_ext.u_bit"/>
    <g transform="translate(0,10)" s:x="0" s:y="10" s:pid="in0" id="port_gen_sext_i[15].bit_ext.u_bit~i_inst_bit">
      <text x="-3" y="-4" class="inputPortLabel cell_gen_sext_i[15].bit_ext.u_bit">i_inst_bit</text>
    </g>
    <g transform="translate(0,30)" s:x="0" s:y="10" s:pid="in0" id="port_gen_sext_i[15].bit_ext.u_bit~i_is_ext_zone">
      <text x="-3" y="-4" class="inputPortLabel cell_gen_sext_i[15].bit_ext.u_bit">i_is_ext_zone</text>
    </g>
    <g transform="translate(0,50)" s:x="0" s:y="10" s:pid="in0" id="port_gen_sext_i[15].bit_ext.u_bit~i_sign_bit">
      <text x="-3" y="-4" class="inputPortLabel cell_gen_sext_i[15].bit_ext.u_bit">i_sign_bit</text>
    </g>
    <g transform="translate(30,10)" s:x="30" s:y="10" s:pid="out0" id="port_gen_sext_i[15].bit_ext.u_bit~o_bit">
      <text x="5" y="-4" style="fill:#000; stroke:none" class="cell_gen_sext_i[15].bit_ext.u_bit">o_bit</text>
    </g>
  </g>
  <g s:type="generic" transform="translate(248,130)" s:width="30" s:height="40" id="cell_gen_sext_i[1].bit_data.u_bit">
    <text x="15" y="-4" class="nodelabel cell_gen_sext_i[1].bit_data.u_bit" s:attribute="ref">imm_gen_bit_ext</text>
    <rect width="30" height="60" s:generic="body" class="cell_gen_sext_i[1].bit_data.u_bit"/>
    <g transform="translate(0,10)" s:x="0" s:y="10" s:pid="in0" id="port_gen_sext_i[1].bit_data.u_bit~i_inst_bit">
      <text x="-3" y="-4" class="inputPortLabel cell_gen_sext_i[1].bit_data.u_bit">i_inst_bit</text>
    </g>
    <g transform="translate(0,30)" s:x="0" s:y="10" s:pid="in0" id="port_gen_sext_i[1].bit_data.u_bit~i_is_ext_zone">
      <text x="-3" y="-4" class="inputPortLabel cell_gen_sext_i[1].bit_data.u_bit">i_is_ext_zone</text>
    </g>
    <g transform="translate(0,50)" s:x="0" s:y="10" s:pid="in0" id="port_gen_sext_i[1].bit_data.u_bit~i_sign_bit">
      <text x="-3" y="-4" class="inputPortLabel cell_gen_sext_i[1].bit_data.u_bit">i_sign_bit</text>
    </g>
    <g transform="translate(30,10)" s:x="30" s:y="10" s:pid="out0" id="port_gen_sext_i[1].bit_data.u_bit~o_bit">
      <text x="5" y="-4" style="fill:#000; stroke:none" class="cell_gen_sext_i[1].bit_data.u_bit">o_bit</text>
    </g>
  </g>
  <g s:type="generic" transform="translate(248,238)" s:width="30" s:height="40" id="cell_gen_sext_i[2].bit_data.u_bit">
    <text x="15" y="-4" class="nodelabel cell_gen_sext_i[2].bit_data.u_bit" s:attribute="ref">imm_gen_bit_ext</text>
    <rect width="30" height="60" s:generic="body" class="cell_gen_sext_i[2].bit_data.u_bit"/>
    <g transform="translate(0,10)" s:x="0" s:y="10" s:pid="in0" id="port_gen_sext_i[2].bit_data.u_bit~i_inst_bit">
      <text x="-3" y="-4" class="inputPortLabel cell_gen_sext_i[2].bit_data.u_bit">i_inst_bit</text>
    </g>
    <g transform="translate(0,30)" s:x="0" s:y="10" s:pid="in0" id="port_gen_sext_i[2].bit_data.u_bit~i_is_ext_zone">
      <text x="-3" y="-4" class="inputPortLabel cell_gen_sext_i[2].bit_data.u_bit">i_is_ext_zone</text>
    </g>
    <g transform="translate(0,50)" s:x="0" s:y="10" s:pid="in0" id="port_gen_sext_i[2].bit_data.u_bit~i_sign_bit">
      <text x="-3" y="-4" class="inputPortLabel cell_gen_sext_i[2].bit_data.u_bit">i_sign_bit</text>
    </g>
    <g transform="translate(30,10)" s:x="30" s:y="10" s:pid="out0" id="port_gen_sext_i[2].bit_data.u_bit~o_bit">
      <text x="5" y="-4" style="fill:#000; stroke:none" class="cell_gen_sext_i[2].bit_data.u_bit">o_bit</text>
    </g>
  </g>
  <g s:type="generic" transform="translate(248,346)" s:width="30" s:height="40" id="cell_gen_sext_i[3].bit_data.u_bit">
    <text x="15" y="-4" class="nodelabel cell_gen_sext_i[3].bit_data.u_bit" s:attribute="ref">imm_gen_bit_ext</text>
    <rect width="30" height="60" s:generic="body" class="cell_gen_sext_i[3].bit_data.u_bit"/>
    <g transform="translate(0,10)" s:x="0" s:y="10" s:pid="in0" id="port_gen_sext_i[3].bit_data.u_bit~i_inst_bit">
      <text x="-3" y="-4" class="inputPortLabel cell_gen_sext_i[3].bit_data.u_bit">i_inst_bit</text>
    </g>
    <g transform="translate(0,30)" s:x="0" s:y="10" s:pid="in0" id="port_gen_sext_i[3].bit_data.u_bit~i_is_ext_zone">
      <text x="-3" y="-4" class="inputPortLabel cell_gen_sext_i[3].bit_data.u_bit">i_is_ext_zone</text>
    </g>
    <g transform="translate(0,50)" s:x="0" s:y="10" s:pid="in0" id="port_gen_sext_i[3].bit_data.u_bit~i_sign_bit">
      <text x="-3" y="-4" class="inputPortLabel cell_gen_sext_i[3].bit_data.u_bit">i_sign_bit</text>
    </g>
    <g transform="translate(30,10)" s:x="30" s:y="10" s:pid="out0" id="port_gen_sext_i[3].bit_data.u_bit~o_bit">
      <text x="5" y="-4" style="fill:#000; stroke:none" class="cell_gen_sext_i[3].bit_data.u_bit">o_bit</text>
    </g>
  </g>
  <g s:type="generic" transform="translate(254,454)" s:width="30" s:height="40" id="cell_gen_sext_i[4].bit_ext.u_bit">
    <text x="15" y="-4" class="nodelabel cell_gen_sext_i[4].bit_ext.u_bit" s:attribute="ref">imm_gen_bit_ext</text>
    <rect width="30" height="60" s:generic="body" class="cell_gen_sext_i[4].bit_ext.u_bit"/>
    <g transform="translate(0,10)" s:x="0" s:y="10" s:pid="in0" id="port_gen_sext_i[4].bit_ext.u_bit~i_inst_bit">
      <text x="-3" y="-4" class="inputPortLabel cell_gen_sext_i[4].bit_ext.u_bit">i_inst_bit</text>
    </g>
    <g transform="translate(0,30)" s:x="0" s:y="10" s:pid="in0" id="port_gen_sext_i[4].bit_ext.u_bit~i_is_ext_zone">
      <text x="-3" y="-4" class="inputPortLabel cell_gen_sext_i[4].bit_ext.u_bit">i_is_ext_zone</text>
    </g>
    <g transform="translate(0,50)" s:x="0" s:y="10" s:pid="in0" id="port_gen_sext_i[4].bit_ext.u_bit~i_sign_bit">
      <text x="-3" y="-4" class="inputPortLabel cell_gen_sext_i[4].bit_ext.u_bit">i_sign_bit</text>
    </g>
    <g transform="translate(30,10)" s:x="30" s:y="10" s:pid="out0" id="port_gen_sext_i[4].bit_ext.u_bit~o_bit">
      <text x="5" y="-4" style="fill:#000; stroke:none" class="cell_gen_sext_i[4].bit_ext.u_bit">o_bit</text>
    </g>
  </g>
  <g s:type="generic" transform="translate(254,562)" s:width="30" s:height="40" id="cell_gen_sext_i[5].bit_ext.u_bit">
    <text x="15" y="-4" class="nodelabel cell_gen_sext_i[5].bit_ext.u_bit" s:attribute="ref">imm_gen_bit_ext</text>
    <rect width="30" height="60" s:generic="body" class="cell_gen_sext_i[5].bit_ext.u_bit"/>
    <g transform="translate(0,10)" s:x="0" s:y="10" s:pid="in0" id="port_gen_sext_i[5].bit_ext.u_bit~i_inst_bit">
      <text x="-3" y="-4" class="inputPortLabel cell_gen_sext_i[5].bit_ext.u_bit">i_inst_bit</text>
    </g>
    <g transform="translate(0,30)" s:x="0" s:y="10" s:pid="in0" id="port_gen_sext_i[5].bit_ext.u_bit~i_is_ext_zone">
      <text x="-3" y="-4" class="inputPortLabel cell_gen_sext_i[5].bit_ext.u_bit">i_is_ext_zone</text>
    </g>
    <g transform="translate(0,50)" s:x="0" s:y="10" s:pid="in0" id="port_gen_sext_i[5].bit_ext.u_bit~i_sign_bit">
      <text x="-3" y="-4" class="inputPortLabel cell_gen_sext_i[5].bit_ext.u_bit">i_sign_bit</text>
    </g>
    <g transform="translate(30,10)" s:x="30" s:y="10" s:pid="out0" id="port_gen_sext_i[5].bit_ext.u_bit~o_bit">
      <text x="5" y="-4" style="fill:#000; stroke:none" class="cell_gen_sext_i[5].bit_ext.u_bit">o_bit</text>
    </g>
  </g>
  <g s:type="generic" transform="translate(254,670)" s:width="30" s:height="40" id="cell_gen_sext_i[6].bit_ext.u_bit">
    <text x="15" y="-4" class="nodelabel cell_gen_sext_i[6].bit_ext.u_bit" s:attribute="ref">imm_gen_bit_ext</text>
    <rect width="30" height="60" s:generic="body" class="cell_gen_sext_i[6].bit_ext.u_bit"/>
    <g transform="translate(0,10)" s:x="0" s:y="10" s:pid="in0" id="port_gen_sext_i[6].bit_ext.u_bit~i_inst_bit">
      <text x="-3" y="-4" class="inputPortLabel cell_gen_sext_i[6].bit_ext.u_bit">i_inst_bit</text>
    </g>
    <g transform="translate(0,30)" s:x="0" s:y="10" s:pid="in0" id="port_gen_sext_i[6].bit_ext.u_bit~i_is_ext_zone">
      <text x="-3" y="-4" class="inputPortLabel cell_gen_sext_i[6].bit_ext.u_bit">i_is_ext_zone</text>
    </g>
    <g transform="translate(0,50)" s:x="0" s:y="10" s:pid="in0" id="port_gen_sext_i[6].bit_ext.u_bit~i_sign_bit">
      <text x="-3" y="-4" class="inputPortLabel cell_gen_sext_i[6].bit_ext.u_bit">i_sign_bit</text>
    </g>
    <g transform="translate(30,10)" s:x="30" s:y="10" s:pid="out0" id="port_gen_sext_i[6].bit_ext.u_bit~o_bit">
      <text x="5" y="-4" style="fill:#000; stroke:none" class="cell_gen_sext_i[6].bit_ext.u_bit">o_bit</text>
    </g>
  </g>
  <g s:type="generic" transform="translate(254,778)" s:width="30" s:height="40" id="cell_gen_sext_i[7].bit_ext.u_bit">
    <text x="15" y="-4" class="nodelabel cell_gen_sext_i[7].bit_ext.u_bit" s:attribute="ref">imm_gen_bit_ext</text>
    <rect width="30" height="60" s:generic="body" class="cell_gen_sext_i[7].bit_ext.u_bit"/>
    <g transform="translate(0,10)" s:x="0" s:y="10" s:pid="in0" id="port_gen_sext_i[7].bit_ext.u_bit~i_inst_bit">
      <text x="-3" y="-4" class="inputPortLabel cell_gen_sext_i[7].bit_ext.u_bit">i_inst_bit</text>
    </g>
    <g transform="translate(0,30)" s:x="0" s:y="10" s:pid="in0" id="port_gen_sext_i[7].bit_ext.u_bit~i_is_ext_zone">
      <text x="-3" y="-4" class="inputPortLabel cell_gen_sext_i[7].bit_ext.u_bit">i_is_ext_zone</text>
    </g>
    <g transform="translate(0,50)" s:x="0" s:y="10" s:pid="in0" id="port_gen_sext_i[7].bit_ext.u_bit~i_sign_bit">
      <text x="-3" y="-4" class="inputPortLabel cell_gen_sext_i[7].bit_ext.u_bit">i_sign_bit</text>
    </g>
    <g transform="translate(30,10)" s:x="30" s:y="10" s:pid="out0" id="port_gen_sext_i[7].bit_ext.u_bit~o_bit">
      <text x="5" y="-4" style="fill:#000; stroke:none" class="cell_gen_sext_i[7].bit_ext.u_bit">o_bit</text>
    </g>
  </g>
  <g s:type="generic" transform="translate(254,886)" s:width="30" s:height="40" id="cell_gen_sext_i[8].bit_ext.u_bit">
    <text x="15" y="-4" class="nodelabel cell_gen_sext_i[8].bit_ext.u_bit" s:attribute="ref">imm_gen_bit_ext</text>
    <rect width="30" height="60" s:generic="body" class="cell_gen_sext_i[8].bit_ext.u_bit"/>
    <g transform="translate(0,10)" s:x="0" s:y="10" s:pid="in0" id="port_gen_sext_i[8].bit_ext.u_bit~i_inst_bit">
      <text x="-3" y="-4" class="inputPortLabel cell_gen_sext_i[8].bit_ext.u_bit">i_inst_bit</text>
    </g>
    <g transform="translate(0,30)" s:x="0" s:y="10" s:pid="in0" id="port_gen_sext_i[8].bit_ext.u_bit~i_is_ext_zone">
      <text x="-3" y="-4" class="inputPortLabel cell_gen_sext_i[8].bit_ext.u_bit">i_is_ext_zone</text>
    </g>
    <g transform="translate(0,50)" s:x="0" s:y="10" s:pid="in0" id="port_gen_sext_i[8].bit_ext.u_bit~i_sign_bit">
      <text x="-3" y="-4" class="inputPortLabel cell_gen_sext_i[8].bit_ext.u_bit">i_sign_bit</text>
    </g>
    <g transform="translate(30,10)" s:x="30" s:y="10" s:pid="out0" id="port_gen_sext_i[8].bit_ext.u_bit~o_bit">
      <text x="5" y="-4" style="fill:#000; stroke:none" class="cell_gen_sext_i[8].bit_ext.u_bit">o_bit</text>
    </g>
  </g>
  <g s:type="generic" transform="translate(254,994)" s:width="30" s:height="40" id="cell_gen_sext_i[9].bit_ext.u_bit">
    <text x="15" y="-4" class="nodelabel cell_gen_sext_i[9].bit_ext.u_bit" s:attribute="ref">imm_gen_bit_ext</text>
    <rect width="30" height="60" s:generic="body" class="cell_gen_sext_i[9].bit_ext.u_bit"/>
    <g transform="translate(0,10)" s:x="0" s:y="10" s:pid="in0" id="port_gen_sext_i[9].bit_ext.u_bit~i_inst_bit">
      <text x="-3" y="-4" class="inputPortLabel cell_gen_sext_i[9].bit_ext.u_bit">i_inst_bit</text>
    </g>
    <g transform="translate(0,30)" s:x="0" s:y="10" s:pid="in0" id="port_gen_sext_i[9].bit_ext.u_bit~i_is_ext_zone">
      <text x="-3" y="-4" class="inputPortLabel cell_gen_sext_i[9].bit_ext.u_bit">i_is_ext_zone</text>
    </g>
    <g transform="translate(0,50)" s:x="0" s:y="10" s:pid="in0" id="port_gen_sext_i[9].bit_ext.u_bit~i_sign_bit">
      <text x="-3" y="-4" class="inputPortLabel cell_gen_sext_i[9].bit_ext.u_bit">i_sign_bit</text>
    </g>
    <g transform="translate(30,10)" s:x="30" s:y="10" s:pid="out0" id="port_gen_sext_i[9].bit_ext.u_bit~o_bit">
      <text x="5" y="-4" style="fill:#000; stroke:none" class="cell_gen_sext_i[9].bit_ext.u_bit">o_bit</text>
    </g>
  </g>
  <g s:type="inputExt" transform="translate(12,32.5)" s:width="30" s:height="20" id="cell_i_instr">
    <text x="15" y="-4" class="nodelabel cell_i_instr" s:attribute="ref">i_instr</text>
    <s:alias val="$_inputExt_"/>
    <path d="M0,0 L0,20 L15,20 L30,10 L15,0 Z" class="cell_i_instr"/>
    <g s:x="28" s:y="10" s:pid="Y"/>
  </g>
  <g s:type="outputExt" transform="translate(534,648.5)" s:width="30" s:height="20" id="cell_o_imm">
    <text x="15" y="-4" class="nodelabel cell_o_imm" s:attribute="ref">o_imm</text>
    <s:alias val="$_outputExt_"/>
    <path d="M30,0 L30,20 L15,20 L0,10 L15,0 Z" class="cell_o_imm"/>
    <g s:x="0" s:y="10" s:pid="A"/>
  </g>
  <g s:type="constant" transform="translate(89,454.5)" s:width="30" s:height="20" id="cell_0">
    <text x="15" y="-4" class="nodelabel cell_0" s:attribute="ref">0</text>
    <s:alias val="$_constant_"/>
    <rect width="30" height="20" class="cell_0"/>
    <g s:x="30" s:y="10" s:pid="Y"/>
  </g>
  <g s:type="constant" transform="translate(89,519.5)" s:width="30" s:height="20" id="cell_1">
    <text x="15" y="-4" class="nodelabel cell_1" s:attribute="ref">1</text>
    <s:alias val="$_constant_"/>
    <rect width="30" height="20" class="cell_1"/>
    <g s:x="30" s:y="10" s:pid="Y"/>
  </g>
  <g s:type="join" transform="translate(493,638)" s:width="4" s:height="40" id="cell_$join$,18,19,20,21,22,23,24,25,26,27,28,29,30,31,32,33,">
    <rect width="5" height="320" class="splitjoinBody" s:generic="body"/>
    <s:alias val="$_join_"/>
    <g s:x="5" s:y="20" s:pid="out"/>
    <g transform="translate(0,10)" s:x="0" s:y="10" s:pid="in0">
      <text x="-3" y="-4" class="inputPortLabel">0</text>
    </g>
    <g transform="translate(0,30)" s:x="0" s:y="10" s:pid="in0">
      <text x="-3" y="-4" class="inputPortLabel">1</text>
    </g>
    <g transform="translate(0,50)" s:x="0" s:y="10" s:pid="in0">
      <text x="-3" y="-4" class="inputPortLabel">2</text>
    </g>
    <g transform="translate(0,70)" s:x="0" s:y="10" s:pid="in0">
      <text x="-3" y="-4" class="inputPortLabel">3</text>
    </g>
    <g transform="translate(0,90)" s:x="0" s:y="10" s:pid="in0">
      <text x="-3" y="-4" class="inputPortLabel">4</text>
    </g>
    <g transform="translate(0,110)" s:x="0" s:y="10" s:pid="in0">
      <text x="-3" y="-4" class="inputPortLabel">5</text>
    </g>
    <g transform="translate(0,130)" s:x="0" s:y="10" s:pid="in0">
      <text x="-3" y="-4" class="inputPortLabel">6</text>
    </g>
    <g transform="translate(0,150)" s:x="0" s:y="10" s:pid="in0">
      <text x="-3" y="-4" class="inputPortLabel">7</text>
    </g>
    <g transform="translate(0,170)" s:x="0" s:y="10" s:pid="in0">
      <text x="-3" y="-4" class="inputPortLabel">8</text>
    </g>
    <g transform="translate(0,190)" s:x="0" s:y="10" s:pid="in0">
      <text x="-3" y="-4" class="inputPortLabel">9</text>
    </g>
    <g transform="translate(0,210)" s:x="0" s:y="10" s:pid="in0">
      <text x="-3" y="-4" class="inputPortLabel">10</text>
    </g>
    <g transform="translate(0,230)" s:x="0" s:y="10" s:pid="in0">
      <text x="-3" y="-4" class="inputPortLabel">11</text>
    </g>
    <g transform="translate(0,250)" s:x="0" s:y="10" s:pid="in0">
      <text x="-3" y="-4" class="inputPortLabel">12</text>
    </g>
    <g transform="translate(0,270)" s:x="0" s:y="10" s:pid="in0">
      <text x="-3" y="-4" class="inputPortLabel">13</text>
    </g>
    <g transform="translate(0,290)" s:x="0" s:y="10" s:pid="in0">
      <text x="-3" y="-4" class="inputPortLabel">14</text>
    </g>
    <g transform="translate(0,310)" s:x="0" s:y="10" s:pid="in0">
      <text x="-3" y="-4" class="inputPortLabel">15</text>
    </g>
  </g>
  <g s:type="split" transform="translate(104.8,22)" s:width="5" s:height="40" id="cell_$split$,2,3,4,5,6,7,8,9,10,11,12,13,14,15,16,17,">
    <rect width="5" height="80" class="splitjoinBody" s:generic="body"/>
    <s:alias val="$_split_"/>
    <g s:x="0" s:y="20" s:pid="in"/>
    <g transform="translate(4,10)" s:x="4" s:y="10" s:pid="out0">
      <text x="5" y="-4">4</text>
    </g>
    <g transform="translate(4,30)" s:x="4" s:y="10" s:pid="out0">
      <text x="5" y="-4">7</text>
    </g>
    <g transform="translate(4,50)" s:x="4" s:y="10" s:pid="out0">
      <text x="5" y="-4">5</text>
    </g>
    <g transform="translate(4,70)" s:x="4" s:y="10" s:pid="out0">
      <text x="5" y="-4">6</text>
    </g>
  </g>
  <line x1="109.8" x2="248" y1="32.5" y2="32.5" class="net_6"/>
  <line x1="119" x2="159" y1="464.5" y2="464.5" class="net_34"/>
  <line x1="159" x2="159" y1="464.5" y2="52.5" class="net_34"/>
  <circle cx="159" cy="464.5" r="2" style="fill:#000" class="net_34"/>
  <line x1="159" x2="248" y1="52.5" y2="52.5" class="net_34"/>
  <line x1="119" x2="159" y1="464.5" y2="464.5" class="net_34"/>
  <line x1="159" x2="159" y1="464.5" y2="1112.5" class="net_34"/>
  <circle cx="159" cy="1112.5" r="2" style="fill:#000" class="net_34"/>
  <line x1="159" x2="248" y1="1112.5" y2="1112.5" class="net_34"/>
  <line x1="119" x2="159" y1="464.5" y2="464.5" class="net_34"/>
  <line x1="159" x2="159" y1="464.5" y2="1220.5" class="net_34"/>
  <circle cx="159" cy="1220.5" r="2" style="fill:#000" class="net_34"/>
  <line x1="159" x2="248" y1="1220.5" y2="1220.5" class="net_34"/>
  <line x1="119" x2="159" y1="464.5" y2="464.5" class="net_34"/>
  <line x1="159" x2="159" y1="464.5" y2="1328.5" class="net_34"/>
  <circle cx="159" cy="1328.5" r="2" style="fill:#000" class="net_34"/>
  <line x1="159" x2="248" y1="1328.5" y2="1328.5" class="net_34"/>
  <line x1="119" x2="159" y1="464.5" y2="464.5" class="net_34"/>
  <line x1="159" x2="159" y1="464.5" y2="1436.5" class="net_34"/>
  <circle cx="159" cy="1436.5" r="2" style="fill:#000" class="net_34"/>
  <line x1="159" x2="248" y1="1436.5" y2="1436.5" class="net_34"/>
  <line x1="119" x2="159" y1="464.5" y2="464.5" class="net_34"/>
  <line x1="159" x2="159" y1="464.5" y2="1652.5" class="net_34"/>
  <line x1="159" x2="248" y1="1652.5" y2="1652.5" class="net_34"/>
  <line x1="119" x2="159" y1="464.5" y2="464.5" class="net_34"/>
  <line x1="159" x2="159" y1="464.5" y2="1544.5" class="net_34"/>
  <circle cx="159" cy="1544.5" r="2" style="fill:#000" class="net_34"/>
  <line x1="159" x2="248" y1="1544.5" y2="1544.5" class="net_34"/>
  <line x1="119" x2="159" y1="464.5" y2="464.5" class="net_34"/>
  <line x1="159" x2="159" y1="464.5" y2="160.5" class="net_34"/>
  <circle cx="159" cy="160.5" r="2" style="fill:#000" class="net_34"/>
  <line x1="159" x2="248" y1="160.5" y2="160.5" class="net_34"/>
  <line x1="119" x2="159" y1="464.5" y2="464.5" class="net_34"/>
  <line x1="159" x2="159" y1="464.5" y2="268.5" class="net_34"/>
  <circle cx="159" cy="268.5" r="2" style="fill:#000" class="net_34"/>
  <line x1="159" x2="248" y1="268.5" y2="268.5" class="net_34"/>
  <line x1="119" x2="159" y1="464.5" y2="464.5" class="net_34"/>
  <line x1="159" x2="159" y1="464.5" y2="376.5" class="net_34"/>
  <circle cx="159" cy="376.5" r="2" style="fill:#000" class="net_34"/>
  <line x1="159" x2="248" y1="376.5" y2="376.5" class="net_34"/>
  <line x1="119" x2="254" y1="464.5" y2="464.5" class="net_34"/>
  <line x1="119" x2="159" y1="464.5" y2="464.5" class="net_34"/>
  <line x1="159" x2="159" y1="464.5" y2="572.5" class="net_34"/>
  <circle cx="159" cy="572.5" r="2" style="fill:#000" class="net_34"/>
  <line x1="159" x2="254" y1="572.5" y2="572.5" class="net_34"/>
  <line x1="119" x2="159" y1="464.5" y2="464.5" class="net_34"/>
  <line x1="159" x2="159" y1="464.5" y2="680.5" class="net_34"/>
  <circle cx="159" cy="680.5" r="2" style="fill:#000" class="net_34"/>
  <line x1="159" x2="254" y1="680.5" y2="680.5" class="net_34"/>
  <line x1="119" x2="159" y1="464.5" y2="464.5" class="net_34"/>
  <line x1="159" x2="159" y1="464.5" y2="788.5" class="net_34"/>
  <circle cx="159" cy="788.5" r="2" style="fill:#000" class="net_34"/>
  <line x1="159" x2="254" y1="788.5" y2="788.5" class="net_34"/>
  <line x1="119" x2="159" y1="464.5" y2="464.5" class="net_34"/>
  <line x1="159" x2="159" y1="464.5" y2="896.5" class="net_34"/>
  <circle cx="159" cy="896.5" r="2" style="fill:#000" class="net_34"/>
  <line x1="159" x2="254" y1="896.5" y2="896.5" class="net_34"/>
  <line x1="119" x2="159" y1="464.5" y2="464.5" class="net_34"/>
  <line x1="159" x2="159" y1="464.5" y2="1004.5" class="net_34"/>
  <circle cx="159" cy="1004.5" r="2" style="fill:#000" class="net_34"/>
  <line x1="159" x2="254" y1="1004.5" y2="1004.5" class="net_34"/>
  <line x1="109.8" x2="149" y1="52.5" y2="52.5" class="net_9"/>
  <line x1="149" x2="149" y1="52.5" y2="72.5" class="net_9"/>
  <circle cx="149" cy="72.5" r="2" style="fill:#000" class="net_9"/>
  <line x1="149" x2="248" y1="72.5" y2="72.5" class="net_9"/>
  <line x1="109.8" x2="149" y1="52.5" y2="52.5" class="net_9"/>
  <line x1="149" x2="149" y1="52.5" y2="1152.5" class="net_9"/>
  <circle cx="149" cy="1152.5" r="2" style="fill:#000" class="net_9"/>
  <line x1="149" x2="248" y1="1152.5" y2="1152.5" class="net_9"/>
  <line x1="109.8" x2="149" y1="52.5" y2="52.5" class="net_9"/>
  <line x1="149" x2="149" y1="52.5" y2="1260.5" class="net_9"/>
  <circle cx="149" cy="1260.5" r="2" style="fill:#000" class="net_9"/>
  <line x1="149" x2="248" y1="1260.5" y2="1260.5" class="net_9"/>
  <line x1="109.8" x2="149" y1="52.5" y2="52.5" class="net_9"/>
  <line x1="149" x2="149" y1="52.5" y2="1368.5" class="net_9"/>
  <circle cx="149" cy="1368.5" r="2" style="fill:#000" class="net_9"/>
  <line x1="149" x2="248" y1="1368.5" y2="1368.5" class="net_9"/>
  <line x1="109.8" x2="149" y1="52.5" y2="52.5" class="net_9"/>
  <line x1="149" x2="149" y1="52.5" y2="1476.5" class="net_9"/>
  <circle cx="149" cy="1476.5" r="2" style="fill:#000" class="net_9"/>
  <line x1="149" x2="248" y1="1476.5" y2="1476.5" class="net_9"/>
  <line x1="109.8" x2="149" y1="52.5" y2="52.5" class="net_9"/>
  <line x1="149" x2="149" y1="52.5" y2="1692.5" class="net_9"/>
  <line x1="149" x2="248" y1="1692.5" y2="1692.5" class="net_9"/>
  <line x1="109.8" x2="149" y1="52.5" y2="52.5" class="net_9"/>
  <line x1="149" x2="149" y1="52.5" y2="1584.5" class="net_9"/>
  <circle cx="149" cy="1584.5" r="2" style="fill:#000" class="net_9"/>
  <line x1="149" x2="248" y1="1584.5" y2="1584.5" class="net_9"/>
  <line x1="109.8" x2="149" y1="52.5" y2="52.5" class="net_9"/>
  <line x1="149" x2="149" y1="52.5" y2="180.5" class="net_9"/>
  <circle cx="149" cy="180.5" r="2" style="fill:#000" class="net_9"/>
  <line x1="149" x2="248" y1="180.5" y2="180.5" class="net_9"/>
  <line x1="109.8" x2="149" y1="52.5" y2="52.5" class="net_9"/>
  <line x1="149" x2="149" y1="52.5" y2="288.5" class="net_9"/>
  <circle cx="149" cy="288.5" r="2" style="fill:#000" class="net_9"/>
  <line x1="149" x2="248" y1="288.5" y2="288.5" class="net_9"/>
  <line x1="109.8" x2="149" y1="52.5" y2="52.5" class="net_9"/>
  <line x1="149" x2="149" y1="52.5" y2="356.5" class="net_9"/>
  <circle cx="149" cy="356.5" r="2" style="fill:#000" class="net_9"/>
  <line x1="149" x2="248" y1="356.5" y2="356.5" class="net_9"/>
  <line x1="109.8" x2="149" y1="52.5" y2="52.5" class="net_9"/>
  <line x1="149" x2="149" y1="52.5" y2="396.5" class="net_9"/>
  <circle cx="149" cy="396.5" r="2" style="fill:#000" class="net_9"/>
  <line x1="149" x2="248" y1="396.5" y2="396.5" class="net_9"/>
  <line x1="109.8" x2="149" y1="52.5" y2="52.5" class="net_9"/>
  <line x1="149" x2="149" y1="52.5" y2="504.5" class="net_9"/>
  <circle cx="149" cy="504.5" r="2" style="fill:#000" class="net_9"/>
  <line x1="149" x2="254" y1="504.5" y2="504.5" class="net_9"/>
  <line x1="109.8" x2="149" y1="52.5" y2="52.5" class="net_9"/>
  <line x1="149" x2="149" y1="52.5" y2="612.5" class="net_9"/>
  <circle cx="149" cy="612.5" r="2" style="fill:#000" class="net_9"/>
  <line x1="149" x2="254" y1="612.5" y2="612.5" class="net_9"/>
  <line x1="109.8" x2="149" y1="52.5" y2="52.5" class="net_9"/>
  <line x1="149" x2="149" y1="52.5" y2="720.5" class="net_9"/>
  <circle cx="149" cy="720.5" r="2" style="fill:#000" class="net_9"/>
  <line x1="149" x2="254" y1="720.5" y2="720.5" class="net_9"/>
  <line x1="109.8" x2="149" y1="52.5" y2="52.5" class="net_9"/>
  <line x1="149" x2="149" y1="52.5" y2="828.5" class="net_9"/>
  <circle cx="149" cy="828.5" r="2" style="fill:#000" class="net_9"/>
  <line x1="149" x2="254" y1="828.5" y2="828.5" class="net_9"/>
  <line x1="109.8" x2="149" y1="52.5" y2="52.5" class="net_9"/>
  <line x1="149" x2="149" y1="52.5" y2="936.5" class="net_9"/>
  <circle cx="149" cy="936.5" r="2" style="fill:#000" class="net_9"/>
  <line x1="149" x2="254" y1="936.5" y2="936.5" class="net_9"/>
  <line x1="109.8" x2="149" y1="52.5" y2="52.5" class="net_9"/>
  <line x1="149" x2="149" y1="52.5" y2="1044.5" class="net_9"/>
  <circle cx="149" cy="1044.5" r="2" style="fill:#000" class="net_9"/>
  <line x1="149" x2="254" y1="1044.5" y2="1044.5" class="net_9"/>
  <line x1="119" x2="129" y1="529.5" y2="529.5" class="net_36"/>
  <line x1="129" x2="129" y1="529.5" y2="1132.5" class="net_36"/>
  <circle cx="129" cy="529.5" r="2" style="fill:#000" class="net_36"/>
  <circle cx="129" cy="1132.5" r="2" style="fill:#000" class="net_36"/>
  <line x1="129" x2="248" y1="1132.5" y2="1132.5" class="net_36"/>
  <line x1="119" x2="129" y1="529.5" y2="529.5" class="net_36"/>
  <line x1="129" x2="129" y1="529.5" y2="1240.5" class="net_36"/>
  <circle cx="129" cy="1240.5" r="2" style="fill:#000" class="net_36"/>
  <line x1="129" x2="248" y1="1240.5" y2="1240.5" class="net_36"/>
  <line x1="119" x2="129" y1="529.5" y2="529.5" class="net_36"/>
  <line x1="129" x2="129" y1="529.5" y2="1348.5" class="net_36"/>
  <circle cx="129" cy="1348.5" r="2" style="fill:#000" class="net_36"/>
  <line x1="129" x2="248" y1="1348.5" y2="1348.5" class="net_36"/>
  <line x1="119" x2="129" y1="529.5" y2="529.5" class="net_36"/>
  <line x1="129" x2="129" y1="529.5" y2="1456.5" class="net_36"/>
  <circle cx="129" cy="1456.5" r="2" style="fill:#000" class="net_36"/>
  <line x1="129" x2="248" y1="1456.5" y2="1456.5" class="net_36"/>
  <line x1="119" x2="129" y1="529.5" y2="529.5" class="net_36"/>
  <line x1="129" x2="129" y1="529.5" y2="1672.5" class="net_36"/>
  <line x1="129" x2="248" y1="1672.5" y2="1672.5" class="net_36"/>
  <line x1="119" x2="129" y1="529.5" y2="529.5" class="net_36"/>
  <line x1="129" x2="129" y1="529.5" y2="1564.5" class="net_36"/>
  <circle cx="129" cy="1564.5" r="2" style="fill:#000" class="net_36"/>
  <line x1="129" x2="248" y1="1564.5" y2="1564.5" class="net_36"/>
  <line x1="119" x2="129" y1="529.5" y2="529.5" class="net_36"/>
  <line x1="129" x2="129" y1="529.5" y2="484.5" class="net_36"/>
  <line x1="129" x2="254" y1="484.5" y2="484.5" class="net_36"/>
  <line x1="119" x2="129" y1="529.5" y2="529.5" class="net_36"/>
  <line x1="129" x2="129" y1="529.5" y2="592.5" class="net_36"/>
  <circle cx="129" cy="592.5" r="2" style="fill:#000" class="net_36"/>
  <line x1="129" x2="254" y1="592.5" y2="592.5" class="net_36"/>
  <line x1="119" x2="129" y1="529.5" y2="529.5" class="net_36"/>
  <line x1="129" x2="129" y1="529.5" y2="700.5" class="net_36"/>
  <circle cx="129" cy="700.5" r="2" style="fill:#000" class="net_36"/>
  <line x1="129" x2="254" y1="700.5" y2="700.5" class="net_36"/>
  <line x1="119" x2="129" y1="529.5" y2="529.5" class="net_36"/>
  <line x1="129" x2="129" y1="529.5" y2="808.5" class="net_36"/>
  <circle cx="129" cy="808.5" r="2" style="fill:#000" class="net_36"/>
  <line x1="129" x2="254" y1="808.5" y2="808.5" class="net_36"/>
  <line x1="119" x2="129" y1="529.5" y2="529.5" class="net_36"/>
  <line x1="129" x2="129" y1="529.5" y2="916.5" class="net_36"/>
  <circle cx="129" cy="916.5" r="2" style="fill:#000" class="net_36"/>
  <line x1="129" x2="254" y1="916.5" y2="916.5" class="net_36"/>
  <line x1="119" x2="129" y1="529.5" y2="529.5" class="net_36"/>
  <line x1="129" x2="129" y1="529.5" y2="1024.5" class="net_36"/>
  <circle cx="129" cy="1024.5" r="2" style="fill:#000" class="net_36"/>
  <line x1="129" x2="254" y1="1024.5" y2="1024.5" class="net_36"/>
  <line x1="109.8" x2="139" y1="72.5" y2="72.5" class="net_7"/>
  <line x1="139" x2="139" y1="72.5" y2="140.5" class="net_7"/>
  <line x1="139" x2="248" y1="140.5" y2="140.5" class="net_7"/>
  <line x1="109.8" x2="129" y1="92.5" y2="92.5" class="net_8"/>
  <line x1="129" x2="129" y1="92.5" y2="248.5" class="net_8"/>
  <line x1="129" x2="248" y1="248.5" y2="248.5" class="net_8"/>
  <line x1="499" x2="534" y1="658.5" y2="658.5" class="net_18,19,20,21,22,23,24,25,26,27,28,29,30,31,32,33"/>
  <line x1="279" x2="493.5" y1="32.5" y2="32.5" class="net_18"/>
  <line x1="493.5" x2="493.5" y1="32.5" y2="648" class="net_18"/>
  <line x1="279" x2="493.5" y1="140.5" y2="140.5" class="net_19"/>
  <line x1="493.5" x2="493.5" y1="140.5" y2="668" class="net_19"/>
  <line x1="279" x2="466" y1="248.5" y2="248.5" class="net_20"/>
  <line x1="466" x2="466" y1="248.5" y2="688.5" class="net_20"/>
  <line x1="466" x2="493" y1="688.5" y2="688.5" class="net_20"/>
  <line x1="279" x2="456" y1="356.5" y2="356.5" class="net_21"/>
  <line x1="456" x2="456" y1="356.5" y2="708.5" class="net_21"/>
  <line x1="456" x2="493" y1="708.5" y2="708.5" class="net_21"/>
  <line x1="285" x2="446" y1="464.5" y2="464.5" class="net_22"/>
  <line x1="446" x2="446" y1="464.5" y2="728.5" class="net_22"/>
  <line x1="446" x2="493" y1="728.5" y2="728.5" class="net_22"/>
  <line x1="285" x2="436" y1="572.5" y2="572.5" class="net_23"/>
  <line x1="436" x2="436" y1="572.5" y2="748.5" class="net_23"/>
  <line x1="436" x2="493" y1="748.5" y2="748.5" class="net_23"/>
  <line x1="285" x2="426" y1="680.5" y2="680.5" class="net_24"/>
  <line x1="426" x2="426" y1="680.5" y2="768.5" class="net_24"/>
  <line x1="426" x2="493" y1="768.5" y2="768.5" class="net_24"/>
  <line x1="285" x2="493" y1="788.5" y2="788.5" class="net_25"/>
  <line x1="285" x2="426" y1="896.5" y2="896.5" class="net_26"/>
  <line x1="426" x2="426" y1="896.5" y2="808.5" class="net_26"/>
  <line x1="426" x2="493" y1="808.5" y2="808.5" class="net_26"/>
  <line x1="285" x2="436" y1="1004.5" y2="1004.5" class="net_27"/>
  <line x1="436" x2="436" y1="1004.5" y2="828.5" class="net_27"/>
  <line x1="436" x2="493" y1="828.5" y2="828.5" class="net_27"/>
  <line x1="279" x2="446" y1="1112.5" y2="1112.5" class="net_28"/>
  <line x1="446" x2="446" y1="1112.5" y2="848.5" class="net_28"/>
  <line x1="446" x2="493" y1="848.5" y2="848.5" class="net_28"/>
  <line x1="279" x2="456" y1="1220.5" y2="1220.5" class="net_29"/>
  <line x1="456" x2="456" y1="1220.5" y2="868.5" class="net_29"/>
  <line x1="456" x2="493" y1="868.5" y2="868.5" class="net_29"/>
  <line x1="279" x2="466" y1="1328.5" y2="1328.5" class="net_30"/>
  <line x1="466" x2="466" y1="1328.5" y2="888.5" class="net_30"/>
  <line x1="466" x2="493" y1="888.5" y2="888.5" class="net_30"/>
  <line x1="279" x2="476" y1="1436.5" y2="1436.5" class="net_31"/>
  <line x1="476" x2="476" y1="1436.5" y2="908.5" class="net_31"/>
  <line x1="476" x2="493" y1="908.5" y2="908.5" class="net_31"/>
  <line x1="279" x2="493.5" y1="1652.5" y2="1652.5" class="net_32"/>
  <line x1="493.5" x2="493.5" y1="1652.5" y2="929" class="net_32"/>
  <line x1="279" x2="493.5" y1="1544.5" y2="1544.5" class="net_33"/>
  <line x1="493.5" x2="493.5" y1="1544.5" y2="949" class="net_33"/>
  <line x1="40" x2="104.8" y1="42.5" y2="42.5" class="net_2,3,4,5,6,7,8,9,10,11,12,13,14,15,16,17"/>
</svg>
