<svg xmlns="http://www.w3.org/2000/svg" xmlns:xlink="http://www.w3.org/1999/xlink" xmlns:s="https://github.com/nturley/netlistsvg" width="959" height="657.5">
  <style>svg {
    stroke:#000;
    fill:none;
  }
  text {
    fill:#000;
    stroke:none;
    font-size:10px;
    font-weight: bold;
    font-family: "Courier New", monospace;
  }
  .nodelabel {
    text-anchor: middle;
  }
  .inputPortLabel {
    text-anchor: end;
  }
  .splitjoinBody {
    fill:#000;
  }</style>
  <g s:type="or" transform="translate(574,115.5)" s:width="30" s:height="25" id="cell_$auto$simplemap.cc:198:logic_reduce$670">
    <s:alias val="$or"/>
    <s:alias val="$logic_or"/>
    <s:alias val="$_OR_"/>
    <path d="M0,25 L0,25 L15,25 A15 12.5 0 0 0 15,0 L0,0" class="cell_$auto$simplemap.cc:198:logic_reduce$670"/>
    <path d="M0,0 A30 25 0 0 1 0,25" class="cell_$auto$simplemap.cc:198:logic_reduce$670"/>
    <g s:x="3" s:y="5" s:pid="A"/>
    <g s:x="3" s:y="20" s:pid="B"/>
    <g s:x="30" s:y="12.5" s:pid="Y"/>
  </g>
  <g s:type="or" transform="translate(574,175.5)" s:width="30" s:height="25" id="cell_$auto$simplemap.cc:198:logic_reduce$671">
    <s:alias val="$or"/>
    <s:alias val="$logic_or"/>
    <s:alias val="$_OR_"/>
    <path d="M0,25 L0,25 L15,25 A15 12.5 0 0 0 15,0 L0,0" class="cell_$auto$simplemap.cc:198:logic_reduce$671"/>
    <path d="M0,0 A30 25 0 0 1 0,25" class="cell_$auto$simplemap.cc:198:logic_reduce$671"/>
    <g s:x="3" s:y="5" s:pid="A"/>
    <g s:x="3" s:y="20" s:pid="B"/>
    <g s:x="30" s:y="12.5" s:pid="Y"/>
  </g>
  <g s:type="or" transform="translate(574,235.5)" s:width="30" s:height="25" id="cell_$auto$simplemap.cc:198:logic_reduce$672">
    <s:alias val="$or"/>
    <s:alias val="$logic_or"/>
    <s:alias val="$_OR_"/>
    <path d="M0,25 L0,25 L15,25 A15 12.5 0 0 0 15,0 L0,0" class="cell_$auto$simplemap.cc:198:logic_reduce$672"/>
    <path d="M0,0 A30 25 0 0 1 0,25" class="cell_$auto$simplemap.cc:198:logic_reduce$672"/>
    <g s:x="3" s:y="5" s:pid="A"/>
    <g s:x="3" s:y="20" s:pid="B"/>
    <g s:x="30" s:y="12.5" s:pid="Y"/>
  </g>
  <g s:type="or" transform="translate(574,295.5)" s:width="30" s:height="25" id="cell_$auto$simplemap.cc:198:logic_reduce$673">
    <s:alias val="$or"/>
    <s:alias val="$logic_or"/>
    <s:alias val="$_OR_"/>
    <path d="M0,25 L0,25 L15,25 A15 12.5 0 0 0 15,0 L0,0" class="cell_$auto$simplemap.cc:198:logic_reduce$673"/>
    <path d="M0,0 A30 25 0 0 1 0,25" class="cell_$auto$simplemap.cc:198:logic_reduce$673"/>
    <g s:x="3" s:y="5" s:pid="A"/>
    <g s:x="3" s:y="20" s:pid="B"/>
    <g s:x="30" s:y="12.5" s:pid="Y"/>
  </g>
  <g s:type="or" transform="translate(574,355.5)" s:width="30" s:height="25" id="cell_$auto$simplemap.cc:198:logic_reduce$674">
    <s:alias val="$or"/>
    <s:alias val="$logic_or"/>
    <s:alias val="$_OR_"/>
    <path d="M0,25 L0,25 L15,25 A15 12.5 0 0 0 15,0 L0,0" class="cell_$auto$simplemap.cc:198:logic_reduce$674"/>
    <path d="M0,0 A30 25 0 0 1 0,25" class="cell_$auto$simplemap.cc:198:logic_reduce$674"/>
    <g s:x="3" s:y="5" s:pid="A"/>
    <g s:x="3" s:y="20" s:pid="B"/>
    <g s:x="30" s:y="12.5" s:pid="Y"/>
  </g>
  <g s:type="or" transform="translate(574,415.5)" s:width="30" s:height="25" id="cell_$auto$simplemap.cc:198:logic_reduce$675">
    <s:alias val="$or"/>
    <s:alias val="$logic_or"/>
    <s:alias val="$_OR_"/>
    <path d="M0,25 L0,25 L15,25 A15 12.5 0 0 0 15,0 L0,0" class="cell_$auto$simplemap.cc:198:logic_reduce$675"/>
    <path d="M0,0 A30 25 0 0 1 0,25" class="cell_$auto$simplemap.cc:198:logic_reduce$675"/>
    <g s:x="3" s:y="5" s:pid="A"/>
    <g s:x="3" s:y="20" s:pid="B"/>
    <g s:x="30" s:y="12.5" s:pid="Y"/>
  </g>
  <g s:type="or" transform="translate(574,475.5)" s:width="30" s:height="25" id="cell_$auto$simplemap.cc:198:logic_reduce$676">
    <s:alias val="$or"/>
    <s:alias val="$logic_or"/>
    <s:alias val="$_OR_"/>
    <path d="M0,25 L0,25 L15,25 A15 12.5 0 0 0 15,0 L0,0" class="cell_$auto$simplemap.cc:198:logic_reduce$676"/>
    <path d="M0,0 A30 25 0 0 1 0,25" class="cell_$auto$simplemap.cc:198:logic_reduce$676"/>
    <g s:x="3" s:y="5" s:pid="A"/>
    <g s:x="3" s:y="20" s:pid="B"/>
    <g s:x="30" s:y="12.5" s:pid="Y"/>
  </g>
  <g s:type="or" transform="translate(574,535.5)" s:width="30" s:height="25" id="cell_$auto$simplemap.cc:198:logic_reduce$677">
    <s:alias val="$or"/>
    <s:alias val="$logic_or"/>
    <s:alias val="$_OR_"/>
    <path d="M0,25 L0,25 L15,25 A15 12.5 0 0 0 15,0 L0,0" class="cell_$auto$simplemap.cc:198:logic_reduce$677"/>
    <path d="M0,0 A30 25 0 0 1 0,25" class="cell_$auto$simplemap.cc:198:logic_reduce$677"/>
    <g s:x="3" s:y="5" s:pid="A"/>
    <g s:x="3" s:y="20" s:pid="B"/>
    <g s:x="30" s:y="12.5" s:pid="Y"/>
  </g>
  <g s:type="or" transform="translate(639,123)" s:width="30" s:height="25" id="cell_$auto$simplemap.cc:198:logic_reduce$679">
    <s:alias val="$or"/>
    <s:alias val="$logic_or"/>
    <s:alias val="$_OR_"/>
    <path d="M0,25 L0,25 L15,25 A15 12.5 0 0 0 15,0 L0,0" class="cell_$auto$simplemap.cc:198:logic_reduce$679"/>
    <path d="M0,0 A30 25 0 0 1 0,25" class="cell_$auto$simplemap.cc:198:logic_reduce$679"/>
    <g s:x="3" s:y="5" s:pid="A"/>
    <g s:x="3" s:y="20" s:pid="B"/>
    <g s:x="30" s:y="12.5" s:pid="Y"/>
  </g>
  <g s:type="or" transform="translate(639,243)" s:width="30" s:height="25" id="cell_$auto$simplemap.cc:198:logic_reduce$680">
    <s:alias val="$or"/>
    <s:alias val="$logic_or"/>
    <s:alias val="$_OR_"/>
    <path d="M0,25 L0,25 L15,25 A15 12.5 0 0 0 15,0 L0,0" class="cell_$auto$simplemap.cc:198:logic_reduce$680"/>
    <path d="M0,0 A30 25 0 0 1 0,25" class="cell_$auto$simplemap.cc:198:logic_reduce$680"/>
    <g s:x="3" s:y="5" s:pid="A"/>
    <g s:x="3" s:y="20" s:pid="B"/>
    <g s:x="30" s:y="12.5" s:pid="Y"/>
  </g>
  <g s:type="or" transform="translate(639,363)" s:width="30" s:height="25" id="cell_$auto$simplemap.cc:198:logic_reduce$681">
    <s:alias val="$or"/>
    <s:alias val="$logic_or"/>
    <s:alias val="$_OR_"/>
    <path d="M0,25 L0,25 L15,25 A15 12.5 0 0 0 15,0 L0,0" class="cell_$auto$simplemap.cc:198:logic_reduce$681"/>
    <path d="M0,0 A30 25 0 0 1 0,25" class="cell_$auto$simplemap.cc:198:logic_reduce$681"/>
    <g s:x="3" s:y="5" s:pid="A"/>
    <g s:x="3" s:y="20" s:pid="B"/>
    <g s:x="30" s:y="12.5" s:pid="Y"/>
  </g>
  <g s:type="or" transform="translate(639,483)" s:width="30" s:height="25" id="cell_$auto$simplemap.cc:198:logic_reduce$682">
    <s:alias val="$or"/>
    <s:alias val="$logic_or"/>
    <s:alias val="$_OR_"/>
    <path d="M0,25 L0,25 L15,25 A15 12.5 0 0 0 15,0 L0,0" class="cell_$auto$simplemap.cc:198:logic_reduce$682"/>
    <path d="M0,0 A30 25 0 0 1 0,25" class="cell_$auto$simplemap.cc:198:logic_reduce$682"/>
    <g s:x="3" s:y="5" s:pid="A"/>
    <g s:x="3" s:y="20" s:pid="B"/>
    <g s:x="30" s:y="12.5" s:pid="Y"/>
  </g>
  <g s:type="or" transform="translate(704,130.5)" s:width="30" s:height="25" id="cell_$auto$simplemap.cc:198:logic_reduce$684">
    <s:alias val="$or"/>
    <s:alias val="$logic_or"/>
    <s:alias val="$_OR_"/>
    <path d="M0,25 L0,25 L15,25 A15 12.5 0 0 0 15,0 L0,0" class="cell_$auto$simplemap.cc:198:logic_reduce$684"/>
    <path d="M0,0 A30 25 0 0 1 0,25" class="cell_$auto$simplemap.cc:198:logic_reduce$684"/>
    <g s:x="3" s:y="5" s:pid="A"/>
    <g s:x="3" s:y="20" s:pid="B"/>
    <g s:x="30" s:y="12.5" s:pid="Y"/>
  </g>
  <g s:type="or" transform="translate(704,370.5)" s:width="30" s:height="25" id="cell_$auto$simplemap.cc:198:logic_reduce$685">
    <s:alias val="$or"/>
    <s:alias val="$logic_or"/>
    <s:alias val="$_OR_"/>
    <path d="M0,25 L0,25 L15,25 A15 12.5 0 0 0 15,0 L0,0" class="cell_$auto$simplemap.cc:198:logic_reduce$685"/>
    <path d="M0,0 A30 25 0 0 1 0,25" class="cell_$auto$simplemap.cc:198:logic_reduce$685"/>
    <g s:x="3" s:y="5" s:pid="A"/>
    <g s:x="3" s:y="20" s:pid="B"/>
    <g s:x="30" s:y="12.5" s:pid="Y"/>
  </g>
  <g s:type="or" transform="translate(769,138)" s:width="30" s:height="25" id="cell_$auto$simplemap.cc:198:logic_reduce$687">
    <s:alias val="$or"/>
    <s:alias val="$logic_or"/>
    <s:alias val="$_OR_"/>
    <path d="M0,25 L0,25 L15,25 A15 12.5 0 0 0 15,0 L0,0" class="cell_$auto$simplemap.cc:198:logic_reduce$687"/>
    <path d="M0,0 A30 25 0 0 1 0,25" class="cell_$auto$simplemap.cc:198:logic_reduce$687"/>
    <g s:x="3" s:y="5" s:pid="A"/>
    <g s:x="3" s:y="20" s:pid="B"/>
    <g s:x="30" s:y="12.5" s:pid="Y"/>
  </g>
  <g s:type="or" transform="translate(639,63)" s:width="30" s:height="25" id="cell_$auto$simplemap.cc:198:logic_reduce$690">
    <s:alias val="$or"/>
    <s:alias val="$logic_or"/>
    <s:alias val="$_OR_"/>
    <path d="M0,25 L0,25 L15,25 A15 12.5 0 0 0 15,0 L0,0" class="cell_$auto$simplemap.cc:198:logic_reduce$690"/>
    <path d="M0,0 A30 25 0 0 1 0,25" class="cell_$auto$simplemap.cc:198:logic_reduce$690"/>
    <g s:x="3" s:y="5" s:pid="A"/>
    <g s:x="3" s:y="20" s:pid="B"/>
    <g s:x="30" s:y="12.5" s:pid="Y"/>
  </g>
  <g s:type="or" transform="translate(704,70.5)" s:width="30" s:height="25" id="cell_$auto$simplemap.cc:198:logic_reduce$692">
    <s:alias val="$or"/>
    <s:alias val="$logic_or"/>
    <s:alias val="$_OR_"/>
    <path d="M0,25 L0,25 L15,25 A15 12.5 0 0 0 15,0 L0,0" class="cell_$auto$simplemap.cc:198:logic_reduce$692"/>
    <path d="M0,0 A30 25 0 0 1 0,25" class="cell_$auto$simplemap.cc:198:logic_reduce$692"/>
    <g s:x="3" s:y="5" s:pid="A"/>
    <g s:x="3" s:y="20" s:pid="B"/>
    <g s:x="30" s:y="12.5" s:pid="Y"/>
  </g>
  <g s:type="not" transform="translate(834,140.5)" s:width="30" s:height="20" id="cell_$auto$simplemap.cc:227:simplemap_lognot$688">
    <s:alias val="$_NOT_"/>
    <s:alias val="$not"/>
    <s:alias val="$logic_not"/>
    <path d="M0,0 L0,20 L20,10 Z" class="cell_$auto$simplemap.cc:227:simplemap_lognot$688"/>
    <circle cx="23" cy="10" r="3" class="cell_$auto$simplemap.cc:227:simplemap_lognot$688"/>
    <g s:x="0" s:y="10" s:pid="A"/>
    <g s:x="25" s:y="10" s:pid="Y"/>
  </g>
  <g s:type="not" transform="translate(769,73)" s:width="30" s:height="20" id="cell_$auto$simplemap.cc:227:simplemap_lognot$693">
    <s:alias val="$_NOT_"/>
    <s:alias val="$not"/>
    <s:alias val="$logic_not"/>
    <path d="M0,0 L0,20 L20,10 Z" class="cell_$auto$simplemap.cc:227:simplemap_lognot$693"/>
    <circle cx="23" cy="10" r="3" class="cell_$auto$simplemap.cc:227:simplemap_lognot$693"/>
    <g s:x="0" s:y="10" s:pid="A"/>
    <g s:x="25" s:y="10" s:pid="Y"/>
  </g>
  <g s:type="mux" transform="translate(837.3333333333334,22)" s:width="20" s:height="40" id="cell_$auto$simplemap.cc:298:simplemap_mux$694">
    <s:alias val="$pmux"/>
    <s:alias val="$mux"/>
    <s:alias val="$_MUX_"/>
    <path d="M0,0 L20,10 L20,30 L0,40 Z" class="cell_$auto$simplemap.cc:298:simplemap_mux$694"/>
    <g s:x="0" s:y="10" s:pid="A"/>
    <g s:x="0" s:y="30" s:pid="B"/>
    <g s:x="10" s:y="35" s:pid="S"/>
    <g s:x="20" s:y="20" s:pid="Y"/>
  </g>
  <g s:type="generic" transform="translate(260,155)" s:width="30" s:height="40" id="cell_u_arith">
    <text x="15" y="-4" class="nodelabel cell_u_arith" s:attribute="ref">alu_core_arithmetic_16bit</text>
    <rect width="30" height="60" s:generic="body" class="cell_u_arith"/>
    <g transform="translate(0,10)" s:x="0" s:y="10" s:pid="in0" id="port_u_arith~i_a">
      <text x="-3" y="-4" class="inputPortLabel cell_u_arith">i_a</text>
    </g>
    <g transform="translate(0,30)" s:x="0" s:y="10" s:pid="in0" id="port_u_arith~i_b">
      <text x="-3" y="-4" class="inputPortLabel cell_u_arith">i_b</text>
    </g>
    <g transform="translate(0,50)" s:x="0" s:y="10" s:pid="in0" id="port_u_arith~i_is_sub">
      <text x="-3" y="-4" class="inputPortLabel cell_u_arith">i_is_sub</text>
    </g>
    <g transform="translate(30,10)" s:x="30" s:y="10" s:pid="out0" id="port_u_arith~o_sum">
      <text x="5" y="-4" style="fill:#000; stroke:none" class="cell_u_arith">o_sum</text>
    </g>
    <g transform="translate(30,30)" s:x="30" s:y="10" s:pid="out0" id="port_u_arith~o_v">
      <text x="5" y="-4" style="fill:#000; stroke:none" class="cell_u_arith">o_v</text>
    </g>
  </g>
  <g s:type="generic" transform="translate(255.75,263)" s:width="30" s:height="40" id="cell_u_logic">
    <text x="15" y="-4" class="nodelabel cell_u_logic" s:attribute="ref">alu_core_logic_16bit</text>
    <rect width="30" height="60" s:generic="body" class="cell_u_logic"/>
    <g transform="translate(0,10)" s:x="0" s:y="10" s:pid="in0" id="port_u_logic~i_a">
      <text x="-3" y="-4" class="inputPortLabel cell_u_logic">i_a</text>
    </g>
    <g transform="translate(0,30)" s:x="0" s:y="10" s:pid="in0" id="port_u_logic~i_b">
      <text x="-3" y="-4" class="inputPortLabel cell_u_logic">i_b</text>
    </g>
    <g transform="translate(0,50)" s:x="0" s:y="10" s:pid="in0" id="port_u_logic~i_sel">
      <text x="-3" y="-4" class="inputPortLabel cell_u_logic">i_sel</text>
    </g>
    <g transform="translate(30,10)" s:x="30" s:y="10" s:pid="out0" id="port_u_logic~o_res">
      <text x="5" y="-4" style="fill:#000; stroke:none" class="cell_u_logic">o_res</text>
    </g>
  </g>
  <g s:type="generic" transform="translate(403,135)" s:width="30" s:height="40" id="cell_u_res_mux">
    <text x="15" y="-4" class="nodelabel cell_u_res_mux" s:attribute="ref">alu_core_mux_8to1_16bit</text>
    <rect width="30" height="180" s:generic="body" class="cell_u_res_mux"/>
    <g transform="translate(0,10)" s:x="0" s:y="10" s:pid="in0" id="port_u_res_mux~i_d0">
      <text x="-3" y="-4" class="inputPortLabel cell_u_res_mux">i_d0</text>
    </g>
    <g transform="translate(0,30)" s:x="0" s:y="10" s:pid="in0" id="port_u_res_mux~i_d1">
      <text x="-3" y="-4" class="inputPortLabel cell_u_res_mux">i_d1</text>
    </g>
    <g transform="translate(0,50)" s:x="0" s:y="10" s:pid="in0" id="port_u_res_mux~i_d2">
      <text x="-3" y="-4" class="inputPortLabel cell_u_res_mux">i_d2</text>
    </g>
    <g transform="translate(0,70)" s:x="0" s:y="10" s:pid="in0" id="port_u_res_mux~i_d3">
      <text x="-3" y="-4" class="inputPortLabel cell_u_res_mux">i_d3</text>
    </g>
    <g transform="translate(0,90)" s:x="0" s:y="10" s:pid="in0" id="port_u_res_mux~i_d4">
      <text x="-3" y="-4" class="inputPortLabel cell_u_res_mux">i_d4</text>
    </g>
    <g transform="translate(0,110)" s:x="0" s:y="10" s:pid="in0" id="port_u_res_mux~i_d5">
      <text x="-3" y="-4" class="inputPortLabel cell_u_res_mux">i_d5</text>
    </g>
    <g transform="translate(0,130)" s:x="0" s:y="10" s:pid="in0" id="port_u_res_mux~i_d6">
      <text x="-3" y="-4" class="inputPortLabel cell_u_res_mux">i_d6</text>
    </g>
    <g transform="translate(0,150)" s:x="0" s:y="10" s:pid="in0" id="port_u_res_mux~i_d7">
      <text x="-3" y="-4" class="inputPortLabel cell_u_res_mux">i_d7</text>
    </g>
    <g transform="translate(0,170)" s:x="0" s:y="10" s:pid="in0" id="port_u_res_mux~i_sel">
      <text x="-3" y="-4" class="inputPortLabel cell_u_res_mux">i_sel</text>
    </g>
    <g transform="translate(30,10)" s:x="30" s:y="10" s:pid="out0" id="port_u_res_mux~o_y">
      <text x="5" y="-4" style="fill:#000; stroke:none" class="cell_u_res_mux">o_y</text>
    </g>
  </g>
  <g s:type="generic" transform="translate(255.75,371)" s:width="30" s:height="40" id="cell_u_shift">
    <text x="15" y="-4" class="nodelabel cell_u_shift" s:attribute="ref">alu_core_shifter_16bit</text>
    <rect width="30" height="60" s:generic="body" class="cell_u_shift"/>
    <g transform="translate(0,10)" s:x="0" s:y="10" s:pid="in0" id="port_u_shift~i_a">
      <text x="-3" y="-4" class="inputPortLabel cell_u_shift">i_a</text>
    </g>
    <g transform="translate(0,30)" s:x="0" s:y="10" s:pid="in0" id="port_u_shift~i_b">
      <text x="-3" y="-4" class="inputPortLabel cell_u_shift">i_b</text>
    </g>
    <g transform="translate(0,50)" s:x="0" s:y="10" s:pid="in0" id="port_u_shift~i_sel">
      <text x="-3" y="-4" class="inputPortLabel cell_u_shift">i_sel</text>
    </g>
    <g transform="translate(30,10)" s:x="30" s:y="10" s:pid="out0" id="port_u_shift~o_res">
      <text x="5" y="-4" style="fill:#000; stroke:none" class="cell_u_shift">o_res</text>
    </g>
  </g>
  <g s:type="inputExt" transform="translate(12,145.5)" s:width="30" s:height="20" id="cell_i_alu_op">
    <text x="15" y="-4" class="nodelabel cell_i_alu_op" s:attribute="ref">i_alu_op</text>
    <s:alias val="$_inputExt_"/>
    <path d="M0,0 L0,20 L15,20 L30,10 L15,0 Z" class="cell_i_alu_op"/>
    <g s:x="28" s:y="10" s:pid="Y"/>
  </g>
  <g s:type="inputExt" transform="translate(95,464)" s:width="30" s:height="20" id="cell_i_operand_a">
    <text x="15" y="-4" class="nodelabel cell_i_operand_a" s:attribute="ref">i_operand_a</text>
    <s:alias val="$_inputExt_"/>
    <path d="M0,0 L0,20 L15,20 L30,10 L15,0 Z" class="cell_i_operand_a"/>
    <g s:x="28" s:y="10" s:pid="Y"/>
  </g>
  <g s:type="inputExt" transform="translate(95,529)" s:width="30" s:height="20" id="cell_i_operand_b">
    <text x="15" y="-4" class="nodelabel cell_i_operand_b" s:attribute="ref">i_operand_b</text>
    <s:alias val="$_inputExt_"/>
    <path d="M0,0 L0,20 L15,20 L30,10 L15,0 Z" class="cell_i_operand_b"/>
    <g s:x="28" s:y="10" s:pid="Y"/>
  </g>
  <g s:type="outputExt" transform="translate(899,625.5)" s:width="30" s:height="20" id="cell_o_result">
    <text x="15" y="-4" class="nodelabel cell_o_result" s:attribute="ref">o_result</text>
    <s:alias val="$_outputExt_"/>
    <path d="M30,0 L30,20 L15,20 L0,10 L15,0 Z" class="cell_o_result"/>
    <g s:x="0" s:y="10" s:pid="A"/>
  </g>
  <g s:type="outputExt" transform="translate(899,140.5)" s:width="30" s:height="20" id="cell_o_flag_z">
    <text x="15" y="-4" class="nodelabel cell_o_flag_z" s:attribute="ref">o_flag_z</text>
    <s:alias val="$_outputExt_"/>
    <path d="M30,0 L30,20 L15,20 L0,10 L15,0 Z" class="cell_o_flag_z"/>
    <g s:x="0" s:y="10" s:pid="A"/>
  </g>
  <g s:type="outputExt" transform="translate(899,560.5)" s:width="30" s:height="20" id="cell_o_flag_n">
    <text x="15" y="-4" class="nodelabel cell_o_flag_n" s:attribute="ref">o_flag_n</text>
    <s:alias val="$_outputExt_"/>
    <path d="M30,0 L30,20 L15,20 L0,10 L15,0 Z" class="cell_o_flag_n"/>
    <g s:x="0" s:y="10" s:pid="A"/>
  </g>
  <g s:type="outputExt" transform="translate(899,32)" s:width="30" s:height="20" id="cell_o_flag_v">
    <text x="15" y="-4" class="nodelabel cell_o_flag_v" s:attribute="ref">o_flag_v</text>
    <s:alias val="$_outputExt_"/>
    <path d="M30,0 L30,20 L15,20 L0,10 L15,0 Z" class="cell_o_flag_v"/>
    <g s:x="0" s:y="10" s:pid="A"/>
  </g>
  <g s:type="constant" transform="translate(769,22)" s:width="30" s:height="20" id="cell_0">
    <text x="15" y="-4" class="nodelabel cell_0" s:attribute="ref">0</text>
    <s:alias val="$_constant_"/>
    <rect width="30" height="20" class="cell_0"/>
    <g s:x="30" s:y="10" s:pid="Y"/>
  </g>
  <g s:type="split" transform="translate(492,165)" s:width="5" s:height="40" id="cell_$split$,38,39,40,41,42,43,44,45,46,47,48,49,50,51,52,53,">
    <rect width="5" height="320" class="splitjoinBody" s:generic="body"/>
    <s:alias val="$_split_"/>
    <g s:x="0" s:y="20" s:pid="in"/>
    <g transform="translate(4,10)" s:x="4" s:y="10" s:pid="out0">
      <text x="5" y="-4">0</text>
    </g>
    <g transform="translate(4,30)" s:x="4" s:y="10" s:pid="out0">
      <text x="5" y="-4">1</text>
    </g>
    <g transform="translate(4,50)" s:x="4" s:y="10" s:pid="out0">
      <text x="5" y="-4">2</text>
    </g>
    <g transform="translate(4,70)" s:x="4" s:y="10" s:pid="out0">
      <text x="5" y="-4">3</text>
    </g>
    <g transform="translate(4,90)" s:x="4" s:y="10" s:pid="out0">
      <text x="5" y="-4">4</text>
    </g>
    <g transform="translate(4,110)" s:x="4" s:y="10" s:pid="out0">
      <text x="5" y="-4">5</text>
    </g>
    <g transform="translate(4,130)" s:x="4" s:y="10" s:pid="out0">
      <text x="5" y="-4">6</text>
    </g>
    <g transform="translate(4,150)" s:x="4" s:y="10" s:pid="out0">
      <text x="5" y="-4">7</text>
    </g>
    <g transform="translate(4,170)" s:x="4" s:y="10" s:pid="out0">
      <text x="5" y="-4">8</text>
    </g>
    <g transform="translate(4,190)" s:x="4" s:y="10" s:pid="out0">
      <text x="5" y="-4">9</text>
    </g>
    <g transform="translate(4,210)" s:x="4" s:y="10" s:pid="out0">
      <text x="5" y="-4">10</text>
    </g>
    <g transform="translate(4,230)" s:x="4" s:y="10" s:pid="out0">
      <text x="5" y="-4">11</text>
    </g>
    <g transform="translate(4,250)" s:x="4" s:y="10" s:pid="out0">
      <text x="5" y="-4">12</text>
    </g>
    <g transform="translate(4,270)" s:x="4" s:y="10" s:pid="out0">
      <text x="5" y="-4">13</text>
    </g>
    <g transform="translate(4,290)" s:x="4" s:y="10" s:pid="out0">
      <text x="5" y="-4">14</text>
    </g>
    <g transform="translate(4,310)" s:x="4" s:y="10" s:pid="out0">
      <text x="5" y="-4">15</text>
    </g>
  </g>
  <g s:type="split" transform="translate(122.2,135)" s:width="5" s:height="40" id="cell_$split$,2,3,4,5,">
    <rect width="5" height="120" class="splitjoinBody" s:generic="body"/>
    <s:alias val="$_split_"/>
    <g s:x="0" s:y="20" s:pid="in"/>
    <g transform="translate(4,10)" s:x="4" s:y="10" s:pid="out0">
      <text x="5" y="-4">1</text>
    </g>
    <g transform="translate(4,30)" s:x="4" s:y="10" s:pid="out0">
      <text x="5" y="-4">2</text>
    </g>
    <g transform="translate(4,50)" s:x="4" s:y="10" s:pid="out0">
      <text x="5" y="-4">3</text>
    </g>
    <g transform="translate(4,70)" s:x="4" s:y="10" s:pid="out0">
      <text x="5" y="-4">0</text>
    </g>
    <g transform="translate(4,90)" s:x="4" s:y="10" s:pid="out0">
      <text x="5" y="-4">0:1</text>
    </g>
    <g transform="translate(4,110)" s:x="4" s:y="10" s:pid="out0">
      <text x="5" y="-4">0:2</text>
    </g>
  </g>
  <line x1="496.5" x2="496.5" y1="175" y2="120.5" class="net_38"/>
  <line x1="496.5" x2="577" y1="120.5" y2="120.5" class="net_38"/>
  <line x1="496.5" x2="496.5" y1="195" y2="135.5" class="net_39"/>
  <line x1="496.5" x2="577" y1="135.5" y2="135.5" class="net_39"/>
  <line x1="497" x2="514" y1="215.5" y2="215.5" class="net_40"/>
  <line x1="514" x2="514" y1="215.5" y2="180.5" class="net_40"/>
  <line x1="514" x2="577" y1="180.5" y2="180.5" class="net_40"/>
  <line x1="497" x2="524" y1="235.5" y2="235.5" class="net_41"/>
  <line x1="524" x2="524" y1="235.5" y2="195.5" class="net_41"/>
  <line x1="524" x2="577" y1="195.5" y2="195.5" class="net_41"/>
  <line x1="497" x2="514" y1="255.5" y2="255.5" class="net_42"/>
  <line x1="514" x2="514" y1="255.5" y2="240.5" class="net_42"/>
  <line x1="514" x2="577" y1="240.5" y2="240.5" class="net_42"/>
  <line x1="497" x2="524" y1="275.5" y2="275.5" class="net_43"/>
  <line x1="524" x2="524" y1="275.5" y2="255.5" class="net_43"/>
  <line x1="524" x2="577" y1="255.5" y2="255.5" class="net_43"/>
  <line x1="497" x2="514" y1="295.5" y2="295.5" class="net_44"/>
  <line x1="514" x2="514" y1="295.5" y2="300.5" class="net_44"/>
  <line x1="514" x2="577" y1="300.5" y2="300.5" class="net_44"/>
  <line x1="497" x2="577" y1="315.5" y2="315.5" class="net_45"/>
  <line x1="497" x2="564" y1="335.5" y2="335.5" class="net_46"/>
  <line x1="564" x2="564" y1="335.5" y2="360.5" class="net_46"/>
  <line x1="564" x2="577" y1="360.5" y2="360.5" class="net_46"/>
  <line x1="497" x2="554" y1="355.5" y2="355.5" class="net_47"/>
  <line x1="554" x2="554" y1="355.5" y2="375.5" class="net_47"/>
  <line x1="554" x2="577" y1="375.5" y2="375.5" class="net_47"/>
  <line x1="497" x2="544" y1="375.5" y2="375.5" class="net_48"/>
  <line x1="544" x2="544" y1="375.5" y2="420.5" class="net_48"/>
  <line x1="544" x2="577" y1="420.5" y2="420.5" class="net_48"/>
  <line x1="497" x2="534" y1="395.5" y2="395.5" class="net_49"/>
  <line x1="534" x2="534" y1="395.5" y2="435.5" class="net_49"/>
  <line x1="534" x2="577" y1="435.5" y2="435.5" class="net_49"/>
  <line x1="497" x2="524" y1="415.5" y2="415.5" class="net_50"/>
  <line x1="524" x2="524" y1="415.5" y2="480.5" class="net_50"/>
  <line x1="524" x2="577" y1="480.5" y2="480.5" class="net_50"/>
  <line x1="497" x2="514" y1="435.5" y2="435.5" class="net_51"/>
  <line x1="514" x2="514" y1="435.5" y2="495.5" class="net_51"/>
  <line x1="514" x2="577" y1="495.5" y2="495.5" class="net_51"/>
  <line x1="496.5" x2="496.5" y1="456" y2="540.5" class="net_52"/>
  <line x1="496.5" x2="577" y1="540.5" y2="540.5" class="net_52"/>
  <line x1="496.5" x2="496.5" y1="476" y2="570.5" class="net_53"/>
  <line x1="496.5" x2="514" y1="570.5" y2="570.5" class="net_53"/>
  <line x1="514" x2="514" y1="570.5" y2="555.5" class="net_53"/>
  <circle cx="514" cy="570.5" r="2" style="fill:#000" class="net_53"/>
  <line x1="514" x2="577" y1="555.5" y2="555.5" class="net_53"/>
  <line x1="496.5" x2="496.5" y1="476" y2="570.5" class="net_53"/>
  <line x1="496.5" x2="899" y1="570.5" y2="570.5" class="net_53"/>
  <line x1="604" x2="642" y1="128" y2="128" class="net_56"/>
  <line x1="604" x2="614" y1="188" y2="188" class="net_57"/>
  <line x1="614" x2="614" y1="188" y2="143" class="net_57"/>
  <line x1="614" x2="642" y1="143" y2="143" class="net_57"/>
  <line x1="604" x2="642" y1="248" y2="248" class="net_58"/>
  <line x1="604" x2="614" y1="308" y2="308" class="net_59"/>
  <line x1="614" x2="614" y1="308" y2="263" class="net_59"/>
  <line x1="614" x2="642" y1="263" y2="263" class="net_59"/>
  <line x1="604" x2="642" y1="368" y2="368" class="net_60"/>
  <line x1="604" x2="614" y1="428" y2="428" class="net_61"/>
  <line x1="614" x2="614" y1="428" y2="383" class="net_61"/>
  <line x1="614" x2="642" y1="383" y2="383" class="net_61"/>
  <line x1="604" x2="642" y1="488" y2="488" class="net_62"/>
  <line x1="604" x2="614" y1="548" y2="548" class="net_63"/>
  <line x1="614" x2="614" y1="548" y2="503" class="net_63"/>
  <line x1="614" x2="642" y1="503" y2="503" class="net_63"/>
  <line x1="669" x2="707" y1="135.5" y2="135.5" class="net_64"/>
  <line x1="669" x2="679" y1="255.5" y2="255.5" class="net_65"/>
  <line x1="679" x2="679" y1="255.5" y2="150.5" class="net_65"/>
  <line x1="679" x2="707" y1="150.5" y2="150.5" class="net_65"/>
  <line x1="669" x2="707" y1="375.5" y2="375.5" class="net_66"/>
  <line x1="669" x2="679" y1="495.5" y2="495.5" class="net_67"/>
  <line x1="679" x2="679" y1="495.5" y2="390.5" class="net_67"/>
  <line x1="679" x2="707" y1="390.5" y2="390.5" class="net_67"/>
  <line x1="734" x2="772" y1="143" y2="143" class="net_68"/>
  <line x1="734" x2="744" y1="383" y2="383" class="net_69"/>
  <line x1="744" x2="744" y1="383" y2="158" class="net_69"/>
  <line x1="744" x2="772" y1="158" y2="158" class="net_69"/>
  <line x1="126.7" x2="126.7" y1="145" y2="68" class="net_3"/>
  <line x1="126.7" x2="642" y1="68" y2="68" class="net_3"/>
  <line x1="127.2" x2="171" y1="165.5" y2="165.5" class="net_4"/>
  <line x1="171" x2="171" y1="165.5" y2="83" class="net_4"/>
  <line x1="171" x2="642" y1="83" y2="83" class="net_4"/>
  <line x1="669" x2="707" y1="75.5" y2="75.5" class="net_71"/>
  <line x1="127.2" x2="181" y1="185.5" y2="185.5" class="net_5"/>
  <line x1="181" x2="181" y1="185.5" y2="98" class="net_5"/>
  <line x1="181" x2="679" y1="98" y2="98" class="net_5"/>
  <line x1="679" x2="679" y1="98" y2="90.5" class="net_5"/>
  <line x1="679" x2="707" y1="90.5" y2="90.5" class="net_5"/>
  <line x1="799" x2="834" y1="150.5" y2="150.5" class="net_70"/>
  <line x1="734" x2="769" y1="83" y2="83" class="net_72"/>
  <line x1="799" x2="837.3333333333334" y1="32" y2="32" class="net_123"/>
  <line x1="291" x2="332" y1="185.5" y2="185.5" class="net_74"/>
  <line x1="332" x2="332" y1="185.5" y2="52" class="net_74"/>
  <line x1="332" x2="837.3333333333334" y1="52" y2="52" class="net_74"/>
  <line x1="794" x2="847.3333333333334" y1="83" y2="83" class="net_73"/>
  <line x1="847.3333333333334" x2="847.3333333333334" y1="83" y2="57" class="net_73"/>
  <line x1="123" x2="191" y1="474" y2="474" class="net_6,7,8,9,10,11,12,13,14,15,16,17,18,19,20,21"/>
  <line x1="191" x2="191" y1="474" y2="165.5" class="net_6,7,8,9,10,11,12,13,14,15,16,17,18,19,20,21"/>
  <line x1="191" x2="260" y1="165.5" y2="165.5" class="net_6,7,8,9,10,11,12,13,14,15,16,17,18,19,20,21"/>
  <line x1="123" x2="191" y1="474" y2="474" class="net_6,7,8,9,10,11,12,13,14,15,16,17,18,19,20,21"/>
  <line x1="191" x2="191" y1="474" y2="273.5" class="net_6,7,8,9,10,11,12,13,14,15,16,17,18,19,20,21"/>
  <circle cx="191" cy="273.5" r="2" style="fill:#000" class="net_6,7,8,9,10,11,12,13,14,15,16,17,18,19,20,21"/>
  <line x1="191" x2="255.75" y1="273.5" y2="273.5" class="net_6,7,8,9,10,11,12,13,14,15,16,17,18,19,20,21"/>
  <line x1="123" x2="191" y1="474" y2="474" class="net_6,7,8,9,10,11,12,13,14,15,16,17,18,19,20,21"/>
  <line x1="191" x2="191" y1="474" y2="381.5" class="net_6,7,8,9,10,11,12,13,14,15,16,17,18,19,20,21"/>
  <circle cx="191" cy="381.5" r="2" style="fill:#000" class="net_6,7,8,9,10,11,12,13,14,15,16,17,18,19,20,21"/>
  <line x1="191" x2="255.75" y1="381.5" y2="381.5" class="net_6,7,8,9,10,11,12,13,14,15,16,17,18,19,20,21"/>
  <line x1="123" x2="201" y1="539" y2="539" class="net_22,23,24,25,26,27,28,29,30,31,32,33,34,35,36,37"/>
  <line x1="201" x2="201" y1="539" y2="185.5" class="net_22,23,24,25,26,27,28,29,30,31,32,33,34,35,36,37"/>
  <line x1="201" x2="260" y1="185.5" y2="185.5" class="net_22,23,24,25,26,27,28,29,30,31,32,33,34,35,36,37"/>
  <line x1="123" x2="201" y1="539" y2="539" class="net_22,23,24,25,26,27,28,29,30,31,32,33,34,35,36,37"/>
  <line x1="201" x2="201" y1="539" y2="293.5" class="net_22,23,24,25,26,27,28,29,30,31,32,33,34,35,36,37"/>
  <circle cx="201" cy="293.5" r="2" style="fill:#000" class="net_22,23,24,25,26,27,28,29,30,31,32,33,34,35,36,37"/>
  <line x1="201" x2="255.75" y1="293.5" y2="293.5" class="net_22,23,24,25,26,27,28,29,30,31,32,33,34,35,36,37"/>
  <line x1="123" x2="201" y1="539" y2="539" class="net_22,23,24,25,26,27,28,29,30,31,32,33,34,35,36,37"/>
  <line x1="201" x2="201" y1="539" y2="401.5" class="net_22,23,24,25,26,27,28,29,30,31,32,33,34,35,36,37"/>
  <circle cx="201" cy="401.5" r="2" style="fill:#000" class="net_22,23,24,25,26,27,28,29,30,31,32,33,34,35,36,37"/>
  <line x1="201" x2="255.75" y1="401.5" y2="401.5" class="net_22,23,24,25,26,27,28,29,30,31,32,33,34,35,36,37"/>
  <line x1="127.2" x2="260" y1="205.5" y2="205.5" class="net_2"/>
  <line x1="127.2" x2="171" y1="205.5" y2="205.5" class="net_2"/>
  <line x1="171" x2="171" y1="205.5" y2="421.5" class="net_2"/>
  <circle cx="171" cy="205.5" r="2" style="fill:#000" class="net_2"/>
  <line x1="171" x2="255.75" y1="421.5" y2="421.5" class="net_2"/>
  <line x1="127.2" x2="181" y1="225.5" y2="225.5" class="net_2,3"/>
  <line x1="181" x2="181" y1="225.5" y2="313.5" class="net_2,3"/>
  <line x1="181" x2="255.75" y1="313.5" y2="313.5" class="net_2,3"/>
  <line x1="291" x2="342" y1="165.5" y2="165.5" class="net_75,76,77,78,79,80,81,82,83,84,85,86,87,88,89,90"/>
  <line x1="342" x2="342" y1="165.5" y2="145.5" class="net_75,76,77,78,79,80,81,82,83,84,85,86,87,88,89,90"/>
  <circle cx="342" cy="165.5" r="2" style="fill:#000" class="net_75,76,77,78,79,80,81,82,83,84,85,86,87,88,89,90"/>
  <line x1="342" x2="403" y1="145.5" y2="145.5" class="net_75,76,77,78,79,80,81,82,83,84,85,86,87,88,89,90"/>
  <line x1="291" x2="403" y1="165.5" y2="165.5" class="net_75,76,77,78,79,80,81,82,83,84,85,86,87,88,89,90"/>
  <line x1="286.75" x2="342" y1="273.5" y2="273.5" class="net_91,92,93,94,95,96,97,98,99,100,101,102,103,104,105,106"/>
  <line x1="342" x2="342" y1="273.5" y2="185.5" class="net_91,92,93,94,95,96,97,98,99,100,101,102,103,104,105,106"/>
  <line x1="342" x2="403" y1="185.5" y2="185.5" class="net_91,92,93,94,95,96,97,98,99,100,101,102,103,104,105,106"/>
  <line x1="286.75" x2="342" y1="273.5" y2="273.5" class="net_91,92,93,94,95,96,97,98,99,100,101,102,103,104,105,106"/>
  <line x1="342" x2="342" y1="273.5" y2="205.5" class="net_91,92,93,94,95,96,97,98,99,100,101,102,103,104,105,106"/>
  <circle cx="342" cy="205.5" r="2" style="fill:#000" class="net_91,92,93,94,95,96,97,98,99,100,101,102,103,104,105,106"/>
  <line x1="342" x2="403" y1="205.5" y2="205.5" class="net_91,92,93,94,95,96,97,98,99,100,101,102,103,104,105,106"/>
  <line x1="286.75" x2="342" y1="273.5" y2="273.5" class="net_91,92,93,94,95,96,97,98,99,100,101,102,103,104,105,106"/>
  <line x1="342" x2="342" y1="273.5" y2="225.5" class="net_91,92,93,94,95,96,97,98,99,100,101,102,103,104,105,106"/>
  <circle cx="342" cy="225.5" r="2" style="fill:#000" class="net_91,92,93,94,95,96,97,98,99,100,101,102,103,104,105,106"/>
  <line x1="342" x2="403" y1="225.5" y2="225.5" class="net_91,92,93,94,95,96,97,98,99,100,101,102,103,104,105,106"/>
  <line x1="286.75" x2="342" y1="273.5" y2="273.5" class="net_91,92,93,94,95,96,97,98,99,100,101,102,103,104,105,106"/>
  <line x1="342" x2="342" y1="273.5" y2="245.5" class="net_91,92,93,94,95,96,97,98,99,100,101,102,103,104,105,106"/>
  <circle cx="342" cy="245.5" r="2" style="fill:#000" class="net_91,92,93,94,95,96,97,98,99,100,101,102,103,104,105,106"/>
  <line x1="342" x2="403" y1="245.5" y2="245.5" class="net_91,92,93,94,95,96,97,98,99,100,101,102,103,104,105,106"/>
  <line x1="286.75" x2="352" y1="381.5" y2="381.5" class="net_107,108,109,110,111,112,113,114,115,116,117,118,119,120,121,122"/>
  <line x1="352" x2="352" y1="381.5" y2="265.5" class="net_107,108,109,110,111,112,113,114,115,116,117,118,119,120,121,122"/>
  <line x1="352" x2="403" y1="265.5" y2="265.5" class="net_107,108,109,110,111,112,113,114,115,116,117,118,119,120,121,122"/>
  <line x1="286.75" x2="352" y1="381.5" y2="381.5" class="net_107,108,109,110,111,112,113,114,115,116,117,118,119,120,121,122"/>
  <line x1="352" x2="352" y1="381.5" y2="285.5" class="net_107,108,109,110,111,112,113,114,115,116,117,118,119,120,121,122"/>
  <circle cx="352" cy="285.5" r="2" style="fill:#000" class="net_107,108,109,110,111,112,113,114,115,116,117,118,119,120,121,122"/>
  <line x1="352" x2="403" y1="285.5" y2="285.5" class="net_107,108,109,110,111,112,113,114,115,116,117,118,119,120,121,122"/>
  <line x1="126.7" x2="126.7" y1="246" y2="444" class="net_2,3,4"/>
  <line x1="126.7" x2="362" y1="444" y2="444" class="net_2,3,4"/>
  <line x1="362" x2="362" y1="444" y2="305.5" class="net_2,3,4"/>
  <line x1="362" x2="403" y1="305.5" y2="305.5" class="net_2,3,4"/>
  <line x1="434" x2="467" y1="145.5" y2="145.5" class="net_38,39,40,41,42,43,44,45,46,47,48,49,50,51,52,53"/>
  <line x1="467" x2="467" y1="145.5" y2="635.5" class="net_38,39,40,41,42,43,44,45,46,47,48,49,50,51,52,53"/>
  <circle cx="467" cy="145.5" r="2" style="fill:#000" class="net_38,39,40,41,42,43,44,45,46,47,48,49,50,51,52,53"/>
  <line x1="467" x2="899" y1="635.5" y2="635.5" class="net_38,39,40,41,42,43,44,45,46,47,48,49,50,51,52,53"/>
  <line x1="434" x2="492.5" y1="145.5" y2="145.5" class="net_38,39,40,41,42,43,44,45,46,47,48,49,50,51,52,53"/>
  <line x1="492.5" x2="492.5" y1="145.5" y2="185" class="net_38,39,40,41,42,43,44,45,46,47,48,49,50,51,52,53"/>
  <line x1="859" x2="899" y1="150.5" y2="150.5" class="net_54"/>
  <line x1="857.3333333333334" x2="899" y1="42" y2="42" class="net_55"/>
  <line x1="40" x2="122.2" y1="155.5" y2="155.5" class="net_2,3,4,5"/>
</svg>
