<svg xmlns="http://www.w3.org/2000/svg" xmlns:xlink="http://www.w3.org/1999/xlink" xmlns:s="https://github.com/nturley/netlistsvg" width="310" height="268">
  <style>svg {
    stroke:#000;
    fill:none;
  }
  text {
    fill:#000;
    stroke:none;
    font-size:10px;
    font-weight: bold;
    font-family: "Courier New", monospace;
  }
  .nodelabel {
    text-anchor: middle;
  }
  .inputPortLabel {
    text-anchor: end;
  }
  .splitjoinBody {
    fill:#000;
  }</style>
  <g s:type="dff" transform="translate(77,32)" s:width="30" s:height="40" id="cell_$auto$ff.cc:337:slice$86">
    <s:alias val="$dff"/>
    <s:alias val="$_DFF_"/>
    <s:alias val="$_DFF_P_"/>
    <rect width="30" height="40" x="0" y="0" class="cell_$auto$ff.cc:337:slice$86"/>
    <path d="M0,35 L5,30 L0,25" class="cell_$auto$ff.cc:337:slice$86"/>
    <g s:x="30" s:y="10" s:pid="Q"/>
    <g s:x="0" s:y="30" s:pid="CLK"/>
    <g s:x="0" s:y="30" s:pid="C"/>
    <g s:x="0" s:y="10" s:pid="D"/>
  </g>
  <g s:type="mux" transform="translate(258,108.5)" s:width="20" s:height="40" id="cell_$auto$simplemap.cc:298:simplemap_mux$85">
    <s:alias val="$pmux"/>
    <s:alias val="$mux"/>
    <s:alias val="$_MUX_"/>
    <path d="M0,0 L20,10 L20,30 L0,40 Z" class="cell_$auto$simplemap.cc:298:simplemap_mux$85"/>
    <g s:x="0" s:y="10" s:pid="A"/>
    <g s:x="0" s:y="30" s:pid="B"/>
    <g s:x="10" s:y="35" s:pid="S"/>
    <g s:x="20" s:y="20" s:pid="Y"/>
  </g>
  <g s:type="generic" transform="translate(173,128)" s:width="30" s:height="40" id="cell_u_mux">
    <text x="15" y="-4" class="nodelabel cell_u_mux" s:attribute="ref">flag_register_mux_2to1_1bit</text>
    <rect width="30" height="60" s:generic="body" class="cell_u_mux"/>
    <g transform="translate(0,10)" s:x="0" s:y="10" s:pid="in0" id="port_u_mux~i_d0">
      <text x="-3" y="-4" class="inputPortLabel cell_u_mux">i_d0</text>
    </g>
    <g transform="translate(0,30)" s:x="0" s:y="10" s:pid="in0" id="port_u_mux~i_d1">
      <text x="-3" y="-4" class="inputPortLabel cell_u_mux">i_d1</text>
    </g>
    <g transform="translate(0,50)" s:x="0" s:y="10" s:pid="in0" id="port_u_mux~i_sel">
      <text x="-3" y="-4" class="inputPortLabel cell_u_mux">i_sel</text>
    </g>
    <g transform="translate(30,10)" s:x="30" s:y="10" s:pid="out0" id="port_u_mux~o_y">
      <text x="5" y="-4" style="fill:#000; stroke:none" class="cell_u_mux">o_y</text>
    </g>
  </g>
  <g s:type="inputExt" transform="translate(12,52)" s:width="30" s:height="20" id="cell_i_clk">
    <text x="15" y="-4" class="nodelabel cell_i_clk" s:attribute="ref">i_clk</text>
    <s:alias val="$_inputExt_"/>
    <path d="M0,0 L0,20 L15,20 L30,10 L15,0 Z" class="cell_i_clk"/>
    <g s:x="28" s:y="10" s:pid="Y"/>
  </g>
  <g s:type="inputExt" transform="translate(173,236)" s:width="30" s:height="20" id="cell_i_rst_n">
    <text x="15" y="-4" class="nodelabel cell_i_rst_n" s:attribute="ref">i_rst_n</text>
    <s:alias val="$_inputExt_"/>
    <path d="M0,0 L0,20 L15,20 L30,10 L15,0 Z" class="cell_i_rst_n"/>
    <g s:x="28" s:y="10" s:pid="Y"/>
  </g>
  <g s:type="inputExt" transform="translate(77,213.5)" s:width="30" s:height="20" id="cell_i_we">
    <text x="15" y="-4" class="nodelabel cell_i_we" s:attribute="ref">i_we</text>
    <s:alias val="$_inputExt_"/>
    <path d="M0,0 L0,20 L15,20 L30,10 L15,0 Z" class="cell_i_we"/>
    <g s:x="28" s:y="10" s:pid="Y"/>
  </g>
  <g s:type="inputExt" transform="translate(77,148.5)" s:width="30" s:height="20" id="cell_i_d">
    <text x="15" y="-4" class="nodelabel cell_i_d" s:attribute="ref">i_d</text>
    <s:alias val="$_inputExt_"/>
    <path d="M0,0 L0,20 L15,20 L30,10 L15,0 Z" class="cell_i_d"/>
    <g s:x="28" s:y="10" s:pid="Y"/>
  </g>
  <g s:type="outputExt" transform="translate(258,32)" s:width="30" s:height="20" id="cell_o_q">
    <text x="15" y="-4" class="nodelabel cell_o_q" s:attribute="ref">o_q</text>
    <s:alias val="$_outputExt_"/>
    <path d="M30,0 L30,20 L15,20 L0,10 L15,0 Z" class="cell_o_q"/>
    <g s:x="0" s:y="10" s:pid="A"/>
  </g>
  <g s:type="constant" transform="translate(173,63)" s:width="30" s:height="20" id="cell_0">
    <text x="15" y="-4" class="nodelabel cell_0" s:attribute="ref">0</text>
    <s:alias val="$_constant_"/>
    <rect width="30" height="20" class="cell_0"/>
    <g s:x="30" s:y="10" s:pid="Y"/>
  </g>
  <line x1="40" x2="77" y1="62" y2="62" class="net_2"/>
  <line x1="278" x2="298" y1="128.5" y2="128.5" class="net_7"/>
  <line x1="298" x2="298" y1="128.5" y2="12" class="net_7"/>
  <line x1="298" x2="52" y1="12" y2="12" class="net_7"/>
  <line x1="52" x2="52" y1="12" y2="42" class="net_7"/>
  <line x1="52" x2="77" y1="42" y2="42" class="net_7"/>
  <line x1="203" x2="233" y1="73" y2="73" class="net_9"/>
  <line x1="233" x2="233" y1="73" y2="118.5" class="net_9"/>
  <line x1="233" x2="258" y1="118.5" y2="118.5" class="net_9"/>
  <line x1="204" x2="258" y1="138.5" y2="138.5" class="net_8"/>
  <line x1="201" x2="268" y1="246" y2="246" class="net_3"/>
  <line x1="268" x2="268" y1="246" y2="143.5" class="net_3"/>
  <line x1="107" x2="117" y1="42" y2="42" class="net_6"/>
  <line x1="117" x2="117" y1="42" y2="138.5" class="net_6"/>
  <circle cx="117" cy="42" r="2" style="fill:#000" class="net_6"/>
  <line x1="117" x2="173" y1="138.5" y2="138.5" class="net_6"/>
  <line x1="107" x2="258" y1="42" y2="42" class="net_6"/>
  <line x1="105" x2="173" y1="158.5" y2="158.5" class="net_5"/>
  <line x1="105" x2="117" y1="223.5" y2="223.5" class="net_4"/>
  <line x1="117" x2="117" y1="223.5" y2="178.5" class="net_4"/>
  <line x1="117" x2="173" y1="178.5" y2="178.5" class="net_4"/>
</svg>
