<svg xmlns="http://www.w3.org/2000/svg" xmlns:xlink="http://www.w3.org/1999/xlink" xmlns:s="https://github.com/nturley/netlistsvg" width="1183" height="990.5">
  <style>svg {
    stroke:#000;
    fill:none;
  }
  text {
    fill:#000;
    stroke:none;
    font-size:10px;
    font-weight: bold;
    font-family: "Courier New", monospace;
  }
  .nodelabel {
    text-anchor: middle;
  }
  .inputPortLabel {
    text-anchor: end;
  }
  .splitjoinBody {
    fill:#000;
  }</style>
  <g s:type="or" transform="translate(827,47)" s:width="30" s:height="25" id="cell_$auto$simplemap.cc:106:simplemap_bitop$112">
    <s:alias val="$or"/>
    <s:alias val="$logic_or"/>
    <s:alias val="$_OR_"/>
    <path d="M0,25 L0,25 L15,25 A15 12.5 0 0 0 15,0 L0,0" class="cell_$auto$simplemap.cc:106:simplemap_bitop$112"/>
    <path d="M0,0 A30 25 0 0 1 0,25" class="cell_$auto$simplemap.cc:106:simplemap_bitop$112"/>
    <g s:x="3" s:y="5" s:pid="A"/>
    <g s:x="3" s:y="20" s:pid="B"/>
    <g s:x="30" s:y="12.5" s:pid="Y"/>
  </g>
  <g s:type="or" transform="translate(892,54.5)" s:width="30" s:height="25" id="cell_$auto$simplemap.cc:106:simplemap_bitop$113">
    <s:alias val="$or"/>
    <s:alias val="$logic_or"/>
    <s:alias val="$_OR_"/>
    <path d="M0,25 L0,25 L15,25 A15 12.5 0 0 0 15,0 L0,0" class="cell_$auto$simplemap.cc:106:simplemap_bitop$113"/>
    <path d="M0,0 A30 25 0 0 1 0,25" class="cell_$auto$simplemap.cc:106:simplemap_bitop$113"/>
    <g s:x="3" s:y="5" s:pid="A"/>
    <g s:x="3" s:y="20" s:pid="B"/>
    <g s:x="30" s:y="12.5" s:pid="Y"/>
  </g>
  <g s:type="or" transform="translate(957,62)" s:width="30" s:height="25" id="cell_$auto$simplemap.cc:106:simplemap_bitop$114">
    <s:alias val="$or"/>
    <s:alias val="$logic_or"/>
    <s:alias val="$_OR_"/>
    <path d="M0,25 L0,25 L15,25 A15 12.5 0 0 0 15,0 L0,0" class="cell_$auto$simplemap.cc:106:simplemap_bitop$114"/>
    <path d="M0,0 A30 25 0 0 1 0,25" class="cell_$auto$simplemap.cc:106:simplemap_bitop$114"/>
    <g s:x="3" s:y="5" s:pid="A"/>
    <g s:x="3" s:y="20" s:pid="B"/>
    <g s:x="30" s:y="12.5" s:pid="Y"/>
  </g>
  <g s:type="or" transform="translate(827,149.5)" s:width="30" s:height="25" id="cell_$auto$simplemap.cc:106:simplemap_bitop$115">
    <s:alias val="$or"/>
    <s:alias val="$logic_or"/>
    <s:alias val="$_OR_"/>
    <path d="M0,25 L0,25 L15,25 A15 12.5 0 0 0 15,0 L0,0" class="cell_$auto$simplemap.cc:106:simplemap_bitop$115"/>
    <path d="M0,0 A30 25 0 0 1 0,25" class="cell_$auto$simplemap.cc:106:simplemap_bitop$115"/>
    <g s:x="3" s:y="5" s:pid="A"/>
    <g s:x="3" s:y="20" s:pid="B"/>
    <g s:x="30" s:y="12.5" s:pid="Y"/>
  </g>
  <g s:type="or" transform="translate(892,157)" s:width="30" s:height="25" id="cell_$auto$simplemap.cc:106:simplemap_bitop$116">
    <s:alias val="$or"/>
    <s:alias val="$logic_or"/>
    <s:alias val="$_OR_"/>
    <path d="M0,25 L0,25 L15,25 A15 12.5 0 0 0 15,0 L0,0" class="cell_$auto$simplemap.cc:106:simplemap_bitop$116"/>
    <path d="M0,0 A30 25 0 0 1 0,25" class="cell_$auto$simplemap.cc:106:simplemap_bitop$116"/>
    <g s:x="3" s:y="5" s:pid="A"/>
    <g s:x="3" s:y="20" s:pid="B"/>
    <g s:x="30" s:y="12.5" s:pid="Y"/>
  </g>
  <g s:type="or" transform="translate(957,164.5)" s:width="30" s:height="25" id="cell_$auto$simplemap.cc:106:simplemap_bitop$117">
    <s:alias val="$or"/>
    <s:alias val="$logic_or"/>
    <s:alias val="$_OR_"/>
    <path d="M0,25 L0,25 L15,25 A15 12.5 0 0 0 15,0 L0,0" class="cell_$auto$simplemap.cc:106:simplemap_bitop$117"/>
    <path d="M0,0 A30 25 0 0 1 0,25" class="cell_$auto$simplemap.cc:106:simplemap_bitop$117"/>
    <g s:x="3" s:y="5" s:pid="A"/>
    <g s:x="3" s:y="20" s:pid="B"/>
    <g s:x="30" s:y="12.5" s:pid="Y"/>
  </g>
  <g s:type="or" transform="translate(827,209.5)" s:width="30" s:height="25" id="cell_$auto$simplemap.cc:106:simplemap_bitop$118">
    <s:alias val="$or"/>
    <s:alias val="$logic_or"/>
    <s:alias val="$_OR_"/>
    <path d="M0,25 L0,25 L15,25 A15 12.5 0 0 0 15,0 L0,0" class="cell_$auto$simplemap.cc:106:simplemap_bitop$118"/>
    <path d="M0,0 A30 25 0 0 1 0,25" class="cell_$auto$simplemap.cc:106:simplemap_bitop$118"/>
    <g s:x="3" s:y="5" s:pid="A"/>
    <g s:x="3" s:y="20" s:pid="B"/>
    <g s:x="30" s:y="12.5" s:pid="Y"/>
  </g>
  <g s:type="or" transform="translate(892,217)" s:width="30" s:height="25" id="cell_$auto$simplemap.cc:106:simplemap_bitop$119">
    <s:alias val="$or"/>
    <s:alias val="$logic_or"/>
    <s:alias val="$_OR_"/>
    <path d="M0,25 L0,25 L15,25 A15 12.5 0 0 0 15,0 L0,0" class="cell_$auto$simplemap.cc:106:simplemap_bitop$119"/>
    <path d="M0,0 A30 25 0 0 1 0,25" class="cell_$auto$simplemap.cc:106:simplemap_bitop$119"/>
    <g s:x="3" s:y="5" s:pid="A"/>
    <g s:x="3" s:y="20" s:pid="B"/>
    <g s:x="30" s:y="12.5" s:pid="Y"/>
  </g>
  <g s:type="or" transform="translate(957,224.5)" s:width="30" s:height="25" id="cell_$auto$simplemap.cc:106:simplemap_bitop$120">
    <s:alias val="$or"/>
    <s:alias val="$logic_or"/>
    <s:alias val="$_OR_"/>
    <path d="M0,25 L0,25 L15,25 A15 12.5 0 0 0 15,0 L0,0" class="cell_$auto$simplemap.cc:106:simplemap_bitop$120"/>
    <path d="M0,0 A30 25 0 0 1 0,25" class="cell_$auto$simplemap.cc:106:simplemap_bitop$120"/>
    <g s:x="3" s:y="5" s:pid="A"/>
    <g s:x="3" s:y="20" s:pid="B"/>
    <g s:x="30" s:y="12.5" s:pid="Y"/>
  </g>
  <g s:type="or" transform="translate(827,472)" s:width="30" s:height="25" id="cell_$auto$simplemap.cc:106:simplemap_bitop$121">
    <s:alias val="$or"/>
    <s:alias val="$logic_or"/>
    <s:alias val="$_OR_"/>
    <path d="M0,25 L0,25 L15,25 A15 12.5 0 0 0 15,0 L0,0" class="cell_$auto$simplemap.cc:106:simplemap_bitop$121"/>
    <path d="M0,0 A30 25 0 0 1 0,25" class="cell_$auto$simplemap.cc:106:simplemap_bitop$121"/>
    <g s:x="3" s:y="5" s:pid="A"/>
    <g s:x="3" s:y="20" s:pid="B"/>
    <g s:x="30" s:y="12.5" s:pid="Y"/>
  </g>
  <g s:type="or" transform="translate(892,479.5)" s:width="30" s:height="25" id="cell_$auto$simplemap.cc:106:simplemap_bitop$122">
    <s:alias val="$or"/>
    <s:alias val="$logic_or"/>
    <s:alias val="$_OR_"/>
    <path d="M0,25 L0,25 L15,25 A15 12.5 0 0 0 15,0 L0,0" class="cell_$auto$simplemap.cc:106:simplemap_bitop$122"/>
    <path d="M0,0 A30 25 0 0 1 0,25" class="cell_$auto$simplemap.cc:106:simplemap_bitop$122"/>
    <g s:x="3" s:y="5" s:pid="A"/>
    <g s:x="3" s:y="20" s:pid="B"/>
    <g s:x="30" s:y="12.5" s:pid="Y"/>
  </g>
  <g s:type="or" transform="translate(957,487)" s:width="30" s:height="25" id="cell_$auto$simplemap.cc:106:simplemap_bitop$123">
    <s:alias val="$or"/>
    <s:alias val="$logic_or"/>
    <s:alias val="$_OR_"/>
    <path d="M0,25 L0,25 L15,25 A15 12.5 0 0 0 15,0 L0,0" class="cell_$auto$simplemap.cc:106:simplemap_bitop$123"/>
    <path d="M0,0 A30 25 0 0 1 0,25" class="cell_$auto$simplemap.cc:106:simplemap_bitop$123"/>
    <g s:x="3" s:y="5" s:pid="A"/>
    <g s:x="3" s:y="20" s:pid="B"/>
    <g s:x="30" s:y="12.5" s:pid="Y"/>
  </g>
  <g s:type="or" transform="translate(1022,494.5)" s:width="30" s:height="25" id="cell_$auto$simplemap.cc:106:simplemap_bitop$124">
    <s:alias val="$or"/>
    <s:alias val="$logic_or"/>
    <s:alias val="$_OR_"/>
    <path d="M0,25 L0,25 L15,25 A15 12.5 0 0 0 15,0 L0,0" class="cell_$auto$simplemap.cc:106:simplemap_bitop$124"/>
    <path d="M0,0 A30 25 0 0 1 0,25" class="cell_$auto$simplemap.cc:106:simplemap_bitop$124"/>
    <g s:x="3" s:y="5" s:pid="A"/>
    <g s:x="3" s:y="20" s:pid="B"/>
    <g s:x="30" s:y="12.5" s:pid="Y"/>
  </g>
  <g s:type="or" transform="translate(307,583)" s:width="30" s:height="25" id="cell_$auto$simplemap.cc:106:simplemap_bitop$125">
    <s:alias val="$or"/>
    <s:alias val="$logic_or"/>
    <s:alias val="$_OR_"/>
    <path d="M0,25 L0,25 L15,25 A15 12.5 0 0 0 15,0 L0,0" class="cell_$auto$simplemap.cc:106:simplemap_bitop$125"/>
    <path d="M0,0 A30 25 0 0 1 0,25" class="cell_$auto$simplemap.cc:106:simplemap_bitop$125"/>
    <g s:x="3" s:y="5" s:pid="A"/>
    <g s:x="3" s:y="20" s:pid="B"/>
    <g s:x="30" s:y="12.5" s:pid="Y"/>
  </g>
  <g s:type="or" transform="translate(372,590.5)" s:width="30" s:height="25" id="cell_$auto$simplemap.cc:106:simplemap_bitop$126">
    <s:alias val="$or"/>
    <s:alias val="$logic_or"/>
    <s:alias val="$_OR_"/>
    <path d="M0,25 L0,25 L15,25 A15 12.5 0 0 0 15,0 L0,0" class="cell_$auto$simplemap.cc:106:simplemap_bitop$126"/>
    <path d="M0,0 A30 25 0 0 1 0,25" class="cell_$auto$simplemap.cc:106:simplemap_bitop$126"/>
    <g s:x="3" s:y="5" s:pid="A"/>
    <g s:x="3" s:y="20" s:pid="B"/>
    <g s:x="30" s:y="12.5" s:pid="Y"/>
  </g>
  <g s:type="or" transform="translate(437,598)" s:width="30" s:height="25" id="cell_$auto$simplemap.cc:106:simplemap_bitop$127">
    <s:alias val="$or"/>
    <s:alias val="$logic_or"/>
    <s:alias val="$_OR_"/>
    <path d="M0,25 L0,25 L15,25 A15 12.5 0 0 0 15,0 L0,0" class="cell_$auto$simplemap.cc:106:simplemap_bitop$127"/>
    <path d="M0,0 A30 25 0 0 1 0,25" class="cell_$auto$simplemap.cc:106:simplemap_bitop$127"/>
    <g s:x="3" s:y="5" s:pid="A"/>
    <g s:x="3" s:y="20" s:pid="B"/>
    <g s:x="30" s:y="12.5" s:pid="Y"/>
  </g>
  <g s:type="or" transform="translate(502,605.5)" s:width="30" s:height="25" id="cell_$auto$simplemap.cc:106:simplemap_bitop$128">
    <s:alias val="$or"/>
    <s:alias val="$logic_or"/>
    <s:alias val="$_OR_"/>
    <path d="M0,25 L0,25 L15,25 A15 12.5 0 0 0 15,0 L0,0" class="cell_$auto$simplemap.cc:106:simplemap_bitop$128"/>
    <path d="M0,0 A30 25 0 0 1 0,25" class="cell_$auto$simplemap.cc:106:simplemap_bitop$128"/>
    <g s:x="3" s:y="5" s:pid="A"/>
    <g s:x="3" s:y="20" s:pid="B"/>
    <g s:x="30" s:y="12.5" s:pid="Y"/>
  </g>
  <g s:type="or" transform="translate(567,613)" s:width="30" s:height="25" id="cell_$auto$simplemap.cc:106:simplemap_bitop$129">
    <s:alias val="$or"/>
    <s:alias val="$logic_or"/>
    <s:alias val="$_OR_"/>
    <path d="M0,25 L0,25 L15,25 A15 12.5 0 0 0 15,0 L0,0" class="cell_$auto$simplemap.cc:106:simplemap_bitop$129"/>
    <path d="M0,0 A30 25 0 0 1 0,25" class="cell_$auto$simplemap.cc:106:simplemap_bitop$129"/>
    <g s:x="3" s:y="5" s:pid="A"/>
    <g s:x="3" s:y="20" s:pid="B"/>
    <g s:x="30" s:y="12.5" s:pid="Y"/>
  </g>
  <g s:type="or" transform="translate(632,620.5)" s:width="30" s:height="25" id="cell_$auto$simplemap.cc:106:simplemap_bitop$130">
    <s:alias val="$or"/>
    <s:alias val="$logic_or"/>
    <s:alias val="$_OR_"/>
    <path d="M0,25 L0,25 L15,25 A15 12.5 0 0 0 15,0 L0,0" class="cell_$auto$simplemap.cc:106:simplemap_bitop$130"/>
    <path d="M0,0 A30 25 0 0 1 0,25" class="cell_$auto$simplemap.cc:106:simplemap_bitop$130"/>
    <g s:x="3" s:y="5" s:pid="A"/>
    <g s:x="3" s:y="20" s:pid="B"/>
    <g s:x="30" s:y="12.5" s:pid="Y"/>
  </g>
  <g s:type="or" transform="translate(697,628)" s:width="30" s:height="25" id="cell_$auto$simplemap.cc:106:simplemap_bitop$131">
    <s:alias val="$or"/>
    <s:alias val="$logic_or"/>
    <s:alias val="$_OR_"/>
    <path d="M0,25 L0,25 L15,25 A15 12.5 0 0 0 15,0 L0,0" class="cell_$auto$simplemap.cc:106:simplemap_bitop$131"/>
    <path d="M0,0 A30 25 0 0 1 0,25" class="cell_$auto$simplemap.cc:106:simplemap_bitop$131"/>
    <g s:x="3" s:y="5" s:pid="A"/>
    <g s:x="3" s:y="20" s:pid="B"/>
    <g s:x="30" s:y="12.5" s:pid="Y"/>
  </g>
  <g s:type="or" transform="translate(762,635.5)" s:width="30" s:height="25" id="cell_$auto$simplemap.cc:106:simplemap_bitop$132">
    <s:alias val="$or"/>
    <s:alias val="$logic_or"/>
    <s:alias val="$_OR_"/>
    <path d="M0,25 L0,25 L15,25 A15 12.5 0 0 0 15,0 L0,0" class="cell_$auto$simplemap.cc:106:simplemap_bitop$132"/>
    <path d="M0,0 A30 25 0 0 1 0,25" class="cell_$auto$simplemap.cc:106:simplemap_bitop$132"/>
    <g s:x="3" s:y="5" s:pid="A"/>
    <g s:x="3" s:y="20" s:pid="B"/>
    <g s:x="30" s:y="12.5" s:pid="Y"/>
  </g>
  <g s:type="or" transform="translate(827,643)" s:width="30" s:height="25" id="cell_$auto$simplemap.cc:106:simplemap_bitop$133">
    <s:alias val="$or"/>
    <s:alias val="$logic_or"/>
    <s:alias val="$_OR_"/>
    <path d="M0,25 L0,25 L15,25 A15 12.5 0 0 0 15,0 L0,0" class="cell_$auto$simplemap.cc:106:simplemap_bitop$133"/>
    <path d="M0,0 A30 25 0 0 1 0,25" class="cell_$auto$simplemap.cc:106:simplemap_bitop$133"/>
    <g s:x="3" s:y="5" s:pid="A"/>
    <g s:x="3" s:y="20" s:pid="B"/>
    <g s:x="30" s:y="12.5" s:pid="Y"/>
  </g>
  <g s:type="or" transform="translate(892,650.5)" s:width="30" s:height="25" id="cell_$auto$simplemap.cc:106:simplemap_bitop$134">
    <s:alias val="$or"/>
    <s:alias val="$logic_or"/>
    <s:alias val="$_OR_"/>
    <path d="M0,25 L0,25 L15,25 A15 12.5 0 0 0 15,0 L0,0" class="cell_$auto$simplemap.cc:106:simplemap_bitop$134"/>
    <path d="M0,0 A30 25 0 0 1 0,25" class="cell_$auto$simplemap.cc:106:simplemap_bitop$134"/>
    <g s:x="3" s:y="5" s:pid="A"/>
    <g s:x="3" s:y="20" s:pid="B"/>
    <g s:x="30" s:y="12.5" s:pid="Y"/>
  </g>
  <g s:type="or" transform="translate(957,658)" s:width="30" s:height="25" id="cell_$auto$simplemap.cc:106:simplemap_bitop$135">
    <s:alias val="$or"/>
    <s:alias val="$logic_or"/>
    <s:alias val="$_OR_"/>
    <path d="M0,25 L0,25 L15,25 A15 12.5 0 0 0 15,0 L0,0" class="cell_$auto$simplemap.cc:106:simplemap_bitop$135"/>
    <path d="M0,0 A30 25 0 0 1 0,25" class="cell_$auto$simplemap.cc:106:simplemap_bitop$135"/>
    <g s:x="3" s:y="5" s:pid="A"/>
    <g s:x="3" s:y="20" s:pid="B"/>
    <g s:x="30" s:y="12.5" s:pid="Y"/>
  </g>
  <g s:type="or" transform="translate(1022,665.5)" s:width="30" s:height="25" id="cell_$auto$simplemap.cc:106:simplemap_bitop$136">
    <s:alias val="$or"/>
    <s:alias val="$logic_or"/>
    <s:alias val="$_OR_"/>
    <path d="M0,25 L0,25 L15,25 A15 12.5 0 0 0 15,0 L0,0" class="cell_$auto$simplemap.cc:106:simplemap_bitop$136"/>
    <path d="M0,0 A30 25 0 0 1 0,25" class="cell_$auto$simplemap.cc:106:simplemap_bitop$136"/>
    <g s:x="3" s:y="5" s:pid="A"/>
    <g s:x="3" s:y="20" s:pid="B"/>
    <g s:x="30" s:y="12.5" s:pid="Y"/>
  </g>
  <g s:type="or" transform="translate(892,786.5)" s:width="30" s:height="25" id="cell_$auto$simplemap.cc:106:simplemap_bitop$137">
    <s:alias val="$or"/>
    <s:alias val="$logic_or"/>
    <s:alias val="$_OR_"/>
    <path d="M0,25 L0,25 L15,25 A15 12.5 0 0 0 15,0 L0,0" class="cell_$auto$simplemap.cc:106:simplemap_bitop$137"/>
    <path d="M0,0 A30 25 0 0 1 0,25" class="cell_$auto$simplemap.cc:106:simplemap_bitop$137"/>
    <g s:x="3" s:y="5" s:pid="A"/>
    <g s:x="3" s:y="20" s:pid="B"/>
    <g s:x="30" s:y="12.5" s:pid="Y"/>
  </g>
  <g s:type="or" transform="translate(957,794)" s:width="30" s:height="25" id="cell_$auto$simplemap.cc:106:simplemap_bitop$138">
    <s:alias val="$or"/>
    <s:alias val="$logic_or"/>
    <s:alias val="$_OR_"/>
    <path d="M0,25 L0,25 L15,25 A15 12.5 0 0 0 15,0 L0,0" class="cell_$auto$simplemap.cc:106:simplemap_bitop$138"/>
    <path d="M0,0 A30 25 0 0 1 0,25" class="cell_$auto$simplemap.cc:106:simplemap_bitop$138"/>
    <g s:x="3" s:y="5" s:pid="A"/>
    <g s:x="3" s:y="20" s:pid="B"/>
    <g s:x="30" s:y="12.5" s:pid="Y"/>
  </g>
  <g s:type="or" transform="translate(827,839)" s:width="30" s:height="25" id="cell_$auto$simplemap.cc:106:simplemap_bitop$139">
    <s:alias val="$or"/>
    <s:alias val="$logic_or"/>
    <s:alias val="$_OR_"/>
    <path d="M0,25 L0,25 L15,25 A15 12.5 0 0 0 15,0 L0,0" class="cell_$auto$simplemap.cc:106:simplemap_bitop$139"/>
    <path d="M0,0 A30 25 0 0 1 0,25" class="cell_$auto$simplemap.cc:106:simplemap_bitop$139"/>
    <g s:x="3" s:y="5" s:pid="A"/>
    <g s:x="3" s:y="20" s:pid="B"/>
    <g s:x="30" s:y="12.5" s:pid="Y"/>
  </g>
  <g s:type="or" transform="translate(892,846.5)" s:width="30" s:height="25" id="cell_$auto$simplemap.cc:106:simplemap_bitop$140">
    <s:alias val="$or"/>
    <s:alias val="$logic_or"/>
    <s:alias val="$_OR_"/>
    <path d="M0,25 L0,25 L15,25 A15 12.5 0 0 0 15,0 L0,0" class="cell_$auto$simplemap.cc:106:simplemap_bitop$140"/>
    <path d="M0,0 A30 25 0 0 1 0,25" class="cell_$auto$simplemap.cc:106:simplemap_bitop$140"/>
    <g s:x="3" s:y="5" s:pid="A"/>
    <g s:x="3" s:y="20" s:pid="B"/>
    <g s:x="30" s:y="12.5" s:pid="Y"/>
  </g>
  <g s:type="or" transform="translate(957,854)" s:width="30" s:height="25" id="cell_$auto$simplemap.cc:106:simplemap_bitop$141">
    <s:alias val="$or"/>
    <s:alias val="$logic_or"/>
    <s:alias val="$_OR_"/>
    <path d="M0,25 L0,25 L15,25 A15 12.5 0 0 0 15,0 L0,0" class="cell_$auto$simplemap.cc:106:simplemap_bitop$141"/>
    <path d="M0,0 A30 25 0 0 1 0,25" class="cell_$auto$simplemap.cc:106:simplemap_bitop$141"/>
    <g s:x="3" s:y="5" s:pid="A"/>
    <g s:x="3" s:y="20" s:pid="B"/>
    <g s:x="30" s:y="12.5" s:pid="Y"/>
  </g>
  <g s:type="or" transform="translate(957,367)" s:width="30" s:height="25" id="cell_$auto$simplemap.cc:106:simplemap_bitop$142">
    <s:alias val="$or"/>
    <s:alias val="$logic_or"/>
    <s:alias val="$_OR_"/>
    <path d="M0,25 L0,25 L15,25 A15 12.5 0 0 0 15,0 L0,0" class="cell_$auto$simplemap.cc:106:simplemap_bitop$142"/>
    <path d="M0,0 A30 25 0 0 1 0,25" class="cell_$auto$simplemap.cc:106:simplemap_bitop$142"/>
    <g s:x="3" s:y="5" s:pid="A"/>
    <g s:x="3" s:y="20" s:pid="B"/>
    <g s:x="30" s:y="12.5" s:pid="Y"/>
  </g>
  <g s:type="or" transform="translate(892,419.5)" s:width="30" s:height="25" id="cell_$auto$simplemap.cc:106:simplemap_bitop$143">
    <s:alias val="$or"/>
    <s:alias val="$logic_or"/>
    <s:alias val="$_OR_"/>
    <path d="M0,25 L0,25 L15,25 A15 12.5 0 0 0 15,0 L0,0" class="cell_$auto$simplemap.cc:106:simplemap_bitop$143"/>
    <path d="M0,0 A30 25 0 0 1 0,25" class="cell_$auto$simplemap.cc:106:simplemap_bitop$143"/>
    <g s:x="3" s:y="5" s:pid="A"/>
    <g s:x="3" s:y="20" s:pid="B"/>
    <g s:x="30" s:y="12.5" s:pid="Y"/>
  </g>
  <g s:type="or" transform="translate(957,427)" s:width="30" s:height="25" id="cell_$auto$simplemap.cc:106:simplemap_bitop$144">
    <s:alias val="$or"/>
    <s:alias val="$logic_or"/>
    <s:alias val="$_OR_"/>
    <path d="M0,25 L0,25 L15,25 A15 12.5 0 0 0 15,0 L0,0" class="cell_$auto$simplemap.cc:106:simplemap_bitop$144"/>
    <path d="M0,0 A30 25 0 0 1 0,25" class="cell_$auto$simplemap.cc:106:simplemap_bitop$144"/>
    <g s:x="3" s:y="5" s:pid="A"/>
    <g s:x="3" s:y="20" s:pid="B"/>
    <g s:x="30" s:y="12.5" s:pid="Y"/>
  </g>
  <g s:type="or" transform="translate(1022,891)" s:width="30" s:height="25" id="cell_$auto$simplemap.cc:106:simplemap_bitop$145">
    <s:alias val="$or"/>
    <s:alias val="$logic_or"/>
    <s:alias val="$_OR_"/>
    <path d="M0,25 L0,25 L15,25 A15 12.5 0 0 0 15,0 L0,0" class="cell_$auto$simplemap.cc:106:simplemap_bitop$145"/>
    <path d="M0,0 A30 25 0 0 1 0,25" class="cell_$auto$simplemap.cc:106:simplemap_bitop$145"/>
    <g s:x="3" s:y="5" s:pid="A"/>
    <g s:x="3" s:y="20" s:pid="B"/>
    <g s:x="30" s:y="12.5" s:pid="Y"/>
  </g>
  <g s:type="or" transform="translate(1022,734)" s:width="30" s:height="25" id="cell_$auto$simplemap.cc:106:simplemap_bitop$146">
    <s:alias val="$or"/>
    <s:alias val="$logic_or"/>
    <s:alias val="$_OR_"/>
    <path d="M0,25 L0,25 L15,25 A15 12.5 0 0 0 15,0 L0,0" class="cell_$auto$simplemap.cc:106:simplemap_bitop$146"/>
    <path d="M0,0 A30 25 0 0 1 0,25" class="cell_$auto$simplemap.cc:106:simplemap_bitop$146"/>
    <g s:x="3" s:y="5" s:pid="A"/>
    <g s:x="3" s:y="20" s:pid="B"/>
    <g s:x="30" s:y="12.5" s:pid="Y"/>
  </g>
  <g s:type="inputExt" transform="translate(12,22)" s:width="30" s:height="20" id="cell_i_inst_active">
    <text x="15" y="-4" class="nodelabel cell_i_inst_active" s:attribute="ref">i_inst_active</text>
    <s:alias val="$_inputExt_"/>
    <path d="M0,0 L0,20 L15,20 L30,10 L15,0 Z" class="cell_i_inst_active"/>
    <g s:x="28" s:y="10" s:pid="Y"/>
  </g>
  <g s:type="outputExt" transform="translate(1087,157)" s:width="30" s:height="20" id="cell_o_alu_op">
    <text x="15" y="-4" class="nodelabel cell_o_alu_op" s:attribute="ref">o_alu_op</text>
    <s:alias val="$_outputExt_"/>
    <path d="M30,0 L30,20 L15,20 L0,10 L15,0 Z" class="cell_o_alu_op"/>
    <g s:x="0" s:y="10" s:pid="A"/>
  </g>
  <g s:type="outputExt" transform="translate(1087,497)" s:width="30" s:height="20" id="cell_o_alu_src_b">
    <text x="15" y="-4" class="nodelabel cell_o_alu_src_b" s:attribute="ref">o_alu_src_b</text>
    <s:alias val="$_outputExt_"/>
    <path d="M30,0 L30,20 L15,20 L0,10 L15,0 Z" class="cell_o_alu_src_b"/>
    <g s:x="0" s:y="10" s:pid="A"/>
  </g>
  <g s:type="outputExt" transform="translate(1087,668)" s:width="30" s:height="20" id="cell_o_reg_write_en">
    <text x="15" y="-4" class="nodelabel cell_o_reg_write_en" s:attribute="ref">o_reg_write_en</text>
    <s:alias val="$_outputExt_"/>
    <path d="M30,0 L30,20 L15,20 L0,10 L15,0 Z" class="cell_o_reg_write_en"/>
    <g s:x="0" s:y="10" s:pid="A"/>
  </g>
  <g s:type="outputExt" transform="translate(1087,562)" s:width="30" s:height="20" id="cell_o_mem_write_en">
    <text x="15" y="-4" class="nodelabel cell_o_mem_write_en" s:attribute="ref">o_mem_write_en</text>
    <s:alias val="$_outputExt_"/>
    <path d="M30,0 L30,20 L15,20 L0,10 L15,0 Z" class="cell_o_mem_write_en"/>
    <g s:x="0" s:y="10" s:pid="A"/>
  </g>
  <g s:type="outputExt" transform="translate(1087,314.5)" s:width="30" s:height="20" id="cell_o_mem_to_reg">
    <text x="15" y="-4" class="nodelabel cell_o_mem_to_reg" s:attribute="ref">o_mem_to_reg</text>
    <s:alias val="$_outputExt_"/>
    <path d="M30,0 L30,20 L15,20 L0,10 L15,0 Z" class="cell_o_mem_to_reg"/>
    <g s:x="0" s:y="10" s:pid="A"/>
  </g>
  <g s:type="outputExt" transform="translate(1087,958.5)" s:width="30" s:height="20" id="cell_o_pc_src_sel">
    <text x="15" y="-4" class="nodelabel cell_o_pc_src_sel" s:attribute="ref">o_pc_src_sel</text>
    <s:alias val="$_outputExt_"/>
    <path d="M30,0 L30,20 L15,20 L0,10 L15,0 Z" class="cell_o_pc_src_sel"/>
    <g s:x="0" s:y="10" s:pid="A"/>
  </g>
  <g s:type="outputExt" transform="translate(1087,806.5)" s:width="30" s:height="20" id="cell_o_imm_sel">
    <text x="15" y="-4" class="nodelabel cell_o_imm_sel" s:attribute="ref">o_imm_sel</text>
    <s:alias val="$_outputExt_"/>
    <path d="M30,0 L30,20 L15,20 L0,10 L15,0 Z" class="cell_o_imm_sel"/>
    <g s:x="0" s:y="10" s:pid="A"/>
  </g>
  <g s:type="outputExt" transform="translate(1087,379.5)" s:width="30" s:height="20" id="cell_o_wb_sel">
    <text x="15" y="-4" class="nodelabel cell_o_wb_sel" s:attribute="ref">o_wb_sel</text>
    <s:alias val="$_outputExt_"/>
    <path d="M30,0 L30,20 L15,20 L0,10 L15,0 Z" class="cell_o_wb_sel"/>
    <g s:x="0" s:y="10" s:pid="A"/>
  </g>
  <g s:type="outputExt" transform="translate(1087,893.5)" s:width="30" s:height="20" id="cell_o_is_branch">
    <text x="15" y="-4" class="nodelabel cell_o_is_branch" s:attribute="ref">o_is_branch</text>
    <s:alias val="$_outputExt_"/>
    <path d="M30,0 L30,20 L15,20 L0,10 L15,0 Z" class="cell_o_is_branch"/>
    <g s:x="0" s:y="10" s:pid="A"/>
  </g>
  <g s:type="outputExt" transform="translate(1087,736.5)" s:width="30" s:height="20" id="cell_o_is_jump_link">
    <text x="15" y="-4" class="nodelabel cell_o_is_jump_link" s:attribute="ref">o_is_jump_link</text>
    <s:alias val="$_outputExt_"/>
    <path d="M30,0 L30,20 L15,20 L0,10 L15,0 Z" class="cell_o_is_jump_link"/>
    <g s:x="0" s:y="10" s:pid="A"/>
  </g>
  <g s:type="constant" transform="translate(957,294.5)" s:width="30" s:height="20" id="cell_0">
    <text x="15" y="-4" class="nodelabel cell_0" s:attribute="ref">0</text>
    <s:alias val="$_constant_"/>
    <rect width="30" height="20" class="cell_0"/>
    <g s:x="30" s:y="10" s:pid="Y"/>
  </g>
  <g s:type="join" transform="translate(1032,146.5)" s:width="4" s:height="40" id="cell_$join$,18,19,20,53,">
    <rect width="5" height="80" class="splitjoinBody" s:generic="body"/>
    <s:alias val="$_join_"/>
    <g s:x="5" s:y="20" s:pid="out"/>
    <g transform="translate(0,10)" s:x="0" s:y="10" s:pid="in0">
      <text x="-3" y="-4" class="inputPortLabel">0</text>
    </g>
    <g transform="translate(0,30)" s:x="0" s:y="10" s:pid="in0">
      <text x="-3" y="-4" class="inputPortLabel">1</text>
    </g>
    <g transform="translate(0,50)" s:x="0" s:y="10" s:pid="in0">
      <text x="-3" y="-4" class="inputPortLabel">2</text>
    </g>
    <g transform="translate(0,70)" s:x="0" s:y="10" s:pid="in0">
      <text x="-3" y="-4" class="inputPortLabel">3</text>
    </g>
  </g>
  <g s:type="join" transform="translate(1033,796)" s:width="4" s:height="40" id="cell_$join$,23,24,">
    <rect width="5" height="40" class="splitjoinBody" s:generic="body"/>
    <s:alias val="$_join_"/>
    <g s:x="5" s:y="20" s:pid="out"/>
    <g transform="translate(0,10)" s:x="0" s:y="10" s:pid="in0">
      <text x="-3" y="-4" class="inputPortLabel">0</text>
    </g>
    <g transform="translate(0,30)" s:x="0" s:y="10" s:pid="in0">
      <text x="-3" y="-4" class="inputPortLabel">1</text>
    </g>
  </g>
  <g s:type="join" transform="translate(1033,369)" s:width="4" s:height="40" id="cell_$join$,25,26,">
    <rect width="5" height="40" class="splitjoinBody" s:generic="body"/>
    <s:alias val="$_join_"/>
    <g s:x="5" s:y="20" s:pid="out"/>
    <g transform="translate(0,10)" s:x="0" s:y="10" s:pid="in0">
      <text x="-3" y="-4" class="inputPortLabel">0</text>
    </g>
    <g transform="translate(0,30)" s:x="0" s:y="10" s:pid="in0">
      <text x="-3" y="-4" class="inputPortLabel">1</text>
    </g>
  </g>
  <g s:type="split" transform="translate(125,64)" s:width="5" s:height="40" id="cell_$split$,2,3,4,5,6,7,8,9,10,11,12,13,14,15,16,17,">
    <rect width="5" height="340" class="splitjoinBody" s:generic="body"/>
    <s:alias val="$_split_"/>
    <g s:x="0" s:y="20" s:pid="in"/>
    <g transform="translate(4,10)" s:x="4" s:y="10" s:pid="out0">
      <text x="5" y="-4">1</text>
    </g>
    <g transform="translate(4,30)" s:x="4" s:y="10" s:pid="out0">
      <text x="5" y="-4">3</text>
    </g>
    <g transform="translate(4,50)" s:x="4" s:y="10" s:pid="out0">
      <text x="5" y="-4">5</text>
    </g>
    <g transform="translate(4,70)" s:x="4" s:y="10" s:pid="out0">
      <text x="5" y="-4">7</text>
    </g>
    <g transform="translate(4,90)" s:x="4" s:y="10" s:pid="out0">
      <text x="5" y="-4">2</text>
    </g>
    <g transform="translate(4,110)" s:x="4" s:y="10" s:pid="out0">
      <text x="5" y="-4">6</text>
    </g>
    <g transform="translate(4,130)" s:x="4" s:y="10" s:pid="out0">
      <text x="5" y="-4">4</text>
    </g>
    <g transform="translate(4,150)" s:x="4" s:y="10" s:pid="out0">
      <text x="5" y="-4">8</text>
    </g>
    <g transform="translate(4,170)" s:x="4" s:y="10" s:pid="out0">
      <text x="5" y="-4">9</text>
    </g>
    <g transform="translate(4,190)" s:x="4" s:y="10" s:pid="out0">
      <text x="5" y="-4">10</text>
    </g>
    <g transform="translate(4,210)" s:x="4" s:y="10" s:pid="out0">
      <text x="5" y="-4">11</text>
    </g>
    <g transform="translate(4,230)" s:x="4" s:y="10" s:pid="out0">
      <text x="5" y="-4">15</text>
    </g>
    <g transform="translate(4,250)" s:x="4" s:y="10" s:pid="out0">
      <text x="5" y="-4">0</text>
    </g>
    <g transform="translate(4,270)" s:x="4" s:y="10" s:pid="out0">
      <text x="5" y="-4">14</text>
    </g>
    <g transform="translate(4,290)" s:x="4" s:y="10" s:pid="out0">
      <text x="5" y="-4">12</text>
    </g>
    <g transform="translate(4,310)" s:x="4" s:y="10" s:pid="out0">
      <text x="5" y="-4">13</text>
    </g>
    <g transform="translate(4,330)" s:x="4" s:y="10" s:pid="out0">
      <text x="5" y="-4">14:15</text>
    </g>
  </g>
  <line x1="129.5" x2="129.5" y1="74" y2="52" class="net_3"/>
  <line x1="129.5" x2="830" y1="52" y2="52" class="net_3"/>
  <line x1="129.5" x2="129.5" y1="74" y2="52" class="net_3"/>
  <line x1="129.5" x2="267" y1="52" y2="52" class="net_3"/>
  <line x1="267" x2="267" y1="52" y2="603" class="net_3"/>
  <circle cx="267" cy="52" r="2" style="fill:#000" class="net_3"/>
  <line x1="267" x2="310" y1="603" y2="603" class="net_3"/>
  <line x1="129.5" x2="129.5" y1="94" y2="42" class="net_5"/>
  <line x1="129.5" x2="277" y1="42" y2="42" class="net_5"/>
  <line x1="277" x2="277" y1="42" y2="63" class="net_5"/>
  <line x1="277" x2="802" y1="63" y2="63" class="net_5"/>
  <line x1="802" x2="802" y1="63" y2="67" class="net_5"/>
  <circle cx="277" cy="63" r="2" style="fill:#000" class="net_5"/>
  <line x1="802" x2="830" y1="67" y2="67" class="net_5"/>
  <line x1="129.5" x2="129.5" y1="94" y2="42" class="net_5"/>
  <line x1="129.5" x2="277" y1="42" y2="42" class="net_5"/>
  <line x1="277" x2="277" y1="42" y2="165.5" class="net_5"/>
  <line x1="277" x2="802" y1="165.5" y2="165.5" class="net_5"/>
  <line x1="802" x2="802" y1="165.5" y2="169.5" class="net_5"/>
  <circle cx="277" cy="165.5" r="2" style="fill:#000" class="net_5"/>
  <line x1="802" x2="830" y1="169.5" y2="169.5" class="net_5"/>
  <line x1="129.5" x2="129.5" y1="94" y2="42" class="net_5"/>
  <line x1="129.5" x2="277" y1="42" y2="42" class="net_5"/>
  <line x1="277" x2="277" y1="42" y2="629" class="net_5"/>
  <line x1="277" x2="412" y1="629" y2="629" class="net_5"/>
  <line x1="412" x2="412" y1="629" y2="618" class="net_5"/>
  <line x1="412" x2="440" y1="618" y2="618" class="net_5"/>
  <line x1="857" x2="895" y1="59.5" y2="59.5" class="net_29"/>
  <line x1="130" x2="867" y1="114.5" y2="114.5" class="net_7"/>
  <line x1="867" x2="867" y1="114.5" y2="74.5" class="net_7"/>
  <line x1="867" x2="895" y1="74.5" y2="74.5" class="net_7"/>
  <line x1="130" x2="257" y1="114.5" y2="114.5" class="net_7"/>
  <line x1="257" x2="257" y1="114.5" y2="225.5" class="net_7"/>
  <line x1="257" x2="802" y1="225.5" y2="225.5" class="net_7"/>
  <line x1="802" x2="802" y1="225.5" y2="229.5" class="net_7"/>
  <circle cx="257" cy="114.5" r="2" style="fill:#000" class="net_7"/>
  <circle cx="257" cy="225.5" r="2" style="fill:#000" class="net_7"/>
  <line x1="802" x2="830" y1="229.5" y2="229.5" class="net_7"/>
  <line x1="130" x2="257" y1="114.5" y2="114.5" class="net_7"/>
  <line x1="257" x2="257" y1="114.5" y2="651" class="net_7"/>
  <line x1="257" x2="542" y1="651" y2="651" class="net_7"/>
  <line x1="542" x2="542" y1="651" y2="633" class="net_7"/>
  <line x1="542" x2="570" y1="633" y2="633" class="net_7"/>
  <line x1="922" x2="960" y1="67" y2="67" class="net_30"/>
  <line x1="130" x2="932" y1="134.5" y2="134.5" class="net_9"/>
  <line x1="932" x2="932" y1="134.5" y2="82" class="net_9"/>
  <line x1="932" x2="960" y1="82" y2="82" class="net_9"/>
  <line x1="130" x2="297" y1="134.5" y2="134.5" class="net_9"/>
  <line x1="297" x2="297" y1="134.5" y2="195.5" class="net_9"/>
  <line x1="297" x2="932" y1="195.5" y2="195.5" class="net_9"/>
  <line x1="932" x2="932" y1="195.5" y2="184.5" class="net_9"/>
  <circle cx="297" cy="134.5" r="2" style="fill:#000" class="net_9"/>
  <circle cx="297" cy="195.5" r="2" style="fill:#000" class="net_9"/>
  <line x1="932" x2="960" y1="184.5" y2="184.5" class="net_9"/>
  <line x1="130" x2="297" y1="134.5" y2="134.5" class="net_9"/>
  <line x1="297" x2="297" y1="134.5" y2="255.5" class="net_9"/>
  <line x1="297" x2="932" y1="255.5" y2="255.5" class="net_9"/>
  <line x1="932" x2="932" y1="255.5" y2="244.5" class="net_9"/>
  <circle cx="297" cy="255.5" r="2" style="fill:#000" class="net_9"/>
  <line x1="932" x2="960" y1="244.5" y2="244.5" class="net_9"/>
  <line x1="130" x2="297" y1="134.5" y2="134.5" class="net_9"/>
  <line x1="297" x2="297" y1="134.5" y2="673" class="net_9"/>
  <line x1="297" x2="672" y1="673" y2="673" class="net_9"/>
  <line x1="672" x2="672" y1="673" y2="648" class="net_9"/>
  <line x1="672" x2="700" y1="648" y2="648" class="net_9"/>
  <line x1="130" x2="830" y1="154.5" y2="154.5" class="net_4"/>
  <line x1="130" x2="247" y1="154.5" y2="154.5" class="net_4"/>
  <line x1="247" x2="247" y1="154.5" y2="618" class="net_4"/>
  <line x1="247" x2="347" y1="618" y2="618" class="net_4"/>
  <line x1="347" x2="347" y1="618" y2="610.5" class="net_4"/>
  <circle cx="247" cy="154.5" r="2" style="fill:#000" class="net_4"/>
  <line x1="347" x2="375" y1="610.5" y2="610.5" class="net_4"/>
  <line x1="857" x2="895" y1="162" y2="162" class="net_31"/>
  <line x1="130" x2="237" y1="174.5" y2="174.5" class="net_8"/>
  <line x1="237" x2="237" y1="174.5" y2="184.5" class="net_8"/>
  <line x1="237" x2="867" y1="184.5" y2="184.5" class="net_8"/>
  <line x1="867" x2="867" y1="184.5" y2="177" class="net_8"/>
  <circle cx="237" cy="184.5" r="2" style="fill:#000" class="net_8"/>
  <line x1="867" x2="895" y1="177" y2="177" class="net_8"/>
  <line x1="130" x2="237" y1="174.5" y2="174.5" class="net_8"/>
  <line x1="237" x2="237" y1="174.5" y2="244.5" class="net_8"/>
  <line x1="237" x2="867" y1="244.5" y2="244.5" class="net_8"/>
  <line x1="867" x2="867" y1="244.5" y2="237" class="net_8"/>
  <circle cx="237" cy="244.5" r="2" style="fill:#000" class="net_8"/>
  <line x1="867" x2="895" y1="237" y2="237" class="net_8"/>
  <line x1="130" x2="237" y1="174.5" y2="174.5" class="net_8"/>
  <line x1="237" x2="237" y1="174.5" y2="662" class="net_8"/>
  <line x1="237" x2="607" y1="662" y2="662" class="net_8"/>
  <line x1="607" x2="607" y1="662" y2="640.5" class="net_8"/>
  <line x1="607" x2="635" y1="640.5" y2="640.5" class="net_8"/>
  <line x1="922" x2="960" y1="169.5" y2="169.5" class="net_32"/>
  <line x1="130" x2="227" y1="194.5" y2="194.5" class="net_6"/>
  <line x1="227" x2="227" y1="194.5" y2="214.5" class="net_6"/>
  <circle cx="227" cy="214.5" r="2" style="fill:#000" class="net_6"/>
  <line x1="227" x2="830" y1="214.5" y2="214.5" class="net_6"/>
  <line x1="130" x2="227" y1="194.5" y2="194.5" class="net_6"/>
  <line x1="227" x2="227" y1="194.5" y2="640" class="net_6"/>
  <line x1="227" x2="477" y1="640" y2="640" class="net_6"/>
  <line x1="477" x2="477" y1="640" y2="625.5" class="net_6"/>
  <line x1="477" x2="505" y1="625.5" y2="625.5" class="net_6"/>
  <line x1="857" x2="895" y1="222" y2="222" class="net_33"/>
  <line x1="922" x2="960" y1="229.5" y2="229.5" class="net_34"/>
  <line x1="130" x2="217" y1="214.5" y2="214.5" class="net_10"/>
  <line x1="217" x2="217" y1="214.5" y2="477" class="net_10"/>
  <circle cx="217" cy="477" r="2" style="fill:#000" class="net_10"/>
  <line x1="217" x2="830" y1="477" y2="477" class="net_10"/>
  <line x1="130" x2="217" y1="214.5" y2="214.5" class="net_10"/>
  <line x1="217" x2="217" y1="214.5" y2="684" class="net_10"/>
  <line x1="217" x2="737" y1="684" y2="684" class="net_10"/>
  <line x1="737" x2="737" y1="684" y2="655.5" class="net_10"/>
  <line x1="737" x2="765" y1="655.5" y2="655.5" class="net_10"/>
  <line x1="130" x2="287" y1="234.5" y2="234.5" class="net_11"/>
  <line x1="287" x2="287" y1="234.5" y2="488" class="net_11"/>
  <line x1="287" x2="802" y1="488" y2="488" class="net_11"/>
  <line x1="802" x2="802" y1="488" y2="492" class="net_11"/>
  <circle cx="287" cy="488" r="2" style="fill:#000" class="net_11"/>
  <line x1="802" x2="830" y1="492" y2="492" class="net_11"/>
  <line x1="130" x2="287" y1="234.5" y2="234.5" class="net_11"/>
  <line x1="287" x2="287" y1="234.5" y2="695" class="net_11"/>
  <line x1="287" x2="802" y1="695" y2="695" class="net_11"/>
  <line x1="802" x2="802" y1="695" y2="663" class="net_11"/>
  <circle cx="287" cy="695" r="2" style="fill:#000" class="net_11"/>
  <line x1="802" x2="830" y1="663" y2="663" class="net_11"/>
  <line x1="130" x2="287" y1="234.5" y2="234.5" class="net_11"/>
  <line x1="287" x2="287" y1="234.5" y2="844" class="net_11"/>
  <line x1="287" x2="830" y1="844" y2="844" class="net_11"/>
  <line x1="130" x2="287" y1="234.5" y2="234.5" class="net_11"/>
  <line x1="287" x2="287" y1="234.5" y2="387" class="net_11"/>
  <circle cx="287" cy="387" r="2" style="fill:#000" class="net_11"/>
  <line x1="287" x2="960" y1="387" y2="387" class="net_11"/>
  <line x1="130" x2="287" y1="234.5" y2="234.5" class="net_11"/>
  <line x1="287" x2="287" y1="234.5" y2="454.5" class="net_11"/>
  <line x1="287" x2="932" y1="454.5" y2="454.5" class="net_11"/>
  <line x1="932" x2="932" y1="454.5" y2="447" class="net_11"/>
  <circle cx="287" cy="454.5" r="2" style="fill:#000" class="net_11"/>
  <line x1="932" x2="960" y1="447" y2="447" class="net_11"/>
  <line x1="857" x2="895" y1="484.5" y2="484.5" class="net_35"/>
  <line x1="130" x2="207" y1="254.5" y2="254.5" class="net_12"/>
  <line x1="207" x2="207" y1="254.5" y2="507" class="net_12"/>
  <line x1="207" x2="867" y1="507" y2="507" class="net_12"/>
  <line x1="867" x2="867" y1="507" y2="499.5" class="net_12"/>
  <circle cx="207" cy="507" r="2" style="fill:#000" class="net_12"/>
  <line x1="867" x2="895" y1="499.5" y2="499.5" class="net_12"/>
  <line x1="130" x2="207" y1="254.5" y2="254.5" class="net_12"/>
  <line x1="207" x2="207" y1="254.5" y2="706" class="net_12"/>
  <line x1="207" x2="867" y1="706" y2="706" class="net_12"/>
  <line x1="867" x2="867" y1="706" y2="670.5" class="net_12"/>
  <line x1="867" x2="895" y1="670.5" y2="670.5" class="net_12"/>
  <line x1="130" x2="207" y1="254.5" y2="254.5" class="net_12"/>
  <line x1="207" x2="207" y1="254.5" y2="324.5" class="net_12"/>
  <line x1="207" x2="932" y1="324.5" y2="324.5" class="net_12"/>
  <line x1="932" x2="932" y1="324.5" y2="372" class="net_12"/>
  <circle cx="207" cy="324.5" r="2" style="fill:#000" class="net_12"/>
  <circle cx="932" cy="324.5" r="2" style="fill:#000" class="net_12"/>
  <line x1="932" x2="960" y1="372" y2="372" class="net_12"/>
  <line x1="130" x2="207" y1="254.5" y2="254.5" class="net_12"/>
  <line x1="207" x2="207" y1="254.5" y2="324.5" class="net_12"/>
  <line x1="207" x2="1087" y1="324.5" y2="324.5" class="net_12"/>
  <line x1="922" x2="960" y1="492" y2="492" class="net_36"/>
  <line x1="130" x2="187" y1="274.5" y2="274.5" class="net_13"/>
  <line x1="187" x2="187" y1="274.5" y2="518" class="net_13"/>
  <line x1="187" x2="932" y1="518" y2="518" class="net_13"/>
  <line x1="932" x2="932" y1="518" y2="507" class="net_13"/>
  <circle cx="187" cy="518" r="2" style="fill:#000" class="net_13"/>
  <line x1="932" x2="960" y1="507" y2="507" class="net_13"/>
  <line x1="130" x2="187" y1="274.5" y2="274.5" class="net_13"/>
  <line x1="187" x2="187" y1="274.5" y2="791.5" class="net_13"/>
  <line x1="187" x2="895" y1="791.5" y2="791.5" class="net_13"/>
  <line x1="130" x2="187" y1="274.5" y2="274.5" class="net_13"/>
  <line x1="187" x2="187" y1="274.5" y2="572" class="net_13"/>
  <circle cx="187" cy="572" r="2" style="fill:#000" class="net_13"/>
  <line x1="187" x2="1087" y1="572" y2="572" class="net_13"/>
  <line x1="987" x2="1025" y1="499.5" y2="499.5" class="net_37"/>
  <line x1="130" x2="197" y1="294.5" y2="294.5" class="net_17"/>
  <line x1="197" x2="197" y1="294.5" y2="529" class="net_17"/>
  <line x1="197" x2="997" y1="529" y2="529" class="net_17"/>
  <line x1="997" x2="997" y1="529" y2="514.5" class="net_17"/>
  <circle cx="197" cy="529" r="2" style="fill:#000" class="net_17"/>
  <line x1="997" x2="1025" y1="514.5" y2="514.5" class="net_17"/>
  <line x1="130" x2="197" y1="294.5" y2="294.5" class="net_17"/>
  <line x1="197" x2="197" y1="294.5" y2="728" class="net_17"/>
  <line x1="197" x2="997" y1="728" y2="728" class="net_17"/>
  <line x1="997" x2="997" y1="728" y2="685.5" class="net_17"/>
  <circle cx="197" cy="728" r="2" style="fill:#000" class="net_17"/>
  <line x1="997" x2="1025" y1="685.5" y2="685.5" class="net_17"/>
  <line x1="130" x2="197" y1="294.5" y2="294.5" class="net_17"/>
  <line x1="197" x2="197" y1="294.5" y2="435.5" class="net_17"/>
  <line x1="197" x2="867" y1="435.5" y2="435.5" class="net_17"/>
  <line x1="867" x2="867" y1="435.5" y2="439.5" class="net_17"/>
  <circle cx="197" cy="435.5" r="2" style="fill:#000" class="net_17"/>
  <line x1="867" x2="895" y1="439.5" y2="439.5" class="net_17"/>
  <line x1="130" x2="197" y1="294.5" y2="294.5" class="net_17"/>
  <line x1="197" x2="197" y1="294.5" y2="750" class="net_17"/>
  <line x1="197" x2="997" y1="750" y2="750" class="net_17"/>
  <line x1="997" x2="997" y1="750" y2="754" class="net_17"/>
  <line x1="997" x2="1025" y1="754" y2="754" class="net_17"/>
  <line x1="130" x2="177" y1="314.5" y2="314.5" class="net_2"/>
  <line x1="177" x2="177" y1="314.5" y2="588" class="net_2"/>
  <line x1="177" x2="310" y1="588" y2="588" class="net_2"/>
  <line x1="337" x2="375" y1="595.5" y2="595.5" class="net_38"/>
  <line x1="402" x2="440" y1="603" y2="603" class="net_39"/>
  <line x1="467" x2="505" y1="610.5" y2="610.5" class="net_40"/>
  <line x1="532" x2="570" y1="618" y2="618" class="net_41"/>
  <line x1="597" x2="635" y1="625.5" y2="625.5" class="net_42"/>
  <line x1="662" x2="700" y1="633" y2="633" class="net_43"/>
  <line x1="727" x2="765" y1="640.5" y2="640.5" class="net_44"/>
  <line x1="792" x2="830" y1="648" y2="648" class="net_45"/>
  <line x1="857" x2="895" y1="655.5" y2="655.5" class="net_46"/>
  <line x1="922" x2="960" y1="663" y2="663" class="net_47"/>
  <line x1="130" x2="167" y1="334.5" y2="334.5" class="net_16"/>
  <line x1="167" x2="167" y1="334.5" y2="717" class="net_16"/>
  <line x1="167" x2="932" y1="717" y2="717" class="net_16"/>
  <line x1="932" x2="932" y1="717" y2="678" class="net_16"/>
  <circle cx="167" cy="717" r="2" style="fill:#000" class="net_16"/>
  <line x1="932" x2="960" y1="678" y2="678" class="net_16"/>
  <line x1="130" x2="167" y1="334.5" y2="334.5" class="net_16"/>
  <line x1="167" x2="167" y1="334.5" y2="855" class="net_16"/>
  <line x1="167" x2="802" y1="855" y2="855" class="net_16"/>
  <line x1="802" x2="802" y1="855" y2="859" class="net_16"/>
  <line x1="802" x2="830" y1="859" y2="859" class="net_16"/>
  <line x1="130" x2="167" y1="334.5" y2="334.5" class="net_16"/>
  <line x1="167" x2="167" y1="334.5" y2="424.5" class="net_16"/>
  <circle cx="167" cy="424.5" r="2" style="fill:#000" class="net_16"/>
  <line x1="167" x2="895" y1="424.5" y2="424.5" class="net_16"/>
  <line x1="130" x2="167" y1="334.5" y2="334.5" class="net_16"/>
  <line x1="167" x2="167" y1="334.5" y2="739" class="net_16"/>
  <circle cx="167" cy="739" r="2" style="fill:#000" class="net_16"/>
  <line x1="167" x2="1025" y1="739" y2="739" class="net_16"/>
  <line x1="987" x2="1025" y1="670.5" y2="670.5" class="net_48"/>
  <line x1="130" x2="157" y1="354.5" y2="354.5" class="net_14"/>
  <line x1="157" x2="157" y1="354.5" y2="802.5" class="net_14"/>
  <line x1="157" x2="867" y1="802.5" y2="802.5" class="net_14"/>
  <line x1="867" x2="867" y1="802.5" y2="806.5" class="net_14"/>
  <circle cx="157" cy="802.5" r="2" style="fill:#000" class="net_14"/>
  <line x1="867" x2="895" y1="806.5" y2="806.5" class="net_14"/>
  <line x1="130" x2="157" y1="354.5" y2="354.5" class="net_14"/>
  <line x1="157" x2="157" y1="354.5" y2="874" class="net_14"/>
  <line x1="157" x2="867" y1="874" y2="874" class="net_14"/>
  <line x1="867" x2="867" y1="874" y2="866.5" class="net_14"/>
  <circle cx="157" cy="874" r="2" style="fill:#000" class="net_14"/>
  <line x1="867" x2="895" y1="866.5" y2="866.5" class="net_14"/>
  <line x1="130" x2="157" y1="354.5" y2="354.5" class="net_14"/>
  <line x1="157" x2="157" y1="354.5" y2="896" class="net_14"/>
  <line x1="157" x2="1025" y1="896" y2="896" class="net_14"/>
  <line x1="922" x2="960" y1="799" y2="799" class="net_49"/>
  <line x1="129.5" x2="129.5" y1="375" y2="821.5" class="net_15"/>
  <line x1="129.5" x2="932" y1="821.5" y2="821.5" class="net_15"/>
  <line x1="932" x2="932" y1="821.5" y2="814" class="net_15"/>
  <line x1="932" x2="960" y1="814" y2="814" class="net_15"/>
  <line x1="129.5" x2="129.5" y1="375" y2="821.5" class="net_15"/>
  <line x1="129.5" x2="147" y1="821.5" y2="821.5" class="net_15"/>
  <line x1="147" x2="147" y1="821.5" y2="885" class="net_15"/>
  <line x1="147" x2="932" y1="885" y2="885" class="net_15"/>
  <line x1="932" x2="932" y1="885" y2="874" class="net_15"/>
  <circle cx="147" cy="821.5" r="2" style="fill:#000" class="net_15"/>
  <circle cx="147" cy="885" r="2" style="fill:#000" class="net_15"/>
  <line x1="932" x2="960" y1="874" y2="874" class="net_15"/>
  <line x1="129.5" x2="129.5" y1="375" y2="821.5" class="net_15"/>
  <line x1="129.5" x2="147" y1="821.5" y2="821.5" class="net_15"/>
  <line x1="147" x2="147" y1="821.5" y2="907" class="net_15"/>
  <line x1="147" x2="997" y1="907" y2="907" class="net_15"/>
  <line x1="997" x2="997" y1="907" y2="911" class="net_15"/>
  <line x1="997" x2="1025" y1="911" y2="911" class="net_15"/>
  <line x1="857" x2="895" y1="851.5" y2="851.5" class="net_50"/>
  <line x1="922" x2="960" y1="859" y2="859" class="net_51"/>
  <line x1="922" x2="960" y1="432" y2="432" class="net_52"/>
  <line x1="1038" x2="1087" y1="167" y2="167" class="net_18,19,20,53"/>
  <line x1="1052" x2="1087" y1="507" y2="507" class="net_21"/>
  <line x1="1052" x2="1087" y1="678" y2="678" class="net_22"/>
  <line x1="129.5" x2="129.5" y1="395" y2="968.5" class="net_16,17"/>
  <line x1="129.5" x2="1087" y1="968.5" y2="968.5" class="net_16,17"/>
  <line x1="1039" x2="1087" y1="816.5" y2="816.5" class="net_23,24"/>
  <line x1="1039" x2="1087" y1="389.5" y2="389.5" class="net_25,26"/>
  <line x1="1052" x2="1087" y1="903.5" y2="903.5" class="net_27"/>
  <line x1="1052" x2="1087" y1="746.5" y2="746.5" class="net_28"/>
  <line x1="987" x2="997" y1="74.5" y2="74.5" class="net_18"/>
  <line x1="997" x2="997" y1="74.5" y2="157" class="net_18"/>
  <line x1="997" x2="1032" y1="157" y2="157" class="net_18"/>
  <line x1="987" x2="1032" y1="177" y2="177" class="net_19"/>
  <line x1="987" x2="997" y1="237" y2="237" class="net_20"/>
  <line x1="997" x2="997" y1="237" y2="197" class="net_20"/>
  <line x1="997" x2="1032" y1="197" y2="197" class="net_20"/>
  <line x1="987" x2="1032.5" y1="304.5" y2="304.5" class="net_53"/>
  <line x1="1032.5" x2="1032.5" y1="304.5" y2="217.5" class="net_53"/>
  <line x1="987" x2="1033" y1="806.5" y2="806.5" class="net_23"/>
  <line x1="987" x2="997" y1="866.5" y2="866.5" class="net_24"/>
  <line x1="997" x2="997" y1="866.5" y2="826.5" class="net_24"/>
  <line x1="997" x2="1033" y1="826.5" y2="826.5" class="net_24"/>
  <line x1="987" x2="1033" y1="379.5" y2="379.5" class="net_25"/>
  <line x1="987" x2="997" y1="439.5" y2="439.5" class="net_26"/>
  <line x1="997" x2="997" y1="439.5" y2="399.5" class="net_26"/>
  <line x1="997" x2="1033" y1="399.5" y2="399.5" class="net_26"/>
  <line x1="40" x2="125.5" y1="32" y2="32" class="net_2,3,4,5,6,7,8,9,10,11,12,13,14,15,16,17"/>
  <line x1="125.5" x2="125.5" y1="32" y2="84" class="net_2,3,4,5,6,7,8,9,10,11,12,13,14,15,16,17"/>
</svg>
