<svg xmlns="http://www.w3.org/2000/svg" xmlns:xlink="http://www.w3.org/1999/xlink" xmlns:s="https://github.com/nturley/netlistsvg" width="543" height="198.5">
  <style>svg {
    stroke:#000;
    fill:none;
  }
  text {
    fill:#000;
    stroke:none;
    font-size:10px;
    font-weight: bold;
    font-family: "Courier New", monospace;
  }
  .nodelabel {
    text-anchor: middle;
  }
  .inputPortLabel {
    text-anchor: end;
  }
  .splitjoinBody {
    fill:#000;
  }</style>
  <g s:type="reduce_xor" transform="translate(172,22.5)" s:width="33" s:height="25" id="cell_$auto$simplemap.cc:106:simplemap_bitop$93">
    <s:alias val="$xor"/>
    <s:alias val="$reduce_xor"/>
    <s:alias val="$_XOR_"/>
    <path d="M3,0 A30 25 0 0 1 3,25 A30 25 0 0 0 33,12.5 A30 25 0 0 0 3,0" class="cell_$auto$simplemap.cc:106:simplemap_bitop$93"/>
    <path d="M0,0 A30 25 0 0 1 0,25" class="cell_$auto$simplemap.cc:106:simplemap_bitop$93"/>
    <g s:x="3" s:y="5" s:pid="A"/>
    <g s:x="3" s:y="20" s:pid="B"/>
    <g s:x="33" s:y="12.5" s:pid="Y"/>
  </g>
  <g s:type="and" transform="translate(240,15)" s:width="30" s:height="25" id="cell_$auto$simplemap.cc:106:simplemap_bitop$94">
    <s:alias val="$and"/>
    <s:alias val="$logic_and"/>
    <s:alias val="$_AND_"/>
    <path d="M0,0 L0,25 L15,25 A15 12.5 0 0 0 15,0 Z" class="cell_$auto$simplemap.cc:106:simplemap_bitop$94"/>
    <g s:x="0" s:y="5" s:pid="A"/>
    <g s:x="0" s:y="20" s:pid="B"/>
    <g s:x="30" s:y="12.5" s:pid="Y"/>
  </g>
  <g s:type="and" transform="translate(240,75)" s:width="30" s:height="25" id="cell_$auto$simplemap.cc:106:simplemap_bitop$95">
    <s:alias val="$and"/>
    <s:alias val="$logic_and"/>
    <s:alias val="$_AND_"/>
    <path d="M0,0 L0,25 L15,25 A15 12.5 0 0 0 15,0 Z" class="cell_$auto$simplemap.cc:106:simplemap_bitop$95"/>
    <g s:x="0" s:y="5" s:pid="A"/>
    <g s:x="0" s:y="20" s:pid="B"/>
    <g s:x="30" s:y="12.5" s:pid="Y"/>
  </g>
  <g s:type="or" transform="translate(305,22.5)" s:width="30" s:height="25" id="cell_$auto$simplemap.cc:106:simplemap_bitop$96">
    <s:alias val="$or"/>
    <s:alias val="$logic_or"/>
    <s:alias val="$_OR_"/>
    <path d="M0,25 L0,25 L15,25 A15 12.5 0 0 0 15,0 L0,0" class="cell_$auto$simplemap.cc:106:simplemap_bitop$96"/>
    <path d="M0,0 A30 25 0 0 1 0,25" class="cell_$auto$simplemap.cc:106:simplemap_bitop$96"/>
    <g s:x="3" s:y="5" s:pid="A"/>
    <g s:x="3" s:y="20" s:pid="B"/>
    <g s:x="30" s:y="12.5" s:pid="Y"/>
  </g>
  <g s:type="or" transform="translate(370,30)" s:width="30" s:height="25" id="cell_$auto$simplemap.cc:106:simplemap_bitop$97">
    <s:alias val="$or"/>
    <s:alias val="$logic_or"/>
    <s:alias val="$_OR_"/>
    <path d="M0,25 L0,25 L15,25 A15 12.5 0 0 0 15,0 L0,0" class="cell_$auto$simplemap.cc:106:simplemap_bitop$97"/>
    <path d="M0,0 A30 25 0 0 1 0,25" class="cell_$auto$simplemap.cc:106:simplemap_bitop$97"/>
    <g s:x="3" s:y="5" s:pid="A"/>
    <g s:x="3" s:y="20" s:pid="B"/>
    <g s:x="30" s:y="12.5" s:pid="Y"/>
  </g>
  <g s:type="inputExt" transform="translate(89,117)" s:width="30" s:height="20" id="cell_i_active">
    <text x="15" y="-4" class="nodelabel cell_i_active" s:attribute="ref">i_active</text>
    <s:alias val="$_inputExt_"/>
    <path d="M0,0 L0,20 L15,20 L30,10 L15,0 Z" class="cell_i_active"/>
    <g s:x="28" s:y="10" s:pid="Y"/>
  </g>
  <g s:type="inputExt" transform="translate(12,22.5)" s:width="30" s:height="20" id="cell_i_flags">
    <text x="15" y="-4" class="nodelabel cell_i_flags" s:attribute="ref">i_flags</text>
    <s:alias val="$_inputExt_"/>
    <path d="M0,0 L0,20 L15,20 L30,10 L15,0 Z" class="cell_i_flags"/>
    <g s:x="28" s:y="10" s:pid="Y"/>
  </g>
  <g s:type="outputExt" transform="translate(483,42.5)" s:width="30" s:height="20" id="cell_o_pc_sel">
    <text x="15" y="-4" class="nodelabel cell_o_pc_sel" s:attribute="ref">o_pc_sel</text>
    <s:alias val="$_outputExt_"/>
    <path d="M30,0 L30,20 L15,20 L0,10 L15,0 Z" class="cell_o_pc_sel"/>
    <g s:x="0" s:y="10" s:pid="A"/>
  </g>
  <g s:type="join" transform="translate(442,32)" s:width="4" s:height="40" id="cell_$join$,21,17,">
    <rect width="5" height="40" class="splitjoinBody" s:generic="body"/>
    <s:alias val="$_join_"/>
    <g s:x="5" s:y="20" s:pid="out"/>
    <g transform="translate(0,10)" s:x="0" s:y="10" s:pid="in0">
      <text x="-3" y="-4" class="inputPortLabel">0</text>
    </g>
    <g transform="translate(0,30)" s:x="0" s:y="10" s:pid="in0">
      <text x="-3" y="-4" class="inputPortLabel">1</text>
    </g>
  </g>
  <g s:type="split" transform="translate(112.25,12)" s:width="5" s:height="40" id="cell_$split$,18,19,20,">
    <rect width="5" height="60" class="splitjoinBody" s:generic="body"/>
    <s:alias val="$_split_"/>
    <g s:x="0" s:y="20" s:pid="in"/>
    <g transform="translate(4,10)" s:x="4" s:y="10" s:pid="out0">
      <text x="5" y="-4">1</text>
    </g>
    <g transform="translate(4,30)" s:x="4" s:y="10" s:pid="out0">
      <text x="5" y="-4">2</text>
    </g>
    <g transform="translate(4,50)" s:x="4" s:y="10" s:pid="out0">
      <text x="5" y="-4">0</text>
    </g>
  </g>
  <g s:type="split" transform="translate(186.6,106.5)" s:width="5" s:height="40" id="cell_$split$,2,3,4,5,6,7,8,9,10,11,12,13,14,15,16,17,">
    <rect width="5" height="80" class="splitjoinBody" s:generic="body"/>
    <s:alias val="$_split_"/>
    <g s:x="0" s:y="20" s:pid="in"/>
    <g transform="translate(4,10)" s:x="4" s:y="10" s:pid="out0">
      <text x="5" y="-4">12</text>
    </g>
    <g transform="translate(4,30)" s:x="4" s:y="10" s:pid="out0">
      <text x="5" y="-4">13</text>
    </g>
    <g transform="translate(4,50)" s:x="4" s:y="10" s:pid="out0">
      <text x="5" y="-4">14</text>
    </g>
    <g transform="translate(4,70)" s:x="4" s:y="10" s:pid="out0">
      <text x="5" y="-4">15</text>
    </g>
  </g>
  <line x1="117.25" x2="147" y1="22.5" y2="22.5" class="net_19"/>
  <line x1="147" x2="147" y1="22.5" y2="27.5" class="net_19"/>
  <line x1="147" x2="175" y1="27.5" y2="27.5" class="net_19"/>
  <line x1="117.25" x2="175" y1="42.5" y2="42.5" class="net_20"/>
  <line x1="191.6" x2="215" y1="117" y2="117" class="net_14"/>
  <line x1="215" x2="215" y1="117" y2="20" class="net_14"/>
  <line x1="215" x2="240" y1="20" y2="20" class="net_14"/>
  <line x1="205" x2="240" y1="35" y2="35" class="net_22"/>
  <line x1="191.6" x2="225" y1="137" y2="137" class="net_15"/>
  <line x1="225" x2="225" y1="137" y2="80" class="net_15"/>
  <line x1="225" x2="240" y1="80" y2="80" class="net_15"/>
  <line x1="117.25" x2="147" y1="62.5" y2="62.5" class="net_18"/>
  <line x1="147" x2="147" y1="62.5" y2="95" class="net_18"/>
  <line x1="147" x2="240" y1="95" y2="95" class="net_18"/>
  <line x1="270" x2="308" y1="27.5" y2="27.5" class="net_23"/>
  <line x1="270" x2="280" y1="87.5" y2="87.5" class="net_24"/>
  <line x1="280" x2="280" y1="87.5" y2="42.5" class="net_24"/>
  <line x1="280" x2="308" y1="42.5" y2="42.5" class="net_24"/>
  <line x1="335" x2="373" y1="35" y2="35" class="net_25"/>
  <line x1="191.6" x2="345" y1="157" y2="157" class="net_16"/>
  <line x1="345" x2="345" y1="157" y2="50" class="net_16"/>
  <line x1="345" x2="373" y1="50" y2="50" class="net_16"/>
  <line x1="448" x2="483" y1="52.5" y2="52.5" class="net_21,17"/>
  <line x1="400" x2="442" y1="42.5" y2="42.5" class="net_21"/>
  <line x1="191.6" x2="215" y1="177" y2="177" class="net_17"/>
  <line x1="215" x2="215" y1="177" y2="168" class="net_17"/>
  <line x1="215" x2="410" y1="168" y2="168" class="net_17"/>
  <line x1="410" x2="410" y1="168" y2="62.5" class="net_17"/>
  <line x1="410" x2="442" y1="62.5" y2="62.5" class="net_17"/>
  <line x1="40" x2="112.25" y1="32.5" y2="32.5" class="net_18,19,20"/>
  <line x1="117" x2="186.6" y1="127" y2="127" class="net_2,3,4,5,6,7,8,9,10,11,12,13,14,15,16,17"/>
</svg>
