<svg xmlns="http://www.w3.org/2000/svg" xmlns:xlink="http://www.w3.org/1999/xlink" xmlns:s="https://github.com/nturley/netlistsvg" width="483" height="326">
  <style>svg {
    stroke:#000;
    fill:none;
  }
  text {
    fill:#000;
    stroke:none;
    font-size:10px;
    font-weight: bold;
    font-family: "Courier New", monospace;
  }
  .nodelabel {
    text-anchor: middle;
  }
  .inputPortLabel {
    text-anchor: end;
  }
  .splitjoinBody {
    fill:#000;
  }</style>
  <g s:type="generic" transform="translate(162,226)" s:width="30" s:height="40" id="cell_u_b_ext">
    <text x="15" y="-4" class="nodelabel cell_u_b_ext" s:attribute="ref">immediate_generator_b_extender</text>
    <rect width="30" height="20" s:generic="body" class="cell_u_b_ext"/>
    <g transform="translate(0,10)" s:x="0" s:y="10" s:pid="in0" id="port_u_b_ext~i_imm_bits">
      <text x="-3" y="-4" class="inputPortLabel cell_u_b_ext">i_imm_bits</text>
    </g>
    <g transform="translate(30,10)" s:x="30" s:y="10" s:pid="out0" id="port_u_b_ext~o_imm_ext">
      <text x="5" y="-4" style="fill:#000; stroke:none" class="cell_u_b_ext">o_imm_ext</text>
    </g>
  </g>
  <g s:type="generic" transform="translate(162,22)" s:width="30" s:height="40" id="cell_u_i_ext">
    <text x="15" y="-4" class="nodelabel cell_u_i_ext" s:attribute="ref">immediate_generator_i_extender</text>
    <rect width="30" height="20" s:generic="body" class="cell_u_i_ext"/>
    <g transform="translate(0,10)" s:x="0" s:y="10" s:pid="in0" id="port_u_i_ext~i_imm_bits">
      <text x="-3" y="-4" class="inputPortLabel cell_u_i_ext">i_imm_bits</text>
    </g>
    <g transform="translate(30,10)" s:x="30" s:y="10" s:pid="out0" id="port_u_i_ext~o_imm_ext">
      <text x="5" y="-4" style="fill:#000; stroke:none" class="cell_u_i_ext">o_imm_ext</text>
    </g>
  </g>
  <g s:type="generic" transform="translate(162,158)" s:width="30" s:height="40" id="cell_u_l_ext">
    <text x="15" y="-4" class="nodelabel cell_u_l_ext" s:attribute="ref">immediate_generator_l_extender</text>
    <rect width="30" height="20" s:generic="body" class="cell_u_l_ext"/>
    <g transform="translate(0,10)" s:x="0" s:y="10" s:pid="in0" id="port_u_l_ext~i_imm_bits">
      <text x="-3" y="-4" class="inputPortLabel cell_u_l_ext">i_imm_bits</text>
    </g>
    <g transform="translate(30,10)" s:x="30" s:y="10" s:pid="out0" id="port_u_l_ext~o_imm_ext">
      <text x="5" y="-4" style="fill:#000; stroke:none" class="cell_u_l_ext">o_imm_ext</text>
    </g>
  </g>
  <g s:type="generic" transform="translate(314,118)" s:width="30" s:height="40" id="cell_u_mux">
    <text x="15" y="-4" class="nodelabel cell_u_mux" s:attribute="ref">immediate_generator_mux_4to1_16bit</text>
    <rect width="30" height="100" s:generic="body" class="cell_u_mux"/>
    <g transform="translate(0,10)" s:x="0" s:y="10" s:pid="in0" id="port_u_mux~i_d0">
      <text x="-3" y="-4" class="inputPortLabel cell_u_mux">i_d0</text>
    </g>
    <g transform="translate(0,30)" s:x="0" s:y="10" s:pid="in0" id="port_u_mux~i_d1">
      <text x="-3" y="-4" class="inputPortLabel cell_u_mux">i_d1</text>
    </g>
    <g transform="translate(0,50)" s:x="0" s:y="10" s:pid="in0" id="port_u_mux~i_d2">
      <text x="-3" y="-4" class="inputPortLabel cell_u_mux">i_d2</text>
    </g>
    <g transform="translate(0,70)" s:x="0" s:y="10" s:pid="in0" id="port_u_mux~i_d3">
      <text x="-3" y="-4" class="inputPortLabel cell_u_mux">i_d3</text>
    </g>
    <g transform="translate(0,90)" s:x="0" s:y="10" s:pid="in0" id="port_u_mux~i_sel">
      <text x="-3" y="-4" class="inputPortLabel cell_u_mux">i_sel</text>
    </g>
    <g transform="translate(30,10)" s:x="30" s:y="10" s:pid="out0" id="port_u_mux~o_data">
      <text x="5" y="-4" style="fill:#000; stroke:none" class="cell_u_mux">o_data</text>
    </g>
  </g>
  <g s:type="generic" transform="translate(162,90)" s:width="30" s:height="40" id="cell_u_s_ext">
    <text x="15" y="-4" class="nodelabel cell_u_s_ext" s:attribute="ref">immediate_generator_s_extender</text>
    <rect width="30" height="20" s:generic="body" class="cell_u_s_ext"/>
    <g transform="translate(0,10)" s:x="0" s:y="10" s:pid="in0" id="port_u_s_ext~i_imm_bits">
      <text x="-3" y="-4" class="inputPortLabel cell_u_s_ext">i_imm_bits</text>
    </g>
    <g transform="translate(30,10)" s:x="30" s:y="10" s:pid="out0" id="port_u_s_ext~o_imm_ext">
      <text x="5" y="-4" style="fill:#000; stroke:none" class="cell_u_s_ext">o_imm_ext</text>
    </g>
  </g>
  <g s:type="inputExt" transform="translate(12,22.5)" s:width="30" s:height="20" id="cell_i_imm_raw">
    <text x="15" y="-4" class="nodelabel cell_i_imm_raw" s:attribute="ref">i_imm_raw</text>
    <s:alias val="$_inputExt_"/>
    <path d="M0,0 L0,20 L15,20 L30,10 L15,0 Z" class="cell_i_imm_raw"/>
    <g s:x="28" s:y="10" s:pid="Y"/>
  </g>
  <g s:type="inputExt" transform="translate(162,294)" s:width="30" s:height="20" id="cell_i_imm_sel">
    <text x="15" y="-4" class="nodelabel cell_i_imm_sel" s:attribute="ref">i_imm_sel</text>
    <s:alias val="$_inputExt_"/>
    <path d="M0,0 L0,20 L15,20 L30,10 L15,0 Z" class="cell_i_imm_sel"/>
    <g s:x="28" s:y="10" s:pid="Y"/>
  </g>
  <g s:type="outputExt" transform="translate(417,118.5)" s:width="30" s:height="20" id="cell_o_imm_ext">
    <text x="15" y="-4" class="nodelabel cell_o_imm_ext" s:attribute="ref">o_imm_ext</text>
    <s:alias val="$_outputExt_"/>
    <path d="M30,0 L30,20 L15,20 L0,10 L15,0 Z" class="cell_o_imm_ext"/>
    <g s:x="0" s:y="10" s:pid="A"/>
  </g>
  <line x1="40" x2="76" y1="32.5" y2="32.5" class="net_2,3,4,5,6,7,8,9,10,11,12,13"/>
  <line x1="76" x2="76" y1="32.5" y2="236.5" class="net_2,3,4,5,6,7,8,9,10,11,12,13"/>
  <circle cx="76" cy="32.5" r="2" style="fill:#000" class="net_2,3,4,5,6,7,8,9,10,11,12,13"/>
  <line x1="76" x2="162" y1="236.5" y2="236.5" class="net_2,3,4,5,6,7,8,9,10,11,12,13"/>
  <line x1="40" x2="162" y1="32.5" y2="32.5" class="net_2,3,4,5,6,7,8,9,10,11,12,13"/>
  <line x1="40" x2="76" y1="32.5" y2="32.5" class="net_2,3,4,5,6,7,8,9,10,11,12,13"/>
  <line x1="76" x2="76" y1="32.5" y2="168.5" class="net_2,3,4,5,6,7,8,9,10,11,12,13"/>
  <circle cx="76" cy="168.5" r="2" style="fill:#000" class="net_2,3,4,5,6,7,8,9,10,11,12,13"/>
  <line x1="76" x2="162" y1="168.5" y2="168.5" class="net_2,3,4,5,6,7,8,9,10,11,12,13"/>
  <line x1="40" x2="76" y1="32.5" y2="32.5" class="net_2,3,4,5,6,7,8,9,10,11,12,13"/>
  <line x1="76" x2="76" y1="32.5" y2="100.5" class="net_2,3,4,5,6,7,8,9,10,11,12,13"/>
  <circle cx="76" cy="100.5" r="2" style="fill:#000" class="net_2,3,4,5,6,7,8,9,10,11,12,13"/>
  <line x1="76" x2="162" y1="100.5" y2="100.5" class="net_2,3,4,5,6,7,8,9,10,11,12,13"/>
  <line x1="193" x2="268" y1="32.5" y2="32.5" class="net_48,49,50,51,52,53,54,55,56,57,58,59,60,61,62,63"/>
  <line x1="268" x2="268" y1="32.5" y2="128.5" class="net_48,49,50,51,52,53,54,55,56,57,58,59,60,61,62,63"/>
  <line x1="268" x2="314" y1="128.5" y2="128.5" class="net_48,49,50,51,52,53,54,55,56,57,58,59,60,61,62,63"/>
  <line x1="193" x2="258" y1="100.5" y2="100.5" class="net_80,81,82,83,84,85,86,87,88,89,90,91,92,93,94,95"/>
  <line x1="258" x2="258" y1="100.5" y2="148.5" class="net_80,81,82,83,84,85,86,87,88,89,90,91,92,93,94,95"/>
  <line x1="258" x2="314" y1="148.5" y2="148.5" class="net_80,81,82,83,84,85,86,87,88,89,90,91,92,93,94,95"/>
  <line x1="193" x2="314" y1="168.5" y2="168.5" class="net_64,65,66,67,68,69,70,71,72,73,74,75,76,77,78,79"/>
  <line x1="193" x2="258" y1="236.5" y2="236.5" class="net_32,33,34,35,36,37,38,39,40,41,42,43,44,45,46,47"/>
  <line x1="258" x2="258" y1="236.5" y2="188.5" class="net_32,33,34,35,36,37,38,39,40,41,42,43,44,45,46,47"/>
  <line x1="258" x2="314" y1="188.5" y2="188.5" class="net_32,33,34,35,36,37,38,39,40,41,42,43,44,45,46,47"/>
  <line x1="190" x2="268" y1="304" y2="304" class="net_14,15"/>
  <line x1="268" x2="268" y1="304" y2="208.5" class="net_14,15"/>
  <line x1="268" x2="314" y1="208.5" y2="208.5" class="net_14,15"/>
  <line x1="345" x2="417" y1="128.5" y2="128.5" class="net_16,17,18,19,20,21,22,23,24,25,26,27,28,29,30,31"/>
</svg>
