<svg xmlns="http://www.w3.org/2000/svg" xmlns:xlink="http://www.w3.org/1999/xlink" xmlns:s="https://github.com/nturley/netlistsvg" width="325" height="265">
  <style>svg {
    stroke:#000;
    fill:none;
  }
  text {
    fill:#000;
    stroke:none;
    font-size:10px;
    font-weight: bold;
    font-family: "Courier New", monospace;
  }
  .nodelabel {
    text-anchor: middle;
  }
  .inputPortLabel {
    text-anchor: end;
  }
  .splitjoinBody {
    fill:#000;
  }</style>
  <g s:type="dff" transform="translate(85,32)" s:width="30" s:height="40" id="cell_$auto$ff.cc:337:slice$86">
    <s:alias val="$dff"/>
    <s:alias val="$_DFF_"/>
    <s:alias val="$_DFF_P_"/>
    <rect width="30" height="40" x="0" y="0" class="cell_$auto$ff.cc:337:slice$86"/>
    <path d="M0,35 L5,30 L0,25" class="cell_$auto$ff.cc:337:slice$86"/>
    <g s:x="30" s:y="10" s:pid="Q"/>
    <g s:x="0" s:y="30" s:pid="CLK"/>
    <g s:x="0" s:y="30" s:pid="C"/>
    <g s:x="0" s:y="10" s:pid="D"/>
  </g>
  <g s:type="mux" transform="translate(173.33333333333334,118)" s:width="20" s:height="40" id="cell_$auto$simplemap.cc:298:simplemap_mux$84">
    <s:alias val="$pmux"/>
    <s:alias val="$mux"/>
    <s:alias val="$_MUX_"/>
    <path d="M0,0 L20,10 L20,30 L0,40 Z" class="cell_$auto$simplemap.cc:298:simplemap_mux$84"/>
    <g s:x="0" s:y="10" s:pid="A"/>
    <g s:x="0" s:y="30" s:pid="B"/>
    <g s:x="10" s:y="35" s:pid="S"/>
    <g s:x="20" s:y="20" s:pid="Y"/>
  </g>
  <g s:type="mux" transform="translate(243,108)" s:width="20" s:height="40" id="cell_$auto$simplemap.cc:298:simplemap_mux$85">
    <s:alias val="$pmux"/>
    <s:alias val="$mux"/>
    <s:alias val="$_MUX_"/>
    <path d="M0,0 L20,10 L20,30 L0,40 Z" class="cell_$auto$simplemap.cc:298:simplemap_mux$85"/>
    <g s:x="0" s:y="10" s:pid="A"/>
    <g s:x="0" s:y="30" s:pid="B"/>
    <g s:x="10" s:y="35" s:pid="S"/>
    <g s:x="20" s:y="20" s:pid="Y"/>
  </g>
  <g s:type="inputExt" transform="translate(12,52)" s:width="30" s:height="20" id="cell_i_clk">
    <text x="15" y="-4" class="nodelabel cell_i_clk" s:attribute="ref">i_clk</text>
    <s:alias val="$_inputExt_"/>
    <path d="M0,0 L0,20 L15,20 L30,10 L15,0 Z" class="cell_i_clk"/>
    <g s:x="28" s:y="10" s:pid="Y"/>
  </g>
  <g s:type="inputExt" transform="translate(166,233)" s:width="30" s:height="20" id="cell_i_rst_n">
    <text x="15" y="-4" class="nodelabel cell_i_rst_n" s:attribute="ref">i_rst_n</text>
    <s:alias val="$_inputExt_"/>
    <path d="M0,0 L0,20 L15,20 L30,10 L15,0 Z" class="cell_i_rst_n"/>
    <g s:x="28" s:y="10" s:pid="Y"/>
  </g>
  <g s:type="inputExt" transform="translate(77,203)" s:width="30" s:height="20" id="cell_i_en">
    <text x="15" y="-4" class="nodelabel cell_i_en" s:attribute="ref">i_en</text>
    <s:alias val="$_inputExt_"/>
    <path d="M0,0 L0,20 L15,20 L30,10 L15,0 Z" class="cell_i_en"/>
    <g s:x="28" s:y="10" s:pid="Y"/>
  </g>
  <g s:type="inputExt" transform="translate(77,138)" s:width="30" s:height="20" id="cell_i_flag_in">
    <text x="15" y="-4" class="nodelabel cell_i_flag_in" s:attribute="ref">i_flag_in</text>
    <s:alias val="$_inputExt_"/>
    <path d="M0,0 L0,20 L15,20 L30,10 L15,0 Z" class="cell_i_flag_in"/>
    <g s:x="28" s:y="10" s:pid="Y"/>
  </g>
  <g s:type="outputExt" transform="translate(243,32)" s:width="30" s:height="20" id="cell_o_flag_out">
    <text x="15" y="-4" class="nodelabel cell_o_flag_out" s:attribute="ref">o_flag_out</text>
    <s:alias val="$_outputExt_"/>
    <path d="M30,0 L30,20 L15,20 L0,10 L15,0 Z" class="cell_o_flag_out"/>
    <g s:x="0" s:y="10" s:pid="A"/>
  </g>
  <g s:type="constant" transform="translate(166,63)" s:width="30" s:height="20" id="cell_0">
    <text x="15" y="-4" class="nodelabel cell_0" s:attribute="ref">0</text>
    <s:alias val="$_constant_"/>
    <rect width="30" height="20" class="cell_0"/>
    <g s:x="30" s:y="10" s:pid="Y"/>
  </g>
  <line x1="40" x2="85" y1="62" y2="62" class="net_2"/>
  <line x1="263" x2="313" y1="128" y2="128" class="net_7"/>
  <line x1="313" x2="313" y1="128" y2="12" class="net_7"/>
  <line x1="313" x2="52" y1="12" y2="12" class="net_7"/>
  <line x1="52" x2="52" y1="12" y2="42" class="net_7"/>
  <line x1="52" x2="85" y1="42" y2="42" class="net_7"/>
  <line x1="115" x2="141" y1="42" y2="42" class="net_6"/>
  <line x1="141" x2="141" y1="42" y2="128" class="net_6"/>
  <circle cx="141" cy="42" r="2" style="fill:#000" class="net_6"/>
  <line x1="141" x2="173.33333333333334" y1="128" y2="128" class="net_6"/>
  <line x1="115" x2="243" y1="42" y2="42" class="net_6"/>
  <line x1="105" x2="173.33333333333334" y1="148" y2="148" class="net_5"/>
  <line x1="105" x2="183.33333333333334" y1="213" y2="213" class="net_4"/>
  <line x1="183.33333333333334" x2="183.33333333333334" y1="213" y2="153" class="net_4"/>
  <line x1="196" x2="218" y1="73" y2="73" class="net_9"/>
  <line x1="218" x2="218" y1="73" y2="118" class="net_9"/>
  <line x1="218" x2="243" y1="118" y2="118" class="net_9"/>
  <line x1="193.33333333333334" x2="243" y1="138" y2="138" class="net_8"/>
  <line x1="194" x2="253" y1="243" y2="243" class="net_3"/>
  <line x1="253" x2="253" y1="243" y2="143" class="net_3"/>
</svg>
