<svg xmlns="http://www.w3.org/2000/svg" xmlns:xlink="http://www.w3.org/1999/xlink" xmlns:s="https://github.com/nturley/netlistsvg" width="624" height="371">
  <style>svg {
    stroke:#000;
    fill:none;
  }
  text {
    fill:#000;
    stroke:none;
    font-size:10px;
    font-weight: bold;
    font-family: "Courier New", monospace;
  }
  .nodelabel {
    text-anchor: middle;
  }
  .inputPortLabel {
    text-anchor: end;
  }
  .splitjoinBody {
    fill:#000;
  }</style>
  <g s:type="generic" transform="translate(397.75,67)" s:width="30" s:height="40" id="cell_u_adder_plus2">
    <text x="15" y="-4" class="nodelabel cell_u_adder_plus2" s:attribute="ref">program_counter_adder_16bit</text>
    <rect width="30" height="60" s:generic="body" class="cell_u_adder_plus2"/>
    <g transform="translate(0,10)" s:x="0" s:y="10" s:pid="in0" id="port_u_adder_plus2~i_a">
      <text x="-3" y="-4" class="inputPortLabel cell_u_adder_plus2">i_a</text>
    </g>
    <g transform="translate(0,30)" s:x="0" s:y="10" s:pid="in0" id="port_u_adder_plus2~i_b">
      <text x="-3" y="-4" class="inputPortLabel cell_u_adder_plus2">i_b</text>
    </g>
    <g transform="translate(0,50)" s:x="0" s:y="10" s:pid="in0" id="port_u_adder_plus2~i_cin">
      <text x="-3" y="-4" class="inputPortLabel cell_u_adder_plus2">i_cin</text>
    </g>
    <g transform="translate(30,10)" s:x="30" s:y="10" s:pid="out0" id="port_u_adder_plus2~o_cout">
      <text x="5" y="-4" style="fill:#000; stroke:none" class="cell_u_adder_plus2">o_cout</text>
    </g>
    <g transform="translate(30,30)" s:x="30" s:y="10" s:pid="out0" id="port_u_adder_plus2~o_sum">
      <text x="5" y="-4" style="fill:#000; stroke:none" class="cell_u_adder_plus2">o_sum</text>
    </g>
  </g>
  <g s:type="generic" transform="translate(392,220)" s:width="30" s:height="40" id="cell_u_adder_target">
    <text x="15" y="-4" class="nodelabel cell_u_adder_target" s:attribute="ref">program_counter_adder_16bit</text>
    <rect width="30" height="60" s:generic="body" class="cell_u_adder_target"/>
    <g transform="translate(0,10)" s:x="0" s:y="10" s:pid="in0" id="port_u_adder_target~i_a">
      <text x="-3" y="-4" class="inputPortLabel cell_u_adder_target">i_a</text>
    </g>
    <g transform="translate(0,30)" s:x="0" s:y="10" s:pid="in0" id="port_u_adder_target~i_b">
      <text x="-3" y="-4" class="inputPortLabel cell_u_adder_target">i_b</text>
    </g>
    <g transform="translate(0,50)" s:x="0" s:y="10" s:pid="in0" id="port_u_adder_target~i_cin">
      <text x="-3" y="-4" class="inputPortLabel cell_u_adder_target">i_cin</text>
    </g>
    <g transform="translate(30,10)" s:x="30" s:y="10" s:pid="out0" id="port_u_adder_target~o_cout">
      <text x="5" y="-4" style="fill:#000; stroke:none" class="cell_u_adder_target">o_cout</text>
    </g>
    <g transform="translate(30,30)" s:x="30" s:y="10" s:pid="out0" id="port_u_adder_target~o_sum">
      <text x="5" y="-4" style="fill:#000; stroke:none" class="cell_u_adder_target">o_sum</text>
    </g>
  </g>
  <g s:type="generic" transform="translate(266,152.5)" s:width="30" s:height="40" id="cell_u_mux_base">
    <text x="15" y="-4" class="nodelabel cell_u_mux_base" s:attribute="ref">program_counter_mux2_16bit</text>
    <rect width="30" height="60" s:generic="body" class="cell_u_mux_base"/>
    <g transform="translate(0,10)" s:x="0" s:y="10" s:pid="in0" id="port_u_mux_base~i_d0">
      <text x="-3" y="-4" class="inputPortLabel cell_u_mux_base">i_d0</text>
    </g>
    <g transform="translate(0,30)" s:x="0" s:y="10" s:pid="in0" id="port_u_mux_base~i_d1">
      <text x="-3" y="-4" class="inputPortLabel cell_u_mux_base">i_d1</text>
    </g>
    <g transform="translate(0,50)" s:x="0" s:y="10" s:pid="in0" id="port_u_mux_base~i_sel">
      <text x="-3" y="-4" class="inputPortLabel cell_u_mux_base">i_sel</text>
    </g>
    <g transform="translate(30,10)" s:x="30" s:y="10" s:pid="out0" id="port_u_mux_base~o_y">
      <text x="5" y="-4" style="fill:#000; stroke:none" class="cell_u_mux_base">o_y</text>
    </g>
  </g>
  <g s:type="generic" transform="translate(542,220)" s:width="30" s:height="40" id="cell_u_mux_next">
    <text x="15" y="-4" class="nodelabel cell_u_mux_next" s:attribute="ref">program_counter_mux2_16bit</text>
    <rect width="30" height="60" s:generic="body" class="cell_u_mux_next"/>
    <g transform="translate(0,10)" s:x="0" s:y="10" s:pid="in0" id="port_u_mux_next~i_d0">
      <text x="-3" y="-4" class="inputPortLabel cell_u_mux_next">i_d0</text>
    </g>
    <g transform="translate(0,30)" s:x="0" s:y="10" s:pid="in0" id="port_u_mux_next~i_d1">
      <text x="-3" y="-4" class="inputPortLabel cell_u_mux_next">i_d1</text>
    </g>
    <g transform="translate(0,50)" s:x="0" s:y="10" s:pid="in0" id="port_u_mux_next~i_sel">
      <text x="-3" y="-4" class="inputPortLabel cell_u_mux_next">i_sel</text>
    </g>
    <g transform="translate(30,10)" s:x="30" s:y="10" s:pid="out0" id="port_u_mux_next~o_y">
      <text x="5" y="-4" style="fill:#000; stroke:none" class="cell_u_mux_next">o_y</text>
    </g>
  </g>
  <g s:type="generic" transform="translate(132,22)" s:width="30" s:height="40" id="cell_u_pc_reg">
    <text x="15" y="-4" class="nodelabel cell_u_pc_reg" s:attribute="ref">program_counter_reg_16bit</text>
    <rect width="30" height="60" s:generic="body" class="cell_u_pc_reg"/>
    <g transform="translate(0,10)" s:x="0" s:y="10" s:pid="in0" id="port_u_pc_reg~i_clk">
      <text x="-3" y="-4" class="inputPortLabel cell_u_pc_reg">i_clk</text>
    </g>
    <g transform="translate(0,30)" s:x="0" s:y="10" s:pid="in0" id="port_u_pc_reg~i_data">
      <text x="-3" y="-4" class="inputPortLabel cell_u_pc_reg">i_data</text>
    </g>
    <g transform="translate(0,50)" s:x="0" s:y="10" s:pid="in0" id="port_u_pc_reg~i_rst_n">
      <text x="-3" y="-4" class="inputPortLabel cell_u_pc_reg">i_rst_n</text>
    </g>
    <g transform="translate(30,10)" s:x="30" s:y="10" s:pid="out0" id="port_u_pc_reg~o_data">
      <text x="5" y="-4" style="fill:#000; stroke:none" class="cell_u_pc_reg">o_data</text>
    </g>
  </g>
  <g s:type="inputExt" transform="translate(12,22.5)" s:width="30" s:height="20" id="cell_i_clk">
    <text x="15" y="-4" class="nodelabel cell_i_clk" s:attribute="ref">i_clk</text>
    <s:alias val="$_inputExt_"/>
    <path d="M0,0 L0,20 L15,20 L30,10 L15,0 Z" class="cell_i_clk"/>
    <g s:x="28" s:y="10" s:pid="Y"/>
  </g>
  <g s:type="inputExt" transform="translate(12,87.5)" s:width="30" s:height="20" id="cell_i_rst_n">
    <text x="15" y="-4" class="nodelabel cell_i_rst_n" s:attribute="ref">i_rst_n</text>
    <s:alias val="$_inputExt_"/>
    <path d="M0,0 L0,20 L15,20 L30,10 L15,0 Z" class="cell_i_rst_n"/>
    <g s:x="28" s:y="10" s:pid="Y"/>
  </g>
  <g s:type="inputExt" transform="translate(392,328)" s:width="30" s:height="20" id="cell_i_jump_en">
    <text x="15" y="-4" class="nodelabel cell_i_jump_en" s:attribute="ref">i_jump_en</text>
    <s:alias val="$_inputExt_"/>
    <path d="M0,0 L0,20 L15,20 L30,10 L15,0 Z" class="cell_i_jump_en"/>
    <g s:x="28" s:y="10" s:pid="Y"/>
  </g>
  <g s:type="inputExt" transform="translate(132,238)" s:width="30" s:height="20" id="cell_i_jalr_en">
    <text x="15" y="-4" class="nodelabel cell_i_jalr_en" s:attribute="ref">i_jalr_en</text>
    <s:alias val="$_inputExt_"/>
    <path d="M0,0 L0,20 L15,20 L30,10 L15,0 Z" class="cell_i_jalr_en"/>
    <g s:x="28" s:y="10" s:pid="Y"/>
  </g>
  <g s:type="inputExt" transform="translate(132,173)" s:width="30" s:height="20" id="cell_i_rs1_data">
    <text x="15" y="-4" class="nodelabel cell_i_rs1_data" s:attribute="ref">i_rs1_data</text>
    <s:alias val="$_inputExt_"/>
    <path d="M0,0 L0,20 L15,20 L30,10 L15,0 Z" class="cell_i_rs1_data"/>
    <g s:x="28" s:y="10" s:pid="Y"/>
  </g>
  <g s:type="inputExt" transform="translate(266,325.5)" s:width="30" s:height="20" id="cell_i_imm">
    <text x="15" y="-4" class="nodelabel cell_i_imm" s:attribute="ref">i_imm</text>
    <s:alias val="$_inputExt_"/>
    <path d="M0,0 L0,20 L15,20 L30,10 L15,0 Z" class="cell_i_imm"/>
    <g s:x="28" s:y="10" s:pid="Y"/>
  </g>
  <g s:type="outputExt" transform="translate(542,22.5)" s:width="30" s:height="20" id="cell_o_pc">
    <text x="15" y="-4" class="nodelabel cell_o_pc" s:attribute="ref">o_pc</text>
    <s:alias val="$_outputExt_"/>
    <path d="M30,0 L30,20 L15,20 L0,10 L15,0 Z" class="cell_o_pc"/>
    <g s:x="0" s:y="10" s:pid="A"/>
  </g>
  <g s:type="outputExt" transform="translate(536,87.5)" s:width="30" s:height="20" id="cell_o_pc_plus_2">
    <text x="15" y="-4" class="nodelabel cell_o_pc_plus_2" s:attribute="ref">o_pc_plus_2</text>
    <s:alias val="$_outputExt_"/>
    <path d="M30,0 L30,20 L15,20 L0,10 L15,0 Z" class="cell_o_pc_plus_2"/>
    <g s:x="0" s:y="10" s:pid="A"/>
  </g>
  <g s:type="constant" transform="translate(266,87.5)" s:width="30" s:height="20" id="cell_0000000000000010">
    <text x="15" y="-4" class="nodelabel cell_0000000000000010" s:attribute="ref">0x2</text>
    <s:alias val="$_constant_"/>
    <rect width="30" height="20" class="cell_0000000000000010"/>
    <g s:x="30" s:y="10" s:pid="Y"/>
  </g>
  <g s:type="constant" transform="translate(266,260.5)" s:width="30" s:height="20" id="cell_0">
    <text x="15" y="-4" class="nodelabel cell_0" s:attribute="ref">0</text>
    <s:alias val="$_constant_"/>
    <rect width="30" height="20" class="cell_0"/>
    <g s:x="30" s:y="10" s:pid="Y"/>
  </g>
  <line x1="163" x2="336" y1="32.5" y2="32.5" class="net_38,39,40,41,42,43,44,45,46,47,48,49,50,51,52,53"/>
  <line x1="336" x2="336" y1="32.5" y2="77.5" class="net_38,39,40,41,42,43,44,45,46,47,48,49,50,51,52,53"/>
  <circle cx="336" cy="32.5" r="2" style="fill:#000" class="net_38,39,40,41,42,43,44,45,46,47,48,49,50,51,52,53"/>
  <line x1="336" x2="397.75" y1="77.5" y2="77.5" class="net_38,39,40,41,42,43,44,45,46,47,48,49,50,51,52,53"/>
  <line x1="163" x2="210" y1="32.5" y2="32.5" class="net_38,39,40,41,42,43,44,45,46,47,48,49,50,51,52,53"/>
  <line x1="210" x2="210" y1="32.5" y2="163" class="net_38,39,40,41,42,43,44,45,46,47,48,49,50,51,52,53"/>
  <circle cx="210" cy="32.5" r="2" style="fill:#000" class="net_38,39,40,41,42,43,44,45,46,47,48,49,50,51,52,53"/>
  <line x1="210" x2="266" y1="163" y2="163" class="net_38,39,40,41,42,43,44,45,46,47,48,49,50,51,52,53"/>
  <line x1="163" x2="542" y1="32.5" y2="32.5" class="net_38,39,40,41,42,43,44,45,46,47,48,49,50,51,52,53"/>
  <line x1="296" x2="397.75" y1="97.5" y2="97.5" class="net_120,121,122,123,124,125,126,127,128,129,130,131,132,133,134,135"/>
  <line x1="296" x2="336" y1="270.5" y2="270.5" class="net_136"/>
  <line x1="336" x2="336" y1="270.5" y2="117.5" class="net_136"/>
  <circle cx="336" cy="270.5" r="2" style="fill:#000" class="net_136"/>
  <line x1="336" x2="397.75" y1="117.5" y2="117.5" class="net_136"/>
  <line x1="296" x2="392" y1="270.5" y2="270.5" class="net_136"/>
  <line x1="297" x2="346" y1="163" y2="163" class="net_71,72,73,74,75,76,77,78,79,80,81,82,83,84,85,86"/>
  <line x1="346" x2="346" y1="163" y2="230.5" class="net_71,72,73,74,75,76,77,78,79,80,81,82,83,84,85,86"/>
  <line x1="346" x2="392" y1="230.5" y2="230.5" class="net_71,72,73,74,75,76,77,78,79,80,81,82,83,84,85,86"/>
  <line x1="294" x2="346" y1="335.5" y2="335.5" class="net_22,23,24,25,26,27,28,29,30,31,32,33,34,35,36,37"/>
  <line x1="346" x2="346" y1="335.5" y2="250.5" class="net_22,23,24,25,26,27,28,29,30,31,32,33,34,35,36,37"/>
  <line x1="346" x2="392" y1="250.5" y2="250.5" class="net_22,23,24,25,26,27,28,29,30,31,32,33,34,35,36,37"/>
  <line x1="160" x2="266" y1="183" y2="183" class="net_6,7,8,9,10,11,12,13,14,15,16,17,18,19,20,21"/>
  <line x1="160" x2="210" y1="248" y2="248" class="net_5"/>
  <line x1="210" x2="210" y1="248" y2="203" class="net_5"/>
  <line x1="210" x2="266" y1="203" y2="203" class="net_5"/>
  <line x1="428.75" x2="486" y1="97.5" y2="97.5" class="net_54,55,56,57,58,59,60,61,62,63,64,65,66,67,68,69"/>
  <line x1="486" x2="486" y1="97.5" y2="230.5" class="net_54,55,56,57,58,59,60,61,62,63,64,65,66,67,68,69"/>
  <circle cx="486" cy="97.5" r="2" style="fill:#000" class="net_54,55,56,57,58,59,60,61,62,63,64,65,66,67,68,69"/>
  <line x1="486" x2="542" y1="230.5" y2="230.5" class="net_54,55,56,57,58,59,60,61,62,63,64,65,66,67,68,69"/>
  <line x1="428.75" x2="536" y1="97.5" y2="97.5" class="net_54,55,56,57,58,59,60,61,62,63,64,65,66,67,68,69"/>
  <line x1="423" x2="542" y1="250.5" y2="250.5" class="net_88,89,90,91,92,93,94,95,96,97,98,99,100,101,102,103"/>
  <line x1="420" x2="486" y1="338" y2="338" class="net_4"/>
  <line x1="486" x2="486" y1="338" y2="270.5" class="net_4"/>
  <line x1="486" x2="542" y1="270.5" y2="270.5" class="net_4"/>
  <line x1="40" x2="132" y1="32.5" y2="32.5" class="net_2"/>
  <line x1="573" x2="612" y1="230.5" y2="230.5" class="net_104,105,106,107,108,109,110,111,112,113,114,115,116,117,118,119"/>
  <line x1="612" x2="612" y1="230.5" y2="358" class="net_104,105,106,107,108,109,110,111,112,113,114,115,116,117,118,119"/>
  <line x1="612" x2="64" y1="358" y2="358" class="net_104,105,106,107,108,109,110,111,112,113,114,115,116,117,118,119"/>
  <line x1="64" x2="64" y1="358" y2="52.5" class="net_104,105,106,107,108,109,110,111,112,113,114,115,116,117,118,119"/>
  <line x1="64" x2="132" y1="52.5" y2="52.5" class="net_104,105,106,107,108,109,110,111,112,113,114,115,116,117,118,119"/>
  <line x1="40" x2="74" y1="97.5" y2="97.5" class="net_3"/>
  <line x1="74" x2="74" y1="97.5" y2="72.5" class="net_3"/>
  <line x1="74" x2="132" y1="72.5" y2="72.5" class="net_3"/>
</svg>
