<svg xmlns="http://www.w3.org/2000/svg" xmlns:xlink="http://www.w3.org/1999/xlink" xmlns:s="https://github.com/nturley/netlistsvg" width="879" height="910.5">
  <style>svg {
    stroke:#000;
    fill:none;
  }
  text {
    fill:#000;
    stroke:none;
    font-size:10px;
    font-weight: bold;
    font-family: "Courier New", monospace;
  }
  .nodelabel {
    text-anchor: middle;
  }
  .inputPortLabel {
    text-anchor: end;
  }
  .splitjoinBody {
    fill:#000;
  }</style>
  <g s:type="generic" transform="translate(206,22)" s:width="30" s:height="40" id="cell_gen_l1[0].u_mux_l1">
    <text x="15" y="-4" class="nodelabel cell_gen_l1[0].u_mux_l1" s:attribute="ref">register_file_mux2_1bit</text>
    <rect width="30" height="60" s:generic="body" class="cell_gen_l1[0].u_mux_l1"/>
    <g transform="translate(0,10)" s:x="0" s:y="10" s:pid="in0" id="port_gen_l1[0].u_mux_l1~i_d0">
      <text x="-3" y="-4" class="inputPortLabel cell_gen_l1[0].u_mux_l1">i_d0</text>
    </g>
    <g transform="translate(0,30)" s:x="0" s:y="10" s:pid="in0" id="port_gen_l1[0].u_mux_l1~i_d1">
      <text x="-3" y="-4" class="inputPortLabel cell_gen_l1[0].u_mux_l1">i_d1</text>
    </g>
    <g transform="translate(0,50)" s:x="0" s:y="10" s:pid="in0" id="port_gen_l1[0].u_mux_l1~i_sel">
      <text x="-3" y="-4" class="inputPortLabel cell_gen_l1[0].u_mux_l1">i_sel</text>
    </g>
    <g transform="translate(30,10)" s:x="30" s:y="10" s:pid="out0" id="port_gen_l1[0].u_mux_l1~o_data">
      <text x="5" y="-4" style="fill:#000; stroke:none" class="cell_gen_l1[0].u_mux_l1">o_data</text>
    </g>
  </g>
  <g s:type="generic" transform="translate(206,130)" s:width="30" s:height="40" id="cell_gen_l1[1].u_mux_l1">
    <text x="15" y="-4" class="nodelabel cell_gen_l1[1].u_mux_l1" s:attribute="ref">register_file_mux2_1bit</text>
    <rect width="30" height="60" s:generic="body" class="cell_gen_l1[1].u_mux_l1"/>
    <g transform="translate(0,10)" s:x="0" s:y="10" s:pid="in0" id="port_gen_l1[1].u_mux_l1~i_d0">
      <text x="-3" y="-4" class="inputPortLabel cell_gen_l1[1].u_mux_l1">i_d0</text>
    </g>
    <g transform="translate(0,30)" s:x="0" s:y="10" s:pid="in0" id="port_gen_l1[1].u_mux_l1~i_d1">
      <text x="-3" y="-4" class="inputPortLabel cell_gen_l1[1].u_mux_l1">i_d1</text>
    </g>
    <g transform="translate(0,50)" s:x="0" s:y="10" s:pid="in0" id="port_gen_l1[1].u_mux_l1~i_sel">
      <text x="-3" y="-4" class="inputPortLabel cell_gen_l1[1].u_mux_l1">i_sel</text>
    </g>
    <g transform="translate(30,10)" s:x="30" s:y="10" s:pid="out0" id="port_gen_l1[1].u_mux_l1~o_data">
      <text x="5" y="-4" style="fill:#000; stroke:none" class="cell_gen_l1[1].u_mux_l1">o_data</text>
    </g>
  </g>
  <g s:type="generic" transform="translate(206,238)" s:width="30" s:height="40" id="cell_gen_l1[2].u_mux_l1">
    <text x="15" y="-4" class="nodelabel cell_gen_l1[2].u_mux_l1" s:attribute="ref">register_file_mux2_1bit</text>
    <rect width="30" height="60" s:generic="body" class="cell_gen_l1[2].u_mux_l1"/>
    <g transform="translate(0,10)" s:x="0" s:y="10" s:pid="in0" id="port_gen_l1[2].u_mux_l1~i_d0">
      <text x="-3" y="-4" class="inputPortLabel cell_gen_l1[2].u_mux_l1">i_d0</text>
    </g>
    <g transform="translate(0,30)" s:x="0" s:y="10" s:pid="in0" id="port_gen_l1[2].u_mux_l1~i_d1">
      <text x="-3" y="-4" class="inputPortLabel cell_gen_l1[2].u_mux_l1">i_d1</text>
    </g>
    <g transform="translate(0,50)" s:x="0" s:y="10" s:pid="in0" id="port_gen_l1[2].u_mux_l1~i_sel">
      <text x="-3" y="-4" class="inputPortLabel cell_gen_l1[2].u_mux_l1">i_sel</text>
    </g>
    <g transform="translate(30,10)" s:x="30" s:y="10" s:pid="out0" id="port_gen_l1[2].u_mux_l1~o_data">
      <text x="5" y="-4" style="fill:#000; stroke:none" class="cell_gen_l1[2].u_mux_l1">o_data</text>
    </g>
  </g>
  <g s:type="generic" transform="translate(206,346)" s:width="30" s:height="40" id="cell_gen_l1[3].u_mux_l1">
    <text x="15" y="-4" class="nodelabel cell_gen_l1[3].u_mux_l1" s:attribute="ref">register_file_mux2_1bit</text>
    <rect width="30" height="60" s:generic="body" class="cell_gen_l1[3].u_mux_l1"/>
    <g transform="translate(0,10)" s:x="0" s:y="10" s:pid="in0" id="port_gen_l1[3].u_mux_l1~i_d0">
      <text x="-3" y="-4" class="inputPortLabel cell_gen_l1[3].u_mux_l1">i_d0</text>
    </g>
    <g transform="translate(0,30)" s:x="0" s:y="10" s:pid="in0" id="port_gen_l1[3].u_mux_l1~i_d1">
      <text x="-3" y="-4" class="inputPortLabel cell_gen_l1[3].u_mux_l1">i_d1</text>
    </g>
    <g transform="translate(0,50)" s:x="0" s:y="10" s:pid="in0" id="port_gen_l1[3].u_mux_l1~i_sel">
      <text x="-3" y="-4" class="inputPortLabel cell_gen_l1[3].u_mux_l1">i_sel</text>
    </g>
    <g transform="translate(30,10)" s:x="30" s:y="10" s:pid="out0" id="port_gen_l1[3].u_mux_l1~o_data">
      <text x="5" y="-4" style="fill:#000; stroke:none" class="cell_gen_l1[3].u_mux_l1">o_data</text>
    </g>
  </g>
  <g s:type="generic" transform="translate(206,454)" s:width="30" s:height="40" id="cell_gen_l1[4].u_mux_l1">
    <text x="15" y="-4" class="nodelabel cell_gen_l1[4].u_mux_l1" s:attribute="ref">register_file_mux2_1bit</text>
    <rect width="30" height="60" s:generic="body" class="cell_gen_l1[4].u_mux_l1"/>
    <g transform="translate(0,10)" s:x="0" s:y="10" s:pid="in0" id="port_gen_l1[4].u_mux_l1~i_d0">
      <text x="-3" y="-4" class="inputPortLabel cell_gen_l1[4].u_mux_l1">i_d0</text>
    </g>
    <g transform="translate(0,30)" s:x="0" s:y="10" s:pid="in0" id="port_gen_l1[4].u_mux_l1~i_d1">
      <text x="-3" y="-4" class="inputPortLabel cell_gen_l1[4].u_mux_l1">i_d1</text>
    </g>
    <g transform="translate(0,50)" s:x="0" s:y="10" s:pid="in0" id="port_gen_l1[4].u_mux_l1~i_sel">
      <text x="-3" y="-4" class="inputPortLabel cell_gen_l1[4].u_mux_l1">i_sel</text>
    </g>
    <g transform="translate(30,10)" s:x="30" s:y="10" s:pid="out0" id="port_gen_l1[4].u_mux_l1~o_data">
      <text x="5" y="-4" style="fill:#000; stroke:none" class="cell_gen_l1[4].u_mux_l1">o_data</text>
    </g>
  </g>
  <g s:type="generic" transform="translate(206,562)" s:width="30" s:height="40" id="cell_gen_l1[5].u_mux_l1">
    <text x="15" y="-4" class="nodelabel cell_gen_l1[5].u_mux_l1" s:attribute="ref">register_file_mux2_1bit</text>
    <rect width="30" height="60" s:generic="body" class="cell_gen_l1[5].u_mux_l1"/>
    <g transform="translate(0,10)" s:x="0" s:y="10" s:pid="in0" id="port_gen_l1[5].u_mux_l1~i_d0">
      <text x="-3" y="-4" class="inputPortLabel cell_gen_l1[5].u_mux_l1">i_d0</text>
    </g>
    <g transform="translate(0,30)" s:x="0" s:y="10" s:pid="in0" id="port_gen_l1[5].u_mux_l1~i_d1">
      <text x="-3" y="-4" class="inputPortLabel cell_gen_l1[5].u_mux_l1">i_d1</text>
    </g>
    <g transform="translate(0,50)" s:x="0" s:y="10" s:pid="in0" id="port_gen_l1[5].u_mux_l1~i_sel">
      <text x="-3" y="-4" class="inputPortLabel cell_gen_l1[5].u_mux_l1">i_sel</text>
    </g>
    <g transform="translate(30,10)" s:x="30" s:y="10" s:pid="out0" id="port_gen_l1[5].u_mux_l1~o_data">
      <text x="5" y="-4" style="fill:#000; stroke:none" class="cell_gen_l1[5].u_mux_l1">o_data</text>
    </g>
  </g>
  <g s:type="generic" transform="translate(206,670)" s:width="30" s:height="40" id="cell_gen_l1[6].u_mux_l1">
    <text x="15" y="-4" class="nodelabel cell_gen_l1[6].u_mux_l1" s:attribute="ref">register_file_mux2_1bit</text>
    <rect width="30" height="60" s:generic="body" class="cell_gen_l1[6].u_mux_l1"/>
    <g transform="translate(0,10)" s:x="0" s:y="10" s:pid="in0" id="port_gen_l1[6].u_mux_l1~i_d0">
      <text x="-3" y="-4" class="inputPortLabel cell_gen_l1[6].u_mux_l1">i_d0</text>
    </g>
    <g transform="translate(0,30)" s:x="0" s:y="10" s:pid="in0" id="port_gen_l1[6].u_mux_l1~i_d1">
      <text x="-3" y="-4" class="inputPortLabel cell_gen_l1[6].u_mux_l1">i_d1</text>
    </g>
    <g transform="translate(0,50)" s:x="0" s:y="10" s:pid="in0" id="port_gen_l1[6].u_mux_l1~i_sel">
      <text x="-3" y="-4" class="inputPortLabel cell_gen_l1[6].u_mux_l1">i_sel</text>
    </g>
    <g transform="translate(30,10)" s:x="30" s:y="10" s:pid="out0" id="port_gen_l1[6].u_mux_l1~o_data">
      <text x="5" y="-4" style="fill:#000; stroke:none" class="cell_gen_l1[6].u_mux_l1">o_data</text>
    </g>
  </g>
  <g s:type="generic" transform="translate(206,778)" s:width="30" s:height="40" id="cell_gen_l1[7].u_mux_l1">
    <text x="15" y="-4" class="nodelabel cell_gen_l1[7].u_mux_l1" s:attribute="ref">register_file_mux2_1bit</text>
    <rect width="30" height="60" s:generic="body" class="cell_gen_l1[7].u_mux_l1"/>
    <g transform="translate(0,10)" s:x="0" s:y="10" s:pid="in0" id="port_gen_l1[7].u_mux_l1~i_d0">
      <text x="-3" y="-4" class="inputPortLabel cell_gen_l1[7].u_mux_l1">i_d0</text>
    </g>
    <g transform="translate(0,30)" s:x="0" s:y="10" s:pid="in0" id="port_gen_l1[7].u_mux_l1~i_d1">
      <text x="-3" y="-4" class="inputPortLabel cell_gen_l1[7].u_mux_l1">i_d1</text>
    </g>
    <g transform="translate(0,50)" s:x="0" s:y="10" s:pid="in0" id="port_gen_l1[7].u_mux_l1~i_sel">
      <text x="-3" y="-4" class="inputPortLabel cell_gen_l1[7].u_mux_l1">i_sel</text>
    </g>
    <g transform="translate(30,10)" s:x="30" s:y="10" s:pid="out0" id="port_gen_l1[7].u_mux_l1~o_data">
      <text x="5" y="-4" style="fill:#000; stroke:none" class="cell_gen_l1[7].u_mux_l1">o_data</text>
    </g>
  </g>
  <g s:type="generic" transform="translate(380,22)" s:width="30" s:height="40" id="cell_gen_l2[0].u_mux_l2">
    <text x="15" y="-4" class="nodelabel cell_gen_l2[0].u_mux_l2" s:attribute="ref">register_file_mux2_1bit</text>
    <rect width="30" height="60" s:generic="body" class="cell_gen_l2[0].u_mux_l2"/>
    <g transform="translate(0,10)" s:x="0" s:y="10" s:pid="in0" id="port_gen_l2[0].u_mux_l2~i_d0">
      <text x="-3" y="-4" class="inputPortLabel cell_gen_l2[0].u_mux_l2">i_d0</text>
    </g>
    <g transform="translate(0,30)" s:x="0" s:y="10" s:pid="in0" id="port_gen_l2[0].u_mux_l2~i_d1">
      <text x="-3" y="-4" class="inputPortLabel cell_gen_l2[0].u_mux_l2">i_d1</text>
    </g>
    <g transform="translate(0,50)" s:x="0" s:y="10" s:pid="in0" id="port_gen_l2[0].u_mux_l2~i_sel">
      <text x="-3" y="-4" class="inputPortLabel cell_gen_l2[0].u_mux_l2">i_sel</text>
    </g>
    <g transform="translate(30,10)" s:x="30" s:y="10" s:pid="out0" id="port_gen_l2[0].u_mux_l2~o_data">
      <text x="5" y="-4" style="fill:#000; stroke:none" class="cell_gen_l2[0].u_mux_l2">o_data</text>
    </g>
  </g>
  <g s:type="generic" transform="translate(380,238)" s:width="30" s:height="40" id="cell_gen_l2[1].u_mux_l2">
    <text x="15" y="-4" class="nodelabel cell_gen_l2[1].u_mux_l2" s:attribute="ref">register_file_mux2_1bit</text>
    <rect width="30" height="60" s:generic="body" class="cell_gen_l2[1].u_mux_l2"/>
    <g transform="translate(0,10)" s:x="0" s:y="10" s:pid="in0" id="port_gen_l2[1].u_mux_l2~i_d0">
      <text x="-3" y="-4" class="inputPortLabel cell_gen_l2[1].u_mux_l2">i_d0</text>
    </g>
    <g transform="translate(0,30)" s:x="0" s:y="10" s:pid="in0" id="port_gen_l2[1].u_mux_l2~i_d1">
      <text x="-3" y="-4" class="inputPortLabel cell_gen_l2[1].u_mux_l2">i_d1</text>
    </g>
    <g transform="translate(0,50)" s:x="0" s:y="10" s:pid="in0" id="port_gen_l2[1].u_mux_l2~i_sel">
      <text x="-3" y="-4" class="inputPortLabel cell_gen_l2[1].u_mux_l2">i_sel</text>
    </g>
    <g transform="translate(30,10)" s:x="30" s:y="10" s:pid="out0" id="port_gen_l2[1].u_mux_l2~o_data">
      <text x="5" y="-4" style="fill:#000; stroke:none" class="cell_gen_l2[1].u_mux_l2">o_data</text>
    </g>
  </g>
  <g s:type="generic" transform="translate(380,454)" s:width="30" s:height="40" id="cell_gen_l2[2].u_mux_l2">
    <text x="15" y="-4" class="nodelabel cell_gen_l2[2].u_mux_l2" s:attribute="ref">register_file_mux2_1bit</text>
    <rect width="30" height="60" s:generic="body" class="cell_gen_l2[2].u_mux_l2"/>
    <g transform="translate(0,10)" s:x="0" s:y="10" s:pid="in0" id="port_gen_l2[2].u_mux_l2~i_d0">
      <text x="-3" y="-4" class="inputPortLabel cell_gen_l2[2].u_mux_l2">i_d0</text>
    </g>
    <g transform="translate(0,30)" s:x="0" s:y="10" s:pid="in0" id="port_gen_l2[2].u_mux_l2~i_d1">
      <text x="-3" y="-4" class="inputPortLabel cell_gen_l2[2].u_mux_l2">i_d1</text>
    </g>
    <g transform="translate(0,50)" s:x="0" s:y="10" s:pid="in0" id="port_gen_l2[2].u_mux_l2~i_sel">
      <text x="-3" y="-4" class="inputPortLabel cell_gen_l2[2].u_mux_l2">i_sel</text>
    </g>
    <g transform="translate(30,10)" s:x="30" s:y="10" s:pid="out0" id="port_gen_l2[2].u_mux_l2~o_data">
      <text x="5" y="-4" style="fill:#000; stroke:none" class="cell_gen_l2[2].u_mux_l2">o_data</text>
    </g>
  </g>
  <g s:type="generic" transform="translate(380,670)" s:width="30" s:height="40" id="cell_gen_l2[3].u_mux_l2">
    <text x="15" y="-4" class="nodelabel cell_gen_l2[3].u_mux_l2" s:attribute="ref">register_file_mux2_1bit</text>
    <rect width="30" height="60" s:generic="body" class="cell_gen_l2[3].u_mux_l2"/>
    <g transform="translate(0,10)" s:x="0" s:y="10" s:pid="in0" id="port_gen_l2[3].u_mux_l2~i_d0">
      <text x="-3" y="-4" class="inputPortLabel cell_gen_l2[3].u_mux_l2">i_d0</text>
    </g>
    <g transform="translate(0,30)" s:x="0" s:y="10" s:pid="in0" id="port_gen_l2[3].u_mux_l2~i_d1">
      <text x="-3" y="-4" class="inputPortLabel cell_gen_l2[3].u_mux_l2">i_d1</text>
    </g>
    <g transform="translate(0,50)" s:x="0" s:y="10" s:pid="in0" id="port_gen_l2[3].u_mux_l2~i_sel">
      <text x="-3" y="-4" class="inputPortLabel cell_gen_l2[3].u_mux_l2">i_sel</text>
    </g>
    <g transform="translate(30,10)" s:x="30" s:y="10" s:pid="out0" id="port_gen_l2[3].u_mux_l2~o_data">
      <text x="5" y="-4" style="fill:#000; stroke:none" class="cell_gen_l2[3].u_mux_l2">o_data</text>
    </g>
  </g>
  <g s:type="generic" transform="translate(554,22)" s:width="30" s:height="40" id="cell_gen_l3[0].u_mux_l3">
    <text x="15" y="-4" class="nodelabel cell_gen_l3[0].u_mux_l3" s:attribute="ref">register_file_mux2_1bit</text>
    <rect width="30" height="60" s:generic="body" class="cell_gen_l3[0].u_mux_l3"/>
    <g transform="translate(0,10)" s:x="0" s:y="10" s:pid="in0" id="port_gen_l3[0].u_mux_l3~i_d0">
      <text x="-3" y="-4" class="inputPortLabel cell_gen_l3[0].u_mux_l3">i_d0</text>
    </g>
    <g transform="translate(0,30)" s:x="0" s:y="10" s:pid="in0" id="port_gen_l3[0].u_mux_l3~i_d1">
      <text x="-3" y="-4" class="inputPortLabel cell_gen_l3[0].u_mux_l3">i_d1</text>
    </g>
    <g transform="translate(0,50)" s:x="0" s:y="10" s:pid="in0" id="port_gen_l3[0].u_mux_l3~i_sel">
      <text x="-3" y="-4" class="inputPortLabel cell_gen_l3[0].u_mux_l3">i_sel</text>
    </g>
    <g transform="translate(30,10)" s:x="30" s:y="10" s:pid="out0" id="port_gen_l3[0].u_mux_l3~o_data">
      <text x="5" y="-4" style="fill:#000; stroke:none" class="cell_gen_l3[0].u_mux_l3">o_data</text>
    </g>
  </g>
  <g s:type="generic" transform="translate(554,454)" s:width="30" s:height="40" id="cell_gen_l3[1].u_mux_l3">
    <text x="15" y="-4" class="nodelabel cell_gen_l3[1].u_mux_l3" s:attribute="ref">register_file_mux2_1bit</text>
    <rect width="30" height="60" s:generic="body" class="cell_gen_l3[1].u_mux_l3"/>
    <g transform="translate(0,10)" s:x="0" s:y="10" s:pid="in0" id="port_gen_l3[1].u_mux_l3~i_d0">
      <text x="-3" y="-4" class="inputPortLabel cell_gen_l3[1].u_mux_l3">i_d0</text>
    </g>
    <g transform="translate(0,30)" s:x="0" s:y="10" s:pid="in0" id="port_gen_l3[1].u_mux_l3~i_d1">
      <text x="-3" y="-4" class="inputPortLabel cell_gen_l3[1].u_mux_l3">i_d1</text>
    </g>
    <g transform="translate(0,50)" s:x="0" s:y="10" s:pid="in0" id="port_gen_l3[1].u_mux_l3~i_sel">
      <text x="-3" y="-4" class="inputPortLabel cell_gen_l3[1].u_mux_l3">i_sel</text>
    </g>
    <g transform="translate(30,10)" s:x="30" s:y="10" s:pid="out0" id="port_gen_l3[1].u_mux_l3~o_data">
      <text x="5" y="-4" style="fill:#000; stroke:none" class="cell_gen_l3[1].u_mux_l3">o_data</text>
    </g>
  </g>
  <g s:type="generic" transform="translate(728,22)" s:width="30" s:height="40" id="cell_u_mux_l4">
    <text x="15" y="-4" class="nodelabel cell_u_mux_l4" s:attribute="ref">register_file_mux2_1bit</text>
    <rect width="30" height="60" s:generic="body" class="cell_u_mux_l4"/>
    <g transform="translate(0,10)" s:x="0" s:y="10" s:pid="in0" id="port_u_mux_l4~i_d0">
      <text x="-3" y="-4" class="inputPortLabel cell_u_mux_l4">i_d0</text>
    </g>
    <g transform="translate(0,30)" s:x="0" s:y="10" s:pid="in0" id="port_u_mux_l4~i_d1">
      <text x="-3" y="-4" class="inputPortLabel cell_u_mux_l4">i_d1</text>
    </g>
    <g transform="translate(0,50)" s:x="0" s:y="10" s:pid="in0" id="port_u_mux_l4~i_sel">
      <text x="-3" y="-4" class="inputPortLabel cell_u_mux_l4">i_sel</text>
    </g>
    <g transform="translate(30,10)" s:x="30" s:y="10" s:pid="out0" id="port_u_mux_l4~o_data">
      <text x="5" y="-4" style="fill:#000; stroke:none" class="cell_u_mux_l4">o_data</text>
    </g>
  </g>
  <g s:type="inputExt" transform="translate(12,829)" s:width="30" s:height="20" id="cell_i_sel">
    <text x="15" y="-4" class="nodelabel cell_i_sel" s:attribute="ref">i_sel</text>
    <s:alias val="$_inputExt_"/>
    <path d="M0,0 L0,20 L15,20 L30,10 L15,0 Z" class="cell_i_sel"/>
    <g s:x="28" s:y="10" s:pid="Y"/>
  </g>
  <g s:type="inputExt" transform="translate(12,52.5)" s:width="30" s:height="20" id="cell_i_data">
    <text x="15" y="-4" class="nodelabel cell_i_data" s:attribute="ref">i_data</text>
    <s:alias val="$_inputExt_"/>
    <path d="M0,0 L0,20 L15,20 L30,10 L15,0 Z" class="cell_i_data"/>
    <g s:x="28" s:y="10" s:pid="Y"/>
  </g>
  <g s:type="outputExt" transform="translate(831,22.5)" s:width="30" s:height="20" id="cell_o_data">
    <text x="15" y="-4" class="nodelabel cell_o_data" s:attribute="ref">o_data</text>
    <s:alias val="$_outputExt_"/>
    <path d="M30,0 L30,20 L15,20 L0,10 L15,0 Z" class="cell_o_data"/>
    <g s:x="0" s:y="10" s:pid="A"/>
  </g>
  <g s:type="split" transform="translate(83,226)" s:width="5" s:height="40" id="cell_$split$,6,7,8,9,10,11,12,13,14,15,16,17,18,19,20,21,">
    <rect width="5" height="320" class="splitjoinBody" s:generic="body"/>
    <s:alias val="$_split_"/>
    <g s:x="0" s:y="20" s:pid="in"/>
    <g transform="translate(4,10)" s:x="4" s:y="10" s:pid="out0">
      <text x="5" y="-4">0</text>
    </g>
    <g transform="translate(4,30)" s:x="4" s:y="10" s:pid="out0">
      <text x="5" y="-4">1</text>
    </g>
    <g transform="translate(4,50)" s:x="4" s:y="10" s:pid="out0">
      <text x="5" y="-4">2</text>
    </g>
    <g transform="translate(4,70)" s:x="4" s:y="10" s:pid="out0">
      <text x="5" y="-4">3</text>
    </g>
    <g transform="translate(4,90)" s:x="4" s:y="10" s:pid="out0">
      <text x="5" y="-4">4</text>
    </g>
    <g transform="translate(4,110)" s:x="4" s:y="10" s:pid="out0">
      <text x="5" y="-4">5</text>
    </g>
    <g transform="translate(4,130)" s:x="4" s:y="10" s:pid="out0">
      <text x="5" y="-4">6</text>
    </g>
    <g transform="translate(4,150)" s:x="4" s:y="10" s:pid="out0">
      <text x="5" y="-4">7</text>
    </g>
    <g transform="translate(4,170)" s:x="4" s:y="10" s:pid="out0">
      <text x="5" y="-4">8</text>
    </g>
    <g transform="translate(4,190)" s:x="4" s:y="10" s:pid="out0">
      <text x="5" y="-4">9</text>
    </g>
    <g transform="translate(4,210)" s:x="4" s:y="10" s:pid="out0">
      <text x="5" y="-4">10</text>
    </g>
    <g transform="translate(4,230)" s:x="4" s:y="10" s:pid="out0">
      <text x="5" y="-4">11</text>
    </g>
    <g transform="translate(4,250)" s:x="4" s:y="10" s:pid="out0">
      <text x="5" y="-4">12</text>
    </g>
    <g transform="translate(4,270)" s:x="4" s:y="10" s:pid="out0">
      <text x="5" y="-4">13</text>
    </g>
    <g transform="translate(4,290)" s:x="4" s:y="10" s:pid="out0">
      <text x="5" y="-4">14</text>
    </g>
    <g transform="translate(4,310)" s:x="4" s:y="10" s:pid="out0">
      <text x="5" y="-4">15</text>
    </g>
  </g>
  <g s:type="split" transform="translate(83,818.5)" s:width="5" s:height="40" id="cell_$split$,2,3,4,5,">
    <rect width="5" height="80" class="splitjoinBody" s:generic="body"/>
    <s:alias val="$_split_"/>
    <g s:x="0" s:y="20" s:pid="in"/>
    <g transform="translate(4,10)" s:x="4" s:y="10" s:pid="out0">
      <text x="5" y="-4">0</text>
    </g>
    <g transform="translate(4,30)" s:x="4" s:y="10" s:pid="out0">
      <text x="5" y="-4">1</text>
    </g>
    <g transform="translate(4,50)" s:x="4" s:y="10" s:pid="out0">
      <text x="5" y="-4">2</text>
    </g>
    <g transform="translate(4,70)" s:x="4" s:y="10" s:pid="out0">
      <text x="5" y="-4">3</text>
    </g>
  </g>
  <line x1="87.5" x2="87.5" y1="236" y2="32.5" class="net_6"/>
  <line x1="87.5" x2="206" y1="32.5" y2="32.5" class="net_6"/>
  <line x1="87.5" x2="87.5" y1="256" y2="52.5" class="net_7"/>
  <line x1="87.5" x2="206" y1="52.5" y2="52.5" class="net_7"/>
  <line x1="88" x2="165" y1="829" y2="829" class="net_2"/>
  <line x1="165" x2="165" y1="829" y2="72.5" class="net_2"/>
  <line x1="165" x2="206" y1="72.5" y2="72.5" class="net_2"/>
  <line x1="88" x2="165" y1="829" y2="829" class="net_2"/>
  <line x1="165" x2="165" y1="829" y2="180.5" class="net_2"/>
  <circle cx="165" cy="180.5" r="2" style="fill:#000" class="net_2"/>
  <line x1="165" x2="206" y1="180.5" y2="180.5" class="net_2"/>
  <line x1="88" x2="165" y1="829" y2="829" class="net_2"/>
  <line x1="165" x2="165" y1="829" y2="288.5" class="net_2"/>
  <circle cx="165" cy="288.5" r="2" style="fill:#000" class="net_2"/>
  <line x1="165" x2="206" y1="288.5" y2="288.5" class="net_2"/>
  <line x1="88" x2="165" y1="829" y2="829" class="net_2"/>
  <line x1="165" x2="165" y1="829" y2="396.5" class="net_2"/>
  <circle cx="165" cy="396.5" r="2" style="fill:#000" class="net_2"/>
  <line x1="165" x2="206" y1="396.5" y2="396.5" class="net_2"/>
  <line x1="88" x2="165" y1="829" y2="829" class="net_2"/>
  <line x1="165" x2="165" y1="829" y2="504.5" class="net_2"/>
  <circle cx="165" cy="504.5" r="2" style="fill:#000" class="net_2"/>
  <line x1="165" x2="206" y1="504.5" y2="504.5" class="net_2"/>
  <line x1="88" x2="165" y1="829" y2="829" class="net_2"/>
  <line x1="165" x2="165" y1="829" y2="612.5" class="net_2"/>
  <circle cx="165" cy="612.5" r="2" style="fill:#000" class="net_2"/>
  <line x1="165" x2="206" y1="612.5" y2="612.5" class="net_2"/>
  <line x1="88" x2="165" y1="829" y2="829" class="net_2"/>
  <line x1="165" x2="165" y1="829" y2="720.5" class="net_2"/>
  <circle cx="165" cy="720.5" r="2" style="fill:#000" class="net_2"/>
  <line x1="165" x2="206" y1="720.5" y2="720.5" class="net_2"/>
  <line x1="88" x2="165" y1="829" y2="829" class="net_2"/>
  <line x1="165" x2="165" y1="829" y2="828.5" class="net_2"/>
  <circle cx="165" cy="828.5" r="2" style="fill:#000" class="net_2"/>
  <line x1="165" x2="206" y1="828.5" y2="828.5" class="net_2"/>
  <line x1="88" x2="105" y1="276.5" y2="276.5" class="net_8"/>
  <line x1="105" x2="105" y1="276.5" y2="140.5" class="net_8"/>
  <line x1="105" x2="206" y1="140.5" y2="140.5" class="net_8"/>
  <line x1="88" x2="115" y1="296.5" y2="296.5" class="net_9"/>
  <line x1="115" x2="115" y1="296.5" y2="160.5" class="net_9"/>
  <line x1="115" x2="206" y1="160.5" y2="160.5" class="net_9"/>
  <line x1="88" x2="125" y1="316.5" y2="316.5" class="net_10"/>
  <line x1="125" x2="125" y1="316.5" y2="248.5" class="net_10"/>
  <line x1="125" x2="206" y1="248.5" y2="248.5" class="net_10"/>
  <line x1="88" x2="135" y1="336.5" y2="336.5" class="net_11"/>
  <line x1="135" x2="135" y1="336.5" y2="268.5" class="net_11"/>
  <line x1="135" x2="206" y1="268.5" y2="268.5" class="net_11"/>
  <line x1="88" x2="206" y1="356.5" y2="356.5" class="net_12"/>
  <line x1="88" x2="206" y1="376.5" y2="376.5" class="net_13"/>
  <line x1="88" x2="155" y1="396.5" y2="396.5" class="net_14"/>
  <line x1="155" x2="155" y1="396.5" y2="464.5" class="net_14"/>
  <line x1="155" x2="206" y1="464.5" y2="464.5" class="net_14"/>
  <line x1="88" x2="145" y1="416.5" y2="416.5" class="net_15"/>
  <line x1="145" x2="145" y1="416.5" y2="484.5" class="net_15"/>
  <line x1="145" x2="206" y1="484.5" y2="484.5" class="net_15"/>
  <line x1="88" x2="135" y1="436.5" y2="436.5" class="net_16"/>
  <line x1="135" x2="135" y1="436.5" y2="572.5" class="net_16"/>
  <line x1="135" x2="206" y1="572.5" y2="572.5" class="net_16"/>
  <line x1="88" x2="125" y1="456.5" y2="456.5" class="net_17"/>
  <line x1="125" x2="125" y1="456.5" y2="592.5" class="net_17"/>
  <line x1="125" x2="206" y1="592.5" y2="592.5" class="net_17"/>
  <line x1="88" x2="115" y1="476.5" y2="476.5" class="net_18"/>
  <line x1="115" x2="115" y1="476.5" y2="680.5" class="net_18"/>
  <line x1="115" x2="206" y1="680.5" y2="680.5" class="net_18"/>
  <line x1="88" x2="105" y1="496.5" y2="496.5" class="net_19"/>
  <line x1="105" x2="105" y1="496.5" y2="700.5" class="net_19"/>
  <line x1="105" x2="206" y1="700.5" y2="700.5" class="net_19"/>
  <line x1="87.5" x2="87.5" y1="517" y2="788.5" class="net_20"/>
  <line x1="87.5" x2="206" y1="788.5" y2="788.5" class="net_20"/>
  <line x1="87.5" x2="87.5" y1="537" y2="808.5" class="net_21"/>
  <line x1="87.5" x2="206" y1="808.5" y2="808.5" class="net_21"/>
  <line x1="237" x2="380" y1="32.5" y2="32.5" class="net_23"/>
  <line x1="237" x2="324" y1="140.5" y2="140.5" class="net_24"/>
  <line x1="324" x2="324" y1="140.5" y2="52.5" class="net_24"/>
  <line x1="324" x2="380" y1="52.5" y2="52.5" class="net_24"/>
  <line x1="88" x2="105" y1="849" y2="849" class="net_3"/>
  <line x1="105" x2="105" y1="849" y2="851" class="net_3"/>
  <line x1="105" x2="334" y1="851" y2="851" class="net_3"/>
  <line x1="334" x2="334" y1="851" y2="72.5" class="net_3"/>
  <line x1="334" x2="380" y1="72.5" y2="72.5" class="net_3"/>
  <line x1="88" x2="105" y1="849" y2="849" class="net_3"/>
  <line x1="105" x2="105" y1="849" y2="851" class="net_3"/>
  <line x1="105" x2="334" y1="851" y2="851" class="net_3"/>
  <line x1="334" x2="334" y1="851" y2="288.5" class="net_3"/>
  <circle cx="334" cy="288.5" r="2" style="fill:#000" class="net_3"/>
  <line x1="334" x2="380" y1="288.5" y2="288.5" class="net_3"/>
  <line x1="88" x2="105" y1="849" y2="849" class="net_3"/>
  <line x1="105" x2="105" y1="849" y2="851" class="net_3"/>
  <line x1="105" x2="334" y1="851" y2="851" class="net_3"/>
  <line x1="334" x2="334" y1="851" y2="504.5" class="net_3"/>
  <circle cx="334" cy="504.5" r="2" style="fill:#000" class="net_3"/>
  <line x1="334" x2="380" y1="504.5" y2="504.5" class="net_3"/>
  <line x1="88" x2="105" y1="849" y2="849" class="net_3"/>
  <line x1="105" x2="105" y1="849" y2="851" class="net_3"/>
  <line x1="105" x2="334" y1="851" y2="851" class="net_3"/>
  <line x1="334" x2="334" y1="851" y2="720.5" class="net_3"/>
  <circle cx="334" cy="720.5" r="2" style="fill:#000" class="net_3"/>
  <line x1="334" x2="380" y1="720.5" y2="720.5" class="net_3"/>
  <line x1="237" x2="380" y1="248.5" y2="248.5" class="net_25"/>
  <line x1="237" x2="324" y1="356.5" y2="356.5" class="net_26"/>
  <line x1="324" x2="324" y1="356.5" y2="268.5" class="net_26"/>
  <line x1="324" x2="380" y1="268.5" y2="268.5" class="net_26"/>
  <line x1="237" x2="380" y1="464.5" y2="464.5" class="net_27"/>
  <line x1="237" x2="324" y1="572.5" y2="572.5" class="net_28"/>
  <line x1="324" x2="324" y1="572.5" y2="484.5" class="net_28"/>
  <line x1="324" x2="380" y1="484.5" y2="484.5" class="net_28"/>
  <line x1="237" x2="380" y1="680.5" y2="680.5" class="net_29"/>
  <line x1="237" x2="324" y1="788.5" y2="788.5" class="net_30"/>
  <line x1="324" x2="324" y1="788.5" y2="700.5" class="net_30"/>
  <line x1="324" x2="380" y1="700.5" y2="700.5" class="net_30"/>
  <line x1="411" x2="554" y1="32.5" y2="32.5" class="net_31"/>
  <line x1="411" x2="498" y1="248.5" y2="248.5" class="net_32"/>
  <line x1="498" x2="498" y1="248.5" y2="52.5" class="net_32"/>
  <line x1="498" x2="554" y1="52.5" y2="52.5" class="net_32"/>
  <line x1="88" x2="105" y1="869" y2="869" class="net_4"/>
  <line x1="105" x2="105" y1="869" y2="862" class="net_4"/>
  <line x1="105" x2="508" y1="862" y2="862" class="net_4"/>
  <line x1="508" x2="508" y1="862" y2="72.5" class="net_4"/>
  <line x1="508" x2="554" y1="72.5" y2="72.5" class="net_4"/>
  <line x1="88" x2="105" y1="869" y2="869" class="net_4"/>
  <line x1="105" x2="105" y1="869" y2="862" class="net_4"/>
  <line x1="105" x2="508" y1="862" y2="862" class="net_4"/>
  <line x1="508" x2="508" y1="862" y2="504.5" class="net_4"/>
  <circle cx="508" cy="504.5" r="2" style="fill:#000" class="net_4"/>
  <line x1="508" x2="554" y1="504.5" y2="504.5" class="net_4"/>
  <line x1="411" x2="554" y1="464.5" y2="464.5" class="net_33"/>
  <line x1="411" x2="498" y1="680.5" y2="680.5" class="net_34"/>
  <line x1="498" x2="498" y1="680.5" y2="484.5" class="net_34"/>
  <line x1="498" x2="554" y1="484.5" y2="484.5" class="net_34"/>
  <line x1="585" x2="728" y1="32.5" y2="32.5" class="net_35"/>
  <line x1="585" x2="672" y1="464.5" y2="464.5" class="net_36"/>
  <line x1="672" x2="672" y1="464.5" y2="52.5" class="net_36"/>
  <line x1="672" x2="728" y1="52.5" y2="52.5" class="net_36"/>
  <line x1="88" x2="105" y1="889" y2="889" class="net_5"/>
  <line x1="105" x2="105" y1="889" y2="873" class="net_5"/>
  <line x1="105" x2="682" y1="873" y2="873" class="net_5"/>
  <line x1="682" x2="682" y1="873" y2="72.5" class="net_5"/>
  <line x1="682" x2="728" y1="72.5" y2="72.5" class="net_5"/>
  <line x1="759" x2="831" y1="32.5" y2="32.5" class="net_22"/>
  <line x1="40" x2="83.5" y1="62.5" y2="62.5" class="net_6,7,8,9,10,11,12,13,14,15,16,17,18,19,20,21"/>
  <line x1="83.5" x2="83.5" y1="62.5" y2="246" class="net_6,7,8,9,10,11,12,13,14,15,16,17,18,19,20,21"/>
  <line x1="40" x2="83" y1="839" y2="839" class="net_2,3,4,5"/>
</svg>
